<?xml version="1.0" encoding="UTF-8"?>

<svg xmlns="http://www.w3.org/2000/svg" version="1.1"
	width="297mm"
	height="210mm"
	viewBox="0 0 297 210">
	<!-- Working space 0 0 297 210 -->
	<defs>
		<radialGradient
			id="radialGradient3661"
			gradientUnits="userSpaceOnUse"
			cy="29.149"
			cx="282.65"
			gradientTransform="matrix(.14777 .23089 -.24680 .15795 -26.318 -62.617)"
			r="19.571">
				<stop stop-color="#71b2f8" offset="0"/>
				<stop stop-color="#002795" offset="1"/>
		</radialGradient>
		<radialGradient
			id="radialGradient3817"
			gradientUnits="userSpaceOnUse"
			cy="33.9"
			cx="270.58"
			gradientTransform="matrix(.26631 .065024 -.17931 .73438 -60.668 -36.938)"
			r="19.571">
				<stop stop-color="#ff6d0f" offset="0"/>
				<stop stop-color="#ff1000" offset="1"/>
		</radialGradient>
	</defs>
	<!-- Set display:none to hide FreeCAD Logo -->
	<g
		style="display:inline"
		id="freecad-logo"
		transform="translate(271, 185) scale(1)"
		fill-rule="evenodd"
		stroke-width=".45621">
		<path d="m0.22811 0.22835v13.256h2.9558v-5.1876h2.09v-2.0452h-2.09v-2.2075h5.1486v-3.8087l-8.1044-0.0075z"
			stroke="#370700"
			fill="url(#radialGradient3817)"/>
		<path d="m13.386 4.1792-1.7193 0.98645-0.75925-0.26348-0.72439-1.8513-1.1395 0.05988-0.51976 1.9144-0.72743 0.34835-1.8143-0.79367-0.76632 0.85156 0.98645 1.7193-0.26957 0.75702-1.8513 0.72439 0.065967 1.1417 1.9144 0.51976 0.34835 0.72743-0.79976 1.8121 0.85156 0.76632 1.7193-0.98645 0.76311 0.27179 0.7183 1.8491 1.1478-0.06375 0.51367-1.9166 0.72743-0.34835 1.8182 0.80198 0.76632-0.85156-0.98645-1.7193 0.2657-0.76533 1.8491-0.7183-0.05766-1.1456-1.9166-0.51367-0.34835-0.72743 0.7959-1.8204-0.85156-0.76632zm-2.5751 2.8195 0.35295 0.20478 0.30579 0.27725 0.24481 0.33087 0.17611 0.36787 0.10354 0.39656 0.01715 0.4064-0.0587 0.4063-0.13396 0.38571-0.2131 0.35681-0.26894 0.30192-0.33087 0.24481-0.36787 0.17611-0.39656 0.10354-0.40863 0.02325-0.4063-0.0587-0.38571-0.13396-0.35681-0.2131-0.2997-0.27503-0.24703-0.32478-0.17611-0.36787-0.10132-0.40264-0.02324-0.40863 0.05869-0.4063 0.13396-0.38571 0.21087-0.35072 0.27116-0.30801 0.33087-0.24481 0.36787-0.17611 0.40264-0.10132 0.40641-0.01715 0.4063 0.05869 0.38571 0.13396z" 
		stroke="#000137"
		fill="url(#radialGradient3661)"/>
	</g>
<g id="View"
   transform="rotate(60,153.149,105.699) translate(153.149,105.699) scale(1,1)"
  >
<g   stroke="rgb(0, 0, 0)"
   stroke-width="0.35"
   stroke-linecap="butt"
   stroke-linejoin="miter"
   fill="none"
   transform="scale(1,-1)"
  >
<path id= "1" d=" M -2.82843 -26.2504 L 3.12769 -22.8116 " />
<path id= "2" d=" M 13.435 1.22474 L 8.07743 -1.86846 " />
<path id= "3" d=" M 3.12769 -22.8116 L 6.66322 -16.6879 " />
<path id= "4" d=" M 8.07743 -1.86846 L 6.66322 -4.31795 " />
<path id= "5" d=" M 6.66322 -4.31795 L 6.66322 -16.6879 " />
<path id= "6" d=" M -13.435 -7.75672 L -14.8492 -6.94022 " />
<path id= "7" d=" M -13.435 -14.2887 L -16.2635 -14.2887 " />
<path id= "8" d=" M -14.8492 -6.94022 L -20.5061 -10.2062 " />
<path id= "9" d=" M -16.2635 -14.2887 L -20.5061 -11.8392 " />
<path id= "10" d=" M -20.5061 -11.8392 L -20.5061 -10.2062 " />
<path id= "11" d=" M -13.435 -12.6557 L -13.9527 -12.9546 " />
<path id= "12" d=" M -15.7458 -9.09085 L -13.435 -9.44833 " />
<path id= "13" d=" M -18.1953 -10.5051 L -15.7458 -9.09085 " />
<path id= "14" d=" M -17.2987 -12.4369 L -18.1953 -10.5051 " />
<path id= "15" d=" M -13.9527 -12.9546 L -17.2987 -12.4369 " />
<path id= "16" d=" M -14.8492 -6.94022 L -13.435 -7.75672 " />
<path id= "17" d=" M -13.435 -20.1266 L -13.435 -7.75672 " />
<path id= "18" d=" M -2.82843 -26.2504 L -9.89949 -22.1679 " />
<path id= "19" d=" M -13.435 -20.1266 L -9.89949 -22.1679 " />
<path id= "20" d=" M 13.435 9.38971 L 13.435 2.85774 " />
<path id= "21" d=" M 13.435 1.22474 L 13.435 2.85774 " />
<path id= "22" d=" M 3.12769 -22.8116 L -3.94338 -18.7291 " />
<path id= "23" d=" M -9.89949 -22.1679 L -3.94338 -18.7291 " />
<path id= "24" d=" M 8.07743 -1.86846 L 1.00637 2.21402 " />
<path id= "25" d=" M 6.36396 5.30723 L 1.00637 2.21402 " />
<path id= "26" d=" M 13.435 2.85774 L 9.19239 5.30723 " />
<path id= "27" d=" M 9.19239 5.30723 L 6.36396 5.30723 " />
<path id= "28" d=" M 8.67475 0.10939 L 5.32868 0.627028 " />
<path id= "29" d=" M 11.1242 1.5236 L 8.67475 0.10939 " />
<path id= "30" d=" M 10.2277 3.45546 L 11.1242 1.5236 " />
<path id= "31" d=" M 6.8816 3.97309 L 10.2277 3.45546 " />
<path id= "32" d=" M 4.43211 2.55888 L 6.8816 3.97309 " />
<path id= "33" d=" M 5.32868 0.627028 L 4.43211 2.55888 " />
<path id= "34" d=" M 6.66322 -16.6879 L -0.407847 -12.6054 " />
<path id= "35" d=" M -3.94338 -18.7291 L -0.407847 -12.6054 " />
<path id= "36" d=" M 6.66322 -4.31795 L -0.407847 -0.235471 " />
<path id= "37" d=" M 1.00637 2.21402 L -0.407847 -0.235471 " />
<path id= "38" d=" M -0.407847 -0.235471 L -0.407847 -12.6054 " />
<path d="M3.12769 -3.50146 A3 1.73205 -60 0 1 1.62769 -3.35287" />
<path d="M1.62769 -3.35287 A3 1.73205 -60 0 1 4.62769 -8.54902" />
<path d="M4.62769 -8.54902 A3 1.73205 -60 0 1 3.12769 -3.50146" />
<path id= "42" d=" M -20.5061 -10.2062 L -20.5061 -4.49073 " />
<path id= "43" d=" M -20.5061 -4.49073 L 6.36396 11.0227 " />
<path id= "44" d=" M 6.36396 11.0227 L 6.36396 5.30723 " />
<path id= "45" d=" M -4.94975 -8.39423 L -4.94975 -0.688655 " />
<path d="M-9.19239 -10.8437 A5.3 3.05996 60 0 1 -7.07107 -17.5139" />
<path d="M-7.07107 -17.5139 A5.3 3.05996 60 0 1 -3.3234 -11.0227" />
<path d="M-3.3234 -11.0227 A5.3 3.05996 60 0 1 -4.94975 -8.39423" />
<path d="M-4.94975 -0.688655 A3 1.73205 60 0 1 -9.19239 -3.13815" />
<path id= "50" d=" M -9.19239 -3.13815 L -9.19239 -10.8437 " />
<path id= "51" d=" M -13.5151 -9.43594 L -13.9527 -9.68857 " />
<path id= "52" d=" M -13.9527 -12.9546 L -13.9527 -9.68857 " />
<path id= "53" d=" M -17.2987 -12.4369 L -17.2987 -9.98743 " />
<path id= "54" d=" M -13.9527 -9.68857 L -16.1834 -9.34348 " />
<path id= "55" d=" M 13.435 9.38971 L 9.19239 11.8392 " />
<path id= "56" d=" M 9.19239 11.8392 L 7.77817 11.8392 " />
<path id= "57" d=" M 9.19239 11.8392 L 9.19239 5.30723 " />
<path id= "58" d=" M 7.77817 11.8392 L 6.36396 11.0227 " />
<path id= "59" d=" M 8.67475 0.10939 L 8.67475 3.37538 " />
<path id= "60" d=" M 8.67475 3.37538 L 6.44404 3.72047 " />
<path id= "61" d=" M 5.32868 0.627028 L 5.32868 3.07652 " />
<path id= "62" d=" M 9.11231 3.628 L 8.67475 3.37538 " />
<path d="M2.42058 -3.90971 A3 1.73205 -60 0 1 1.3164 -3.63019" />
<path d="M4.23187 -8.67995 A3 1.73205 -60 0 1 2.42058 -3.90971" />
<path id= "65" d=" M -3.86047 -13.565 L -7.77817 -11.3031 " />
<path d="M-7.77817 -11.3031 A4.3 2.48261 60 0 1 -8.51396 -17.3186" />
<path d="M-8.51396 -17.3186 A4.3 2.48261 60 0 1 -6.699 -17.2777" />
<path d="M-3.34192 -11.463 A4.3 2.48261 60 0 1 -4.21396 -9.87076" />
<path d="M-4.21396 -9.87076 A4.3 2.48261 60 0 1 -4.94975 -9.67012" />
<path id= "70" d=" M -3.67231 -10.4076 L -4.94975 -9.67012 " />
<path id= "71" d=" M -7.77817 -3.13815 L -7.77817 -11.3031 " />
<path d="M-4.94975 -9.30806 A1.6 0.92376 -60 0 1 -5.74975 -9.22881" />
<path d="M-5.74975 -9.22881 A1.6 0.92376 -60 0 1 -4.14975 -12.0001" />
<path d="M-4.14975 -12.0001 A1.6 0.92376 -60 0 1 -4.16797 -10.1215" />
<path d="M-4.94975 -1.50515 A2 1.1547 60 0 1 -5.36396 -0.589598" />
<path d="M-5.36396 -0.589598 A2 1.1547 60 0 1 -7.77817 -3.13815" />
<path d="M-4.94975,-8.39423 L-4.94975,-8.48909  L-4.94975,-8.58338  L-4.94975,-8.67709  L-4.94975,-8.77024  L-4.94975,-8.8628  L-4.94975,-8.9548  L-4.94975,-9.04622  L-4.94975,-9.13707  L-4.94975,-9.22734  L-4.94975,-9.31705  L-4.94975,-9.40617  L-4.94975,-9.49473  L-4.94975,-9.58271  L-4.94975,-9.67012 " /><path d="M-9.19239,-10.8437 L-9.08492,-10.8765  L-8.97844,-10.9093  L-8.87296,-10.9422  L-8.76847,-10.975  L-8.66497,-11.0078  L-8.56246,-11.0406  L-8.46095,-11.0734  L-8.36043,-11.1062  L-8.26091,-11.139  L-8.16237,-11.1719  L-8.06483,-11.2047  L-7.96829,-11.2375  L-7.87273,-11.2703  L-7.77817,-11.3031 " /><path d="M2.42058 -5.0528 A1.6 0.92376 -60 0 1 1.62058 -4.97355" />
<path d="M1.62058 -4.97355 A1.6 0.92376 -60 0 1 1.48093 -6.5443" />
<path d="M1.79045 -7.0804 A1.6 0.92376 -60 0 1 3.22058 -7.74484" />
<path d="M3.22058 -7.74484 A1.6 0.92376 -60 0 1 2.42058 -5.0528" />
</g>
</g>



</svg>

