<?xml version="1.0" encoding="UTF-8"?>

<svg xmlns="http://www.w3.org/2000/svg" version="1.1"
	width="297mm"
	height="210mm"
	viewBox="0 0 297 210">
	<!-- Working space 0 0 297 210 -->
	<defs>
		<radialGradient
			id="radialGradient3661"
			gradientUnits="userSpaceOnUse"
			cy="29.149"
			cx="282.65"
			gradientTransform="matrix(.14777 .23089 -.24680 .15795 -26.318 -62.617)"
			r="19.571">
				<stop stop-color="#71b2f8" offset="0"/>
				<stop stop-color="#002795" offset="1"/>
		</radialGradient>
		<radialGradient
			id="radialGradient3817"
			gradientUnits="userSpaceOnUse"
			cy="33.9"
			cx="270.58"
			gradientTransform="matrix(.26631 .065024 -.17931 .73438 -60.668 -36.938)"
			r="19.571">
				<stop stop-color="#ff6d0f" offset="0"/>
				<stop stop-color="#ff1000" offset="1"/>
		</radialGradient>
	</defs>
	<!-- Set display:none to hide FreeCAD Logo -->
	<g
		style="display:inline"
		id="freecad-logo"
		transform="translate(271, 185) scale(1)"
		fill-rule="evenodd"
		stroke-width=".45621">
		<path d="m0.22811 0.22835v13.256h2.9558v-5.1876h2.09v-2.0452h-2.09v-2.2075h5.1486v-3.8087l-8.1044-0.0075z"
			stroke="#370700"
			fill="url(#radialGradient3817)"/>
		<path d="m13.386 4.1792-1.7193 0.98645-0.75925-0.26348-0.72439-1.8513-1.1395 0.05988-0.51976 1.9144-0.72743 0.34835-1.8143-0.79367-0.76632 0.85156 0.98645 1.7193-0.26957 0.75702-1.8513 0.72439 0.065967 1.1417 1.9144 0.51976 0.34835 0.72743-0.79976 1.8121 0.85156 0.76632 1.7193-0.98645 0.76311 0.27179 0.7183 1.8491 1.1478-0.06375 0.51367-1.9166 0.72743-0.34835 1.8182 0.80198 0.76632-0.85156-0.98645-1.7193 0.2657-0.76533 1.8491-0.7183-0.05766-1.1456-1.9166-0.51367-0.34835-0.72743 0.7959-1.8204-0.85156-0.76632zm-2.5751 2.8195 0.35295 0.20478 0.30579 0.27725 0.24481 0.33087 0.17611 0.36787 0.10354 0.39656 0.01715 0.4064-0.0587 0.4063-0.13396 0.38571-0.2131 0.35681-0.26894 0.30192-0.33087 0.24481-0.36787 0.17611-0.39656 0.10354-0.40863 0.02325-0.4063-0.0587-0.38571-0.13396-0.35681-0.2131-0.2997-0.27503-0.24703-0.32478-0.17611-0.36787-0.10132-0.40264-0.02324-0.40863 0.05869-0.4063 0.13396-0.38571 0.21087-0.35072 0.27116-0.30801 0.33087-0.24481 0.36787-0.17611 0.40264-0.10132 0.40641-0.01715 0.4063 0.05869 0.38571 0.13396z" 
		stroke="#000137"
		fill="url(#radialGradient3661)"/>
	</g>
<g id="Ortho_0_0"
   transform="rotate(-90,117.3,192) translate(117.3,192) scale(1,1)"
  >
<g   stroke="rgb(0, 0, 0)"
   stroke-width="0.35"
   stroke-linecap="butt"
   stroke-linejoin="miter"
   fill="none"
   transform="scale(1,-1)"
  >
<path id= "1" d=" M 2.66454e-15 1 L 2.13163e-14 8 " />
<path id= "2" d=" M 8.03357e-14 30.15 L 6.70131e-14 25.15 " />
<path id= "3" d=" M 2.13163e-14 8 L 2.66454e-14 10 " />
<path id= "4" d=" M 2.66454e-14 10 L 6.70131e-14 25.15 " />
<path d="M7.0477e-14,26.45 L7.04585e-14,26.4431  L7.04032e-14,26.4223  L7.03113e-14,26.3878  L7.01828e-14,26.3396  L7.00183e-14,26.2779  L6.98181e-14,26.2027  L6.95827e-14,26.1144  L6.93127e-14,26.0131  L6.90089e-14,25.8991  L6.86721e-14,25.7726  L6.83031e-14,25.6341  L6.79029e-14,25.4839  L6.74725e-14,25.3224  L6.70131e-14,25.15 " /><path id= "6" d=" M 2.66454e-14 10 L 2.13163e-14 8 " />
<path id= "7" d=" M 2.66454e-15 1 L 1 8.88178e-15 " />
<path id= "8" d=" M 1 -2.65529e-15 L 2 -5.10297e-15 " />
<path id= "9" d=" M 2 -5.10297e-15 L 2 8 " />
<path id= "10" d=" M 2.32037e-14 8 L 2 8 " />
<path id= "11" d=" M 8.03357e-14 30.15 L 10 30.15 " />
<path id= "12" d=" M 2 8 L 8 8 " />
<path id= "13" d=" M 8 8 L 10 8 " />
<path id= "14" d=" M 2 8 L 5 8 " />
<path id= "15" d=" M 5 8 L 8 8 " />
<path id= "16" d=" M 6.70131e-14 25.15 L 10 25.15 " />
<path id= "17" d=" M 10 30.15 L 10 25.15 " />
<path id= "18" d=" M 2.66454e-14 10 L 10 10 " />
<path id= "19" d=" M 10 8 L 10 10 " />
<path id= "20" d=" M 10 10 L 10 25.15 " />
<circle cx ="5" cy ="14.5" r ="3" /><path id= "22" d=" M 10 1 L 10 8 " />
<path d="M10,26.45 L10,26.4431  L10,26.4223  L10,26.3878  L10,26.3396  L10,26.2779  L10,26.2027  L10,26.1144  L10,26.0131  L10,25.8991  L10,25.7726  L10,25.6341  L10,25.4839  L10,25.3224  L10,25.15 " /><path d="M10,7.34343 L10,7.00753  L10,6.67586  L10,6.35259  L10,6.04178  L10,5.74733  L10,5.47296  L10,5.22211  L10,4.99793  L10,4.80325  L10,4.64052  L10,4.51178  L10,4.41864  L10,4.36229  L10,4.34343 " /><path d="M10,7.34343 L10,7.34343  L10,7.34343  L10,7.34343  L10,7.34343  L10,7.34343  L10,7.34343  L10,7.34343  L10,7.34343  L10,7.34343  L10,7.34343  L10,7.34343  L10,7.34343  L10,7.34343  L10,7.34343 " /><path id= "26" d=" M 10 7.34343 L 10 8 " />
<path id= "27" d=" M 2 -5.10297e-15 L 8 -1.97579e-14 " />
<path id= "28" d=" M 8 -1.97579e-14 L 9 -2.21952e-14 " />
<path id= "29" d=" M 8 -1.97579e-14 L 8 8 " />
<path id= "30" d=" M 9 -1.24345e-14 L 10 1 " />
<circle cx ="5" cy ="14.5" r ="3" /><circle cx ="5" cy ="14.5" r ="1.6" /></g>
</g>



<g id="Ortho_0_1"
   transform="rotate(90,117.3,81) translate(117.3,81) scale(1,1)"
  >
<g   stroke="rgb(0, 0, 0)"
   stroke-width="0.35"
   stroke-linecap="butt"
   stroke-linejoin="miter"
   fill="none"
   transform="scale(1,-1)"
  >
<path id= "1" d=" M -11 -8 L -19 -8 " />
<path id= "2" d=" M -21 -8 L -19 -8 " />
<path id= "3" d=" M -14.2679 -8 L -17.7321 -8 " />
<path id= "4" d=" M -12.5359 -8 L -14.2679 -8 " />
<path id= "5" d=" M -17.7321 -8 L -19.4641 -8 " />
<path id= "6" d=" M -11 -8 L -9 -10 " />
<path id= "7" d=" M -9 -25.15 L -9 -10 " />
<path id= "8" d=" M -9 -25.15 L -4 -30.15 " />
<path id= "9" d=" M -4 -30.15 L 4.42322 -30.15 " />
<path id= "10" d=" M 19 -8 L 11.4232 -8 " />
<path id= "11" d=" M 21 -8 L 19 -8 " />
<path id= "12" d=" M 14.2679 -8 L 12.5359 -8 " />
<path id= "13" d=" M 17.7321 -8 L 14.2679 -8 " />
<path id= "14" d=" M 19.4641 -8 L 17.7321 -8 " />
<path id= "15" d=" M 4.42322 -30.15 L 9.42322 -25.15 " />
<path id= "16" d=" M 11.4232 -8 L 9.42322 -10 " />
<path id= "17" d=" M 9.42322 -10 L 9.42322 -25.15 " />
<path id= "18" d=" M -19 -8 L -19 -1 " />
<path id= "19" d=" M -19 -1 L 19 -1 " />
<path id= "20" d=" M 19 -1 L 19 -8 " />
<path id= "21" d=" M 3 -16.7808 L 3 -7.34343 " />
<path d="M-3 -16.7808 A5.3 5.3 0 1 1 3 -16.7808" /><path d="M3 -7.34343 A3 3 0 0 1 -3 -7.34343" /><path id= "24" d=" M -3 -7.34343 L -3 -16.7808 " />
<path id= "25" d=" M -21 -8 L -21 2.13163e-14 " />
<path id= "26" d=" M -20 2.30926e-14 L -19 -1 " />
<path id= "27" d=" M -21 1.87602e-14 L -20 2.12079e-14 " />
<path id= "28" d=" M -20 2.21785e-14 L 20 2.23861e-14 " />
<path id= "29" d=" M 21 1.97579e-14 L 20 2.21952e-14 " />
<path id= "30" d=" M 21 1.97579e-14 L 21 -8 " />
<path id= "31" d=" M 20 1.24345e-14 L 19 -1 " />
<path d="M-2 -17.3434 A4.3 4.3 0 1 1 2 -17.3434" /><path id= "33" d=" M -2 -7.34343 L -2 -17.3434 " />
<path id= "34" d=" M 2 -17.3434 L 2 -7.34343 " />
<path d="M2 -7.34343 A2 2 0 0 1 -2 -7.34343" /><path d="M3,-16.7808 L2.92401,-16.821  L2.84872,-16.8612  L2.77413,-16.9014  L2.70024,-16.9415  L2.62706,-16.9817  L2.55458,-17.0219  L2.4828,-17.0621  L2.41172,-17.1023  L2.34134,-17.1425  L2.27167,-17.1827  L2.2027,-17.2229  L2.13443,-17.263  L2.06686,-17.3032  L2,-17.3434 " /><path d="M-3,-16.7808 L-2.92401,-16.821  L-2.84872,-16.8612  L-2.77413,-16.9014  L-2.70024,-16.9415  L-2.62706,-16.9817  L-2.55458,-17.0219  L-2.4828,-17.0621  L-2.41172,-17.1023  L-2.34134,-17.1425  L-2.27167,-17.1827  L-2.2027,-17.2229  L-2.13443,-17.263  L-2.06686,-17.3032  L-2,-17.3434 " /></g>
</g>



<g id="Ortho_1_0"
   transform="rotate(-90,207.15,192) translate(207.15,192) scale(1,1)"
  >
<g   stroke="rgb(0, 0, 0)"
   stroke-width="0.35"
   stroke-linecap="butt"
   stroke-linejoin="miter"
   fill="none"
   transform="scale(1,-1)"
  >
<path id= "1" d=" M 2.66454e-15 -19 L 2.66454e-15 19 " />
<path id= "2" d=" M 2.33147e-15 -19 L 1 -20 " />
<path id= "3" d=" M 1 -20 L 2 -21 " />
<path id= "4" d=" M 1 -20 L 1 20 " />
<path id= "5" d=" M 2.66454e-15 19 L 1 20 " />
<path id= "6" d=" M 1 20 L 2 21 " />
<path id= "7" d=" M 10 -19 L 10 19 " />
<path d="M10,-3 L10,-3.29502  L10,-3.57425  L10,-3.83637  L10,-4.08011  L10,-4.30431  L10,-4.50789  L10,-4.68988  L10,-4.84941  L10,-4.98571  L10,-5.09813  L10,-5.18613  L10,-5.24929  L10,-5.28731  L10,-5.3 " /><path d="M10,5.3 L10,5.28731  L10,5.24929  L10,5.18613  L10,5.09813  L10,4.98571  L10,4.84941  L10,4.68988  L10,4.50789  L10,4.30431  L10,4.08011  L10,3.83637  L10,3.57425  L10,3.29502  L10,3 " /><path d="M10,3 L10,2.92478  L10,2.70291  L10,2.34549  L10,1.87047  L10,1.30165  L10,0.667562  L10,-4.97466e-07  L10,-0.667563  L10,-1.30165  L10,-1.87047  L10,-2.34549  L10,-2.70291  L10,-2.92478  L10,-3 " /><path id= "11" d=" M 2 -21 L 8 -21 " />
<path id= "12" d=" M 9 -20 L 10 -19 " />
<path id= "13" d=" M 8 -21 L 9 -20 " />
<path id= "14" d=" M 2 21 L 8 21 " />
<path id= "15" d=" M 9 -20 L 9 20 " />
<path id= "16" d=" M 8 21 L 9 20 " />
<circle cx ="5" cy ="16" r ="1.6" /><circle cx ="5" cy ="-16" r ="1.6" /><path id= "19" d=" M 9 20 L 10 19 " />
</g>
</g>



</svg>

