<?xml version="1.0" encoding="UTF-8"?>

<svg xmlns="http://www.w3.org/2000/svg" version="1.1"
	width="297mm"
	height="210mm"
	viewBox="0 0 297 210">
	<!-- Working space 0 0 297 210 -->
	<defs>
		<radialGradient
			id="radialGradient3661"
			gradientUnits="userSpaceOnUse"
			cy="29.149"
			cx="282.65"
			gradientTransform="matrix(.14777 .23089 -.24680 .15795 -26.318 -62.617)"
			r="19.571">
				<stop stop-color="#71b2f8" offset="0"/>
				<stop stop-color="#002795" offset="1"/>
		</radialGradient>
		<radialGradient
			id="radialGradient3817"
			gradientUnits="userSpaceOnUse"
			cy="33.9"
			cx="270.58"
			gradientTransform="matrix(.26631 .065024 -.17931 .73438 -60.668 -36.938)"
			r="19.571">
				<stop stop-color="#ff6d0f" offset="0"/>
				<stop stop-color="#ff1000" offset="1"/>
		</radialGradient>
	</defs>
	<!-- Set display:none to hide FreeCAD Logo -->
	<g
		style="display:inline"
		id="freecad-logo"
		transform="translate(271, 185) scale(1)"
		fill-rule="evenodd"
		stroke-width=".45621">
		<path d="m0.22811 0.22835v13.256h2.9558v-5.1876h2.09v-2.0452h-2.09v-2.2075h5.1486v-3.8087l-8.1044-0.0075z"
			stroke="#370700"
			fill="url(#radialGradient3817)"/>
		<path d="m13.386 4.1792-1.7193 0.98645-0.75925-0.26348-0.72439-1.8513-1.1395 0.05988-0.51976 1.9144-0.72743 0.34835-1.8143-0.79367-0.76632 0.85156 0.98645 1.7193-0.26957 0.75702-1.8513 0.72439 0.065967 1.1417 1.9144 0.51976 0.34835 0.72743-0.79976 1.8121 0.85156 0.76632 1.7193-0.98645 0.76311 0.27179 0.7183 1.8491 1.1478-0.06375 0.51367-1.9166 0.72743-0.34835 1.8182 0.80198 0.76632-0.85156-0.98645-1.7193 0.2657-0.76533 1.8491-0.7183-0.05766-1.1456-1.9166-0.51367-0.34835-0.72743 0.7959-1.8204-0.85156-0.76632zm-2.5751 2.8195 0.35295 0.20478 0.30579 0.27725 0.24481 0.33087 0.17611 0.36787 0.10354 0.39656 0.01715 0.4064-0.0587 0.4063-0.13396 0.38571-0.2131 0.35681-0.26894 0.30192-0.33087 0.24481-0.36787 0.17611-0.39656 0.10354-0.40863 0.02325-0.4063-0.0587-0.38571-0.13396-0.35681-0.2131-0.2997-0.27503-0.24703-0.32478-0.17611-0.36787-0.10132-0.40264-0.02324-0.40863 0.05869-0.4063 0.13396-0.38571 0.21087-0.35072 0.27116-0.30801 0.33087-0.24481 0.36787-0.17611 0.40264-0.10132 0.40641-0.01715 0.4063 0.05869 0.38571 0.13396z" 
		stroke="#000137"
		fill="url(#radialGradient3661)"/>
	</g>
<g id="Ortho_0_0"
   transform="rotate(-90,95.0236,157.968) translate(95.0236,157.968) scale(1,1)"
  >
<g   stroke="rgb(0, 0, 0)"
   stroke-width="0.35"
   stroke-linecap="butt"
   stroke-linejoin="miter"
   fill="none"
   transform="scale(1,-1)"
  >
<path id= "1" d=" M 0 -6 L 7.5 -6 " />
<path id= "2" d=" M 0 6 L 7.5 6 " />
<path id= "3" d=" M 7.5 -6 L 50 -6 " />
<path id= "4" d=" M 7.5 6 L 50 6 " />
<path id= "5" d=" M 50 -6 L 60 -6 " />
<path id= "6" d=" M 50 6 L 60 6 " />
</g>
<g   stroke="rgb(0, 0, 0)"
   stroke-width="0.35"
   stroke-linecap="butt"
   stroke-linejoin="miter"
   fill="none"
   transform="scale(1,-1)"
  >
<path d="M0,0 L0,-0.671787  L0,-1.33513  L0,-1.98167  L0,-2.6033  L0,-3.19219  L0,-3.74094  L0,-4.24264  L0,-4.69099  L0,-5.08035  L0,-5.40581  L0,-5.6633  L0,-5.84957  L0,-5.96227  L0,-6 " /><path d="M0,6 L0,5.96227  L0,5.84957  L0,5.6633  L0,5.40581  L0,5.08035  L0,4.69099  L0,4.24264  L0,3.74094  L0,3.19219  L0,2.6033  L0,1.98167  L0,1.33513  L0,0.671787  L0,-1.98467e-14 " /><path d="M7.5,0 L7.5,-0.671787  L7.5,-1.33513  L7.5,-1.98167  L7.5,-2.6033  L7.5,-3.19219  L7.5,-3.74094  L7.5,-4.24264  L7.5,-4.69099  L7.5,-5.08035  L7.5,-5.40581  L7.5,-5.6633  L7.5,-5.84957  L7.5,-5.96227  L7.5,-6 " /><path d="M7.5,6 L7.5,5.96227  L7.5,5.84957  L7.5,5.6633  L7.5,5.40581  L7.5,5.08035  L7.5,4.69099  L7.5,4.24264  L7.5,3.74094  L7.5,3.19219  L7.5,2.6033  L7.5,1.98167  L7.5,1.33513  L7.5,0.671787  L7.5,-1.98467e-14 " /><path d="M50,0 L50,-0.671787  L50,-1.33513  L50,-1.98167  L50,-2.6033  L50,-3.19219  L50,-3.74094  L50,-4.24264  L50,-4.69099  L50,-5.08035  L50,-5.40581  L50,-5.6633  L50,-5.84957  L50,-5.96227  L50,-6 " /><path d="M50,6 L50,5.96227  L50,5.84957  L50,5.6633  L50,5.40581  L50,5.08035  L50,4.69099  L50,4.24264  L50,3.74094  L50,3.19219  L50,2.6033  L50,1.98167  L50,1.33513  L50,0.671787  L50,-1.98467e-14 " /><path d="M60,0 L60,-0.671787  L60,-1.33513  L60,-1.98167  L60,-2.6033  L60,-3.19219  L60,-3.74094  L60,-4.24264  L60,-4.69099  L60,-5.08035  L60,-5.40581  L60,-5.6633  L60,-5.84957  L60,-5.96227  L60,-6 " /><path d="M60,6 L60,5.96227  L60,5.84957  L60,5.6633  L60,5.40581  L60,5.08035  L60,4.69099  L60,4.24264  L60,3.74094  L60,3.19219  L60,2.6033  L60,1.98167  L60,1.33513  L60,0.671787  L60,-1.98467e-14 " /></g>
</g>



<g id="Ortho_0_1"
   transform="rotate(90,95.0236,33.9606) translate(95.0236,33.9606) scale(1,1)"
  >
<g   stroke="rgb(0, 0, 0)"
   stroke-width="0.35"
   stroke-linecap="butt"
   stroke-linejoin="miter"
   fill="none"
   transform="scale(1,-1)"
  >
<circle cx ="0" cy ="0" r ="6" /></g>
</g>



<g id="Ortho_1_0"
   transform="rotate(-90,202.024,157.968) translate(202.024,157.968) scale(1,1)"
  >
<g   stroke="rgb(0, 0, 0)"
   stroke-width="0.35"
   stroke-linecap="butt"
   stroke-linejoin="miter"
   fill="none"
   transform="scale(1,-1)"
  >
<path id= "1" d=" M 0 -6 L 7.5 -6 " />
<path id= "2" d=" M 7.5 -6 L 50 -6 " />
<path id= "3" d=" M 50 -6 L 60 -6 " />
</g>
<g   stroke="rgb(0, 0, 0)"
   stroke-width="0.35"
   stroke-linecap="butt"
   stroke-linejoin="miter"
   fill="none"
   transform="scale(1,-1)"
  >
<path d="M0,6 L0,5.84957  L0,5.40581  L0,4.69099  L0,3.74094  L0,2.6033  L0,1.33513  L0,3.67394e-16  L0,-1.33513  L0,-2.6033  L0,-3.74094  L0,-4.69099  L0,-5.40581  L0,-5.84957  L0,-6 " /><path id= "2" d=" M 0 6 L 7.5 6 " />
<path d="M7.5,6 L7.5,5.84957  L7.5,5.40581  L7.5,4.69099  L7.5,3.74094  L7.5,2.6033  L7.5,1.33513  L7.5,3.67394e-16  L7.5,-1.33513  L7.5,-2.6033  L7.5,-3.74094  L7.5,-4.69099  L7.5,-5.40581  L7.5,-5.84957  L7.5,-6 " /><path id= "4" d=" M 7.5 6 L 50 6 " />
<path d="M50,6 L50,5.84957  L50,5.40581  L50,4.69099  L50,3.74094  L50,2.6033  L50,1.33513  L50,3.67394e-16  L50,-1.33513  L50,-2.6033  L50,-3.74094  L50,-4.69099  L50,-5.40581  L50,-5.84957  L50,-6 " /><path id= "6" d=" M 50 6 L 60 6 " />
<path d="M60,6 L60,5.84957  L60,5.40581  L60,4.69099  L60,3.74094  L60,2.6033  L60,1.33513  L60,3.67394e-16  L60,-1.33513  L60,-2.6033  L60,-3.74094  L60,-4.69099  L60,-5.40581  L60,-5.84957  L60,-6 " /></g>
</g>



</svg>

