<?xml version="1.0" encoding="UTF-8"?>

<svg xmlns="http://www.w3.org/2000/svg" version="1.1"
	width="297mm"
	height="210mm"
	viewBox="0 0 297 210">
	<!-- Working space 0 0 297 210 -->
	<defs>
		<radialGradient
			id="radialGradient3661"
			gradientUnits="userSpaceOnUse"
			cy="29.149"
			cx="282.65"
			gradientTransform="matrix(.14777 .23089 -.24680 .15795 -26.318 -62.617)"
			r="19.571">
				<stop stop-color="#71b2f8" offset="0"/>
				<stop stop-color="#002795" offset="1"/>
		</radialGradient>
		<radialGradient
			id="radialGradient3817"
			gradientUnits="userSpaceOnUse"
			cy="33.9"
			cx="270.58"
			gradientTransform="matrix(.26631 .065024 -.17931 .73438 -60.668 -36.938)"
			r="19.571">
				<stop stop-color="#ff6d0f" offset="0"/>
				<stop stop-color="#ff1000" offset="1"/>
		</radialGradient>
	</defs>
	<!-- Set display:none to hide FreeCAD Logo -->
	<g
		style="display:inline"
		id="freecad-logo"
		transform="translate(271, 185) scale(1)"
		fill-rule="evenodd"
		stroke-width=".45621">
		<path d="m0.22811 0.22835v13.256h2.9558v-5.1876h2.09v-2.0452h-2.09v-2.2075h5.1486v-3.8087l-8.1044-0.0075z"
			stroke="#370700"
			fill="url(#radialGradient3817)"/>
		<path d="m13.386 4.1792-1.7193 0.98645-0.75925-0.26348-0.72439-1.8513-1.1395 0.05988-0.51976 1.9144-0.72743 0.34835-1.8143-0.79367-0.76632 0.85156 0.98645 1.7193-0.26957 0.75702-1.8513 0.72439 0.065967 1.1417 1.9144 0.51976 0.34835 0.72743-0.79976 1.8121 0.85156 0.76632 1.7193-0.98645 0.76311 0.27179 0.7183 1.8491 1.1478-0.06375 0.51367-1.9166 0.72743-0.34835 1.8182 0.80198 0.76632-0.85156-0.98645-1.7193 0.2657-0.76533 1.8491-0.7183-0.05766-1.1456-1.9166-0.51367-0.34835-0.72743 0.7959-1.8204-0.85156-0.76632zm-2.5751 2.8195 0.35295 0.20478 0.30579 0.27725 0.24481 0.33087 0.17611 0.36787 0.10354 0.39656 0.01715 0.4064-0.0587 0.4063-0.13396 0.38571-0.2131 0.35681-0.26894 0.30192-0.33087 0.24481-0.36787 0.17611-0.39656 0.10354-0.40863 0.02325-0.4063-0.0587-0.38571-0.13396-0.35681-0.2131-0.2997-0.27503-0.24703-0.32478-0.17611-0.36787-0.10132-0.40264-0.02324-0.40863 0.05869-0.4063 0.13396-0.38571 0.21087-0.35072 0.27116-0.30801 0.33087-0.24481 0.36787-0.17611 0.40264-0.10132 0.40641-0.01715 0.4063 0.05869 0.38571 0.13396z" 
		stroke="#000137"
		fill="url(#radialGradient3661)"/>
	</g>
<g id="Ortho_0_0"
   transform="rotate(-90,110.333,153.333) translate(110.333,153.333) scale(1,1)"
  >
<g   stroke="rgb(0, 0, 0)"
   stroke-width="0.35"
   stroke-linecap="butt"
   stroke-linejoin="miter"
   fill="none"
   transform="scale(1,-1)"
  >
<path id= "1" d=" M -8 7.4 L -8 7.49585 " />
<path id= "2" d=" M -8 37 L -8 7.5 " />
<path id= "3" d=" M -8 7.4 L -8 7.49585 " />
<path id= "4" d=" M -8 7.5 L -8 7.4 " />
<path id= "5" d=" M -8 7.49585 L -8 7.4 " />
<path id= "6" d=" M -8 7.4 L -7.19585 6.59585 " />
<path id= "7" d=" M -7.19585 6.59585 L -7.1 6.5 " />
<path id= "8" d=" M -3 42 L -8 37 " />
<path id= "9" d=" M -8 7.4 L -7.2 6.6 " />
<path id= "10" d=" M -7.1 5 L 6 5 " />
<path id= "11" d=" M -7.1 5 L -8 4.1 " />
<path id= "12" d=" M 6 7.5 L 6 5 " />
<path id= "13" d=" M -8 4.1 L -8 -4.1 " />
<path id= "14" d=" M -8 7.5 L 6 7.5 " />
<path id= "15" d=" M -8 -4.1 L -7.1 -5 " />
<path id= "16" d=" M -7.1 -5 L 6 -5 " />
<path id= "17" d=" M 6 -7.5 L 6 -5 " />
<path id= "18" d=" M -3 42 L 9.5 42 " />
<path id= "19" d=" M -8 -7.5 L 6 -7.5 " />
<path id= "20" d=" M 9.5 -42 L 9.5 42 " />
<path id= "21" d=" M -8 -7.5 L -8 -37 " />
<path id= "22" d=" M 9.5 -42 L -3 -42 " />
<path id= "23" d=" M -3 -42 L -8 -37 " />
<path id= "24" d=" M 6 -24.4 L 9.2 -24.4 " />
<path id= "25" d=" M 6 -30.6 L 6 -24.4 " />
<path id= "26" d=" M 9.2 -30.6 L 6 -30.6 " />
<path id= "27" d=" M 9.2 -24.4 L 9.2 -30.6 " />
<path d="M2 -20.1934 A2 2 0 0 1 -2 -20.1934" /><path id= "29" d=" M 2 -20.1934 L 2 -30.1934 " />
<path id= "30" d=" M -2 -30.1934 L -2 -20.1934 " />
<path d="M-2 -30.1934 A4.3 4.3 0 1 1 2 -30.1934" /><path id= "32" d=" M 9.2 24.4 L 6 24.4 " />
<path id= "33" d=" M 9.2 30.6 L 9.2 24.4 " />
<path id= "34" d=" M 6 30.6 L 9.2 30.6 " />
<path id= "35" d=" M 6 24.4 L 6 30.6 " />
<path d="M2 30.1934 A4.3 4.3 0 1 1 -2 30.1934" /><path id= "37" d=" M 2 30.1934 L 2 20.1934 " />
<path id= "38" d=" M -2 30.1934 L -2 20.1934 " />
<path d="M-2 20.1934 A2 2 0 1 1 2 20.1934" /><path id= "40" d=" M -8 7.4 L -7.2 6.6 " />
<path id= "41" d=" M -7.2 6.6 L 6 6.6 " />
<path id= "42" d=" M -7.2 6.6 L -7.1 6.5 " />
<path id= "43" d=" M -8 7.4 L -7.2 6.6 " />
<path id= "44" d=" M 6 7.49585 L 6 6.59585 " />
<path id= "45" d=" M -7.1 6.5 L 6 6.5 " />
<path id= "46" d=" M -8 -7.4 L -8 -7.5 " />
<path id= "47" d=" M -8 -7.4 L -8 -7.5 " />
<path id= "48" d=" M -8 -7.5 L -8 -7.4 " />
<path id= "49" d=" M -8 -7.5 L -8 -7.4 " />
<path id= "50" d=" M -7.2 -6.6 L -7.1 -6.5 " />
<path id= "51" d=" M 6 -6.6 L 6 -7.5 " />
<path id= "52" d=" M 6 -6.6 L 6 -7.5 " />
<path id= "53" d=" M -7.1 6.5 L 6 6.5 " />
<path id= "54" d=" M 9.5 -42 L 12 -42 " />
<path id= "55" d=" M 9.5 42 L 12 42 " />
<path d="M6,-29.1 L6,-29.0599  L6,-28.9416  L6,-28.7509  L6,-28.4976  L6,-28.1942  L6,-27.856  L6,-27.5  L6,-27.144  L6,-26.8058  L6,-26.5024  L6,-26.2491  L6,-26.0584  L6,-25.9401  L6,-25.9 " /><path d="M6,25.9 L6,25.9401  L6,26.0584  L6,26.2491  L6,26.5024  L6,26.8058  L6,27.144  L6,27.5  L6,27.856  L6,28.1942  L6,28.4976  L6,28.7509  L6,28.9416  L6,29.0599  L6,29.1 " /><path id= "58" d=" M -7.1 6.5 L 6 6.5 " />
<path id= "59" d=" M -7.1 6.5 L 6 6.5 " />
<path id= "60" d=" M 20 42 L 12 42 " />
<path id= "61" d=" M 20 -42 L 12 -42 " />
<path id= "62" d=" M -8 -7.5 L 6 -7.5 " />
<path id= "63" d=" M -8 -7.4 L -7.2 -6.6 " />
<path id= "64" d=" M -7.2 -6.6 L -7.1 -6.5 " />
<path id= "65" d=" M -8 -7.5 L 6 -7.5 " />
<path id= "66" d=" M -8 -7.4 L -7.2 -6.6 " />
<path id= "67" d=" M -7.2 -6.6 L 6 -6.6 " />
<path id= "68" d=" M -7.2 -6.6 L -7.1 -6.5 " />
<path id= "69" d=" M -8 -7.4 L -7.2 -6.6 " />
<path id= "70" d=" M -7.2 -6.6 L -7.1 -6.5 " />
<path id= "71" d=" M -7.1 -6.5 L 6 -6.5 " />
<path id= "72" d=" M 12 42 L 12 26 " />
<path id= "73" d=" M 12 26 L 12 15 " />
<path id= "74" d=" M 12 -26 L 12 -42 " />
<path id= "75" d=" M 12 15 L 12 -15 " />
<path id= "76" d=" M 12 -15 L 12 -26 " />
<path id= "77" d=" M 12 36.8497 L 12 34.4249 " />
<path id= "78" d=" M 12 -27.1503 L 12 -29.5751 " />
<path id= "79" d=" M 20 -26 L 20 -42 " />
<path id= "80" d=" M 20 -15 L 20 -26 " />
<path id= "81" d=" M 20 15 L 20 -15 " />
<path id= "82" d=" M 20 26 L 20 15 " />
<path id= "83" d=" M 20 42 L 20 26 " />
<path d="M20,39 L20,38.8245  L20,38.3068  L20,37.4728  L20,36.3644  L20,35.0372  L20,33.5576  L20,32  L20,30.4424  L20,28.9628  L20,27.6356  L20,26.5272  L20,25.6932  L20,25.1755  L20,25 " /><path d="M20,-25 L20,-25.1755  L20,-25.6932  L20,-26.5272  L20,-27.6356  L20,-28.9628  L20,-30.4424  L20,-32  L20,-33.5576  L20,-35.0372  L20,-36.3644  L20,-37.4728  L20,-38.3068  L20,-38.8245  L20,-39 " /><path id= "86" d=" M 20 26 L 12 26 " />
<path id= "87" d=" M 20 -26 L 12 -26 " />
<path id= "88" d=" M 20 15 L 12 15 " />
<path id= "89" d=" M 20 -15 L 12 -15 " />
</g>
</g>



<g id="Ortho_0_1"
   transform="rotate(90,110.333,47.1667) translate(110.333,47.1667) scale(1,1)"
  >
<g   stroke="rgb(0, 0, 0)"
   stroke-width="0.35"
   stroke-linecap="butt"
   stroke-linejoin="miter"
   fill="none"
   transform="scale(1,-1)"
  >
<path id= "1" d=" M -6.90149e-16 -42 L 1.48469e-14 42 " />
<path d="M7.17664e-15,38.8 L5.50899e-15,38.7179  L3.86804e-15,38.4742  L2.30994e-15,38.0775  L8.88022e-16,37.5412  L-3.49045e-16,36.8836  L-1.35892e-15,36.1274  L-2.10704e-15,35.2984  L-2.5678e-15,34.4249  L-2.72543e-15,33.5369  L-2.57454e-15,32.6648  L-2.12028e-15,31.8383  L-1.37821e-15,31.0858  L-3.73719e-16,30.4331  L8.58803e-16,29.9024 " /><path d="M8.40718e-15,20.1934 L8.40718e-15,20.1934  L8.40718e-15,20.1934  L8.40718e-15,20.1934  L8.40717e-15,20.1934  L8.40717e-15,20.1934  L8.40717e-15,20.1934  L8.40717e-15,20.1934  L8.40717e-15,20.1934  L8.40717e-15,20.1934  L8.40717e-15,20.1934  L8.40717e-15,20.1934  L8.40717e-15,20.1934  L8.40717e-15,20.1934  L8.40717e-15,20.1934 " /><path d="M3.27267e-15,17.6934 L2.75247e-15,17.7092  L2.24462e-15,17.7561  L1.75553e-15,17.8337  L1.29132e-15,17.941  L8.57846e-16,18.0766  L4.60554e-16,18.2389  L1.04442e-16,18.4257  L-2.06014e-16,18.6347  L-4.66909e-16,18.8634  L-6.74962e-16,19.1087  L-8.27556e-16,19.3677  L-9.22774e-16,19.6371  L-9.59417e-16,19.9135  L-9.37024e-16,20.1934 " /><path d="M-1.0203e-14,-29.9024 L-1.16318e-14,-30.4331  L-1.28778e-14,-31.0858  L-1.38982e-14,-31.8383  L-1.46582e-14,-32.6648  L-1.51317e-14,-33.5369  L-1.53026e-14,-34.4249  L-1.5165e-14,-35.2984  L-1.47235e-14,-36.1274  L-1.39934e-14,-36.8836  L-1.29996e-14,-37.5412  L-1.17761e-14,-38.0775  L-1.03647e-14,-38.4742  L-8.81389e-15,-38.7179  L-7.17664e-15,-38.8 " /><path d="M-8.40717e-15,-20.1934 L-8.32602e-15,-19.9135  L-8.18714e-15,-19.6371  L-7.99227e-15,-19.3677  L-7.74386e-15,-19.1087  L-7.44504e-15,-18.8633  L-7.09956e-15,-18.6347  L-6.71177e-15,-18.4257  L-6.28655e-15,-18.2388  L-5.82925e-15,-18.0766  L-5.3456e-15,-17.941  L-4.84171e-15,-17.8337  L-4.3239e-15,-17.7561  L-3.79868e-15,-17.7091  L-3.27266e-15,-17.6934 " /><path id= "7" d=" M -8.88178e-16 -42 L 0.5 -42 " />
<path id= "8" d=" M 0.5 -42 L 8 -42 " />
<path id= "9" d=" M 0.5 -42 L 0.5 42 " />
<path id= "10" d=" M 6.21725e-15 42 L 0.5 42 " />
<path id= "11" d=" M 0.5 42 L 8 42 " />
<path id= "12" d=" M 8 -32 L 8 -42 " />
<path id= "13" d=" M 8 32 L 8 -32 " />
<path id= "14" d=" M 8 42 L 8 32 " />
<path id= "15" d=" M 8 -42 L 25 -42 " />
<path id= "16" d=" M 25 42 L 8 42 " />
<path id= "17" d=" M 25 26 L 25 42 " />
<path id= "18" d=" M 15 15 L 25 26 " />
<path id= "19" d=" M 15 -15 L 15 15 " />
<path id= "20" d=" M 25 -26 L 15 -15 " />
<path id= "21" d=" M 25 -42 L 25 -26 " />
<path d="M8 -32 A7 7 0 0 1 15 -39" /><path d="M15 -39 A7 7 0 1 1 8 -32" /><path d="M8 32 A7 7 0 0 1 15 25" /><path d="M15 25 A7 7 0 1 1 8 32" /><circle cx ="15" cy ="32" r ="7" /><circle cx ="15" cy ="-32" r ="2.7" /><circle cx ="15" cy ="32" r ="2.7" /></g>
</g>



<g id="Ortho_1_0"
   transform="rotate(-90,258.167,153.333) translate(258.167,153.333) scale(1,1)"
  >
<g   stroke="rgb(0, 0, 0)"
   stroke-width="0.35"
   stroke-linecap="butt"
   stroke-linejoin="miter"
   fill="none"
   transform="scale(1,-1)"
  >
<path id= "1" d=" M -8 7.9 L -8 8 " />
<path id= "2" d=" M -8 7.9 L -8 7.8 " />
<path id= "3" d=" M 4.8 -6.83892e-15 L 6 -7.10537e-15 " />
<path id= "4" d=" M 19.5 6.69164e-14 L -3 7.39932e-14 " />
<path id= "5" d=" M -3 1.51709e-13 L -8 1.44585e-13 " />
<path id= "6" d=" M -8 8.77698e-14 L -7.1 8.90521e-14 " />
<path id= "7" d=" M 4.8 6.9099e-15 L 6 6.64345e-15 " />
<path d="M-4.8,1.52592e-14 L-4.67965,1.52319e-14  L-4.32465,1.47561e-14  L-3.75279,1.38557e-14  L-2.99275,1.25759e-14  L-2.08264,1.09808e-14  L-1.0681,9.15049e-15  L-1.78302e-13,7.17664e-15  L1.0681,5.15827e-15  L2.08264,3.19659e-15  L2.99275,1.38997e-15  L3.75279,-1.71003e-16  L4.32465,-1.40805e-15  L4.67965,-2.25915e-15  L4.8,-2.68162e-15 " /><path id= "9" d=" M 6 2.27571e-14 L 9.7 1.94709e-14 " />
<path id= "10" d=" M 9.5 8 L -3 8 " />
<path id= "11" d=" M -3 8 L -8 8 " />
<path id= "12" d=" M 6 8 L 9.2 8 " />
<path d="M-4.3,8 L-4.29301,8  L-4.27204,8  L-4.23718,8  L-4.18854,8  L-4.12626,8  L-4.05057,8  L-3.96169,8  L-3.85993,8  L-3.7456,8  L-3.6191,8  L-3.48081,8  L-3.33121,8  L-3.17076,8  L-3,8 " /><path id= "14" d=" M 19.5 6.21725e-15 L 20 0.5 " />
<path id= "15" d=" M -3 1.3375e-14 L -3 8 " />
<path id= "16" d=" M 20 0.5 L 20 8 " />
<path id= "17" d=" M 20 8 L 12 8 " />
<path id= "18" d=" M 12 8 L 9.5 8 " />
<path id= "19" d=" M -8 2.17944e-14 L -8 8 " />
<path d="M-8,4 L-8,4.33589  L-8,4.66756  L-8,4.99084  L-8,5.30165  L-8,5.5961  L-8,5.87047  L-8,6.12132  L-8,6.34549  L-8,6.54017  L-8,6.70291  L-8,6.83165  L-8,6.92478  L-8,6.98114  L-8,7 " /><path d="M-8,1 L-8,1.01886  L-8,1.07522  L-8,1.16835  L-8,1.29709  L-8,1.45983  L-8,1.65451  L-8,1.87868  L-8,2.12953  L-8,2.4039  L-8,2.69835  L-8,3.00916  L-8,3.33244  L-8,3.66411  L-8,4 " /><path id= "22" d=" M 9.5 8 L 12 10.5 " />
<path id= "23" d=" M 12 25 L 12 10.5 " />
<path id= "24" d=" M 20 25 L 12 25 " />
<path id= "25" d=" M 20 25 L 20 8 " />
<path id= "26" d=" M 12 15 L 12 10.8 " />
<path id= "27" d=" M 12 19.2 L 12 15 " />
<path d="M20,22 L20,21.8245  L20,21.3068  L20,20.4728  L20,19.3644  L20,18.0372  L20,16.5576  L20,15  L20,13.4424  L20,11.9628  L20,10.6356  L20,9.52718  L20,8.69322  L20,8.1755  L20,8 " /></g>
</g>



</svg>

