<?xml version="1.0" encoding="UTF-8"?>

<svg xmlns="http://www.w3.org/2000/svg" version="1.1"
	width="297mm"
	height="210mm"
	viewBox="0 0 297 210">
	<!-- Working space 0 0 297 210 -->
	<defs>
		<radialGradient
			id="radialGradient3661"
			gradientUnits="userSpaceOnUse"
			cy="29.149"
			cx="282.65"
			gradientTransform="matrix(.14777 .23089 -.24680 .15795 -26.318 -62.617)"
			r="19.571">
				<stop stop-color="#71b2f8" offset="0"/>
				<stop stop-color="#002795" offset="1"/>
		</radialGradient>
		<radialGradient
			id="radialGradient3817"
			gradientUnits="userSpaceOnUse"
			cy="33.9"
			cx="270.58"
			gradientTransform="matrix(.26631 .065024 -.17931 .73438 -60.668 -36.938)"
			r="19.571">
				<stop stop-color="#ff6d0f" offset="0"/>
				<stop stop-color="#ff1000" offset="1"/>
		</radialGradient>
	</defs>
	<!-- Set display:none to hide FreeCAD Logo -->
	<g
		style="display:inline"
		id="freecad-logo"
		transform="translate(271, 185) scale(1)"
		fill-rule="evenodd"
		stroke-width=".45621">
		<path d="m0.22811 0.22835v13.256h2.9558v-5.1876h2.09v-2.0452h-2.09v-2.2075h5.1486v-3.8087l-8.1044-0.0075z"
			stroke="#370700"
			fill="url(#radialGradient3817)"/>
		<path d="m13.386 4.1792-1.7193 0.98645-0.75925-0.26348-0.72439-1.8513-1.1395 0.05988-0.51976 1.9144-0.72743 0.34835-1.8143-0.79367-0.76632 0.85156 0.98645 1.7193-0.26957 0.75702-1.8513 0.72439 0.065967 1.1417 1.9144 0.51976 0.34835 0.72743-0.79976 1.8121 0.85156 0.76632 1.7193-0.98645 0.76311 0.27179 0.7183 1.8491 1.1478-0.06375 0.51367-1.9166 0.72743-0.34835 1.8182 0.80198 0.76632-0.85156-0.98645-1.7193 0.2657-0.76533 1.8491-0.7183-0.05766-1.1456-1.9166-0.51367-0.34835-0.72743 0.7959-1.8204-0.85156-0.76632zm-2.5751 2.8195 0.35295 0.20478 0.30579 0.27725 0.24481 0.33087 0.17611 0.36787 0.10354 0.39656 0.01715 0.4064-0.0587 0.4063-0.13396 0.38571-0.2131 0.35681-0.26894 0.30192-0.33087 0.24481-0.36787 0.17611-0.39656 0.10354-0.40863 0.02325-0.4063-0.0587-0.38571-0.13396-0.35681-0.2131-0.2997-0.27503-0.24703-0.32478-0.17611-0.36787-0.10132-0.40264-0.02324-0.40863 0.05869-0.4063 0.13396-0.38571 0.21087-0.35072 0.27116-0.30801 0.33087-0.24481 0.36787-0.17611 0.40264-0.10132 0.40641-0.01715 0.4063 0.05869 0.38571 0.13396z" 
		stroke="#000137"
		fill="url(#radialGradient3661)"/>
	</g>
<g id="View"
   transform="rotate(60,139.661,109.185) translate(139.661,109.185) scale(1,1)"
  >
<g   stroke="rgb(0, 0, 0)"
   stroke-width="0.35"
   stroke-linecap="butt"
   stroke-linejoin="miter"
   fill="none"
   transform="scale(1,-1)"
  >
<path id= "1" d=" M 11.3137 -30.2104 L 11.3137 -6.12372 " />
<path id= "2" d=" M 2.12132 -35.5176 L -13.7886 -26.332 " />
<path id= "3" d=" M 2.12132 -35.5176 L 7.77817 -32.2516 " />
<path id= "4" d=" M 7.77817 -32.2516 L 11.3137 -30.2104 " />
<path id= "5" d=" M 10.6773 -3.71506 L 2.12132 1.22474 " />
<path id= "6" d=" M 10.6773 -3.71506 L 11.3137 -3.34764 " />
<path id= "7" d=" M 11.3137 -3.34764 L 11.3137 3.34764 " />
<path id= "8" d=" M 11.3137 -6.12372 L 2.12132 -0.816497 " />
<path id= "9" d=" M 11.3137 3.34764 L 10.6773 4.44991 " />
<path id= "10" d=" M 10.6773 4.44991 L 2.12132 9.38971 " />
<path id= "11" d=" M 7.77817 -32.2516 L -1.06066 -27.1485 " />
<path id= "12" d=" M 11.3137 6.12372 L 2.12132 11.431 " />
<path id= "13" d=" M -1.06066 41.4372 L -1.06066 39.7278 " />
<path id= "14" d=" M -1.06066 -10.2103 L -1.06066 -12.528 " />
<path id= "15" d=" M -1.06066 -25.1073 L -1.06066 -27.1485 " />
<path id= "16" d=" M 11.3137 6.12372 L 11.3137 30.2104 " />
<path id= "17" d=" M 8.50809 35.0698 L 11.3137 30.2104 " />
<path d="M4.24264 20.5703 A2 1.1547 -60 0 1 6.65685 18.0218" />
<path d="M6.65685 18.0218 A2 1.1547 -60 0 1 7.07107 18.9374" />
<path id= "20" d=" M 4.24264 20.5703 L 4.24264 27.1893 " />
<path id= "21" d=" M 7.07107 27.1023 L 7.07107 18.9374 " />
<path d="M7.07107 27.1023 A4.3 2.48261 -60 0 1 7.80685 27.303" />
<path d="M7.80685 27.303 A4.3 2.48261 -60 0 1 7.36102 32.9506" />
<path d="M2.62323 -22.9804 A4.3 2.48261 -60 0 1 7.80685 -28.2188" />
<path d="M7.80685 -28.2188 A4.3 2.48261 -60 0 1 7.07107 -22.2033" />
<path id= "26" d=" M 7.07107 -22.2033 L 7.07107 -20.4124 " />
<path id= "27" d=" M -13.7886 -26.332 L -13.7886 -25.9238 " />
<path id= "28" d=" M -13.7886 -25.9238 L -8.48528 -22.8619 " />
<path id= "29" d=" M -8.48528 -22.8619 L -2.82843 -26.1279 " />
<path id= "30" d=" M -2.82843 -26.1279 L -1.06066 -27.1485 " />
<path id= "31" d=" M -13.7886 -25.9238 L -13.7886 42.6619 " />
<path id= "32" d=" M 10.6773 -3.71506 L 8.90955 -4.73568 " />
<path id= "33" d=" M -13.7886 42.6619 L -8.48528 45.7238 " />
<path id= "34" d=" M 11.243 6.0829 L 11.3137 6.12372 " />
<path id= "35" d=" M 11.243 6.0829 L 11.1723 5.96043 " />
<path id= "36" d=" M 11.243 6.0829 L 2.12132 11.3493 " />
<path id= "37" d=" M -1.06066 -27.1485 L -1.06066 -25.1073 " />
<path id= "38" d=" M 4.24264 25.4693 L 7.07107 27.1023 " />
<path d="M4.24264 24.5765 A1.6 0.92376 -120 0 0 5.04264 24.6558" />
<path d="M5.04264 24.6558 A1.6 0.92376 -120 0 0 4.24264 21.9638" />
<path id= "41" d=" M 2.9652 -24.5739 L 7.07107 -22.2033 " />
<path d="M5.31735 -21.4249 A1.6 0.92376 -120 0 0 3.44264 -23.0228" />
<path d="M3.44264 -23.0228 A1.6 0.92376 -120 0 0 3.16793 -22.6659" />
<path id= "44" d=" M 9.97021 -5.34805 L 2.12132 -0.816497 " />
<path id= "45" d=" M -8.48528 -14.6969 L -8.48528 -22.8619 " />
<path id= "46" d=" M -8.48528 37.5588 L -8.48528 -14.6969 " />
<path id= "47" d=" M -8.48528 45.7238 L -8.48528 37.5588 " />
<path id= "48" d=" M -1.06066 -25.1073 L 9.19239 -19.1877 " />
<path id= "49" d=" M 3.53553 -15.9217 L 9.19239 -19.1877 " />
<path id= "50" d=" M -8.48528 -22.8619 L 3.53553 -15.9217 " />
<path id= "51" d=" M 3.53553 52.664 L 9.19239 49.398 " />
<path id= "52" d=" M 3.53553 52.664 L -8.48528 45.7238 " />
<path id= "53" d=" M 11.1723 5.96043 L 10.0409 5.30723 " />
<path id= "54" d=" M 10.0409 5.30723 L 2.12132 9.87961 " />
<path id= "55" d=" M 10.0409 5.30723 L 9.97021 5.2664 " />
<path id= "56" d=" M 9.61665 5.06228 L 9.97021 5.2664 " />
<path id= "57" d=" M 9.75807 5.14393 L 9.61665 5.06228 " />
<path id= "58" d=" M 9.97021 5.2664 L 2.12132 9.79796 " />
<path id= "59" d=" M 9.19239 -19.1877 L 9.19239 -6.12372 " />
<path id= "60" d=" M 9.19239 -6.12372 L 2.12132 -1.22474 " />
<path id= "61" d=" M 9.19239 36.3341 L 9.19239 49.398 " />
<path id= "62" d=" M 2.12132 -1.22474 L 2.12132 23.2702 " />
<path id= "63" d=" M 2.12132 23.2702 L 9.19239 36.3341 " />
<path id= "64" d=" M 3.53553 39.6001 L 3.53553 52.664 " />
<path id= "65" d=" M -3.53553 26.5361 L 3.53553 39.6001 " />
<path id= "66" d=" M -3.53553 2.04124 L -3.53553 26.5361 " />
<path id= "67" d=" M 3.53553 -2.85774 L -3.53553 2.04124 " />
<path id= "68" d=" M 3.53553 -15.9217 L 3.53553 -2.85774 " />
<path d="M-8.48528 -14.6969 A7 4.04145 60 0 1 -7.03553 -17.9014" />
<path d="M-7.03553 -17.9014 A7 4.04145 60 0 1 -3.53553 -17.5547" />
<path d="M-3.53553 -17.5547 A7 4.04145 60 0 1 -0.0355339 -5.77702" />
<path d="M-0.0355339 -5.77702 A7 4.04145 60 0 1 -8.48528 -14.6969" />
<path d="M-8.48528 37.5588 A7 4.04145 60 0 1 -7.03553 34.3544" />
<path d="M-7.03553 34.3544 A7 4.04145 60 0 1 -3.53553 34.7011" />
<path d="M-3.53553 34.7011 A7 4.04145 60 0 1 -0.0355339 46.4788" />
<path d="M-0.0355339 46.4788 A7 4.04145 60 0 1 -8.48528 37.5588" />
<path id= "77" d=" M 3.53553 -2.85774 L 9.19239 -6.12372 " />
<path id= "78" d=" M 3.53553 39.6001 L 9.19239 36.3341 " />
<path id= "79" d=" M -3.53553 2.04124 L 2.12132 -1.22474 " />
<path id= "80" d=" M -3.53553 26.5361 L 2.12132 23.2702 " />
<path id= "81" d=" M -2.26274 -14.9358 L -2.26274 -14.0234 " />
<path id= "82" d=" M -2.26274 37.32 L -2.26274 38.2323 " />
<path d="M0.5994 -6.31028 A7 4.04145 60 0 1 -6.25625 -18.1846" />
<path d="M0.5994 45.9455 A7 4.04145 60 0 1 -6.25625 34.0712" />
<path d="M-2.12132 -14.8602 A2.7 1.55885 60 0 1 -0.77132 -10.3174" />
<path d="M-0.77132 -10.3174 A2.7 1.55885 60 1 1 -3.47132 -14.994" />
<path d="M-3.47132 -14.994 A2.7 1.55885 60 0 1 -2.12132 -14.8602" />
<path d="M-2.12132 37.3955 A2.7 1.55885 60 0 1 -0.77132 41.9384" />
<path d="M-0.77132 41.9384 A2.7 1.55885 60 1 1 -3.47132 37.2618" />
<path d="M-3.47132 37.2618 A2.7 1.55885 60 0 1 -2.12132 37.3955" />
</g>
</g>



</svg>

