<?xml version="1.0" encoding="UTF-8"?>

<svg xmlns="http://www.w3.org/2000/svg" version="1.1"
	width="210mm"
	height="297mm"
	viewBox="0 0 210 297">
	<!-- Working space 0 0 210 297 -->
	<defs>
		<radialGradient
			id="radialGradient3661"
			gradientUnits="userSpaceOnUse"
			cy="29.149"
			cx="282.65"
			gradientTransform="matrix(.14777 .23089 -.24680 .15795 -26.318 -62.617)"
			r="19.571">
				<stop stop-color="#71b2f8" offset="0"/>
				<stop stop-color="#002795" offset="1"/>
		</radialGradient>
		<radialGradient
			id="radialGradient3817"
			gradientUnits="userSpaceOnUse"
			cy="33.9"
			cx="270.58"
			gradientTransform="matrix(.26631 .065024 -.17931 .73438 -60.668 -36.938)"
			r="19.571">
				<stop stop-color="#ff6d0f" offset="0"/>
				<stop stop-color="#ff1000" offset="1"/>
		</radialGradient>
	</defs>
	<!-- Set display:none to hide FreeCAD Logo -->
	<g
		style="display:inline"
		id="freecad-logo"
		transform="translate(184, 272) scale(1)"
		fill-rule="evenodd"
		stroke-width=".45621">
		<path d="m0.22811 0.22835v13.256h2.9558v-5.1876h2.09v-2.0452h-2.09v-2.2075h5.1486v-3.8087l-8.1044-0.0075z"
			stroke="#370700"
			fill="url(#radialGradient3817)"/>
		<path d="m13.386 4.1792-1.7193 0.98645-0.75925-0.26348-0.72439-1.8513-1.1395 0.05988-0.51976 1.9144-0.72743 0.34835-1.8143-0.79367-0.76632 0.85156 0.98645 1.7193-0.26957 0.75702-1.8513 0.72439 0.065967 1.1417 1.9144 0.51976 0.34835 0.72743-0.79976 1.8121 0.85156 0.76632 1.7193-0.98645 0.76311 0.27179 0.7183 1.8491 1.1478-0.06375 0.51367-1.9166 0.72743-0.34835 1.8182 0.80198 0.76632-0.85156-0.98645-1.7193 0.2657-0.76533 1.8491-0.7183-0.05766-1.1456-1.9166-0.51367-0.34835-0.72743 0.7959-1.8204-0.85156-0.76632zm-2.5751 2.8195 0.35295 0.20478 0.30579 0.27725 0.24481 0.33087 0.17611 0.36787 0.10354 0.39656 0.01715 0.4064-0.0587 0.4063-0.13396 0.38571-0.2131 0.35681-0.26894 0.30192-0.33087 0.24481-0.36787 0.17611-0.39656 0.10354-0.40863 0.02325-0.4063-0.0587-0.38571-0.13396-0.35681-0.2131-0.2997-0.27503-0.24703-0.32478-0.17611-0.36787-0.10132-0.40264-0.02324-0.40863 0.05869-0.4063 0.13396-0.38571 0.21087-0.35072 0.27116-0.30801 0.33087-0.24481 0.36787-0.17611 0.40264-0.10132 0.40641-0.01715 0.4063 0.05869 0.38571 0.13396z" 
		stroke="#000137"
		fill="url(#radialGradient3661)"/>
	</g>
<g id="Ortho_0_0"
   transform="rotate(-90,69.0059,192.992) translate(69.0059,192.992) scale(0.2,0.2)"
  >
<g   stroke="rgb(0, 0, 0)"
   stroke-width="1.75"
   stroke-linecap="butt"
   stroke-linejoin="miter"
   fill="none"
   transform="scale(1,-1)"
  >
<path id= "1" d=" M 0 -4 L 280 -4 " />
<path id= "2" d=" M 0 4 L 280 4 " />
</g>
<g   stroke="rgb(0, 0, 0)"
   stroke-width="1.75"
   stroke-linecap="butt"
   stroke-linejoin="miter"
   fill="none"
   transform="scale(1,-1)"
  >
<path d="M280,0 L280,-0.447858  L280,-0.890084  L280,-1.32112  L280,-1.73553  L280,-2.12813  L280,-2.49396  L280,-2.82843  L280,-3.12733  L280,-3.3869  L280,-3.60388  L280,-3.77553  L280,-3.89971  L280,-3.97485  L280,-4 " /><path d="M280,4 L280,3.97485  L280,3.89971  L280,3.77553  L280,3.60388  L280,3.3869  L280,3.12733  L280,2.82843  L280,2.49396  L280,2.12813  L280,1.73553  L280,1.32112  L280,0.890084  L280,0.447858  L280,-1.32311e-14 " /><path d="M0,0 L0,-0.447858  L0,-0.890084  L0,-1.32112  L0,-1.73553  L0,-2.12813  L0,-2.49396  L0,-2.82843  L0,-3.12733  L0,-3.3869  L0,-3.60388  L0,-3.77553  L0,-3.89971  L0,-3.97485  L0,-4 " /><path d="M0,4 L0,3.97485  L0,3.89971  L0,3.77553  L0,3.60388  L0,3.3869  L0,3.12733  L0,2.82843  L0,2.49396  L0,2.12813  L0,1.73553  L0,1.32112  L0,0.890084  L0,0.447858  L0,-1.32311e-14 " /></g>
</g>



<g id="Ortho_0_1"
   transform="rotate(90,69.0059,29.9929) translate(69.0059,29.9929) scale(0.2,0.2)"
  >
<g   stroke="rgb(0, 0, 0)"
   stroke-width="1.75"
   stroke-linecap="butt"
   stroke-linejoin="miter"
   fill="none"
   transform="scale(1,-1)"
  >
<circle cx ="0" cy ="0" r ="4" /></g>
</g>



<g id="Ortho_1_0"
   transform="rotate(-90,141.003,192.992) translate(141.003,192.992) scale(0.2,0.2)"
  >
<g   stroke="rgb(0, 0, 0)"
   stroke-width="1.75"
   stroke-linecap="butt"
   stroke-linejoin="miter"
   fill="none"
   transform="scale(1,-1)"
  >
<path id= "1" d=" M 0 -4 L 280 -4 " />
</g>
<g   stroke="rgb(0, 0, 0)"
   stroke-width="1.75"
   stroke-linecap="butt"
   stroke-linejoin="miter"
   fill="none"
   transform="scale(1,-1)"
  >
<path d="M280,4 L280,3.89971  L280,3.60388  L280,3.12733  L280,2.49396  L280,1.73553  L280,0.890084  L280,2.44929e-16  L280,-0.890084  L280,-1.73553  L280,-2.49396  L280,-3.12733  L280,-3.60388  L280,-3.89971  L280,-4 " /><path id= "2" d=" M 0 4 L 280 4 " />
<path d="M0,4 L0,3.89971  L0,3.60388  L0,3.12733  L0,2.49396  L0,1.73553  L0,0.890084  L0,2.44929e-16  L0,-0.890084  L0,-1.73553  L0,-2.49396  L0,-3.12733  L0,-3.60388  L0,-3.89971  L0,-4 " /></g>
</g>



</svg>

