<?xml version="1.0" encoding="UTF-8"?>

<svg xmlns="http://www.w3.org/2000/svg" version="1.1"
	width="297mm"
	height="210mm"
	viewBox="0 0 297 210">
	<!-- Working space 0 0 297 210 -->
	<defs>
		<radialGradient
			id="radialGradient3661"
			gradientUnits="userSpaceOnUse"
			cy="29.149"
			cx="282.65"
			gradientTransform="matrix(.14777 .23089 -.24680 .15795 -26.318 -62.617)"
			r="19.571">
				<stop stop-color="#71b2f8" offset="0"/>
				<stop stop-color="#002795" offset="1"/>
		</radialGradient>
		<radialGradient
			id="radialGradient3817"
			gradientUnits="userSpaceOnUse"
			cy="33.9"
			cx="270.58"
			gradientTransform="matrix(.26631 .065024 -.17931 .73438 -60.668 -36.938)"
			r="19.571">
				<stop stop-color="#ff6d0f" offset="0"/>
				<stop stop-color="#ff1000" offset="1"/>
		</radialGradient>
	</defs>
	<!-- Set display:none to hide FreeCAD Logo -->
	<g
		style="display:inline"
		id="freecad-logo"
		transform="translate(271, 185) scale(1)"
		fill-rule="evenodd"
		stroke-width=".45621">
		<path d="m0.22811 0.22835v13.256h2.9558v-5.1876h2.09v-2.0452h-2.09v-2.2075h5.1486v-3.8087l-8.1044-0.0075z"
			stroke="#370700"
			fill="url(#radialGradient3817)"/>
		<path d="m13.386 4.1792-1.7193 0.98645-0.75925-0.26348-0.72439-1.8513-1.1395 0.05988-0.51976 1.9144-0.72743 0.34835-1.8143-0.79367-0.76632 0.85156 0.98645 1.7193-0.26957 0.75702-1.8513 0.72439 0.065967 1.1417 1.9144 0.51976 0.34835 0.72743-0.79976 1.8121 0.85156 0.76632 1.7193-0.98645 0.76311 0.27179 0.7183 1.8491 1.1478-0.06375 0.51367-1.9166 0.72743-0.34835 1.8182 0.80198 0.76632-0.85156-0.98645-1.7193 0.2657-0.76533 1.8491-0.7183-0.05766-1.1456-1.9166-0.51367-0.34835-0.72743 0.7959-1.8204-0.85156-0.76632zm-2.5751 2.8195 0.35295 0.20478 0.30579 0.27725 0.24481 0.33087 0.17611 0.36787 0.10354 0.39656 0.01715 0.4064-0.0587 0.4063-0.13396 0.38571-0.2131 0.35681-0.26894 0.30192-0.33087 0.24481-0.36787 0.17611-0.39656 0.10354-0.40863 0.02325-0.4063-0.0587-0.38571-0.13396-0.35681-0.2131-0.2997-0.27503-0.24703-0.32478-0.17611-0.36787-0.10132-0.40264-0.02324-0.40863 0.05869-0.4063 0.13396-0.38571 0.21087-0.35072 0.27116-0.30801 0.33087-0.24481 0.36787-0.17611 0.40264-0.10132 0.40641-0.01715 0.4063 0.05869 0.38571 0.13396z" 
		stroke="#000137"
		fill="url(#radialGradient3661)"/>
	</g>
<g id="View"
   transform="rotate(60,148.5,109.083) translate(148.5,109.083) scale(1,1)"
  >
<g   stroke="rgb(0, 0, 0)"
   stroke-width="0.35"
   stroke-linecap="butt"
   stroke-linejoin="miter"
   fill="none"
   transform="scale(1,-1)"
  >
<path id= "1" d=" M -6.77279 -8.79143 L -5.81671 -9.34343 " />
<path id= "2" d=" M -12.5711 -5.4438 L -6.77279 -8.79143 " />
<path id= "3" d=" M -1.57107 13.6088 L 1.80261 11.661 " />
<path id= "4" d=" M -21.0061 -20.0537 L -13.935 -24.1362 " />
<path id= "5" d=" M 6.86396 28.2187 L 13.935 24.1362 " />
<path d="M-1.57515,20.4092 L-1.61693,20.3147 " /><path d="M-16.407,-1.64072 C-15.9534,-1.50844 -15.4462,-1.38611 -14.8095,-1.29201 " /><path d="M2.89949,-0.558953 L2.80364,-0.50169 " /></g>
<g   stroke="rgb(0, 0, 0)"
   stroke-width="0.35"
   stroke-linecap="butt"
   stroke-linejoin="miter"
   fill="none"
   transform="scale(1,-1)"
  >
<path id= "1" d=" M -5.26977 -9.56676 L -5.6376 -10.5148 " />
<path id= "2" d=" M -6.49114 -11.0817 L -5.75815 -9.19249 " />
<path d="M-6.77279 -8.79143 A11 6.35085 60 0 1 -5.75815 -9.19249" />
<path d="M-13.2325 -4.95649 A19 10.9697 60 0 1 -13.2767 -5.29089" />
<path d="M-12.3617 -13.213 A19 10.9697 60 0 1 -12.3531 -13.2313" />
<path d="M6.36396 11.8392 A19 10.9697 60 0 1 2.42893 20.537" />
<path d="M2.42893 20.537 A19 10.9697 60 0 1 -16.5711 -12.372" />
<path d="M-16.5711 -12.372 A19 10.9697 60 0 1 6.36396 11.8392" />
<path d="M-13.935 -24.1362 A1 0.57735 60 0 1 -13.435 -24.0866" />
<path id= "10" d=" M -9.27951 -21.6875 L -13.435 -24.0866 " />
<path id= "11" d=" M -9.27951 -21.6875 L -8.04207 -19.5442 " />
<path d="M-1.41598 -17.1474 A20.1 11.6047 -120 0 0 -5.95598 -18.3398" />
<path id= "13" d=" M 1.41598 -15.5124 L -1.41598 -17.1474 " />
<path d="M5.95598 -11.4624 A20.1 11.6047 -120 0 0 1.41598 -15.5124" />
<path id= "15" d=" M 13.435 -8.57321 L 9.27951 -10.9724 " />
<path d="M13.435 -8.57321 A1 0.57735 60 0 1 14.1421 -7.34847" />
<path id= "17" d=" M 14.1421 -2.55008 L 14.1421 -7.34847 " />
<path d="M14.1421 6.52993 A20.1 11.6047 -120 0 0 12.9047 0.573153" />
<path id= "19" d=" M 14.1421 9.8 L 14.1421 6.52993 " />
<path d="M12.9047 14.3279 A20.1 11.6047 -120 0 0 14.1421 9.8" />
<path id= "21" d=" M 12.9047 16.7367 L 14.1421 18.88 " />
<path d="M14.1421 23.6784 A1 0.57735 60 0 1 13.935 24.1362" />
<path id= "23" d=" M 14.1421 23.6784 L 14.1421 18.88 " />
<path d="M0.707107 8.57321 A11 6.35085 60 0 1 -1.57107 13.6088" />
<path d="M-1.57107 13.6088 A11 6.35085 60 0 1 -12.5711 -5.4438" />
<path d="M-12.5711 -5.4438 A11 6.35085 60 0 1 0.707107 8.57321" />
<path d="M-5.75815 -9.19249 A11 6.35085 60 0 1 -5.39606 -9.26138" />
<path d="M0.621736,10.2593 Q3.22091,8.73844 5.83221,7.21085 " /><path d="M0.59302,10.4013 Q0.610053,10.3209 0.621736,10.2593 " /><path d="M-2.33198,-7.69765 L-7.00579,-4.95145 " /><path d="M-7.00579,-4.95145 Q-7.09512,-5.00172 -7.14909,-5.03083 " /><path d="M-0.919753,1.93237 Q-0.970809,1.83129 -1.01081,1.75436 " /><path d="M-1.01081,1.75436 Q0.893209,0.627974 2.80364,-0.50169 " /><path id= "34" d=" M -21.2132 -19.5959 L -21.2132 -14.7975 " />
<path d="M-21.2132 -19.5959 A1 0.57735 60 0 1 -21.0061 -20.0537" />
<path d="M-21.0061 -20.0537 A1 0.57735 60 0 1 -20.5061 -20.0042" />
<path id= "37" d=" M -21.2132 -14.7975 L -19.2539 -11.4038 " />
<path id= "38" d=" M -16.3506 -17.605 L -20.5061 -20.0042 " />
<path d="M-21.2132 -5.71752 A20.1 11.6047 60 0 1 -19.2539 -11.4038" />
<path id= "40" d=" M -14.3912 -14.2113 L -16.3506 -17.605 " />
<path id= "41" d=" M -21.2132 -5.71752 L -21.2132 -2.44745 " />
<path d="M-14.3912 -14.2113 A20.1 11.6047 60 0 1 -8.48705 -13.065" />
<path d="M-19.2539 5.50134 A20.1 11.6047 60 0 1 -21.2132 -2.44745" />
<path id= "44" d=" M -5.65509 -11.4299 L -8.48705 -13.065 " />
<path id= "45" d=" M -19.2539 5.50134 L -21.2132 6.63257 " />
<path d="M-5.65509 -11.4299 A20.1 11.6047 60 0 1 0.249089 -5.75869" />
<path id= "47" d=" M -21.2132 6.63257 L -21.2132 11.431 " />
<path id= "48" d=" M 2.20844 -6.88992 L 0.249089 -5.75869 " />
<path d="M-20.5061 12.6557 A1 0.57735 60 0 1 -21.2132 11.431" />
<path id= "50" d=" M 6.36396 -4.49073 L 2.20844 -6.88992 " />
<path id= "51" d=" M -20.5061 12.6557 L -16.3506 15.0549 " />
<path d="M6.36396 -4.49073 A1 0.57735 60 0 1 7.07107 -3.26599" />
<path id= "53" d=" M -16.3506 15.0549 L -14.3912 13.9237 " />
<path id= "54" d=" M 7.07107 1.5324 L 7.07107 -3.26599 " />
<path d="M-8.48705 19.5949 A20.1 11.6047 60 0 1 -14.3912 13.9237" />
<path id= "56" d=" M 5.11172 2.66363 L 7.07107 1.5324 " />
<path id= "57" d=" M -8.48705 19.5949 L -5.65509 21.2299 " />
<path d="M5.11172 2.66363 A20.1 11.6047 60 0 1 7.07107 10.6124" />
<path d="M0.249089 22.3762 A20.1 11.6047 60 0 1 -5.65509 21.2299" />
<path id= "60" d=" M 7.07107 13.8825 L 7.07107 10.6124 " />
<path id= "61" d=" M 0.249089 22.3762 L 2.20844 25.7699 " />
<path d="M7.07107 13.8825 A20.1 11.6047 60 0 1 5.11172 19.5688" />
<path id= "63" d=" M 2.20844 25.7699 L 6.36396 28.1691 " />
<path id= "64" d=" M 7.07107 22.9625 L 5.11172 19.5688 " />
<path d="M7.07107 27.7609 A1 0.57735 60 0 1 6.86396 28.2187" />
<path d="M6.86396 28.2187 A1 0.57735 60 0 1 6.36396 28.1691" />
<path id= "67" d=" M 7.07107 27.7609 L 7.07107 22.9625 " />
<path id= "68" d=" M -21.0448 9.89856 L -20.3311 7.23482 " />
<path id= "69" d=" M -19.0948 13.2761 L -21.0448 9.89856 " />
<path id= "70" d=" M -17.6673 7.94856 L -20.3311 7.23482 " />
<path id= "71" d=" M -16.4311 13.9898 L -19.0948 13.2761 " />
<path id= "72" d=" M -15.7173 11.3261 L -17.6673 7.94856 " />
<path id= "73" d=" M -16.4311 13.9898 L -15.7173 11.3261 " />
<path id= "74" d=" M 6.18893 22.5461 L 6.90268 26.0341 " />
<path id= "75" d=" M 6.90268 26.0341 L 4.95268 27.1599 " />
<path id= "76" d=" M 4.95268 27.1599 L 2.28893 24.7978 " />
<path id= "77" d=" M 1.57518 21.3099 L 2.28893 24.7978 " />
<path id= "78" d=" M 3.52518 20.1841 L 1.57518 21.3099 " />
<path id= "79" d=" M 6.18893 22.5461 L 3.52518 20.1841 " />
<path id= "80" d=" M -20.3311 -14.3812 L -17.6673 -12.0191 " />
<path id= "81" d=" M -20.3311 -14.3812 L -21.0448 -17.8691 " />
<path id= "82" d=" M -21.0448 -17.8691 L -19.0948 -18.9949 " />
<path id= "83" d=" M -19.0948 -18.9949 L -16.4311 -16.6328 " />
<path id= "84" d=" M -15.7173 -13.1449 L -16.4311 -16.6328 " />
<path id= "85" d=" M -17.6673 -12.0191 L -15.7173 -13.1449 " />
<path id= "86" d=" M 2.28893 -5.82485 L 4.95268 -5.1111 " />
<path id= "87" d=" M 4.95268 -5.1111 L 6.90268 -1.7336 " />
<path id= "88" d=" M 6.90268 -1.7336 L 6.18893 0.93015 " />
<path id= "89" d=" M 3.52518 0.216401 L 6.18893 0.93015 " />
<path id= "90" d=" M 1.57518 -3.1611 L 3.52518 0.216401 " />
<path id= "91" d=" M 2.28893 -5.82485 L 1.57518 -3.1611 " />
<path id= "92" d=" M 9.27951 -10.9724 L 8.04207 -10.258 " />
<path id= "93" d=" M 8.04207 -10.258 L 0.178543 -14.798 " />
<path id= "94" d=" M 0.178543 -14.798 L 1.41598 -15.5124 " />
<path id= "95" d=" M -2.65342 -16.433 L -1.41598 -17.1474 " />
<path id= "96" d=" M -2.65342 -16.433 L -10.5169 -20.973 " />
<path id= "97" d=" M -10.5169 -20.973 L -9.27951 -21.6875 " />
<path id= "98" d=" M -16.3506 -17.605 L -12.2847 -19.9524 " />
<path id= "99" d=" M -12.2847 -19.9524 L -4.42118 -15.4124 " />
<path id= "100" d=" M -4.42118 -15.4124 L -8.48705 -13.065 " />
<path id= "101" d=" M -1.58922 -13.7774 L -5.65509 -11.4299 " />
<path id= "102" d=" M -1.58922 -13.7774 L 6.2743 -9.23735 " />
<path id= "103" d=" M 6.2743 -9.23735 L 2.20844 -6.88992 " />
<path id= "104" d=" M 14.1421 18.88 L 12.9047 19.5945 " />
<path id= "105" d=" M 12.9047 19.5945 L 12.9047 10.5144 " />
<path id= "106" d=" M 12.9047 10.5144 L 14.1421 9.8 " />
<path id= "107" d=" M 12.9047 7.24437 L 14.1421 6.52993 " />
<path id= "108" d=" M 12.9047 7.24437 L 12.9047 -1.83565 " />
<path id= "109" d=" M 12.9047 -1.83565 L 14.1421 -2.55008 " />
<path id= "110" d=" M 7.07107 1.5324 L 11.1369 -0.815029 " />
<path id= "111" d=" M 11.1369 -0.815029 L 11.1369 8.26499 " />
<path id= "112" d=" M 11.1369 8.26499 L 7.07107 10.6124 " />
<path id= "113" d=" M 11.1369 11.5351 L 7.07107 13.8825 " />
<path id= "114" d=" M 11.1369 11.5351 L 11.1369 20.6151 " />
<path id= "115" d=" M 11.1369 20.6151 L 7.07107 22.9625 " />
<path d="M-7.45644,-8.305 Q-9.68802,-10.9031 -12.386,-13.234 " /><path d="M-13.1776,-5.00613 C-14.0617,-7.54197 -14.8361,-10.123 -15.5266,-12.7344 " /><path d="M-13.0878,-5.08324 C-13.9421,-7.63628 -14.6948,-10.2285 -15.3719,-12.8446 " /><path id= "119" d=" M -15.3719 -12.8446 L -14.5027 -13.1321 " />
<path id= "120" d=" M -15.5266 -12.7344 L -15.3719 -12.8446 " />
<path d="M0.621736,10.2593 C2.25511,12.0866 4.05411,13.7446 5.99128,15.2526 " /><path d="M0.59302,10.4013 C2.23724,12.1938 4.04352,13.8145 5.98413,15.2827 " /><path d="M3.89816,13.599 Q4.7671,15.1506 5.51954,16.7648 " /><path id= "124" d=" M 4.65324 18.427 L -1.52543 20.5236 " />
<path d="M-3.4732,14.1226 C-3.0818,16.3062 -2.43969,18.3968 -1.57515,20.4092 " /><path d="M-1.57515,20.4092 L-1.52543,20.5236 " /><path d="M-3.5978,14.1241 C-3.17965,16.2726 -2.50974,18.3313 -1.61693,20.3147 " /><path d="M-14.6416,1.77308 C-16.3484,0.398922 -17.8689,-0.949598 -19.2275,-2.26038 " /><path id= "129" d=" M -19.2275 -2.26038 L -19.1692 -2.45171 " />
<path d="M-14.6736,1.59116 C-16.3492,0.201946 -17.8397,-1.14982 -19.1692,-2.45171 " /><path id= "131" d=" M -19.1692 -2.45171 L -16.407 -1.64072 " />
<path d="M-7.14909,-5.03083 C-6.49924,-6.60413 -5.7935,-8.29615 -5.05349,-10.0902 " /><path d="M-7.00579,-4.95145 C-6.34186,-6.51277 -5.63201,-8.19171 -4.89701,-9.9713 " /><path d="M-1.01081,1.75436 C0.599284,1.90898 2.28804,1.90504 4.03346,1.7614 " /><path d="M-0.919753,1.93237 C0.685694,2.06964 2.36184,2.0473 4.08729,1.88447 " /><path id= "136" d=" M -6.8836 13.1696 L -12.9963 12.5408 " />
<path d="M-10.3039,10.385 C-11.4435,11.0962 -12.3326,11.8108 -12.9963,12.5408 " /><path d="M-10.4323,10.2414 C-11.5396,10.9356 -12.3924,11.6431 -13.0155,12.3761 " /><path id= "139" d=" M -12.9963 12.5408 L -13.0155 12.3761 " />
<path id= "140" d=" M -10.3254 -16.5587 L -12.2847 -19.9524 " />
<path id= "141" d=" M -14.3912 -14.2113 L -10.3254 -16.5587 " />
<path d="M-10.3254 -16.5587 A20.1 11.6047 60 0 1 -4.42118 -15.4124" />
<path id= "143" d=" M 2.20844 -6.88992 L 4.31495 -8.10612 " />
<path d="M-1.58922 -13.7774 A20.1 11.6047 60 0 1 4.31495 -8.10612" />
<path d="M9.17758 0.316201 A20.1 11.6047 60 0 1 11.1369 8.26499" />
<path id= "146" d=" M 5.11172 19.5688 L 9.17758 17.2214 " />
<path d="M11.1369 11.5351 A20.1 11.6047 60 0 1 9.17758 17.2214" />
<path id= "148" d=" M 11.1369 20.6151 L 9.17758 17.2214 " />
<path id= "149" d=" M -21.0448 9.89856 L -18.7538 8.57584 " />
<path id= "150" d=" M -18.7538 8.57584 L -18.5242 7.71897 " />
<path id= "151" d=" M -19.0948 13.2761 L -16.8038 11.9533 " />
<path id= "152" d=" M -16.8038 11.9533 L -18.7538 8.57584 " />
<path id= "153" d=" M -15.9469 12.1829 L -16.8038 11.9533 " />
<path id= "154" d=" M 4.95268 27.1599 L 6.90268 26.0341 " />
<path id= "155" d=" M 6.77786 25.4241 L 4.57996 23.4751 " />
<path id= "156" d=" M 2.28893 24.7978 L 4.57996 23.4751 " />
<path id= "157" d=" M 1.57518 21.3099 L 3.52518 20.1841 " />
<path id= "158" d=" M 3.99103 20.5972 L 4.57996 23.4751 " />
<path id= "159" d=" M -20.3311 -14.3812 L -18.04 -15.7039 " />
<path id= "160" d=" M -18.04 -15.7039 L -15.8421 -13.7549 " />
<path id= "161" d=" M -17.6673 -12.0191 L -15.7173 -13.1449 " />
<path id= "162" d=" M -18.04 -15.7039 L -18.629 -18.5818 " />
<path id= "163" d=" M -21.0448 -17.8691 L -19.0948 -18.9949 " />
<path id= "164" d=" M 3.52518 0.216401 L 5.81621 -1.10632 " />
<path id= "165" d=" M 5.81621 -1.10632 L 6.67308 -0.876725 " />
<path id= "166" d=" M 1.57518 -3.1611 L 3.86621 -4.48382 " />
<path id= "167" d=" M 3.86621 -4.48382 L 5.81621 -1.10632 " />
<path id= "168" d=" M 4.09581 -5.3407 L 3.86621 -4.48382 " />
<path d="M-15.8019 11.1796 A2.15 1.2413 60 0 1 -17.5828 8.09502" />
<path d="M6.50486 24.09 A2.15 1.2413 60 0 1 5.00989 21.5006" />
<path d="M-16.1151 -15.089 A2.15 1.2413 60 0 1 -17.6101 -17.6784" />
<path d="M5.00968 -4.64781 A2.15 1.2413 60 0 1 5.03724 -4.96464" />
<path d="M6.81812 -1.88006 A2.15 1.2413 60 0 1 5.00968 -4.64781" />
</g>
</g>



</svg>

