<?xml version="1.0" encoding="UTF-8"?>

<svg xmlns="http://www.w3.org/2000/svg" version="1.1"
	width="297mm"
	height="210mm"
	viewBox="0 0 297 210">
	<!-- Working space 0 0 297 210 -->
	<defs>
		<radialGradient
			id="radialGradient3661"
			gradientUnits="userSpaceOnUse"
			cy="29.149"
			cx="282.65"
			gradientTransform="matrix(.14777 .23089 -.24680 .15795 -26.318 -62.617)"
			r="19.571">
				<stop stop-color="#71b2f8" offset="0"/>
				<stop stop-color="#002795" offset="1"/>
		</radialGradient>
		<radialGradient
			id="radialGradient3817"
			gradientUnits="userSpaceOnUse"
			cy="33.9"
			cx="270.58"
			gradientTransform="matrix(.26631 .065024 -.17931 .73438 -60.668 -36.938)"
			r="19.571">
				<stop stop-color="#ff6d0f" offset="0"/>
				<stop stop-color="#ff1000" offset="1"/>
		</radialGradient>
	</defs>
	<!-- Set display:none to hide FreeCAD Logo -->
	<g
		style="display:inline"
		id="freecad-logo"
		transform="translate(271, 185) scale(1)"
		fill-rule="evenodd"
		stroke-width=".45621">
		<path d="m0.22811 0.22835v13.256h2.9558v-5.1876h2.09v-2.0452h-2.09v-2.2075h5.1486v-3.8087l-8.1044-0.0075z"
			stroke="#370700"
			fill="url(#radialGradient3817)"/>
		<path d="m13.386 4.1792-1.7193 0.98645-0.75925-0.26348-0.72439-1.8513-1.1395 0.05988-0.51976 1.9144-0.72743 0.34835-1.8143-0.79367-0.76632 0.85156 0.98645 1.7193-0.26957 0.75702-1.8513 0.72439 0.065967 1.1417 1.9144 0.51976 0.34835 0.72743-0.79976 1.8121 0.85156 0.76632 1.7193-0.98645 0.76311 0.27179 0.7183 1.8491 1.1478-0.06375 0.51367-1.9166 0.72743-0.34835 1.8182 0.80198 0.76632-0.85156-0.98645-1.7193 0.2657-0.76533 1.8491-0.7183-0.05766-1.1456-1.9166-0.51367-0.34835-0.72743 0.7959-1.8204-0.85156-0.76632zm-2.5751 2.8195 0.35295 0.20478 0.30579 0.27725 0.24481 0.33087 0.17611 0.36787 0.10354 0.39656 0.01715 0.4064-0.0587 0.4063-0.13396 0.38571-0.2131 0.35681-0.26894 0.30192-0.33087 0.24481-0.36787 0.17611-0.39656 0.10354-0.40863 0.02325-0.4063-0.0587-0.38571-0.13396-0.35681-0.2131-0.2997-0.27503-0.24703-0.32478-0.17611-0.36787-0.10132-0.40264-0.02324-0.40863 0.05869-0.4063 0.13396-0.38571 0.21087-0.35072 0.27116-0.30801 0.33087-0.24481 0.36787-0.17611 0.40264-0.10132 0.40641-0.01715 0.4063 0.05869 0.38571 0.13396z" 
		stroke="#000137"
		fill="url(#radialGradient3661)"/>
	</g>
<g id="Ortho_0_0"
   transform="rotate(-90,79,180) translate(79,180) scale(1,1)"
  >
<g   stroke="rgb(0, 0, 0)"
   stroke-width="0.35"
   stroke-linecap="butt"
   stroke-linejoin="miter"
   fill="none"
   transform="scale(1,-1)"
  >
<path d="M0,20 L0,19.9937  L0,19.9749  L0,19.9439  L0,19.901  L0,19.8467  L0,19.7818  L0,19.7071  L0,19.6235  L0,19.532  L0,19.4339  L0,19.3303  L0,19.2225  L0,19.112  L0,19 " /><path id= "2" d=" M 0 13.1232 L 0 19 " />
<path id= "3" d=" M 0 13.1232 L 0 10.3523 " />
<path d="M0,2.0025 L0,2.63177  L0,3.25843  L0,3.88185  L0,4.50141  L0,5.11651  L0,5.72652  L0,6.33084  L0,6.92888  L0,7.52003  L0,8.10371  L0,8.67934  L0,9.24635  L0,9.80418  L0,10.3523 " /><path id= "5" d=" M 0 -2.0025 L 0 2.0025 " />
<path d="M0,-10.3523 L0,-9.80418  L0,-9.24635  L0,-8.67934  L0,-8.10371  L0,-7.52003  L0,-6.92888  L0,-6.33084  L0,-5.72652  L0,-5.11651  L0,-4.50141  L0,-3.88185  L0,-3.25843  L0,-2.63177  L0,-2.0025 " /><path id= "7" d=" M 0 -10.3523 L 0 -13.1232 " />
<path d="M0,-19 L0,-19.112  L0,-19.2225  L0,-19.3303  L0,-19.4339  L0,-19.532  L0,-19.6235  L0,-19.7071  L0,-19.7818  L0,-19.8467  L0,-19.901  L0,-19.9439  L0,-19.9749  L0,-19.9937  L0,-20 " /><path id= "9" d=" M 0 -19 L 0 -13.1232 " />
<path d="M10,20 L10,19.9937  L10,19.9749  L10,19.9439  L10,19.901  L10,19.8467  L10,19.7818  L10,19.7071  L10,19.6235  L10,19.532  L10,19.4339  L10,19.3303  L10,19.2225  L10,19.112  L10,19 " /><path id= "11" d=" M 10 13.1232 L 10 19 " />
<path id= "12" d=" M 10 10.3523 L 10 13.1232 " />
<path d="M10,10.3523 L10,9.80418  L10,9.24635  L10,8.67934  L10,8.10371  L10,7.52003  L10,6.92888  L10,6.33084  L10,5.72652  L10,5.11651  L10,4.50141  L10,3.88185  L10,3.25843  L10,2.63177  L10,2.0025 " /><path id= "14" d=" M 10 -2.0025 L 10 2.0025 " />
<path d="M10,-2.0025 L10,-2.63177  L10,-3.25843  L10,-3.88185  L10,-4.50141  L10,-5.11651  L10,-5.72652  L10,-6.33084  L10,-6.92888  L10,-7.52003  L10,-8.10371  L10,-8.67934  L10,-9.24635  L10,-9.80418  L10,-10.3523 " /><path id= "16" d=" M 10 -13.1232 L 10 -10.3523 " />
<path d="M10,-19 L10,-19.112  L10,-19.2225  L10,-19.3303  L10,-19.4339  L10,-19.532  L10,-19.6235  L10,-19.7071  L10,-19.7818  L10,-19.8467  L10,-19.901  L10,-19.9439  L10,-19.9749  L10,-19.9937  L10,-20 " /><path id= "18" d=" M 10 -19 L 10 -13.1232 " />
<path id= "19" d=" M 0 20 L 10 20 " />
<path id= "20" d=" M 0 -20 L 10 -20 " />
<path id= "21" d=" M 0 -13.1232 L 1.75 -13.1232 " />
<path id= "22" d=" M 1.75 -13.1232 L 1.75 -2.0025 " />
<path id= "23" d=" M 1.75 -2.0025 L 0 -2.0025 " />
<path id= "24" d=" M 1.75 2.0025 L 0 2.0025 " />
<path id= "25" d=" M 1.75 2.0025 L 1.75 13.1232 " />
<path id= "26" d=" M 1.75 13.1232 L 0 13.1232 " />
<path id= "27" d=" M 10 13.1232 L 4.25 13.1232 " />
<path id= "28" d=" M 4.25 13.1232 L 4.25 2.0025 " />
<path id= "29" d=" M 4.25 2.0025 L 10 2.0025 " />
<path id= "30" d=" M 4.25 -2.0025 L 10 -2.0025 " />
<path id= "31" d=" M 4.25 -2.0025 L 4.25 -13.1232 " />
<path id= "32" d=" M 4.25 -13.1232 L 10 -13.1232 " />
<path id= "33" d=" M 0 10.3523 L 1.75 10.3523 " />
<path id= "34" d=" M 0 -10.3523 L 1.75 -10.3523 " />
<path id= "35" d=" M 10 10.3523 L 4.25 10.3523 " />
<path id= "36" d=" M 10 -10.3523 L 4.25 -10.3523 " />
</g>
</g>



<g id="Ortho_0_1"
   transform="rotate(90,79,80) translate(79,80) scale(1,1)"
  >
<g   stroke="rgb(0, 0, 0)"
   stroke-width="0.35"
   stroke-linecap="butt"
   stroke-linejoin="miter"
   fill="none"
   transform="scale(1,-1)"
  >
<path id= "1" d=" M 11 0 L 19 0 " />
<path id= "2" d=" M 18.9737 -1 L 10.9545 -1 " />
<path id= "3" d=" M -5.5 -9.52628 L -9.5 -16.4545 " />
<path id= "4" d=" M -10.3529 -15.9317 L -6.34325 -8.98683 " />
<path id= "5" d=" M -5.5 9.52628 L -7.36084 12.7493 " />
<path id= "6" d=" M -9.37336 16.2351 L -9.5 16.4545 " />
<path id= "7" d=" M -8.62081 16.9317 L -8.46986 16.6702 " />
<circle cx ="0" cy ="0" r ="19" /><circle cx ="0" cy ="0" r ="11" /><path d="M-8.73488,-6.68594 L-8.77642,-6.63133 " /><path d="M-8.61143,-6.84421 Q-8.68243,-6.75468 -8.73488,-6.68594 " /><path d="M10.7708,2.2339 L10.7845,2.16668 " /><path d="M10.7282,2.43007 Q10.7534,2.31851 10.7708,2.2339 " /><path d="M4.96893,9.81375 L5.03005,9.78257 " /><path d="M4.78904,9.90278 Q4.89081,9.85343 4.96893,9.81375 " /><path d="M-10.7202,2.46539 Q-10.6949,2.57488 -10.6734,2.66059 " /><path d="M-10.6734,2.66059 L-10.6566,2.72711 " /><path d="M-0.218829,-10.9978 L-0.287424,-10.9962 " /><path d="M-0.018116,-11 Q-0.143297,-10.9995 -0.218829,-10.9978 " /><path d="M8.58884,-6.87254 Q8.51768,-6.96128 8.46201,-7.02812 " /><path d="M8.46201,-7.02812 L8.418,-7.08076 " /><path d="M-4.57462,10.0036 L-4.51213,10.032 " /><path d="M-4.75639,9.9185 Q-4.65311,9.96789 -4.57462,10.0036 " /><path id= "24" d=" M -20 -19 L -20 -13.1232 " />
<path d="M-20 -19 A1 1 0 0 1 -19 -20" /><path id= "26" d=" M -20 -13.1232 L -17.2291 -10.3523 " />
<path id= "27" d=" M -13.1232 -20 L -19 -20 " />
<path d="M-20 -2.0025 A20.1 20.1 0 0 1 -17.2291 -10.3523" /><path id= "29" d=" M -10.3523 -17.2291 L -13.1232 -20 " />
<path id= "30" d=" M -20 -2.0025 L -20 2.0025 " />
<path d="M-10.3523 -17.2291 A20.1 20.1 0 0 1 -2.0025 -20" /><path d="M-17.2291 10.3523 A20.1 20.1 0 0 1 -20 2.0025" /><path id= "33" d=" M 2.0025 -20 L -2.0025 -20 " />
<path id= "34" d=" M -17.2291 10.3523 L -20 13.1232 " />
<path d="M2.0025 -20 A20.1 20.1 0 0 1 10.3523 -17.2291" /><path id= "36" d=" M -20 13.1232 L -20 19 " />
<path id= "37" d=" M 13.1232 -20 L 10.3523 -17.2291 " />
<path d="M-19 20 A1 1 0 0 1 -20 19" /><path id= "39" d=" M 19 -20 L 13.1232 -20 " />
<path id= "40" d=" M -19 20 L -13.1232 20 " />
<path d="M19 -20 A1 1 0 0 1 20 -19" /><path id= "42" d=" M -13.1232 20 L -10.3523 17.2291 " />
<path id= "43" d=" M 20 -13.1232 L 20 -19 " />
<path d="M-2.0025 20 A20.1 20.1 0 0 1 -10.3523 17.2291" /><path id= "45" d=" M 17.2291 -10.3523 L 20 -13.1232 " />
<path id= "46" d=" M -2.0025 20 L 2.0025 20 " />
<path d="M17.2291 -10.3523 A20.1 20.1 0 0 1 20 -2.0025" /><path d="M10.3523 17.2291 A20.1 20.1 0 0 1 2.0025 20" /><path id= "49" d=" M 20 2.0025 L 20 -2.0025 " />
<path id= "50" d=" M 10.3523 17.2291 L 13.1232 20 " />
<path d="M20 2.0025 A20.1 20.1 0 0 1 17.2291 10.3523" /><path id= "52" d=" M 13.1232 20 L 19 20 " />
<path id= "53" d=" M 20 13.1232 L 17.2291 10.3523 " />
<path d="M20 19 A1 1 0 0 1 19 20" /><path id= "55" d=" M 20 19 L 20 13.1232 " />
<path id= "56" d=" M -19.7619 17.0041 L -18.7525 13.237 " />
<path id= "57" d=" M -17.0041 19.7619 L -19.7619 17.0041 " />
<path id= "58" d=" M -14.9854 12.2276 L -18.7525 13.237 " />
<path id= "59" d=" M -13.237 18.7525 L -17.0041 19.7619 " />
<path id= "60" d=" M -12.2276 14.9854 L -14.9854 12.2276 " />
<path id= "61" d=" M -13.237 18.7525 L -12.2276 14.9854 " />
<path id= "62" d=" M 18.7525 13.237 L 19.7619 17.0041 " />
<path id= "63" d=" M 19.7619 17.0041 L 17.0041 19.7619 " />
<path id= "64" d=" M 17.0041 19.7619 L 13.237 18.7525 " />
<path id= "65" d=" M 12.2276 14.9854 L 13.237 18.7525 " />
<path id= "66" d=" M 14.9854 12.2276 L 12.2276 14.9854 " />
<path id= "67" d=" M 18.7525 13.237 L 14.9854 12.2276 " />
<path id= "68" d=" M -18.7525 -13.237 L -14.9854 -12.2276 " />
<path id= "69" d=" M -18.7525 -13.237 L -19.7619 -17.0041 " />
<path id= "70" d=" M -19.7619 -17.0041 L -17.0041 -19.7619 " />
<path id= "71" d=" M -17.0041 -19.7619 L -13.237 -18.7525 " />
<path id= "72" d=" M -12.2276 -14.9854 L -13.237 -18.7525 " />
<path id= "73" d=" M -14.9854 -12.2276 L -12.2276 -14.9854 " />
<path id= "74" d=" M 13.237 -18.7525 L 17.0041 -19.7619 " />
<path id= "75" d=" M 17.0041 -19.7619 L 19.7619 -17.0041 " />
<path id= "76" d=" M 19.7619 -17.0041 L 18.7525 -13.237 " />
<path id= "77" d=" M 14.9854 -12.2276 L 18.7525 -13.237 " />
<path id= "78" d=" M 12.2276 -14.9854 L 14.9854 -12.2276 " />
<path id= "79" d=" M 13.237 -18.7525 L 12.2276 -14.9854 " />
<path id= "80" d=" M -20 13.1232 L -20 2.0025 " />
<path id= "81" d=" M -20 -2.0025 L -20 -13.1232 " />
<path id= "82" d=" M -13.1232 -20 L -2.0025 -20 " />
<path id= "83" d=" M 2.0025 -20 L 13.1232 -20 " />
<path id= "84" d=" M 13.1232 20 L 2.0025 20 " />
<path id= "85" d=" M -2.0025 20 L -13.1232 20 " />
<path id= "86" d=" M 20 -13.1232 L 20 -2.0025 " />
<path id= "87" d=" M 20 2.0025 L 20 13.1232 " />
<path d="M-8.77642,-6.63133 C-11.3167,-7.56154 -13.8514,-8.49866 -16.3667,-9.46017 " /><path id= "89" d=" M -16.3667 -9.46017 L -13.419 -13.1564 " />
<path d="M-8.73488,-6.68594 Q-10.9454,-10.0861 -13.419,-13.1564 " /><path d="M-8.61143,-6.84421 Q-10.822,-10.2425 -13.3183,-13.2826 " /><path id= "92" d=" M -13.419 -13.1564 L -13.3183 -13.2826 " />
<path d="M10.7845,2.16668 C13.4768,1.90258 16.1671,1.64713 18.8505,1.42208 " /><path id= "94" d=" M 18.8505 1.42208 L 17.7985 6.03127 " />
<path d="M10.7708,2.2339 Q14.2377,4.3382 17.7985,6.03127 " /><path id= "96" d=" M 17.7985 6.03127 L 17.7625 6.18855 " />
<path d="M10.7282,2.43007 Q14.1944,4.53272 17.7625,6.18855 " /><path d="M5.03005,9.78257 C6.91516,11.7228 8.79225,13.6669 10.6413,15.6246 " /><path id= "99" d=" M 10.6413 15.6246 L 6.38172 17.6758 " />
<path d="M4.96893,9.81375 Q5.4853,13.8363 6.38172,17.6758 " /><path id= "101" d=" M 6.38172 17.6758 L 6.23633 17.7458 " />
<path d="M4.78904,9.90278 Q5.30621,13.9237 6.23633,17.7458 " /><path d="M-10.6734,2.66059 Q-14.71,2.26891 -18.6527,2.28847 " /><path id= "104" d=" M -18.6527 2.28847 L -18.6886 2.13116 " />
<path d="M-10.7202,2.46539 Q-14.7553,2.07486 -18.6886,2.13116 " /><path d="M-10.6566,2.72711 C-12.9677,4.13321 -15.2807,5.53063 -17.6007,6.89767 " /><path id= "107" d=" M -17.6007 6.89767 L -18.6527 2.28847 " />
<path d="M-0.287424,-10.9962 C-1.14399,-13.5623 -1.99169,-16.1283 -2.8082,-18.6943 " /><path id= "109" d=" M -2.8082 -18.6943 L 1.91953 -18.6943 " />
<path d="M-0.218829,-10.9978 Q1.06125,-14.846 1.91953,-18.6943 " /><path d="M-0.018116,-11 Q1.26054,-14.8471 2.08087,-18.6942 " /><path id= "112" d=" M 1.91953 -18.6943 L 2.08087 -18.6942 " />
<path d="M8.46201,-7.02812 Q12.2688,-8.42664 15.8126,-10.155 " /><path id= "114" d=" M 15.8126 -10.155 L 15.9131 -10.0288 " />
<path d="M8.58884,-6.87254 Q12.3939,-8.27149 15.9131,-10.0288 " /><path d="M8.418,-7.08076 C9.89016,-9.35036 11.3678,-11.613 12.8649,-13.8512 " /><path id= "117" d=" M 12.8649 -13.8512 L 15.8126 -10.155 " />
<path d="M-4.51213,10.032 C-4.85375,12.7156 -5.20335,15.3952 -5.58105,18.0614 " /><path id= "119" d=" M -5.58105 18.0614 L -9.84058 16.0101 " />
<path d="M-4.57462,10.0036 Q-7.39761,12.9154 -9.84058,16.0101 " /><path d="M-4.75639,9.9185 Q-7.57762,12.8298 -9.98592,15.9401 " /><path id= "122" d=" M -9.84058 16.0101 L -9.98592 15.9401 " />
<path d="M-10.3523 -17.2291 A20.1 20.1 0 0 1 -2.0025 -20" /><path id= "124" d=" M 19.7619 17.0041 L 17.0041 19.7619 " />
<path id= "125" d=" M -18.7525 -13.237 L -14.9854 -12.2276 " />
<path id= "126" d=" M -18.7525 -13.237 L -19.7619 -17.0041 " />
<path id= "127" d=" M 13.237 -18.7525 L 12.2276 -14.9854 " />
<circle cx ="-15.9948" cy ="15.9948" r ="2.15" /><circle cx ="15.9948" cy ="15.9948" r ="2.15" /><circle cx ="-15.9948" cy ="-15.9948" r ="2.15" /><circle cx ="15.9948" cy ="-15.9948" r ="2.15" /></g>
</g>



<g id="Ortho_1_0"
   transform="rotate(-90,218,180) translate(218,180) scale(1,1)"
  >
<g   stroke="rgb(0, 0, 0)"
   stroke-width="0.35"
   stroke-linecap="butt"
   stroke-linejoin="miter"
   fill="none"
   transform="scale(1,-1)"
  >
<path d="M0,-19 L0,-19.112  L0,-19.2225  L0,-19.3303  L0,-19.4339  L0,-19.532  L0,-19.6235  L0,-19.7071  L0,-19.7818  L0,-19.8467  L0,-19.901  L0,-19.9439  L0,-19.9749  L0,-19.9937  L0,-20 " /><path id= "2" d=" M 0 -19 L 0 -13.1232 " />
<path id= "3" d=" M 0 -10.3523 L 0 -13.1232 " />
<path d="M0,-10.3523 L0,-9.80418  L0,-9.24635  L0,-8.67934  L0,-8.10371  L0,-7.52003  L0,-6.92888  L0,-6.33084  L0,-5.72652  L0,-5.11651  L0,-4.50141  L0,-3.88185  L0,-3.25843  L0,-2.63177  L0,-2.0025 " /><path id= "5" d=" M 0 -2.0025 L 0 2.0025 " />
<path d="M0,2.0025 L0,2.63177  L0,3.25843  L0,3.88185  L0,4.50141  L0,5.11651  L0,5.72652  L0,6.33084  L0,6.92888  L0,7.52003  L0,8.10371  L0,8.67934  L0,9.24635  L0,9.80418  L0,10.3523 " /><path id= "7" d=" M 0 13.1232 L 0 10.3523 " />
<path id= "8" d=" M 0 13.1232 L 0 19 " />
<path d="M0,20 L0,19.9937  L0,19.9749  L0,19.9439  L0,19.901  L0,19.8467  L0,19.7818  L0,19.7071  L0,19.6235  L0,19.532  L0,19.4339  L0,19.3303  L0,19.2225  L0,19.112  L0,19 " /><path d="M10,-19 L10,-19.112  L10,-19.2225  L10,-19.3303  L10,-19.4339  L10,-19.532  L10,-19.6235  L10,-19.7071  L10,-19.7818  L10,-19.8467  L10,-19.901  L10,-19.9439  L10,-19.9749  L10,-19.9937  L10,-20 " /><path id= "11" d=" M 10 -19 L 10 -13.1232 " />
<path id= "12" d=" M 10 -13.1232 L 10 -10.3523 " />
<path d="M10,-2.0025 L10,-2.63177  L10,-3.25843  L10,-3.88185  L10,-4.50141  L10,-5.11651  L10,-5.72652  L10,-6.33084  L10,-6.92888  L10,-7.52003  L10,-8.10371  L10,-8.67934  L10,-9.24635  L10,-9.80418  L10,-10.3523 " /><path id= "14" d=" M 10 -2.0025 L 10 2.0025 " />
<path d="M10,10.3523 L10,9.80418  L10,9.24635  L10,8.67934  L10,8.10371  L10,7.52003  L10,6.92888  L10,6.33084  L10,5.72652  L10,5.11651  L10,4.50141  L10,3.88185  L10,3.25843  L10,2.63177  L10,2.0025 " /><path id= "16" d=" M 10 10.3523 L 10 13.1232 " />
<path id= "17" d=" M 10 13.1232 L 10 19 " />
<path d="M10,20 L10,19.9937  L10,19.9749  L10,19.9439  L10,19.901  L10,19.8467  L10,19.7818  L10,19.7071  L10,19.6235  L10,19.532  L10,19.4339  L10,19.3303  L10,19.2225  L10,19.112  L10,19 " /><path id= "19" d=" M 0 -20 L 10 -20 " />
<path id= "20" d=" M 0 -13.1232 L 1.75 -13.1232 " />
<path id= "21" d=" M 1.75 -13.1232 L 1.75 -2.0025 " />
<path id= "22" d=" M 1.75 -2.0025 L 0 -2.0025 " />
<path id= "23" d=" M 1.75 2.0025 L 0 2.0025 " />
<path id= "24" d=" M 1.75 2.0025 L 1.75 13.1232 " />
<path id= "25" d=" M 1.75 13.1232 L 0 13.1232 " />
<path id= "26" d=" M 10 13.1232 L 4.25 13.1232 " />
<path id= "27" d=" M 4.25 13.1232 L 4.25 2.0025 " />
<path id= "28" d=" M 4.25 2.0025 L 10 2.0025 " />
<path id= "29" d=" M 4.25 -2.0025 L 10 -2.0025 " />
<path id= "30" d=" M 4.25 -2.0025 L 4.25 -13.1232 " />
<path id= "31" d=" M 4.25 -13.1232 L 10 -13.1232 " />
<path id= "32" d=" M 0 -10.3523 L 1.75 -10.3523 " />
<path id= "33" d=" M 0 20 L 10 20 " />
<path id= "34" d=" M 0 10.3523 L 1.75 10.3523 " />
<path id= "35" d=" M 10 -10.3523 L 4.25 -10.3523 " />
<path id= "36" d=" M 10 10.3523 L 4.25 10.3523 " />
</g>
</g>



</svg>

