<?xml version="1.0" encoding="UTF-8"?>

<svg xmlns="http://www.w3.org/2000/svg" version="1.1"
	width="297mm"
	height="210mm"
	viewBox="0 0 297 210">
	<!-- Working space 0 0 297 210 -->
	<defs>
		<radialGradient
			id="radialGradient3661"
			gradientUnits="userSpaceOnUse"
			cy="29.149"
			cx="282.65"
			gradientTransform="matrix(.14777 .23089 -.24680 .15795 -26.318 -62.617)"
			r="19.571">
				<stop stop-color="#71b2f8" offset="0"/>
				<stop stop-color="#002795" offset="1"/>
		</radialGradient>
		<radialGradient
			id="radialGradient3817"
			gradientUnits="userSpaceOnUse"
			cy="33.9"
			cx="270.58"
			gradientTransform="matrix(.26631 .065024 -.17931 .73438 -60.668 -36.938)"
			r="19.571">
				<stop stop-color="#ff6d0f" offset="0"/>
				<stop stop-color="#ff1000" offset="1"/>
		</radialGradient>
	</defs>
	<!-- Set display:none to hide FreeCAD Logo -->
	<g
		style="display:inline"
		id="freecad-logo"
		transform="translate(271, 185) scale(1)"
		fill-rule="evenodd"
		stroke-width=".45621">
		<path d="m0.22811 0.22835v13.256h2.9558v-5.1876h2.09v-2.0452h-2.09v-2.2075h5.1486v-3.8087l-8.1044-0.0075z"
			stroke="#370700"
			fill="url(#radialGradient3817)"/>
		<path d="m13.386 4.1792-1.7193 0.98645-0.75925-0.26348-0.72439-1.8513-1.1395 0.05988-0.51976 1.9144-0.72743 0.34835-1.8143-0.79367-0.76632 0.85156 0.98645 1.7193-0.26957 0.75702-1.8513 0.72439 0.065967 1.1417 1.9144 0.51976 0.34835 0.72743-0.79976 1.8121 0.85156 0.76632 1.7193-0.98645 0.76311 0.27179 0.7183 1.8491 1.1478-0.06375 0.51367-1.9166 0.72743-0.34835 1.8182 0.80198 0.76632-0.85156-0.98645-1.7193 0.2657-0.76533 1.8491-0.7183-0.05766-1.1456-1.9166-0.51367-0.34835-0.72743 0.7959-1.8204-0.85156-0.76632zm-2.5751 2.8195 0.35295 0.20478 0.30579 0.27725 0.24481 0.33087 0.17611 0.36787 0.10354 0.39656 0.01715 0.4064-0.0587 0.4063-0.13396 0.38571-0.2131 0.35681-0.26894 0.30192-0.33087 0.24481-0.36787 0.17611-0.39656 0.10354-0.40863 0.02325-0.4063-0.0587-0.38571-0.13396-0.35681-0.2131-0.2997-0.27503-0.24703-0.32478-0.17611-0.36787-0.10132-0.40264-0.02324-0.40863 0.05869-0.4063 0.13396-0.38571 0.21087-0.35072 0.27116-0.30801 0.33087-0.24481 0.36787-0.17611 0.40264-0.10132 0.40641-0.01715 0.4063 0.05869 0.38571 0.13396z" 
		stroke="#000137"
		fill="url(#radialGradient3661)"/>
	</g>
<g id="Ortho_0_0"
   transform="rotate(-90,76.75,156) translate(76.75,156) scale(1,1)"
  >
<g   stroke="rgb(0, 0, 0)"
   stroke-width="0.35"
   stroke-linecap="butt"
   stroke-linejoin="miter"
   fill="none"
   transform="scale(1,-1)"
  >
<path d="M-4.7,-10 L-4.58216,-10  L-4.23455,-10  L-3.67461,-10  L-2.9304,-10  L-2.03925,-10  L-1.04585,-10  L-5.10703e-15,-10  L1.04585,-10  L2.03925,-10  L2.9304,-10  L3.67461,-10  L4.23455,-10  L4.58216,-10  L4.7,-10 " /><path id= "2" d=" M 12 -10 L 6 -10 " />
<path id= "3" d=" M -24 -10 L 6 -10 " />
<path d="M-23.201,-10 L-23.2574,-10  L-23.3139,-10  L-23.3705,-10  L-23.4272,-10  L-23.484,-10  L-23.5409,-10  L-23.598,-10  L-23.6551,-10  L-23.7123,-10  L-23.7697,-10  L-23.8271,-10  L-23.8846,-10  L-23.9423,-10  L-24,-10 " /><path id= "5" d=" M -23.201 -10 L -9.30152 -10 " />
<path id= "6" d=" M -4.7 -10 L -8.4 -10 " />
<path id= "7" d=" M -4.7 -10 L -8.4 -10 " />
<path id= "8" d=" M 12 -3.33041e-15 L 6 6.00394e-16 " />
<path id= "9" d=" M -24 1.65804e-14 L 6 6.00394e-16 " />
<path id= "10" d=" M 12 -3.33041e-15 L 12 -10 " />
<path id= "11" d=" M 6 6.00394e-16 L 6 -10 " />
<path id= "12" d=" M -24 1.65804e-14 L -24 -10 " />
<path d="M-24,-10 L-24,-9.73947  L-24,-9.48103  L-24,-9.22474  L-24,-8.97061  L-24,-8.71869  L-24,-8.46902  L-24,-8.22162  L-24,-7.97652  L-24,-7.73378  L-24,-7.49341  L-24,-7.25545  L-24,-7.01993  L-24,-6.78688  L-24,-6.55635 " /><path id= "14" d=" M -24 5.50671e-14 L -24 -6.55635 " />
<path id= "15" d=" M -17.5 1.3337e-14 L -17.5 15 " />
<path id= "16" d=" M -8.5 3.34496e-15 L -8.5 15 " />
<path id= "17" d=" M -8.5 15 L -17.5 15 " />
<path d="M-8.5,15 L-8.5,14.0763  L-8.5,13.1642  L-8.5,12.2752  L-8.5,11.4205  L-8.5,10.6107  L-8.5,9.85621  L-8.5,9.16637  L-8.5,8.54989  L-8.5,8.01453  L-8.5,7.56701  L-8.5,7.21296  L-8.5,6.95684  L-8.5,6.80187  L-8.5,6.75 " /><path id= "19" d=" M -17.5 15 L -13.5 15 " />
<path d="M-13,15 L-12.8097,15  L-12.6217,15  L-12.4385,15  L-12.2624,15  L-12.0955,15  L-11.9401,15  L-11.7979,15  L-11.6709,15  L-11.5606,15  L-11.4684,15  L-11.3954,15  L-11.3426,15  L-11.3107,15  L-11.3,15 " /><path d="M-14.7,15 L-14.6893,15  L-14.6574,15  L-14.6046,15  L-14.5316,15  L-14.4394,15  L-14.3291,15  L-14.2021,15  L-14.0599,15  L-13.9045,15  L-13.7376,15  L-13.5615,15  L-13.3783,15  L-13.1903,15  L-13,15 " /></g>
</g>



<g id="Ortho_0_1"
   transform="rotate(90,76.75,67.5) translate(76.75,67.5) scale(1,1)"
  >
<g   stroke="rgb(0, 0, 0)"
   stroke-width="0.35"
   stroke-linecap="butt"
   stroke-linejoin="miter"
   fill="none"
   transform="scale(1,-1)"
  >
<path id= "1" d=" M -4 -2.26727e-15 L -7 -1.89987e-15 " />
<path id= "2" d=" M 4 -2.26622e-15 L -4 -1.2865e-15 " />
<path id= "3" d=" M 25 10 L -25 10 " />
<path id= "4" d=" M 25 10 L 31 10 " />
<path id= "5" d=" M -25 10 L -31 10 " />
<path d="M-18.959,3.60021e-15 L-19.4729,4.03938e-15  L-20.1086,4.43633e-15  L-20.8442,4.77732e-15  L-21.6543,5.0506e-15  L-22.5108,5.24672e-15  L-23.3842,5.35891e-15  L-24.2444,5.38328e-15  L-25.0616,5.319e-15  L-25.8076,5.1683e-15  L-26.4566,4.93636e-15  L-26.9862,4.63122e-15  L-27.3781,4.26339e-15  L-27.6188,3.8456e-15  L-27.7,3.39227e-15 " /><path id= "7" d=" M -18.959 1.0434e-15 L -11.1934 9.2395e-17 " />
<path d="M-8.79343,1.07688e-15 L-8.80852,1.22187e-15  L-8.8536,1.36873e-15  L-8.92811,1.51561e-15  L-9.0311,1.66067e-15  L-9.16129,1.80209e-15  L-9.31703,1.93808e-15  L-9.49637,2.06694e-15  L-9.69705,2.18704e-15  L-9.91655,2.29688e-15  L-10.1521,2.39508e-15  L-10.4008,2.48039e-15  L-10.6594,2.55175e-15  L-10.9247,2.60826e-15  L-11.1934,2.6492e-15 " /><path id= "9" d=" M 25 3.33041e-15 L -25 9.45364e-15 " />
<path id= "10" d=" M 25 3.33041e-15 L 31 -6.00394e-16 " />
<path id= "11" d=" M -25 9.45364e-15 L -31 6.99242e-15 " />
<path id= "12" d=" M -8.79343 1.83836e-15 L -7 1.46342e-15 " />
<path id= "13" d=" M 7 -1.46342e-15 L 8.79343 -1.83836e-15 " />
<path id= "14" d=" M 7 -3.61438e-15 L 4 -3.24698e-15 " />
<path id= "15" d=" M 18.959 -3.60021e-15 L 11.1934 -2.6492e-15 " />
<path d="M27.7,-3.39227e-15 L27.6188,-2.91906e-15  L27.3781,-2.44231e-15  L26.9862,-1.9785e-15  L26.4566,-1.54363e-15  L25.8076,-1.15274e-15  L25.0616,-8.19318e-16  L24.2444,-5.54888e-16  L23.3842,-3.68582e-16  L22.5108,-2.66834e-16  L21.6543,-2.53159e-16  L20.8442,-3.2803e-16  L20.1086,-4.88859e-16  L19.4729,-7.30093e-16  L18.959,-1.0434e-15 " /><path d="M8.79343,-1.07688e-15 L8.80852,-9.35596e-16  L8.8536,-7.99782e-16  L8.92811,-6.71148e-16  L9.0311,-5.51312e-16  L9.16129,-4.41782e-16  L9.31703,-3.43935e-16  L9.49637,-2.59001e-16  L9.69705,-1.88049e-16  L9.91655,-1.31971e-16  L10.1521,-9.14718e-17  L10.4008,-6.70607e-17  L10.6594,-5.90449e-17  L10.9247,-6.75252e-17  L11.1934,-9.2395e-17 " /><path id= "18" d=" M 25 3.33041e-15 L 25 10 " />
<path id= "19" d=" M -25 9.45364e-15 L -25 10 " />
<circle cx ="-16" cy ="5" r ="3" /><circle cx ="16" cy ="5" r ="3" /><path id= "22" d=" M 31 -6.00394e-16 L 31 10 " />
<path id= "23" d=" M -31 6.99242e-15 L -31 10 " />
<path id= "24" d=" M 16 -3.34496e-15 L 16 -15 " />
<path id= "25" d=" M -16 3.34496e-15 L -16 -15 " />
<path id= "26" d=" M -16 -15 L -8.25 -15 " />
<path id= "27" d=" M 8.25 -15 L 16 -15 " />
<path d="M8.25 -15 A8.25 8.25 0 1 1 -8.25 -15" /><path id= "29" d=" M -15 -6 L -15 -9 " />
<path id= "30" d=" M -15 -9 L -9 -9 " />
<path id= "31" d=" M -9 -9 L -9 -6 " />
<path id= "32" d=" M -9 -6 L -15 -6 " />
<path id= "33" d=" M 9 -6 L 9 -9 " />
<path id= "34" d=" M 9 -9 L 15 -9 " />
<path id= "35" d=" M 15 -9 L 15 -6 " />
<path id= "36" d=" M 15 -6 L 9 -6 " />
<circle cx ="16" cy ="5" r ="1.7" /><circle cx ="-16" cy ="5" r ="1.7" /><circle cx ="-16" cy ="5" r ="1.7" /><path id= "40" d=" M 6.25 -15 L 8.25 -15 " />
<path id= "41" d=" M -8.25 -15 L -6.25 -15 " />
<path d="M-6.25 -15 A6.25 6.25 0 1 0 6.25 -15" /><path d="M8.25 -15 A8.25 8.25 0 1 1 -8.25 -15" /><path id= "44" d=" M -9 -9 L -9 -6 " />
<path d="M-10.3,-6 L-10.3426,-6  L-10.4684,-6  L-10.6709,-6  L-10.9401,-6  L-11.2624,-6  L-11.6217,-6  L-12,-6  L-12.3783,-6  L-12.7376,-6  L-13.0599,-6  L-13.3291,-6  L-13.5316,-6  L-13.6574,-6  L-13.7,-6 " /><path id= "46" d=" M 9 -6 L 9 -9 " />
<circle cx ="16" cy ="5" r ="1.7" /><circle cx ="-16" cy ="5" r ="1.7" /><circle cx ="16" cy ="5" r ="1.7" /><circle cx ="-16" cy ="5" r ="1.7" /></g>
</g>



<g id="Ortho_1_0"
   transform="rotate(-90,195,156) translate(195,156) scale(1,1)"
  >
<g   stroke="rgb(0, 0, 0)"
   stroke-width="0.35"
   stroke-linecap="butt"
   stroke-linejoin="miter"
   fill="none"
   transform="scale(1,-1)"
  >
<path id= "1" d=" M -4 -7 L -4 -4 " />
<path id= "2" d=" M -4 -4 L 4 -4 " />
<path d="M-2.4 18.959 A4.7 4.7 0 1 0 2.4 18.959" /><path id= "4" d=" M -2.4 11.1934 L -2.4 18.959 " />
<path id= "5" d=" M 2.4 18.959 L 2.4 11.1934 " />
<path d="M2.4 11.1934 A2.4 2.4 0 1 0 -2.4 11.1934" /><path id= "7" d=" M 12 25 L 12 -25 " />
<path id= "8" d=" M 12 25 L 6 31 " />
<path id= "9" d=" M 12 -25 L 6 -31 " />
<path id= "10" d=" M -24 31 L 6 31 " />
<path id= "11" d=" M 6 -31 L -24 -31 " />
<path id= "12" d=" M -24 15.7639 L -24 31 " />
<path id= "13" d=" M -24 -31 L -24 -15.7639 " />
<path d="M-23.201 15.3687 A26.8701 19 3.73758e-30 0 1 -24 15.7639" />
<path d="M-24 -15.7639 A26.8701 19 3.73758e-30 0 1 -23.201 -15.3687" />
<path id= "16" d=" M -23.201 15.3687 L -23.201 21 " />
<path id= "17" d=" M -23.201 -21 L -23.201 -15.3687 " />
<path id= "18" d=" M -23.201 21 L -9.30152 21 " />
<path id= "19" d=" M -23.201 -21 L -9.30152 -21 " />
<path id= "20" d=" M -9.30152 -21 L -9.30152 21 " />
<path id= "21" d=" M -4 4 L -4 7 " />
<path id= "22" d=" M 4 4 L -4 4 " />
<path id= "23" d=" M -4 7 L 4 7 " />
<path id= "24" d=" M 4 7 L 4 4 " />
<path id= "25" d=" M 4 -4 L 4 -7 " />
<path id= "26" d=" M 4 -7 L -4 -7 " />
<path id= "27" d=" M 2.4 -18.959 L 2.4 -11.1934 " />
<path d="M2.4 -18.959 A4.7 4.7 0 1 0 -2.4 -18.959" /><path d="M2.4 -11.1934 A2.4 2.4 0 1 1 -2.4 -11.1934" /><path id= "30" d=" M -2.4 -11.1934 L -2.4 -18.959 " />
<path id= "31" d=" M -8.4 19.4 L -4.6 19.4 " />
<path id= "32" d=" M -8.4 12.6 L -8.4 19.4 " />
<path id= "33" d=" M -4.6 19.4 L -4.6 12.6 " />
<path id= "34" d=" M -4.6 12.6 L -8.4 12.6 " />
<path id= "35" d=" M -4.6 -12.6 L -4.6 -19.4 " />
<path id= "36" d=" M -8.4 -12.6 L -4.6 -12.6 " />
<path id= "37" d=" M -4.6 -19.4 L -8.4 -19.4 " />
<path id= "38" d=" M -8.4 -19.4 L -8.4 -12.6 " />
<path id= "39" d=" M 4 4 L -4 4 " />
<path d="M-2.4,18.959 L-2.37064,18.9757  L-2.34139,18.9925  L-2.31227,19.0092  L-2.28328,19.026  L-2.2544,19.0427  L-2.22564,19.0594  L-2.19701,19.0762  L-2.1685,19.0929  L-2.14011,19.1097  L-2.11185,19.1264  L-2.0837,19.1432  L-2.05568,19.1599  L-2.02778,19.1767  L-2,19.1934 " /><path d="M-2 19.1934 A4.3 4.3 0 1 0 2 19.1934" /><path d="M2.4,18.959 L2.37064,18.9757  L2.34139,18.9925  L2.31227,19.0092  L2.28328,19.026  L2.2544,19.0427  L2.22564,19.0594  L2.19701,19.0762  L2.1685,19.0929  L2.14011,19.1097  L2.11185,19.1264  L2.0837,19.1432  L2.05568,19.1599  L2.02778,19.1767  L2,19.1934 " /><path id= "43" d=" M -2 11.1934 L -2 19.1934 " />
<path id= "44" d=" M 2 19.1934 L 2 11.1934 " />
<path d="M2 11.1934 A2 2 0 1 0 -2 11.1934" /><path d="M-24,15.7639 L-24,15.6384  L-24,15.5107  L-24,15.3808  L-24,15.2489  L-24,15.1149  L-24,14.9788  L-24,14.8406  L-24,14.7004  L-24,14.5581  L-24,14.4139  L-24,14.2676  L-24,14.1194  L-24,13.9693  L-24,13.8172 " /><path d="M-24,-13.8172 L-24,-13.9693  L-24,-14.1194  L-24,-14.2676  L-24,-14.4139  L-24,-14.5581  L-24,-14.7004  L-24,-14.8406  L-24,-14.9788  L-24,-15.1149  L-24,-15.2489  L-24,-15.3808  L-24,-15.5107  L-24,-15.6384  L-24,-15.7639 " /><path d="M-23.201 -15.3687 A19 13.435 -90 0 1 -23.201 15.3687" />
<path d="M-24 -13.8172 A19 13.435 -90 0 1 -24 13.8172" />
<path id= "50" d=" M -16.2513 21 L -16.2513 -21 " />
<path d="M-19.7868 14.3 A1.7 1.20208 -90 1 1 -19.7868 17.7" />
<path d="M-19.7868 17.7 A1.7 1.20208 -90 1 1 -19.7868 14.3" />
<path d="M-19.7868 -17.7 A1.7 1.20208 -90 1 1 -19.7868 -14.3" />
<path d="M-19.7868 -14.3 A1.7 1.20208 -90 1 1 -19.7868 -17.7" />
<path d="M2.4,-18.959 L2.37064,-18.9757  L2.34139,-18.9925  L2.31227,-19.0092  L2.28328,-19.026  L2.2544,-19.0427  L2.22564,-19.0594  L2.19701,-19.0762  L2.1685,-19.0929  L2.14011,-19.1097  L2.11185,-19.1264  L2.0837,-19.1432  L2.05568,-19.1599  L2.02778,-19.1767  L2,-19.1934 " /><path id= "56" d=" M 2 -19.1934 L 2 -11.1934 " />
<path d="M2 -19.1934 A4.3 4.3 0 1 0 -2 -19.1934" /><path d="M-2.4,-18.959 L-2.37064,-18.9757  L-2.34139,-18.9925  L-2.31227,-19.0092  L-2.28328,-19.026  L-2.2544,-19.0427  L-2.22564,-19.0594  L-2.19701,-19.0762  L-2.1685,-19.0929  L-2.14011,-19.1097  L-2.11185,-19.1264  L-2.0837,-19.1432  L-2.05568,-19.1599  L-2.02778,-19.1767  L-2,-19.1934 " /><path d="M2 -11.1934 A2 2 0 1 1 -2 -11.1934" /><path id= "60" d=" M -2 -11.1934 L -2 -19.1934 " />
<path id= "61" d=" M -8.4 19.4 L -8 19 " />
<path id= "62" d=" M -8 19 L -5 19 " />
<path id= "63" d=" M -4.6 19.4 L -5 19 " />
<path id= "64" d=" M -8.4 12.6 L -8 13 " />
<path id= "65" d=" M -8 13 L -8 19 " />
<path id= "66" d=" M -5 19 L -5 13 " />
<path id= "67" d=" M -4.6 12.6 L -5 13 " />
<path id= "68" d=" M -5 13 L -8 13 " />
<path id= "69" d=" M -4.6 -12.6 L -5 -13 " />
<path id= "70" d=" M -5 -13 L -5 -19 " />
<path id= "71" d=" M -4.6 -19.4 L -5 -19 " />
<path id= "72" d=" M -8.4 -12.6 L -8 -13 " />
<path id= "73" d=" M -8 -13 L -5 -13 " />
<path id= "74" d=" M -5 -19 L -8 -19 " />
<path id= "75" d=" M -8.4 -19.4 L -8 -19 " />
<path id= "76" d=" M -8 -19 L -8 -13 " />
<path d="M-20.8475 -16.8 A1.7 1.20208 -90 0 1 -20.8475 -15.2" />
<path d="M-20.8475 15.2 A1.7 1.20208 -90 0 1 -20.8475 16.8" />
<path d="M-8,17.7 L-8,17.6574  L-8,17.5316  L-8,17.3291  L-8,17.0599  L-8,16.7376  L-8,16.3783  L-8,16  L-8,15.6217  L-8,15.2624  L-8,14.9401  L-8,14.6709  L-8,14.4684  L-8,14.3426  L-8,14.3 " /><path d="M-8,-14.3 L-8,-14.3426  L-8,-14.4684  L-8,-14.6709  L-8,-14.9401  L-8,-15.2624  L-8,-15.6217  L-8,-16  L-8,-16.3783  L-8,-16.7376  L-8,-17.0599  L-8,-17.3291  L-8,-17.5316  L-8,-17.6574  L-8,-17.7 " /></g>
</g>



</svg>

