<?xml version="1.0" encoding="UTF-8"?>

<svg xmlns="http://www.w3.org/2000/svg" version="1.1"
	width="297mm"
	height="210mm"
	viewBox="0 0 297 210">
	<!-- Working space 0 0 297 210 -->
	<defs>
		<radialGradient
			id="radialGradient3661"
			gradientUnits="userSpaceOnUse"
			cy="29.149"
			cx="282.65"
			gradientTransform="matrix(.14777 .23089 -.24680 .15795 -26.318 -62.617)"
			r="19.571">
				<stop stop-color="#71b2f8" offset="0"/>
				<stop stop-color="#002795" offset="1"/>
		</radialGradient>
		<radialGradient
			id="radialGradient3817"
			gradientUnits="userSpaceOnUse"
			cy="33.9"
			cx="270.58"
			gradientTransform="matrix(.26631 .065024 -.17931 .73438 -60.668 -36.938)"
			r="19.571">
				<stop stop-color="#ff6d0f" offset="0"/>
				<stop stop-color="#ff1000" offset="1"/>
		</radialGradient>
	</defs>
	<!-- Set display:none to hide FreeCAD Logo -->
	<g
		style="display:inline"
		id="freecad-logo"
		transform="translate(271, 185) scale(1)"
		fill-rule="evenodd"
		stroke-width=".45621">
		<path d="m0.22811 0.22835v13.256h2.9558v-5.1876h2.09v-2.0452h-2.09v-2.2075h5.1486v-3.8087l-8.1044-0.0075z"
			stroke="#370700"
			fill="url(#radialGradient3817)"/>
		<path d="m13.386 4.1792-1.7193 0.98645-0.75925-0.26348-0.72439-1.8513-1.1395 0.05988-0.51976 1.9144-0.72743 0.34835-1.8143-0.79367-0.76632 0.85156 0.98645 1.7193-0.26957 0.75702-1.8513 0.72439 0.065967 1.1417 1.9144 0.51976 0.34835 0.72743-0.79976 1.8121 0.85156 0.76632 1.7193-0.98645 0.76311 0.27179 0.7183 1.8491 1.1478-0.06375 0.51367-1.9166 0.72743-0.34835 1.8182 0.80198 0.76632-0.85156-0.98645-1.7193 0.2657-0.76533 1.8491-0.7183-0.05766-1.1456-1.9166-0.51367-0.34835-0.72743 0.7959-1.8204-0.85156-0.76632zm-2.5751 2.8195 0.35295 0.20478 0.30579 0.27725 0.24481 0.33087 0.17611 0.36787 0.10354 0.39656 0.01715 0.4064-0.0587 0.4063-0.13396 0.38571-0.2131 0.35681-0.26894 0.30192-0.33087 0.24481-0.36787 0.17611-0.39656 0.10354-0.40863 0.02325-0.4063-0.0587-0.38571-0.13396-0.35681-0.2131-0.2997-0.27503-0.24703-0.32478-0.17611-0.36787-0.10132-0.40264-0.02324-0.40863 0.05869-0.4063 0.13396-0.38571 0.21087-0.35072 0.27116-0.30801 0.33087-0.24481 0.36787-0.17611 0.40264-0.10132 0.40641-0.01715 0.4063 0.05869 0.38571 0.13396z" 
		stroke="#000137"
		fill="url(#radialGradient3661)"/>
	</g>
<g id="View"
   transform="rotate(60,152.036,96.835) translate(152.036,96.835) scale(1,1)"
  >
<g   stroke="rgb(0, 0, 0)"
   stroke-width="0.35"
   stroke-linecap="butt"
   stroke-linejoin="miter"
   fill="none"
   transform="scale(1,-1)"
  >
<path id= "1" d=" M 0.62132 0.259662 L -2.29289 1.94218 " />
</g>
<g   stroke="rgb(0, 0, 0)"
   stroke-width="0.35"
   stroke-linecap="butt"
   stroke-linejoin="miter"
   fill="none"
   transform="scale(1,-1)"
  >
<path id= "1" d=" M 1.20184e-15 -0.816497 L 2.40368e-15 1.63299 " />
<path id= "2" d=" M 0 -3.26599 L 1.20184e-15 -0.816497 " />
<path id= "3" d=" M -2.12132 -4.49073 L -2.12132 2.04124 " />
<path id= "4" d=" M 0 -3.26599 L -2.12132 -4.49073 " />
<path id= "5" d=" M 3.53553 1.22474 L 2.12132 0.408248 " />
<path d="M3.53553 1.22474 A3 1.73205 60 0 1 5.03553 2.80821" />
<path d="M0.62132 0.259662 A3 1.73205 60 0 1 2.12132 0.408248" />
<path id= "8" d=" M 5.65685 -1.77636e-15 L 5.65685 2.44949 " />
<path id= "9" d=" M 5.65685 -1.77636e-15 L 0 -3.26599 " />
<path id= "10" d=" M 9.19239 23.2702 L -26.163 2.85774 " />
<path id= "11" d=" M 9.19239 23.2702 L 17.6777 23.2702 " />
<path id= "12" d=" M 38.8909 11.0227 L 17.6777 23.2702 " />
<path id= "13" d=" M -2.12132 -4.49073 L -7.77817 -1.22474 " />
<path d="M-15.1031 -6.76017 A4.7 2.71355 180 0 1 -19.5869 -7.47094" />
<path d="M-19.5869 -7.47094 A4.7 2.71355 180 1 1 -11.709 -8.71976" />
<path id= "16" d=" M -9.612 -3.5899 L -15.1031 -6.76017 " />
<path id= "17" d=" M -11.709 -8.71976 L -6.21789 -5.54949 " />
<path d="M-6.21789 -5.54949 A2.4 1.38564 180 0 1 -6.21789 -3.5899" />
<path d="M-6.21789 -3.5899 A2.4 1.38564 180 0 1 -9.612 -3.5899" />
<path id= "20" d=" M 9.19239 15.1052 L -26.163 -5.30723 " />
<path id= "21" d=" M 9.19239 15.1052 L 17.6777 15.1052 " />
<path id= "22" d=" M -26.163 -5.30723 L -26.163 -10.2062 " />
<path id= "23" d=" M 38.8909 2.85774 L 17.6777 15.1052 " />
<path id= "24" d=" M -26.163 -10.2062 L -4.94975 -22.4537 " />
<path id= "25" d=" M 31.8198 -1.22474 L 38.8909 2.85774 " />
<path id= "26" d=" M 31.8198 -1.22474 L 28.4975 0.693404 " />
<path id= "27" d=" M 0.988694 -15.1888 L 2.10333 -14.5453 " />
<path id= "28" d=" M 3.04163 -14.0035 L 11.0321 -9.39022 " />
<path id= "29" d=" M 23.6881 -2.0833 L 28.4975 0.693404 " />
<path id= "30" d=" M 16.617 -4.69486 L 16.0513 -5.02145 " />
<path id= "31" d=" M 17.3241 3.06186 L 23.6881 -0.612372 " />
<path id= "32" d=" M -5.3033 -10.0021 L 17.3241 3.06186 " />
<path id= "33" d=" M -7.77817 -1.22474 L -5.65685 2.66454e-15 " />
<path id= "34" d=" M -5.65685 1.77636e-15 L 0 3.26599 " />
<path id= "35" d=" M 0 3.26599 L 2.12132 4.49073 " />
<path id= "36" d=" M 2.12132 4.49073 L 7.77817 1.22474 " />
<path id= "37" d=" M 7.77817 1.22474 L 5.65685 -2.66454e-15 " />
<path id= "38" d=" M 15.1031 6.76017 L 9.612 3.5899 " />
<path d="M15.1031 6.76017 A4.7 2.71355 180 0 1 19.5869 11.3085" />
<path d="M19.5869 11.3085 A4.7 2.71355 180 0 1 12.9401 11.3085" />
<path d="M12.9401 11.3085 A4.7 2.71355 180 0 1 11.709 8.71976" />
<path d="M9.612 3.5899 A2.4 1.38564 -3.50583e-14 1 0 6.21789 5.54949" />
<path id= "43" d=" M 6.21789 5.54949 L 11.709 8.71976 " />
<path id= "44" d=" M -10.4652 -9.79796 L -5.65685 -7.02187 " />
<path id= "45" d=" M -7.77817 -11.3493 L -10.4652 -9.79796 " />
<path id= "46" d=" M -5.65685 -7.02187 L -2.96985 -8.57321 " />
<path id= "47" d=" M -2.96985 -8.57321 L -7.77817 -11.3493 " />
<path id= "48" d=" M 12.1622 3.26599 L 16.9706 6.04207 " />
<path id= "49" d=" M 14.8492 1.71464 L 12.1622 3.26599 " />
<path id= "50" d=" M 16.9706 6.04207 L 19.6576 4.49073 " />
<path id= "51" d=" M 19.6576 4.49073 L 14.8492 1.71464 " />
<path id= "52" d=" M 9.19239 15.1052 L 9.19239 23.2702 " />
<path id= "53" d=" M -26.163 -5.30723 L -26.163 2.85774 " />
<path d="M-21.9203 1.22474 A3 1.73205 60 0 1 -21.299 -0.148586" />
<path d="M-21.299 -0.148586 A3 1.73205 60 0 1 -18.299 5.04757" />
<path d="M-18.299 5.04757 A3 1.73205 60 0 1 -21.9203 1.22474" />
<path d="M0.707107 14.2887 A3 1.73205 60 0 1 1.32843 12.9154" />
<path d="M1.32843 12.9154 A3 1.73205 60 0 1 4.32843 18.1115" />
<path d="M4.32843 18.1115 A3 1.73205 60 0 1 0.707107 14.2887" />
<path id= "60" d=" M 17.6777 15.1052 L 17.6777 23.2702 " />
<path id= "61" d=" M 38.8909 2.85774 L 38.8909 11.0227 " />
<path d="M16.0935,-4.95107 L16.1306,-4.92965  L16.1678,-4.90821  L16.205,-4.88674  L16.2422,-4.86525  L16.2795,-4.84372  L16.3168,-4.82218  L16.3542,-4.8006  L16.3916,-4.779  L16.429,-4.75737  L16.4665,-4.73572  L16.5041,-4.71404  L16.5417,-4.69233  L16.5793,-4.6706  L16.617,-4.64885 " /><path d="M-19.4391 -7.38929 A4.3 2.48261 180 0 1 -20.5635 -9.06311" />
<path d="M-20.5635 -9.06311 A4.3 2.48261 180 0 1 -11.9635 -9.06311" />
<path d="M-11.9635 -9.06311 A4.3 2.48261 180 0 1 -12.1576 -8.32558" />
<path d="M-11.709,-8.71976 L-11.7416,-8.69063  L-11.7741,-8.66166  L-11.8065,-8.63283  L-11.8389,-8.60415  L-11.8711,-8.57562  L-11.9033,-8.54724  L-11.9354,-8.51901  L-11.9674,-8.49093  L-11.9993,-8.463  L-12.0311,-8.43522  L-12.0629,-8.40758  L-12.0945,-8.3801  L-12.1261,-8.35277  L-12.1576,-8.32558 " /><path id= "67" d=" M -12.1576 -8.32558 L -6.50073 -5.0596 " />
<path d="M-6.50073 -5.0596 A2 1.1547 180 0 1 -5.91495 -4.2431" />
<path d="M-5.91495 -4.2431 A2 1.1547 180 0 1 -6.37222 -3.50825" />
<path id= "70" d=" M 23.6881 -0.612372 L 23.6881 -12.8598 " />
<path id= "71" d=" M 23.6881 -12.8598 L 16.7938 -16.8402 " />
<path id= "72" d=" M 7.95495 -21.9433 L 1.06066 -25.9238 " />
<path d="M7.95495 -21.9433 A6.25 3.60844 -120 0 0 13.7468 -13.7486" />
<path id= "74" d=" M 17.3241 3.06186 L 17.3241 -9.18559 " />
<path id= "75" d=" M 17.3241 -9.18559 L 23.6881 -12.8598 " />
<path id= "76" d=" M 1.06066 -25.9238 L -5.3033 -22.2495 " />
<path id= "77" d=" M -5.3033 -10.0021 L -5.3033 -22.2495 " />
<path id= "78" d=" M -5.3033 -22.2495 L 0.176777 -19.0856 " />
<path id= "79" d=" M 11.844 -12.3495 L 17.3241 -9.18559 " />
<path d="M11.844 -12.3495 A8.25 4.76314 60 0 1 10.1354 -8.57285" />
<path d="M10.1354 -8.57285 A8.25 4.76314 60 0 1 0.176777 -19.0856" />
<path id= "82" d=" M -4.59619 -14.4928 L -4.59619 -16.9423 " />
<path id= "83" d=" M -4.59619 -16.9423 L -0.353553 -14.4928 " />
<path id= "84" d=" M -0.353553 -14.4928 L -0.353553 -12.0433 " />
<path id= "85" d=" M -0.353553 -12.0433 L -4.59619 -14.4928 " />
<path id= "86" d=" M 12.3744 -4.69486 L 12.3744 -7.14435 " />
<path id= "87" d=" M 12.3744 -7.14435 L 16.617 -4.69486 " />
<path id= "88" d=" M 16.617 -4.69486 L 16.617 -2.24537 " />
<path id= "89" d=" M 16.617 -2.24537 L 12.3744 -4.69486 " />
<path d="M15.1031,6.76017 L15.0941,6.80297  L15.0853,6.84562  L15.0766,6.88812  L15.0679,6.93047  L15.0593,6.97268  L15.0508,7.01473  L15.0424,7.05664  L15.0341,7.09839  L15.0259,7.14  L15.0177,7.18145  L15.0097,7.22276  L15.0017,7.26392  L14.9938,7.30493  L14.986,7.34579 " /><path id= "91" d=" M 14.986 7.34579 L 9.32916 4.0798 " />
<path d="M14.986 7.34579 A4.3 2.48261 180 0 1 20.5635 9.71631" />
<path d="M20.5635 9.71631 A4.3 2.48261 180 0 1 19.4391 11.3901" />
<path d="M13.0878 11.3901 A4.3 2.48261 180 0 1 11.9635 9.71631" />
<path d="M11.9635 9.71631 A4.3 2.48261 180 0 1 12.1576 8.97878" />
<path d="M11.709,8.71976 L11.7416,8.73858  L11.7741,8.75736  L11.8065,8.77608  L11.8389,8.79476  L11.8711,8.81339  L11.9033,8.83196  L11.9354,8.85049  L11.9674,8.86897  L11.9993,8.88739  L12.0311,8.90577  L12.0629,8.9241  L12.0945,8.94237  L12.1261,8.9606  L12.1576,8.97878 " /><path d="M9.32916 4.0798 A2 1.1547 -3.50583e-14 0 0 5.91495 4.8963" />
<path d="M5.91495 4.8963 A2 1.1547 -3.50583e-14 0 0 6.50073 5.71279" />
<path id= "99" d=" M -10.4652 -9.79796 L -9.89949 -9.47136 " />
<path id= "100" d=" M -7.77817 -11.3493 L -7.77817 -10.6961 " />
<path id= "101" d=" M -7.77817 -10.6961 L -9.89949 -9.47136 " />
<path id= "102" d=" M -3.53553 -8.24662 L -7.77817 -10.6961 " />
<path id= "103" d=" M 12.1622 3.26599 L 12.7279 3.59258 " />
<path id= "104" d=" M 14.8492 1.71464 L 14.8492 2.36784 " />
<path id= "105" d=" M 14.8492 2.36784 L 12.7279 3.59258 " />
<path id= "106" d=" M 19.0919 4.81733 L 14.8492 2.36784 " />
<path id= "107" d=" M 12.1576 8.97878 L 12.1576 10.4538 " />
<path id= "108" d=" M 14.986 7.34579 L 14.986 12.0011 " />
<path d="M11.6032 8.6587 A1.7 0.981495 60 0 1 11.8779 8.32572" />
<path d="M11.8779 8.32572 A1.7 0.981495 60 0 1 13.5779 11.2702" />
<path d="M13.5779 11.2702 A1.7 0.981495 60 0 1 12.925 11.281" />
<path d="M-20.5061 0.408248 A3 1.73205 60 0 1 -20.4148 -0.250046" />
<path d="M-17.769 4.33253 A3 1.73205 60 0 1 -20.5061 0.408248" />
<path d="M2.12132 13.4722 A3 1.73205 60 0 1 2.21266 12.8139" />
<path d="M4.85841 17.3965 A3 1.73205 60 0 1 2.12132 13.4722" />
<path id= "116" d=" M -12.1576 -8.32558 L -12.1576 -5.0596 " />
<path d="M-11.0242 -4.40524 A1.7 0.981495 60 0 1 -10.7495 -4.73823" />
<path d="M-10.7495 -4.73823 A1.7 0.981495 60 0 1 -8.83253 -3.28933" />
<path id= "119" d=" M 14.8492 2.36784 L 14.8492 4.81733 " />
<path d="M16.5644 5.80755 A1.7 0.981495 60 0 1 17.0393 6.00239" />
<path d="M18.0837 7.46711 A1.7 0.981495 60 0 1 17.8206 8.82071" />
<path id= "122" d=" M -9.89949 -4.65403 L -9.89949 -3.75588 " />
<path id= "123" d=" M -7.77817 -10.6961 L -7.77817 -8.24662 " />
<path d="M-6.06306 -7.25639 A1.7 0.981495 60 0 1 -5.58811 -7.06156" />
<path d="M-6.00744 -4.59019 A1.7 0.981495 60 0 1 -6.31856 -4.93869" />
<path id= "126" d=" M 16.7938 -16.8402 L 13.9654 -15.2072 " />
<path id= "127" d=" M 13.9654 -15.2072 L 15.3796 -14.3908 " />
<path id= "128" d=" M 15.3796 -14.3908 L 11.844 -12.3495 " />
<path d="M18.8798 -11.9617 A1.7 0.981495 180 0 1 15.9777 -12.6557" />
<path d="M15.9777 -12.6557 A1.7 0.981495 180 1 1 19.3777 -12.6557" />
<path d="M19.3777 -12.6557 A1.7 0.981495 180 0 1 18.8798 -11.9617" />
<path id= "132" d=" M 0.176777 -19.0856 L 3.71231 -21.1268 " />
<path id= "133" d=" M 3.71231 -21.1268 L 5.12652 -20.3104 " />
<path id= "134" d=" M 5.12652 -20.3104 L 7.95495 -21.9433 " />
<path d="M1.90919 -21.7596 A1.7 0.981495 180 0 1 -0.992893 -22.4537" />
<path d="M-0.992893 -22.4537 A1.7 0.981495 180 1 1 2.40711 -22.4537" />
<path d="M2.40711 -22.4537 A1.7 0.981495 180 0 1 1.90919 -21.7596" />
<path d="M5.12652 -20.3104 A6.25 3.60844 -120 0 0 11.839 -12.0725" />
<path d="M13.5843 -13.3542 A6.25 3.60844 -120 0 0 13.9654 -15.2072" />
<path d="M11.5052 -10.2828 A8.25 4.76314 60 0 1 3.71231 -21.1268" />
<path id= "141" d=" M -4.59619 -14.4928 L -2.47487 -15.7176 " />
<path d="M-0.353553 -14.3382 A1.7 0.981495 180 0 1 -0.919239 -14.8194" />
<path id= "143" d=" M 12.3744 -4.69486 L 14.4957 -5.9196 " />
<path d="M16.617 -4.5402 A1.7 0.981495 180 0 1 16.0513 -5.02145" />
<path d="M3.04056 14.0029 A1.7 0.981495 60 0 1 3.24216 13.3499" />
<path d="M4.90901 16.2369 A1.7 0.981495 60 0 1 3.04056 14.0029" />
<path d="M-19.5869 0.938971 A1.7 0.981495 60 0 1 -19.3853 0.285912" />
<path d="M-17.7184 3.17297 A1.7 0.981495 60 0 1 -19.5869 0.938971" />
</g>
</g>



</svg>

