<?xml version="1.0" encoding="UTF-8"?>

<svg xmlns="http://www.w3.org/2000/svg" version="1.1"
	width="297mm"
	height="210mm"
	viewBox="0 0 297 210">
	<!-- Working space 0 0 297 210 -->
	<defs>
		<radialGradient
			id="radialGradient3661"
			gradientUnits="userSpaceOnUse"
			cy="29.149"
			cx="282.65"
			gradientTransform="matrix(.14777 .23089 -.24680 .15795 -26.318 -62.617)"
			r="19.571">
				<stop stop-color="#71b2f8" offset="0"/>
				<stop stop-color="#002795" offset="1"/>
		</radialGradient>
		<radialGradient
			id="radialGradient3817"
			gradientUnits="userSpaceOnUse"
			cy="33.9"
			cx="270.58"
			gradientTransform="matrix(.26631 .065024 -.17931 .73438 -60.668 -36.938)"
			r="19.571">
				<stop stop-color="#ff6d0f" offset="0"/>
				<stop stop-color="#ff1000" offset="1"/>
		</radialGradient>
	</defs>
	<!-- Set display:none to hide FreeCAD Logo -->
	<g
		style="display:inline"
		id="freecad-logo"
		transform="translate(271, 185) scale(1)"
		fill-rule="evenodd"
		stroke-width=".45621">
		<path d="m0.22811 0.22835v13.256h2.9558v-5.1876h2.09v-2.0452h-2.09v-2.2075h5.1486v-3.8087l-8.1044-0.0075z"
			stroke="#370700"
			fill="url(#radialGradient3817)"/>
		<path d="m13.386 4.1792-1.7193 0.98645-0.75925-0.26348-0.72439-1.8513-1.1395 0.05988-0.51976 1.9144-0.72743 0.34835-1.8143-0.79367-0.76632 0.85156 0.98645 1.7193-0.26957 0.75702-1.8513 0.72439 0.065967 1.1417 1.9144 0.51976 0.34835 0.72743-0.79976 1.8121 0.85156 0.76632 1.7193-0.98645 0.76311 0.27179 0.7183 1.8491 1.1478-0.06375 0.51367-1.9166 0.72743-0.34835 1.8182 0.80198 0.76632-0.85156-0.98645-1.7193 0.2657-0.76533 1.8491-0.7183-0.05766-1.1456-1.9166-0.51367-0.34835-0.72743 0.7959-1.8204-0.85156-0.76632zm-2.5751 2.8195 0.35295 0.20478 0.30579 0.27725 0.24481 0.33087 0.17611 0.36787 0.10354 0.39656 0.01715 0.4064-0.0587 0.4063-0.13396 0.38571-0.2131 0.35681-0.26894 0.30192-0.33087 0.24481-0.36787 0.17611-0.39656 0.10354-0.40863 0.02325-0.4063-0.0587-0.38571-0.13396-0.35681-0.2131-0.2997-0.27503-0.24703-0.32478-0.17611-0.36787-0.10132-0.40264-0.02324-0.40863 0.05869-0.4063 0.13396-0.38571 0.21087-0.35072 0.27116-0.30801 0.33087-0.24481 0.36787-0.17611 0.40264-0.10132 0.40641-0.01715 0.4063 0.05869 0.38571 0.13396z" 
		stroke="#000137"
		fill="url(#radialGradient3661)"/>
	</g>
<g id="Ortho_0_0"
   transform="rotate(-90,88.1667,142.5) translate(88.1667,142.5) scale(1,1)"
  >
<g   stroke="rgb(0, 0, 0)"
   stroke-width="0.35"
   stroke-linecap="butt"
   stroke-linejoin="miter"
   fill="none"
   transform="scale(1,-1)"
  >
<path id= "1" d=" M 4.5 6.5 L 0 6.5 " />
<path id= "2" d=" M 4.5 -6.5 L 0 -6.5 " />
<path id= "3" d=" M -8 -2.5 L 0 -2.5 " />
<path id= "4" d=" M -8 2.5 L 0 2.5 " />
</g>
<g   stroke="rgb(0, 0, 0)"
   stroke-width="0.35"
   stroke-linecap="butt"
   stroke-linejoin="miter"
   fill="none"
   transform="scale(1,-1)"
  >
<path d="M0,0 L0,-0.727769  L0,-1.44639  L0,-2.14681  L0,-2.82024  L0,-3.45821  L0,-4.05268  L0,-4.59619  L0,-5.0819  L0,-5.50371  L0,-5.8563  L0,-6.13524  L0,-6.33703  L0,-6.45913  L0,-6.5 " /><path d="M0,6.5 L0,6.45913  L0,6.33703  L0,6.13524  L0,5.8563  L0,5.50371  L0,5.0819  L0,4.59619  L0,4.05268  L0,3.45821  L0,2.82024  L0,2.14681  L0,1.44639  L0,0.727769  L0,-2.15006e-14 " /><path d="M4.5,0 L4.5,-0.727769  L4.5,-1.44639  L4.5,-2.14681  L4.5,-2.82024  L4.5,-3.45821  L4.5,-4.05268  L4.5,-4.59619  L4.5,-5.0819  L4.5,-5.50371  L4.5,-5.8563  L4.5,-6.13524  L4.5,-6.33703  L4.5,-6.45913  L4.5,-6.5 " /><path d="M4.5,6.5 L4.5,6.45913  L4.5,6.33703  L4.5,6.13524  L4.5,5.8563  L4.5,5.50371  L4.5,5.0819  L4.5,4.59619  L4.5,4.05268  L4.5,3.45821  L4.5,2.82024  L4.5,2.14681  L4.5,1.44639  L4.5,0.727769  L4.5,-2.15006e-14 " /><path d="M-8,0 L-8,0.279911  L-8,0.556302  L-8,0.825698  L-8,1.08471  L-8,1.33008  L-8,1.55872  L-8,1.76777  L-8,1.95458  L-8,2.11681  L-8,2.25242  L-8,2.35971  L-8,2.43732  L-8,2.48428  L-8,2.5 " /><path d="M-8,-2.5 L-8,-2.48428  L-8,-2.43732  L-8,-2.35971  L-8,-2.25242  L-8,-2.11681  L-8,-1.95458  L-8,-1.76777  L-8,-1.55872  L-8,-1.33008  L-8,-1.08471  L-8,-0.825698  L-8,-0.556302  L-8,-0.279911  L-8,8.26946e-15 " /></g>
</g>



<g id="Ortho_0_1"
   transform="rotate(90,88.1667,60) translate(88.1667,60) scale(1,1)"
  >
<g   stroke="rgb(0, 0, 0)"
   stroke-width="0.35"
   stroke-linecap="butt"
   stroke-linejoin="miter"
   fill="none"
   transform="scale(1,-1)"
  >
<circle cx ="0" cy ="0" r ="6.5" /></g>
</g>



<g id="Ortho_1_0"
   transform="rotate(-90,208.833,142.5) translate(208.833,142.5) scale(1,1)"
  >
<g   stroke="rgb(0, 0, 0)"
   stroke-width="0.35"
   stroke-linecap="butt"
   stroke-linejoin="miter"
   fill="none"
   transform="scale(1,-1)"
  >
<path id= "1" d=" M 4.5 -6.5 L 0 -6.5 " />
<path id= "2" d=" M -8 -2.5 L 0 -2.5 " />
</g>
<g   stroke="rgb(0, 0, 0)"
   stroke-width="0.35"
   stroke-linecap="butt"
   stroke-linejoin="miter"
   fill="none"
   transform="scale(1,-1)"
  >
<path id= "1" d=" M 0 6.5 L 4.5 6.5 " />
<path d="M0,6.5 L0,6.33703  L0,5.8563  L0,5.0819  L0,4.05268  L0,2.82024  L0,1.44639  L0,3.9801e-16  L0,-1.44639  L0,-2.82024  L0,-4.05268  L0,-5.0819  L0,-5.8563  L0,-6.33703  L0,-6.5 " /><path d="M4.5,6.5 L4.5,6.33703  L4.5,5.8563  L4.5,5.0819  L4.5,4.05268  L4.5,2.82024  L4.5,1.44639  L4.5,3.9801e-16  L4.5,-1.44639  L4.5,-2.82024  L4.5,-4.05268  L4.5,-5.0819  L4.5,-5.8563  L4.5,-6.33703  L4.5,-6.5 " /><path id= "4" d=" M 0 2.5 L -8 2.5 " />
<path d="M-8,-2.5 L-8,-2.43732  L-8,-2.25242  L-8,-1.95458  L-8,-1.55872  L-8,-1.08471  L-8,-0.556302  L-8,3.98165e-15  L-8,0.556302  L-8,1.08471  L-8,1.55872  L-8,1.95458  L-8,2.25242  L-8,2.43732  L-8,2.5 " /></g>
</g>



</svg>

