<?xml version="1.0" encoding="UTF-8"?>

<svg xmlns="http://www.w3.org/2000/svg" version="1.1"
	width="210mm"
	height="297mm"
	viewBox="0 0 210 297">
	<!-- Working space 0 0 210 297 -->
	<defs>
		<radialGradient
			id="radialGradient3661"
			gradientUnits="userSpaceOnUse"
			cy="29.149"
			cx="282.65"
			gradientTransform="matrix(.14777 .23089 -.24680 .15795 -26.318 -62.617)"
			r="19.571">
				<stop stop-color="#71b2f8" offset="0"/>
				<stop stop-color="#002795" offset="1"/>
		</radialGradient>
		<radialGradient
			id="radialGradient3817"
			gradientUnits="userSpaceOnUse"
			cy="33.9"
			cx="270.58"
			gradientTransform="matrix(.26631 .065024 -.17931 .73438 -60.668 -36.938)"
			r="19.571">
				<stop stop-color="#ff6d0f" offset="0"/>
				<stop stop-color="#ff1000" offset="1"/>
		</radialGradient>
	</defs>
	<!-- Set display:none to hide FreeCAD Logo -->
	<g
		style="display:inline"
		id="freecad-logo"
		transform="translate(184, 272) scale(1)"
		fill-rule="evenodd"
		stroke-width=".45621">
		<path d="m0.22811 0.22835v13.256h2.9558v-5.1876h2.09v-2.0452h-2.09v-2.2075h5.1486v-3.8087l-8.1044-0.0075z"
			stroke="#370700"
			fill="url(#radialGradient3817)"/>
		<path d="m13.386 4.1792-1.7193 0.98645-0.75925-0.26348-0.72439-1.8513-1.1395 0.05988-0.51976 1.9144-0.72743 0.34835-1.8143-0.79367-0.76632 0.85156 0.98645 1.7193-0.26957 0.75702-1.8513 0.72439 0.065967 1.1417 1.9144 0.51976 0.34835 0.72743-0.79976 1.8121 0.85156 0.76632 1.7193-0.98645 0.76311 0.27179 0.7183 1.8491 1.1478-0.06375 0.51367-1.9166 0.72743-0.34835 1.8182 0.80198 0.76632-0.85156-0.98645-1.7193 0.2657-0.76533 1.8491-0.7183-0.05766-1.1456-1.9166-0.51367-0.34835-0.72743 0.7959-1.8204-0.85156-0.76632zm-2.5751 2.8195 0.35295 0.20478 0.30579 0.27725 0.24481 0.33087 0.17611 0.36787 0.10354 0.39656 0.01715 0.4064-0.0587 0.4063-0.13396 0.38571-0.2131 0.35681-0.26894 0.30192-0.33087 0.24481-0.36787 0.17611-0.39656 0.10354-0.40863 0.02325-0.4063-0.0587-0.38571-0.13396-0.35681-0.2131-0.2997-0.27503-0.24703-0.32478-0.17611-0.36787-0.10132-0.40264-0.02324-0.40863 0.05869-0.4063 0.13396-0.38571 0.21087-0.35072 0.27116-0.30801 0.33087-0.24481 0.36787-0.17611 0.40264-0.10132 0.40641-0.01715 0.4063 0.05869 0.38571 0.13396z" 
		stroke="#000137"
		fill="url(#radialGradient3661)"/>
	</g>
<g id="Ortho_0_0"
   transform="rotate(-90,50.05,236.825) translate(50.05,236.825) scale(0.2,0.2)"
  >
<g   stroke="rgb(0, 0, 0)"
   stroke-width="1.75"
   stroke-linecap="butt"
   stroke-linejoin="miter"
   fill="none"
   transform="scale(1,-1)"
  >
<path id= "1" d=" M 426 -1.57785e-12 L 8 0 " />
<path id= "2" d=" M 426 -1.57785e-12 L 434 -1.60805e-12 " />
<path d="M363,-1.34004e-12 L363.179,-1.34076e-12  L363.356,-1.34146e-12  L363.528,-1.34215e-12  L363.694,-1.34281e-12  L363.851,-1.34344e-12  L363.998,-1.34403e-12  L364.131,-1.34456e-12  L364.251,-1.34504e-12  L364.355,-1.34545e-12  L364.442,-1.3458e-12  L364.51,-1.34608e-12  L364.56,-1.34627e-12  L364.59,-1.34639e-12  L364.6,-1.34643e-12 " /><path d="M14,-2.26485e-14 L14.1791,-2.33248e-14  L14.356,-2.39925e-14  L14.5284,-2.46433e-14  L14.6942,-2.5269e-14  L14.8513,-2.58618e-14  L14.9976,-2.64142e-14  L15.1314,-2.69192e-14  L15.2509,-2.73705e-14  L15.3548,-2.77624e-14  L15.4416,-2.80901e-14  L15.5102,-2.83492e-14  L15.5599,-2.85367e-14  L15.5899,-2.86502e-14  L15.6,-2.86882e-14 " /><path d="M12.4,-1.66089e-14 L12.4101,-1.66469e-14  L12.4401,-1.67604e-14  L12.4898,-1.69479e-14  L12.5584,-1.7207e-14  L12.6452,-1.75347e-14  L12.7491,-1.79266e-14  L12.8686,-1.83779e-14  L13.0024,-1.88829e-14  L13.1487,-1.94353e-14  L13.3058,-2.00281e-14  L13.4716,-2.06538e-14  L13.644,-2.13046e-14  L13.8209,-2.19723e-14  L14,-2.26485e-14 " /><path d="M58,-1.88738e-13 L58.1791,-1.89434e-13  L58.356,-1.90121e-13  L58.5284,-1.90791e-13  L58.6942,-1.91435e-13  L58.8513,-1.92046e-13  L58.9976,-1.92614e-13  L59.1314,-1.93134e-13  L59.2509,-1.93599e-13  L59.3548,-1.94002e-13  L59.4416,-1.94339e-13  L59.5102,-1.94606e-13  L59.5599,-1.94799e-13  L59.5899,-1.94916e-13  L59.6,-1.94955e-13 " /><path d="M38,-1.13243e-13 L38.1791,-1.13939e-13  L38.356,-1.14626e-13  L38.5284,-1.15296e-13  L38.6942,-1.1594e-13  L38.8513,-1.16551e-13  L38.9976,-1.17119e-13  L39.1314,-1.17639e-13  L39.2509,-1.18104e-13  L39.3548,-1.18507e-13  L39.4416,-1.18844e-13  L39.5102,-1.19111e-13  L39.5599,-1.19304e-13  L39.5899,-1.19421e-13  L39.6,-1.1946e-13 " /><path id= "8" d=" M 63 -2.07612e-13 L 69 -2.3026e-13 " />
<path id= "9" d=" M 370 -1.41642e-12 L 388 -1.48637e-12 " />
<path id= "10" d=" M 388 -1.48637e-12 L 394 -1.50968e-12 " />
<path id= "11" d=" M 394 -1.50968e-12 L 412 -1.57963e-12 " />
<path id= "12" d=" M 412 -1.57963e-12 L 418 -1.60294e-12 " />
<path d="M379.5,-1.40254e-12 L379.735,-1.40346e-12  L379.967,-1.40436e-12  L380.194,-1.40524e-12  L380.411,-1.40609e-12  L380.617,-1.40689e-12  L380.809,-1.40763e-12  L380.985,-1.40831e-12  L381.142,-1.40892e-12  L381.278,-1.40945e-12  L381.392,-1.4099e-12  L381.482,-1.41025e-12  L381.547,-1.4105e-12  L381.587,-1.41065e-12  L381.6,-1.4107e-12 " /><path d="M377.4,-1.39438e-12 L377.413,-1.39444e-12  L377.453,-1.39459e-12  L377.518,-1.39484e-12  L377.608,-1.39519e-12  L377.722,-1.39564e-12  L377.858,-1.39616e-12  L378.015,-1.39677e-12  L378.191,-1.39746e-12  L378.383,-1.3982e-12  L378.589,-1.399e-12  L378.806,-1.39985e-12  L379.033,-1.40073e-12  L379.265,-1.40163e-12  L379.5,-1.40254e-12 " /><path d="M218,-8.02469e-13 L218.179,-8.03145e-13  L218.356,-8.03813e-13  L218.528,-8.04464e-13  L218.694,-8.0509e-13  L218.851,-8.05682e-13  L218.998,-8.06235e-13  L219.131,-8.0674e-13  L219.251,-8.07191e-13  L219.355,-8.07583e-13  L219.442,-8.07911e-13  L219.51,-8.0817e-13  L219.56,-8.08357e-13  L219.59,-8.08471e-13  L219.6,-8.08509e-13 " /><path d="M216.4,-7.9643e-13 L216.41,-7.96468e-13  L216.44,-7.96581e-13  L216.49,-7.96769e-13  L216.558,-7.97028e-13  L216.645,-7.97355e-13  L216.749,-7.97747e-13  L216.869,-7.98199e-13  L217.002,-7.98704e-13  L217.149,-7.99256e-13  L217.306,-7.99849e-13  L217.472,-8.00474e-13  L217.644,-8.01125e-13  L217.821,-8.01793e-13  L218,-8.02469e-13 " /><path d="M238,-8.77964e-13 L238.179,-8.78641e-13  L238.356,-8.79308e-13  L238.528,-8.79959e-13  L238.694,-8.80585e-13  L238.851,-8.81178e-13  L238.998,-8.8173e-13  L239.131,-8.82235e-13  L239.251,-8.82686e-13  L239.355,-8.83078e-13  L239.442,-8.83406e-13  L239.51,-8.83665e-13  L239.56,-8.83853e-13  L239.59,-8.83966e-13  L239.6,-8.84004e-13 " /><path d="M236.4,-8.71925e-13 L236.41,-8.71963e-13  L236.44,-8.72076e-13  L236.49,-8.72264e-13  L236.558,-8.72523e-13  L236.645,-8.7285e-13  L236.749,-8.73242e-13  L236.869,-8.73694e-13  L237.002,-8.74199e-13  L237.149,-8.74751e-13  L237.306,-8.75344e-13  L237.472,-8.7597e-13  L237.644,-8.7662e-13  L237.821,-8.77288e-13  L238,-8.77964e-13 " /><path id= "19" d=" M 426 -1.57785e-12 L 426 8 " />
<path id= "20" d=" M 8 0 L 8 8 " />
<path id= "21" d=" M 426 8 L 8 8 " />
<path id= "22" d=" M 434 -1.60805e-12 L 434 8 " />
<path id= "23" d=" M 426 8 L 434 8 " />
<path id= "24" d=" M 69 8 L 317 8 " />
<path d="M40.5,8 L40.7239,8  L40.945,8  L41.1606,8  L41.3678,8  L41.5641,8  L41.747,8  L41.9142,8  L42.0637,8  L42.1934,8  L42.3019,8  L42.3878,8  L42.4499,8  L42.4874,8  L42.5,8 " /><path d="M20.5,8 L20.5126,8  L20.5501,8  L20.6122,8  L20.6981,8  L20.8066,8  L20.9363,8  L21.0858,8  L21.253,8  L21.4359,8  L21.6322,8  L21.8394,8  L22.055,8  L22.2761,8  L22.5,8 " /><path id= "27" d=" M 22.5 8 L 40.5 8 " />
<path d="M430.353,8 Q430.353,8 429.94,8 " /><path d="M428.926,8 Q429.582,8 429.965,8 " /><path id= "30" d=" M 421.916 8 L 422.15 8 " />
<path d="M427.606,8 Q427.972,8 427.972,8 " /><path d="M426.588,8 Q427.239,8 427.606,8 " /><path id= "33" d=" M 426.907 8 L 427.606 8 " />
<path d="M427.972,8 Q427.972,8 427.682,8 " /><path d="M426.907,8 Q427.397,8 427.682,8 " /><path d="M425.77,8 Q426.417,8 426.907,8 " /><path d="M424.39,8 Q425.123,8 425.77,8 " /><path d="M423.04,8 Q423.683,8 424.39,8 " /><path d="M421.916,8 Q422.401,8 423.04,8 " /><path d="M421.149,8 Q421.43,8 421.916,8 " /><path d="M421.371,8 Q420.868,8 420.868,8 " /><path d="M422.405,8 Q422.661,8 423.078,8 " /><path d="M422.15,8 Q422.15,8 422.405,8 " /><path d="M427.802,8 Q428.236,8 428.491,8 " /><path d="M428.491,8 Q428.747,8 428.747,8 " /><path d="M425.003,8 Q425.774,8 426.239,8 " /><path d="M426.239,8 Q426.703,8 426.703,8 " /></g>
</g>



<g id="Ortho_0_1"
   transform="rotate(90,50.05,56.375) translate(50.05,56.375) scale(0.2,0.2)"
  >
<g   stroke="rgb(0, 0, 0)"
   stroke-width="1.75"
   stroke-linecap="butt"
   stroke-linejoin="miter"
   fill="none"
   transform="scale(1,-1)"
  >
<path id= "1" d=" M 85 1.57785e-12 L 77 1.60805e-12 " />
<path id= "2" d=" M -77 1.60805e-12 L 77 1.60805e-12 " />
<path id= "3" d=" M -85 1.57785e-12 L -77 1.60805e-12 " />
<path id= "4" d=" M -29 2.07612e-13 L -35 2.3026e-13 " />
<path id= "5" d=" M 1 1.41642e-12 L -3 1.48637e-12 " />
<path id= "6" d=" M -48 1.48637e-12 L -54 1.50968e-12 " />
<path id= "7" d=" M 85 1.57785e-12 L 85 -8 " />
<path id= "8" d=" M 77 1.60805e-12 L 77 -8 " />
<path id= "9" d=" M 85 -8 L 77 -8 " />
<path id= "10" d=" M -77 1.60805e-12 L -77 -8 " />
<path id= "11" d=" M -77 -8 L 77 -8 " />
<path id= "12" d=" M -85 1.57785e-12 L -85 -8 " />
<path id= "13" d=" M -85 -8 L -77 -8 " />
<path d="M61.6,-8 L61.5599,-8  L61.4416,-8  L61.2509,-8  L60.9976,-8  L60.6942,-8  L60.356,-8  L60,-8  L59.644,-8  L59.3058,-8  L59.0024,-8  L58.7491,-8  L58.5584,-8  L58.4401,-8  L58.4,-8 " /><path d="M59.6,-8 L59.5599,-8  L59.4416,-8  L59.2509,-8  L58.9976,-8  L58.6942,-8  L58.356,-8  L58,-8  L57.644,-8  L57.3058,-8  L57.0024,-8  L56.7491,-8  L56.5584,-8  L56.4401,-8  L56.4,-8 " /><path d="M27.5877,-8 L27.4657,-8  L27.347,-8  L27.2325,-8  L27.1229,-8  L27.0189,-8  L26.9212,-8  L26.8303,-8  L26.7469,-8  L26.6715,-8  L26.6046,-8  L26.5466,-8  L26.4978,-8  L26.4586,-8  L26.4293,-8 " /><path id= "17" d=" M 35 -8 L 33.9591 -8 " />
<path id= "18" d=" M 27.5877 -8 L 26.4293 -8 " />
<path id= "19" d=" M 17.362 -8 L 13.3032 -8 " />
<path id= "20" d=" M 6.10562 -8 L 4.90034 -8 " />
<path id= "21" d=" M -5.75128 -8 L -7.28876 -8 " />
<path id= "22" d=" M -9.04344 -8 L -10.1593 -8 " />
<path id= "23" d=" M -14.2436 -8 L -15.3765 -8 " />
<path id= "24" d=" M -22.2717 -8 L -27.6508 -8 " />
<path d="M14,-8 L13.9492,-8  L13.8984,-8  L13.8476,-8  L13.797,-8  L13.7465,-8  L13.6962,-8  L13.646,-8  L13.5961,-8  L13.5465,-8  L13.4971,-8  L13.4481,-8  L13.3994,-8  L13.3511,-8  L13.3032,-8 " /><path id= "26" d=" M 17.362 -8 L 14 -8 " />
<path d="M-58.4,-8 L-58.4401,-8  L-58.5584,-8  L-58.7491,-8  L-59.0024,-8  L-59.3058,-8  L-59.644,-8  L-60,-8  L-60.356,-8  L-60.6942,-8  L-60.9976,-8  L-61.2509,-8  L-61.4416,-8  L-61.5599,-8  L-61.6,-8 " /><path d="M-26.4,-8 L-26.4074,-8  L-26.4297,-8  L-26.4666,-8  L-26.5177,-8  L-26.5826,-8  L-26.6607,-8  L-26.7512,-8  L-26.8534,-8  L-26.9663,-8  L-27.0887,-8  L-27.2196,-8  L-27.3578,-8  L-27.502,-8  L-27.6508,-8 " /><path d="M-56.4,-8 L-56.4401,-8  L-56.5584,-8  L-56.7491,-8  L-57.0024,-8  L-57.3058,-8  L-57.644,-8  L-58,-8  L-58.356,-8  L-58.6942,-8  L-58.9976,-8  L-59.2509,-8  L-59.4416,-8  L-59.5599,-8  L-59.6,-8 " /><path d="M-5.75128,-8 L-5.85438,-8  L-5.95977,-8  L-6.06714,-8  L-6.1762,-8  L-6.28662,-8  L-6.39808,-8  L-6.51027,-8  L-6.62287,-8  L-6.73554,-8  L-6.84796,-8  L-6.95982,-8  L-7.07078,-8  L-7.18053,-8  L-7.28876,-8 " /><path id= "31" d=" M 15 -8 L 13.3032 -8 " />
<path id= "32" d=" M 6.10562 -8 L 4.90034 -8 " />
<path id= "33" d=" M -5.75128 -8 L -7.28876 -8 " />
<path id= "34" d=" M -9.04344 -8 L -10.1593 -8 " />
<path id= "35" d=" M -14.2436 -8 L -15.3765 -8 " />
<path id= "36" d=" M -22.2717 -8 L -27.6508 -8 " />
<path id= "37" d=" M -37.0332 -8 L -48 -8 " />
<path id= "38" d=" M 17.362 -8 L 15 -8 " />
<path id= "39" d=" M -48 -8 L -54 -8 " />
<path id= "40" d=" M 48 -8 L 42.2811 -8 " />
<path id= "41" d=" M 35.0835 -8 L 33.9591 -8 " />
<path id= "42" d=" M 27.5877 -8 L 26.4293 -8 " />
<path id= "43" d=" M 54 -8 L 48 -8 " />
<path d="M-71.4,-8 L-71.4401,-8  L-71.5584,-8  L-71.7491,-8  L-72.0024,-8  L-72.3058,-8  L-72.644,-8  L-73,-8  L-73.356,-8  L-73.6942,-8  L-73.9976,-8  L-74.2509,-8  L-74.4416,-8  L-74.5599,-8  L-74.6,-8 " /><path d="M17.362,-8 Q17.362,-8 17.707,-8 " /><path d="M18.6099,-8 Q18.0179,-8 17.6899,-8 " /><path d="M20.0366,-8 Q19.2061,-8 18.6099,-8 " /><path d="M21.8893,-8 Q20.8714,-8 20.0366,-8 " /><path d="M23.7078,-8 Q22.8731,-8 21.8893,-8 " /><path d="M25.1474,-8 Q24.5468,-8 23.7078,-8 " /><path d="M26.0886,-8 Q25.7479,-8 25.1474,-8 " /><path d="M26.4293,-8 Q26.4293,-8 26.0886,-8 " /><path d="M26.1014,-8 Q26.4293,-8 26.4293,-8 " /><path d="M29.632,-8 Q29.4361,-8 29.3424,-8 " /><path d="M30.0664,-8 Q29.8279,-8 29.632,-8 " /><path d="M30.5818,-8 Q30.3092,-8 30.0664,-8 " /><path d="M31.1227,-8 Q30.8586,-8 30.5818,-8 " /><path d="M31.9191,-8 Q31.6337,-8 31.1227,-8 " /><path d="M32.2087,-8 Q32.2087,-8 31.9191,-8 " /><path id= "60" d=" M 33.9591 -8 L 32.2087 -8 " />
<path d="M33.8739,-8 Q33.9591,-8 33.9591,-8 " /><path id= "62" d=" M 29.3424 -8 L 27.5877 -8 " />
<path id= "63" d=" M -7.28876 -8 L -9.04344 -8 " />
<path id= "64" d=" M -7.28876 -8 L -9.04344 -8 " />
<path id= "65" d=" M -3.99659 -8 L -5.75128 -8 " />
<path d="M-3.33646,-8 Q-3.80068,-8 -3.99659,-8 " /><path d="M-2.36116,-8 Q-2.87223,-8 -3.33646,-8 " /><path d="M-1.58177,-8 Q-1.86286,-8 -2.36116,-8 " /><path d="M-1.30068,-8 Q-1.30068,-8 -1.58177,-8 " /><path id= "70" d=" M 0.454003 -8 L -1.30068 -8 " />
<path d="M1.10562,-8 Q0.649915,-8 0.454003,-8 " /><path d="M2.08944,-8 Q1.56559,-8 1.10562,-8 " /><path d="M2.86457,-8 Q2.58348,-8 2.08944,-8 " /><path d="M3.14566,-8 Q3.14566,-8 2.86457,-8 " /><path id= "75" d=" M 4.90034 -8 L 3.14566 -8 " />
<path d="M4.81516,-8 Q4.90034,-8 4.90034,-8 " /><path d="M12.9072,-8 Q12.5281,-8 11.6976,-8 " /><path id= "78" d=" M 13.0605 -8 L 11.4974 -8 " />
<path d="M13.0605,-8 Q13.3032,-8 13.3032,-8 " /><path d="M6.10562,-8 Q6.10562,-8 6.35264,-8 " /><path d="M6.36116,-8 Q6.10562,-8 6.10562,-8 " /><path d="M7.08518,-8 Q6.6167,-8 6.36116,-8 " /><path d="M8.22232,-8 Q7.55792,-8 7.08518,-8 " /><path d="M9.71721,-8 Q8.89097,-8 8.22232,-8 " /><path d="M11.6976,-8 Q10.8671,-8 9.71721,-8 " /><path d="M-15.598,-8 Q-15.3765,-8 -15.3765,-8 " /><path id= "87" d=" M -20.4659 -8 L -22.2717 -8 " />
<path id= "88" d=" M -18.2683 -8 L -20.4659 -8 " />
<path d="M-17.0886,-8 Q-17.6252,-8 -18.2683,-8 " /><path d="M-16.1729,-8 Q-16.552,-8 -17.0886,-8 " /><path d="M-15.5852,-8 Q-15.7939,-8 -16.1729,-8 " /><path d="M-15.3765,-8 Q-15.3765,-8 -15.5852,-8 " /><path d="M-11.586,-8 Q-12.2121,-8 -12.4889,-8 " /><path d="M-10.1593,-8 Q-10.96,-8 -11.586,-8 " /><path id= "95" d=" M -12.4889 -8 L -14.2436 -8 " />
<path id= "96" d=" M -32.8339 -8 L -35.2274 -8 " />
<path id= "97" d=" M -31.8501 -8 L -32.8339 -8 " />
<path id= "98" d=" M -29.4566 -8 L -31.8501 -8 " />
<path id= "99" d=" M -27.6508 -8 L -29.4566 -8 " />
<path id= "100" d=" M -35.2274 -8 L -37.0332 -8 " />
<path d="M42.0383,-8 Q42.2811,-8 42.2811,-8 " /><path d="M35.0835,-8 Q35.0835,-8 35.3305,-8 " /><path d="M35.339,-8 Q35.0835,-8 35.0835,-8 " /><path d="M36.063,-8 Q35.5945,-8 35.339,-8 " /><path d="M37.2002,-8 Q36.5358,-8 36.063,-8 " /><path d="M38.6951,-8 Q37.8688,-8 37.2002,-8 " /><path d="M40.6755,-8 Q39.845,-8 38.6951,-8 " /><path d="M41.885,-8 Q41.506,-8 40.6755,-8 " /><path id= "109" d=" M 42.0383 -8 L 40.4753 -8 " />
<path d="M24.6107,-8 Q24.6107,-8 24.4191,-8 " /><path d="M24.4191,-8 Q24.2317,-8 23.8825,-8 " /><path d="M23.8825,-8 Q23.5375,-8 23.0349,-8 " /><path d="M23.0349,-8 Q22.5324,-8 21.902,-8 " /><path d="M21.902,-8 Q21.2504,-8 20.7394,-8 " /><path d="M20.7394,-8 Q20.2283,-8 19.8876,-8 " /><path d="M19.8876,-8 Q19.5468,-8 19.368,-8 " /><path d="M19.368,-8 Q19.1934,-8 19.1934,-8 " /><path d="M11.4974,-8 Q11.4293,-8 10.9267,-8 " /><path d="M10.9267,-8 Q10.4242,-8 9.70443,-8 " /><path d="M9.70443,-8 Q9.35094,-8 9.04003,-8 " /><path d="M9.04003,-8 Q8.73339,-8 8.49915,-8 " /><path d="M8.49915,-8 Q8.26491,-8 8.11158,-8 " /><path d="M8.11158,-8 Q7.96252,-8 7.93697,-8 " /><path d="M-17.54,-8 Q-17.2078,-8 -17.2078,-8 " /><path d="M-17.2078,-8 Q-17.2078,-8 -17.3143,-8 " /><path d="M-17.3143,-8 Q-17.4165,-8 -17.5869,-8 " /><path d="M-17.5869,-8 Q-17.7572,-8 -17.9872,-8 " /><path d="M-17.9872,-8 Q-18.2129,-8 -18.4514,-8 " /><path id= "129" d=" M -18.4514 -8 L -20.4659 -8 " />
<path d="M40.4753,-8 Q40.4072,-8 39.9046,-8 " /><path d="M39.9046,-8 Q39.402,-8 38.6823,-8 " /><path d="M38.6823,-8 Q38.3288,-8 38.0179,-8 " /><path d="M38.0179,-8 Q37.7112,-8 37.477,-8 " /><path d="M37.477,-8 Q37.2428,-8 37.0894,-8 " /><path d="M37.0894,-8 Q36.9404,-8 36.9148,-8 " /></g>
</g>



<g id="Ortho_1_0"
   transform="rotate(-90,130.375,236.825) translate(130.375,236.825) scale(0.2,0.2)"
  >
<g   stroke="rgb(0, 0, 0)"
   stroke-width="1.75"
   stroke-linecap="butt"
   stroke-linejoin="miter"
   fill="none"
   transform="scale(1,-1)"
  >
<path id= "1" d=" M 426 85 L 8 85 " />
<path id= "2" d=" M 426 85 L 434 77 " />
<path id= "3" d=" M 8 85 L 8 -85 " />
<path id= "4" d=" M 434 -77 L 434 77 " />
<path id= "5" d=" M 8 -85 L 426 -85 " />
<path id= "6" d=" M 426 -85 L 434 -77 " />
<circle cx ="363" cy ="60" r ="1.6" /><circle cx ="14" cy ="60" r ="1.6" /><circle cx ="58" cy ="58" r ="1.6" /><circle cx ="58" cy ="31.5" r ="1.6" /><circle cx ="38" cy ="31.5" r ="1.6" /><circle cx ="363" cy ="28" r ="1.6" /><path id= "13" d=" M 323 -29 L 323 29 " />
<path id= "14" d=" M 323 -29 L 317 -35 " />
<path id= "15" d=" M 323 29 L 317 35 " />
<path id= "16" d=" M 69 -35 L 317 -35 " />
<path id= "17" d=" M 317 35 L 69 35 " />
<path id= "18" d=" M 63 -29 L 69 -35 " />
<path id= "19" d=" M 69 35 L 63 29 " />
<path id= "20" d=" M 63 29 L 63 -29 " />
<circle cx ="14" cy ="28" r ="1.6" /><path d="M40.5 22 A2 2 0 0 0 42.5 20" /><path id= "23" d=" M 40.5 22 L 22.5 22 " />
<path id= "24" d=" M 42.5 14 L 42.5 20 " />
<path d="M20.5 20 A2 2 0 0 0 22.5 22" /><path d="M42.5 14 A2 2 0 0 0 40.5 12" /><path id= "27" d=" M 20.5 20 L 20.5 14 " />
<path id= "28" d=" M 22.5 12 L 40.5 12 " />
<path d="M22.5 12 A2 2 0 0 0 20.5 14" /><circle cx ="363" cy ="-60" r ="1.6" /><circle cx ="363" cy ="-28" r ="1.6" /><circle cx ="14" cy ="-28" r ="1.6" /><circle cx ="58" cy ="-31.5" r ="1.6" /><circle cx ="38" cy ="-31.5" r ="1.6" /><circle cx ="58" cy ="-58" r ="1.6" /><circle cx ="14" cy ="-60" r ="1.6" /><circle cx ="379.5" cy ="-6.65" r ="2.1" /><path id= "38" d=" M 370 1 L 388 -3 " />
<path id= "39" d=" M 370 15 L 370 1 " />
<path id= "40" d=" M 388 -3 L 388 -48 " />
<path id= "41" d=" M 388 19 L 370 15 " />
<path id= "42" d=" M 388 -48 L 394 -54 " />
<path id= "43" d=" M 388 48 L 388 19 " />
<path id= "44" d=" M 394 -54 L 412 -54 " />
<path id= "45" d=" M 394 54 L 388 48 " />
<path id= "46" d=" M 412 -54 L 418 -48 " />
<path id= "47" d=" M 412 54 L 394 54 " />
<path id= "48" d=" M 418 -48 L 418 48 " />
<path id= "49" d=" M 418 48 L 412 54 " />
<circle cx ="379.5" cy ="22.65" r ="2.1" /><circle cx ="218" cy ="-73" r ="1.6" /><circle cx ="238" cy ="-73" r ="1.6" /></g>
</g>



</svg>

