<?xml version="1.0" encoding="UTF-8"?>

<svg xmlns="http://www.w3.org/2000/svg" version="1.1"
	width="210mm"
	height="297mm"
	viewBox="0 0 210 297">
	<!-- Working space 0 0 210 297 -->
	<defs>
		<radialGradient
			id="radialGradient3661"
			gradientUnits="userSpaceOnUse"
			cy="29.149"
			cx="282.65"
			gradientTransform="matrix(.14777 .23089 -.24680 .15795 -26.318 -62.617)"
			r="19.571">
				<stop stop-color="#71b2f8" offset="0"/>
				<stop stop-color="#002795" offset="1"/>
		</radialGradient>
		<radialGradient
			id="radialGradient3817"
			gradientUnits="userSpaceOnUse"
			cy="33.9"
			cx="270.58"
			gradientTransform="matrix(.26631 .065024 -.17931 .73438 -60.668 -36.938)"
			r="19.571">
				<stop stop-color="#ff6d0f" offset="0"/>
				<stop stop-color="#ff1000" offset="1"/>
		</radialGradient>
	</defs>
	<!-- Set display:none to hide FreeCAD Logo -->
	<g
		style="display:inline"
		id="freecad-logo"
		transform="translate(184, 272) scale(1)"
		fill-rule="evenodd"
		stroke-width=".45621">
		<path d="m0.22811 0.22835v13.256h2.9558v-5.1876h2.09v-2.0452h-2.09v-2.2075h5.1486v-3.8087l-8.1044-0.0075z"
			stroke="#370700"
			fill="url(#radialGradient3817)"/>
		<path d="m13.386 4.1792-1.7193 0.98645-0.75925-0.26348-0.72439-1.8513-1.1395 0.05988-0.51976 1.9144-0.72743 0.34835-1.8143-0.79367-0.76632 0.85156 0.98645 1.7193-0.26957 0.75702-1.8513 0.72439 0.065967 1.1417 1.9144 0.51976 0.34835 0.72743-0.79976 1.8121 0.85156 0.76632 1.7193-0.98645 0.76311 0.27179 0.7183 1.8491 1.1478-0.06375 0.51367-1.9166 0.72743-0.34835 1.8182 0.80198 0.76632-0.85156-0.98645-1.7193 0.2657-0.76533 1.8491-0.7183-0.05766-1.1456-1.9166-0.51367-0.34835-0.72743 0.7959-1.8204-0.85156-0.76632zm-2.5751 2.8195 0.35295 0.20478 0.30579 0.27725 0.24481 0.33087 0.17611 0.36787 0.10354 0.39656 0.01715 0.4064-0.0587 0.4063-0.13396 0.38571-0.2131 0.35681-0.26894 0.30192-0.33087 0.24481-0.36787 0.17611-0.39656 0.10354-0.40863 0.02325-0.4063-0.0587-0.38571-0.13396-0.35681-0.2131-0.2997-0.27503-0.24703-0.32478-0.17611-0.36787-0.10132-0.40264-0.02324-0.40863 0.05869-0.4063 0.13396-0.38571 0.21087-0.35072 0.27116-0.30801 0.33087-0.24481 0.36787-0.17611 0.40264-0.10132 0.40641-0.01715 0.4063 0.05869 0.38571 0.13396z" 
		stroke="#000137"
		fill="url(#radialGradient3661)"/>
	</g>
<g id="View"
   transform="rotate(60,105.566,183.936) translate(105.566,183.936) scale(0.2,0.2)"
  >
<g   stroke="rgb(0, 0, 0)"
   stroke-width="1.75"
   stroke-linecap="butt"
   stroke-linejoin="miter"
   fill="none"
   transform="scale(1,-1)"
  >
<path d="M-280.004,179.517 L-280.004,179.68 " /><path d="M-303.621,165.938 L-303.621,166.101 " /><path d="M-300.471,167.768 L-300.471,167.931 " /><path d="M-291.003,170.569 L-291.003,170.732 " /><path d="M-309.562,162.282 L-309.562,162.445 " /><path d="M-270.513,182.399 L-270.513,182.562 " /><path d="M-282.54,175.936 L-282.54,176.099 " /><path d="M-288.438,176.407 L-288.438,176.57 " /><path d="M-295.384,170.92 L-295.384,171.083 " /><path d="M-313.696,160.188 L-313.696,160.351 " /><path d="M-274.894,182.75 L-274.894,182.913 " /></g>
<g   stroke="rgb(0, 0, 0)"
   stroke-width="1.75"
   stroke-linecap="butt"
   stroke-linejoin="miter"
   fill="none"
   transform="scale(1,-1)"
  >
<path id= "1" d=" M -241.123 208.615 L 54.4472 37.9671 " />
<path id= "2" d=" M -241.123 208.615 L -252.437 208.615 " />
<path id= "3" d=" M -361.332 145.745 L -252.437 208.615 " />
<path id= "4" d=" M -73.5391 13.8804 L -247.487 114.31 " />
<path id= "5" d=" M -65.0538 13.8804 L -73.5391 13.8804 " />
<path id= "6" d=" M -25.4558 36.7423 L -65.0538 13.8804 " />
<path id= "7" d=" M -7.42462 14.0846 L -15.9099 18.9835 " />
<path d="M-7.42462 14.0846 A2 1.1547 180 0 1 -4.59619 14.0846" />
<path id= "9" d=" M -260.922 151.46 L -276.479 157.176 " />
<path id= "10" d=" M -255.423 154.635 L -260.922 151.46 " />
<path id= "11" d=" M -276.479 157.176 L -308.299 138.804 " />
<path id= "12" d=" M -308.299 138.804 L -316.784 138.804 " />
<path id= "13" d=" M -241.831 177.18 L -260.922 166.157 " />
<path id= "14" d=" M -316.784 138.804 L -328.098 145.336 " />
<path id= "15" d=" M -241.123 208.615 L -241.123 202.083 " />
<path id= "16" d=" M 54.4472 37.9671 L 54.4472 31.4351 " />
<path id= "17" d=" M -241.123 202.083 L 54.4472 31.4351 " />
<path id= "18" d=" M -252.437 208.615 L -252.437 202.083 " />
<path id= "19" d=" M -241.123 202.083 L -252.437 202.083 " />
<path id= "20" d=" M 54.4472 31.4351 L -65.7609 -37.9671 " />
<path id= "21" d=" M -361.332 145.745 L -361.332 139.213 " />
<path id= "22" d=" M -361.332 139.213 L -252.437 202.083 " />
<path id= "23" d=" M -65.7609 -37.9671 L -361.332 132.681 " />
<path id= "24" d=" M -361.332 132.681 L -361.332 139.213 " />
<path d="M-213.122 166.81 A1.6 0.92376 180 0 1 -215.853 166.157" />
<path d="M-215.853 166.157 A1.6 0.92376 180 0 1 -212.653 166.157" />
<path d="M-212.653 166.157 A1.6 0.92376 180 0 1 -213.122 166.81" />
<path d="M33.6583 24.3316 A1.6 0.92376 180 0 1 30.9269 23.6784" />
<path d="M30.9269 23.6784 A1.6 0.92376 180 0 1 34.1269 23.6784" />
<path d="M34.1269 23.6784 A1.6 0.92376 180 0 1 33.6583 24.3316" />
<path d="M1.13137 41.478 A1.6 0.92376 180 0 1 -1.6 40.8248" />
<path d="M-1.6 40.8248 A1.6 0.92376 180 0 1 1.6 40.8248" />
<path d="M1.6 40.8248 A1.6 0.92376 180 0 1 1.13137 41.478" />
<path d="M-17.607 30.6594 A1.6 0.92376 180 0 1 -20.3383 30.0062" />
<path d="M-20.3383 30.0062 A1.6 0.92376 180 0 1 -17.1383 30.0062" />
<path d="M-17.1383 30.0062 A1.6 0.92376 180 0 1 -17.607 30.6594" />
<path d="M-3.46482 22.4945 A1.6 0.92376 180 0 1 -6.19619 21.8413" />
<path d="M-6.19619 21.8413 A1.6 0.92376 180 0 1 -2.99619 21.8413" />
<path d="M-2.99619 21.8413 A1.6 0.92376 180 0 1 -3.46482 22.4945" />
<path d="M-235.749 153.746 A1.6 0.92376 180 0 1 -238.481 153.093" />
<path d="M-238.481 153.093 A1.6 0.92376 180 0 1 -235.281 153.093" />
<path d="M-235.281 153.093 A1.6 0.92376 180 0 1 -235.749 153.746" />
<path id= "43" d=" M -248.902 113.493 L -207.889 137.171 " />
<path id= "44" d=" M -248.902 113.493 L -248.902 108.594 " />
<path id= "45" d=" M -248.902 113.493 L -248.902 108.594 " />
<path id= "46" d=" M -207.889 137.171 L -199.404 137.171 " />
<path id= "47" d=" M -73.5391 13.8804 L -73.5391 7.34847 " />
<path id= "48" d=" M -73.5391 7.34847 L -248.902 108.594 " />
<path id= "49" d=" M -199.404 137.171 L -24.0416 35.9258 " />
<path id= "50" d=" M -65.0538 13.8804 L -65.0538 7.34847 " />
<path id= "51" d=" M -65.0538 7.34847 L -73.5391 7.34847 " />
<path id= "52" d=" M -24.0416 35.9258 L -24.0416 31.0269 " />
<path id= "53" d=" M -24.0416 35.9258 L -24.0416 31.0269 " />
<path id= "54" d=" M -24.0416 31.0269 L -65.0538 7.34847 " />
<path d="M11.0309 11.2677 A1.6 0.92376 180 0 1 8.29949 10.6145" />
<path d="M8.29949 10.6145 A1.6 0.92376 180 0 1 11.4995 10.6145" />
<path d="M11.4995 10.6145 A1.6 0.92376 180 0 1 11.0309 11.2677" />
<path d="M-13.0815 18.9835 A2 1.1547 180 0 1 -15.9099 18.9835" />
<path id= "59" d=" M -13.0815 18.9835 L -0.353553 11.6351 " />
<path id= "60" d=" M -20.1525 16.5341 L -15.9099 18.9835 " />
<path d="M-0.353553 10.0021 A2 1.1547 180 0 1 0.232233 10.8186" />
<path d="M0.232233 10.8186 A2 1.1547 180 0 1 -0.353553 11.6351" />
<path d="M-20.1525 16.5341 A2 1.1547 180 0 1 -20.7383 15.7176" />
<path d="M-20.7383 15.7176 A2 1.1547 180 0 1 -20.1525 14.9011" />
<path id= "65" d=" M -0.353553 10.0021 L -4.59619 7.55259 " />
<path id= "66" d=" M -7.42462 7.55259 L -20.1525 14.9011 " />
<path d="M-7.42462 7.55259 A2 1.1547 180 0 1 -4.59619 7.55259" />
<path d="M-297.975 117.82 A1.6 0.92376 180 0 1 -300.706 117.167" />
<path d="M-300.706 117.167 A1.6 0.92376 180 0 1 -297.506 117.167" />
<path d="M-297.506 117.167 A1.6 0.92376 180 0 1 -297.975 117.82" />
<path d="M-275.347 130.884 A1.6 0.92376 180 0 1 -278.079 130.231" />
<path d="M-278.079 130.231 A1.6 0.92376 180 0 1 -274.879 130.231" />
<path d="M-274.879 130.231 A1.6 0.92376 180 0 1 -275.347 130.884" />
<path d="M-28.5671 -11.5943 A1.6 0.92376 180 0 1 -31.2985 -12.2474" />
<path d="M-31.2985 -12.2474 A1.6 0.92376 180 0 1 -28.0985 -12.2474" />
<path d="M-28.0985 -12.2474 A1.6 0.92376 180 0 1 -28.5671 -11.5943" />
<path d="M-62.1547 4.9398 A1.6 0.92376 180 0 1 -64.8861 4.28661" />
<path d="M-64.8861 4.28661 A1.6 0.92376 180 0 1 -61.6861 4.28661" />
<path d="M-61.6861 4.28661 A1.6 0.92376 180 0 1 -62.1547 4.9398" />
<path d="M-48.0126 -3.22516 A1.6 0.92376 180 0 1 -50.7439 -3.87836" />
<path d="M-50.7439 -3.87836 A1.6 0.92376 180 0 1 -47.5439 -3.87836" />
<path d="M-47.5439 -3.87836 A1.6 0.92376 180 0 1 -48.0126 -3.22516" />
<path d="M-80.893 -5.87878 A1.6 0.92376 180 0 1 -83.6244 -6.53197" />
<path d="M-83.6244 -6.53197 A1.6 0.92376 180 0 1 -80.4244 -6.53197" />
<path d="M-80.4244 -6.53197 A1.6 0.92376 180 0 1 -80.893 -5.87878" />
<path d="M-51.1945 -24.6582 A1.6 0.92376 180 0 1 -53.9259 -25.3114" />
<path d="M-53.9259 -25.3114 A1.6 0.92376 180 0 1 -50.7259 -25.3114" />
<path d="M-50.7259 -25.3114 A1.6 0.92376 180 0 1 -51.1945 -24.6582" />
<path d="M-271.564 146.541 A2.1 1.21244 180 0 1 -275.149 145.683" />
<path d="M-275.149 145.683 A2.1 1.21244 180 0 1 -270.949 145.683" />
<path d="M-270.949 145.683 A2.1 1.21244 180 0 1 -271.564 146.541" />
<path id= "92" d=" M -260.922 144.928 L -260.922 151.46 " />
<path id= "93" d=" M -260.922 144.928 L -276.479 150.644 " />
<path id= "94" d=" M -276.479 150.644 L -276.479 157.176 " />
<path id= "95" d=" M -251.023 150.644 L -260.922 144.928 " />
<path id= "96" d=" M -276.479 150.644 L -308.299 132.272 " />
<path id= "97" d=" M -308.299 132.272 L -308.299 138.804 " />
<path id= "98" d=" M -260.922 159.625 L -260.922 166.157 " />
<path id= "99" d=" M -260.922 159.625 L -251.023 150.644 " />
<path id= "100" d=" M -308.299 132.272 L -316.784 132.272 " />
<path id= "101" d=" M -316.784 132.272 L -316.784 138.804 " />
<path id= "102" d=" M -240.416 171.464 L -240.416 176.363 " />
<path id= "103" d=" M -240.416 171.464 L -260.922 159.625 " />
<path id= "104" d=" M -316.784 132.272 L -329.512 139.621 " />
<path id= "105" d=" M -329.512 139.621 L -329.512 144.52 " />
<path id= "106" d=" M -240.416 176.363 L -240.416 171.464 " />
<path id= "107" d=" M -329.512 139.621 L -329.512 144.52 " />
<path id= "108" d=" M -253.144 183.712 L -240.416 176.363 " />
<path id= "109" d=" M -329.512 144.52 L -261.63 183.712 " />
<path id= "110" d=" M -261.63 183.712 L -253.144 183.712 " />
<path d="M-250.846 158.502 A2.1 1.21244 180 0 1 -254.431 157.645" />
<path d="M-254.431 157.645 A2.1 1.21244 180 0 1 -250.231 157.645" />
<path d="M-250.231 157.645 A2.1 1.21244 180 0 1 -250.846 158.502" />
<path d="M-204.637 53.3172 A1.6 0.92376 180 0 1 -207.368 52.664" />
<path d="M-207.368 52.664 A1.6 0.92376 180 0 1 -204.168 52.664" />
<path d="M-204.168 52.664 A1.6 0.92376 180 0 1 -204.637 53.3172" />
<path d="M-218.779 61.4822 A1.6 0.92376 180 0 1 -221.51 60.829" />
<path d="M-221.51 60.829 A1.6 0.92376 180 0 1 -218.31 60.829" />
<path d="M-218.31 60.829 A1.6 0.92376 180 0 1 -218.779 61.4822" />
<path d="M-287.207,178.693 Q-286.331,178.865 -285.442,178.832 " /><path d="M-288.8,178.111 Q-288.086,178.523 -287.207,178.693 " /><path d="M-289.812,177.21 Q-289.493,177.711 -288.8,178.111 " /><path d="M-290.098,176.196 Q-290.131,176.713 -289.812,177.21 " /><path d="M-290.098,176.196 Q-290.131,176.713 -289.812,177.21 " /><path d="M-289.713,175.191 Q-290.068,175.682 -290.098,176.196 " /><path d="M-288.701,174.325 Q-289.357,174.705 -289.713,175.191 " /><path d="M-287.237,173.748 Q-288.071,173.962 -288.701,174.325 " /><path d="M-285.518,173.507 Q-286.403,173.534 -287.237,173.748 " /><path d="M-283.759,173.656 Q-284.629,173.48 -285.518,173.507 " /><path d="M-282.169,174.251 Q-282.888,173.835 -283.759,173.656 " /><path d="M-281.154,175.15 Q-281.473,174.652 -282.169,174.251 " /><path d="M-280.868,176.16 Q-280.835,175.65 -281.154,175.15 " /><path d="M-280.868,176.16 Q-280.835,175.65 -281.154,175.15 " /><path d="M-281.256,177.153 Q-280.901,176.669 -280.868,176.16 " /><path d="M-282.268,178.015 Q-281.612,177.636 -281.256,177.153 " /><path d="M-283.723,178.587 Q-282.888,178.373 -282.268,178.015 " /><path d="M-285.442,178.832 Q-284.554,178.803 -283.723,178.587 " /><path id= "138" d=" M -279.775 178.954 L -276.944 177.32 " />
<path d="M-279.976,179.307 Q-279.931,179.121 -279.775,178.954 " /><path d="M-279.988,179.669 Q-280.025,179.495 -279.976,179.307 " /><path d="M-279.988,179.669 Q-280.025,179.495 -279.976,179.307 " /><path d="M-279.832,179.999 Q-279.952,179.846 -279.988,179.669 " /><path d="M-279.525,180.263 Q-279.711,180.155 -279.832,179.999 " /><path d="M-278.693,180.434 Q-279.163,180.472 -279.525,180.263 " /><path d="M-277.636,180.06 Q-278.221,180.397 -278.693,180.434 " /><path id= "146" d=" M -274.917 178.49 L -277.636 180.06 " />
<path id= "147" d=" M -273.679 179.204 L -274.917 178.49 " />
<path id= "148" d=" M -276.706 180.952 L -273.679 179.204 " />
<path d="M-277.459,181.317 Q-277.055,181.153 -276.706,180.952 " /><path d="M-278.287,181.545 Q-277.859,181.482 -277.459,181.317 " /><path d="M-279.163,181.539 Q-278.711,181.609 -278.287,181.545 " /><path d="M-280.07,181.207 Q-279.615,181.47 -279.163,181.539 " /><path d="M-280.958,180.395 Q-280.708,180.839 -280.07,181.207 " /><path d="M-281.015,179.531 Q-281.208,179.952 -280.958,180.395 " /><path d="M-281.015,179.531 Q-281.208,179.952 -280.958,180.395 " /><path id= "156" d=" M -281.913 180.049 L -281.015 179.531 " />
<path id= "157" d=" M -283.033 179.403 L -281.913 180.049 " />
<path id= "158" d=" M -278.184 176.603 L -283.033 179.403 " />
<path id= "159" d=" M -276.944 177.32 L -278.184 176.603 " />
<path id= "160" d=" M -309.61 164.837 L -310.841 165.549 " />
<path id= "161" d=" M -308.369 165.554 L -309.61 164.837 " />
<path id= "162" d=" M -309.601 166.265 L -308.369 165.554 " />
<path id= "163" d=" M -310.841 165.549 L -309.601 166.265 " />
<path id= "164" d=" M -302.846 162.365 L -304.087 161.649 " />
<path id= "165" d=" M -307.694 165.164 L -302.846 162.365 " />
<path id= "166" d=" M -308.935 164.448 L -307.694 165.164 " />
<path id= "167" d=" M -304.087 161.649 L -308.935 164.448 " />
<path d="M-301.367,167.725 Q-301.572,168.184 -301.382,168.596 " /><path d="M-301.367,167.725 Q-301.572,168.184 -301.382,168.596 " /><path d="M-302.527,167.901 Q-301.897,167.924 -301.367,167.725 " /><path d="M-303.764,167.527 Q-303.153,167.88 -302.527,167.901 " /><path d="M-304.578,166.762 Q-304.367,167.179 -303.764,167.527 " /><path d="M-304.59,165.921 Q-304.791,166.347 -304.578,166.762 " /><path d="M-304.59,165.921 Q-304.791,166.347 -304.578,166.762 " /><path id= "175" d=" M -305.487 166.439 L -304.59 165.921 " />
<path id= "176" d=" M -306.607 165.792 L -305.487 166.439 " />
<path id= "177" d=" M -301.759 162.993 L -306.607 165.792 " />
<path id= "178" d=" M -300.518 163.709 L -301.759 162.993 " />
<path id= "179" d=" M -303.349 165.343 L -300.518 163.709 " />
<path d="M-303.614,166.035 Q-303.665,165.686 -303.349,165.343 " /><path d="M-303.614,166.035 Q-303.665,165.686 -303.349,165.343 " /><path d="M-303.201,166.593 Q-303.563,166.385 -303.614,166.035 " /><path d="M-302.382,166.757 Q-302.849,166.797 -303.201,166.593 " /><path d="M-301.331,166.38 Q-301.915,166.717 -302.382,166.757 " /><path id= "185" d=" M -298.612 164.81 L -301.331 166.38 " />
<path id= "186" d=" M -297.371 165.526 L -298.612 164.81 " />
<path id= "187" d=" M -300.193 167.155 L -297.371 165.526 " />
<path d="M-300.467,167.845 Q-300.506,167.496 -300.193,167.155 " /><path d="M-300.467,167.845 Q-300.506,167.496 -300.193,167.155 " /><path d="M-300.054,168.41 Q-300.425,168.197 -300.467,167.845 " /><path d="M-299.238,168.572 Q-299.705,168.612 -300.054,168.41 " /><path d="M-298.187,168.195 Q-298.771,168.532 -299.238,168.572 " /><path id= "193" d=" M -295.468 166.625 L -298.187 168.195 " />
<path id= "194" d=" M -294.227 167.341 L -295.468 166.625 " />
<path id= "195" d=" M -297.253 169.089 L -294.227 167.341 " />
<path d="M-298.006,169.454 Q-297.603,169.29 -297.253,169.089 " /><path d="M-298.835,169.681 Q-298.41,169.617 -298.006,169.454 " /><path d="M-299.714,169.674 Q-299.259,169.746 -298.835,169.681 " /><path d="M-300.608,169.349 Q-300.166,169.605 -299.714,169.674 " /><path d="M-301.382,168.596 Q-301.193,169.012 -300.608,169.349 " /><path d="M-289.74,171.288 Q-289.454,170.813 -289.682,170.267 " /><path d="M-289.74,171.288 Q-289.454,170.813 -289.682,170.267 " /><path id= "203" d=" M -291.098 170.845 L -289.74 171.288 " />
<path d="M-291.071,170.311 Q-290.923,170.605 -291.098,170.845 " /><path d="M-291.071,170.311 Q-290.923,170.605 -291.098,170.845 " /><path d="M-291.589,169.803 Q-291.218,170.017 -291.071,170.311 " /><path d="M-292.137,169.584 Q-291.83,169.664 -291.589,169.803 " /><path d="M-292.775,169.494 Q-292.441,169.506 -292.137,169.584 " /><path d="M-293.441,169.548 Q-293.107,169.483 -292.775,169.494 " /><path d="M-294.088,169.761 Q-293.775,169.612 -293.441,169.548 " /><path id= "211" d=" M -290.342 171.924 L -294.088 169.761 " />
<path d="M-290.502,172.044 Q-290.393,171.978 -290.342,171.924 " /><path d="M-290.727,172.182 Q-290.607,172.112 -290.502,172.044 " /><path d="M-291.842,172.627 Q-291.218,172.465 -290.727,172.182 " /><path d="M-293.137,172.797 Q-292.468,172.79 -291.842,172.627 " /><path d="M-294.477,172.653 Q-293.808,172.806 -293.137,172.797 " /><path d="M-295.742,172.159 Q-295.148,172.502 -294.477,172.653 " /><path d="M-296.606,171.424 Q-296.335,171.817 -295.742,172.159 " /><path d="M-296.868,170.639 Q-296.88,171.032 -296.606,171.424 " /><path d="M-296.868,170.639 Q-296.88,171.032 -296.606,171.424 " /><path d="M-296.573,169.881 Q-296.853,170.248 -296.868,170.639 " /><path d="M-295.772,169.217 Q-296.29,169.516 -296.573,169.881 " /><path d="M-294.636,168.77 Q-295.272,168.929 -295.772,169.217 " /><path d="M-293.329,168.607 Q-294.004,168.614 -294.636,168.77 " /><path d="M-291.983,168.758 Q-292.652,168.602 -293.329,168.607 " /><path d="M-290.727,169.254 Q-291.312,168.916 -291.983,168.758 " /><path d="M-289.682,170.267 Q-289.914,169.723 -290.727,169.254 " /><path d="M-313.895,161.96 Q-313.347,161.824 -312.95,161.595 " /><path d="M-315.034,162.116 Q-314.446,162.097 -313.895,161.96 " /><path d="M-316.196,162.022 Q-315.621,162.135 -315.034,162.116 " /><path d="M-317.223,161.649 Q-316.768,161.911 -316.196,162.022 " /><path id= "232" d=" M -320.009 160.04 L -317.223 161.649 " />
<path id= "233" d=" M -313.44 156.248 L -320.009 160.04 " />
<path id= "234" d=" M -312.164 156.985 L -313.44 156.248 " />
<path id= "235" d=" M -314.365 158.256 L -312.164 156.985 " />
<path id= "236" d=" M -312.811 159.154 L -314.365 158.256 " />
<path d="M-312.161,159.741 Q-312.356,159.416 -312.811,159.154 " /><path d="M-312.004,160.398 Q-311.968,160.068 -312.161,159.741 " /><path d="M-312.004,160.398 Q-311.968,160.068 -312.161,159.741 " /><path d="M-312.287,161.042 Q-312.043,160.731 -312.004,160.398 " /><path d="M-312.95,161.595 Q-312.534,161.355 -312.287,161.042 " /><path id= "242" d=" M -309.456 161.935 L -306.523 160.242 " />
<path d="M-309.441,162.664 Q-309.676,162.288 -309.456,161.935 " /><path d="M-309.441,162.664 Q-309.676,162.288 -309.456,161.935 " /><path d="M-308.649,163.372 Q-309.206,163.04 -309.441,162.664 " /><path id= "246" d=" M -309.778 164.024 L -308.649 163.372 " />
<path d="M-309.887,163.972 Q-309.836,164.001 -309.778,164.024 " /><path d="M-310.037,163.885 Q-309.935,163.944 -309.887,163.972 " /><path d="M-310.363,163.606 Q-310.233,163.772 -310.037,163.885 " /><path d="M-310.549,163.238 Q-310.492,163.441 -310.363,163.606 " /><path d="M-310.582,162.819 Q-310.604,163.036 -310.549,163.238 " /><path d="M-310.582,162.819 Q-310.604,163.036 -310.549,163.238 " /><path d="M-310.438,162.384 Q-310.558,162.603 -310.582,162.819 " /><path id= "254" d=" M -311.474 162.982 L -310.438 162.384 " />
<path id= "255" d=" M -312.612 162.325 L -311.474 162.982 " />
<path id= "256" d=" M -307.764 159.526 L -312.612 162.325 " />
<path id= "257" d=" M -306.523 160.242 L -307.764 159.526 " />
<path id= "258" d=" M -322.02 152.578 L -326.95 153.47 " />
<path id= "259" d=" M -321.325 152.979 L -322.02 152.578 " />
<path id= "260" d=" M -322.87 155.826 L -321.325 152.979 " />
<path id= "261" d=" M -318.521 153.315 L -322.87 155.826 " />
<path id= "262" d=" M -317.244 154.052 L -318.521 153.315 " />
<path id= "263" d=" M -323.812 157.844 L -317.244 154.052 " />
<path id= "264" d=" M -325.173 157.058 L -323.812 157.844 " />
<path id= "265" d=" M -323.397 153.769 L -325.173 157.058 " />
<path id= "266" d=" M -329.076 154.805 L -323.397 153.769 " />
<path id= "267" d=" M -330.447 154.014 L -329.076 154.805 " />
<path id= "268" d=" M -323.878 150.222 L -330.447 154.014 " />
<path id= "269" d=" M -322.602 150.959 L -323.878 150.222 " />
<path id= "270" d=" M -326.95 153.47 L -322.602 150.959 " />
<path d="M-271.351,184.457 Q-270.728,184.295 -270.237,184.012 " /><path d="M-272.646,184.627 Q-271.978,184.62 -271.351,184.457 " /><path d="M-273.986,184.483 Q-273.318,184.636 -272.646,184.627 " /><path d="M-275.251,183.989 Q-274.658,184.332 -273.986,184.483 " /><path d="M-276.116,183.254 Q-275.845,183.647 -275.251,183.989 " /><path d="M-276.378,182.47 Q-276.39,182.863 -276.116,183.254 " /><path d="M-276.378,182.47 Q-276.39,182.863 -276.116,183.254 " /><path d="M-276.082,181.712 Q-276.363,182.078 -276.378,182.47 " /><path d="M-275.281,181.047 Q-275.799,181.346 -276.082,181.712 " /><path d="M-274.146,180.6 Q-274.781,180.759 -275.281,181.047 " /><path d="M-272.839,180.437 Q-273.514,180.444 -274.146,180.6 " /><path d="M-271.493,180.588 Q-272.161,180.432 -272.839,180.437 " /><path d="M-270.237,181.084 Q-270.821,180.747 -271.493,180.588 " /><path d="M-269.192,182.098 Q-269.424,181.553 -270.237,181.084 " /><path d="M-269.249,183.118 Q-268.963,182.643 -269.192,182.098 " /><path d="M-269.249,183.118 Q-268.963,182.643 -269.192,182.098 " /><path id= "287" d=" M -270.607 182.675 L -269.249 183.118 " />
<path d="M-270.58,182.141 Q-270.433,182.435 -270.607,182.675 " /><path d="M-270.58,182.141 Q-270.433,182.435 -270.607,182.675 " /><path d="M-271.098,181.633 Q-270.728,181.847 -270.58,182.141 " /><path d="M-271.646,181.414 Q-271.339,181.494 -271.098,181.633 " /><path d="M-272.285,181.324 Q-271.951,181.336 -271.646,181.414 " /><path d="M-272.95,181.378 Q-272.616,181.313 -272.285,181.324 " /><path d="M-273.598,181.592 Q-273.285,181.442 -272.95,181.378 " /><path id= "295" d=" M -269.852 183.755 L -273.598 181.592 " />
<path d="M-270.011,183.874 Q-269.903,183.808 -269.852,183.755 " /><path d="M-270.237,184.012 Q-270.117,183.942 -270.011,183.874 " /><path id= "298" d=" M -290.098 176.196 L -290.098 176.36 " />
<path d="M-290.098,176.36 Q-290.131,176.876 -289.812,177.373 " /><path id= "300" d=" M -289.713 175.191 L -289.713 175.355 " />
<path d="M-289.713,175.355 Q-290.068,175.845 -290.098,176.36 " /><path d="M-288.701,174.489 Q-289.357,174.868 -289.713,175.355 " /><path d="M-287.237,173.912 Q-288.071,174.125 -288.701,174.489 " /><path id= "304" d=" M -285.518 173.507 L -285.518 173.67 " />
<path d="M-285.518,173.67 Q-286.403,173.698 -287.237,173.912 " /><path id= "306" d=" M -283.759 173.656 L -283.759 173.819 " />
<path d="M-283.759,173.819 Q-284.629,173.644 -285.518,173.67 " /><path d="M-282.169,174.414 Q-282.888,173.998 -283.759,173.819 " /><path id= "309" d=" M -281.154 175.15 L -281.154 175.313 " />
<path d="M-281.154,175.313 Q-281.473,174.816 -282.169,174.414 " /><path d="M-280.868,176.323 Q-280.835,175.814 -281.154,175.313 " /><path id= "312" d=" M -279.988 179.669 L -279.988 179.832 " />
<path d="M-279.988,179.832 Q-280.025,179.658 -279.976,179.47 " /><path d="M-279.988,179.832 Q-280.025,179.658 -279.976,179.47 " /><path id= "315" d=" M -279.832 179.999 L -279.832 180.162 " />
<path d="M-279.832,180.162 Q-279.952,180.009 -279.988,179.832 " /><path d="M-279.525,180.426 Q-279.711,180.319 -279.832,180.162 " /><path id= "318" d=" M -278.693 180.434 L -278.693 180.597 " />
<path d="M-278.693,180.597 Q-279.163,180.635 -279.525,180.426 " /><path d="M-277.636,180.223 Q-278.221,180.56 -278.693,180.597 " /><path id= "321" d=" M -274.917 178.49 L -274.917 178.653 " />
<path id= "322" d=" M -274.917 178.653 L -277.636 180.223 " />
<path id= "323" d=" M -273.821 179.286 L -274.917 178.653 " />
<path id= "324" d=" M -281.015 179.531 L -281.015 179.694 " />
<path d="M-281.015,179.694 Q-281.208,180.115 -280.958,180.559 " /><path id= "326" d=" M -278.184 176.603 L -278.184 176.767 " />
<path id= "327" d=" M -278.184 176.767 L -282.892 179.484 " />
<path id= "328" d=" M -277.085 177.401 L -278.184 176.767 " />
<path id= "329" d=" M -309.61 164.837 L -309.61 165.001 " />
<path id= "330" d=" M -309.61 165.001 L -310.7 165.63 " />
<path id= "331" d=" M -308.51 165.635 L -309.61 165.001 " />
<path id= "332" d=" M -302.987 162.447 L -304.087 161.812 " />
<path id= "333" d=" M -304.087 161.649 L -304.087 161.812 " />
<path id= "334" d=" M -304.087 161.812 L -308.794 164.53 " />
<path id= "335" d=" M -301.367 167.725 L -301.367 167.889 " />
<path d="M-301.367,167.889 Q-301.572,168.348 -301.382,168.76 " /><path id= "337" d=" M -304.59 165.921 L -304.59 166.084 " />
<path d="M-304.59,166.084 Q-304.791,166.51 -304.578,166.925 " /><path id= "339" d=" M -304.663 166.126 L -304.59 166.084 " />
<path id= "340" d=" M -301.759 162.993 L -301.759 163.156 " />
<path id= "341" d=" M -301.759 163.156 L -306.466 165.874 " />
<path id= "342" d=" M -300.659 163.791 L -301.759 163.156 " />
<path d="M-303.614,166.199 Q-303.665,165.849 -303.349,165.507 " /><path d="M-303.614,166.199 Q-303.665,165.849 -303.349,165.507 " /><path d="M-303.201,166.757 Q-303.563,166.548 -303.614,166.199 " /><path d="M-302.382,166.92 Q-302.849,166.96 -303.201,166.757 " /><path d="M-301.331,166.543 Q-301.915,166.88 -302.382,166.92 " /><path id= "348" d=" M -298.612 164.81 L -298.612 164.973 " />
<path id= "349" d=" M -298.612 164.973 L -301.331 166.543 " />
<path id= "350" d=" M -297.512 165.608 L -298.612 164.973 " />
<path id= "351" d=" M -300.467 167.845 L -300.467 168.009 " />
<path d="M-300.467,168.009 Q-300.506,167.659 -300.193,167.318 " /><path d="M-300.467,168.009 Q-300.506,167.659 -300.193,167.318 " /><path d="M-300.054,168.574 Q-300.425,168.36 -300.467,168.009 " /><path d="M-299.238,168.735 Q-299.705,168.775 -300.054,168.574 " /><path d="M-298.187,168.358 Q-298.771,168.695 -299.238,168.735 " /><path id= "357" d=" M -295.468 166.625 L -295.468 166.788 " />
<path id= "358" d=" M -295.468 166.788 L -298.187 168.358 " />
<path id= "359" d=" M -294.368 167.423 L -295.468 166.788 " />
<path d="M-289.74,171.451 Q-289.454,170.977 -289.682,170.431 " /><path id= "361" d=" M -289.682 170.267 L -289.682 170.431 " />
<path d="M-291.071,170.474 Q-290.923,170.768 -291.098,171.008 " /><path d="M-291.071,170.474 Q-290.923,170.768 -291.098,171.008 " /><path id= "364" d=" M -294.088 169.761 L -294.088 169.925 " />
<path id= "365" d=" M -290.461 172.019 L -294.088 169.925 " />
<path id= "366" d=" M -296.868 170.639 L -296.868 170.706 " />
<path id= "367" d=" M -296.573 169.881 L -296.573 170.045 " />
<path d="M-296.573,170.045 Q-296.853,170.412 -296.868,170.803 " /><path d="M-295.772,169.38 Q-296.29,169.68 -296.573,170.045 " /><path id= "370" d=" M -294.636 168.77 L -294.636 168.934 " />
<path d="M-294.636,168.934 Q-295.272,169.092 -295.772,169.38 " /><path id= "372" d=" M -293.329 168.607 L -293.329 168.77 " />
<path d="M-293.329,168.77 Q-294.004,168.777 -294.636,168.934 " /><path id= "374" d=" M -291.983 168.758 L -291.983 168.921 " />
<path d="M-291.983,168.921 Q-292.652,168.765 -293.329,168.77 " /><path d="M-290.727,169.417 Q-291.312,169.08 -291.983,168.921 " /><path d="M-289.682,170.431 Q-289.914,169.886 -290.727,169.417 " /><path id= "378" d=" M -313.44 156.248 L -313.44 156.411 " />
<path id= "379" d=" M -313.44 156.411 L -319.867 160.122 " />
<path id= "380" d=" M -312.305 157.067 L -313.44 156.411 " />
<path id= "381" d=" M -314.365 158.256 L -314.365 158.42 " />
<path id= "382" d=" M -312.811 159.317 L -314.365 158.42 " />
<path id= "383" d=" M -312.161 159.741 L -312.161 159.905 " />
<path d="M-312.161,159.905 Q-312.356,159.579 -312.811,159.317 " /><path d="M-312.004,160.562 Q-311.968,160.231 -312.161,159.905 " /><path d="M-309.441,162.827 Q-309.676,162.452 -309.456,162.099 " /><path d="M-309.441,162.827 Q-309.676,162.452 -309.456,162.099 " /><path d="M-308.649,163.535 Q-309.206,163.203 -309.441,162.827 " /><path id= "389" d=" M -310.582 162.819 L -310.582 162.982 " />
<path d="M-310.582,162.982 Q-310.604,163.199 -310.549,163.401 " /><path id= "391" d=" M -310.438 162.384 L -310.438 162.547 " />
<path d="M-310.438,162.547 Q-310.558,162.766 -310.582,162.982 " /><path id= "393" d=" M -307.764 159.526 L -307.764 159.689 " />
<path id= "394" d=" M -307.764 159.689 L -312.471 162.407 " />
<path id= "395" d=" M -306.664 160.324 L -307.764 159.689 " />
<path id= "396" d=" M -322.02 152.578 L -322.02 152.741 " />
<path id= "397" d=" M -322.02 152.741 L -326.95 153.633 " />
<path id= "398" d=" M -326.95 153.47 L -326.95 153.633 " />
<path id= "399" d=" M -321.392 153.104 L -322.02 152.741 " />
<path id= "400" d=" M -322.87 155.826 L -322.87 155.989 " />
<path id= "401" d=" M -318.521 153.315 L -318.521 153.478 " />
<path id= "402" d=" M -318.521 153.478 L -322.87 155.989 " />
<path id= "403" d=" M -317.385 154.134 L -318.521 153.478 " />
<path id= "404" d=" M -323.397 153.769 L -323.397 153.932 " />
<path id= "405" d=" M -323.397 153.932 L -325.106 157.097 " />
<path id= "406" d=" M -323.878 150.222 L -323.878 150.385 " />
<path id= "407" d=" M -323.878 150.385 L -330.305 154.096 " />
<path id= "408" d=" M -322.743 151.041 L -323.878 150.385 " />
<path id= "409" d=" M -276.378 182.47 L -276.378 182.536 " />
<path id= "410" d=" M -276.082 181.712 L -276.082 181.875 " />
<path d="M-276.082,181.875 Q-276.363,182.242 -276.378,182.633 " /><path d="M-275.281,181.211 Q-275.799,181.51 -276.082,181.875 " /><path id= "413" d=" M -274.146 180.6 L -274.146 180.764 " />
<path d="M-274.146,180.764 Q-274.781,180.922 -275.281,181.211 " /><path id= "415" d=" M -272.839 180.437 L -272.839 180.6 " />
<path d="M-272.839,180.6 Q-273.514,180.607 -274.146,180.764 " /><path id= "417" d=" M -271.493 180.588 L -271.493 180.752 " />
<path d="M-271.493,180.752 Q-272.161,180.595 -272.839,180.6 " /><path d="M-270.237,181.247 Q-270.821,180.91 -271.493,180.752 " /><path id= "420" d=" M -269.192 182.098 L -269.192 182.261 " />
<path d="M-269.192,182.261 Q-269.424,181.717 -270.237,181.247 " /><path d="M-269.249,183.281 Q-268.963,182.807 -269.192,182.261 " /><path d="M-270.58,182.304 Q-270.433,182.598 -270.607,182.838 " /><path d="M-270.58,182.304 Q-270.433,182.598 -270.607,182.838 " /><path id= "425" d=" M -273.598 181.592 L -273.598 181.755 " />
<path id= "426" d=" M -269.971 183.849 L -273.598 181.755 " />
<path d="M-282.657,175.652 Q-282.491,175.967 -282.56,176.288 " /><path d="M-282.657,175.652 Q-282.491,175.967 -282.56,176.288 " /><path d="M-282.56,176.288 Q-282.629,176.613 -282.898,176.911 " /><path d="M-282.898,176.911 Q-283.166,177.212 -283.575,177.448 " /><path d="M-283.575,177.448 Q-284,177.693 -284.533,177.845 " /><path d="M-284.533,177.845 Q-285.063,177.998 -285.614,178.031 " /><path d="M-285.614,178.031 Q-286.165,178.067 -286.701,177.966 " /><path d="M-286.701,177.966 Q-287.237,177.865 -287.683,177.608 " /><path d="M-287.683,177.608 Q-288.144,177.342 -288.315,177.024 " /><path d="M-288.315,177.024 Q-288.487,176.706 -288.418,176.387 " /><path d="M-288.315,177.024 Q-288.487,176.706 -288.418,176.387 " /><path d="M-292.393,171.832 Q-292.986,172.119 -293.67,172.103 " /><path d="M-293.67,172.103 Q-294.353,172.088 -294.862,171.794 " /><path d="M-294.862,171.794 Q-295.112,171.649 -295.245,171.472 " /><path d="M-295.245,171.472 Q-295.374,171.297 -295.383,171.11 " /><path d="M-295.383,171.11 Q-295.392,170.924 -295.278,170.733 " /><path d="M-295.383,171.11 Q-295.392,170.924 -295.278,170.733 " /><path d="M-314.004,159.922 Q-313.651,160.125 -313.702,160.426 " /><path d="M-314.004,159.922 Q-313.651,160.125 -313.702,160.426 " /><path d="M-313.702,160.426 Q-313.754,160.727 -314.245,161.01 " /><path d="M-314.245,161.01 Q-314.494,161.155 -314.769,161.226 " /><path d="M-314.769,161.226 Q-315.04,161.299 -315.299,161.309 " /><path d="M-315.299,161.309 Q-315.558,161.32 -315.789,161.266 " /><path d="M-315.789,161.266 Q-316.018,161.214 -316.187,161.116 " /><path id= "451" d=" M -316.187 161.116 L -317.611 160.294 " />
<path d="M-271.902,183.662 Q-272.496,183.949 -273.179,183.933 " /><path d="M-273.179,183.933 Q-273.863,183.918 -274.372,183.624 " /><path d="M-274.372,183.624 Q-274.622,183.48 -274.754,183.302 " /><path d="M-274.754,183.302 Q-274.884,183.127 -274.893,182.941 " /><path d="M-274.893,182.941 Q-274.902,182.755 -274.787,182.563 " /><path d="M-274.893,182.941 Q-274.902,182.755 -274.787,182.563 " /><path d="M-287.406,175.073 Q-286.978,174.826 -286.451,174.672 " /><path d="M-286.451,174.672 Q-285.924,174.517 -285.373,174.48 " /><path d="M-285.373,174.48 Q-284.822,174.447 -284.28,174.545 " /><path d="M-284.28,174.545 Q-283.738,174.645 -283.286,174.906 " /><path d="M-283.286,174.906 Q-282.822,175.174 -282.657,175.489 " /><path d="M-282.657,175.489 Q-282.491,175.803 -282.56,176.125 " /><path d="M-282.657,175.489 Q-282.491,175.803 -282.56,176.125 " /><path d="M-282.56,176.125 Q-282.629,176.45 -282.898,176.748 " /><path id= "466" d=" M -282.898 176.748 L -282.898 176.911 " />
<path d="M-282.898,176.748 Q-283.166,177.048 -283.575,177.285 " /><path d="M-283.575,177.285 Q-284,177.53 -284.533,177.681 " /><path id= "469" d=" M -284.533 177.681 L -284.533 177.845 " />
<path d="M-284.533,177.681 Q-285.063,177.834 -285.614,177.867 " /><path id= "471" d=" M -285.614 177.867 L -285.614 178.031 " />
<path d="M-285.614,177.867 Q-286.165,177.904 -286.701,177.803 " /><path d="M-286.701,177.803 Q-287.237,177.702 -287.683,177.445 " /><path d="M-287.683,177.445 Q-288.144,177.179 -288.315,176.861 " /><path d="M-288.315,176.861 Q-288.487,176.542 -288.418,176.224 " /><path d="M-288.315,176.861 Q-288.487,176.542 -288.418,176.224 " /><path d="M-288.418,176.224 Q-288.348,175.906 -288.08,175.605 " /><path d="M-288.08,175.605 Q-287.812,175.308 -287.406,175.073 " /><path id= "479" d=" M -292.393 171.669 L -292.393 171.832 " />
<path d="M-292.393,171.669 Q-292.986,171.956 -293.67,171.94 " /><path d="M-293.67,171.94 Q-294.353,171.924 -294.862,171.631 " /><path d="M-294.862,171.631 Q-295.112,171.486 -295.245,171.309 " /><path id= "483" d=" M -295.245 171.309 L -295.245 171.472 " />
<path d="M-295.245,171.309 Q-295.374,171.133 -295.383,170.947 " /><path d="M-295.383,170.947 Q-295.392,170.761 -295.278,170.57 " /><path d="M-295.383,170.947 Q-295.392,170.761 -295.278,170.57 " /><path d="M-295.278,170.57 Q-295.16,170.38 -294.911,170.215 " /><path id= "488" d=" M -294.911 170.215 L -292.393 171.669 " />
<path id= "489" d=" M -315.485 158.903 L -314.004 159.759 " />
<path d="M-314.004,159.759 Q-313.651,159.962 -313.702,160.263 " /><path d="M-314.004,159.759 Q-313.651,159.962 -313.702,160.263 " /><path d="M-313.702,160.263 Q-313.754,160.564 -314.245,160.847 " /><path d="M-314.245,160.847 Q-314.494,160.991 -314.769,161.063 " /><path id= "494" d=" M -314.769 161.063 L -314.769 161.226 " />
<path d="M-314.769,161.063 Q-315.04,161.136 -315.299,161.146 " /><path d="M-315.299,161.146 Q-315.558,161.157 -315.789,161.103 " /><path id= "497" d=" M -315.789 161.103 L -315.789 161.266 " />
<path d="M-315.789,161.103 Q-316.018,161.05 -316.187,160.953 " /><path id= "499" d=" M -316.187 160.953 L -317.611 160.131 " />
<path id= "500" d=" M -317.611 160.131 L -317.611 160.294 " />
<path id= "501" d=" M -317.611 160.131 L -315.485 158.903 " />
<path id= "502" d=" M -271.902 183.499 L -271.902 183.662 " />
<path d="M-271.902,183.499 Q-272.496,183.786 -273.179,183.77 " /><path d="M-273.179,183.77 Q-273.863,183.755 -274.372,183.461 " /><path d="M-274.372,183.461 Q-274.622,183.316 -274.754,183.139 " /><path id= "506" d=" M -274.754 183.139 L -274.754 183.302 " />
<path d="M-274.754,183.139 Q-274.884,182.963 -274.893,182.777 " /><path d="M-274.893,182.777 Q-274.902,182.591 -274.787,182.4 " /><path d="M-274.893,182.777 Q-274.902,182.591 -274.787,182.4 " /><path d="M-274.787,182.4 Q-274.67,182.211 -274.42,182.045 " /><path id= "511" d=" M -274.42 182.045 L -271.902 183.499 " />
</g>
</g>



</svg>

