<?xml version="1.0" encoding="UTF-8"?>

<svg xmlns="http://www.w3.org/2000/svg" version="1.1"
	width="297mm"
	height="210mm"
	viewBox="0 0 297 210">
	<!-- Working space 0 0 297 210 -->
	<defs>
		<radialGradient
			id="radialGradient3661"
			gradientUnits="userSpaceOnUse"
			cy="29.149"
			cx="282.65"
			gradientTransform="matrix(.14777 .23089 -.24680 .15795 -26.318 -62.617)"
			r="19.571">
				<stop stop-color="#71b2f8" offset="0"/>
				<stop stop-color="#002795" offset="1"/>
		</radialGradient>
		<radialGradient
			id="radialGradient3817"
			gradientUnits="userSpaceOnUse"
			cy="33.9"
			cx="270.58"
			gradientTransform="matrix(.26631 .065024 -.17931 .73438 -60.668 -36.938)"
			r="19.571">
				<stop stop-color="#ff6d0f" offset="0"/>
				<stop stop-color="#ff1000" offset="1"/>
		</radialGradient>
	</defs>
	<!-- Set display:none to hide FreeCAD Logo -->
	<g
		style="display:inline"
		id="freecad-logo"
		transform="translate(271, 185) scale(1)"
		fill-rule="evenodd"
		stroke-width=".45621">
		<path d="m0.22811 0.22835v13.256h2.9558v-5.1876h2.09v-2.0452h-2.09v-2.2075h5.1486v-3.8087l-8.1044-0.0075z"
			stroke="#370700"
			fill="url(#radialGradient3817)"/>
		<path d="m13.386 4.1792-1.7193 0.98645-0.75925-0.26348-0.72439-1.8513-1.1395 0.05988-0.51976 1.9144-0.72743 0.34835-1.8143-0.79367-0.76632 0.85156 0.98645 1.7193-0.26957 0.75702-1.8513 0.72439 0.065967 1.1417 1.9144 0.51976 0.34835 0.72743-0.79976 1.8121 0.85156 0.76632 1.7193-0.98645 0.76311 0.27179 0.7183 1.8491 1.1478-0.06375 0.51367-1.9166 0.72743-0.34835 1.8182 0.80198 0.76632-0.85156-0.98645-1.7193 0.2657-0.76533 1.8491-0.7183-0.05766-1.1456-1.9166-0.51367-0.34835-0.72743 0.7959-1.8204-0.85156-0.76632zm-2.5751 2.8195 0.35295 0.20478 0.30579 0.27725 0.24481 0.33087 0.17611 0.36787 0.10354 0.39656 0.01715 0.4064-0.0587 0.4063-0.13396 0.38571-0.2131 0.35681-0.26894 0.30192-0.33087 0.24481-0.36787 0.17611-0.39656 0.10354-0.40863 0.02325-0.4063-0.0587-0.38571-0.13396-0.35681-0.2131-0.2997-0.27503-0.24703-0.32478-0.17611-0.36787-0.10132-0.40264-0.02324-0.40863 0.05869-0.4063 0.13396-0.38571 0.21087-0.35072 0.27116-0.30801 0.33087-0.24481 0.36787-0.17611 0.40264-0.10132 0.40641-0.01715 0.4063 0.05869 0.38571 0.13396z" 
		stroke="#000137"
		fill="url(#radialGradient3661)"/>
	</g>
<g id="Ortho_0_0"
   transform="rotate(-90,107.667,165.333) translate(107.667,165.333) scale(1,1)"
  >
<g   stroke="rgb(0, 0, 0)"
   stroke-width="0.35"
   stroke-linecap="butt"
   stroke-linejoin="miter"
   fill="none"
   transform="scale(1,-1)"
  >
<path id= "1" d=" M 4 34 L 4 19 " />
<path id= "2" d=" M 0 34 L 4 34 " />
<path id= "3" d=" M 4 19 L 20 19 " />
<path id= "4" d=" M 0 15 L 0 34 " />
<path id= "5" d=" M 24 15 L 20 19 " />
<path id= "6" d=" M 0.8391 14 L 2.22045e-15 15 " />
<path id= "7" d=" M 24 8 L 24 15 " />
<path id= "8" d=" M 15 14 L 0.8391 14 " />
<path id= "9" d=" M 15 10.247 L 15 14 " />
<path id= "10" d=" M 15 8 L 15 10.247 " />
<path id= "11" d=" M 4 34 L 4 36 " />
<path d="M4,34 L4,34.0342  L4,34.066  L4,34.0953  L4,34.122  L4,34.1463  L4,34.168  L4,34.1872  L4,34.2038  L4,34.2179  L4,34.2295  L4,34.2384  L4,34.2449  L4,34.2487  L4,34.25 " /><path id= "13" d=" M 0 34 L 0 36 " />
<path id= "14" d=" M 0 36 L 4 36 " />
<path id= "15" d=" M 24 0 L 24 8 " />
<path id= "16" d=" M 15 8 L 24 8 " />
<path id= "17" d=" M 15 0 L 15 8 " />
<path id= "18" d=" M 15 0 L 24 0 " />
<path d="M19.5,0 L19.6791,-3.97778e-17  L19.856,-7.90553e-17  L20.0284,-1.17339e-16  L20.1942,-1.54146e-16  L20.3513,-1.89016e-16  L20.4976,-2.21508e-16  L20.6314,-2.51215e-16  L20.7509,-2.77762e-16  L20.8548,-3.00817e-16  L20.9416,-3.20088e-16  L21.0102,-3.35335e-16  L21.0599,-3.46364e-16  L21.0899,-3.53037e-16  L21.1,-3.55271e-16 " /></g>
</g>



<g id="Ortho_0_1"
   transform="rotate(90,107.667,64.6667) translate(107.667,64.6667) scale(1,1)"
  >
<g   stroke="rgb(0, 0, 0)"
   stroke-width="0.35"
   stroke-linecap="butt"
   stroke-linejoin="miter"
   fill="none"
   transform="scale(1,-1)"
  >
<path id= "1" d=" M 8 -34 L 8 -19 " />
<path id= "2" d=" M 8 -15 L 8 -19 " />
<path id= "3" d=" M 8 -8 L 8 -15 " />
<path id= "4" d=" M -8 -19 L -8 -34 " />
<path id= "5" d=" M -8 -34 L -6 -36 " />
<path id= "6" d=" M -6 -36 L 6 -36 " />
<path id= "7" d=" M 8 -34 L 6 -36 " />
<circle cx ="0" cy ="-28" r ="6.25" /><path id= "9" d=" M 8 -19 L -8 -19 " />
<path id= "10" d=" M 8 -15 L -8 -15 " />
<path id= "11" d=" M -8 -15 L -8 -19 " />
<path id= "12" d=" M 16 -8 L 8 -8 " />
<path id= "13" d=" M -8 -15 L -8 -8 " />
<path id= "14" d=" M 16 0 L 16 -8 " />
<path id= "15" d=" M -8 -8 L -16 -8 " />
<path id= "16" d=" M 8.23483 0 L 16 0 " />
<path id= "17" d=" M -16 -8 L -16 0 " />
<path d="M-8.23483 -2.9976e-15 A8.25 8.25 0 0 1 8.23483 -8.64864e-14" /><path id= "19" d=" M -16 0 L -8.23483 0 " />
<path id= "20" d=" M 8.23483 0 L 6.22997 0 " />
<path id= "21" d=" M -6.22997 0 L -8.23483 0 " />
<path d="M6.22997 5.55112e-17 A6.25 6.25 0 0 0 -6.22997 -2.74225e-14" /></g>
</g>



<g id="Ortho_1_0"
   transform="rotate(-90,211.333,165.333) translate(211.333,165.333) scale(1,1)"
  >
<g   stroke="rgb(0, 0, 0)"
   stroke-width="0.35"
   stroke-linecap="butt"
   stroke-linejoin="miter"
   fill="none"
   transform="scale(1,-1)"
  >
<path id= "1" d=" M 0.8391 8 L 2.22045e-15 8 " />
<path id= "2" d=" M 15 8 L 0.8391 8 " />
<path id= "3" d=" M 0 -8 L 0 8 " />
<path id= "4" d=" M -8.88178e-16 -8 L 0.8391 -8 " />
<path id= "5" d=" M 0.8391 -8 L 0.8391 8 " />
<path id= "6" d=" M 24 8.23483 L 24 16 " />
<path d="M24,-8.23483 L24,-7.93691  L24,-7.27102  L24,-6.26802  L24,-4.97443  L24,-3.45022  L24,-1.76605  L24,-3.81529e-14  L24,1.76605  L24,3.45022  L24,4.97443  L24,6.26802  L24,7.27102  L24,7.93691  L24,8.23483 " /><path id= "8" d=" M 24 -16 L 24 -8.23483 " />
<path id= "9" d=" M 0.8391 -8 L 15 -8 " />
<path id= "10" d=" M 15 -16 L 15 -13 " />
<path id= "11" d=" M 15 -13 L 15 -6.22997 " />
<path d="M15,6.22997 L15,5.98356  L15,5.46681  L15,4.70306  L15,3.72683  L15,2.58223  L15,1.32095  L15,-2.59851e-14  L15,-1.32095  L15,-2.58223  L15,-3.72683  L15,-4.70306  L15,-5.46681  L15,-5.98356  L15,-6.22997 " /><path id= "13" d=" M 15 6.22997 L 15 13 " />
<path id= "14" d=" M 15 13 L 15 16 " />
<path id= "15" d=" M 15 16 L 24 16 " />
<path id= "16" d=" M 19 6.22997 L 15 6.22997 " />
<path id= "17" d=" M 19 8.23483 L 19 6.22997 " />
<path id= "18" d=" M 19 8.23483 L 24 8.23483 " />
<circle cx ="19.5" cy ="12" r ="1.6" /><path id= "20" d=" M 15 -16 L 24 -16 " />
<path id= "21" d=" M 19 -8.23483 L 24 -8.23483 " />
<path id= "22" d=" M 19 -6.22997 L 15 -6.22997 " />
<path id= "23" d=" M 19 -6.22997 L 19 -8.23483 " />
<circle cx ="19.5" cy ="-12" r ="1.6" /><path d="M19,6.22997 L19,5.98356  L19,5.46681  L19,4.70306  L19,3.72683  L19,2.58223  L19,1.32095  L19,1.14849e-14  L19,-1.32095  L19,-2.58223  L19,-3.72683  L19,-4.70306  L19,-5.46681  L19,-5.98356  L19,-6.22997 " /></g>
</g>



</svg>

