<?xml version="1.0" encoding="UTF-8"?>

<svg xmlns="http://www.w3.org/2000/svg" version="1.1"
	width="297mm"
	height="210mm"
	viewBox="0 0 297 210">
	<!-- Working space 0 0 297 210 -->
	<defs>
		<radialGradient
			id="radialGradient3661"
			gradientUnits="userSpaceOnUse"
			cy="29.149"
			cx="282.65"
			gradientTransform="matrix(.14777 .23089 -.24680 .15795 -26.318 -62.617)"
			r="19.571">
				<stop stop-color="#71b2f8" offset="0"/>
				<stop stop-color="#002795" offset="1"/>
		</radialGradient>
		<radialGradient
			id="radialGradient3817"
			gradientUnits="userSpaceOnUse"
			cy="33.9"
			cx="270.58"
			gradientTransform="matrix(.26631 .065024 -.17931 .73438 -60.668 -36.938)"
			r="19.571">
				<stop stop-color="#ff6d0f" offset="0"/>
				<stop stop-color="#ff1000" offset="1"/>
		</radialGradient>
	</defs>
	<!-- Set display:none to hide FreeCAD Logo -->
	<g
		style="display:inline"
		id="freecad-logo"
		transform="translate(271, 185) scale(1)"
		fill-rule="evenodd"
		stroke-width=".45621">
		<path d="m0.22811 0.22835v13.256h2.9558v-5.1876h2.09v-2.0452h-2.09v-2.2075h5.1486v-3.8087l-8.1044-0.0075z"
			stroke="#370700"
			fill="url(#radialGradient3817)"/>
		<path d="m13.386 4.1792-1.7193 0.98645-0.75925-0.26348-0.72439-1.8513-1.1395 0.05988-0.51976 1.9144-0.72743 0.34835-1.8143-0.79367-0.76632 0.85156 0.98645 1.7193-0.26957 0.75702-1.8513 0.72439 0.065967 1.1417 1.9144 0.51976 0.34835 0.72743-0.79976 1.8121 0.85156 0.76632 1.7193-0.98645 0.76311 0.27179 0.7183 1.8491 1.1478-0.06375 0.51367-1.9166 0.72743-0.34835 1.8182 0.80198 0.76632-0.85156-0.98645-1.7193 0.2657-0.76533 1.8491-0.7183-0.05766-1.1456-1.9166-0.51367-0.34835-0.72743 0.7959-1.8204-0.85156-0.76632zm-2.5751 2.8195 0.35295 0.20478 0.30579 0.27725 0.24481 0.33087 0.17611 0.36787 0.10354 0.39656 0.01715 0.4064-0.0587 0.4063-0.13396 0.38571-0.2131 0.35681-0.26894 0.30192-0.33087 0.24481-0.36787 0.17611-0.39656 0.10354-0.40863 0.02325-0.4063-0.0587-0.38571-0.13396-0.35681-0.2131-0.2997-0.27503-0.24703-0.32478-0.17611-0.36787-0.10132-0.40264-0.02324-0.40863 0.05869-0.4063 0.13396-0.38571 0.21087-0.35072 0.27116-0.30801 0.33087-0.24481 0.36787-0.17611 0.40264-0.10132 0.40641-0.01715 0.4063 0.05869 0.38571 0.13396z" 
		stroke="#000137"
		fill="url(#radialGradient3661)"/>
	</g>
<g id="View"
   transform="rotate(60,157.692,109.491) translate(157.692,109.491) scale(1,1)"
  >
<g   stroke="rgb(0, 0, 0)"
   stroke-width="0.35"
   stroke-linecap="butt"
   stroke-linejoin="miter"
   fill="none"
   transform="scale(1,-1)"
  >
<path id= "1" d=" M -20.6739 3.06186 L -20.6739 2.86339 " />
</g>
<g   stroke="rgb(0, 0, 0)"
   stroke-width="0.35"
   stroke-linecap="butt"
   stroke-linejoin="miter"
   fill="none"
   transform="scale(1,-1)"
  >
<path id= "1" d=" M 2.82843 -22.8619 L 2.82843 -10.6145 " />
<path id= "2" d=" M 5.65685 -24.4949 L 2.82843 -22.8619 " />
<path id= "3" d=" M 2.82843 -10.6145 L -8.48528 -4.08248 " />
<path id= "4" d=" M 5.65685 -8.98146 L 5.65685 -24.4949 " />
<path id= "5" d=" M -11.3137 0.816497 L -8.48528 -4.08248 " />
<path id= "6" d=" M 5.06352 -7.8224 L 5.65685 -8.98146 " />
<path id= "7" d=" M -11.3137 6.53197 L -11.3137 0.816497 " />
<path id= "8" d=" M -4.94975 -2.04124 L 5.06352 -7.8224 " />
<path id= "9" d=" M -4.94975 2.85774 L -11.3137 6.53197 " />
<path id= "10" d=" M -4.94975 1.02311 L -4.94975 -2.04124 " />
<path id= "11" d=" M -4.94975 2.85774 L -4.94975 1.02311 " />
<path id= "12" d=" M -8.48528 -17.1464 L -8.48528 -29.3939 " />
<path id= "13" d=" M -8.48528 -29.3939 L -7.07107 -30.2104 " />
<path id= "14" d=" M 2.82843 -10.6145 L -8.48528 -17.1464 " />
<path id= "15" d=" M -7.07107 -30.2104 L 1.41421 -25.3114 " />
<path id= "16" d=" M 2.82843 -22.8619 L 1.41421 -25.3114 " />
<path d="M1.59099 -18.6774 A6.25 3.60844 -120 0 0 -5.95343 -26.6416" />
<path d="M-5.95343 -26.6416 A6.25 3.60844 -120 0 0 0.296573 -15.8163" />
<path d="M0.296573 -15.8163 A6.25 3.60844 -120 0 0 1.59099 -18.6774" />
<path id= "20" d=" M 5.65685 -24.4949 L 4.24264 -26.9444 " />
<path id= "21" d=" M 4.24264 -26.9444 L 1.41421 -25.3114 " />
<path id= "22" d=" M -19.799 -10.6145 L -8.48528 -17.1464 " />
<path id= "23" d=" M -8.48528 -4.08248 L -19.799 -10.6145 " />
<path id= "24" d=" M 4.24264 -26.9444 L -4.24264 -31.8434 " />
<path d="M1.37247 -17.2187 A6.25 3.60844 60 0 1 -4.2009 -26.8721" />
<path id= "26" d=" M -11.3137 0.816497 L -22.6274 -5.71548 " />
<path id= "27" d=" M -22.6274 -5.71548 L -19.799 -10.6145 " />
<path id= "28" d=" M -5.65685 9.79796 L -11.3137 6.53197 " />
<path id= "29" d=" M -22.6274 -5.71548 L -22.6274 3.55271e-15 " />
<path id= "30" d=" M -5.65685 16.3299 L -5.65685 9.79796 " />
<path id= "31" d=" M -22.6274 0 L -28.2843 -3.26599 " />
<path id= "32" d=" M -11.1477 13.1598 L -5.65685 16.3299 " />
<path id= "33" d=" M -28.2843 -3.26599 L -28.2843 3.26599 " />
<path d="M-22.7935 6.4361 A8.25 4.76314 60 0 1 -21.0956 3.0615" />
<path d="M-21.0956 3.0615 A8.25 4.76314 60 0 1 -11.1477 13.1598" />
<path id= "36" d=" M -28.2843 3.26599 L -22.7935 6.4361 " />
<path id= "37" d=" M 0.707107 6.12372 L -3.36091 3.77505 " />
<path id= "38" d=" M 0.707107 6.12372 L -5.65685 9.79796 " />
<path id= "39" d=" M -3.36091 3.77505 L -4.94975 2.85774 " />
<path d="M-3.18198 7.55259 A3 1.73205 180 0 1 -8.3033 6.32785" />
<path d="M-8.3033 6.32785 A3 1.73205 180 0 1 -2.3033 6.32785" />
<path d="M-2.3033 6.32785 A3 1.73205 180 0 1 -3.18198 7.55259" />
<path id= "43" d=" M 0.707107 12.6557 L 0.707107 6.12372 " />
<path id= "44" d=" M -4.24264 -31.8434 L -7.07107 -30.2104 " />
<path id= "45" d=" M 0.707107 12.6557 L -5.65685 16.3299 " />
<path id= "46" d=" M -21.9203 -6.94022 L -28.2843 -3.26599 " />
<path d="M-22.6274 -1.75013 A3 1.73205 180 0 1 -25.2739 -3.47011" />
<path d="M-25.2739 -3.47011 A3 1.73205 180 0 1 -22.6274 -5.19009" />
<path d="M-19.2579 4.39486 A8.25 4.76314 60 0 1 -18.9298 2.73021" />
<path id= "50" d=" M -19.2579 4.39486 L -22.7935 6.4361 " />
<path id= "51" d=" M -17.8403 5.21334 L -15.9804 4.13953 " />
<path id= "52" d=" M -17.8403 5.21334 L -19.2579 4.39486 " />
<path d="M-7.42462 7.55259 A3 1.73205 180 0 1 -3.18198 7.55259" />
<path d="M-17.213 3.33595 A6.25 3.60844 -120 0 0 -17.8403 5.21334" />
<path d="M-24.3952 -2.24537 A3 1.73205 180 0 1 -22.6274 -2.7406" />
<path d="M-6.14233 7.99078 A1.6 0.92376 180 0 1 -4.46427 7.99078" />
<path d="M-23.1129 -1.80718 A1.6 0.92376 180 0 1 -22.6274 -1.92155" />
</g>
</g>



</svg>

