<?xml version="1.0" encoding="UTF-8"?>

<svg xmlns="http://www.w3.org/2000/svg" version="1.1"
	width="297mm"
	height="210mm"
	viewBox="0 0 297 210">
	<!-- Working space 0 0 297 210 -->
	<defs>
		<radialGradient
			id="radialGradient3661"
			gradientUnits="userSpaceOnUse"
			cy="29.149"
			cx="282.65"
			gradientTransform="matrix(.14777 .23089 -.24680 .15795 -26.318 -62.617)"
			r="19.571">
				<stop stop-color="#71b2f8" offset="0"/>
				<stop stop-color="#002795" offset="1"/>
		</radialGradient>
		<radialGradient
			id="radialGradient3817"
			gradientUnits="userSpaceOnUse"
			cy="33.9"
			cx="270.58"
			gradientTransform="matrix(.26631 .065024 -.17931 .73438 -60.668 -36.938)"
			r="19.571">
				<stop stop-color="#ff6d0f" offset="0"/>
				<stop stop-color="#ff1000" offset="1"/>
		</radialGradient>
	</defs>
	<!-- Set display:none to hide FreeCAD Logo -->
	<g
		style="display:inline"
		id="freecad-logo"
		transform="translate(271, 185) scale(1)"
		fill-rule="evenodd"
		stroke-width=".45621">
		<path d="m0.22811 0.22835v13.256h2.9558v-5.1876h2.09v-2.0452h-2.09v-2.2075h5.1486v-3.8087l-8.1044-0.0075z"
			stroke="#370700"
			fill="url(#radialGradient3817)"/>
		<path d="m13.386 4.1792-1.7193 0.98645-0.75925-0.26348-0.72439-1.8513-1.1395 0.05988-0.51976 1.9144-0.72743 0.34835-1.8143-0.79367-0.76632 0.85156 0.98645 1.7193-0.26957 0.75702-1.8513 0.72439 0.065967 1.1417 1.9144 0.51976 0.34835 0.72743-0.79976 1.8121 0.85156 0.76632 1.7193-0.98645 0.76311 0.27179 0.7183 1.8491 1.1478-0.06375 0.51367-1.9166 0.72743-0.34835 1.8182 0.80198 0.76632-0.85156-0.98645-1.7193 0.2657-0.76533 1.8491-0.7183-0.05766-1.1456-1.9166-0.51367-0.34835-0.72743 0.7959-1.8204-0.85156-0.76632zm-2.5751 2.8195 0.35295 0.20478 0.30579 0.27725 0.24481 0.33087 0.17611 0.36787 0.10354 0.39656 0.01715 0.4064-0.0587 0.4063-0.13396 0.38571-0.2131 0.35681-0.26894 0.30192-0.33087 0.24481-0.36787 0.17611-0.39656 0.10354-0.40863 0.02325-0.4063-0.0587-0.38571-0.13396-0.35681-0.2131-0.2997-0.27503-0.24703-0.32478-0.17611-0.36787-0.10132-0.40264-0.02324-0.40863 0.05869-0.4063 0.13396-0.38571 0.21087-0.35072 0.27116-0.30801 0.33087-0.24481 0.36787-0.17611 0.40264-0.10132 0.40641-0.01715 0.4063 0.05869 0.38571 0.13396z" 
		stroke="#000137"
		fill="url(#radialGradient3661)"/>
	</g>
<g id="Ortho_0_0"
   transform="rotate(-90,73.1667,155.667) translate(73.1667,155.667) scale(1,1)"
  >
<g   stroke="rgb(0, 0, 0)"
   stroke-width="0.35"
   stroke-linecap="butt"
   stroke-linejoin="miter"
   fill="none"
   transform="scale(1,-1)"
  >
<path id= "1" d=" M 0 -28 L 0 -44 " />
<path id= "2" d=" M 0 -44 L -8 -44 " />
<path id= "3" d=" M -8 -38 L -8 -44 " />
<path id= "4" d=" M -8 -28 L -8 -30 " />
<path id= "5" d=" M -7 -38 L -8 -38 " />
<path id= "6" d=" M -8 -30 L -7 -30 " />
<path id= "7" d=" M -7 -30 L -7 -38 " />
<path id= "8" d=" M 0 -44 L 0 -44.5 " />
<path id= "9" d=" M 0 -44.5 L -8 -44.5 " />
<path id= "10" d=" M -8 -44 L -8 -44.5 " />
<path id= "11" d=" M -11 -28 L -12 -28 " />
<path id= "12" d=" M 0 -28 L -11 -28 " />
<path id= "13" d=" M -30 -28 L -12 -28 " />
<path id= "14" d=" M -7 -33 L -7 -38 " />
<path id= "15" d=" M -11 -28 L -8 -25 " />
<path id= "16" d=" M -12 -28 L -12 -22 " />
<path id= "17" d=" M -8 -25 L -8 -22 " />
<path id= "18" d=" M -8 -22 L -12 -22 " />
<path id= "19" d=" M 0 -28 L 0 -25 " />
<path id= "20" d=" M 0 -25 L -8 -25 " />
<path id= "21" d=" M 0 25 L 0 28 " />
<path id= "22" d=" M 1.68754e-14 26 L 1.73195e-14 28 " />
<path id= "23" d=" M 0 25 L 0 -25 " />
<path id= "24" d=" M 9.86076e-32 1 L 5.55112e-15 26 " />
<path id= "25" d=" M 4.88498e-15 -28 L 5.32907e-15 -26 " />
<path id= "26" d=" M 1.08802e-14 -1 L 1.13243e-14 1 " />
<path id= "27" d=" M -1.53267e-46 -26 L 5.55112e-15 -1 " />
<path id= "28" d=" M -12 -22 L -30 -22 " />
<path id= "29" d=" M -30 -22 L -30 -28 " />
<path id= "30" d=" M -30 -28 L -30 -34 " />
<path id= "31" d=" M -7 -37 L -27 -37 " />
<path id= "32" d=" M -30 -34 L -27 -37 " />
<circle cx ="-25" cy ="-31.5" r ="3" /><path d="M-7.59808 -30 A3 3 0 0 1 -7 -33.7361" /><path id= "35" d=" M 0 34 L 0 28 " />
<path id= "36" d=" M -11 28 L -12 28 " />
<path id= "37" d=" M 0 28 L -11 28 " />
<path id= "38" d=" M -12 28 L -30 28 " />
<path id= "39" d=" M -11 28 L -12 28 " />
<path id= "40" d=" M -8 22 L -8 -22 " />
<path id= "41" d=" M -8 22 L -8 25 " />
<path id= "42" d=" M 0 25 L -8 25 " />
<path id= "43" d=" M -8 25 L -11 28 " />
<path id= "44" d=" M -2.44249e-15 34 L -3 37 " />
<path id= "45" d=" M -3 37 L -27 37 " />
<path id= "46" d=" M -27 37 L -30 34 " />
<path id= "47" d=" M -30 34 L -30 28 " />
<circle cx ="-25" cy ="31.5" r ="3" /><circle cx ="-5" cy ="31.5" r ="3" /><path id= "50" d=" M -8 22 L -12 22 " />
<path id= "51" d=" M -12 22 L -12 28 " />
<path id= "52" d=" M -30 28 L -30 22 " />
<path id= "53" d=" M -30 22 L -12 22 " />
<circle cx ="-25" cy ="-31.5" r ="1.6" /><circle cx ="-25" cy ="31.5" r ="1.6" /><circle cx ="-5" cy ="31.5" r ="1.6" /><circle cx ="-25" cy ="31.5" r ="3" /><circle cx ="-5" cy ="31.5" r ="3" /><path id= "59" d=" M -8 5.5 L -11 5.5 " />
<path id= "60" d=" M -11 5.5 L -11 -5.5 " />
<path id= "61" d=" M -11 -5.5 L -8 -5.5 " />
<path id= "62" d=" M -8 -7.5 L -13 -7.5 " />
<path id= "63" d=" M -13 7.5 L -13 -7.5 " />
<path id= "64" d=" M -8 7.5 L -13 7.5 " />
</g>
</g>



<g id="Ortho_0_1"
   transform="rotate(90,73.1667,84.3333) translate(73.1667,84.3333) scale(1,1)"
  >
<g   stroke="rgb(0, 0, 0)"
   stroke-width="0.35"
   stroke-linecap="butt"
   stroke-linejoin="miter"
   fill="none"
   transform="scale(1,-1)"
  >
<path id= "1" d=" M 17.5 28 L 17.5 44 " />
<path id= "2" d=" M 17.5 44 L 17 44.5 " />
<path id= "3" d=" M -7.5 28 L 17.5 28 " />
<path id= "4" d=" M 17 44.5 L 12.25 44.5 " />
<path id= "5" d=" M -7.5 44 L -7.5 28 " />
<path id= "6" d=" M 12.25 44.5 L 11.75 44 " />
<path id= "7" d=" M -7.5 44 L -7 44.5 " />
<path id= "8" d=" M 11.75 44 L 11.75 33 " />
<path id= "9" d=" M -2.25 44.5 L -7 44.5 " />
<path id= "10" d=" M 11.75 33 L -1.75 33 " />
<path id= "11" d=" M -2.25 44.5 L -1.75 44 " />
<path id= "12" d=" M -1.75 33 L -1.75 44 " />
<circle cx ="14.5" cy ="42" r ="1.6" /><circle cx ="-4.5" cy ="42" r ="1.6" /><path id= "15" d=" M 44 28 L 38.5826 28 " />
<path d="M29.4174,28 L29.8098,28  L30.3169,28  L30.9248,28  L31.6168,28  L32.374,28  L33.1757,28  L34,28  L34.8243,28  L35.626,28  L36.3832,28  L37.0752,28  L37.6831,28  L38.1902,28  L38.5826,28 " /><path id= "17" d=" M 29.4174 28 L 17.5 28 " />
<path id= "18" d=" M -38.5826 28 L -52 28 " />
<path d="M-38.5826,28 L-38.1902,28  L-37.6831,28  L-37.0752,28  L-36.3832,28  L-35.626,28  L-34.8243,28  L-34,28  L-33.1757,28  L-32.374,28  L-31.6168,28  L-30.9248,28  L-30.3169,28  L-29.8098,28  L-29.4174,28 " /><path id= "20" d=" M -7.5 28 L -29.4174 28 " />
<path id= "21" d=" M -29.4174 28 L -29.4174 26 " />
<path id= "22" d=" M -26.254 26 L -29.4174 26 " />
<path id= "23" d=" M -26.254 26 L -26.254 1 " />
<path id= "24" d=" M -26.254 1 L -29.4174 1 " />
<path id= "25" d=" M -29.4174 1 L -29.4174 -1 " />
<path id= "26" d=" M -26.254 -1 L -29.4174 -1 " />
<path id= "27" d=" M -26.254 -1 L -26.254 -26 " />
<path id= "28" d=" M -26.254 -26 L -29.4174 -26 " />
<path id= "29" d=" M -29.4174 -26 L -29.4174 -28 " />
<path id= "30" d=" M -29.4174 -28 L 29.4174 -28 " />
<path id= "31" d=" M 29.4174 -26 L 29.4174 -28 " />
<path id= "32" d=" M 29.4174 -26 L 26.254 -26 " />
<path id= "33" d=" M 26.254 -1 L 26.254 -26 " />
<path id= "34" d=" M 29.4174 -1 L 26.254 -1 " />
<path id= "35" d=" M 29.4174 1 L 29.4174 -1 " />
<path id= "36" d=" M 29.4174 1 L 26.254 1 " />
<path id= "37" d=" M 26.254 26 L 26.254 1 " />
<path id= "38" d=" M 29.4174 26 L 26.254 26 " />
<path id= "39" d=" M 29.4174 28 L 29.4174 26 " />
<circle cx ="0" cy ="0" r ="12" /><circle cx ="0" cy ="16" r ="1.6" /><circle cx ="0" cy ="-16" r ="1.6" /><path id= "43" d=" M -24 16 L -26 16 " />
<path id= "44" d=" M -24 20 L -24 16 " />
<path id= "45" d=" M -26 16 L -26 20 " />
<path id= "46" d=" M -26 20 L -24 20 " />
<path id= "47" d=" M -26 6 L -26 10 " />
<path id= "48" d=" M -24 6 L -26 6 " />
<path id= "49" d=" M -26 10 L -24 10 " />
<path id= "50" d=" M -24 10 L -24 6 " />
<path id= "51" d=" M -26 -16 L -24 -16 " />
<path id= "52" d=" M -26 -20 L -26 -16 " />
<path id= "53" d=" M -24 -16 L -24 -20 " />
<path id= "54" d=" M -24 -20 L -26 -20 " />
<path id= "55" d=" M -24 -6 L -24 -10 " />
<path id= "56" d=" M -26 -6 L -24 -6 " />
<path id= "57" d=" M -24 -10 L -26 -10 " />
<path id= "58" d=" M -26 -10 L -26 -6 " />
<path id= "59" d=" M 24 20 L 26 20 " />
<path id= "60" d=" M 24 16 L 24 20 " />
<path id= "61" d=" M 26 20 L 26 16 " />
<path id= "62" d=" M 26 16 L 24 16 " />
<path id= "63" d=" M 24 6 L 24 10 " />
<path id= "64" d=" M 26 6 L 24 6 " />
<path id= "65" d=" M 24 10 L 26 10 " />
<path id= "66" d=" M 26 10 L 26 6 " />
<path id= "67" d=" M 26 -6 L 26 -10 " />
<path id= "68" d=" M 24 -6 L 26 -6 " />
<path id= "69" d=" M 26 -10 L 24 -10 " />
<path id= "70" d=" M 24 -10 L 24 -6 " />
<path id= "71" d=" M 24 -20 L 24 -16 " />
<path id= "72" d=" M 26 -20 L 24 -20 " />
<path id= "73" d=" M 24 -16 L 26 -16 " />
<path id= "74" d=" M 26 -16 L 26 -20 " />
<circle cx ="15.5" cy ="-15.5" r ="3" /><circle cx ="-15.5" cy ="15.5" r ="3" /><circle cx ="-15.5" cy ="-15.5" r ="3" /><circle cx ="15.5" cy ="15.5" r ="3" /><path id= "79" d=" M 44 28 L 47 25 " />
<path id= "80" d=" M 38.5826 -28 L 44 -28 " />
<path id= "81" d=" M 47 -25 L 44 -28 " />
<path id= "82" d=" M 38.5826 -26 L 38.5826 -28 " />
<path id= "83" d=" M 47 -25 L 47 25 " />
<path id= "84" d=" M 41.746 -26 L 38.5826 -26 " />
<path id= "85" d=" M 41.746 -1 L 41.746 -26 " />
<path id= "86" d=" M 41.746 -1 L 38.5826 -1 " />
<path id= "87" d=" M 38.5826 28 L 38.5826 26 " />
<path id= "88" d=" M 38.5826 1 L 38.5826 -1 " />
<path id= "89" d=" M 41.746 26 L 38.5826 26 " />
<path id= "90" d=" M 41.746 1 L 38.5826 1 " />
<path id= "91" d=" M 41.746 26 L 41.746 1 " />
<path id= "92" d=" M 44 20 L 44 16 " />
<path id= "93" d=" M 42 20 L 44 20 " />
<path id= "94" d=" M 44 16 L 42 16 " />
<path id= "95" d=" M 42 16 L 42 20 " />
<path id= "96" d=" M 42 6 L 42 10 " />
<path id= "97" d=" M 44 6 L 42 6 " />
<path id= "98" d=" M 42 10 L 44 10 " />
<path id= "99" d=" M 44 10 L 44 6 " />
<path id= "100" d=" M 42 -6 L 44 -6 " />
<path id= "101" d=" M 42 -10 L 42 -6 " />
<path id= "102" d=" M 44 -6 L 44 -10 " />
<path id= "103" d=" M 44 -10 L 42 -10 " />
<path id= "104" d=" M 44 -20 L 42 -20 " />
<path id= "105" d=" M 44 -16 L 44 -20 " />
<path id= "106" d=" M 42 -20 L 42 -16 " />
<path id= "107" d=" M 42 -16 L 44 -16 " />
<path d="M29.4174,26 L29.8098,26  L30.3169,26  L30.9248,26  L31.6168,26  L32.374,26  L33.1757,26  L34,26  L34.8243,26  L35.626,26  L36.3832,26  L37.0752,26  L37.6831,26  L38.1902,26  L38.5826,26 " /><path id= "109" d=" M -52 28 L -52 34 " />
<path id= "110" d=" M -52 34 L -52 37 " />
<path id= "111" d=" M -52 34 L -59 34 " />
<path id= "112" d=" M -59 34 L -59 -34 " />
<path id= "113" d=" M -59 -34 L -52 -34 " />
<path id= "114" d=" M -52 -34 L -52 -28 " />
<path id= "115" d=" M -38.5826 28 L -38.5826 26 " />
<path id= "116" d=" M -52 -28 L -38.5826 -28 " />
<path id= "117" d=" M -38.5826 26 L -41.746 26 " />
<path id= "118" d=" M -38.5826 -26 L -38.5826 -28 " />
<path id= "119" d=" M -41.746 26 L -41.746 1 " />
<path id= "120" d=" M -38.5826 -26 L -41.746 -26 " />
<path id= "121" d=" M -38.5826 1 L -41.746 1 " />
<path id= "122" d=" M -41.746 -1 L -41.746 -26 " />
<path id= "123" d=" M -38.5826 1 L -38.5826 -1 " />
<path id= "124" d=" M -38.5826 -1 L -41.746 -1 " />
<path id= "125" d=" M -44 6 L -44 10 " />
<path id= "126" d=" M -42 6 L -44 6 " />
<path id= "127" d=" M -44 10 L -42 10 " />
<path id= "128" d=" M -42 10 L -42 6 " />
<path id= "129" d=" M -42 20 L -44 20 " />
<path id= "130" d=" M -42 16 L -42 20 " />
<path id= "131" d=" M -44 20 L -44 16 " />
<path id= "132" d=" M -44 16 L -42 16 " />
<path id= "133" d=" M -44 -20 L -44 -16 " />
<path id= "134" d=" M -42 -20 L -44 -20 " />
<path id= "135" d=" M -44 -16 L -42 -16 " />
<path id= "136" d=" M -42 -16 L -42 -20 " />
<path id= "137" d=" M -42 -10 L -44 -10 " />
<path id= "138" d=" M -42 -6 L -42 -10 " />
<path id= "139" d=" M -44 -10 L -44 -6 " />
<path id= "140" d=" M -44 -6 L -42 -6 " />
<path d="M-38.5826,26 L-38.1902,26  L-37.6831,26  L-37.0752,26  L-36.3832,26  L-35.626,26  L-34.8243,26  L-34,26  L-33.1757,26  L-32.374,26  L-31.6168,26  L-30.9248,26  L-30.3169,26  L-29.8098,26  L-29.4174,26 " /><path d="M-38.5826,1 L-38.1902,1  L-37.6831,1  L-37.0752,1  L-36.3832,1  L-35.626,1  L-34.8243,1  L-34,1  L-33.1757,1  L-32.374,1  L-31.6168,1  L-30.9248,1  L-30.3169,1  L-29.8098,1  L-29.4174,1 " /><path d="M-38.5826,-1 L-38.1902,-1  L-37.6831,-1  L-37.0752,-1  L-36.3832,-1  L-35.626,-1  L-34.8243,-1  L-34,-1  L-33.1757,-1  L-32.374,-1  L-31.6168,-1  L-30.9248,-1  L-30.3169,-1  L-29.8098,-1  L-29.4174,-1 " /><path d="M-38.5826,-26 L-38.1902,-26  L-37.6831,-26  L-37.0752,-26  L-36.3832,-26  L-35.626,-26  L-34.8243,-26  L-34,-26  L-33.1757,-26  L-32.374,-26  L-31.6168,-26  L-30.9248,-26  L-30.3169,-26  L-29.8098,-26  L-29.4174,-26 " /><path d="M-38.5826,-28 L-38.1902,-28  L-37.6831,-28  L-37.0752,-28  L-36.3832,-28  L-35.626,-28  L-34.8243,-28  L-34,-28  L-33.1757,-28  L-32.374,-28  L-31.6168,-28  L-30.9248,-28  L-30.3169,-28  L-29.8098,-28  L-29.4174,-28 " /><path d="M29.4174,-28 L29.8098,-28  L30.3169,-28  L30.9248,-28  L31.6168,-28  L32.374,-28  L33.1757,-28  L34,-28  L34.8243,-28  L35.626,-28  L36.3832,-28  L37.0752,-28  L37.6831,-28  L38.1902,-28  L38.5826,-28 " /><path d="M29.4174,-26 L29.8098,-26  L30.3169,-26  L30.9248,-26  L31.6168,-26  L32.374,-26  L33.1757,-26  L34,-26  L34.8243,-26  L35.626,-26  L36.3832,-26  L37.0752,-26  L37.6831,-26  L38.1902,-26  L38.5826,-26 " /><path d="M29.4174,-1 L29.8098,-1  L30.3169,-1  L30.9248,-1  L31.6168,-1  L32.374,-1  L33.1757,-1  L34,-1  L34.8243,-1  L35.626,-1  L36.3832,-1  L37.0752,-1  L37.6831,-1  L38.1902,-1  L38.5826,-1 " /><path d="M29.4174,1 L29.8098,1  L30.3169,1  L30.9248,1  L31.6168,1  L32.374,1  L33.1757,1  L34,1  L34.8243,1  L35.626,1  L36.3832,1  L37.0752,1  L37.6831,1  L38.1902,1  L38.5826,1 " /><path id= "150" d=" M 26 20 L 26 16 " />
<path id= "151" d=" M 26 10 L 26 6 " />
<path id= "152" d=" M 26 -6 L 26 -10 " />
<path id= "153" d=" M 26 -16 L 26 -20 " />
<path id= "154" d=" M -60 35 L -60 37 " />
<path id= "155" d=" M -60 35 L -60 -35 " />
<path id= "156" d=" M -60 -35 L -60 -37 " />
<path id= "157" d=" M -59 34 L -60 35 " />
<path id= "158" d=" M -52 37 L -60 37 " />
<path id= "159" d=" M -59 -34 L -60 -35 " />
<path id= "160" d=" M -60 -37 L -52 -37 " />
<path id= "161" d=" M -52 -34 L -52 -37 " />
<path d="M-52,-34 L-52,-34.0672  L-52,-34.1298  L-52,-34.1879  L-52,-34.2413  L-52,-34.2899  L-52,-34.3335  L-52,-34.3723  L-52,-34.406  L-52,-34.4346  L-52,-34.4581  L-52,-34.4764  L-52,-34.4895  L-52,-34.4974  L-52,-34.5 " /><path id= "163" d=" M -42 10 L -42 6 " />
<path id= "164" d=" M -42 16 L -42 20 " />
<path id= "165" d=" M -42 -16 L -42 -20 " />
<path id= "166" d=" M -42 -6 L -42 -10 " />
<circle cx ="15.5" cy ="-15.5" r ="1.6" /><circle cx ="-15.5" cy ="15.5" r ="1.6" /><circle cx ="-15.5" cy ="-15.5" r ="1.6" /><circle cx ="15.5" cy ="15.5" r ="1.6" /></g>
</g>



<g id="Ortho_1_0"
   transform="rotate(-90,200.833,155.667) translate(200.833,155.667) scale(1,1)"
  >
<g   stroke="rgb(0, 0, 0)"
   stroke-width="0.35"
   stroke-linecap="butt"
   stroke-linejoin="miter"
   fill="none"
   transform="scale(1,-1)"
  >
<path id= "1" d=" M 0 17.5 L -8 17.5 " />
<path id= "2" d=" M 0 17.5 L 0 17 " />
<path id= "3" d=" M 0 17 L 0 12.25 " />
<path id= "4" d=" M -8.88178e-16 12.25 L -8.88178e-16 11.75 " />
<path id= "5" d=" M 0 -7.5 L 0 -7 " />
<path id= "6" d=" M 0 -2.25 L 0 -7 " />
<path id= "7" d=" M 0 11.75 L 0 -1.75 " />
<path id= "8" d=" M 0 -2.25 L 0 -1.75 " />
<path id= "9" d=" M 0 17 L -8 17 " />
<path id= "10" d=" M -8 17.5 L -8 17 " />
<path id= "11" d=" M -9.99999 -47 L -18 -47 " />
<path d="M-10 -41 A3 3 0 0 0 -9.99998 -47" /><path d="M-18 -47 A3 3 0 1 0 -18 -41" /><path id= "14" d=" M -18 -41 L -10 -41 " />
<path id= "15" d=" M -11 44 L -12 43 " />
<path id= "16" d=" M 0 44 L -11 44 " />
<path id= "17" d=" M -12 -26 L -12 43 " />
<path id= "18" d=" M 0 44 L 0 38.5826 " />
<path id= "19" d=" M -30 -44 L -12 -26 " />
<path d="M1.02141e-14 29.4174 A5 5 0 0 0 1.28786e-14 38.5826" /><path id= "21" d=" M -30 -44 L -30 -52 " />
<path id= "22" d=" M 0 29.4174 L 0 17.5 " />
<path id= "23" d=" M 0 -38.5826 L 0 -52 " />
<path d="M1.02141e-14 -38.5826 A5 5 0 0 0 1.28786e-14 -29.4174" /><path id= "25" d=" M 0 -7.5 L 0 -29.4174 " />
<path id= "26" d=" M -8 17 L -8 12.25 " />
<path id= "27" d=" M -8 12.25 L -8 11.75 " />
<path id= "28" d=" M -8 -7.5 L -8 -7 " />
<path id= "29" d=" M -8 -2.25 L -8 11.75 " />
<path id= "30" d=" M -8 17 L -8 17.5 " />
<path id= "31" d=" M -7 11.75 L -7 -1.75 " />
<path d="M0,12 L0,11.9987  L0,11.9949  L0,11.9885  L0,11.9795  L0,11.968  L0,11.954  L0,11.9373  L0,11.9182  L0,11.8965  L0,11.8722  L0,11.8455  L0,11.8162  L0,11.7843  L0,11.75 " /><path id= "33" d=" M -8 12.25 L 0 12.25 " />
<path id= "34" d=" M 0 -7.5 L -8 -7.5 " />
<path id= "35" d=" M -8 11.75 L 0 11.75 " />
<path id= "36" d=" M 0 -7 L -8 -7 " />
<path id= "37" d=" M -8 -7.5 L -8 -7 " />
<path id= "38" d=" M 0 11.75 L -7 11.75 " />
<path id= "39" d=" M 0 -2.25 L -8 -2.25 " />
<path id= "40" d=" M -8 -2.25 L -8 -7 " />
<path id= "41" d=" M 0 -1.75 L -7 -1.75 " />
<path id= "42" d=" M 0 -1.75 L -8 -1.75 " />
<path id= "43" d=" M -8 -2.25 L -8 -1.75 " />
<path id= "44" d=" M -9.99999 -46 L -18 -46 " />
<path d="M-10 -42 A2 2 0 0 0 -9.99999 -46" /><path d="M-18 -46 A2 2 0 1 0 -18 -42" /><path id= "47" d=" M -18 -42 L -10 -42 " />
<path id= "48" d=" M -11 44 L -8 47 " />
<path id= "49" d=" M 0 44 L 0 47 " />
<path id= "50" d=" M 0 47 L -8 47 " />
<path id= "51" d=" M -30 -52 L -30 -60 " />
<path id= "52" d=" M 1.11022e-16 -52 L -3 -52 " />
<path id= "53" d=" M -3 -52 L -27 -52 " />
<path id= "54" d=" M -30 -52 L -27 -52 " />
<path id= "55" d=" M 0 -52 L 0 -59 " />
<path d="M1.59872e-14 -38.5826 A5 5 0 0 0 1.86517e-14 -29.4174" /><path d="M2.22045e-14 -38.5826 A5 5 0 0 0 -1.9984e-14 -29.4174" /><path d="M2.22045e-14 29.4174 A5 5 0 0 0 -1.9984e-14 38.5826" /><path d="M1.59872e-14 29.4174 A5 5 0 0 0 1.86517e-14 38.5826" /><path id= "60" d=" M -1 -60 L -3 -60 " />
<path id= "61" d=" M -3 -60 L -27 -60 " />
<path id= "62" d=" M -30 -60 L -27 -60 " />
<path id= "63" d=" M -8 -60 L -30 -60 " />
<path d="M-5,-60 L-4.82086,-60  L-4.64397,-60  L-4.47155,-60  L-4.30579,-60  L-4.14875,-60  L-4.00242,-60  L-3.86863,-60  L-3.74907,-60  L-3.64524,-60  L-3.55845,-60  L-3.48979,-60  L-3.44012,-60  L-3.41006,-60  L-3.4,-60 " /><path d="M-6.6,-60 L-6.58994,-60  L-6.55988,-60  L-6.51021,-60  L-6.44155,-60  L-6.35476,-60  L-6.25093,-60  L-6.13137,-60  L-5.99758,-60  L-5.85125,-60  L-5.69421,-60  L-5.52845,-60  L-5.35603,-60  L-5.17914,-60  L-5,-60 " /><path d="M-25,-60 L-24.8209,-60  L-24.644,-60  L-24.4716,-60  L-24.3058,-60  L-24.1487,-60  L-24.0024,-60  L-23.8686,-60  L-23.7491,-60  L-23.6452,-60  L-23.5584,-60  L-23.4898,-60  L-23.4401,-60  L-23.4101,-60  L-23.4,-60 " /><path d="M-26.6,-60 L-26.5899,-60  L-26.5599,-60  L-26.5102,-60  L-26.4416,-60  L-26.3548,-60  L-26.2509,-60  L-26.1314,-60  L-25.9976,-60  L-25.8513,-60  L-25.6942,-60  L-25.5284,-60  L-25.356,-60  L-25.1791,-60  L-25,-60 " /><path id= "68" d=" M -27 -52 L -27 -60 " />
<path id= "69" d=" M 1.77636e-15 -59 L -1 -60 " />
<path id= "70" d=" M -3 -52 L -3 -60 " />
<path id= "71" d=" M -30 -44 L -12 -26 " />
</g>
</g>



</svg>

