<?xml version="1.0" encoding="UTF-8"?>

<svg xmlns="http://www.w3.org/2000/svg" version="1.1"
	width="297mm"
	height="210mm"
	viewBox="0 0 297 210">
	<!-- Working space 0 0 297 210 -->
	<defs>
		<radialGradient
			id="radialGradient3661"
			gradientUnits="userSpaceOnUse"
			cy="29.149"
			cx="282.65"
			gradientTransform="matrix(.14777 .23089 -.24680 .15795 -26.318 -62.617)"
			r="19.571">
				<stop stop-color="#71b2f8" offset="0"/>
				<stop stop-color="#002795" offset="1"/>
		</radialGradient>
		<radialGradient
			id="radialGradient3817"
			gradientUnits="userSpaceOnUse"
			cy="33.9"
			cx="270.58"
			gradientTransform="matrix(.26631 .065024 -.17931 .73438 -60.668 -36.938)"
			r="19.571">
				<stop stop-color="#ff6d0f" offset="0"/>
				<stop stop-color="#ff1000" offset="1"/>
		</radialGradient>
	</defs>
	<!-- Set display:none to hide FreeCAD Logo -->
	<g
		style="display:inline"
		id="freecad-logo"
		transform="translate(271, 185) scale(1)"
		fill-rule="evenodd"
		stroke-width=".45621">
		<path d="m0.22811 0.22835v13.256h2.9558v-5.1876h2.09v-2.0452h-2.09v-2.2075h5.1486v-3.8087l-8.1044-0.0075z"
			stroke="#370700"
			fill="url(#radialGradient3817)"/>
		<path d="m13.386 4.1792-1.7193 0.98645-0.75925-0.26348-0.72439-1.8513-1.1395 0.05988-0.51976 1.9144-0.72743 0.34835-1.8143-0.79367-0.76632 0.85156 0.98645 1.7193-0.26957 0.75702-1.8513 0.72439 0.065967 1.1417 1.9144 0.51976 0.34835 0.72743-0.79976 1.8121 0.85156 0.76632 1.7193-0.98645 0.76311 0.27179 0.7183 1.8491 1.1478-0.06375 0.51367-1.9166 0.72743-0.34835 1.8182 0.80198 0.76632-0.85156-0.98645-1.7193 0.2657-0.76533 1.8491-0.7183-0.05766-1.1456-1.9166-0.51367-0.34835-0.72743 0.7959-1.8204-0.85156-0.76632zm-2.5751 2.8195 0.35295 0.20478 0.30579 0.27725 0.24481 0.33087 0.17611 0.36787 0.10354 0.39656 0.01715 0.4064-0.0587 0.4063-0.13396 0.38571-0.2131 0.35681-0.26894 0.30192-0.33087 0.24481-0.36787 0.17611-0.39656 0.10354-0.40863 0.02325-0.4063-0.0587-0.38571-0.13396-0.35681-0.2131-0.2997-0.27503-0.24703-0.32478-0.17611-0.36787-0.10132-0.40264-0.02324-0.40863 0.05869-0.4063 0.13396-0.38571 0.21087-0.35072 0.27116-0.30801 0.33087-0.24481 0.36787-0.17611 0.40264-0.10132 0.40641-0.01715 0.4063 0.05869 0.38571 0.13396z" 
		stroke="#000137"
		fill="url(#radialGradient3661)"/>
	</g>
<g id="View"
   transform="rotate(60,149.914,93.7732) translate(149.914,93.7732) scale(1,1)"
  >
<g   stroke="rgb(0, 0, 0)"
   stroke-width="0.35"
   stroke-linecap="butt"
   stroke-linejoin="miter"
   fill="none"
   transform="scale(1,-1)"
  >
<path id= "1" d=" M 12.3744 30.0062 L 12.3744 43.0702 " />
<path id= "2" d=" M 12.3744 43.0702 L 18.0312 39.8042 " />
<path id= "3" d=" M 18.0312 34.9052 L 18.0312 39.8042 " />
<path id= "4" d=" M 17.3241 35.3135 L 18.0312 34.9052 " />
<path id= "5" d=" M 17.3241 32.864 L 17.3241 35.3135 " />
<path id= "6" d=" M 12.3744 43.0702 L 12.0208 43.2743 " />
<path id= "7" d=" M -5.3033 19.8 L 12.3744 30.0062 " />
<path id= "8" d=" M 12.0208 43.2743 L 8.66206 41.3351 " />
<path id= "9" d=" M -5.3033 32.864 L -5.3033 19.8 " />
<path id= "10" d=" M 8.66206 41.3351 L 8.3085 40.7228 " />
<path id= "11" d=" M -5.3033 32.864 L -4.94975 33.4764 " />
<path id= "12" d=" M 8.3085 40.7228 L 8.3085 31.7413 " />
<path id= "13" d=" M -1.59099 35.4155 L -4.94975 33.4764 " />
<path id= "14" d=" M 8.3085 31.7413 L -1.23744 26.23 " />
<path id= "15" d=" M -1.59099 35.4155 L -1.23744 35.2114 " />
<path id= "16" d=" M -1.23744 26.23 L -1.23744 35.2114 " />
<path d="M11.3844 40.8657 A1.6 0.92376 60 0 1 11.053 41.5981" />
<path d="M11.053 41.5981 A1.6 0.92376 60 0 1 9.45305 38.8268" />
<path d="M9.45305 38.8268 A1.6 0.92376 60 0 1 11.3844 40.8657" />
<path d="M-2.05061 33.1089 A1.6 0.92376 60 0 1 -2.38198 33.8414" />
<path d="M-2.38198 33.8414 A1.6 0.92376 60 0 1 -3.98198 31.0701" />
<path d="M-3.98198 31.0701 A1.6 0.92376 60 0 1 -2.05061 33.1089" />
<path id= "23" d=" M 31.1127 40.8248 L 27.282 38.6132 " />
<path d="M20.8013 34.8715 A5 2.88675 180 0 1 27.4232 36.7423" />
<path id= "25" d=" M 20.8013 34.8715 L 12.3744 30.0062 " />
<path id= "26" d=" M -27.282 7.11063 L -36.7696 1.63299 " />
<path d="M-27.282 7.11063 A5 2.88675 180 0 1 -20.66 8.98146" />
<path id= "28" d=" M -5.3033 19.8 L -20.8013 10.8523 " />
<path id= "29" d=" M 18.0312 34.9052 L 17.3241 34.497 " />
<path id= "30" d=" M -20.8013 10.8523 L -20.8013 9.2193 " />
<path id= "31" d=" M -18.5644 10.5107 L -20.8013 9.2193 " />
<path id= "32" d=" M -18.5644 10.5107 L -18.5644 -9.90167 " />
<path id= "33" d=" M -18.5644 -9.90167 L -20.8013 -11.1931 " />
<path id= "34" d=" M -20.8013 -11.1931 L -20.8013 -12.8261 " />
<path id= "35" d=" M -18.5644 -11.5347 L -20.8013 -12.8261 " />
<path id= "36" d=" M -18.5644 -11.5347 L -18.5644 -31.9471 " />
<path id= "37" d=" M -18.5644 -31.9471 L -20.8013 -33.2385 " />
<path id= "38" d=" M -20.8013 -33.2385 L -20.8013 -34.8715 " />
<path id= "39" d=" M -20.8013 -34.8715 L 20.8013 -10.8523 " />
<path id= "40" d=" M 20.8013 -9.2193 L 20.8013 -10.8523 " />
<path id= "41" d=" M 20.8013 -9.2193 L 18.5644 -10.5107 " />
<path id= "42" d=" M 18.5644 9.90167 L 18.5644 -10.5107 " />
<path id= "43" d=" M 20.8013 11.1931 L 18.5644 9.90167 " />
<path id= "44" d=" M 20.8013 12.8261 L 20.8013 11.1931 " />
<path id= "45" d=" M 20.8013 12.8261 L 18.5644 11.5347 " />
<path id= "46" d=" M 18.5644 31.9471 L 18.5644 11.5347 " />
<path id= "47" d=" M 20.8013 33.2385 L 18.5644 31.9471 " />
<path id= "48" d=" M 20.8013 34.8715 L 20.8013 33.2385 " />
<path d="M8.48528 4.89898 A12 6.9282 60 0 1 6 10.3923" />
<path d="M6 10.3923 A12 6.9282 60 0 1 -6 -10.3923" />
<path d="M-6 -10.3923 A12 6.9282 60 0 1 8.48528 4.89898" />
<path d="M1.13137 13.7171 A1.6 0.92376 60 0 1 0.8 14.4496" />
<path d="M0.8 14.4496 A1.6 0.92376 60 0 1 -0.8 11.6783" />
<path d="M-0.8 11.6783 A1.6 0.92376 60 0 1 1.13137 13.7171" />
<path d="M1.13137 -12.4107 A1.6 0.92376 60 0 1 0.8 -11.6783" />
<path d="M0.8 -11.6783 A1.6 0.92376 60 0 1 -0.8 -14.4496" />
<path d="M-0.8 -14.4496 A1.6 0.92376 60 0 1 1.13137 -12.4107" />
<path id= "58" d=" M -16.9706 3.26599 L -18.3848 2.44949 " />
<path id= "59" d=" M -16.9706 6.53197 L -16.9706 3.26599 " />
<path id= "60" d=" M -18.3848 2.44949 L -18.3848 5.71548 " />
<path id= "61" d=" M -18.3848 5.71548 L -16.9706 6.53197 " />
<path id= "62" d=" M -18.3848 -5.71548 L -18.3848 -2.44949 " />
<path id= "63" d=" M -16.9706 -4.89898 L -18.3848 -5.71548 " />
<path id= "64" d=" M -18.3848 -2.44949 L -16.9706 -1.63299 " />
<path id= "65" d=" M -16.9706 -1.63299 L -16.9706 -4.89898 " />
<path id= "66" d=" M -18.3848 -23.6784 L -16.9706 -22.8619 " />
<path id= "67" d=" M -18.3848 -26.9444 L -18.3848 -23.6784 " />
<path id= "68" d=" M -16.9706 -22.8619 L -16.9706 -26.1279 " />
<path id= "69" d=" M -16.9706 -26.1279 L -18.3848 -26.9444 " />
<path id= "70" d=" M -16.9706 -14.6969 L -16.9706 -17.9629 " />
<path id= "71" d=" M -18.3848 -15.5134 L -16.9706 -14.6969 " />
<path id= "72" d=" M -16.9706 -17.9629 L -18.3848 -18.7794 " />
<path id= "73" d=" M -18.3848 -18.7794 L -18.3848 -15.5134 " />
<path id= "74" d=" M 16.9706 26.1279 L 18.3848 26.9444 " />
<path id= "75" d=" M 16.9706 22.8619 L 16.9706 26.1279 " />
<path id= "76" d=" M 18.3848 26.9444 L 18.3848 23.6784 " />
<path id= "77" d=" M 18.3848 23.6784 L 16.9706 22.8619 " />
<path id= "78" d=" M 16.9706 14.6969 L 16.9706 17.9629 " />
<path id= "79" d=" M 18.3848 15.5134 L 16.9706 14.6969 " />
<path id= "80" d=" M 16.9706 17.9629 L 18.3848 18.7794 " />
<path id= "81" d=" M 18.3848 18.7794 L 18.3848 15.5134 " />
<path id= "82" d=" M 18.3848 5.71548 L 18.3848 2.44949 " />
<path id= "83" d=" M 16.9706 4.89898 L 18.3848 5.71548 " />
<path id= "84" d=" M 18.3848 2.44949 L 16.9706 1.63299 " />
<path id= "85" d=" M 16.9706 1.63299 L 16.9706 4.89898 " />
<path id= "86" d=" M 16.9706 -6.53197 L 16.9706 -3.26599 " />
<path id= "87" d=" M 18.3848 -5.71548 L 16.9706 -6.53197 " />
<path id= "88" d=" M 16.9706 -3.26599 L 18.3848 -2.44949 " />
<path id= "89" d=" M 18.3848 -2.44949 L 18.3848 -5.71548 " />
<path d="M13.0815 -5.1031 A3 1.73205 60 0 1 12.4602 -3.72977" />
<path d="M12.4602 -3.72977 A3 1.73205 60 0 1 9.46016 -8.92592" />
<path d="M9.46016 -8.92592 A3 1.73205 60 0 1 13.0815 -5.1031" />
<path d="M-8.83883 7.55259 A3 1.73205 60 0 1 -9.46016 8.92592" />
<path d="M-9.46016 8.92592 A3 1.73205 60 0 1 -12.4602 3.72977" />
<path d="M-12.4602 3.72977 A3 1.73205 60 0 1 -8.83883 7.55259" />
<path d="M-8.83883 -17.7588 A3 1.73205 60 0 1 -9.46016 -16.3855" />
<path d="M-9.46016 -16.3855 A3 1.73205 60 0 1 -12.4602 -21.5816" />
<path d="M-12.4602 -21.5816 A3 1.73205 60 0 1 -8.83883 -17.7588" />
<path d="M13.0815 20.2083 A3 1.73205 60 0 1 12.4602 21.5816" />
<path d="M12.4602 21.5816 A3 1.73205 60 0 1 9.46016 16.3855" />
<path d="M9.46016 16.3855 A3 1.73205 60 0 1 13.0815 20.2083" />
<path id= "102" d=" M -1.23744 35.2114 L 4.41942 31.9454 " />
<path id= "103" d=" M 4.41942 31.9454 L 4.41942 29.4959 " />
<path id= "104" d=" M 38.8909 36.3341 L 38.8909 33.8846 " />
<path id= "105" d=" M 38.8909 33.8846 L 38.8909 30.6186 " />
<path id= "106" d=" M 31.1127 40.8248 L 33.234 39.6001 " />
<path id= "107" d=" M 33.234 39.6001 L 38.8909 36.3341 " />
<path id= "108" d=" M 27.282 -7.11063 L 31.1127 -4.89898 " />
<path id= "109" d=" M 33.234 -1.22474 L 31.1127 -4.89898 " />
<path id= "110" d=" M 27.282 -5.47764 L 27.282 -7.11063 " />
<path id= "111" d=" M 33.234 -1.22474 L 33.234 39.6001 " />
<path id= "112" d=" M 29.5189 -4.18619 L 27.282 -5.47764 " />
<path id= "113" d=" M 29.5189 16.2262 L 29.5189 -4.18619 " />
<path id= "114" d=" M 29.5189 16.2262 L 27.282 14.9348 " />
<path id= "115" d=" M 27.282 38.6132 L 27.282 36.9802 " />
<path id= "116" d=" M 27.282 16.5678 L 27.282 14.9348 " />
<path id= "117" d=" M 29.5189 38.2716 L 27.282 36.9802 " />
<path id= "118" d=" M 29.5189 17.8592 L 27.282 16.5678 " />
<path id= "119" d=" M 29.5189 38.2716 L 29.5189 17.8592 " />
<path id= "120" d=" M 31.1127 34.2929 L 31.1127 31.0269 " />
<path id= "121" d=" M 29.6985 33.4764 L 31.1127 34.2929 " />
<path id= "122" d=" M 31.1127 31.0269 L 29.6985 30.2104 " />
<path id= "123" d=" M 29.6985 30.2104 L 29.6985 33.4764 " />
<path id= "124" d=" M 29.6985 22.0454 L 29.6985 25.3114 " />
<path id= "125" d=" M 31.1127 22.8619 L 29.6985 22.0454 " />
<path id= "126" d=" M 29.6985 25.3114 L 31.1127 26.1279 " />
<path id= "127" d=" M 31.1127 26.1279 L 31.1127 22.8619 " />
<path id= "128" d=" M 29.6985 12.2474 L 31.1127 13.0639 " />
<path id= "129" d=" M 29.6985 8.98146 L 29.6985 12.2474 " />
<path id= "130" d=" M 31.1127 13.0639 L 31.1127 9.79796 " />
<path id= "131" d=" M 31.1127 9.79796 L 29.6985 8.98146 " />
<path id= "132" d=" M 31.1127 1.63299 L 29.6985 0.816497 " />
<path id= "133" d=" M 31.1127 4.89898 L 31.1127 1.63299 " />
<path id= "134" d=" M 29.6985 0.816497 L 29.6985 4.08248 " />
<path id= "135" d=" M 29.6985 4.08248 L 31.1127 4.89898 " />
<path d="M20.8013 33.2385 A5 2.88675 180 0 1 27.6274 35.9258" />
<path d="M27.6274 35.9258 A5 2.88675 180 0 1 27.282 36.9802" />
<path id= "138" d=" M -18.5644 -17.2501 L -21.2132 -18.7794 " />
<path id= "139" d=" M -36.7696 1.63299 L -36.7696 6.53197 " />
<path id= "140" d=" M -36.7696 6.53197 L -34.6482 7.75672 " />
<path id= "141" d=" M -34.6482 7.75672 L -30.4056 5.30723 " />
<path d="M-33.234 4.89898 A3 1.73205 -60 0 1 -34.734 5.04757" />
<path d="M-34.734 5.04757 A3 1.73205 -60 0 1 -35.1675 2.55796" />
<path d="M-32.3612 4.17814 A3 1.73205 -60 0 1 -33.234 4.89898" />
<path id= "145" d=" M -36.7696 6.53197 L -41.7193 3.67423 " />
<path id= "146" d=" M -41.7193 3.67423 L -41.7193 -51.8475 " />
<path id= "147" d=" M -41.7193 -51.8475 L -36.7696 -48.9898 " />
<path id= "148" d=" M -36.7696 -48.9898 L -36.7696 -44.0908 " />
<path id= "149" d=" M -27.282 7.11063 L -27.282 5.47764 " />
<path id= "150" d=" M -36.7696 -44.0908 L -27.282 -38.6132 " />
<path id= "151" d=" M -27.282 5.47764 L -29.5189 4.18619 " />
<path id= "152" d=" M -27.282 -36.9802 L -27.282 -38.6132 " />
<path id= "153" d=" M -29.5189 4.18619 L -29.5189 -16.2262 " />
<path id= "154" d=" M -27.282 -36.9802 L -29.5189 -38.2716 " />
<path id= "155" d=" M -27.282 -14.9348 L -29.5189 -16.2262 " />
<path id= "156" d=" M -29.5189 -17.8592 L -29.5189 -38.2716 " />
<path id= "157" d=" M -27.282 -14.9348 L -27.282 -16.5678 " />
<path id= "158" d=" M -27.282 -16.5678 L -29.5189 -17.8592 " />
<path id= "159" d=" M -31.1127 -13.0639 L -31.1127 -9.79796 " />
<path id= "160" d=" M -29.6985 -12.2474 L -31.1127 -13.0639 " />
<path id= "161" d=" M -31.1127 -9.79796 L -29.6985 -8.98146 " />
<path id= "162" d=" M -29.6985 -8.98146 L -29.6985 -12.2474 " />
<path id= "163" d=" M -29.6985 -0.816497 L -31.1127 -1.63299 " />
<path id= "164" d=" M -29.6985 -4.08248 L -29.6985 -0.816497 " />
<path id= "165" d=" M -31.1127 -1.63299 L -31.1127 -4.89898 " />
<path id= "166" d=" M -31.1127 -4.89898 L -29.6985 -4.08248 " />
<path id= "167" d=" M -31.1127 -34.2929 L -31.1127 -31.0269 " />
<path id= "168" d=" M -29.6985 -33.4764 L -31.1127 -34.2929 " />
<path id= "169" d=" M -31.1127 -31.0269 L -29.6985 -30.2104 " />
<path id= "170" d=" M -29.6985 -30.2104 L -29.6985 -33.4764 " />
<path id= "171" d=" M -29.6985 -25.3114 L -31.1127 -26.1279 " />
<path id= "172" d=" M -29.6985 -22.0454 L -29.6985 -25.3114 " />
<path id= "173" d=" M -31.1127 -26.1279 L -31.1127 -22.8619 " />
<path id= "174" d=" M -31.1127 -22.8619 L -29.6985 -22.0454 " />
<path d="M-27.282 5.47764 A5 2.88675 180 0 1 -20.4558 8.16497" />
<path d="M-20.4558 8.16497 A5 2.88675 180 0 1 -20.8013 9.2193" />
<path d="M-29.5189 4.18619 A8 4.6188 180 0 1 -18.5644 5.81918" />
<path d="M-27.282 -14.9348 A5 2.88675 180 0 1 -20.66 -13.0639" />
<path d="M-27.282 -16.5678 A5 2.88675 180 0 1 -20.4558 -13.8804" />
<path d="M-20.4558 -13.8804 A5 2.88675 180 0 1 -20.8013 -12.8261" />
<path d="M-29.5189 -17.8592 A8 4.6188 180 0 1 -18.5644 -16.2262" />
<path d="M-27.282 -36.9802 A5 2.88675 180 0 1 -20.66 -35.1094" />
<path d="M-27.282 -38.6132 A5 2.88675 180 0 1 -20.4558 -35.9258" />
<path d="M-20.4558 -35.9258 A5 2.88675 180 0 1 -20.8013 -34.8715" />
<path id= "185" d=" M 38.8909 -9.38971 L 38.8909 -10.2062 " />
<path id= "186" d=" M 31.1127 -4.89898 L 38.8909 -9.38971 " />
<path id= "187" d=" M 38.8909 -10.2062 L -9.89949 -38.3753 " />
<path id= "188" d=" M -9.89949 -38.3753 L -9.89949 -53.0723 " />
<path d="M20.8013 -10.8523 A5 2.88675 180 0 1 27.6274 -8.16497" />
<path d="M27.6274 -8.16497 A5 2.88675 180 0 1 27.282 -7.11063" />
<path id= "191" d=" M -15.5563 -56.3383 L -9.89949 -53.0723 " />
<path id= "192" d=" M -36.7696 -44.0908 L -15.5563 -56.3383 " />
<path d="M20.8013 -9.2193 A5 2.88675 180 0 1 27.4232 -7.34847" />
<path d="M18.5644 9.90167 A8 4.6188 180 0 1 29.5189 11.5347" />
<path d="M20.8013 11.1931 A5 2.88675 180 0 1 27.6274 13.8804" />
<path d="M27.6274 13.8804 A5 2.88675 180 0 1 27.282 14.9348" />
<path d="M20.8013 12.8261 A5 2.88675 180 0 1 27.4232 14.6969" />
<path d="M18.5644 31.9471 A8 4.6188 180 0 1 29.5189 33.5801" />
<path d="M8.11993 7.53216 A12 6.9282 60 0 1 -2.46308 -10.7981" />
<path d="M10.0874 -9.06431 A12 6.9282 60 0 1 10.2895 -8.80016" />
<path d="M12.7659 -4.51089 A12 6.9282 60 0 1 12.8936 -4.20376" />
<path id= "202" d=" M -18.3848 5.71548 L -16.9706 4.89898 " />
<path id= "203" d=" M -18.3848 -2.44949 L -16.9706 -3.26599 " />
<path id= "204" d=" M -18.3848 -23.6784 L -16.9706 -24.4949 " />
<path id= "205" d=" M -18.3848 -15.5134 L -16.9706 -16.3299 " />
<path id= "206" d=" M 16.9706 26.1279 L 18.3848 25.3114 " />
<path id= "207" d=" M 16.9706 17.9629 L 18.3848 17.1464 " />
<path id= "208" d=" M 16.9706 4.89898 L 18.3848 4.08248 " />
<path id= "209" d=" M 16.9706 -3.26599 L 18.3848 -4.08248 " />
<path d="M12.9901 -4.44481 A3 1.73205 60 0 1 10.3444 -9.02738" />
<path d="M-8.93017 8.21089 A3 1.73205 60 0 1 -11.5759 3.62831" />
<path d="M-8.93017 -17.1005 A3 1.73205 60 0 1 -11.5759 -21.6831" />
<path d="M12.9901 20.8666 A3 1.73205 60 0 1 10.3444 16.284" />
<path id= "214" d=" M 38.8909 -2.04124 L 38.8909 33.8846 " />
<path id= "215" d=" M 38.8909 -2.04124 L 38.8909 -4.49073 " />
<path id= "216" d=" M 33.234 -1.22474 L 38.8909 -4.49073 " />
<path id= "217" d=" M 12.7973 18.8195 L 11.2997 17.9548 " />
<path id= "218" d=" M -18.5644 0.712788 L -24.7487 -2.85774 " />
<path id= "219" d=" M 38.8909 -4.49073 L 38.8909 -9.38971 " />
<path id= "220" d=" M 29.6985 33.4764 L 31.1127 32.6599 " />
<path id= "221" d=" M 29.6985 25.3114 L 31.1127 24.4949 " />
<path id= "222" d=" M 29.6985 12.2474 L 31.1127 11.431 " />
<path id= "223" d=" M 29.6985 4.08248 L 31.1127 3.26599 " />
<path id= "224" d=" M -41.7193 -53.4805 L -40.3051 -55.93 " />
<path id= "225" d=" M -40.3051 -55.93 L -23.3345 -65.728 " />
<path id= "226" d=" M -41.7193 -51.8475 L -41.7193 -53.4805 " />
<path id= "227" d=" M -40.3051 -55.93 L -34.6482 -52.664 " />
<path id= "228" d=" M -36.7696 -48.9898 L -34.6482 -52.664 " />
<path id= "229" d=" M -34.6482 -52.664 L -17.6777 -62.462 " />
<path id= "230" d=" M -17.6777 -62.462 L -15.5563 -61.2372 " />
<path id= "231" d=" M -15.5563 -61.2372 L -15.5563 -56.3383 " />
<path d="M-19.0919 -54.7053 A3 1.73205 -60 0 1 -20.5919 -54.5567" />
<path d="M-20.5919 -54.5567 A3 1.73205 -60 0 1 -17.5919 -59.7528" />
<path d="M-17.5919 -59.7528 A3 1.73205 -60 0 1 -19.0919 -54.7053" />
<path d="M-33.234 -46.5403 A3 1.73205 -60 0 1 -34.734 -46.3917" />
<path d="M-34.734 -46.3917 A3 1.73205 -60 0 1 -31.734 -51.5879" />
<path d="M-31.734 -51.5879 A3 1.73205 -60 0 1 -33.234 -46.5403" />
<path id= "238" d=" M -31.1127 -9.79796 L -29.6985 -10.6145 " />
<path id= "239" d=" M -31.1127 -1.63299 L -29.6985 -2.44949 " />
<path id= "240" d=" M -31.1127 -31.0269 L -29.6985 -31.8434 " />
<path id= "241" d=" M -31.1127 -22.8619 L -29.6985 -23.6784 " />
<path d="M13.0245 -5.69983 A1.6 0.92376 60 0 1 11.4485 -8.42964" />
<path d="M-8.8958 6.95586 A1.6 0.92376 60 0 1 -10.4719 4.22606" />
<path d="M-8.8958 -18.3555 A1.6 0.92376 60 0 1 -10.4719 -21.0853" />
<path d="M13.0245 19.6116 A1.6 0.92376 60 0 1 11.4485 16.8818" />
<path id= "246" d=" M -23.3345 -65.728 L -17.6777 -62.462 " />
<path d="M-20.0061 -58.8373 A3 1.73205 -60 0 1 -21.0061 -57.1052" />
<path d="M-34.1482 -50.6723 A3 1.73205 -60 0 1 -35.1482 -48.9403" />
<path id= "249" d=" M -19.0919 -23.6784 L -18.5644 -23.9829 " />
</g>
</g>



</svg>

