<?xml version="1.0" encoding="UTF-8"?>

<svg xmlns="http://www.w3.org/2000/svg" version="1.1"
	width="297mm"
	height="210mm"
	viewBox="0 0 297 210">
	<!-- Working space 0 0 297 210 -->
	<defs>
		<radialGradient
			id="radialGradient3661"
			gradientUnits="userSpaceOnUse"
			cy="29.149"
			cx="282.65"
			gradientTransform="matrix(.14777 .23089 -.24680 .15795 -26.318 -62.617)"
			r="19.571">
				<stop stop-color="#71b2f8" offset="0"/>
				<stop stop-color="#002795" offset="1"/>
		</radialGradient>
		<radialGradient
			id="radialGradient3817"
			gradientUnits="userSpaceOnUse"
			cy="33.9"
			cx="270.58"
			gradientTransform="matrix(.26631 .065024 -.17931 .73438 -60.668 -36.938)"
			r="19.571">
				<stop stop-color="#ff6d0f" offset="0"/>
				<stop stop-color="#ff1000" offset="1"/>
		</radialGradient>
	</defs>
	<!-- Set display:none to hide FreeCAD Logo -->
	<g
		style="display:inline"
		id="freecad-logo"
		transform="translate(271, 185) scale(1)"
		fill-rule="evenodd"
		stroke-width=".45621">
		<path d="m0.22811 0.22835v13.256h2.9558v-5.1876h2.09v-2.0452h-2.09v-2.2075h5.1486v-3.8087l-8.1044-0.0075z"
			stroke="#370700"
			fill="url(#radialGradient3817)"/>
		<path d="m13.386 4.1792-1.7193 0.98645-0.75925-0.26348-0.72439-1.8513-1.1395 0.05988-0.51976 1.9144-0.72743 0.34835-1.8143-0.79367-0.76632 0.85156 0.98645 1.7193-0.26957 0.75702-1.8513 0.72439 0.065967 1.1417 1.9144 0.51976 0.34835 0.72743-0.79976 1.8121 0.85156 0.76632 1.7193-0.98645 0.76311 0.27179 0.7183 1.8491 1.1478-0.06375 0.51367-1.9166 0.72743-0.34835 1.8182 0.80198 0.76632-0.85156-0.98645-1.7193 0.2657-0.76533 1.8491-0.7183-0.05766-1.1456-1.9166-0.51367-0.34835-0.72743 0.7959-1.8204-0.85156-0.76632zm-2.5751 2.8195 0.35295 0.20478 0.30579 0.27725 0.24481 0.33087 0.17611 0.36787 0.10354 0.39656 0.01715 0.4064-0.0587 0.4063-0.13396 0.38571-0.2131 0.35681-0.26894 0.30192-0.33087 0.24481-0.36787 0.17611-0.39656 0.10354-0.40863 0.02325-0.4063-0.0587-0.38571-0.13396-0.35681-0.2131-0.2997-0.27503-0.24703-0.32478-0.17611-0.36787-0.10132-0.40264-0.02324-0.40863 0.05869-0.4063 0.13396-0.38571 0.21087-0.35072 0.27116-0.30801 0.33087-0.24481 0.36787-0.17611 0.40264-0.10132 0.40641-0.01715 0.4063 0.05869 0.38571 0.13396z" 
		stroke="#000137"
		fill="url(#radialGradient3661)"/>
	</g>
<g id="View"
   transform="rotate(60,152.035,102.143) translate(152.035,102.143) scale(1,1)"
  >
<g   stroke="rgb(0, 0, 0)"
   stroke-width="0.35"
   stroke-linecap="butt"
   stroke-linejoin="miter"
   fill="none"
   transform="scale(1,-1)"
  >
<path id= "1" d=" M -24.0416 -7.34847 L -10.8187 0.285774 " />
<path id= "2" d=" M -10.8187 0.285774 L -9.40452 0.285774 " />
<path id= "3" d=" M -9.40452 0.285774 L -8.48528 -0.244949 " />
<path id= "4" d=" M -8.48528 1.63299 L -2.82843 4.89898 " />
<path id= "5" d=" M 25.4558 10.6145 L 19.799 13.8804 " />
<path id= "6" d=" M -2.82843 4.89898 L -1.41421 4.89898 " />
<path id= "7" d=" M 12.7279 13.8804 L 19.799 13.8804 " />
<path id= "8" d=" M -1.41421 4.89898 L -0.494975 4.36826 " />
<path id= "9" d=" M -0.494975 6.2462 L 12.7279 13.8804 " />
<path id= "10" d=" M -10.8187 -0.530723 L -10.8187 0.285774 " />
<path id= "11" d=" M -24.0416 -7.34847 L -24.0416 -15.5134 " />
<path id= "12" d=" M -10.8187 -0.612372 L -10.8187 -0.530723 " />
<path id= "13" d=" M -24.0416 -15.5134 L -10.8187 -7.87919 " />
<path id= "14" d=" M -10.8187 -2.16372 L -10.8187 -0.612372 " />
<path id= "15" d=" M -10.8187 -7.87919 L -10.8187 -7.0627 " />
<path id= "16" d=" M -10.8187 -2.24537 L -10.8187 -2.16372 " />
<path id= "17" d=" M -10.8187 -7.0627 L -10.8187 -5.51135 " />
<path id= "18" d=" M -10.8187 -3.79671 L -10.8187 -2.24537 " />
<path id= "19" d=" M -10.8187 -5.51135 L -10.8187 -5.4297 " />
<path id= "20" d=" M -10.8187 -3.87836 L -10.8187 -3.79671 " />
<path id= "21" d=" M -10.8187 -5.4297 L -10.8187 -3.87836 " />
<path d="M-19.799 -8.98146 A3 1.73205 60 0 1 -19.1777 -10.3548" />
<path d="M-19.1777 -10.3548 A3 1.73205 60 0 1 -16.1777 -5.15864" />
<path d="M-16.1777 -5.15864 A3 1.73205 60 0 1 -19.799 -8.98146" />
<path id= "25" d=" M -10.8187 -0.530723 L -9.40452 -0.530723 " />
<path id= "26" d=" M -9.40452 -0.530723 L -9.40452 0.285774 " />
<path id= "27" d=" M -24.0416 -15.5134 L -24.0416 -19.5959 " />
<path id= "28" d=" M -9.40452 -0.530723 L -8.48528 -1.06145 " />
<path id= "29" d=" M -24.0416 -19.5959 L -18.3848 -22.8619 " />
<path id= "30" d=" M -1.55431e-14 -12.2474 L -1.62635 -13.1864 " />
<path id= "31" d=" M -1.62635 -13.1864 L -1.62635 -12.3699 " />
<path id= "32" d=" M -1.62635 -12.3699 L -0.919239 -11.9617 " />
<path id= "33" d=" M -0.919239 -11.9617 L -0.919239 -11.7167 " />
<path id= "34" d=" M -11.3137 -22.8619 L -18.3848 -22.8619 " />
<path id= "35" d=" M -8.48528 -7.34847 L -1.42109e-14 -12.2474 " />
<path id= "36" d=" M -11.3137 -22.8619 L 25.4558 -1.63299 " />
<path id= "37" d=" M -8.48528 1.63299 L -8.48528 -6.53197 " />
<path id= "38" d=" M -8.48528 -7.34847 L -8.48528 -6.53197 " />
<path id= "39" d=" M 25.4558 10.6145 L 25.4558 2.44949 " />
<path id= "40" d=" M 25.4558 2.44949 L 25.4558 -1.63299 " />
<path id= "41" d=" M -2.82843 4.89898 L -2.82843 -3.26599 " />
<path id= "42" d=" M -8.48528 -6.53197 L -2.82843 -3.26599 " />
<path id= "43" d=" M 19.799 13.8804 L 19.799 5.71548 " />
<path id= "44" d=" M 25.4558 2.44949 L 19.799 5.71548 " />
<path id= "45" d=" M -1.41421 4.89898 L -1.41421 -3.26599 " />
<path id= "46" d=" M -2.82843 -3.26599 L -1.41421 -3.26599 " />
<path id= "47" d=" M 12.7279 13.8804 L 12.7279 5.71548 " />
<path id= "48" d=" M 12.7279 5.71548 L 19.799 5.71548 " />
<path id= "49" d=" M 7.07107 -6.28702 L 7.07107 -8.16497 " />
<path id= "50" d=" M -1.41421 -3.26599 L 7.07107 -8.16497 " />
<path id= "51" d=" M -0.494975 5.4297 L -0.494975 6.2462 " />
<path id= "52" d=" M -0.494975 5.34805 L -0.494975 5.4297 " />
<path id= "53" d=" M -0.494975 -1.91877 L 12.7279 5.71548 " />
<path id= "54" d=" M -0.494975 3.79671 L -0.494975 5.34805 " />
<path id= "55" d=" M -0.494975 -1.91877 L -0.494975 -1.10227 " />
<path id= "56" d=" M -0.494975 3.71506 L -0.494975 3.79671 " />
<path id= "57" d=" M -0.494975 -1.10227 L -0.494975 0.449073 " />
<path id= "58" d=" M -0.494975 2.16372 L -0.494975 3.71506 " />
<path id= "59" d=" M -0.494975 0.449073 L -0.494975 0.530723 " />
<path id= "60" d=" M -0.494975 2.08207 L -0.494975 2.16372 " />
<path id= "61" d=" M -0.494975 0.530723 L -0.494975 2.08207 " />
<path d="M4.24264 4.89898 A3 1.73205 60 0 1 4.86396 3.52565" />
<path d="M4.86396 3.52565 A3 1.73205 60 0 1 7.86396 8.7218" />
<path d="M7.86396 8.7218 A3 1.73205 60 0 1 4.24264 4.89898" />
<path id= "65" d=" M 7.07107 -8.16497 L 8.69741 -7.22599 " />
<path id= "66" d=" M -0.494975 5.34805 L -0.494975 5.4297 " />
<path id= "67" d=" M 14.986 3.59527 L 14.986 -1.14578 " />
<path d="M14.986 -1.14578 A4.3 2.48261 180 0 1 20.5635 1.22474" />
<path d="M20.5635 1.22474 A4.3 2.48261 180 0 1 11.9635 1.22474" />
<path d="M11.9635 1.22474 A4.3 2.48261 180 0 1 12.1576 0.487214" />
<path id= "71" d=" M 12.1576 1.96228 L 12.1576 0.487214 " />
<path id= "72" d=" M 9.32916 -4.41177 L 14.986 -1.14578 " />
<path d="M12.2329 1.34722 A1.7 0.981495 60 0 1 12.585 0.568998" />
<path d="M12.585 0.568998 A1.7 0.981495 60 0 1 14.3698 3.45365" />
<path d="M12.5582 2.48453 A1.7 0.981495 60 0 1 12.2329 1.34722" />
<path id= "76" d=" M 6.50073 -2.77877 L 12.1576 0.487214 " />
<path d="M6.50073 -2.77877 A2 1.1547 180 0 1 5.91495 -3.59527" />
<path d="M5.91495 -3.59527 A2 1.1547 180 0 1 9.32916 -4.41177" />
<path id= "79" d=" M -10.8187 -0.612372 L -9.54594 -1.34722 " />
<path id= "80" d=" M -10.8187 -0.530723 L -9.40452 -1.34722 " />
<path id= "81" d=" M -10.8187 -7.87919 L -1.62635 -13.1864 " />
<path id= "82" d=" M -0.494975 -1.91877 L 8.69741 -7.22599 " />
<path d="M-6.50073 -13.5512 A2 1.1547 180 0 1 -5.91495 -12.7347" />
<path d="M-5.91495 -12.7347 A2 1.1547 180 0 1 -9.32916 -11.9182" />
<path id= "85" d=" M -6.50073 -13.5512 L -12.1576 -16.8171 " />
<path id= "86" d=" M -9.32916 -11.9182 L -14.986 -15.1842 " />
<path d="M-14.986 -15.1842 A4.3 2.48261 180 0 1 -20.5635 -17.5547" />
<path d="M-20.5635 -17.5547 A4.3 2.48261 180 0 1 -11.9635 -17.5547" />
<path d="M-11.9635 -17.5547 A4.3 2.48261 180 0 1 -12.1576 -16.8171" />
<path id= "90" d=" M -10.8187 -0.612372 L -9.54594 -1.34722 " />
<path id= "91" d=" M -9.54594 -1.34722 L -9.40452 -1.34722 " />
<path id= "92" d=" M -10.8187 -2.16372 L -9.40452 -2.16372 " />
<path id= "93" d=" M -9.40452 -2.16372 L -9.40452 -1.34722 " />
<path id= "94" d=" M -10.8187 -7.0627 L -1.62635 -12.3699 " />
<path id= "95" d=" M -10.8187 -2.24537 L -9.54594 -2.98021 " />
<path id= "96" d=" M -10.8187 -2.16372 L -9.40452 -2.98021 " />
<path id= "97" d=" M -10.8187 -5.51135 L -9.54594 -6.2462 " />
<path id= "98" d=" M -9.54594 -6.2462 L -9.40452 -6.2462 " />
<path id= "99" d=" M -10.8187 -7.0627 L -9.40452 -7.0627 " />
<path id= "100" d=" M -9.40452 -7.0627 L -9.40452 -6.2462 " />
<path id= "101" d=" M -10.8187 -2.24537 L -9.54594 -2.98021 " />
<path id= "102" d=" M -9.54594 -2.98021 L -9.40452 -2.98021 " />
<path id= "103" d=" M -10.8187 -3.79671 L -9.40452 -3.79671 " />
<path id= "104" d=" M -9.40452 -3.79671 L -9.40452 -2.98021 " />
<path id= "105" d=" M -10.8187 -5.51135 L -9.54594 -6.2462 " />
<path id= "106" d=" M -10.8187 -5.4297 L -9.40452 -6.2462 " />
<path id= "107" d=" M -10.8187 -3.87836 L -9.54594 -4.61321 " />
<path id= "108" d=" M -10.8187 -3.79671 L -9.40452 -4.61321 " />
<path id= "109" d=" M -10.8187 -3.87836 L -9.54594 -4.61321 " />
<path id= "110" d=" M -9.54594 -4.61321 L -9.40452 -4.61321 " />
<path id= "111" d=" M -10.8187 -5.4297 L -9.40452 -5.4297 " />
<path id= "112" d=" M -9.40452 -5.4297 L -9.40452 -4.61321 " />
<path d="M-18.3848 -9.79796 A3 1.73205 60 0 1 -18.2934 -10.4563" />
<path d="M-15.6477 -5.87368 A3 1.73205 60 0 1 -18.3848 -9.79796" />
<path id= "115" d=" M -9.40452 -1.34722 L -8.48528 -1.87794 " />
<path id= "116" d=" M -9.40452 -2.16372 L -8.48528 -2.69444 " />
<path id= "117" d=" M -9.40452 -2.98021 L -8.48528 -3.51094 " />
<path id= "118" d=" M -9.40452 -7.0627 L -0.919239 -11.9617 " />
<path id= "119" d=" M -9.40452 -3.79671 L -8.48528 -4.32743 " />
<path id= "120" d=" M -9.40452 -6.2462 L -8.48528 -6.77692 " />
<path id= "121" d=" M -9.40452 -4.61321 L -8.48528 -5.14393 " />
<path id= "122" d=" M -9.40452 -5.4297 L -8.48528 -5.96043 " />
<path id= "123" d=" M -0.494975 3.79671 L -0.494975 2.98021 " />
<path id= "124" d=" M -0.494975 2.16372 L -0.494975 1.34722 " />
<path id= "125" d=" M 6.01794 -3.22951 L 8.54846 -4.69051 " />
<path id= "126" d=" M 7.2832 -2.32702 L 8.69741 -3.14351 " />
<path id= "127" d=" M -0.494975 0.530723 L -0.494975 0.449073 " />
<path d="M5.65685 4.08248 A3 1.73205 60 0 1 5.74819 3.42419" />
<path d="M8.39394 8.00676 A3 1.73205 60 0 1 5.65685 4.08248" />
<path id= "130" d=" M -0.494975 -1.91877 L 7.99031 -6.81775 " />
<path id= "131" d=" M 6.57609 -2.73526 L 7.99031 -3.55176 " />
<path id= "132" d=" M -12.1576 -13.5512 L -12.1576 -16.8171 " />
<path d="M-11.5787 -13.2169 A1.7 0.981495 60 0 1 -11.4566 -13.3114" />
<path d="M-11.4566 -13.3114 A1.7 0.981495 60 0 1 -9.63449 -12.0944" />
<path d="M6.57609 4.61321 A1.7 0.981495 60 0 1 6.7777 3.96015" />
<path d="M8.44454 6.84721 A1.7 0.981495 60 0 1 6.57609 4.61321" />
<path d="M-17.4655 -9.26724 A1.7 0.981495 60 0 1 -17.2639 -9.9203" />
<path d="M-15.5971 -7.03324 A1.7 0.981495 60 0 1 -17.4655 -9.26724" />
</g>
</g>



</svg>

