<?xml version="1.0" encoding="UTF-8"?>

<svg xmlns="http://www.w3.org/2000/svg" version="1.1"
	width="297mm"
	height="210mm"
	viewBox="0 0 297 210">
	<!-- Working space 0 0 297 210 -->
	<defs>
		<radialGradient
			id="radialGradient3661"
			gradientUnits="userSpaceOnUse"
			cy="29.149"
			cx="282.65"
			gradientTransform="matrix(.14777 .23089 -.24680 .15795 -26.318 -62.617)"
			r="19.571">
				<stop stop-color="#71b2f8" offset="0"/>
				<stop stop-color="#002795" offset="1"/>
		</radialGradient>
		<radialGradient
			id="radialGradient3817"
			gradientUnits="userSpaceOnUse"
			cy="33.9"
			cx="270.58"
			gradientTransform="matrix(.26631 .065024 -.17931 .73438 -60.668 -36.938)"
			r="19.571">
				<stop stop-color="#ff6d0f" offset="0"/>
				<stop stop-color="#ff1000" offset="1"/>
		</radialGradient>
	</defs>
	<!-- Set display:none to hide FreeCAD Logo -->
	<g
		style="display:inline"
		id="freecad-logo"
		transform="translate(271, 185) scale(1)"
		fill-rule="evenodd"
		stroke-width=".45621">
		<path d="m0.22811 0.22835v13.256h2.9558v-5.1876h2.09v-2.0452h-2.09v-2.2075h5.1486v-3.8087l-8.1044-0.0075z"
			stroke="#370700"
			fill="url(#radialGradient3817)"/>
		<path d="m13.386 4.1792-1.7193 0.98645-0.75925-0.26348-0.72439-1.8513-1.1395 0.05988-0.51976 1.9144-0.72743 0.34835-1.8143-0.79367-0.76632 0.85156 0.98645 1.7193-0.26957 0.75702-1.8513 0.72439 0.065967 1.1417 1.9144 0.51976 0.34835 0.72743-0.79976 1.8121 0.85156 0.76632 1.7193-0.98645 0.76311 0.27179 0.7183 1.8491 1.1478-0.06375 0.51367-1.9166 0.72743-0.34835 1.8182 0.80198 0.76632-0.85156-0.98645-1.7193 0.2657-0.76533 1.8491-0.7183-0.05766-1.1456-1.9166-0.51367-0.34835-0.72743 0.7959-1.8204-0.85156-0.76632zm-2.5751 2.8195 0.35295 0.20478 0.30579 0.27725 0.24481 0.33087 0.17611 0.36787 0.10354 0.39656 0.01715 0.4064-0.0587 0.4063-0.13396 0.38571-0.2131 0.35681-0.26894 0.30192-0.33087 0.24481-0.36787 0.17611-0.39656 0.10354-0.40863 0.02325-0.4063-0.0587-0.38571-0.13396-0.35681-0.2131-0.2997-0.27503-0.24703-0.32478-0.17611-0.36787-0.10132-0.40264-0.02324-0.40863 0.05869-0.4063 0.13396-0.38571 0.21087-0.35072 0.27116-0.30801 0.33087-0.24481 0.36787-0.17611 0.40264-0.10132 0.40641-0.01715 0.4063 0.05869 0.38571 0.13396z" 
		stroke="#000137"
		fill="url(#radialGradient3661)"/>
	</g>
<g id="Ortho_0_0"
   transform="rotate(-90,66,174.333) translate(66,174.333) scale(1,1)"
  >
<g   stroke="rgb(0, 0, 0)"
   stroke-width="0.35"
   stroke-linecap="butt"
   stroke-linejoin="miter"
   fill="none"
   transform="scale(1,-1)"
  >
<path d="M-4.8,1.1724e-14 L-4.73837,1.15734e-14  L-4.55505,1.11257e-14  L-4.25476,1.03922e-14  L-3.8452,9.39186e-15  L-3.33689,8.15033e-15  L-2.7429,6.6995e-15  L-2.07846,5.07662e-15  L-1.36065,3.32337e-15  L-0.607894,1.48478e-15  L0.160472,-3.91951e-16  L0.924716,-2.25861e-15  L1.66521,-4.06727e-15  L2.36295,-5.77148e-15  L3,-7.32747e-15 " /><path id= "2" d=" M 8 -1.95954e-14 L 7 -1.71529e-14 " />
<path id= "3" d=" M -5 1.22125e-14 L -10 2.44249e-14 " />
<path id= "4" d=" M -5 1.22125e-14 L 3 -7.32747e-15 " />
<path id= "5" d=" M 8 -1.95399e-14 L 3 -7.32747e-15 " />
<path id= "6" d=" M 8 10 L 8 9 " />
<path id= "7" d=" M -10 2.44249e-14 L -10 10 " />
<path id= "8" d=" M -5 1.22125e-14 L -5 10 " />
<path id= "9" d=" M -5 10 L -10 10 " />
<path id= "10" d=" M 3 -7.32747e-15 L 3 10 " />
<path id= "11" d=" M -5 10 L 3 10 " />
<path id= "12" d=" M 8 -1.95399e-14 L 8 10 " />
<path id= "13" d=" M 8 10 L 3 10 " />
<path d="M3,10 L3.17076,10  L3.33121,10  L3.48081,10  L3.6191,10  L3.7456,10  L3.85993,10  L3.96169,10  L4.05057,10  L4.12626,10  L4.18854,10  L4.23718,10  L4.27204,10  L4.29301,10  L4.3,10 " /></g>
</g>



<g id="Ortho_0_1"
   transform="rotate(90,66,78.6667) translate(66,78.6667) scale(1,1)"
  >
<g   stroke="rgb(0, 0, 0)"
   stroke-width="0.35"
   stroke-linecap="butt"
   stroke-linejoin="miter"
   fill="none"
   transform="scale(1,-1)"
  >
<path id= "1" d=" M -26 1.95399e-14 L -7.3 1.95399e-14 " />
<path id= "2" d=" M -7.3 1.95954e-14 L -6.3 1.71529e-14 " />
<path id= "3" d=" M -26 1.95399e-14 L -31 7.32747e-15 " />
<path id= "4" d=" M -6.3 -1.11022e-14 L -5 -1.11022e-14 " />
<path id= "5" d=" M -5 1.70974e-14 L -4 1.95399e-14 " />
<path id= "6" d=" M -4 1.95399e-14 L 4 1.95399e-14 " />
<path id= "7" d=" M 4 1.95399e-14 L 5 1.70974e-14 " />
<path id= "8" d=" M 26 1.95399e-14 L 31 7.32747e-15 " />
<path id= "9" d=" M 7.3 1.95399e-14 L 26 1.95399e-14 " />
<path id= "10" d=" M 6.3 -1.11022e-14 L 5 -1.11022e-14 " />
<path id= "11" d=" M 6.3 1.71529e-14 L 7.3 1.95954e-14 " />
<path id= "12" d=" M -7.3 -1 L -7.3 1.77636e-14 " />
<path id= "13" d=" M -26 1.95399e-14 L -26 -10 " />
<path id= "14" d=" M -7.3 -1.1 L -7.3 -1 " />
<path id= "15" d=" M -26 -10 L -7.3 -10 " />
<path id= "16" d=" M -7.3 -3 L -7.3 -1.1 " />
<path id= "17" d=" M -7.3 -10 L -7.3 -9 " />
<path id= "18" d=" M -7.3 -3.1 L -7.3 -3 " />
<path id= "19" d=" M -7.3 -9 L -7.3 -7.1 " />
<path id= "20" d=" M -7.3 -5 L -7.3 -3.1 " />
<path id= "21" d=" M -7.3 -7.1 L -7.3 -7 " />
<path id= "22" d=" M -7.3 -5.1 L -7.3 -5 " />
<path id= "23" d=" M -7.3 -7 L -7.3 -5.1 " />
<circle cx ="-17" cy ="-5" r ="3" /><path id= "25" d=" M -7.3 -1 L -6.3 -1 " />
<path id= "26" d=" M -6.3 -1 L -6.3 1.55431e-14 " />
<path id= "27" d=" M -31 7.32747e-15 L -31 -10 " />
<path id= "28" d=" M -26 -10 L -31 -10 " />
<path id= "29" d=" M -6.3 -1 L -6.3 -1.11022e-14 " />
<path id= "30" d=" M -7.3 -1.1 L -7.3 -1 " />
<path id= "31" d=" M -7.3 -1 L -6.3 -1 " />
<path id= "32" d=" M -6.3 -3 L -6.3 -2 " />
<path id= "33" d=" M -7.3 -3 L -6.3 -3 " />
<path id= "34" d=" M -5 -1.11022e-14 L -5 -10 " />
<path id= "35" d=" M -7.3 -3.1 L -7.3 -3 " />
<path id= "36" d=" M -5 -10 L -7.3 -10 " />
<path id= "37" d=" M -7.3 -10 L -7.3 -9 " />
<path id= "38" d=" M -7.3 -9 L -6.3 -9 " />
<path id= "39" d=" M -6.3 -5 L -6.3 -4 " />
<path id= "40" d=" M -6.3 -9 L -6.3 -8 " />
<path id= "41" d=" M -7.3 -5 L -6.3 -5 " />
<path id= "42" d=" M -7.3 -5.1 L -7.3 -5 " />
<path id= "43" d=" M -7.3 -7.1 L -7.3 -7 " />
<path id= "44" d=" M -7.3 -7 L -6.3 -7 " />
<path id= "45" d=" M -6.3 -7 L -6.3 -6 " />
<path id= "46" d=" M -5 1.70974e-14 L -5 -10 " />
<path id= "47" d=" M -4 1.95399e-14 L -4 -10 " />
<path id= "48" d=" M -5 -10 L -4 -10 " />
<path id= "49" d=" M 4 1.95399e-14 L 4 -10 " />
<path id= "50" d=" M -4 -10 L 4 -10 " />
<path id= "51" d=" M 31 7.32747e-15 L 31 -10 " />
<path id= "52" d=" M 5 1.70974e-14 L 5 -10 " />
<path id= "53" d=" M 4 -10 L 5 -10 " />
<path id= "54" d=" M 26 1.95399e-14 L 26 -10 " />
<path id= "55" d=" M 26 -10 L 31 -10 " />
<path id= "56" d=" M 7.3 -1 L 7.3 1.77636e-14 " />
<path id= "57" d=" M 7.3 -1.1 L 7.3 -1 " />
<path id= "58" d=" M 7.3 -10 L 26 -10 " />
<path id= "59" d=" M 7.3 -3 L 7.3 -1.1 " />
<path id= "60" d=" M 7.3 -10 L 7.3 -9 " />
<path id= "61" d=" M 7.3 -3.1 L 7.3 -3 " />
<path id= "62" d=" M 7.3 -9 L 7.3 -7.1 " />
<path id= "63" d=" M 7.3 -5 L 7.3 -3.1 " />
<path id= "64" d=" M 7.3 -7.1 L 7.3 -7 " />
<path id= "65" d=" M 7.3 -5.1 L 7.3 -5 " />
<path id= "66" d=" M 7.3 -7 L 7.3 -5.1 " />
<circle cx ="17" cy ="-5" r ="3" /><path id= "68" d=" M 7.3 -1 L 6.3 -1 " />
<path id= "69" d=" M 6.3 -1 L 6.3 -1.11022e-14 " />
<path id= "70" d=" M 6.3 -3 L 6.3 -2 " />
<path id= "71" d=" M 7.3 -3 L 6.3 -3 " />
<path id= "72" d=" M 5 -10 L 7.3 -10 " />
<path id= "73" d=" M 7.3 -9 L 6.3 -9 " />
<path id= "74" d=" M 6.3 -5 L 6.3 -4 " />
<path id= "75" d=" M 6.3 -9 L 6.3 -8 " />
<path id= "76" d=" M 7.3 -5 L 6.3 -5 " />
<path id= "77" d=" M 7.3 -7 L 6.3 -7 " />
<path id= "78" d=" M 6.3 -7 L 6.3 -6 " />
<path id= "79" d=" M 6.3 -1 L 7.3 -1 " />
<path id= "80" d=" M 6.3 -1 L 6.3 1.55431e-14 " />
<path d="M27.3,-10 L27.2227,-10  L26.9938,-10  L26.6213,-10  L26.1186,-10  L25.504,-10  L24.7993,-10  L24.03,-10  L23.2237,-10  L22.4093,-10  L21.6162,-10  L20.8728,-10  L20.2058,-10  L19.6392,-10  L19.1934,-10 " /><path id= "82" d=" M 11.1934 -10 L 19.1934 -10 " />
<path d="M11.1934,-10 L10.9695,-10  L10.7484,-10  L10.5329,-10  L10.3257,-10  L10.1294,-10  L9.94645,-10  L9.77921,-10  L9.62976,-10  L9.49998,-10  L9.39149,-10  L9.30566,-10  L9.24357,-10  L9.206,-10  L9.19343,-10 " /><path d="M-9.19343,-10 L-9.206,-10  L-9.24357,-10  L-9.30566,-10  L-9.39149,-10  L-9.49998,-10  L-9.62976,-10  L-9.77921,-10  L-9.94645,-10  L-10.1294,-10  L-10.3257,-10  L-10.5329,-10  L-10.7484,-10  L-10.9695,-10  L-11.1934,-10 " /><path id= "85" d=" M -11.1934 -10 L -19.1934 -10 " />
<path d="M-19.1934,-10 L-19.6392,-10  L-20.2058,-10  L-20.8728,-10  L-21.6162,-10  L-22.4093,-10  L-23.2237,-10  L-24.03,-10  L-24.7993,-10  L-25.504,-10  L-26.1186,-10  L-26.6213,-10  L-26.9938,-10  L-27.2227,-10  L-27.3,-10 " /><path id= "87" d=" M -7.3 -1.1 L -6.4 -2 " />
<path id= "88" d=" M -6.4 -2 L -6.3 -2 " />
<path id= "89" d=" M -7.3 -3 L -6.3 -3 " />
<path id= "90" d=" M -6.3 -3 L -6.3 -2 " />
<path id= "91" d=" M -7.3 -7.1 L -6.4 -8 " />
<path id= "92" d=" M -6.4 -8 L -6.3 -8 " />
<path id= "93" d=" M -7.3 -9 L -6.3 -9 " />
<path id= "94" d=" M -6.3 -9 L -6.3 -8 " />
<path id= "95" d=" M -7.3 -3.1 L -6.4 -4 " />
<path id= "96" d=" M -6.4 -4 L -6.3 -4 " />
<path id= "97" d=" M -7.3 -5 L -6.3 -5 " />
<path id= "98" d=" M -6.3 -5 L -6.3 -4 " />
<path id= "99" d=" M -7.3 -5.1 L -6.4 -6 " />
<path id= "100" d=" M -6.4 -6 L -6.3 -6 " />
<path id= "101" d=" M -7.3 -7 L -6.3 -7 " />
<path id= "102" d=" M -6.3 -7 L -6.3 -6 " />
<path id= "103" d=" M 7.3 -1.1 L 6.4 -2 " />
<path id= "104" d=" M 6.4 -2 L 6.3 -2 " />
<path id= "105" d=" M 7.3 -3 L 6.3 -3 " />
<path id= "106" d=" M 6.3 -3 L 6.3 -2 " />
<path id= "107" d=" M 7.3 -7.1 L 6.4 -8 " />
<path id= "108" d=" M 6.4 -8 L 6.3 -8 " />
<path id= "109" d=" M 7.3 -9 L 6.3 -9 " />
<path id= "110" d=" M 6.3 -9 L 6.3 -8 " />
<path id= "111" d=" M 7.3 -3.1 L 6.4 -4 " />
<path id= "112" d=" M 6.4 -4 L 6.3 -4 " />
<path id= "113" d=" M 7.3 -5 L 6.3 -5 " />
<path id= "114" d=" M 6.3 -5 L 6.3 -4 " />
<path id= "115" d=" M 7.3 -5.1 L 6.4 -6 " />
<path id= "116" d=" M 6.4 -6 L 6.3 -6 " />
<path id= "117" d=" M 7.3 -7 L 6.3 -7 " />
<path id= "118" d=" M 6.3 -7 L 6.3 -6 " />
<circle cx ="-17" cy ="-5" r ="1.7" /><circle cx ="17" cy ="-5" r ="1.7" /><circle cx ="-17" cy ="-5" r ="1.7" /></g>
</g>



<g id="Ortho_1_0"
   transform="rotate(-90,184,174.333) translate(184,174.333) scale(1,1)"
  >
<g   stroke="rgb(0, 0, 0)"
   stroke-width="0.35"
   stroke-linecap="butt"
   stroke-linejoin="miter"
   fill="none"
   transform="scale(1,-1)"
  >
<path d="M-2.5 18.9024 A4.8 4.8 0 1 0 2.5 18.9024" /><path id= "2" d=" M -2.5 18.9024 L -2.5 11.1934 " />
<path id= "3" d=" M 2.5 11.1934 L 2.5 18.9024 " />
<path d="M-2.5 11.1934 A2.5 2.5 0 1 1 2.5 11.1934" /><path id= "5" d=" M 8 -26 L 8 -7.3 " />
<path id= "6" d=" M 8 -7.3 L 7 -6.3 " />
<path id= "7" d=" M 8 -26 L 3 -31 " />
<path id= "8" d=" M 7 -6.3 L -5 -6.3 " />
<path id= "9" d=" M 3 -31 L -5 -31 " />
<path id= "10" d=" M -5 -6.3 L -5 -5 " />
<path id= "11" d=" M -10 -26 L -5 -31 " />
<path id= "12" d=" M 7 -5 L -5 -5 " />
<path id= "13" d=" M -10 -26 L -10 26 " />
<path id= "14" d=" M 7 -5 L 8 -4 " />
<path id= "15" d=" M -5 31 L -10 26 " />
<path id= "16" d=" M 8 -4 L 8 4 " />
<path id= "17" d=" M -5 31 L 3 31 " />
<path id= "18" d=" M 8 4 L 7 5 " />
<path id= "19" d=" M 8 26 L 3 31 " />
<path id= "20" d=" M 7 5 L -5 5 " />
<path id= "21" d=" M 8 7.3 L 8 26 " />
<path id= "22" d=" M -5 6.3 L -5 5 " />
<path id= "23" d=" M 7 6.3 L 8 7.3 " />
<path id= "24" d=" M 7 6.3 L -5 6.3 " />
<path id= "25" d=" M -2.5 -18.9024 L -2.5 -11.1934 " />
<path d="M2.5 -18.9024 A4.8 4.8 0 1 0 -2.5 -18.9024" /><path d="M-2.5 -11.1934 A2.5 2.5 0 0 0 2.5 -11.1934" /><path id= "28" d=" M 2.5 -11.1934 L 2.5 -18.9024 " />
<path d="M-2.5,18.9024 L-2.46306,18.9232  L-2.42632,18.944  L-2.38976,18.9648  L-2.35339,18.9856  L-2.3172,19.0064  L-2.28121,19.0271  L-2.2454,19.0479  L-2.20978,19.0687  L-2.17435,19.0895  L-2.1391,19.1103  L-2.10404,19.1311  L-2.06917,19.1519  L-2.03449,19.1726  L-2,19.1934 " /><path d="M-2 19.1934 A4.3 4.3 0 1 0 2 19.1934" /><path d="M2.5,18.9024 L2.46306,18.9232  L2.42632,18.944  L2.38976,18.9648  L2.35339,18.9856  L2.3172,19.0064  L2.28121,19.0271  L2.2454,19.0479  L2.20978,19.0687  L2.17435,19.0895  L2.1391,19.1103  L2.10404,19.1311  L2.06917,19.1519  L2.03449,19.1726  L2,19.1934 " /><path id= "32" d=" M -2 19.1934 L -2 11.1934 " />
<path id= "33" d=" M 2 11.1934 L 2 19.1934 " />
<path d="M-2 11.1934 A2 2 0 1 1 2 11.1934" /><path d="M8,-14 L8,-14.0752  L8,-14.2971  L8,-14.6545  L8,-15.1295  L8,-15.6983  L8,-16.3324  L8,-17  L8,-17.6676  L8,-18.3017  L8,-18.8705  L8,-19.3455  L8,-19.7029  L8,-19.9248  L8,-20 " /><path id= "36" d=" M -10 -18.7321 L -10 -20.4641 " />
<path id= "37" d=" M -10 15.2679 L -10 13.5359 " />
<path d="M-2.5,-18.9024 L-2.46306,-18.9232  L-2.42632,-18.944  L-2.38976,-18.9648  L-2.35339,-18.9856  L-2.3172,-19.0064  L-2.28121,-19.0271  L-2.2454,-19.0479  L-2.20978,-19.0687  L-2.17435,-19.0895  L-2.1391,-19.1103  L-2.10404,-19.1311  L-2.06917,-19.1519  L-2.03449,-19.1726  L-2,-19.1934 " /><path id= "39" d=" M -2 -19.1934 L -2 -11.1934 " />
<path d="M2.5,-18.9024 L2.46306,-18.9232  L2.42632,-18.944  L2.38976,-18.9648  L2.35339,-18.9856  L2.3172,-19.0064  L2.28121,-19.0271  L2.2454,-19.0479  L2.20978,-19.0687  L2.17435,-19.0895  L2.1391,-19.1103  L2.10404,-19.1311  L2.06917,-19.1519  L2.03449,-19.1726  L2,-19.1934 " /><path d="M2 -19.1934 A4.3 4.3 0 1 0 -2 -19.1934" /><path d="M-2 -11.1934 A2 2 0 0 0 2 -11.1934" /><path id= "43" d=" M 2 -11.1934 L 2 -19.1934 " />
<path id= "44" d=" M 8 -7.3 L 7.1 -6.4 " />
<path id= "45" d=" M 7.1 -6.4 L 7 -6.3 " />
<path id= "46" d=" M 8 -7.3 L 7.1 -6.4 " />
<path id= "47" d=" M 7.1 -6.4 L 7 -6.3 " />
<path id= "48" d=" M 8 -7.3 L 7.1 -6.4 " />
<path id= "49" d=" M 7.1 -6.4 L 7 -6.3 " />
<path id= "50" d=" M 8 -7.3 L 7.1 -6.4 " />
<path id= "51" d=" M 7.1 -6.4 L 7 -6.3 " />
<path id= "52" d=" M 7 -6.3 L -5 -6.3 " />
<path id= "53" d=" M 7 -6.3 L -5 -6.3 " />
<path id= "54" d=" M 7.1 6.4 L 7 6.3 " />
<path id= "55" d=" M 8 7.3 L 7.1 6.4 " />
<path id= "56" d=" M 7.1 6.4 L 7 6.3 " />
<path id= "57" d=" M 8 7.3 L 7.1 6.4 " />
<path id= "58" d=" M 7.1 6.4 L 7 6.3 " />
<path id= "59" d=" M 8 7.3 L 7.1 6.4 " />
<path id= "60" d=" M 7.1 6.4 L 7 6.3 " />
<path id= "61" d=" M 7 6.3 L -5 6.3 " />
<path id= "62" d=" M 7 6.3 L -5 6.3 " />
</g>
</g>



</svg>

