<?xml version="1.0" encoding="UTF-8"?>

<svg xmlns="http://www.w3.org/2000/svg" version="1.1"
	width="297mm"
	height="210mm"
	viewBox="0 0 297 210">
	<!-- Working space 0 0 297 210 -->
	<defs>
		<radialGradient
			id="radialGradient3661"
			gradientUnits="userSpaceOnUse"
			cy="29.149"
			cx="282.65"
			gradientTransform="matrix(.14777 .23089 -.24680 .15795 -26.318 -62.617)"
			r="19.571">
				<stop stop-color="#71b2f8" offset="0"/>
				<stop stop-color="#002795" offset="1"/>
		</radialGradient>
		<radialGradient
			id="radialGradient3817"
			gradientUnits="userSpaceOnUse"
			cy="33.9"
			cx="270.58"
			gradientTransform="matrix(.26631 .065024 -.17931 .73438 -60.668 -36.938)"
			r="19.571">
				<stop stop-color="#ff6d0f" offset="0"/>
				<stop stop-color="#ff1000" offset="1"/>
		</radialGradient>
	</defs>
	<!-- Set display:none to hide FreeCAD Logo -->
	<g
		style="display:inline"
		id="freecad-logo"
		transform="translate(271, 185) scale(1)"
		fill-rule="evenodd"
		stroke-width=".45621">
		<path d="m0.22811 0.22835v13.256h2.9558v-5.1876h2.09v-2.0452h-2.09v-2.2075h5.1486v-3.8087l-8.1044-0.0075z"
			stroke="#370700"
			fill="url(#radialGradient3817)"/>
		<path d="m13.386 4.1792-1.7193 0.98645-0.75925-0.26348-0.72439-1.8513-1.1395 0.05988-0.51976 1.9144-0.72743 0.34835-1.8143-0.79367-0.76632 0.85156 0.98645 1.7193-0.26957 0.75702-1.8513 0.72439 0.065967 1.1417 1.9144 0.51976 0.34835 0.72743-0.79976 1.8121 0.85156 0.76632 1.7193-0.98645 0.76311 0.27179 0.7183 1.8491 1.1478-0.06375 0.51367-1.9166 0.72743-0.34835 1.8182 0.80198 0.76632-0.85156-0.98645-1.7193 0.2657-0.76533 1.8491-0.7183-0.05766-1.1456-1.9166-0.51367-0.34835-0.72743 0.7959-1.8204-0.85156-0.76632zm-2.5751 2.8195 0.35295 0.20478 0.30579 0.27725 0.24481 0.33087 0.17611 0.36787 0.10354 0.39656 0.01715 0.4064-0.0587 0.4063-0.13396 0.38571-0.2131 0.35681-0.26894 0.30192-0.33087 0.24481-0.36787 0.17611-0.39656 0.10354-0.40863 0.02325-0.4063-0.0587-0.38571-0.13396-0.35681-0.2131-0.2997-0.27503-0.24703-0.32478-0.17611-0.36787-0.10132-0.40264-0.02324-0.40863 0.05869-0.4063 0.13396-0.38571 0.21087-0.35072 0.27116-0.30801 0.33087-0.24481 0.36787-0.17611 0.40264-0.10132 0.40641-0.01715 0.4063 0.05869 0.38571 0.13396z" 
		stroke="#000137"
		fill="url(#radialGradient3661)"/>
	</g>
<g id="Ortho_0_0"
   transform="rotate(-90,91.95,177.767) translate(91.95,177.767) scale(1,1)"
  >
<g   stroke="rgb(0, 0, 0)"
   stroke-width="0.35"
   stroke-linecap="butt"
   stroke-linejoin="miter"
   fill="none"
   transform="scale(1,-1)"
  >
<path id= "1" d=" M 49 11 L 47 11 " />
<path id= "2" d=" M 49 -11 L 47 -11 " />
<path id= "3" d=" M 71 2.5 L 49 2.5 " />
<path id= "4" d=" M 71 -2.5 L 49 -2.5 " />
</g>
<g   stroke="rgb(0, 0, 0)"
   stroke-width="0.35"
   stroke-linecap="butt"
   stroke-linejoin="miter"
   fill="none"
   transform="scale(1,-1)"
  >
<path id= "1" d=" M 38.85 -13.701 L 38.85 13.701 " />
<path d="M38.85,13.5941 L38.85,13.6018  L38.85,13.6094  L38.85,13.6171  L38.85,13.6247  L38.85,13.6323  L38.85,13.64  L38.85,13.6476  L38.85,13.6552  L38.85,13.6629  L38.85,13.6705  L38.85,13.6781  L38.85,13.6858  L38.85,13.6934  L38.85,13.701 " /><path id= "3" d=" M 38.85 13.5941 L 38.85 -13.5941 " />
<path d="M38.85,-13.701 L38.85,-13.6934  L38.85,-13.6858  L38.85,-13.6781  L38.85,-13.6705  L38.85,-13.6629  L38.85,-13.6552  L38.85,-13.6476  L38.85,-13.64  L38.85,-13.6323  L38.85,-13.6247  L38.85,-13.6171  L38.85,-13.6094  L38.85,-13.6018  L38.85,-13.5941 " /><path id= "5" d=" M 36.35 21.15 L 47 21.15 " />
<path d="M36.35,21.15 L36.35,21.1464  L36.35,21.1429  L36.35,21.1393  L36.35,21.1357  L36.35,21.1322  L36.35,21.1286  L36.35,21.125  L36.35,21.1215  L36.35,21.1179  L36.35,21.1143  L36.35,21.1107  L36.35,21.1072  L36.35,21.1036  L36.35,21.1 " /><path d="M36.35,-21.1 L36.35,-21.1036  L36.35,-21.1072  L36.35,-21.1107  L36.35,-21.1143  L36.35,-21.1179  L36.35,-21.1215  L36.35,-21.125  L36.35,-21.1286  L36.35,-21.1322  L36.35,-21.1357  L36.35,-21.1393  L36.35,-21.1429  L36.35,-21.1464  L36.35,-21.15 " /><path id= "8" d=" M 36.35 -21.15 L 47 -21.15 " />
<path id= "9" d=" M 38.85 -13.701 L 36.35 -13.701 " />
<path id= "10" d=" M 38.85 13.701 L 36.35 13.701 " />
<path id= "11" d=" M 36.35 13.701 L 36.35 16.65 " />
<path id= "12" d=" M 36.35 16.65 L 47 16.65 " />
<path id= "13" d=" M 47 -16.65 L 47 16.65 " />
<path id= "14" d=" M 36.35 -16.65 L 47 -16.65 " />
<path id= "15" d=" M 36.35 -16.65 L 36.35 -13.701 " />
<path d="M47,-16.65 L47,-17.0056  L47,-17.3564  L47,-17.7021  L47,-18.0428  L47,-18.3783  L47,-18.7086  L47,-19.0335  L47,-19.3529  L47,-19.6668  L47,-19.9751  L47,-20.2776  L47,-20.5743  L47,-20.8651  L47,-21.15 " /><path d="M47,21.15 L47,20.8651  L47,20.5743  L47,20.2776  L47,19.9751  L47,19.6668  L47,19.3529  L47,19.0335  L47,18.7086  L47,18.3783  L47,18.0428  L47,17.7021  L47,17.3564  L47,17.0056  L47,16.65 " /><path d="M36.35,21.15 L36.35,20.8651  L36.35,20.5743  L36.35,20.2776  L36.35,19.9751  L36.35,19.6668  L36.35,19.3529  L36.35,19.0335  L36.35,18.7086  L36.35,18.3783  L36.35,18.0428  L36.35,17.7021  L36.35,17.3564  L36.35,17.0056  L36.35,16.65 " /><path d="M36.35,-16.65 L36.35,-17.0056  L36.35,-17.3564  L36.35,-17.7021  L36.35,-18.0428  L36.35,-18.3783  L36.35,-18.7086  L36.35,-19.0335  L36.35,-19.3529  L36.35,-19.6668  L36.35,-19.9751  L36.35,-20.2776  L36.35,-20.5743  L36.35,-20.8651  L36.35,-21.15 " /><path d="M49,0 L49,-1.23161  L49,-2.44773  L49,-3.63307  L49,-4.77272  L49,-5.85235  L49,-6.85839  L49,-7.77817  L49,-8.60015  L49,-9.31397  L49,-9.91066  L49,-10.3827  L49,-10.7242  L49,-10.9308  L49,-11 " /><path d="M49,11 L49,10.9308  L49,10.7242  L49,10.3827  L49,9.91066  L49,9.31397  L49,8.60015  L49,7.77817  L49,6.85839  L49,5.85235  L49,4.77272  L49,3.63307  L49,2.44773  L49,1.23161  L49,-3.63856e-14 " /><path d="M71,2.5 L71,2.48428  L71,2.43732  L71,2.35971  L71,2.25242  L71,2.11681  L71,1.95458  L71,1.76777  L71,1.55872  L71,1.33008  L71,1.08471  L71,0.825698  L71,0.556302  L71,0.279911  L71,-8.26946e-15 " /><path d="M71,0 L71,-0.279911  L71,-0.556302  L71,-0.825698  L71,-1.08471  L71,-1.33008  L71,-1.55872  L71,-1.76777  L71,-1.95458  L71,-2.11681  L71,-2.25242  L71,-2.35971  L71,-2.43732  L71,-2.48428  L71,-2.5 " /><path id= "24" d=" M 11.6 21.1 L 36.35 21.1 " />
<path d="M0,21.15 L0,20.8651  L0,20.5743  L0,20.2776  L0,19.9751  L0,19.6668  L0,19.3529  L0,19.0335  L0,18.7086  L0,18.3783  L0,18.0428  L0,17.7021  L0,17.3563  L0,17.0056  L0,16.65 " /><path id= "26" d=" M 0 16.65 L 0 -16.65 " />
<path d="M0,-16.65 L0,-17.0056  L0,-17.3563  L0,-17.7021  L0,-18.0428  L0,-18.3783  L0,-18.7086  L0,-19.0335  L0,-19.3529  L0,-19.6668  L0,-19.9751  L0,-20.2776  L0,-20.5743  L0,-20.8651  L0,-21.15 " /><path id= "28" d=" M 0 21.15 L 11.6 21.15 " />
<path d="M11.6,21.15 L11.6,20.8651  L11.6,20.5743  L11.6,20.2776  L11.6,19.9751  L11.6,19.6668  L11.6,19.3529  L11.6,19.0335  L11.6,18.7086  L11.6,18.3783  L11.6,18.0428  L11.6,17.7021  L11.6,17.3563  L11.6,17.0056  L11.6,16.65 " /><path id= "30" d=" M 0 16.65 L 11.6 16.65 " />
<path id= "31" d=" M 8.85 -13.701 L 8.85 13.701 " />
<path id= "32" d=" M 8.85 13.701 L 11.6 13.701 " />
<path id= "33" d=" M 11.6 16.65 L 11.6 13.701 " />
<path id= "34" d=" M 0 -16.65 L 11.6 -16.65 " />
<path id= "35" d=" M 11.6 -13.701 L 11.6 -16.65 " />
<path id= "36" d=" M 8.85 -13.701 L 11.6 -13.701 " />
<path d="M11.6,-16.65 L11.6,-17.0056  L11.6,-17.3563  L11.6,-17.7021  L11.6,-18.0428  L11.6,-18.3783  L11.6,-18.7086  L11.6,-19.0335  L11.6,-19.3529  L11.6,-19.6668  L11.6,-19.9751  L11.6,-20.2776  L11.6,-20.5743  L11.6,-20.8651  L11.6,-21.15 " /><path id= "38" d=" M 0 -21.15 L 11.6 -21.15 " />
<path id= "39" d=" M 8.85 -21.15 L 11.6 -21.15 " />
<path d="M8.85,-13.5941 L8.85,-13.6018  L8.85,-13.6094  L8.85,-13.6171  L8.85,-13.6247  L8.85,-13.6323  L8.85,-13.64  L8.85,-13.6476  L8.85,-13.6552  L8.85,-13.6629  L8.85,-13.6705  L8.85,-13.6781  L8.85,-13.6858  L8.85,-13.6934  L8.85,-13.701 " /><path id= "41" d=" M 8.85 -13.5941 L 8.85 13.5941 " />
<path d="M8.85,13.701 L8.85,13.6934  L8.85,13.6858  L8.85,13.6781  L8.85,13.6705  L8.85,13.6629  L8.85,13.6552  L8.85,13.6476  L8.85,13.64  L8.85,13.6323  L8.85,13.6247  L8.85,13.6171  L8.85,13.6094  L8.85,13.6018  L8.85,13.5941 " /><path id= "43" d=" M 11.6 -21.1 L 36.35 -21.1 " />
<path id= "44" d=" M 8.85 -13.5941 L 38.85 -13.5941 " />
<path id= "45" d=" M 8.85 13.5941 L 38.85 13.5941 " />
</g>
</g>



<g id="Ortho_0_1"
   transform="rotate(90,91.95,53.3833) translate(91.95,53.3833) scale(1,1)"
  >
<g   stroke="rgb(0, 0, 0)"
   stroke-width="0.35"
   stroke-linecap="butt"
   stroke-linejoin="miter"
   fill="none"
   transform="scale(1,-1)"
  >
<path id= "1" d=" M 16.65 -21.15 L -16.65 -21.15 " />
<path id= "2" d=" M -21.15 -16.65 L -21.15 16.65 " />
<path id= "3" d=" M -16.65 21.15 L 16.65 21.15 " />
<path id= "4" d=" M 21.15 16.65 L 21.15 -16.65 " />
<path d="M-21.15 -16.65 A26.9174 26.9174 0 0 1 -16.65 -21.15" /><path d="M-16.65 21.15 A26.9174 26.9174 0 0 1 -21.15 16.65" /><path d="M21.15 16.65 A26.9174 26.9174 0 0 1 16.65 21.15" /><path d="M16.65 -21.15 A26.9174 26.9174 0 0 1 21.15 -16.65" /><circle cx ="15.5" cy ="15.5" r ="1.5" /><circle cx ="0" cy ="0" r ="16.15" /><circle cx ="-15.5" cy ="15.5" r ="1.5" /><circle cx ="-15.5" cy ="-15.5" r ="1.5" /><circle cx ="15.5" cy ="-15.5" r ="1.5" /><circle cx ="-15.5" cy ="15.5" r ="1.5" /><circle cx ="0" cy ="0" r ="11" /><path d="M-2 -1.5 A2.5 2.5 0 0 1 2.5 8.26946e-15" /><path d="M-2 -1.5 A2.5 2.5 0 0 0 -2 1.5" /><path d="M2.5 0 A2.5 2.5 0 0 1 -2 1.5" /><path id= "19" d=" M -2 1.5 L -2 -1.5 " />
</g>
</g>



<g id="Ortho_1_0"
   transform="rotate(-90,205.05,177.767) translate(205.05,177.767) scale(1,1)"
  >
<g   stroke="rgb(0, 0, 0)"
   stroke-width="0.35"
   stroke-linecap="butt"
   stroke-linejoin="miter"
   fill="none"
   transform="scale(1,-1)"
  >
<path id= "1" d=" M 49 -11 L 47 -11 " />
<path id= "2" d=" M 50 -2.5 L 49 -2.5 " />
</g>
<g   stroke="rgb(0, 0, 0)"
   stroke-width="0.35"
   stroke-linecap="butt"
   stroke-linejoin="miter"
   fill="none"
   transform="scale(1,-1)"
  >
<path id= "1" d=" M 38.85 -13.701 L 38.85 13.701 " />
<path d="M38.85,-13.701 L38.85,-13.6934  L38.85,-13.6858  L38.85,-13.6781  L38.85,-13.6705  L38.85,-13.6629  L38.85,-13.6552  L38.85,-13.6476  L38.85,-13.64  L38.85,-13.6323  L38.85,-13.6247  L38.85,-13.6171  L38.85,-13.6094  L38.85,-13.6018  L38.85,-13.5941 " /><path id= "3" d=" M 38.85 13.5941 L 38.85 -13.5941 " />
<path d="M38.85,13.5941 L38.85,13.6018  L38.85,13.6094  L38.85,13.6171  L38.85,13.6247  L38.85,13.6323  L38.85,13.64  L38.85,13.6476  L38.85,13.6552  L38.85,13.6629  L38.85,13.6705  L38.85,13.6781  L38.85,13.6858  L38.85,13.6934  L38.85,13.701 " /><path d="M36.35,-21.1 L36.35,-21.1036  L36.35,-21.1072  L36.35,-21.1107  L36.35,-21.1143  L36.35,-21.1179  L36.35,-21.1215  L36.35,-21.125  L36.35,-21.1286  L36.35,-21.1322  L36.35,-21.1357  L36.35,-21.1393  L36.35,-21.1429  L36.35,-21.1464  L36.35,-21.15 " /><path id= "6" d=" M 38.85 -21.15 L 36.35 -21.15 " />
<path id= "7" d=" M 36.35 -21.15 L 47 -21.15 " />
<path id= "8" d=" M 38.85 -13.701 L 36.35 -13.701 " />
<path id= "9" d=" M 38.85 13.701 L 36.35 13.701 " />
<path id= "10" d=" M 36.35 13.701 L 36.35 16.65 " />
<path id= "11" d=" M 36.35 16.65 L 47 16.65 " />
<path id= "12" d=" M 47 -16.65 L 47 16.65 " />
<path id= "13" d=" M 36.35 -16.65 L 47 -16.65 " />
<path id= "14" d=" M 36.35 -16.65 L 36.35 -13.701 " />
<path id= "15" d=" M 38.85 21.15 L 36.35 21.15 " />
<path id= "16" d=" M 36.35 21.15 L 47 21.15 " />
<path d="M36.35,21.15 L36.35,21.1464  L36.35,21.1429  L36.35,21.1393  L36.35,21.1357  L36.35,21.1322  L36.35,21.1286  L36.35,21.125  L36.35,21.1215  L36.35,21.1179  L36.35,21.1143  L36.35,21.1107  L36.35,21.1072  L36.35,21.1036  L36.35,21.1 " /><path d="M47,-16.65 L47,-17.0056  L47,-17.3564  L47,-17.7021  L47,-18.0428  L47,-18.3783  L47,-18.7086  L47,-19.0335  L47,-19.3529  L47,-19.6668  L47,-19.9751  L47,-20.2776  L47,-20.5743  L47,-20.8651  L47,-21.15 " /><path d="M47,21.15 L47,20.8651  L47,20.5743  L47,20.2776  L47,19.9751  L47,19.6668  L47,19.3529  L47,19.0335  L47,18.7086  L47,18.3783  L47,18.0428  L47,17.7021  L47,17.3564  L47,17.0056  L47,16.65 " /><path d="M36.35,-16.65 L36.35,-17.0056  L36.35,-17.3564  L36.35,-17.7021  L36.35,-18.0428  L36.35,-18.3783  L36.35,-18.7086  L36.35,-19.0335  L36.35,-19.3529  L36.35,-19.6668  L36.35,-19.9751  L36.35,-20.2776  L36.35,-20.5743  L36.35,-20.8651  L36.35,-21.15 " /><path d="M36.35,21.15 L36.35,20.8651  L36.35,20.5743  L36.35,20.2776  L36.35,19.9751  L36.35,19.6668  L36.35,19.3529  L36.35,19.0335  L36.35,18.7086  L36.35,18.3783  L36.35,18.0428  L36.35,17.7021  L36.35,17.3564  L36.35,17.0056  L36.35,16.65 " /><path id= "22" d=" M 47 11 L 49 11 " />
<path d="M49,11 L49,10.7242  L49,9.91066  L49,8.60015  L49,6.85839  L49,4.77272  L49,2.44773  L49,6.73556e-16  L49,-2.44773  L49,-4.77272  L49,-6.85839  L49,-8.60015  L49,-9.91066  L49,-10.7242  L49,-11 " /><path id= "24" d=" M 49 2.5 L 71 2.5 " />
<path d="M50,-2.5 L50,-2.49736  L50,-2.48944  L50,-2.47627  L50,-2.45786  L50,-2.43427  L50,-2.40553  L50,-2.37171  L50,-2.33288  L50,-2.28912  L50,-2.24053  L50,-2.1872  L50,-2.12925  L50,-2.06681  L50,-2 " /><path id= "26" d=" M 71 -2 L 50 -2 " />
<path d="M71,2.5 L71,2.46031  L71,2.34249  L71,2.15028  L71,1.8898  L71,1.5693  L71,1.19897  L71,0.790569  L71,0.357063  L71,-0.0877811  L71,-0.529838  L71,-0.95507  L71,-1.34997  L71,-1.70201  L71,-2 " /><path d="M0,-16.65 L0,-17.0056  L0,-17.3563  L0,-17.7021  L0,-18.0428  L0,-18.3783  L0,-18.7086  L0,-19.0335  L0,-19.3529  L0,-19.6668  L0,-19.9751  L0,-20.2776  L0,-20.5743  L0,-20.8651  L0,-21.15 " /><path d="M0,21.15 L0,20.8651  L0,20.5743  L0,20.2776  L0,19.9751  L0,19.6668  L0,19.3529  L0,19.0335  L0,18.7086  L0,18.3783  L0,18.0428  L0,17.7021  L0,17.3563  L0,17.0056  L0,16.65 " /><path id= "30" d=" M 0 16.65 L 0 -16.65 " />
<path id= "31" d=" M 0 -21.15 L 11.6 -21.15 " />
<path id= "32" d=" M 8.85 -21.15 L 11.6 -21.15 " />
<path id= "33" d=" M 0 21.15 L 11.6 21.15 " />
<path id= "34" d=" M 0 -16.65 L 11.6 -16.65 " />
<path d="M11.6,-16.65 L11.6,-17.0056  L11.6,-17.3563  L11.6,-17.7021  L11.6,-18.0428  L11.6,-18.3783  L11.6,-18.7086  L11.6,-19.0335  L11.6,-19.3529  L11.6,-19.6668  L11.6,-19.9751  L11.6,-20.2776  L11.6,-20.5743  L11.6,-20.8651  L11.6,-21.15 " /><path d="M11.6,21.15 L11.6,20.8651  L11.6,20.5743  L11.6,20.2776  L11.6,19.9751  L11.6,19.6668  L11.6,19.3529  L11.6,19.0335  L11.6,18.7086  L11.6,18.3783  L11.6,18.0428  L11.6,17.7021  L11.6,17.3563  L11.6,17.0056  L11.6,16.65 " /><path id= "37" d=" M 0 16.65 L 11.6 16.65 " />
<path id= "38" d=" M 8.85 -13.701 L 8.85 13.701 " />
<path id= "39" d=" M 8.85 13.701 L 11.6 13.701 " />
<path id= "40" d=" M 11.6 16.65 L 11.6 13.701 " />
<path id= "41" d=" M 11.6 -13.701 L 11.6 -16.65 " />
<path id= "42" d=" M 8.85 -13.701 L 11.6 -13.701 " />
<path d="M8.85,-13.5941 L8.85,-13.6018  L8.85,-13.6094  L8.85,-13.6171  L8.85,-13.6247  L8.85,-13.6323  L8.85,-13.64  L8.85,-13.6476  L8.85,-13.6552  L8.85,-13.6629  L8.85,-13.6705  L8.85,-13.6781  L8.85,-13.6858  L8.85,-13.6934  L8.85,-13.701 " /><path id= "44" d=" M 8.85 -13.5941 L 8.85 13.5941 " />
<path d="M8.85,13.701 L8.85,13.6934  L8.85,13.6858  L8.85,13.6781  L8.85,13.6705  L8.85,13.6629  L8.85,13.6552  L8.85,13.6476  L8.85,13.64  L8.85,13.6323  L8.85,13.6247  L8.85,13.6171  L8.85,13.6094  L8.85,13.6018  L8.85,13.5941 " /><path id= "46" d=" M 11.6 -21.1 L 36.35 -21.1 " />
<path id= "47" d=" M 8.85 -13.5941 L 38.85 -13.5941 " />
<path id= "48" d=" M 8.85 13.5941 L 38.85 13.5941 " />
<path id= "49" d=" M 11.6 21.1 L 36.35 21.1 " />
</g>
</g>



</svg>

