<?xml version="1.0" encoding="UTF-8"?>

<svg xmlns="http://www.w3.org/2000/svg" version="1.1"
	width="297mm"
	height="210mm"
	viewBox="0 0 297 210">
	<!-- Working space 0 0 297 210 -->
	<defs>
		<radialGradient
			id="radialGradient3661"
			gradientUnits="userSpaceOnUse"
			cy="29.149"
			cx="282.65"
			gradientTransform="matrix(.14777 .23089 -.24680 .15795 -26.318 -62.617)"
			r="19.571">
				<stop stop-color="#71b2f8" offset="0"/>
				<stop stop-color="#002795" offset="1"/>
		</radialGradient>
		<radialGradient
			id="radialGradient3817"
			gradientUnits="userSpaceOnUse"
			cy="33.9"
			cx="270.58"
			gradientTransform="matrix(.26631 .065024 -.17931 .73438 -60.668 -36.938)"
			r="19.571">
				<stop stop-color="#ff6d0f" offset="0"/>
				<stop stop-color="#ff1000" offset="1"/>
		</radialGradient>
	</defs>
	<!-- Set display:none to hide FreeCAD Logo -->
	<g
		style="display:inline"
		id="freecad-logo"
		transform="translate(271, 185) scale(1)"
		fill-rule="evenodd"
		stroke-width=".45621">
		<path d="m0.22811 0.22835v13.256h2.9558v-5.1876h2.09v-2.0452h-2.09v-2.2075h5.1486v-3.8087l-8.1044-0.0075z"
			stroke="#370700"
			fill="url(#radialGradient3817)"/>
		<path d="m13.386 4.1792-1.7193 0.98645-0.75925-0.26348-0.72439-1.8513-1.1395 0.05988-0.51976 1.9144-0.72743 0.34835-1.8143-0.79367-0.76632 0.85156 0.98645 1.7193-0.26957 0.75702-1.8513 0.72439 0.065967 1.1417 1.9144 0.51976 0.34835 0.72743-0.79976 1.8121 0.85156 0.76632 1.7193-0.98645 0.76311 0.27179 0.7183 1.8491 1.1478-0.06375 0.51367-1.9166 0.72743-0.34835 1.8182 0.80198 0.76632-0.85156-0.98645-1.7193 0.2657-0.76533 1.8491-0.7183-0.05766-1.1456-1.9166-0.51367-0.34835-0.72743 0.7959-1.8204-0.85156-0.76632zm-2.5751 2.8195 0.35295 0.20478 0.30579 0.27725 0.24481 0.33087 0.17611 0.36787 0.10354 0.39656 0.01715 0.4064-0.0587 0.4063-0.13396 0.38571-0.2131 0.35681-0.26894 0.30192-0.33087 0.24481-0.36787 0.17611-0.39656 0.10354-0.40863 0.02325-0.4063-0.0587-0.38571-0.13396-0.35681-0.2131-0.2997-0.27503-0.24703-0.32478-0.17611-0.36787-0.10132-0.40264-0.02324-0.40863 0.05869-0.4063 0.13396-0.38571 0.21087-0.35072 0.27116-0.30801 0.33087-0.24481 0.36787-0.17611 0.40264-0.10132 0.40641-0.01715 0.4063 0.05869 0.38571 0.13396z" 
		stroke="#000137"
		fill="url(#radialGradient3661)"/>
	</g>
<g id="View"
   transform="rotate(60,148.5,126.984) translate(148.5,126.984) scale(1,1)"
  >
<g   stroke="rgb(0, 0, 0)"
   stroke-width="0.35"
   stroke-linecap="butt"
   stroke-linejoin="miter"
   fill="none"
   transform="scale(1,-1)"
  >
<path id= "1" d=" M -39.162 -8.47133 L -46.6927 -4.12348 " />
<path id= "2" d=" M -12.2446 38.151 L -19.7753 42.4988 " />
<path id= "3" d=" M -40.1482 10.4779 L -38.3805 9.45727 " />
<path id= "4" d=" M -29.1482 29.5304 L -27.3805 28.5098 " />
<path id= "5" d=" M -51.4546 26.8206 L -35.8982 17.8391 " />
<path id= "6" d=" M -48.9546 31.1507 L -33.3982 22.1692 " />
<path id= "7" d=" M -21.6611 -18.5754 L -13.4587 -23.3111 " />
<path id= "8" d=" M 5.25625 28.0468 L 13.4587 23.3111 " />
<path id= "9" d=" M -35.848 -8.28612 L -19.6311 -17.649 " />
<path id= "10" d=" M -10.748 35.1884 L 5.46894 25.8255 " />
</g>
<g   stroke="rgb(0, 0, 0)"
   stroke-width="0.35"
   stroke-linecap="butt"
   stroke-linejoin="miter"
   fill="none"
   transform="scale(1,-1)"
  >
<path id= "1" d=" M -17.783 4.18495 L -37.1592 -7.00187 " />
<path id= "2" d=" M -12.5158 35.6817 L -12.5158 13.3081 " />
<path id= "3" d=" M -37.1592 -7.00187 L -35.3914 -8.02249 " />
<path id= "4" d=" M -35.3914 -8.02249 L -37.4767 -9.22643 " />
<path id= "5" d=" M -37.4767 -9.22643 L -45.0074 -4.87858 " />
<path id= "6" d=" M -21.4607 8.71612 L -45.0074 -4.87858 " />
<path id= "7" d=" M -13.93 4.36827 L -21.4607 8.71612 " />
<path id= "8" d=" M -13.93 4.36827 L -16.0153 3.16433 " />
<path id= "9" d=" M -17.783 4.18495 L -16.0153 3.16433 " />
<path id= "10" d=" M -48.1893 -3.04148 L -48.1893 24.1479 " />
<path id= "11" d=" M -45.0074 29.6592 L -21.4607 43.2539 " />
<path id= "12" d=" M -12.5158 35.6817 L -10.748 34.6611 " />
<path id= "13" d=" M -12.5158 13.3081 L -10.748 12.2875 " />
<path id= "14" d=" M -10.748 12.2875 L -10.748 9.87957 " />
<path id= "15" d=" M -10.748 9.87957 L -18.2787 14.2274 " />
<path id= "16" d=" M -18.2787 41.4168 L -18.2787 14.2274 " />
<path id= "17" d=" M -10.748 37.069 L -18.2787 41.4168 " />
<path id= "18" d=" M -10.748 37.069 L -10.748 34.6611 " />
<path d="M-39.162 -8.47133 A26.9174 15.5408 60 0 1 -37.4767 -9.22643" />
<path d="M-48.1893 -3.04148 A26.9174 15.5408 60 0 1 -46.6927 -4.12348" />
<path d="M-46.6927 -4.12348 A26.9174 15.5408 60 0 1 -45.0074 -4.87858" />
<path d="M-18.2787 41.4168 A26.9174 15.5408 60 0 1 -19.7753 42.4988" />
<path d="M-19.7753 42.4988 A26.9174 15.5408 60 0 1 -21.4607 43.2539" />
<path d="M-21.4607 8.71612 A26.9174 15.5408 60 0 1 -18.2787 14.2274" />
<path d="M-23.3345 37.5588 A1.5 0.866025 60 0 1 -23.0239 36.8722" />
<path d="M-23.0239 36.8722 A1.5 0.866025 60 0 1 -21.5239 39.4703" />
<path d="M-21.5239 39.4703 A1.5 0.866025 60 0 1 -23.3345 37.5588" />
<path d="M-21.8142 25.7809 A16.15 9.32421 60 0 1 -25.159 33.174" />
<path d="M-25.159 33.174 A16.15 9.32421 60 0 1 -41.309 5.20136" />
<path d="M-41.309 5.20136 A16.15 9.32421 60 0 1 -21.8142 25.7809" />
<path d="M-43.1335 0.816497 A1.5 0.866025 60 0 1 -43.4442 1.50316" />
<path d="M-43.4442 1.50316 A1.5 0.866025 60 0 1 -44.9442 -1.09491" />
<path d="M-44.9442 -1.09491 A1.5 0.866025 60 0 1 -43.1335 0.816497" />
<path d="M-22.2739 14.0846 A1.5 0.866025 60 0 1 -23.0239 11.5608" />
<path d="M-23.0239 11.5608 A1.5 0.866025 60 0 1 -21.5239 14.1589" />
<path d="M-21.5239 14.1589 A1.5 0.866025 60 0 1 -22.2739 14.0846" />
<path d="M-13.93 4.36827 A26.9174 15.5408 60 0 1 -10.748 9.87957" />
<path d="M-10.748 37.069 A26.9174 15.5408 60 0 1 -12.2446 38.151" />
<path d="M-24.9842 33.0686 A16.15 9.32421 60 0 1 -41.1303 5.10265" />
<path d="M-25.1023 23.4743 A11 6.35085 60 0 1 -27.3805 28.5098" />
<path d="M-38.3805 9.45727 A11 6.35085 60 0 1 -25.1023 23.4743" />
<path d="M-26.8701 24.4949 A11 6.35085 60 0 1 -29.1482 29.5304" />
<path d="M-29.1482 29.5304 A11 6.35085 60 0 1 -40.1482 10.4779" />
<path d="M-40.1482 10.4779 A11 6.35085 60 0 1 -26.8701 24.4949" />
<path d="M-32.8805 21.0248 A2.5 1.44338 60 0 1 -33.3982 22.1692" />
<path d="M-35.8982 17.8391 A2.5 1.44338 60 0 1 -32.8805 21.0248" />
<path d="M-51.6188 26.9444 A2.5 1.44338 60 0 1 -51.4546 26.8206" />
<path d="M-51.4546 26.8206 A2.5 1.44338 60 0 1 -48.4368 30.0062" />
<path d="M-48.4368 30.0062 A2.5 1.44338 60 0 1 -48.9546 31.1507" />
<path d="M-48.9546 31.1507 A2.5 1.44338 60 0 1 -51.6188 29.3939" />
<path id= "51" d=" M -51.6188 29.3939 L -51.6188 26.9444 " />
<path id= "52" d=" M 3.3546 -8.06531 L -17.8233 4.16173 " />
<path id= "53" d=" M -15.8704 -19.1649 L -37.0482 -6.93782 " />
<path id= "54" d=" M 3.3546 -8.06531 L -15.8704 -19.1649 " />
<path id= "55" d=" M -11.7733 -24.0662 L 11.7733 -10.4716 " />
<path d="M-13.4587 -23.3111 A26.9174 15.5408 60 0 1 -11.7733 -24.0662" />
<path d="M11.7733 -10.4716 A26.9174 15.5408 60 0 1 14.9553 -4.96022" />
<path id= "58" d=" M 14.9553 -4.96022 L 14.9553 22.2291 " />
<path d="M14.9553 22.2291 A26.9174 15.5408 60 0 1 13.4587 23.3111" />
<path id= "60" d=" M 3.43018 -8.06249 L -15.946 -19.2493 " />
<path id= "61" d=" M -15.946 -19.2493 L -17.8905 -18.1266 " />
<path id= "62" d=" M -19.9758 -19.3306 L -17.8905 -18.1266 " />
<path id= "63" d=" M -11.7733 -24.0662 L -19.9758 -19.3306 " />
<path id= "64" d=" M 11.7733 -10.4716 L 3.57089 -5.73589 " />
<path id= "65" d=" M 1.48563 -6.93981 L 3.57089 -5.73589 " />
<path id= "66" d=" M 3.43018 -8.06249 L 1.48563 -6.93981 " />
<path d="M-23.1577 -17.4934 A26.9174 15.5408 60 0 1 -21.6611 -18.5754" />
<path d="M-21.6611 -18.5754 A26.9174 15.5408 60 0 1 -19.9758 -19.3306" />
<path d="M3.57089 -5.73589 A26.9174 15.5408 60 0 1 6.75287 -0.224536" />
<path id= "70" d=" M 14.9553 -4.96022 L 6.75287 -0.224536 " />
<path id= "71" d=" M -23.1577 -15.0856 L -23.1577 -17.4934 " />
<path id= "72" d=" M 8.69741 23.4343 L 8.69741 1.06063 " />
<path id= "73" d=" M 8.69741 1.06063 L 6.75287 2.18331 " />
<path id= "74" d=" M 6.75287 -0.224536 L 6.75287 2.18331 " />
<path id= "75" d=" M 14.9553 22.2291 L 6.75287 26.9648 " />
<path id= "76" d=" M 6.75287 24.557 L 6.75287 26.9648 " />
<path id= "77" d=" M 8.69741 23.4343 L 6.75287 24.557 " />
<path d="M6.75287 26.9648 A26.9174 15.5408 60 0 1 5.25625 28.0468" />
<path d="M5.25625 28.0468 A26.9174 15.5408 60 0 1 3.57089 28.8019" />
<path id= "80" d=" M 3.57089 28.8019 L 1.94225 27.8616 " />
<path d="M5.33226 25.9331 A25.2 14.5492 60 0 1 5.17072 25.9977" />
<path d="M-16.1966 -19.1046 A25.1 14.4915 60 0 1 -15.8704 -19.1649" />
<path d="M8.66206 23.3266 A25.1 14.4915 60 0 1 8.44674 23.579" />
<path id= "84" d=" M 8.66206 23.3266 L 8.66206 1.12749 " />
<path d="M3.3546 -8.06531 A25.1 14.4915 60 0 1 3.37904 -8.03297" />
<path d="M8.64628 1.09015 A25.1 14.4915 60 0 1 8.66206 1.12749" />
<path d="M-20.8024 -17.0882 A25.2 14.5492 60 0 1 -17.8905 -18.1266" />
<path d="M1.48563 -6.93981 A25.2 14.5492 60 0 1 6.75287 2.18331" />
<path d="M6.75287 24.557 A25.2 14.5492 60 0 1 4.39756 26.5595" />
<path d="M4.39756 26.5595 A25.2 14.5492 60 0 1 3.22618 27.1203" />
<path id= "91" d=" M 8.66206 23.3266 L -12.5158 35.5536 " />
<path id= "92" d=" M 8.66206 1.12749 L -12.5158 13.3545 " />
</g>
</g>



</svg>

