<?xml version="1.0" encoding="UTF-8"?>

<svg xmlns="http://www.w3.org/2000/svg" version="1.1"
	width="297mm"
	height="210mm"
	viewBox="0 0 297 210">
	<!-- Working space 0 0 297 210 -->
	<defs>
		<radialGradient
			id="radialGradient3661"
			gradientUnits="userSpaceOnUse"
			cy="29.149"
			cx="282.65"
			gradientTransform="matrix(.14777 .23089 -.24680 .15795 -26.318 -62.617)"
			r="19.571">
				<stop stop-color="#71b2f8" offset="0"/>
				<stop stop-color="#002795" offset="1"/>
		</radialGradient>
		<radialGradient
			id="radialGradient3817"
			gradientUnits="userSpaceOnUse"
			cy="33.9"
			cx="270.58"
			gradientTransform="matrix(.26631 .065024 -.17931 .73438 -60.668 -36.938)"
			r="19.571">
				<stop stop-color="#ff6d0f" offset="0"/>
				<stop stop-color="#ff1000" offset="1"/>
		</radialGradient>
	</defs>
	<!-- Set display:none to hide FreeCAD Logo -->
	<g
		style="display:inline"
		id="freecad-logo"
		transform="translate(271, 185) scale(1)"
		fill-rule="evenodd"
		stroke-width=".45621">
		<path d="m0.22811 0.22835v13.256h2.9558v-5.1876h2.09v-2.0452h-2.09v-2.2075h5.1486v-3.8087l-8.1044-0.0075z"
			stroke="#370700"
			fill="url(#radialGradient3817)"/>
		<path d="m13.386 4.1792-1.7193 0.98645-0.75925-0.26348-0.72439-1.8513-1.1395 0.05988-0.51976 1.9144-0.72743 0.34835-1.8143-0.79367-0.76632 0.85156 0.98645 1.7193-0.26957 0.75702-1.8513 0.72439 0.065967 1.1417 1.9144 0.51976 0.34835 0.72743-0.79976 1.8121 0.85156 0.76632 1.7193-0.98645 0.76311 0.27179 0.7183 1.8491 1.1478-0.06375 0.51367-1.9166 0.72743-0.34835 1.8182 0.80198 0.76632-0.85156-0.98645-1.7193 0.2657-0.76533 1.8491-0.7183-0.05766-1.1456-1.9166-0.51367-0.34835-0.72743 0.7959-1.8204-0.85156-0.76632zm-2.5751 2.8195 0.35295 0.20478 0.30579 0.27725 0.24481 0.33087 0.17611 0.36787 0.10354 0.39656 0.01715 0.4064-0.0587 0.4063-0.13396 0.38571-0.2131 0.35681-0.26894 0.30192-0.33087 0.24481-0.36787 0.17611-0.39656 0.10354-0.40863 0.02325-0.4063-0.0587-0.38571-0.13396-0.35681-0.2131-0.2997-0.27503-0.24703-0.32478-0.17611-0.36787-0.10132-0.40264-0.02324-0.40863 0.05869-0.4063 0.13396-0.38571 0.21087-0.35072 0.27116-0.30801 0.33087-0.24481 0.36787-0.17611 0.40264-0.10132 0.40641-0.01715 0.4063 0.05869 0.38571 0.13396z" 
		stroke="#000137"
		fill="url(#radialGradient3661)"/>
	</g>
<g id="View"
   transform="rotate(60,141.71,109.889) translate(141.71,109.889) scale(1,1)"
  >
<g   stroke="rgb(0, 0, 0)"
   stroke-width="0.35"
   stroke-linecap="butt"
   stroke-linejoin="miter"
   fill="none"
   transform="scale(1,-1)"
  >
<path id= "1" d=" M 4.6603 17.8045 L 1.83187 19.4375 " />
<path id= "2" d=" M -4.91343 -1.97833 L -2.085 -3.61133 " />
</g>
<g   stroke="rgb(0, 0, 0)"
   stroke-width="0.35"
   stroke-linecap="butt"
   stroke-linejoin="miter"
   fill="none"
   transform="scale(1,-1)"
  >
<path d="M4.97096 17.1179 A1.5 0.866025 60 0 1 4.6603 17.8045" />
<path id= "2" d=" M 4.97096 17.1179 L 4.97096 13.0354 " />
<path d="M-2.085 -3.61133 A4.17 2.40755 60 0 1 2.94864 1.7024" />
<path d="M3.9103 11.1983 A1.5 0.866025 60 0 1 4.97096 13.0354" />
<path id= "5" d=" M 2.94864 9.82654 L 2.94864 1.7024 " />
<path id= "6" d=" M 3.9103 11.1983 L 3.65574 11.0513 " />
<path d="M2.94864 9.82654 A1 0.57735 -120 0 0 3.65574 11.0513" />
<path id= "8" d=" M -3.65574 16.628 L 1.08187 19.3632 " />
<path d="M-3.65574 16.628 A3 1.73205 60 0 1 -5.77706 12.9537" />
<path d="M2.14253 18.7508 A1.5 0.866025 60 0 1 1.83187 19.4375" />
<path d="M1.83187 19.4375 A1.5 0.866025 60 0 1 1.08187 19.3632" />
<path id= "12" d=" M -5.77706 -0.0694022 L -5.77706 12.9537 " />
<path id= "13" d=" M 2.14253 18.7508 L 2.14253 14.6684 " />
<path d="M-5.77706 -0.0694022 A4.17 2.40755 60 0 1 -4.91343 -1.97833" />
<path d="M-4.91343 -1.97833 A4.17 2.40755 60 0 1 0.120208 3.33539" />
<path d="M1.08187 12.8312 A1.5 0.866025 60 0 1 2.14253 14.6684" />
<path id= "17" d=" M 0.120208 11.4595 L 0.120208 3.33539 " />
<path id= "18" d=" M 1.08187 12.8312 L 0.827315 12.6843 " />
<path d="M0.120208 11.4595 A1 0.57735 -120 0 0 0.827315 12.6843" />
<path d="M-0.120208 15.0358 A2 1.1547 60 0 1 -0.534422 15.9513" />
<path d="M-0.534422 15.9513 A2 1.1547 60 0 1 -2.53442 12.4872" />
<path d="M-2.53442 12.4872 A2 1.1547 60 0 1 -0.120208 15.0358" />
<path d="M-1.76777 2.24537 A1.5 0.866025 60 0 1 -2.07843 2.93203" />
<path d="M-2.07843 2.93203 A1.5 0.866025 60 0 1 -3.57843 0.333955" />
<path d="M-3.57843 0.333955 A1.5 0.866025 60 0 1 -1.76777 2.24537" />
</g>
</g>



</svg>

