<?xml version="1.0" encoding="UTF-8"?>

<svg xmlns="http://www.w3.org/2000/svg" version="1.1"
	width="297mm"
	height="210mm"
	viewBox="0 0 297 210">
	<!-- Working space 0 0 297 210 -->
	<defs>
		<radialGradient
			id="radialGradient3661"
			gradientUnits="userSpaceOnUse"
			cy="29.149"
			cx="282.65"
			gradientTransform="matrix(.14777 .23089 -.24680 .15795 -26.318 -62.617)"
			r="19.571">
				<stop stop-color="#71b2f8" offset="0"/>
				<stop stop-color="#002795" offset="1"/>
		</radialGradient>
		<radialGradient
			id="radialGradient3817"
			gradientUnits="userSpaceOnUse"
			cy="33.9"
			cx="270.58"
			gradientTransform="matrix(.26631 .065024 -.17931 .73438 -60.668 -36.938)"
			r="19.571">
				<stop stop-color="#ff6d0f" offset="0"/>
				<stop stop-color="#ff1000" offset="1"/>
		</radialGradient>
	</defs>
	<!-- Set display:none to hide FreeCAD Logo -->
	<g
		style="display:inline"
		id="freecad-logo"
		transform="translate(271, 185) scale(1)"
		fill-rule="evenodd"
		stroke-width=".45621">
		<path d="m0.22811 0.22835v13.256h2.9558v-5.1876h2.09v-2.0452h-2.09v-2.2075h5.1486v-3.8087l-8.1044-0.0075z"
			stroke="#370700"
			fill="url(#radialGradient3817)"/>
		<path d="m13.386 4.1792-1.7193 0.98645-0.75925-0.26348-0.72439-1.8513-1.1395 0.05988-0.51976 1.9144-0.72743 0.34835-1.8143-0.79367-0.76632 0.85156 0.98645 1.7193-0.26957 0.75702-1.8513 0.72439 0.065967 1.1417 1.9144 0.51976 0.34835 0.72743-0.79976 1.8121 0.85156 0.76632 1.7193-0.98645 0.76311 0.27179 0.7183 1.8491 1.1478-0.06375 0.51367-1.9166 0.72743-0.34835 1.8182 0.80198 0.76632-0.85156-0.98645-1.7193 0.2657-0.76533 1.8491-0.7183-0.05766-1.1456-1.9166-0.51367-0.34835-0.72743 0.7959-1.8204-0.85156-0.76632zm-2.5751 2.8195 0.35295 0.20478 0.30579 0.27725 0.24481 0.33087 0.17611 0.36787 0.10354 0.39656 0.01715 0.4064-0.0587 0.4063-0.13396 0.38571-0.2131 0.35681-0.26894 0.30192-0.33087 0.24481-0.36787 0.17611-0.39656 0.10354-0.40863 0.02325-0.4063-0.0587-0.38571-0.13396-0.35681-0.2131-0.2997-0.27503-0.24703-0.32478-0.17611-0.36787-0.10132-0.40264-0.02324-0.40863 0.05869-0.4063 0.13396-0.38571 0.21087-0.35072 0.27116-0.30801 0.33087-0.24481 0.36787-0.17611 0.40264-0.10132 0.40641-0.01715 0.4063 0.05869 0.38571 0.13396z" 
		stroke="#000137"
		fill="url(#radialGradient3661)"/>
	</g>
<g id="Ortho_0_0"
   transform="rotate(-90,92.21,157.333) translate(92.21,157.333) scale(1,1)"
  >
<g   stroke="rgb(0, 0, 0)"
   stroke-width="0.35"
   stroke-linecap="butt"
   stroke-linejoin="miter"
   fill="none"
   transform="scale(1,-1)"
  >
<path id= "1" d=" M 4 4.17 L 0 4.17 " />
</g>
<g   stroke="rgb(0, 0, 0)"
   stroke-width="0.35"
   stroke-linecap="butt"
   stroke-linejoin="miter"
   fill="none"
   transform="scale(1,-1)"
  >
<path d="M0,-17.45 L0,-17.6179  L0,-17.7838  L0,-17.9454  L0,-18.1008  L0,-18.248  L0,-18.3852  L0,-18.5107  L0,-18.6227  L0,-18.7201  L0,-18.8015  L0,-18.8658  L0,-18.9124  L0,-18.9406  L0,-18.95 " /><path id= "2" d=" M 0 -17.45 L 0 -12.45 " />
<path d="M0,4.17 L0,4.14378  L0,4.06545  L0,3.93599  L0,3.75704  L0,3.53084  L0,3.26024  L0,2.94864  L0,2.59995  L0,2.21857  L0,1.8093  L0,1.37726  L0,0.927912  L0,0.466892  L0,-1.37935e-14 " /><path d="M0,-10.95 L0,-10.9594  L0,-10.9876  L0,-11.0342  L0,-11.0985  L0,-11.1799  L0,-11.2773  L0,-11.3893  L0,-11.5148  L0,-11.652  L0,-11.7992  L0,-11.9546  L0,-12.1162  L0,-12.2821  L0,-12.45 " /><path id= "5" d=" M 0 -9.95 L 0 -3.55271e-15 " />
<path d="M0,-9.95 L0,-10.062  L0,-10.1725  L0,-10.2803  L0,-10.3839  L0,-10.482  L0,-10.5735  L0,-10.6571  L0,-10.7318  L0,-10.7967  L0,-10.851  L0,-10.8939  L0,-10.9249  L0,-10.9437  L0,-10.95 " /><path id= "7" d=" M 0 -18.95 L 4 -18.95 " />
<path id= "8" d=" M 0 -18.95 L 4 -18.95 " />
<path d="M4,-17.45 L4,-17.6179  L4,-17.7838  L4,-17.9454  L4,-18.1008  L4,-18.248  L4,-18.3852  L4,-18.5107  L4,-18.6227  L4,-18.7201  L4,-18.8015  L4,-18.8658  L4,-18.9124  L4,-18.9406  L4,-18.95 " /><path id= "10" d=" M 4 -17.45 L 4 -12.45 " />
<path d="M4,4.17 L4,4.14378  L4,4.06545  L4,3.93599  L4,3.75704  L4,3.53084  L4,3.26024  L4,2.94864  L4,2.59995  L4,2.21857  L4,1.8093  L4,1.37726  L4,0.927912  L4,0.466892  L4,-1.37935e-14 " /><path id= "12" d=" M 0 -10.95 L 4 -10.95 " />
<path d="M4,-10.95 L4,-10.9594  L4,-10.9876  L4,-11.0342  L4,-11.0985  L4,-11.1799  L4,-11.2773  L4,-11.3893  L4,-11.5148  L4,-11.652  L4,-11.7992  L4,-11.9546  L4,-12.1162  L4,-12.2821  L4,-12.45 " /><path id= "14" d=" M 4 -9.95 L 4 -3.55271e-15 " />
<path d="M4,-9.95 L4,-10.062  L4,-10.1725  L4,-10.2803  L4,-10.3839  L4,-10.482  L4,-10.5735  L4,-10.6571  L4,-10.7318  L4,-10.7967  L4,-10.851  L4,-10.8939  L4,-10.9249  L4,-10.9437  L4,-10.95 " /></g>
</g>



<g id="Ortho_0_1"
   transform="rotate(90,92.21,71.2367) translate(92.21,71.2367) scale(1,1)"
  >
<g   stroke="rgb(0, 0, 0)"
   stroke-width="0.35"
   stroke-linecap="butt"
   stroke-linejoin="miter"
   fill="none"
   transform="scale(1,-1)"
  >
<path id= "1" d=" M -1.17 18.95 L 5.53 18.95 " />
<path d="M-1.17 18.95 A3 3 0 0 1 -4.17 15.95" /><path d="M7.03 17.45 A1.5 1.5 0 0 1 5.53 18.95" /><path id= "4" d=" M -4.17 0 L -4.17 15.95 " />
<path id= "5" d=" M 7.03 17.45 L 7.03 12.45 " />
<path d="M-4.17 1.34736e-14 A4.17 4.17 0 1 1 4.17 1.37935e-14" /><path d="M5.53 10.95 A1.5 1.5 0 0 1 7.03 12.45" /><path id= "8" d=" M 4.17 9.95 L 4.17 3.55271e-15 " />
<path id= "9" d=" M 5.53 10.95 L 5.17 10.95 " />
<path d="M4.17 9.95 A1 1 0 0 0 5.17 10.95" /><circle cx ="1.83" cy ="14.5" r ="2" /><circle cx ="0" cy ="0" r ="1.5" /></g>
</g>



<g id="Ortho_1_0"
   transform="rotate(-90,228.63,157.333) translate(228.63,157.333) scale(1,1)"
  >
<g   stroke="rgb(0, 0, 0)"
   stroke-width="0.35"
   stroke-linecap="butt"
   stroke-linejoin="miter"
   fill="none"
   transform="scale(1,-1)"
  >
<path id= "1" d=" M 0 -1.17 L 0 5.53 " />
<path d="M0,-1.17 L0,-1.50589  L0,-1.83756  L0,-2.16084  L0,-2.47165  L0,-2.7661  L0,-3.04047  L0,-3.29132  L0,-3.51549  L0,-3.71017  L0,-3.87291  L0,-4.00165  L0,-4.09478  L0,-4.15114  L0,-4.17 " /><path d="M0,7.03 L0,7.02057  L0,6.99239  L0,6.94582  L0,6.88145  L0,6.80009  L0,6.70275  L0,6.59066  L0,6.46523  L0,6.32805  L0,6.18083  L0,6.02542  L0,5.86378  L0,5.69795  L0,5.53 " /><path id= "4" d=" M 4 -1.17 L 4 5.53 " />
<path id= "5" d=" M 0 -4.17 L 4 -4.17 " />
<path d="M4,-1.17 L4,-1.50589  L4,-1.83756  L4,-2.16084  L4,-2.47165  L4,-2.7661  L4,-3.04047  L4,-3.29132  L4,-3.51549  L4,-3.71017  L4,-3.87291  L4,-4.00165  L4,-4.09478  L4,-4.15114  L4,-4.17 " /><path id= "7" d=" M 0 7.03 L 4 7.03 " />
<path d="M4,7.03 L4,7.02057  L4,6.99239  L4,6.94582  L4,6.88145  L4,6.80009  L4,6.70275  L4,6.59066  L4,6.46523  L4,6.32805  L4,6.18083  L4,6.02542  L4,5.86378  L4,5.69795  L4,5.53 " /></g>
</g>



</svg>

