<?xml version="1.0" encoding="UTF-8"?>

<svg xmlns="http://www.w3.org/2000/svg" version="1.1"
	width="297mm"
	height="210mm"
	viewBox="0 0 297 210">
	<!-- Working space 0 0 297 210 -->
	<defs>
		<radialGradient
			id="radialGradient3661"
			gradientUnits="userSpaceOnUse"
			cy="29.149"
			cx="282.65"
			gradientTransform="matrix(.14777 .23089 -.24680 .15795 -26.318 -62.617)"
			r="19.571">
				<stop stop-color="#71b2f8" offset="0"/>
				<stop stop-color="#002795" offset="1"/>
		</radialGradient>
		<radialGradient
			id="radialGradient3817"
			gradientUnits="userSpaceOnUse"
			cy="33.9"
			cx="270.58"
			gradientTransform="matrix(.26631 .065024 -.17931 .73438 -60.668 -36.938)"
			r="19.571">
				<stop stop-color="#ff6d0f" offset="0"/>
				<stop stop-color="#ff1000" offset="1"/>
		</radialGradient>
	</defs>
	<!-- Set display:none to hide FreeCAD Logo -->
	<g
		style="display:inline"
		id="freecad-logo"
		transform="translate(271, 185) scale(1)"
		fill-rule="evenodd"
		stroke-width=".45621">
		<path d="m0.22811 0.22835v13.256h2.9558v-5.1876h2.09v-2.0452h-2.09v-2.2075h5.1486v-3.8087l-8.1044-0.0075z"
			stroke="#370700"
			fill="url(#radialGradient3817)"/>
		<path d="m13.386 4.1792-1.7193 0.98645-0.75925-0.26348-0.72439-1.8513-1.1395 0.05988-0.51976 1.9144-0.72743 0.34835-1.8143-0.79367-0.76632 0.85156 0.98645 1.7193-0.26957 0.75702-1.8513 0.72439 0.065967 1.1417 1.9144 0.51976 0.34835 0.72743-0.79976 1.8121 0.85156 0.76632 1.7193-0.98645 0.76311 0.27179 0.7183 1.8491 1.1478-0.06375 0.51367-1.9166 0.72743-0.34835 1.8182 0.80198 0.76632-0.85156-0.98645-1.7193 0.2657-0.76533 1.8491-0.7183-0.05766-1.1456-1.9166-0.51367-0.34835-0.72743 0.7959-1.8204-0.85156-0.76632zm-2.5751 2.8195 0.35295 0.20478 0.30579 0.27725 0.24481 0.33087 0.17611 0.36787 0.10354 0.39656 0.01715 0.4064-0.0587 0.4063-0.13396 0.38571-0.2131 0.35681-0.26894 0.30192-0.33087 0.24481-0.36787 0.17611-0.39656 0.10354-0.40863 0.02325-0.4063-0.0587-0.38571-0.13396-0.35681-0.2131-0.2997-0.27503-0.24703-0.32478-0.17611-0.36787-0.10132-0.40264-0.02324-0.40863 0.05869-0.4063 0.13396-0.38571 0.21087-0.35072 0.27116-0.30801 0.33087-0.24481 0.36787-0.17611 0.40264-0.10132 0.40641-0.01715 0.4063 0.05869 0.38571 0.13396z" 
		stroke="#000137"
		fill="url(#radialGradient3661)"/>
	</g>
<g id="View"
   transform="rotate(60,113.533,116.204) translate(113.533,116.204) scale(1,1)"
  >
<g   stroke="rgb(0, 0, 0)"
   stroke-width="0.35"
   stroke-linecap="butt"
   stroke-linejoin="miter"
   fill="none"
   transform="scale(1,-1)"
  >
<path id= "1" d=" M 22.7272 29.3831 L 22.7272 27.2548 " />
<path id= "2" d=" M -12.2433 29.3831 L -12.2433 30.6078 " />
<path id= "3" d=" M 27.6978 29.3831 L 27.6978 30.6078 " />
<path id= "4" d=" M -7.27278 29.3831 L -7.27278 27.2548 " />
<path id= "5" d=" M -12.2433 22.4428 L -12.2433 23.6676 " />
<path id= "6" d=" M 27.6978 22.4428 L 27.6978 23.6676 " />
<path id= "7" d=" M -3.89311 36.6245 L -4.19332 36.7894 " />
<path id= "8" d=" M 6.5322 42.9818 L 6.5322 42.9818 " />
<path d="M27.7798,30.6446 C27.7086,31.2558 27.6476,31.9292 27.5966,32.6648  C27.5531,33.2982 27.5174,33.995 27.4925,34.7165  C27.4814,35.0366 27.4724,35.362 27.4654,35.6929  C27.4585,36.0225 27.4534,36.3687 27.4493,36.7797  C27.446,37.103 27.4434,37.4699 27.4406,37.8295  C27.4378,38.1898 27.4347,38.5429 27.4305,38.8601  C27.4252,39.2648 27.4185,39.6163 27.4092,39.9677  C27.3999,40.3179 27.3883,40.6589 27.3743,40.9905  C27.3405,41.7843 27.2939,42.5286 27.2344,43.2235 " /><path id= "10" d=" M -12.1517 31.7164 L -12.2457 30.8038 " />
<path d="M-9.5875,34.2081 C-9.54646,34.6962 -9.50575,35.2051 -9.46537,35.7347  C-9.39242,36.6896 -9.32,37.7208 -9.24681,38.7919  C-9.17767,39.8031 -9.10858,40.8317 -9.04054,41.7938  C-9.00554,42.2898 -8.9705,42.7712 -8.93542,43.2378 " /><path d="M-12.1527,31.7128 C-12.149,31.7537 -12.1412,31.7995 -12.1293,31.85  C-12.1197,31.8911 -12.1052,31.9363 -12.0859,31.9854  C-12.0547,32.065 -12.0024,32.157 -11.9505,32.223  C-11.8861,32.3025 -11.8268,32.3621 -11.7727,32.4018  C-11.7533,32.4169 -11.7344,32.4307 -11.7161,32.443  C-11.6946,32.4575 -11.675,32.4698 -11.6574,32.48 " /><path id= "13" d=" M 7.66867 57.1407 L 17.8676 51.5396 " />
<path d="M27.2345,43.2229 C27.1858,43.8307 27.0504,44.4878 26.8699,45.0076  C26.6498,45.6468 26.3951,46.1072 26.1199,46.5023 " /><path d="M26.1185,46.5043 Q26.0938,46.5386 26.0646,46.5638 " /><path d="M-9.86955,33.5122 C-9.85985,33.5175 -9.84798,33.5263 -9.83395,33.5385  C-9.8212,33.5492 -9.80478,33.5672 -9.78469,33.5926  C-9.76712,33.6146 -9.74728,33.6458 -9.7252,33.6862  C-9.67354,33.7843 -9.61086,33.9432 -9.5875,34.2081 " /><path id= "17" d=" M 26.016 46.6002 L 17.8799 51.5325 " />
<path id= "18" d=" M -5.55095 37.8197 L -4.84384 37.4114 " />
<path id= "19" d=" M -5.81872 41.4384 L -5.11161 41.0301 " />
<path id= "20" d=" M -9.0007 43.2755 L -6.87938 42.0508 " />
<path id= "21" d=" M -9.59759 45.9295 L -8.0007 45.0076 " />
<path id= "22" d=" M -15.8596 47.2355 L -13.2433 45.725 " />
<path id= "23" d=" M -7.85963 61.0919 L -5.24334 59.5814 " />
<path id= "24" d=" M -3.59759 56.3218 L -2.0007 55.3999 " />
<path id= "25" d=" M -1.0007 57.1319 L 1.12062 55.9072 " />
<path id= "26" d=" M 2.18128 55.2948 L 2.88839 54.8866 " />
<path id= "27" d=" M 5.44905 56.8723 L 6.15616 56.464 " />
<path id= "28" d=" M 16.7272 24.8407 L 16.7272 22.4428 " />
<path id= "29" d=" M -1.27278 26.4345 L -1.27278 22.4428 " />
<path d="M-1.02709,29.1165 L0.46779,28.5694 " /><path d="M-1.18263,21.7092 L-3.81334,20.468 " /><path id= "32" d=" M 21.7272 24.2449 L 21.7272 24.6223 " />
</g>
<g   stroke="rgb(0, 0, 0)"
   stroke-width="0.35"
   stroke-linecap="butt"
   stroke-linejoin="miter"
   fill="none"
   transform="scale(1,-1)"
  >
<path d="M8.8586 39.7526 A1.6 0.92376 1.94768e-15 0 0 6.52931 39.7934" />
<path d="M8.8586 38.5278 A1.6 0.92376 1.94768e-15 0 0 6.12722 39.181" />
<path d="M6.12722 39.181 A1.6 0.92376 1.94768e-15 0 0 6.59585 39.8342" />
<path d="M-3.04243 25.0023 A14.5 8.37158 1.94768e-15 0 0 -4.93176 26.5253" />
<path id= "5" d=" M -3.04243 25.0023 L -3.04243 23.7776 " />
<path d="M-3.04243 23.7776 A14.5 8.37158 -180 0 1 -1.98177 23.1652" />
<path d="M17.0815 24.2112 A14.5 8.37158 1.94768e-15 0 0 16.3726 23.887" />
<path d="M17.9803 16.5232 A14.5 8.37158 1.94768e-15 0 0 -6.77278 22.4428" />
<path d="M-6.77278 22.4428 A14.5 8.37158 1.94768e-15 0 0 -2.52582 28.3624" />
<path d="M25.8292 29.9546 A1.6 0.92376 1.94768e-15 0 0 23.4999 29.9954" />
<path d="M25.8292 28.7299 A1.6 0.92376 1.94768e-15 0 0 23.0978 29.3831" />
<path d="M23.0978 29.3831 A1.6 0.92376 1.94768e-15 0 0 23.5664 30.0362" />
<path d="M-8.11197 29.9546 A1.6 0.92376 1.94768e-15 0 0 -10.4413 29.9954" />
<path d="M-8.11197 28.7299 A1.6 0.92376 1.94768e-15 0 0 -10.8433 29.3831" />
<path d="M-10.8433 29.3831 A1.6 0.92376 1.94768e-15 0 0 -10.3747 30.0362" />
<path d="M-0.802231 27.7249 A9 5.19615 1.94768e-15 0 0 -0.963279 28.0321" />
<path d="M18.3338 35.5068 A15 8.66025 0 0 0 22.7272 29.3831" />
<path d="M18.3338 17.5438 A15 8.66025 -1.94768e-15 0 0 17.9803 17.3463" />
<path d="M6.52931 32.8532 A1.6 0.92376 -180 0 1 8.8586 32.8123" />
<path d="M8.8586 31.5876 A1.6 0.92376 1.94768e-15 0 0 6.12722 32.2408" />
<path d="M6.12722 32.2408 A1.6 0.92376 1.94768e-15 0 0 6.59585 32.894" />
<path d="M6.52931 13.2572 A1.6 0.92376 -180 0 1 8.8586 13.2164" />
<path d="M8.8586 11.9917 A1.6 0.92376 1.94768e-15 0 0 6.12722 12.6449" />
<path d="M6.12722 12.6449 A1.6 0.92376 1.94768e-15 0 0 6.59585 13.2981" />
<path d="M23.4999 23.0552 A1.6 0.92376 -180 0 1 25.8292 23.0144" />
<path d="M25.8292 21.7896 A1.6 0.92376 1.94768e-15 0 0 23.0978 22.4428" />
<path d="M23.0978 22.4428 A1.6 0.92376 1.94768e-15 0 0 23.5664 23.096" />
<path d="M-10.4413 23.0552 A1.6 0.92376 -180 0 1 -8.11197 23.0144" />
<path d="M-8.11197 21.7896 A1.6 0.92376 1.94768e-15 0 0 -10.8433 22.4428" />
<path d="M-10.8433 22.4428 A1.6 0.92376 1.94768e-15 0 0 -10.3747 23.096" />
<path d="M8.92514 39.7934 A1.6 0.92376 1.94768e-15 0 0 8.8586 39.7526" />
<path d="M-11.3647 31.8325 A3 1.73205 -180 0 1 -12.2433 30.6078" />
<path id= "33" d=" M 5.6059 41.6305 L -11.3647 31.8325 " />
<path d="M9.84854 41.6305 A3 1.73205 -180 0 1 5.6059 41.6305" />
<path id= "35" d=" M 26.8191 31.8325 L 9.84854 41.6305 " />
<path d="M27.6978 30.6078 A3 1.73205 -180 0 1 26.8191 31.8325" />
<path d="M25.8957 29.9954 A1.6 0.92376 1.94768e-15 0 0 25.8292 29.9546" />
<path d="M-8.04542 29.9954 A1.6 0.92376 1.94768e-15 0 0 -8.11197 29.9546" />
<path d="M8.8586 38.9539 A14.5 8.37158 1.94768e-15 0 0 9.26799 38.932" />
<path id= "40" d=" M -0.584579 26.4213 L -3.04243 25.0023 " />
<path d="M6.59585 39.8342 A1.6 0.92376 1.94768e-15 0 0 9.32722 39.181" />
<path d="M9.32722 39.181 A1.6 0.92376 1.94768e-15 0 0 8.8586 38.5278" />
<path d="M-2.52582 28.3624 A14.5 8.37158 1.94768e-15 0 0 22.2272 22.4428" />
<path d="M22.2272 22.4428 A14.5 8.37158 1.94768e-15 0 0 17.9803 16.5232" />
<path d="M-11.3647 28.1583 A3 1.73205 1.94768e-15 0 0 -12.2433 29.3831" />
<path d="M-12.2433 29.3831 A3 1.73205 1.94768e-15 0 0 -11.3647 30.6078" />
<path id= "47" d=" M -2.87938 35.5068 L -11.3647 30.6078 " />
<path id= "48" d=" M 5.6059 40.4058 L -2.87938 35.5068 " />
<path d="M5.6059 40.4058 A3 1.73205 1.94768e-15 0 0 9.84854 40.4058" />
<path id= "50" d=" M 18.3338 35.5068 L 9.84854 40.4058 " />
<path id= "51" d=" M 26.8191 30.6078 L 18.3338 35.5068 " />
<path d="M26.8191 30.6078 A3 1.73205 1.94768e-15 0 0 27.6978 29.3831" />
<path d="M27.6978 29.3831 A3 1.73205 1.94768e-15 0 0 26.8191 28.1583" />
<path id= "54" d=" M 23.9907 26.5253 L 26.8191 28.1583 " />
<path d="M23.5664 30.0362 A1.6 0.92376 1.94768e-15 0 0 26.2978 29.3831" />
<path d="M26.2978 29.3831 A1.6 0.92376 1.94768e-15 0 0 25.8292 28.7299" />
<path d="M-10.3747 30.0362 A1.6 0.92376 1.94768e-15 0 0 -7.64334 29.3831" />
<path d="M-7.64334 29.3831 A1.6 0.92376 1.94768e-15 0 0 -8.11197 28.7299" />
<path id= "59" d=" M -0.584579 25.1966 L -3.04243 23.7776 " />
<path d="M-2.87938 35.5068 A15 8.66025 -1.94768e-15 0 0 18.3338 35.5068" />
<path d="M6.59585 32.894 A1.6 0.92376 1.94768e-15 0 0 9.32722 32.2408" />
<path d="M9.32722 32.2408 A1.6 0.92376 1.94768e-15 0 0 8.8586 31.5876" />
<path d="M6.59585 13.2981 A1.6 0.92376 1.94768e-15 0 0 9.32722 12.6449" />
<path d="M9.32722 12.6449 A1.6 0.92376 1.94768e-15 0 0 8.8586 11.9917" />
<path id= "65" d=" M 5.6059 33.4655 L -11.3647 23.6676 " />
<path d="M-11.3647 23.6676 A3 1.73205 -180 0 1 -12.2433 22.4428" />
<path d="M-12.2433 22.4428 A3 1.73205 -180 0 1 -11.3647 21.2181" />
<path id= "68" d=" M -11.3647 21.2181 L 5.6059 11.4201 " />
<path d="M5.6059 11.4201 A3 1.73205 -180 0 1 9.84854 11.4201" />
<path id= "70" d=" M 9.84854 11.4201 L 26.8191 21.2181 " />
<path d="M26.8191 21.2181 A3 1.73205 -180 0 1 27.6978 22.4428" />
<path d="M27.6978 22.4428 A3 1.73205 -180 0 1 26.8191 23.6676" />
<path id= "73" d=" M 26.8191 23.6676 L 9.84854 33.4655 " />
<path d="M9.84854 33.4655 A3 1.73205 -180 0 1 5.6059 33.4655" />
<path d="M23.5664 23.096 A1.6 0.92376 1.94768e-15 0 0 26.2978 22.4428" />
<path d="M26.2978 22.4428 A1.6 0.92376 1.94768e-15 0 0 25.8292 21.7896" />
<path d="M-10.3747 23.096 A1.6 0.92376 1.94768e-15 0 0 -7.64334 22.4428" />
<path d="M-7.64334 22.4428 A1.6 0.92376 1.94768e-15 0 0 -8.11197 21.7896" />
<path d="M-2.87938 23.2593 A15 8.66025 -1.94768e-15 0 0 -5.73099 25.5587" />
<path d="M-7.27278 29.3831 A15 8.66025 -1.94768e-15 0 0 -2.87938 35.5068" />
<path d="M6.12856 32.2785 A15 8.66025 -1.94768e-15 0 0 9.32589 32.2785" />
<path d="M8.8586 32.8123 A1.6 0.92376 -180 0 1 8.92514 32.8532" />
<path d="M8.8586 13.2164 A1.6 0.92376 -180 0 1 8.92514 13.2572" />
<path d="M-11.3647 24.8923 A3 1.73205 -180 0 1 -12.2433 23.6676" />
<path id= "85" d=" M -2.87938 29.7913 L 5.6059 34.6903 " />
<path id= "86" d=" M -11.3647 24.8923 L -2.87938 29.7913 " />
<path d="M9.84854 34.6903 A3 1.73205 -180 0 1 5.6059 34.6903" />
<path id= "88" d=" M 18.3338 29.7913 L 26.8191 24.8923 " />
<path id= "89" d=" M 9.84854 34.6903 L 18.3338 29.7913 " />
<path d="M27.6978 23.6676 A3 1.73205 -180 0 1 26.8191 24.8923" />
<path d="M25.8292 23.0144 A1.6 0.92376 -180 0 1 25.8957 23.0552" />
<path d="M-8.11197 23.0144 A1.6 0.92376 -180 0 1 -8.04542 23.0552" />
<path d="M7.90311,51.9383 C7.90311,51.5769 7.8849,51.2076 7.8485,50.8304  C7.8303,50.6417 7.80754,50.4511 7.78024,50.2584  C7.76659,50.1621 7.7518,50.0653 7.73587,49.968  C7.72791,49.9193 7.71966,49.8705 7.71112,49.8216  C7.70259,49.7727 7.69405,49.7251 7.68467,49.6745  C7.53467,48.8643 7.31216,48.0442 7.01648,47.2124  C6.86865,46.7964 6.70479,46.384 6.52491,45.9749  C6.43497,45.7704 6.34103,45.5667 6.24308,45.3639  C6.1941,45.2625 6.14413,45.1613 6.09315,45.0603  C6.06766,45.0098 6.04192,44.9594 6.01593,44.909  C5.98995,44.8586 5.96296,44.8068 5.93722,44.758  C5.5253,43.9762 5.06432,43.2289 4.55428,42.5162 " /><path d="M4.55428,42.5162 C4.42265,42.3323 4.27039,42.1448 4.09643,41.9567  C4.00945,41.8626 3.91706,41.7684 3.81916,41.6744  C3.77022,41.6274 3.71989,41.5805 3.66818,41.5337  C3.64233,41.5103 3.61613,41.4869 3.58958,41.4636  C3.57631,41.4519 3.56295,41.4403 3.5495,41.4286  C3.54278,41.4228 3.53604,41.417 3.52927,41.4112  C3.52589,41.4082 3.5225,41.4053 3.5191,41.4024  C3.51571,41.3995 3.51134,41.3958 3.5089,41.3937  C3.19771,41.128 2.78369,40.8176 2.24641,40.5074 " /><path d="M-3.17674,37.3763 C-3.29986,37.3053 -3.41874,37.2545 -3.53114,37.2179  C-3.58734,37.1996 -3.64191,37.1849 -3.6945,37.173  C-3.7208,37.1671 -3.74661,37.1619 -3.77187,37.1574  C-3.78451,37.1551 -3.79701,37.153 -3.80937,37.151  C-3.81555,37.1501 -3.82169,37.1491 -3.8278,37.1482  C-3.83086,37.1478 -3.8339,37.1473 -3.83694,37.1469  C-3.83846,37.1467 -3.83997,37.1465 -3.84149,37.1463  C-3.843,37.1461 -3.84389,37.1459 -3.84602,37.1457  C-4.11949,37.1083 -4.39176,37.1344 -4.65618,37.1986 " /><path d="M-4.65618,37.1986 C-4.9113,37.2605 -5.1541,37.3452 -5.38459,37.4526  C-5.49984,37.5064 -5.612,37.5658 -5.72109,37.631  C-5.77563,37.6635 -5.82941,37.6975 -5.88241,37.7329  C-5.90892,37.7506 -5.93522,37.7687 -5.96134,37.7871  C-5.98746,37.8055 -6.01261,37.8237 -6.03912,37.8434  C-6.46323,38.1588 -6.82276,38.5611 -7.11839,39.0516  C-7.2662,39.2968 -7.39579,39.5603 -7.50715,39.8421  C-7.56283,39.983 -7.61396,40.1284 -7.66053,40.2784  C-7.68382,40.3534 -7.70596,40.4296 -7.72697,40.5069  C-7.73747,40.5455 -7.74769,40.5844 -7.75763,40.6237  C-7.76756,40.6629 -7.77747,40.7035 -7.78657,40.7422  C-7.9322,41.3609 -8.00501,42.0314 -8.00501,42.7537 " /><path d="M-4.65618,37.1986 C-4.9113,37.2605 -5.1541,37.3452 -5.38459,37.4526  C-5.49984,37.5064 -5.612,37.5658 -5.72109,37.631  C-5.77563,37.6635 -5.82941,37.6975 -5.88241,37.7329  C-5.90892,37.7506 -5.93522,37.7687 -5.96134,37.7871  C-5.98746,37.8055 -6.01261,37.8237 -6.03912,37.8434  C-6.46323,38.1588 -6.82276,38.5611 -7.11839,39.0516  C-7.2662,39.2968 -7.39579,39.5603 -7.50715,39.8421  C-7.56283,39.983 -7.61396,40.1284 -7.66053,40.2784  C-7.68382,40.3534 -7.70596,40.4296 -7.72697,40.5069  C-7.73747,40.5455 -7.74769,40.5844 -7.75763,40.6237  C-7.76756,40.6629 -7.77747,40.7035 -7.78657,40.7422  C-7.9322,41.3609 -8.00501,42.0314 -8.00501,42.7537 " /><path d="M7.90311,51.9383 C7.90311,52.7398 7.81173,53.4884 7.63208,54.1589  C7.45243,54.8294 7.18453,55.4215 6.83746,55.9153 " /><path d="M6.89271,43.1899 C6.99566,43.2494 7.11281,43.317 7.24415,43.3928 " /><path d="M8.03526,44.526 C8.03241,44.4316 8.00897,44.3272 7.96363,44.2151  C7.94096,44.1591 7.91278,44.1013 7.87892,44.0423  C7.86199,44.0128 7.84363,43.983 7.82385,43.9531  C7.81396,43.9381 7.80372,43.9231 7.79311,43.908  C7.78781,43.9005 7.78242,43.893 7.77694,43.8855  C7.77146,43.8779 7.76494,43.8691 7.76024,43.8629  C7.60986,43.6625 7.42971,43.5 7.24415,43.3928 " /><path id= "101" d=" M 8.03959 44.6686 L 8.03526 44.526 " />
<path d="M8.03959,44.6686 C8.23092,44.6999 8.39651,44.756 8.53705,44.8372 " /><path d="M8.61111,39.8954 C8.55506,39.8631 8.49475,39.8342 8.43018,39.8089  C8.39789,39.7962 8.36454,39.7844 8.33013,39.7735  C8.31292,39.768 8.29545,39.7628 8.27771,39.7578  C8.25997,39.7528 8.24345,39.7484 8.2237,39.7434  C8.06566,39.7039 7.89946,39.6841 7.72722,39.6841  C7.64111,39.684 7.55667,39.689 7.47393,39.6989  C7.43256,39.7038 7.3916,39.71 7.35108,39.7174  C7.33081,39.7211 7.31065,39.7252 7.2906,39.7295  C7.27054,39.7338 7.24897,39.7389 7.23075,39.7434  C7.085,39.7798 6.95586,39.8305 6.84334,39.8954 " /><path d="M6.84334,39.8954 C6.78721,39.9279 6.7372,39.9627 6.69331,40  C6.67137,40.0186 6.65096,40.0379 6.63209,40.0577  C6.62265,40.0676 6.61359,40.0777 6.60492,40.088  C6.59624,40.0982 6.58861,40.1077 6.58005,40.1191  C6.51157,40.2104 6.4773,40.3063 6.47722,40.4058  C6.47719,40.4555 6.48574,40.5042 6.50287,40.552  C6.51144,40.5759 6.52216,40.5995 6.53502,40.6229  C6.54145,40.6346 6.54842,40.6463 6.55592,40.6578  C6.56343,40.6694 6.57218,40.6819 6.58005,40.6924  C6.64298,40.7764 6.73124,40.8513 6.84334,40.9161 " /><path d="M6.87789,43.1814 C6.82436,43.1505 6.77673,43.123 6.735,43.0989  C6.71413,43.0868 6.69474,43.0756 6.67682,43.0653  C6.66786,43.0601 6.65927,43.0552 6.65105,43.0504  C6.64283,43.0457 6.6356,43.0415 6.62749,43.0368  C6.5626,42.9993 6.53086,42.981 6.53225,42.9818  C6.53294,42.9822 6.54192,42.9874 6.55919,42.9974  C6.56782,43.0024 6.57852,43.0085 6.5913,43.0159  C6.59769,43.0196 6.60459,43.0236 6.61201,43.0279  C6.61573,43.03 6.61957,43.0322 6.62354,43.0345  C6.62751,43.0368 6.63196,43.0394 6.63584,43.0416  C6.69788,43.0774 6.78351,43.1269 6.89271,43.1899 " /><path d="M6.87789,43.1814 C6.82436,43.1505 6.77673,43.123 6.735,43.0989  C6.71413,43.0868 6.69474,43.0756 6.67682,43.0653  C6.66786,43.0601 6.65927,43.0552 6.65105,43.0504  C6.64283,43.0457 6.6356,43.0415 6.62749,43.0368  C6.5626,42.9993 6.53086,42.981 6.53225,42.9818  C6.53294,42.9822 6.54192,42.9874 6.55919,42.9974  C6.56782,43.0024 6.57852,43.0085 6.5913,43.0159  C6.59769,43.0196 6.60459,43.0236 6.61201,43.0279  C6.61573,43.03 6.61957,43.0322 6.62354,43.0345  C6.62751,43.0368 6.63196,43.0394 6.63584,43.0416  C6.69788,43.0774 6.78351,43.1269 6.89271,43.1899 " /><path d="M-9.72641,33.5949 C-9.68545,33.6185 -9.64185,33.6467 -9.59623,33.68  C-9.57342,33.6967 -9.55011,33.7147 -9.52638,33.7341  C-9.51452,33.7438 -9.50256,33.7538 -9.4905,33.7642  C-9.48448,33.7694 -9.47843,33.7747 -9.47235,33.7801  C-9.46932,33.7828 -9.46628,33.7855 -9.46323,33.7883  C-9.46171,33.7896 -9.46018,33.791 -9.45866,33.7924  C-9.45713,33.7938 -9.45471,33.796 -9.45408,33.7965  C-9.43399,33.8148 -9.40202,33.8444 -9.36039,33.8878  C-9.33958,33.9096 -9.31637,33.9349 -9.29123,33.9641  C-9.27866,33.9788 -9.26561,33.9944 -9.25214,34.0111  C-9.24541,34.0195 -9.23857,34.0281 -9.23164,34.037  C-9.22471,34.0459 -9.21652,34.0567 -9.21058,34.0646  C-9.163,34.1279 -9.12466,34.1874 -9.09372,34.2408  C-9.07825,34.2675 -9.06464,34.2927 -9.05268,34.3162  C-9.0467,34.3279 -9.04114,34.3392 -9.03597,34.3501  C-9.03338,34.3555 -9.03089,34.3608 -9.0285,34.366  C-9.0273,34.3686 -9.02613,34.3712 -9.02498,34.3738  C-9.02383,34.3763 -9.02336,34.3773 -9.02161,34.3813  C-8.96538,34.5082 -8.93839,34.6258 -8.9353,34.728 " /><path id= "108" d=" M -8.93097 34.8706 L -8.9353 34.728 " />
<path d="M-8.93097,34.8706 C-8.73965,34.9019 -8.57405,34.958 -8.43351,35.0392  C-8.29297,35.1204 -8.19563,35.2162 -8.14149,35.3264 " /><path id= "110" d=" M -8.13716 35.1888 L -8.14149 35.3264 " />
<path d="M-8.17448,34.4909 C-8.13535,34.5135 -8.10931,34.5431 -8.09486,34.5813  C-8.08763,34.6004 -8.08343,34.621 -8.08152,34.6434  C-8.08057,34.6546 -8.08019,34.6663 -8.0803,34.6784  C-8.08036,34.6845 -8.08054,34.6906 -8.08083,34.6969  C-8.08098,34.7001 -8.08115,34.7032 -8.08135,34.7064  C-8.08155,34.7096 -8.08172,34.7121 -8.08203,34.7161  C-8.08711,34.7816 -8.10138,34.854 -8.11317,34.9331  C-8.12496,35.0122 -8.13431,35.0977 -8.13716,35.1888 " /><path d="M-8.17448,34.4909 C-8.13535,34.5135 -8.10931,34.5431 -8.09486,34.5813  C-8.08763,34.6004 -8.08343,34.621 -8.08152,34.6434  C-8.08057,34.6546 -8.08019,34.6663 -8.0803,34.6784  C-8.08036,34.6845 -8.08054,34.6906 -8.08083,34.6969  C-8.08098,34.7001 -8.08115,34.7032 -8.08135,34.7064  C-8.08155,34.7096 -8.08172,34.7121 -8.08203,34.7161  C-8.08711,34.7816 -8.10138,34.854 -8.11317,34.9331  C-8.12496,35.0122 -8.13431,35.0977 -8.13716,35.1888 " /><path d="M-8.35945,31.1181 C-8.30332,31.0857 -8.25331,31.0509 -8.20943,31.0136  C-8.18749,30.9949 -8.16708,30.9757 -8.1482,30.9558  C-8.13876,30.9459 -8.1297,30.9358 -8.12103,30.9256  C-8.11236,30.9154 -8.10472,30.9058 -8.09616,30.8944  C-8.02769,30.8032 -7.99341,30.7072 -7.99334,30.6078  C-7.9933,30.5581 -8.00185,30.5093 -8.01899,30.4616  C-8.02756,30.4377 -8.03827,30.414 -8.05113,30.3906  C-8.05757,30.3789 -8.06453,30.3673 -8.07204,30.3557  C-8.07954,30.3441 -8.08829,30.3317 -8.09616,30.3212  C-8.15909,30.2371 -8.24735,30.1623 -8.35945,30.0975  C-8.41551,30.0651 -8.47582,30.0362 -8.54038,30.0109  C-8.57267,29.9982 -8.60602,29.9864 -8.64043,29.9755  C-8.65764,29.9701 -8.67511,29.9649 -8.69285,29.9598  C-8.71059,29.9548 -8.72711,29.9504 -8.74687,29.9455  C-8.90491,29.9059 -9.0711,29.8862 -9.24334,29.8861  C-9.32946,29.8861 -9.41389,29.891 -9.49663,29.9009  C-9.53801,29.9059 -9.57896,29.912 -9.61949,29.9195  C-9.63975,29.9232 -9.65991,29.9272 -9.67996,29.9315  C-9.70002,29.9359 -9.72159,29.9409 -9.73981,29.9455  C-9.88556,29.9818 -10.0147,30.0325 -10.1272,30.0975 " /><path d="M25.6557,31.1609 C25.7166,31.1257 25.7708,31.088 25.8183,31.0476  C25.8421,31.0274 25.8642,31.0065 25.8847,30.985  C25.8949,30.9742 25.9047,30.9633 25.9141,30.9522  C25.9235,30.9411 25.9318,30.9308 25.9411,30.9184  C26.0153,30.8195 26.0524,30.7156 26.0525,30.6078  C26.0526,30.5539 26.0433,30.5011 26.0247,30.4493  C26.0154,30.4234 26.0038,30.3978 25.9899,30.3724  C25.9829,30.3597 25.9754,30.3471 25.9672,30.3346  C25.9591,30.322 25.9496,30.3085 25.9411,30.2971  C25.8729,30.206 25.7772,30.1249 25.6557,30.0547  C25.595,30.0196 25.5296,29.9883 25.4596,29.9609  C25.4246,29.9472 25.3885,29.9344 25.3512,29.9226  C25.3325,29.9167 25.3136,29.911 25.2944,29.9056  C25.2752,29.9001 25.2573,29.8953 25.2359,29.89  C25.0645,29.8471 24.8845,29.8257 24.6978,29.8256  C24.6044,29.8256 24.5129,29.831 24.4232,29.8417  C24.3784,29.8471 24.334,29.8538 24.2901,29.8618  C24.2681,29.8658 24.2463,29.8702 24.2246,29.8749  C24.2028,29.8796 24.1795,29.8851 24.1597,29.89  C24.0017,29.9294 23.8618,29.9843 23.7398,30.0547 " /><path d="M6.83746,55.9153 C6.79111,55.9812 6.76629,56.0738 6.76629,56.1809 " /><path d="M9.26765,41.739 C9.15455,41.802 9.03333,41.858 8.90398,41.9069  C8.8393,41.9314 8.77259,41.9541 8.70386,41.975  C8.66949,41.9854 8.63461,41.9955 8.59923,42.005  C8.58153,42.0098 8.56371,42.0145 8.54577,42.0191  C8.52782,42.0236 8.51124,42.0277 8.49155,42.0324  C8.17647,42.1077 7.84691,42.1441 7.50498,42.1416  C7.33402,42.1404 7.16648,42.1295 7.00238,42.1089  C6.92032,42.0986 6.83913,42.0858 6.75879,42.0707  C6.71862,42.0631 6.67866,42.0549 6.63892,42.0462  C6.61905,42.0418 6.59923,42.0372 6.57947,42.0325  C6.55971,42.0278 6.53845,42.0226 6.52034,42.018  C6.23058,41.9443 5.97353,41.8427 5.74917,41.7132 " /><path id= "117" d=" M 5.74917 41.7132 L -11.5079 31.7498 " />
<path d="M-11.5079,31.7498 C-11.62,31.6851 -11.72,31.6157 -11.808,31.5415  C-11.852,31.5044 -11.8929,31.4661 -11.9309,31.4266  C-11.9499,31.4069 -11.9681,31.3868 -11.9856,31.3665  C-11.9944,31.3563 -12.0029,31.3461 -12.0113,31.3358  C-12.0197,31.3254 -12.0272,31.3159 -12.0358,31.3046  C-12.1741,31.1234 -12.2455,30.9335 -12.2499,30.7361  C-12.2521,30.6374 -12.2375,30.5406 -12.206,30.4456  C-12.1902,30.3982 -12.1702,30.3512 -12.146,30.3047  C-12.134,30.2814 -12.1208,30.2583 -12.1066,30.2352  C-12.0995,30.2237 -12.0921,30.2122 -12.0845,30.2008  C-12.0769,30.1893 -12.0684,30.177 -12.0608,30.1665  C-11.9406,29.9985 -11.7712,29.8492 -11.5526,29.7184 " /><path d="M-11.5079,31.7498 C-11.62,31.6851 -11.72,31.6157 -11.808,31.5415  C-11.852,31.5044 -11.8929,31.4661 -11.9309,31.4266  C-11.9499,31.4069 -11.9681,31.3868 -11.9856,31.3665  C-11.9944,31.3563 -12.0029,31.3461 -12.0113,31.3358  C-12.0197,31.3254 -12.0272,31.3159 -12.0358,31.3046  C-12.1741,31.1234 -12.2455,30.9335 -12.2499,30.7361  C-12.2521,30.6374 -12.2375,30.5406 -12.206,30.4456  C-12.1902,30.3982 -12.1702,30.3512 -12.146,30.3047  C-12.134,30.2814 -12.1208,30.2583 -12.1066,30.2352  C-12.0995,30.2237 -12.0921,30.2122 -12.0845,30.2008  C-12.0769,30.1893 -12.0684,30.177 -12.0608,30.1665  C-11.9406,29.9985 -11.7712,29.8492 -11.5526,29.7184 " /><path id= "120" d=" M -5.37772 26.0257 L -3.04243 24.6291 " />
<path id= "121" d=" M 25.8292 28.8115 L 26.1521 28.998 " />
<path d="M27.0448,29.5134 C27.1588,29.5792 27.2617,29.6513 27.3536,29.7299  C27.3996,29.7692 27.442,29.8094 27.4808,29.8506  C27.5196,29.8917 27.5552,29.9345 27.5864,29.9769  C27.6487,30.0618 27.697,30.1517 27.7304,30.2439  C27.7638,30.3362 27.7819,30.4292 27.7848,30.5235  C27.7907,30.712 27.7329,30.8955 27.6124,31.0726  C27.4919,31.2497 27.3171,31.4068 27.0879,31.5438 " /><path d="M27.0448,29.5134 C27.1588,29.5792 27.2617,29.6513 27.3536,29.7299  C27.3996,29.7692 27.442,29.8094 27.4808,29.8506  C27.5196,29.8917 27.5552,29.9345 27.5864,29.9769  C27.6487,30.0618 27.697,30.1517 27.7304,30.2439  C27.7638,30.3362 27.7819,30.4292 27.7848,30.5235  C27.7907,30.712 27.7329,30.8955 27.6124,31.0726  C27.4919,31.2497 27.3171,31.4068 27.0879,31.5438 " /><path d="M8.61111,40.9161 C8.66724,40.8837 8.71725,40.8488 8.76113,40.8115  C8.78308,40.7929 8.80348,40.7736 8.82236,40.7538  C8.8318,40.7439 8.84086,40.7338 8.84953,40.7235  C8.8582,40.7133 8.86584,40.7038 8.8744,40.6924  C8.94288,40.6011 8.97715,40.5052 8.97722,40.4058  C8.97726,40.356 8.96871,40.3073 8.95157,40.2595  C8.94301,40.2356 8.93229,40.212 8.91943,40.1886  C8.913,40.1769 8.90603,40.1652 8.89853,40.1537  C8.89102,40.1421 8.88227,40.1296 8.8744,40.1191  C8.81147,40.0351 8.72321,39.9602 8.61111,39.8954 " /><path d="M-10.1272,30.0975 C-10.1834,30.1299 -10.2334,30.1647 -10.2772,30.202  C-10.2992,30.2207 -10.3196,30.2399 -10.3385,30.2598  C-10.3479,30.2697 -10.357,30.2798 -10.3656,30.29  C-10.3743,30.3002 -10.382,30.3098 -10.3905,30.3212  C-10.459,30.4124 -10.4933,30.5084 -10.4933,30.6078  C-10.4934,30.6575 -10.4848,30.7063 -10.4677,30.754  C-10.4591,30.7779 -10.4484,30.8016 -10.4355,30.825  C-10.4291,30.8367 -10.4221,30.8483 -10.4146,30.8599  C-10.4071,30.8715 -10.3984,30.8839 -10.3905,30.8944  C-10.3276,30.9785 -10.2393,31.0533 -10.1272,31.1181  C-10.0712,31.1505 -10.0109,31.1794 -9.94629,31.2047  C-9.91401,31.2174 -9.88066,31.2291 -9.84625,31.24  C-9.82904,31.2455 -9.81157,31.2507 -9.79383,31.2557  C-9.77609,31.2608 -9.75957,31.2652 -9.73981,31.2701  C-9.58177,31.3097 -9.41558,31.3294 -9.24334,31.3295  C-9.15722,31.3295 -9.07279,31.3246 -8.99004,31.3147  C-8.94867,31.3097 -8.90772,31.3035 -8.86719,31.2961  C-8.84692,31.2924 -8.82677,31.2884 -8.80671,31.284  C-8.78666,31.2797 -8.76509,31.2747 -8.74687,31.2701  C-8.60111,31.2337 -8.47198,31.1831 -8.35945,31.1181 " /><path d="M23.7398,30.0547 C23.679,30.0899 23.6248,30.1276 23.5772,30.168  C23.5535,30.1882 23.5313,30.2091 23.5109,30.2306  C23.5007,30.2414 23.4908,30.2523 23.4814,30.2634  C23.472,30.2745 23.4638,30.2848 23.4545,30.2971  C23.3803,30.396 23.3431,30.5 23.3431,30.6078  C23.343,30.6617 23.3523,30.7145 23.3709,30.7663  C23.3801,30.7922 23.3918,30.8178 23.4057,30.8432  C23.4127,30.8558 23.4202,30.8685 23.4284,30.881  C23.4365,30.8936 23.446,30.9071 23.4545,30.9184  C23.5227,31.0096 23.6183,31.0906 23.7398,31.1609  C23.8006,31.196 23.866,31.2273 23.936,31.2547  C23.9709,31.2684 24.0071,31.2812 24.0444,31.293  C24.063,31.2989 24.082,31.3046 24.1012,31.31  C24.1204,31.3155 24.1383,31.3203 24.1597,31.3256  C24.331,31.3685 24.5111,31.3899 24.6978,31.3899  C24.7911,31.39 24.8826,31.3846 24.9723,31.3739  C25.0172,31.3685 25.0615,31.3618 25.1055,31.3538  C25.1274,31.3498 25.1493,31.3454 25.171,31.3407  C25.1927,31.336 25.2161,31.3305 25.2359,31.3256  C25.3938,31.2862 25.5338,31.2313 25.6557,31.1609 " /><path id= "127" d=" M -8.14149 35.3264 L -8.93097 34.8706 " />
<path d="M-11.1438,32.7766 C-11.2107,32.7379 -11.2714,32.7029 -11.3259,32.6714  C-11.3531,32.6557 -11.3788,32.6409 -11.4029,32.627  C-11.4149,32.62 -11.4266,32.6133 -11.4378,32.6068  C-11.4435,32.6035 -11.449,32.6003 -11.4545,32.5972  C-11.4599,32.5941 -11.4647,32.5913 -11.4705,32.5879  C-11.5164,32.5614 -11.5539,32.5398 -11.583,32.523  C-11.5975,32.5146 -11.6099,32.5074 -11.6202,32.5015  C-11.6254,32.4985 -11.63,32.4959 -11.6341,32.4935  C-11.6361,32.4923 -11.638,32.4912 -11.6398,32.4902  C-11.6416,32.4891 -11.6431,32.4883 -11.6448,32.4873  C-11.6586,32.4793 -11.6615,32.4776 -11.6536,32.4822  C-11.6497,32.4845 -11.643,32.4883 -11.6336,32.4938  C-11.6289,32.4965 -11.6235,32.4996 -11.6175,32.5031  C-11.6144,32.5048 -11.6112,32.5067 -11.6079,32.5086  C-11.6045,32.5106 -11.6013,32.5124 -11.5973,32.5147  C-11.5322,32.5523 -11.416,32.6194 -11.2484,32.7161 " /><path id= "129" d=" M -11.2484 32.7161 L 5.90391 42.619 " />
<path d="M5.90391,42.619 C5.94389,42.6421 5.9863,42.6666 6.03113,42.6925  C6.05354,42.7054 6.07657,42.7187 6.1002,42.7324  C6.12382,42.746 6.14929,42.7607 6.1729,42.7744  C6.22011,42.8016 6.26842,42.8295 6.31783,42.858  C6.34253,42.8723 6.36751,42.8867 6.39276,42.9013  C6.40539,42.9086 6.41808,42.9159 6.43084,42.9233  C6.44361,42.9306 6.45763,42.9387 6.46934,42.9455  C6.56301,42.9996 6.65758,43.0542 6.75305,43.1093  C6.80079,43.1369 6.84875,43.1646 6.89693,43.1924  C6.92102,43.2063 6.94517,43.2202 6.96938,43.2342  C6.98148,43.2412 6.99359,43.2482 7.00572,43.2552  C7.01785,43.2622 7.0315,43.2701 7.04216,43.2762  C7.12742,43.3254 7.20996,43.3731 7.28978,43.4192  C7.32969,43.4422 7.36892,43.4649 7.40747,43.4871  C7.42674,43.4983 7.44585,43.5093 7.46478,43.5202  C7.47425,43.5257 7.48367,43.5311 7.49306,43.5365  C7.50244,43.542 7.51258,43.5478 7.52107,43.5527  C7.65693,43.6312 7.77875,43.7015 7.88651,43.7637 " /><path d="M7.88651,43.7637 C8.27561,43.9883 8.62651,44.1909 8.93923,44.3715 " /><path id= "132" d=" M 8.93923 44.3715 L 8.79608 44.2888 " />
<path d="M8.79608,44.2888 C8.73927,44.256 8.66115,44.2109 8.56174,44.1535 " /><path d="M8.56174,44.1535 C8.5091,44.1232 8.45232,44.0904 8.39139,44.0552  C8.36092,44.0376 8.32942,44.0194 8.29688,44.0006  C8.28061,43.9912 8.26408,43.9817 8.24729,43.972  C8.2305,43.9623 8.21493,43.9533 8.19615,43.9425  C8.04589,43.8557 7.88756,43.7643 7.72287,43.6692  C7.64052,43.6217 7.55976,43.5751 7.4806,43.5294  C7.44101,43.5065 7.40183,43.4839 7.36304,43.4615  C7.34364,43.4503 7.32435,43.4391 7.30515,43.4281  C7.28596,43.417 7.26526,43.405 7.24786,43.395  C7.10873,43.3147 6.98494,43.2432 6.87789,43.1814 " /><path id= "135" d=" M 8.82907 45.1244 L 8.03959 44.6686 " />
<path id= "136" d=" M 8.8334 44.9868 L 8.82907 45.1244 " />
<path d="M7.75758,57.0578 C7.79434,57.001 7.84763,56.9178 7.9136,56.8024  C7.94659,56.7448 7.9827,56.679 8.02121,56.6044  C8.04047,56.5671 8.06032,56.5276 8.08067,56.4858  C8.09084,56.4649 8.10114,56.4434 8.11154,56.4214  C8.11675,56.4103 8.12198,56.3991 8.12724,56.3878  C8.12986,56.3822 8.1325,56.3764 8.13514,56.3707  C8.13646,56.3678 8.13778,56.365 8.13911,56.3621  C8.13977,56.3606 8.14043,56.3592 8.14109,56.3577  C8.14175,56.3563 8.14278,56.354 8.14308,56.3534  C8.18159,56.269 8.22791,56.1624 8.27887,56.0306  C8.30435,55.9647 8.33097,55.8925 8.35822,55.8135  C8.37185,55.774 8.38563,55.7329 8.3995,55.6899  C8.40643,55.6684 8.41339,55.6465 8.42035,55.6242  C8.42384,55.613 8.42732,55.6017 8.43081,55.5903  C8.43255,55.5846 8.4343,55.5789 8.43604,55.5731  C8.43692,55.5702 8.43779,55.5674 8.43866,55.5645  C8.4391,55.563 8.43953,55.5616 8.43997,55.5601  C8.44041,55.5587 8.44113,55.5563 8.44128,55.5558  C8.48056,55.4249 8.54015,55.217 8.60149,54.9169  C8.66283,54.6167 8.72603,54.2238 8.75771,53.7177 " /><path d="M6.76629,56.1809 C6.76629,56.3147 6.80551,56.4708 6.87606,56.6177  C6.94661,56.7646 7.04806,56.9015 7.16,57.0007  C7.27194,57.1 7.3937,57.1611 7.50077,57.1717  C7.60784,57.1823 7.69958,57.1424 7.75758,57.0578 " /><path d="M6.76629,56.1809 C6.76629,56.3147 6.80551,56.4708 6.87606,56.6177  C6.94661,56.7646 7.04806,56.9015 7.16,57.0007  C7.27194,57.1 7.3937,57.1611 7.50077,57.1717  C7.60784,57.1823 7.69958,57.1424 7.75758,57.0578 " /><path id= "140" d=" M 20.6319 35.4047 L 19.1451 48.1252 " />
<path d="M8.53705,44.8372 C8.67759,44.9184 8.77493,45.0141 8.82907,45.1244 " /><path d="M8.8334,44.9868 C8.83494,44.9375 8.83845,44.8891 8.84327,44.8421  C8.84568,44.8186 8.84842,44.7954 8.8514,44.7728  C8.8529,44.7615 8.85445,44.7503 8.85605,44.7392  C8.85686,44.7336 8.85767,44.7281 8.8585,44.7227  C8.85891,44.7199 8.85933,44.7172 8.85974,44.7145  C8.86016,44.7118 8.86074,44.7081 8.86101,44.7064  C8.86528,44.6791 8.87073,44.6485 8.87587,44.6159  C8.87844,44.5996 8.88093,44.5828 8.88311,44.5658  C8.88421,44.5572 8.88522,44.5487 8.88613,44.5401  C8.88659,44.5358 8.88702,44.5315 8.88741,44.5272  C8.88781,44.5229 8.88812,44.5193 8.88852,44.5143  C8.89165,44.474 8.88972,44.4452 8.8866,44.4239  C8.88504,44.4132 8.88315,44.4044 8.88126,44.3971  C8.88031,44.3935 8.87936,44.3903 8.87843,44.3873  C8.87797,44.3859 8.87751,44.3845 8.87707,44.3832  C8.87684,44.3826 8.87662,44.382 8.8764,44.3813  C8.87629,44.381 8.87619,44.3807 8.87608,44.3805  C8.87597,44.3802 8.876,44.3802 8.87576,44.3796  C8.85999,44.3376 8.83154,44.3093 8.79608,44.2888 " /><path d="M8.8334,44.9868 C8.83494,44.9375 8.83845,44.8891 8.84327,44.8421  C8.84568,44.8186 8.84842,44.7954 8.8514,44.7728  C8.8529,44.7615 8.85445,44.7503 8.85605,44.7392  C8.85686,44.7336 8.85767,44.7281 8.8585,44.7227  C8.85891,44.7199 8.85933,44.7172 8.85974,44.7145  C8.86016,44.7118 8.86074,44.7081 8.86101,44.7064  C8.86528,44.6791 8.87073,44.6485 8.87587,44.6159  C8.87844,44.5996 8.88093,44.5828 8.88311,44.5658  C8.88421,44.5572 8.88522,44.5487 8.88613,44.5401  C8.88659,44.5358 8.88702,44.5315 8.88741,44.5272  C8.88781,44.5229 8.88812,44.5193 8.88852,44.5143  C8.89165,44.474 8.88972,44.4452 8.8866,44.4239  C8.88504,44.4132 8.88315,44.4044 8.88126,44.3971  C8.88031,44.3935 8.87936,44.3903 8.87843,44.3873  C8.87797,44.3859 8.87751,44.3845 8.87707,44.3832  C8.87684,44.3826 8.87662,44.382 8.8764,44.3813  C8.87629,44.381 8.87619,44.3807 8.87608,44.3805  C8.87597,44.3802 8.876,44.3802 8.87576,44.3796  C8.85999,44.3376 8.83154,44.3093 8.79608,44.2888 " /><path d="M9.03443,53.7387 C8.95084,54.2467 8.85103,54.6382 8.76281,54.9373  C8.7187,55.0869 8.67726,55.2133 8.64072,55.3189  C8.62245,55.3716 8.6054,55.4192 8.58976,55.4618  C8.58195,55.4831 8.57448,55.5031 8.5674,55.522  C8.56386,55.5314 8.56041,55.5405 8.55706,55.5493  C8.55538,55.5537 8.55373,55.558 8.55211,55.5623  C8.55129,55.5644 8.55049,55.5665 8.54968,55.5686  C8.54928,55.5696 8.54889,55.5707 8.54849,55.5717  C8.54829,55.5722 8.54809,55.5728 8.54789,55.5733  C8.54769,55.5738 8.54785,55.5734 8.5473,55.5748  C8.47651,55.7589 8.40898,55.9141 8.34835,56.0445  C8.31804,56.1096 8.28943,56.1685 8.26287,56.2216  C8.24959,56.2482 8.23681,56.2733 8.22459,56.2969  C8.21848,56.3088 8.2125,56.3203 8.20667,56.3314  C8.20375,56.337 8.20087,56.3425 8.19802,56.3479  C8.1966,56.3506 8.19518,56.3532 8.19378,56.3559  C8.19307,56.3572 8.19237,56.3586 8.19167,56.3599  C8.19133,56.3605 8.19098,56.3612 8.19063,56.3618  C8.19028,56.3625 8.19035,56.3624 8.18959,56.3638  C7.99423,56.7318 7.83835,56.9477 7.75758,57.0578 " /><path d="M17.9862 51.4319 A1 0.57735 60 0 1 17.8799 51.5325" />
<path d="M17.8799 51.5325 A1 0.57735 60 0 1 17.8676 51.5396" />
<path d="M19.1451 48.1252 A13 7.50555 60 0 1 17.9862 51.4319" />
<path d="M28.304 40.3649 A1.5 0.866025 60 0 1 28.6147 39.6783" />
<path d="M28.6147 39.6783 A1.5 0.866025 60 0 1 30.4254 41.5897" />
<path d="M36.259 38.2216 A1.5 0.866025 -120 0 0 35.9054 37.1046" />
<path id= "151" d=" M 26.9355 33.4511 L 30.7789 35.6701 " />
<path id= "152" d=" M 30.7789 35.6701 L 30.7789 47.9175 " />
<path id= "153" d=" M 30.7789 47.9175 L 26.6514 45.5345 " />
<path d="M30.4254 41.5897 A1.5 0.866025 60 0 1 30.1147 42.2763" />
<path d="M30.1147 42.2763 A1.5 0.866025 60 0 1 28.304 40.3649" />
<path id= "156" d=" M 31.486 47.9175 L 31.486 35.6701 " />
<path id= "157" d=" M 31.486 35.6701 L 35.9054 33.1185 " />
<path id= "158" d=" M 35.9054 45.366 L 35.9054 33.1185 " />
<path id= "159" d=" M 35.9054 45.366 L 31.486 47.9175 " />
<path id= "160" d=" M 35.9054 33.1185 L 35.5519 32.5061 " />
<path id= "161" d=" M 35.5519 32.5061 L 31.9672 30.4366 " />
<path id= "162" d=" M 33.0279 31.0489 L 33.0279 29.8242 " />
<path d="M31.9672 30.4366 A3.025 1.74648 -180 0 1 27.6978 29.6892" />
<path d="M27.4343 28.6732 A3.025 1.74648 -180 0 1 33.4504 28.934" />
<path d="M33.4504 28.934 A3.025 1.74648 -180 0 1 33.0279 29.8242" />
<path d="M35.9054 38.9304 A1.5 0.866025 -120 0 0 35.9483 38.9083" />
<path d="M35.9483 38.9083 A1.5 0.866025 -120 0 0 36.259 38.2216" />
<path id= "168" d=" M 33.0279 29.8242 L 36.6125 31.8938 " />
<path id= "169" d=" M 36.6125 31.8938 L 36.9661 32.5061 " />
<path id= "170" d=" M 36.9661 44.7536 L 36.9661 32.5061 " />
<path id= "171" d=" M 36.9661 44.7536 L 36.6125 44.9577 " />
<path id= "172" d=" M 35.9054 44.5495 L 36.6125 44.9577 " />
<path id= "173" d=" M 36.9661 32.5061 L 38.9106 31.3835 " />
<path id= "174" d=" M 38.9106 31.3835 L 38.9106 43.6309 " />
<path id= "175" d=" M 38.9106 43.6309 L 36.9661 44.7536 " />
<path id= "176" d=" M 25.1221 23.0144 L 25.5104 23.2386 " />
<path id= "177" d=" M 27.4492 24.3579 L 38.5571 30.7711 " />
<path id= "178" d=" M 38.5571 30.7711 L 36.6125 31.8938 " />
<path id= "179" d=" M 35.5519 32.5061 L 31.1325 35.0577 " />
<path id= "180" d=" M 31.1325 35.0577 L 26.9819 32.6614 " />
<path id= "181" d=" M 24.5217 23.361 L 25.1221 23.0144 " />
<path id= "182" d=" M 31.486 47.9175 L 31.1325 48.1216 " />
<path id= "183" d=" M 31.486 47.9175 L 30.7789 47.9175 " />
<path id= "184" d=" M 30.7789 47.9175 L 31.1325 48.1216 " />
<path id= "185" d=" M 31.486 35.6701 L 30.7789 35.6701 " />
<path id= "186" d=" M 31.1325 35.0577 L 31.486 35.6701 " />
<path id= "187" d=" M 31.1325 35.0577 L 30.7789 35.6701 " />
<path id= "188" d=" M 38.9106 31.3835 L 38.5571 30.7711 " />
<path id= "189" d=" M 38.9106 30.9752 L 38.9106 31.3835 " />
<path id= "190" d=" M 38.9106 30.9752 L 38.5571 30.7711 " />
<path d="M-11.8596 57.4297 A4 2.3094 -120 0 0 -9.85963 57.6278" />
<path d="M-9.85963 57.6278 A4 2.3094 -120 0 0 -11.8596 50.8977" />
<path d="M-3.30285 37.3096 A11 6.35085 -120 0 0 -5.55095 37.8197" />
<path d="M-5.55095 37.8197 A11 6.35085 -120 0 0 -7.82587 42.5972" />
<path d="M-4.24315 37.1333 A11 6.35085 -120 0 0 -4.84384 37.4114" />
<path d="M-1.81872 41.8346 A8 4.6188 -120 0 0 -5.81872 41.4384" />
<path d="M-5.81872 41.4384 A8 4.6188 -120 0 0 -6.31374 41.8057" />
<path d="M-1.11161 41.4264 A8 4.6188 -120 0 0 -5.11161 41.0301" />
<path d="M-5.0007 43.6717 A8 4.6188 -120 0 0 -9.0007 43.2755" />
<path d="M-9.0007 43.2755 A8 4.6188 -120 0 0 -10.5132 45.5548" />
<path d="M-2.87938 42.447 A8 4.6188 -120 0 0 -6.87938 42.0508" />
<path d="M-5.0007 45.3047 A6 3.4641 -120 0 0 -8.0007 45.0076" />
<path d="M-11.8596 47.6317 A8 4.6188 -120 0 0 -15.8596 47.2355" />
<path d="M-15.8596 47.2355 A8 4.6188 -120 0 0 -11.8596 60.6957" />
<path d="M-9.24334 46.1212 A8 4.6188 -120 0 0 -13.2433 45.725" />
<path d="M-11.8596 60.6957 A8 4.6188 -120 0 0 -7.85963 61.0919" />
<path d="M-7.85963 61.0919 A8 4.6188 -120 0 0 -11.8596 47.6317" />
<path d="M-5.24334 59.5814 A8 4.6188 -120 0 0 -9.24334 46.1212" />
<path d="M-2.0007 55.3999 A6 3.4641 -120 0 0 -5.0007 45.3047" />
<path d="M-3.73085 57.3021 A8 4.6188 -120 0 0 -1.0007 57.1319" />
<path d="M-1.0007 57.1319 A8 4.6188 -120 0 0 -5.0007 43.6717" />
<path d="M-2.87938 55.5109 A8 4.6188 -120 0 0 -2.64839 55.6389" />
<path d="M1.12062 55.9072 A8 4.6188 -120 0 0 -2.87938 42.447" />
<path d="M1.61564 55.5398 A8 4.6188 -120 0 0 2.18128 55.2948" />
<path d="M2.18128 55.2948 A8 4.6188 -120 0 0 -1.81872 41.8346" />
<path d="M2.88839 54.8866 A8 4.6188 -120 0 0 -1.11161 41.4264" />
<path d="M0.174133 56.4536 A11 6.35085 -120 0 0 5.44905 56.8723" />
<path d="M5.44905 56.8723 A11 6.35085 -120 0 0 3.44044 41.3359" />
<path d="M6.15616 56.464 A11 6.35085 -120 0 0 6.7958 55.9966" />
<path d="M-11.8596 50.8977 A4 2.3094 -120 0 0 -13.8596 50.6996" />
<path d="M-13.8596 50.6996 A4 2.3094 -120 0 0 -11.8596 57.4297" />
<path d="M10.8752,29.3694 Q11.0853,29.4939 11.2913,29.614 " /><path d="M10.8752,29.3694 C10.5638,29.758 10.2027,30.1009 9.79315,30.3936  C9.58838,30.54 9.37053,30.6737 9.14706,30.7897  C8.92358,30.9058 8.69292,31.0054 8.45504,31.088  C8.21715,31.1706 7.97003,31.2365 7.72,31.2828  C7.46997,31.329 7.21917,31.3555 6.96762,31.3621  C6.71608,31.3687 6.46379,31.3555 6.21066,31.3207  C5.95753,31.286 5.70658,31.2299 5.46151,31.1525 " /><path d="M15.257,29.4555 L15.3109,28.9217 " /><path d="M16.7188,24.2772 C16.7332,24.7904 16.7313,25.2855 16.6966,25.7646  C16.6792,26.0042 16.6534,26.2401 16.6183,26.4646  C16.5832,26.6891 16.5388,26.9042 16.4836,27.1097  C16.4285,27.3152 16.362,27.5127 16.2845,27.6963  C16.207,27.8799 16.1195,28.0483 16.0215,28.2016  C15.9235,28.3548 15.8151,28.4928 15.6957,28.6143  C15.5763,28.7358 15.4473,28.8392 15.3109,28.9217 " /><path d="M-0.584579,28.4608 C-0.474011,28.538 -0.354594,28.5911 -0.228531,28.6213  C-0.102468,28.6515 0.0312709,28.6586 0.166908,28.6424  C0.438183,28.6101 0.713795,28.488 0.968833,28.2741 " /><path d="M0.681136,27.7342 Q0.820697,28.0055 0.968833,28.2741 " /><path d="M0.681136,27.7342 C0.473911,27.9058 0.252171,28.0045 0.0333097,28.0336  C-0.0761208,28.0481 -0.185093,28.0447 -0.288759,28.0234  C-0.392425,28.002 -0.491539,27.963 -0.584579,27.9058 " /><path d="M-0.584579 24.4356 A9 5.19615 -1.94768e-15 0 0 16.7272 22.4428" />
<path d="M16.7272 22.4428 A9 5.19615 -1.94768e-15 0 0 16.039 20.45" />
<path d="M16.039 20.45 A9 5.19615 -1.94768e-15 0 0 -1.27278 22.4428" />
<path d="M-1.27278 22.4428 A9 5.19615 -1.94768e-15 0 0 -0.584579 24.4356" />
<path d="M-0.963279 28.0321 A9 5.19615 180 0 1 -0.802231 27.7249" />
<path d="M-0.584579,27.9058 C-0.677024,27.8489 -0.761695,27.7751 -0.837791,27.6845  C-0.913887,27.5939 -0.981703,27.4858 -1.03936,27.3612  C-1.15467,27.1118 -1.22669,26.805 -1.25676,26.4336 " /><path id= "235" d=" M -4.81877 26.64 L -1.25676 26.4336 " />
<path id= "236" d=" M 0.681136 27.7342 L -2.28175 28.5001 " />
<path id= "237" d=" M -1.20977 29.0353 L 0.968833 28.2741 " />
<path id= "238" d=" M 15.257 29.4555 L 15.4283 29.5361 " />
<path id= "239" d=" M 16.1532 29.2559 L 15.3109 28.9217 " />
<path id= "240" d=" M 16.7188 24.2772 L 21.7142 23.3685 " />
<path d="M21.7142,23.3685 C21.7365,24.1667 21.7335,24.937 21.6795,25.6824  C21.6525,26.0551 21.6124,26.422 21.5578,26.7712  C21.5032,27.1204 21.4341,27.4549 21.3482,27.7746  C21.3053,27.9344 21.2583,28.0906 21.2067,28.2429  C21.1551,28.3953 21.0987,28.5444 21.0385,28.6871  C20.918,28.9726 20.7818,29.2346 20.6294,29.473  C20.477,29.7113 20.3083,29.9261 20.1226,30.1152  C19.9368,30.3042 19.7362,30.4649 19.5241,30.5933 " /><path id= "242" d=" M 12.0761 30.429 L 11.2913 29.614 " />
<path id= "243" d=" M 10.8752 29.3694 L 11.8729 30.4649 " />
<path id= "244" d=" M 10.7982 16.3621 L 10.4363 17.4877 " />
<path id= "245" d=" M 16.7212 22.6326 L 18.6399 21.9328 " />
<path id= "246" d=" M 18.5425 21.1082 L 16.6839 21.9339 " />
<path id= "247" d=" M 10.8585 17.5713 L 11.4749 15.9293 " />
<path d="M11.4749,15.9293 C11.973,16.5093 12.5329,17.046 13.1367,17.5607  C13.4387,17.8181 13.7526,18.0702 14.0664,18.3106  C14.3803,18.551 14.6963,18.7819 15.0134,19.0047  C15.1719,19.116 15.3307,19.2253 15.4896,19.3326  C15.6485,19.44 15.8082,19.5457 15.9654,19.6478  C16.2798,19.8519 16.5857,20.0428 16.8827,20.2204  C17.1798,20.3981 17.4681,20.5627 17.7472,20.7126  C18.0262,20.8625 18.2924,20.9957 18.5425,21.1082 " /><path id= "249" d=" M -4.3143 20.1249 L -1.16443 21.639 " />
<path d="M2.35798,19.5998 C1.58735,19.8989 0.848572,20.1357 0.142565,20.32  C-0.563441,20.5044 -1.20094,20.6266 -1.77847,20.6846  C-2.35601,20.7425 -2.84926,20.7334 -3.27266,20.6449  C-3.48436,20.6006 -3.67728,20.5361 -3.85014,20.4502  C-4.023,20.3644 -4.17701,20.257 -4.3143,20.1249 " /><path id= "251" d=" M -0.910623 20.9837 L -3.94357 19.2529 " />
<path d="M-3.94357,19.2529 C-3.66637,19.4967 -3.32935,19.6502 -2.91918,19.7343  C-2.7141,19.7764 -2.4892,19.8006 -2.25065,19.808  C-2.0121,19.8153 -1.75864,19.8064 -1.48908,19.7824  C-1.21952,19.7584 -0.932756,19.7192 -0.630241,19.6654  C-0.327726,19.6115 -0.0153019,19.5441 0.307206,19.4636  C0.629714,19.3831 0.9623,19.2895 1.3055,19.1817  C1.6487,19.0739 2.00266,18.9517 2.35798,18.8162 " /><path d="M10.7982,16.3621 Q11.1387,16.1396 11.4749,15.9293 " /><path d="M18.6399,21.9328 L18.5425,21.1082 " /><path d="M-4.3143,20.1249 Q-4.1363,19.685 -3.94357,19.2529 " /></g>
</g>



</svg>

