<?xml version="1.0" encoding="UTF-8"?>

<svg xmlns="http://www.w3.org/2000/svg" version="1.1"
	width="297mm"
	height="210mm"
	viewBox="0 0 297 210">
	<!-- Working space 0 0 297 210 -->
	<defs>
		<radialGradient
			id="radialGradient3661"
			gradientUnits="userSpaceOnUse"
			cy="29.149"
			cx="282.65"
			gradientTransform="matrix(.14777 .23089 -.24680 .15795 -26.318 -62.617)"
			r="19.571">
				<stop stop-color="#71b2f8" offset="0"/>
				<stop stop-color="#002795" offset="1"/>
		</radialGradient>
		<radialGradient
			id="radialGradient3817"
			gradientUnits="userSpaceOnUse"
			cy="33.9"
			cx="270.58"
			gradientTransform="matrix(.26631 .065024 -.17931 .73438 -60.668 -36.938)"
			r="19.571">
				<stop stop-color="#ff6d0f" offset="0"/>
				<stop stop-color="#ff1000" offset="1"/>
		</radialGradient>
	</defs>
	<!-- Set display:none to hide FreeCAD Logo -->
	<g
		style="display:inline"
		id="freecad-logo"
		transform="translate(271, 185) scale(1)"
		fill-rule="evenodd"
		stroke-width=".45621">
		<path d="m0.22811 0.22835v13.256h2.9558v-5.1876h2.09v-2.0452h-2.09v-2.2075h5.1486v-3.8087l-8.1044-0.0075z"
			stroke="#370700"
			fill="url(#radialGradient3817)"/>
		<path d="m13.386 4.1792-1.7193 0.98645-0.75925-0.26348-0.72439-1.8513-1.1395 0.05988-0.51976 1.9144-0.72743 0.34835-1.8143-0.79367-0.76632 0.85156 0.98645 1.7193-0.26957 0.75702-1.8513 0.72439 0.065967 1.1417 1.9144 0.51976 0.34835 0.72743-0.79976 1.8121 0.85156 0.76632 1.7193-0.98645 0.76311 0.27179 0.7183 1.8491 1.1478-0.06375 0.51367-1.9166 0.72743-0.34835 1.8182 0.80198 0.76632-0.85156-0.98645-1.7193 0.2657-0.76533 1.8491-0.7183-0.05766-1.1456-1.9166-0.51367-0.34835-0.72743 0.7959-1.8204-0.85156-0.76632zm-2.5751 2.8195 0.35295 0.20478 0.30579 0.27725 0.24481 0.33087 0.17611 0.36787 0.10354 0.39656 0.01715 0.4064-0.0587 0.4063-0.13396 0.38571-0.2131 0.35681-0.26894 0.30192-0.33087 0.24481-0.36787 0.17611-0.39656 0.10354-0.40863 0.02325-0.4063-0.0587-0.38571-0.13396-0.35681-0.2131-0.2997-0.27503-0.24703-0.32478-0.17611-0.36787-0.10132-0.40264-0.02324-0.40863 0.05869-0.4063 0.13396-0.38571 0.21087-0.35072 0.27116-0.30801 0.33087-0.24481 0.36787-0.17611 0.40264-0.10132 0.40641-0.01715 0.4063 0.05869 0.38571 0.13396z" 
		stroke="#000137"
		fill="url(#radialGradient3661)"/>
	</g>
<g id="View"
   transform="rotate(60,148.5,108.2) translate(148.5,108.2) scale(1,1)"
  >
<g   stroke="rgb(0, 0, 0)"
   stroke-width="0.35"
   stroke-linecap="butt"
   stroke-linejoin="miter"
   fill="none"
   transform="scale(1,-1)"
  >
<path id= "1" d=" M -6.90685 1.10092 L -1.53284 -2.00176 " />
<path id= "2" d=" M -4.40685 5.43105 L 0.967157 2.32836 " />
<path id= "3" d=" M 1.11022e-16 -1.71464 L -0.282843 -1.87794 " />
</g>
<g   stroke="rgb(0, 0, 0)"
   stroke-width="0.35"
   stroke-linecap="butt"
   stroke-linejoin="miter"
   fill="none"
   transform="scale(1,-1)"
  >
<path d="M1.48492 1.18392 A2.5 1.44338 60 0 1 0.967157 2.32836" />
<path d="M-1.53284 -2.00176 A2.5 1.44338 60 0 1 -0.282843 -1.87794" />
<path d="M-0.282843 -1.87794 A2.5 1.44338 60 0 1 1.48492 1.18392" />
<path d="M-3.88909 4.28661 A2.5 1.44338 60 0 1 -4.40685 5.43105" />
<path d="M-4.40685 5.43105 A2.5 1.44338 60 0 1 -6.90685 1.10092" />
<path d="M-6.90685 1.10092 A2.5 1.44338 60 0 1 -3.88909 4.28661" />
<path id= "7" d=" M 1.48492 1.18392 L 1.48492 0.857321 " />
<path d="M1.48492 0.857321 A2.1 1.21244 60 0 1 1.47875 1.00993" />
<path d="M-0.135249 -1.7856 A2.1 1.21244 60 0 1 0 -1.71464" />
<path d="M0 -1.71464 A2.1 1.21244 60 0 1 1.48492 0.857321" />
<path id= "11" d=" M -5.19723 4.45059 L -6.11647 3.91986 " />
<path id= "12" d=" M -4.73762 3.79671 L -5.19723 4.45059 " />
<path id= "13" d=" M -5.19723 2.61211 L -4.73762 3.79671 " />
<path id= "14" d=" M -6.11647 2.08139 L -5.19723 2.61211 " />
<path id= "15" d=" M -6.57609 2.73526 L -6.11647 2.08139 " />
<path id= "16" d=" M -6.11647 3.91986 L -6.57609 2.73526 " />
<path id= "17" d=" M -6.11647 3.91986 L -4.95093 3.24693 " />
<path id= "18" d=" M -6.57609 2.73526 L -5.78001 2.27564 " />
</g>
</g>



</svg>

