<?xml version="1.0" encoding="UTF-8"?>

<svg xmlns="http://www.w3.org/2000/svg" version="1.1"
	width="297mm"
	height="210mm"
	viewBox="0 0 297 210">
	<!-- Working space 0 0 297 210 -->
	<defs>
		<radialGradient
			id="radialGradient3661"
			gradientUnits="userSpaceOnUse"
			cy="29.149"
			cx="282.65"
			gradientTransform="matrix(.14777 .23089 -.24680 .15795 -26.318 -62.617)"
			r="19.571">
				<stop stop-color="#71b2f8" offset="0"/>
				<stop stop-color="#002795" offset="1"/>
		</radialGradient>
		<radialGradient
			id="radialGradient3817"
			gradientUnits="userSpaceOnUse"
			cy="33.9"
			cx="270.58"
			gradientTransform="matrix(.26631 .065024 -.17931 .73438 -60.668 -36.938)"
			r="19.571">
				<stop stop-color="#ff6d0f" offset="0"/>
				<stop stop-color="#ff1000" offset="1"/>
		</radialGradient>
	</defs>
	<!-- Set display:none to hide FreeCAD Logo -->
	<g
		style="display:inline"
		id="freecad-logo"
		transform="translate(271, 185) scale(1)"
		fill-rule="evenodd"
		stroke-width=".45621">
		<path d="m0.22811 0.22835v13.256h2.9558v-5.1876h2.09v-2.0452h-2.09v-2.2075h5.1486v-3.8087l-8.1044-0.0075z"
			stroke="#370700"
			fill="url(#radialGradient3817)"/>
		<path d="m13.386 4.1792-1.7193 0.98645-0.75925-0.26348-0.72439-1.8513-1.1395 0.05988-0.51976 1.9144-0.72743 0.34835-1.8143-0.79367-0.76632 0.85156 0.98645 1.7193-0.26957 0.75702-1.8513 0.72439 0.065967 1.1417 1.9144 0.51976 0.34835 0.72743-0.79976 1.8121 0.85156 0.76632 1.7193-0.98645 0.76311 0.27179 0.7183 1.8491 1.1478-0.06375 0.51367-1.9166 0.72743-0.34835 1.8182 0.80198 0.76632-0.85156-0.98645-1.7193 0.2657-0.76533 1.8491-0.7183-0.05766-1.1456-1.9166-0.51367-0.34835-0.72743 0.7959-1.8204-0.85156-0.76632zm-2.5751 2.8195 0.35295 0.20478 0.30579 0.27725 0.24481 0.33087 0.17611 0.36787 0.10354 0.39656 0.01715 0.4064-0.0587 0.4063-0.13396 0.38571-0.2131 0.35681-0.26894 0.30192-0.33087 0.24481-0.36787 0.17611-0.39656 0.10354-0.40863 0.02325-0.4063-0.0587-0.38571-0.13396-0.35681-0.2131-0.2997-0.27503-0.24703-0.32478-0.17611-0.36787-0.10132-0.40264-0.02324-0.40863 0.05869-0.4063 0.13396-0.38571 0.21087-0.35072 0.27116-0.30801 0.33087-0.24481 0.36787-0.17611 0.40264-0.10132 0.40641-0.01715 0.4063 0.05869 0.38571 0.13396z" 
		stroke="#000137"
		fill="url(#radialGradient3661)"/>
	</g>
<g id="View"
   transform="rotate(60,148.5,103.469) translate(148.5,103.469) scale(1,1)"
  >
<g   stroke="rgb(0, 0, 0)"
   stroke-width="0.35"
   stroke-linecap="butt"
   stroke-linejoin="miter"
   fill="none"
   transform="scale(1,-1)"
  >
<path id= "1" d=" M 12.2353 1.59621 L 9.90183 2.94343 " />
<path id= "2" d=" M 4.73528 -11.3942 L 2.40183 -10.047 " />
<path id= "3" d=" M 9.12401 3.3925 L -1.62401 9.59788 " />
<path id= "4" d=" M 1.62401 -9.59788 L -9.12401 -3.3925 " />
<path id= "5" d=" M -2.40183 10.047 L -4.73528 11.3942 " />
<path id= "6" d=" M -9.90183 -2.94343 L -12.2353 -1.59621 " />
<path id= "7" d=" M -5.19533 8.31115 L -5.69031 8.59692 " />
<path id= "8" d=" M -9.79533 0.343715 L -10.2903 0.629489 " />
</g>
<g   stroke="rgb(0, 0, 0)"
   stroke-width="0.35"
   stroke-linecap="butt"
   stroke-linejoin="miter"
   fill="none"
   transform="scale(1,-1)"
  >
<path d="M13.7886 -1.83712 A7.5 4.33013 -120 0 0 4.73528 -11.3942" />
<path d="M12.2353 1.59621 A7.5 4.33013 -120 0 0 13.7886 -1.83712" />
<path d="M11.4551 -0.489898 A7.5 4.33013 -120 0 0 2.40183 -10.047" />
<path d="M9.90183 2.94343 A7.5 4.33013 -120 0 0 11.4551 -0.489898" />
<path d="M11.2076 -0.632785 A7.15 4.12805 -120 0 0 3.03852 -9.94902" />
<path d="M10.1354 2.34308 A7.15 4.12805 -120 0 0 11.2076 -0.632785" />
<path d="M10.6773 -0.0408248 A7.5 4.33013 -120 0 0 1.62401 -9.59788" />
<path d="M9.12401 3.3925 A7.5 4.33013 -120 0 0 10.6773 -0.0408248" />
<path d="M-0.0707107 6.16455 A7.5 4.33013 -120 0 0 -9.12401 -3.3925" />
<path d="M-9.12401 -3.3925 A7.5 4.33013 -120 0 0 -9.4927 -3.13294" />
<path d="M-2.03314 9.78739 A7.5 4.33013 -120 0 0 -1.62401 9.59788" />
<path d="M-1.62401 9.59788 A7.5 4.33013 -120 0 0 -0.0707107 6.16455" />
<path d="M-0.318198 6.02166 A7.15 4.12805 -120 0 0 -8.48732 -3.29457" />
<path d="M-1.39048 8.99752 A7.15 4.12805 -120 0 0 -0.318198 6.02166" />
<path d="M-4.94551 9.91757 A7.15 4.12805 -120 0 0 -4.93649 9.92021" />
<path d="M-0.848528 6.61362 A7.5 4.33013 -120 0 0 -9.90183 -2.94343" />
<path d="M-5.54138 9.98722 A7.5 4.33013 -120 0 0 -5.17992 10.1329" />
<path d="M-2.40183 10.047 A7.5 4.33013 -120 0 0 -0.848528 6.61362" />
<path d="M-3.18198 7.96084 A7.5 4.33013 -120 0 0 -12.2353 -1.59621" />
<path d="M-12.2353 -1.59621 A7.5 4.33013 -120 0 0 -4.73528 11.3942" />
<path d="M-4.73528 11.3942 A7.5 4.33013 -120 0 0 -3.18198 7.96084" />
<path d="M-4.10122 7.43012 A6.2 3.57957 -120 0 0 -11.5853 -0.470378" />
<path d="M-11.5853 -0.470378 A6.2 3.57957 -120 0 0 -5.38528 10.2683" />
<path d="M-5.38528 10.2683 A6.2 3.57957 -120 0 0 -4.10122 7.43012" />
<path d="M-11.0505 -0.687266 A6.2 3.57957 -120 0 0 -4.93008 9.91368" />
<path d="M-4.24264 6.20537 A4.6 2.65581 -120 0 0 -4.24499 6.06134" />
<path d="M-7.37177 0.6456 A4.6 2.65581 -120 0 0 -9.79533 0.343715" />
<path d="M-5.19533 8.31115 A4.6 2.65581 -120 0 0 -4.24264 6.20537" />
<path d="M-4.73762 6.49115 A4.6 2.65581 -120 0 0 -10.2903 0.629489" />
<path d="M-10.2903 0.629489 A4.6 2.65581 -120 0 0 -5.69031 8.59692" />
<path d="M-5.69031 8.59692 A4.6 2.65581 -120 0 0 -4.73762 6.49115" />
<path d="M-5.16188 6.2462 A4 2.3094 -120 0 0 -9.99031 1.1491" />
<path d="M-9.99031 1.1491 A4 2.3094 -120 0 0 -5.99031 8.07731" />
<path d="M-5.99031 8.07731 A4 2.3094 -120 0 0 -5.16188 6.2462" />
</g>
</g>



</svg>

