<?xml version="1.0" encoding="UTF-8"?>

<svg xmlns="http://www.w3.org/2000/svg" version="1.1"
	width="297mm"
	height="210mm"
	viewBox="0 0 297 210">
	<!-- Working space 0 0 297 210 -->
	<defs>
		<radialGradient
			id="radialGradient3661"
			gradientUnits="userSpaceOnUse"
			cy="29.149"
			cx="282.65"
			gradientTransform="matrix(.14777 .23089 -.24680 .15795 -26.318 -62.617)"
			r="19.571">
				<stop stop-color="#71b2f8" offset="0"/>
				<stop stop-color="#002795" offset="1"/>
		</radialGradient>
		<radialGradient
			id="radialGradient3817"
			gradientUnits="userSpaceOnUse"
			cy="33.9"
			cx="270.58"
			gradientTransform="matrix(.26631 .065024 -.17931 .73438 -60.668 -36.938)"
			r="19.571">
				<stop stop-color="#ff6d0f" offset="0"/>
				<stop stop-color="#ff1000" offset="1"/>
		</radialGradient>
	</defs>
	<!-- Set display:none to hide FreeCAD Logo -->
	<g
		style="display:inline"
		id="freecad-logo"
		transform="translate(271, 185) scale(1)"
		fill-rule="evenodd"
		stroke-width=".45621">
		<path d="m0.22811 0.22835v13.256h2.9558v-5.1876h2.09v-2.0452h-2.09v-2.2075h5.1486v-3.8087l-8.1044-0.0075z"
			stroke="#370700"
			fill="url(#radialGradient3817)"/>
		<path d="m13.386 4.1792-1.7193 0.98645-0.75925-0.26348-0.72439-1.8513-1.1395 0.05988-0.51976 1.9144-0.72743 0.34835-1.8143-0.79367-0.76632 0.85156 0.98645 1.7193-0.26957 0.75702-1.8513 0.72439 0.065967 1.1417 1.9144 0.51976 0.34835 0.72743-0.79976 1.8121 0.85156 0.76632 1.7193-0.98645 0.76311 0.27179 0.7183 1.8491 1.1478-0.06375 0.51367-1.9166 0.72743-0.34835 1.8182 0.80198 0.76632-0.85156-0.98645-1.7193 0.2657-0.76533 1.8491-0.7183-0.05766-1.1456-1.9166-0.51367-0.34835-0.72743 0.7959-1.8204-0.85156-0.76632zm-2.5751 2.8195 0.35295 0.20478 0.30579 0.27725 0.24481 0.33087 0.17611 0.36787 0.10354 0.39656 0.01715 0.4064-0.0587 0.4063-0.13396 0.38571-0.2131 0.35681-0.26894 0.30192-0.33087 0.24481-0.36787 0.17611-0.39656 0.10354-0.40863 0.02325-0.4063-0.0587-0.38571-0.13396-0.35681-0.2131-0.2997-0.27503-0.24703-0.32478-0.17611-0.36787-0.10132-0.40264-0.02324-0.40863 0.05869-0.4063 0.13396-0.38571 0.21087-0.35072 0.27116-0.30801 0.33087-0.24481 0.36787-0.17611 0.40264-0.10132 0.40641-0.01715 0.4063 0.05869 0.38571 0.13396z" 
		stroke="#000137"
		fill="url(#radialGradient3661)"/>
	</g>
<g id="Ortho_0_0"
   transform="rotate(-90,89,144) translate(89,144) scale(1,1)"
  >
<g   stroke="rgb(0, 0, 0)"
   stroke-width="0.35"
   stroke-linecap="butt"
   stroke-linejoin="miter"
   fill="none"
   transform="scale(1,-1)"
  >
<path id= "1" d=" M -12 -7.5 L -8.7 -7.5 " />
<path id= "2" d=" M -12 7.5 L -8.7 7.5 " />
<path id= "3" d=" M -7.6 7.15 L -8.7 7.15 " />
<path id= "4" d=" M -7.6 -7.15 L -8.7 -7.15 " />
<path id= "5" d=" M -7.6 -7.5 L 7.6 -7.5 " />
<path id= "6" d=" M -7.6 7.5 L 7.6 7.5 " />
<path id= "7" d=" M 7.6 -7.15 L 8.7 -7.15 " />
<path id= "8" d=" M 7.6 7.15 L 8.7 7.15 " />
<path id= "9" d=" M 8.7 -7.5 L 12 -7.5 " />
<path id= "10" d=" M 8.7 7.5 L 12 7.5 " />
</g>
<g   stroke="rgb(0, 0, 0)"
   stroke-width="0.35"
   stroke-linecap="butt"
   stroke-linejoin="miter"
   fill="none"
   transform="scale(1,-1)"
  >
<path d="M-12,1.06581e-14 L-12,0.839734  L-12,1.66891  L-12,2.47709  L-12,3.25413  L-12,3.99024  L-12,4.67617  L-12,5.3033  L-12,5.86374  L-12,6.35043  L-12,6.75727  L-12,7.07912  L-12,7.31196  L-12,7.45284  L-12,7.5 " /><path d="M-12,-7.5 L-12,-7.45284  L-12,-7.31196  L-12,-7.07912  L-12,-6.75727  L-12,-6.35043  L-12,-5.86374  L-12,-5.3033  L-12,-4.67617  L-12,-3.99024  L-12,-3.25413  L-12,-2.47709  L-12,-1.66891  L-12,-0.839734  L-12,3.54665e-14 " /><path d="M-8.7,7.72715e-15 L-8.7,0.839734  L-8.7,1.66891  L-8.7,2.47709  L-8.7,3.25413  L-8.7,3.99024  L-8.7,4.67617  L-8.7,5.3033  L-8.7,5.86374  L-8.7,6.35043  L-8.7,6.75727  L-8.7,7.07912  L-8.7,7.31196  L-8.7,7.45284  L-8.7,7.5 " /><path d="M-8.7,-7.5 L-8.7,-7.45284  L-8.7,-7.31196  L-8.7,-7.07912  L-8.7,-6.75727  L-8.7,-6.35043  L-8.7,-5.86374  L-8.7,-5.3033  L-8.7,-4.67617  L-8.7,-3.99024  L-8.7,-3.25413  L-8.7,-2.47709  L-8.7,-1.66891  L-8.7,-0.839734  L-8.7,3.25355e-14 " /><path d="M-7.6,6.75016e-15 L-7.6,0.839734  L-7.6,1.66891  L-7.6,2.47709  L-7.6,3.25413  L-7.6,3.99024  L-7.6,4.67617  L-7.6,5.3033  L-7.6,5.86374  L-7.6,6.35043  L-7.6,6.75727  L-7.6,7.07912  L-7.6,7.31196  L-7.6,7.45284  L-7.6,7.5 " /><path d="M-7.6,-7.5 L-7.6,-7.45284  L-7.6,-7.31196  L-7.6,-7.07912  L-7.6,-6.75727  L-7.6,-6.35043  L-7.6,-5.86374  L-7.6,-5.3033  L-7.6,-4.67617  L-7.6,-3.99024  L-7.6,-3.25413  L-7.6,-2.47709  L-7.6,-1.66891  L-7.6,-0.839734  L-7.6,3.15585e-14 " /><path d="M7.6,-6.75016e-15 L7.6,0.839734  L7.6,1.66891  L7.6,2.47709  L7.6,3.25413  L7.6,3.99024  L7.6,4.67617  L7.6,5.3033  L7.6,5.86374  L7.6,6.35043  L7.6,6.75727  L7.6,7.07912  L7.6,7.31196  L7.6,7.45284  L7.6,7.5 " /><path d="M7.6,-7.5 L7.6,-7.45284  L7.6,-7.31196  L7.6,-7.07912  L7.6,-6.75727  L7.6,-6.35043  L7.6,-5.86374  L7.6,-5.3033  L7.6,-4.67617  L7.6,-3.99024  L7.6,-3.25413  L7.6,-2.47709  L7.6,-1.66891  L7.6,-0.839734  L7.6,1.80582e-14 " /><path d="M8.7,-7.72715e-15 L8.7,0.839734  L8.7,1.66891  L8.7,2.47709  L8.7,3.25413  L8.7,3.99024  L8.7,4.67617  L8.7,5.3033  L8.7,5.86374  L8.7,6.35043  L8.7,6.75727  L8.7,7.07912  L8.7,7.31196  L8.7,7.45284  L8.7,7.5 " /><path d="M8.7,-7.5 L8.7,-7.45284  L8.7,-7.31196  L8.7,-7.07912  L8.7,-6.75727  L8.7,-6.35043  L8.7,-5.86374  L8.7,-5.3033  L8.7,-4.67617  L8.7,-3.99024  L8.7,-3.25413  L8.7,-2.47709  L8.7,-1.66891  L8.7,-0.839734  L8.7,1.70812e-14 " /><path d="M12,-1.06581e-14 L12,0.839734  L12,1.66891  L12,2.47709  L12,3.25413  L12,3.99024  L12,4.67617  L12,5.3033  L12,5.86374  L12,6.35043  L12,6.75727  L12,7.07912  L12,7.31196  L12,7.45284  L12,7.5 " /><path d="M12,-7.5 L12,-7.45284  L12,-7.31196  L12,-7.07912  L12,-6.75727  L12,-6.35043  L12,-5.86374  L12,-5.3033  L12,-4.67617  L12,-3.99024  L12,-3.25413  L12,-2.47709  L12,-1.66891  L12,-0.839734  L12,1.41502e-14 " /></g>
</g>



<g id="Ortho_0_1"
   transform="rotate(90,89,48) translate(89,48) scale(1,1)"
  >
<g   stroke="rgb(0, 0, 0)"
   stroke-width="0.35"
   stroke-linecap="butt"
   stroke-linejoin="miter"
   fill="none"
   transform="scale(1,-1)"
  >
<circle cx ="0" cy ="5.06262e-15" r ="7.5" /><circle cx ="0" cy ="7.99361e-15" r ="7.5" /><circle cx ="0" cy ="7.99361e-15" r ="6.2" /><circle cx ="0" cy ="7.52731e-15" r ="4.6" /><circle cx ="0" cy ="7.52731e-15" r ="4" /></g>
</g>



<g id="Ortho_1_0"
   transform="rotate(-90,208,144) translate(208,144) scale(1,1)"
  >
<g   stroke="rgb(0, 0, 0)"
   stroke-width="0.35"
   stroke-linecap="butt"
   stroke-linejoin="miter"
   fill="none"
   transform="scale(1,-1)"
  >
<path id= "1" d=" M -12 -7.5 L -8.7 -7.5 " />
<path id= "2" d=" M -7.6 -7.15 L -8.7 -7.15 " />
<path id= "3" d=" M -7.6 -7.5 L 7.6 -7.5 " />
<path id= "4" d=" M 7.6 -7.15 L 8.7 -7.15 " />
<path id= "5" d=" M 8.7 -7.5 L 12 -7.5 " />
</g>
<g   stroke="rgb(0, 0, 0)"
   stroke-width="0.35"
   stroke-linecap="butt"
   stroke-linejoin="miter"
   fill="none"
   transform="scale(1,-1)"
  >
<path d="M-12,-7.5 L-12,-7.31196  L-12,-6.75727  L-12,-5.86374  L-12,-4.67617  L-12,-3.25413  L-12,-1.66891  L-12,7.94815e-15  L-12,1.66891  L-12,3.25413  L-12,4.67617  L-12,5.86374  L-12,6.75727  L-12,7.31196  L-12,7.5 " /><path d="M-8.7,-7.5 L-8.7,-7.31196  L-8.7,-6.75727  L-8.7,-5.86374  L-8.7,-4.67617  L-8.7,-3.25413  L-8.7,-1.66891  L-8.7,7.2154e-15  L-8.7,1.66891  L-8.7,3.25413  L-8.7,4.67617  L-8.7,5.86374  L-8.7,6.75727  L-8.7,7.31196  L-8.7,7.5 " /><path id= "3" d=" M -12 7.5 L -8.7 7.5 " />
<path id= "4" d=" M -7.6 7.15 L -8.7 7.15 " />
<path d="M-7.6,-7.5 L-7.6,-7.31196  L-7.6,-6.75727  L-7.6,-5.86374  L-7.6,-4.67617  L-7.6,-3.25413  L-7.6,-1.66891  L-7.6,1.36325e-14  L-7.6,1.66891  L-7.6,3.25413  L-7.6,4.67617  L-7.6,5.86374  L-7.6,6.75727  L-7.6,7.31196  L-7.6,7.5 " /><path d="M7.6,-7.5 L7.6,-7.31196  L7.6,-6.75727  L7.6,-5.86374  L7.6,-4.67617  L7.6,-3.25413  L7.6,-1.66891  L7.6,1.02574e-14  L7.6,1.66891  L7.6,3.25413  L7.6,4.67617  L7.6,5.86374  L7.6,6.75727  L7.6,7.31196  L7.6,7.5 " /><path id= "7" d=" M -7.6 7.5 L 7.6 7.5 " />
<path id= "8" d=" M 7.6 7.15 L 8.7 7.15 " />
<path d="M8.7,-7.5 L8.7,-7.31196  L8.7,-6.75727  L8.7,-5.86374  L8.7,-4.67617  L8.7,-3.25413  L8.7,-1.66891  L8.7,3.35182e-15  L8.7,1.66891  L8.7,3.25413  L8.7,4.67617  L8.7,5.86374  L8.7,6.75727  L8.7,7.31196  L8.7,7.5 " /><path d="M12,-7.5 L12,-7.31196  L12,-6.75727  L12,-5.86374  L12,-4.67617  L12,-3.25413  L12,-1.66891  L12,2.61908e-15  L12,1.66891  L12,3.25413  L12,4.67617  L12,5.86374  L12,6.75727  L12,7.31196  L12,7.5 " /><path id= "11" d=" M 8.7 7.5 L 12 7.5 " />
</g>
</g>



</svg>

