<?xml version="1.0" encoding="UTF-8"?>

<svg xmlns="http://www.w3.org/2000/svg" version="1.1"
	width="297mm"
	height="210mm"
	viewBox="0 0 297 210">
	<!-- Working space 0 0 297 210 -->
	<defs>
		<radialGradient
			id="radialGradient3661"
			gradientUnits="userSpaceOnUse"
			cy="29.149"
			cx="282.65"
			gradientTransform="matrix(.14777 .23089 -.24680 .15795 -26.318 -62.617)"
			r="19.571">
				<stop stop-color="#71b2f8" offset="0"/>
				<stop stop-color="#002795" offset="1"/>
		</radialGradient>
		<radialGradient
			id="radialGradient3817"
			gradientUnits="userSpaceOnUse"
			cy="33.9"
			cx="270.58"
			gradientTransform="matrix(.26631 .065024 -.17931 .73438 -60.668 -36.938)"
			r="19.571">
				<stop stop-color="#ff6d0f" offset="0"/>
				<stop stop-color="#ff1000" offset="1"/>
		</radialGradient>
	</defs>
	<!-- Set display:none to hide FreeCAD Logo -->
	<g
		style="display:inline"
		id="freecad-logo"
		transform="translate(271, 185) scale(1)"
		fill-rule="evenodd"
		stroke-width=".45621">
		<path d="m0.22811 0.22835v13.256h2.9558v-5.1876h2.09v-2.0452h-2.09v-2.2075h5.1486v-3.8087l-8.1044-0.0075z"
			stroke="#370700"
			fill="url(#radialGradient3817)"/>
		<path d="m13.386 4.1792-1.7193 0.98645-0.75925-0.26348-0.72439-1.8513-1.1395 0.05988-0.51976 1.9144-0.72743 0.34835-1.8143-0.79367-0.76632 0.85156 0.98645 1.7193-0.26957 0.75702-1.8513 0.72439 0.065967 1.1417 1.9144 0.51976 0.34835 0.72743-0.79976 1.8121 0.85156 0.76632 1.7193-0.98645 0.76311 0.27179 0.7183 1.8491 1.1478-0.06375 0.51367-1.9166 0.72743-0.34835 1.8182 0.80198 0.76632-0.85156-0.98645-1.7193 0.2657-0.76533 1.8491-0.7183-0.05766-1.1456-1.9166-0.51367-0.34835-0.72743 0.7959-1.8204-0.85156-0.76632zm-2.5751 2.8195 0.35295 0.20478 0.30579 0.27725 0.24481 0.33087 0.17611 0.36787 0.10354 0.39656 0.01715 0.4064-0.0587 0.4063-0.13396 0.38571-0.2131 0.35681-0.26894 0.30192-0.33087 0.24481-0.36787 0.17611-0.39656 0.10354-0.40863 0.02325-0.4063-0.0587-0.38571-0.13396-0.35681-0.2131-0.2997-0.27503-0.24703-0.32478-0.17611-0.36787-0.10132-0.40264-0.02324-0.40863 0.05869-0.4063 0.13396-0.38571 0.21087-0.35072 0.27116-0.30801 0.33087-0.24481 0.36787-0.17611 0.40264-0.10132 0.40641-0.01715 0.4063 0.05869 0.38571 0.13396z" 
		stroke="#000137"
		fill="url(#radialGradient3661)"/>
	</g>
<g id="Ortho_0_0"
   transform="rotate(-90,154.202,162.198) translate(154.202,162.198) scale(1,1)"
  >
<g   stroke="rgb(0, 0, 0)"
   stroke-width="0.35"
   stroke-linecap="butt"
   stroke-linejoin="miter"
   fill="none"
   transform="scale(1,-1)"
  >
<path id= "1" d=" M 3.66374e-15 3.66374e-15 L -1.6 3.66374e-15 " />
<path id= "2" d=" M 3.66374e-15 3.66374e-15 L 3.66374e-15 40 " />
<path id= "3" d=" M 3.66374e-15 40 L -1.6 40 " />
<path id= "4" d=" M -1.6 3.66374e-15 L -1.6 40 " />
<path d="M-1.6,19.7 L-1.6,19.6499  L-1.6,19.5019  L-1.6,19.2637  L-1.6,18.947  L-1.6,18.5678  L-1.6,18.145  L-1.6,17.7  L-1.6,17.255  L-1.6,16.8322  L-1.6,16.453  L-1.6,16.1363  L-1.6,15.8981  L-1.6,15.7501  L-1.6,15.7 " /><path d="M-1.6,38.6 L-1.6,38.5499  L-1.6,38.4019  L-1.6,38.1637  L-1.6,37.847  L-1.6,37.4678  L-1.6,37.045  L-1.6,36.6  L-1.6,36.155  L-1.6,35.7322  L-1.6,35.353  L-1.6,35.0363  L-1.6,34.7981  L-1.6,34.6501  L-1.6,34.6 " /><path id= "7" d=" M 0.15 22.57 L 3.55271e-15 22.57 " />
<path id= "8" d=" M -1.6 22.57 L -2.4 22.57 " />
<path id= "9" d=" M 0.15 21.93 L 3.55271e-15 21.93 " />
<path id= "10" d=" M -1.6 21.93 L -2.4 21.93 " />
<path id= "11" d=" M -2.4 21.93 L -2.4 22.57 " />
<path id= "12" d=" M -2.4 22.57 L -3 22.47 " />
<path id= "13" d=" M -2.4 21.93 L -3 22.03 " />
<path id= "14" d=" M -3 22.03 L -3 22.47 " />
<path id= "15" d=" M 0.15 27.57 L 3.55271e-15 27.57 " />
<path id= "16" d=" M -1.6 27.57 L -2.4 27.57 " />
<path id= "17" d=" M 0.15 26.93 L 3.55271e-15 26.93 " />
<path id= "18" d=" M -1.6 26.93 L -2.4 26.93 " />
<path id= "19" d=" M -2.4 26.93 L -2.4 27.57 " />
<path id= "20" d=" M -2.4 27.57 L -3 27.47 " />
<path id= "21" d=" M -2.4 26.93 L -3 27.03 " />
<path id= "22" d=" M -3 27.03 L -3 27.47 " />
<path id= "23" d=" M 0.15 28 L 0.15 26.5 " />
<path id= "24" d=" M 5.9 28.9687 L 5.9 25.5687 " />
<path id= "25" d=" M 5.85 28.9687 L 5.9 28.9687 " />
<path id= "26" d=" M 0.2 33.7187 L 0.2 33.7 " />
<path id= "27" d=" M 5.9 33.7187 L 5.9 29.8443 " />
<path d="M5.9,29.8443 L5.9,29.7463  L5.9,29.6495  L5.9,29.5551  L5.9,29.4644  L5.9,29.3785  L5.9,29.2984  L5.9,29.2252  L5.9,29.1598  L5.9,29.1029  L5.9,29.0554  L5.9,29.0179  L5.9,28.9907  L5.9,28.9742  L5.9,28.9687 " /><path d="M5.9,25.5687 L5.9,25.5632  L5.9,25.5468  L5.9,25.5196  L5.9,25.482  L5.9,25.4345  L5.9,25.3777  L5.9,25.3123  L5.9,25.239  L5.9,25.159  L5.9,25.073  L5.9,24.9823  L5.9,24.888  L5.9,24.7911  L5.9,24.6931 " /><path id= "30" d=" M 5.9 24.6931 L 5.9 20.8187 " />
<path id= "31" d=" M 5.85 25.5687 L 5.9 25.5687 " />
<path id= "32" d=" M 0.2 33.7187 L 1 33.7187 " />
<path id= "33" d=" M 5 33.7187 L 5.9 33.7187 " />
<path id= "34" d=" M 5.85 20.8187 L 5.9 20.8187 " />
<path id= "35" d=" M 0.15 32.57 L 3.55271e-15 32.57 " />
<path id= "36" d=" M -1.6 32.57 L -2.4 32.57 " />
<path id= "37" d=" M 0.15 31.93 L 3.55271e-15 31.93 " />
<path id= "38" d=" M -1.6 31.93 L -2.4 31.93 " />
<path id= "39" d=" M -2.4 31.93 L -2.4 32.57 " />
<path id= "40" d=" M -2.4 32.57 L -3 32.47 " />
<path id= "41" d=" M -2.4 31.93 L -3 32.03 " />
<path id= "42" d=" M -3 32.03 L -3 32.47 " />
<path id= "43" d=" M 0.9 7.7 L 0.9 8.6 " />
<path id= "44" d=" M 0.9 7.94 L 0.9 8.5 " />
<path id= "45" d=" M 0.9 8.6 L 0.9 9 " />
<path id= "46" d=" M 0.9 8.6 L 3.9 8.6 " />
<path id= "47" d=" M 3.9 7.7 L 3.9 8.6 " />
<path id= "48" d=" M 3.9 9 L 3.9 8.6 " />
<path id= "49" d=" M 0.9 9 L 3.9 9 " />
<path id= "50" d=" M 3.9 7.94 L 3.91 7.94 " />
<path id= "51" d=" M 3.9 7.94 L 3.91 7.94 " />
<path id= "52" d=" M 3.91 7.94 L 4.4 7.94 " />
<path id= "53" d=" M 0.2 7.7 L 5.2 7.7 " />
<path id= "54" d=" M -1.8 8.9 L -1.6 8.9 " />
<path id= "55" d=" M 3.77476e-15 8.9 L 0.9 8.9 " />
<path id= "56" d=" M 3.9 8.6 L 4.3 8.6 " />
<path id= "57" d=" M 4.3 7.94 L 4.3 8.6 " />
<path id= "58" d=" M 3.91 7.7 L 3.91 7.94 " />
<path id= "59" d=" M 3.9 9 L 4.3 8.6 " />
<path id= "60" d=" M 4.4 7.7 L 4.4 7.94 " />
<path id= "61" d=" M -1.8 8.5 L -1.8 8.9 " />
<path id= "62" d=" M -1.8 8.5 L -1.6 8.5 " />
<path id= "63" d=" M 3.77476e-15 8.5 L 0.9 8.5 " />
<path id= "64" d=" M -1.8 8.9 L -1.6 8.9 " />
<path id= "65" d=" M 3.77476e-15 8.9 L 0.9 8.9 " />
<path id= "66" d=" M 0.2 -3.3 L 0.2 7.7 " />
<path id= "67" d=" M 0.2 -3.3 L 5.2 -3.3 " />
<path id= "68" d=" M 5.2 -3.3 L 5.2 7.7 " />
<path id= "69" d=" M 5.2 5.7 L 5.2 0.2 " />
<path id= "70" d=" M 0.2 5.7 L 0.2 -3.3 " />
<path id= "71" d=" M -1.8 8.9 L -1.6 8.9 " />
<path id= "72" d=" M 3.77476e-15 8.9 L 0.9 8.9 " />
<path id= "73" d=" M 0.9 -3.3 L 4.5 -3.3 " />
<path id= "74" d=" M 5.2 -3.3 L 6.7 -3.3 " />
<path id= "75" d=" M 5.2 -3.3 L 6 -3.3 " />
<path id= "76" d=" M 5.2 0.2 L 6.7 0.2 " />
<path id= "77" d=" M 6.7 -3.3 L 6.7 0.2 " />
<path id= "78" d=" M 6.7 0.2 L 5.9 0.2 " />
<path d="M6.7,-1.8 L6.7,-1.85598  L6.7,-1.91126  L6.7,-1.96514  L6.7,-2.01694  L6.7,-2.06602  L6.7,-2.11174  L6.7,-2.15355  L6.7,-2.19092  L6.7,-2.22336  L6.7,-2.25048  L6.7,-2.27194  L6.7,-2.28746  L6.7,-2.29686  L6.7,-2.3 " /><path id= "80" d=" M 3.77146 25.15 L 2.22854 25.15 " />
<path id= "81" d=" M 3.77146 26.15 L 2.22854 26.15 " />
<path id= "82" d=" M 0.15 20.8 L 0.15 33.7 " />
<path d="M0.15,25.15 L0.15,25.1948  L0.15,25.239  L0.15,25.2821  L0.15,25.3236  L0.15,25.3628  L0.15,25.3994  L0.15,25.4328  L0.15,25.4627  L0.15,25.4887  L0.15,25.5104  L0.15,25.5276  L0.15,25.54  L0.15,25.5475  L0.15,25.55 " /><path id= "84" d=" M 0.15 21.8 L 0.15 22.3 " />
<path id= "85" d=" M 5.85 20.8 L 0.15 20.8 " />
<path id= "86" d=" M 5.85 20.8 L 5.85 33.7 " />
<path id= "87" d=" M 5.85 33.7 L 5 33.7 " />
<path id= "88" d=" M 1 33.7 L 0.15 33.7 " />
<path id= "89" d=" M 1 21.8 L 5 21.8 " />
<path id= "90" d=" M 3.32632 22.8 L 2.74062 22.8 " />
<path id= "91" d=" M 1 21.8 L 5 21.8 " />
<path id= "92" d=" M 1 21.8 L 1 22.0189 " />
<path id= "93" d=" M 5 22.0189 L 5 21.8 " />
<path id= "94" d=" M 5 22.0189 L 3.32632 22.0189 " />
<path d="M5,22.0189 L5,22.0248  L5,22.0365  L5,22.0541  L5,22.0774  L5,22.1061  L5,22.1401  L5,22.1791  L5,22.2228  L5,22.2708  L5,22.3229  L5,22.3786  L5,22.4374  L5,22.499  L5,22.5628 " /><path id= "96" d=" M 5 22.5628 L 3.32632 22.5628 " />
<path d="M3.32632,22.0189 L3.32632,22.0248  L3.32632,22.0365  L3.32632,22.0541  L3.32632,22.0774  L3.32632,22.1061  L3.32632,22.1401  L3.32632,22.1791  L3.32632,22.2228  L3.32632,22.2708  L3.32632,22.3229  L3.32632,22.3786  L3.32632,22.4374  L3.32632,22.499  L3.32632,22.5628 " /><path id= "98" d=" M 3.32632 22.8443 L 3.32632 22.5628 " />
<path d="M3.32632,22.2073 L3.32632,22.2072  L3.32632,22.207  L3.32632,22.2069  L3.32632,22.2068  L3.32632,22.2067  L3.32632,22.2066  L3.32632,22.2066  L3.32632,22.2065  L3.32632,22.2064  L3.32632,22.2064  L3.32632,22.2064  L3.32632,22.2063  L3.32632,22.2063  L3.32632,22.2063 " /><path d="M3.32632,22.2063 L3.32632,22.2084  L3.32632,22.2145  L3.32632,22.2246  L3.32632,22.2387  L3.32632,22.2566  L3.32632,22.2783  L3.32632,22.3035  L3.32632,22.3322  L3.32632,22.364  L3.32632,22.3988  L3.32632,22.4364  L3.32632,22.4764  L3.32632,22.5186  L3.32632,22.5628 " /><path id= "101" d=" M 5 22.5628 L 5 35.6121 " />
<path d="M3.77146,23.5434 L3.76893,23.4809  L3.76136,23.4189  L3.74879,23.3577  L3.73132,23.2977  L3.70904,23.2394  L3.68212,23.183  L3.65073,23.129  L3.61506,23.0777  L3.57537,23.0294  L3.5319,22.9846  L3.48494,22.9434  L3.4348,22.9061  L3.38181,22.873  L3.32632,22.8443 " /><path id= "103" d=" M 3.77146 23.5434 L 3.77146 30.4546 " />
<path d="M2.22854,30.4546 L2.24788,30.6263  L2.30494,30.7894  L2.39685,30.9356  L2.519,31.0578  L2.66528,31.1497  L2.82833,31.2067  L3,31.2261  L3.17167,31.2067  L3.33472,31.1497  L3.481,31.0578  L3.60315,30.9356  L3.69506,30.7894  L3.75212,30.6263  L3.77146,30.4546 " /><path id= "105" d=" M 2.22854 23.5434 L 2.22854 30.4546 " />
<path d="M2.74062,22.8168 L2.67797,22.8423  L2.6178,22.8732  L2.56057,22.9093  L2.50672,22.9502  L2.45666,22.9957  L2.41078,23.0454  L2.36942,23.0989  L2.33292,23.1559  L2.30154,23.2158  L2.27553,23.2782  L2.25509,23.3427  L2.24038,23.4087  L2.23151,23.4758  L2.22854,23.5434 " /><path id= "107" d=" M 2.74062 22.5628 L 2.74062 22.8168 " />
<path id= "108" d=" M 2.74062 22.5628 L 1 22.5628 " />
<path id= "109" d=" M 1 22.5628 L 1 35.6121 " />
<path id= "110" d=" M 5 35.6121 L 1 35.6121 " />
<path id= "111" d=" M 2.74062 22.0189 L 1 22.0189 " />
<path d="M2.74062,22.0189 L2.74062,22.0248  L2.74062,22.0365  L2.74062,22.0541  L2.74062,22.0774  L2.74062,22.1061  L2.74062,22.1401  L2.74062,22.1791  L2.74062,22.2228  L2.74062,22.2708  L2.74062,22.3229  L2.74062,22.3786  L2.74062,22.4374  L2.74062,22.499  L2.74062,22.5628 " /><path d="M1,22.0189 L1,22.0248  L1,22.0365  L1,22.0541  L1,22.0774  L1,22.1061  L1,22.1401  L1,22.1791  L1,22.2228  L1,22.2708  L1,22.3229  L1,22.3786  L1,22.4374  L1,22.499  L1,22.5628 " /></g>
</g>



<g id="Ortho_0_1"
   transform="rotate(90,154.202,38.8025) translate(154.202,38.8025) scale(1,1)"
  >
<g   stroke="rgb(0, 0, 0)"
   stroke-width="0.35"
   stroke-linecap="butt"
   stroke-linejoin="miter"
   fill="none"
   transform="scale(1,-1)"
  >
<path id= "1" d=" M 0 0 L 3.25 -7.21645e-16 " />
<path id= "2" d=" M 6.01 -1.33449e-15 L 7 -1.55431e-15 " />
<path id= "3" d=" M 12.75 -2.83107e-15 L 16.5 -3.66374e-15 " />
<path id= "4" d=" M 0 0 L -8.88178e-15 -40 " />
<path id= "5" d=" M 16.5 -3.66374e-15 L 16.5 -20.8 " />
<path id= "6" d=" M 16.5 -33.7 L 16.5 -40 " />
<path id= "7" d=" M -8.88178e-15 -40 L 16.5 -40 " />
<circle cx ="13.5" cy ="-17.7" r ="2" /><circle cx ="13.5" cy ="-36.6" r ="2" /><path id= "10" d=" M 9.59549 -22.57 L 7 -22.57 " />
<path d="M7,-22.57 L6.88804,-22.57  L6.77748,-22.57  L6.66972,-22.57  L6.56612,-22.57  L6.46797,-22.57  L6.37651,-22.57  L6.29289,-22.57  L6.21817,-22.57  L6.15328,-22.57  L6.09903,-22.57  L6.05612,-22.57  L6.02507,-22.57  L6.00629,-22.57  L6,-22.57 " /><path id= "12" d=" M 9.59549 -21.93 L 7 -21.93 " />
<path d="M7,-21.93 L6.88804,-21.93  L6.77748,-21.93  L6.66972,-21.93  L6.56612,-21.93  L6.46797,-21.93  L6.37651,-21.93  L6.29289,-21.93  L6.21817,-21.93  L6.15328,-21.93  L6.09903,-21.93  L6.05612,-21.93  L6.02507,-21.93  L6.00629,-21.93  L6,-21.93 " /><path id= "14" d=" M 6 -21.93 L 6 -22.57 " />
<path id= "15" d=" M 9.59549 -27.57 L 7 -27.57 " />
<path d="M7,-27.57 L6.88804,-27.57  L6.77748,-27.57  L6.66972,-27.57  L6.56612,-27.57  L6.46797,-27.57  L6.37651,-27.57  L6.29289,-27.57  L6.21817,-27.57  L6.15328,-27.57  L6.09903,-27.57  L6.05612,-27.57  L6.02507,-27.57  L6.00629,-27.57  L6,-27.57 " /><path id= "17" d=" M 9.59549 -26.93 L 7 -26.93 " />
<path d="M7,-26.93 L6.88804,-26.93  L6.77748,-26.93  L6.66972,-26.93  L6.56612,-26.93  L6.46797,-26.93  L6.37651,-26.93  L6.29289,-26.93  L6.21817,-26.93  L6.15328,-26.93  L6.09903,-26.93  L6.05612,-26.93  L6.02507,-26.93  L6.00629,-26.93  L6,-26.93 " /><path id= "19" d=" M 6 -26.93 L 6 -27.57 " />
<path id= "20" d=" M 12.0497 -28 L 12.0497 -26.5 " />
<path id= "21" d=" M 10.547 -28.9687 L 10.547 -25.5687 " />
<path id= "22" d=" M 11.6747 -28.9687 L 10.547 -28.9687 " />
<path id= "23" d=" M 9.59549 -20.8187 L 9.59549 -22.8187 " />
<path id= "24" d=" M 9.59549 -22.8187 L 9.39549 -23.0187 " />
<path id= "25" d=" M 9.39549 -23.0187 L 9.39549 -25.52 " />
<path id= "26" d=" M 9.39549 -25.52 L 9.59549 -25.72 " />
<path id= "27" d=" M 9.59549 -25.72 L 9.59549 -29.12 " />
<path id= "28" d=" M 9.59549 -29.12 L 9.45027 -29.2652 " />
<path id= "29" d=" M 9.45027 -29.2652 L 9.45027 -32.0676 " />
<path id= "30" d=" M 9.45027 -32.0676 L 9.65027 -32.2676 " />
<path id= "31" d=" M 9.65027 -32.2676 L 9.65027 -33.7187 " />
<path id= "32" d=" M 9.65027 -33.7187 L 12.5503 -33.7187 " />
<path id= "33" d=" M 12.5503 -33.7187 L 12.5503 -29.8443 " />
<path d="M12.5503 -29.8443 A0.875611 0.875611 0 0 1 11.6747 -28.9687" /><path id= "35" d=" M 10.547 -25.5687 L 11.6199 -25.5687 " />
<path d="M11.6199 -25.5687 A0.875611 0.875611 0 0 1 12.4955 -24.6931" /><path id= "37" d=" M 12.4955 -24.6931 L 12.4955 -20.8187 " />
<path id= "38" d=" M 12.4955 -20.8187 L 9.59549 -20.8187 " />
<path d="M11.8503 -23.87 A1 1 0 0 1 9.85027 -23.87" /><path id= "40" d=" M 9.85027 -23.87 L 9.85027 -24.17 " />
<path d="M9.85027 -24.17 A1 1 0 0 1 11.8503 -24.17" /><path id= "42" d=" M 11.8503 -23.87 L 11.8503 -24.17 " />
<circle cx ="10.8503" cy ="-30.67" r ="1" /><path id= "44" d=" M 11.1594 -26.5 L 11.1 -26.5 " />
<path id= "45" d=" M 11.1594 -26.5 L 11.1594 -28 " />
<path id= "46" d=" M 11.1594 -28 L 11.1 -28 " />
<path id= "47" d=" M 11.1594 -26.5 L 11.1594 -28 " />
<path id= "48" d=" M 12.0497 -26.5 L 12.0497 -28 " />
<path id= "49" d=" M 9.65027 -32.57 L 7 -32.57 " />
<path d="M7,-32.57 L6.88804,-32.57  L6.77748,-32.57  L6.66972,-32.57  L6.56612,-32.57  L6.46797,-32.57  L6.37651,-32.57  L6.29289,-32.57  L6.21817,-32.57  L6.15328,-32.57  L6.09903,-32.57  L6.05612,-32.57  L6.02507,-32.57  L6.00629,-32.57  L6,-32.57 " /><path id= "51" d=" M 9.45027 -31.93 L 7 -31.93 " />
<path d="M7,-31.93 L6.88804,-31.93  L6.77748,-31.93  L6.66972,-31.93  L6.56612,-31.93  L6.46797,-31.93  L6.37651,-31.93  L6.29289,-31.93  L6.21817,-31.93  L6.15328,-31.93  L6.09903,-31.93  L6.05612,-31.93  L6.02507,-31.93  L6.00629,-31.93  L6,-31.93 " /><path id= "53" d=" M 6 -31.93 L 6 -32.57 " />
<path id= "54" d=" M 7.15 -8.9 L 7.55 -8.5 " />
<path id= "55" d=" M 11.88 -7.7 L 11.88 -8.6 " />
<path id= "56" d=" M 11.48 -9 L 11.88 -8.6 " />
<path id= "57" d=" M 11.48 -9 L 10.78 -9 " />
<path id= "58" d=" M 10.78 -9 L 10.38 -8.6 " />
<path id= "59" d=" M 10.38 -7.94 L 10.38 -8.6 " />
<path id= "60" d=" M 3.87 -7.94 L 4.26 -7.94 " />
<path id= "61" d=" M 4.26 -7.94 L 4.96 -7.94 " />
<path id= "62" d=" M 5.36 -7.94 L 4.96 -7.94 " />
<path id= "63" d=" M 6.01 -7.94 L 5.37 -7.94 " />
<path id= "64" d=" M 6.01 -7.94 L 6.41 -7.94 " />
<path id= "65" d=" M 6.41 -7.94 L 7.15 -7.94 " />
<path id= "66" d=" M 7.55 -7.94 L 7.15 -7.94 " />
<path id= "67" d=" M 8.19 -7.94 L 7.55 -7.94 " />
<path id= "68" d=" M 8.19 -7.94 L 8.59 -7.94 " />
<path id= "69" d=" M 8.59 -7.94 L 9.33 -7.94 " />
<path id= "70" d=" M 9.73 -7.94 L 9.33 -7.94 " />
<path id= "71" d=" M 10.37 -7.94 L 9.73 -7.94 " />
<path id= "72" d=" M 10.38 -7.94 L 10.78 -7.94 " />
<path id= "73" d=" M 10.78 -7.94 L 11.48 -7.94 " />
<path id= "74" d=" M 11.87 -7.94 L 11.48 -7.94 " />
<path id= "75" d=" M 3.87 -7.94 L 11.87 -7.94 " />
<path id= "76" d=" M 9.33 -8.9 L 9.73 -8.5 " />
<path id= "77" d=" M 9.33 -8.9 L 8.59 -8.9 " />
<path id= "78" d=" M 8.59 -8.9 L 8.19 -8.5 " />
<path id= "79" d=" M 7.15 -8.9 L 6.41 -8.9 " />
<path id= "80" d=" M 6.41 -8.9 L 6.01 -8.5 " />
<path id= "81" d=" M 5.36 -7.94 L 5.36 -8.5 " />
<path id= "82" d=" M 4.96 -8.9 L 5.36 -8.5 " />
<path id= "83" d=" M 4.96 -8.9 L 4.26 -8.9 " />
<path id= "84" d=" M 4.26 -8.9 L 3.86 -8.5 " />
<path id= "85" d=" M 3.86 -7.7 L 3.86 -8.5 " />
<path id= "86" d=" M 3.25 -7.7 L 12.75 -7.7 " />
<path id= "87" d=" M 11.95 -7.7 L 11.88 -7.7 " />
<path id= "88" d=" M 3.86 -7.7 L 3.87 -7.7 " />
<path id= "89" d=" M 3.87 -7.7 L 4.05 -7.7 " />
<path id= "90" d=" M 11.87 -7.7 L 4.05 -7.7 " />
<path d="M7.55,-8.9 L7.55,-8.89787  L7.55,-8.8915  L7.55,-8.88091  L7.55,-8.8661  L7.55,-8.84713  L7.55,-8.82405  L7.55,-8.7969  L7.55,-8.76575  L7.55,-8.73069  L7.55,-8.6918  L7.55,-8.64918  L7.55,-8.60292  L7.55,-8.55316  L7.55,-8.5 " /><path id= "92" d=" M 7.15 -8.9 L 7.15 -8.5 " />
<path id= "93" d=" M 7.55 -8.5 L 7.15 -8.5 " />
<path id= "94" d=" M 7.55 -7.94 L 7.55 -8.5 " />
<path d="M7.55,-8.5 L7.55,-8.46655  L7.55,-8.43196  L7.55,-8.39626  L7.55,-8.35948  L7.55,-8.32166  L7.55,-8.28282  L7.55,-8.243  L7.55,-8.20225  L7.55,-8.16058  L7.55,-8.11805  L7.55,-8.07469  L7.55,-8.03053  L7.55,-7.98562  L7.55,-7.94 " /><path id= "96" d=" M 11.88 -8.6 L 11.48 -8.6 " />
<path id= "97" d=" M 11.48 -7.94 L 11.48 -8.6 " />
<path id= "98" d=" M 7 -5.7 L 7 2.3 " />
<path id= "99" d=" M 6 2.3 L 6 1.3 " />
<path id= "100" d=" M 11.48 -9 L 11.48 -8.6 " />
<path id= "101" d=" M 10.78 -9 L 10.78 -8.6 " />
<path id= "102" d=" M 11.48 -8.6 L 10.78 -8.6 " />
<path id= "103" d=" M 10.38 -8.6 L 10.78 -8.6 " />
<path id= "104" d=" M 10.78 -7.94 L 10.78 -8.6 " />
<path id= "105" d=" M 3.87 -7.7 L 3.87 -7.94 " />
<path id= "106" d=" M 3.87 -7.94 L 3.87 -7.7 " />
<path id= "107" d=" M 11.87 -7.7 L 11.87 -7.94 " />
<path d="M10.37,-8.9 L10.37,-8.89456  L10.37,-8.87829  L10.37,-8.85128  L10.37,-8.81371  L10.37,-8.76581  L10.37,-8.70789  L10.37,-8.64032  L10.37,-8.56352  L10.37,-8.47799  L10.37,-8.38426  L10.37,-8.28293  L10.37,-8.17465  L10.37,-8.06009  L10.37,-7.94 " /><path id= "109" d=" M 10.37 -8.9 L 9.73 -8.9 " />
<path d="M9.73,-8.5 L9.73,-8.46655  L9.73,-8.43196  L9.73,-8.39626  L9.73,-8.35948  L9.73,-8.32166  L9.73,-8.28282  L9.73,-8.243  L9.73,-8.20225  L9.73,-8.16058  L9.73,-8.11805  L9.73,-8.07469  L9.73,-8.03053  L9.73,-7.98562  L9.73,-7.94 " /><path d="M9.73,-8.9 L9.73,-8.89787  L9.73,-8.8915  L9.73,-8.88091  L9.73,-8.8661  L9.73,-8.84713  L9.73,-8.82405  L9.73,-8.7969  L9.73,-8.76575  L9.73,-8.73069  L9.73,-8.6918  L9.73,-8.64918  L9.73,-8.60292  L9.73,-8.55316  L9.73,-8.5 " /><path id= "112" d=" M 9.73 -7.94 L 9.73 -8.5 " />
<path id= "113" d=" M 9.73 -8.5 L 9.33 -8.5 " />
<path id= "114" d=" M 9.33 -7.94 L 9.33 -8.5 " />
<path id= "115" d=" M 8.59 -7.94 L 8.59 -8.5 " />
<path id= "116" d=" M 9.33 -8.5 L 8.59 -8.5 " />
<path id= "117" d=" M 8.19 -7.94 L 8.19 -8.5 " />
<path id= "118" d=" M 8.19 -8.5 L 8.59 -8.5 " />
<path id= "119" d=" M 8.19 -8.9 L 7.55 -8.9 " />
<path d="M8.19,-8.9 L8.19,-8.89787  L8.19,-8.8915  L8.19,-8.88091  L8.19,-8.8661  L8.19,-8.84713  L8.19,-8.82405  L8.19,-8.7969  L8.19,-8.76575  L8.19,-8.73069  L8.19,-8.6918  L8.19,-8.64918  L8.19,-8.60292  L8.19,-8.55316  L8.19,-8.5 " /><path id= "121" d=" M 7.15 -7.94 L 7.15 -8.5 " />
<path id= "122" d=" M 6.41 -7.94 L 6.41 -8.5 " />
<path id= "123" d=" M 7.15 -8.5 L 6.41 -8.5 " />
<path id= "124" d=" M 6.01 -7.94 L 6.01 -8.5 " />
<path id= "125" d=" M 6.01 -8.5 L 6.41 -8.5 " />
<path d="M6.01,-8.5 L6.01,-8.46655  L6.01,-8.43196  L6.01,-8.39626  L6.01,-8.35948  L6.01,-8.32166  L6.01,-8.28282  L6.01,-8.243  L6.01,-8.20225  L6.01,-8.16058  L6.01,-8.11805  L6.01,-8.07469  L6.01,-8.03053  L6.01,-7.98562  L6.01,-7.94 " /><path id= "127" d=" M 6.01 -8.9 L 5.37 -8.9 " />
<path d="M6.01,-8.9 L6.01,-8.89787  L6.01,-8.8915  L6.01,-8.88091  L6.01,-8.8661  L6.01,-8.84713  L6.01,-8.82405  L6.01,-8.7969  L6.01,-8.76575  L6.01,-8.73069  L6.01,-8.6918  L6.01,-8.64918  L6.01,-8.60292  L6.01,-8.55316  L6.01,-8.5 " /><path d="M5.37,-8.9 L5.37,-8.89456  L5.37,-8.87829  L5.37,-8.85128  L5.37,-8.81371  L5.37,-8.76581  L5.37,-8.70789  L5.37,-8.64032  L5.37,-8.56352  L5.37,-8.47799  L5.37,-8.38426  L5.37,-8.28293  L5.37,-8.17465  L5.37,-8.06009  L5.37,-7.94 " /><path id= "130" d=" M 5.36 -8.5 L 4.96 -8.5 " />
<path id= "131" d=" M 4.96 -7.94 L 4.96 -8.5 " />
<path id= "132" d=" M 4.26 -7.94 L 4.26 -8.5 " />
<path id= "133" d=" M 4.96 -8.5 L 4.26 -8.5 " />
<path id= "134" d=" M 3.86 -8.5 L 4.26 -8.5 " />
<path id= "135" d=" M 9.33 -8.9 L 9.33 -8.5 " />
<path id= "136" d=" M 8.59 -8.9 L 8.59 -8.5 " />
<path id= "137" d=" M 6.41 -8.9 L 6.41 -8.5 " />
<path id= "138" d=" M 4.96 -8.9 L 4.96 -8.5 " />
<path id= "139" d=" M 4.26 -8.9 L 4.26 -8.5 " />
<path id= "140" d=" M 12.75 3.3 L 12.75 -7.7 " />
<path id= "141" d=" M 12.75 3.3 L 11.5 3.3 " />
<path id= "142" d=" M 9 -0.2 L 10.5 -0.2 " />
<path id= "143" d=" M 9 -5.7 L 9 -0.2 " />
<path id= "144" d=" M 7 -5.7 L 9 -5.7 " />
<path id= "145" d=" M 7 -5.7 L 7 -0.2 " />
<path id= "146" d=" M 5.5 -0.2 L 7 -0.2 " />
<path id= "147" d=" M 4.5 3.3 L 3.25 3.3 " />
<path id= "148" d=" M 3.25 3.3 L 3.25 -7.7 " />
<path id= "149" d=" M 12.05 3.3 L 11.5 3.3 " />
<path id= "150" d=" M 11.5 3.3 L 4.5 3.3 " />
<path id= "151" d=" M 11.5 3.3 L 11.5 -0.2 " />
<path id= "152" d=" M 11.5 -0.2 L 10.5 -0.2 " />
<path id= "153" d=" M 5.5 -0.2 L 4.5 -0.2 " />
<path id= "154" d=" M 4.5 3.3 L 4.5 -0.2 " />
<path id= "155" d=" M 10.37 -0.2 L 10.37 1.3 " />
<path id= "156" d=" M 9.73 -0.2 L 9.73 1.3 " />
<path id= "157" d=" M 10.37 1.3 L 9.73 1.3 " />
<path id= "158" d=" M 8.19 -5.7 L 8.19 1.3 " />
<path id= "159" d=" M 7.55 -5.7 L 7.55 1.3 " />
<path id= "160" d=" M 8.19 1.3 L 7.55 1.3 " />
<path id= "161" d=" M 6.01 -0.2 L 6.01 1.3 " />
<path id= "162" d=" M 6.01 1.3 L 5.5 1.3 " />
<path id= "163" d=" M 10.5 1.8 L 10.5 -0.2 " />
<path d="M10.5 1.8 A0.5 0.5 0 0 1 10 2.3" /><path id= "165" d=" M 10 2.3 L 6 2.3 " />
<path d="M6 2.3 A0.5 0.5 0 0 1 5.5 1.8" /><path id= "167" d=" M 5.5 1.8 L 5.5 -0.2 " />
<path id= "168" d=" M 16.5 -25.15 L 17.2 -25.15 " />
<path id= "169" d=" M 16.5 -26.15 L 17.2 -26.15 " />
<path d="M17.2 -25.15 A0.3 0.3 0 0 0 17.5 -25.45" /><path id= "171" d=" M 17.5 -25.45 L 17.5 -25.85 " />
<path d="M17.2 -26.15 A0.3 0.3 0 0 1 17.5 -25.85" /><path id= "173" d=" M 12.5 -20.8 L 12.5 -25.15 " />
<path id= "174" d=" M 12.5 -29.35 L 12.5 -29.5519 " />
<path d="M12.5 -25.15 A0.4 0.4 0 0 0 12.1 -25.55" /><path id= "176" d=" M 12.5 -20.8 L 16.5 -20.8 " />
<path d="M12.5 -29.35 A0.4 0.4 0 0 1 12.1 -28.95" /><path id= "178" d=" M 12.1 -26.5 L 12.1 -28 " />
<path id= "179" d=" M 12.1 -26.5 L 12.0497 -26.5 " />
<path id= "180" d=" M 12.1 -28 L 12.0497 -28 " />
<path d="M12.5 -25.15 A0.4 0.4 0 0 0 12.1 -25.55" /><path id= "182" d=" M 11.8 -25.55 L 12.1 -25.55 " />
<path id= "183" d=" M 10.547 -28.95 L 12.1 -28.95 " />
<path d="M12.5 -29.35 A0.4 0.4 0 0 1 12.1 -28.95" /><path id= "185" d=" M 12.5503 -33.7 L 16.5 -33.7 " />
<path id= "186" d=" M 16.5 -20.8 L 16.5 -33.7 " />
<path id= "187" d=" M 12.1 -26.5 L 12.1 -28 " />
<path id= "188" d=" M 12.1 -28 L 11.1 -28 " />
<path id= "189" d=" M 11.1 -26.5 L 11.1 -28 " />
<path id= "190" d=" M 12.1 -26.5 L 11.1 -26.5 " />
<path id= "191" d=" M 16.3 -21.8 L 16.3 -22.3 " />
<path id= "192" d=" M 16.3 -22.3 L 15.8 -22.3 " />
<path id= "193" d=" M 15.8 -21.8 L 15.8 -22.3 " />
<path id= "194" d=" M 16.3 -21.8 L 15.8 -21.8 " />
<path id= "195" d=" M 16.3 -21.8 L 16.3 -22.0411 " />
<path id= "196" d=" M 16.3 -22.237 L 16.3 -22.3 " />
<path id= "197" d=" M 15.8 -21.8 L 15.8 -22.0189 " />
<path id= "198" d=" M 15.8 -22.2073 L 15.8 -22.3 " />
<path id= "199" d=" M 16.3 -22.3 L 15.8 -22.3 " />
<path id= "200" d=" M 15.8 -22.0189 L 16.1465 -22.0189 " />
<path id= "201" d=" M 15.8 -22.2073 L 16.0794 -22.2073 " />
<path d="M16.1465 -22.0189 A0.772059 0.772059 0 0 0 16.3 -22.0411" /><path d="M16.5 -22.122 A0.772059 0.772059 0 0 0 16.8511 -22.5628" /><path d="M16.0794 -22.2073 A0.583917 0.583917 0 0 0 16.3 -22.237" /><path d="M16.5 -22.3527 A0.583917 0.583917 0 0 0 16.6511 -22.5628" /><path id= "206" d=" M 16.8511 -22.5628 L 21.4975 -35.6121 " />
<path id= "207" d=" M 17.2002 -23.5434 L 19.6611 -30.4546 " />
<path id= "208" d=" M 16.8511 -22.5628 L 16.9415 -22.8168 " />
<path d="M17.0002,-23.5434 L16.9762,-23.4758  L16.9523,-23.4087  L16.9288,-23.3427  L16.9058,-23.2782  L16.8836,-23.2158  L16.8623,-23.1559  L16.842,-23.0989  L16.8229,-23.0454  L16.8052,-22.9957  L16.789,-22.9502  L16.7745,-22.9093  L16.7616,-22.8732  L16.7506,-22.8423  L16.7415,-22.8168 " /><path id= "210" d=" M 19.4611 -30.4546 L 17.0002 -23.5434 " />
<path d="M19.4611,-30.4546 L19.4919,-30.541  L19.5222,-30.6263  L19.5518,-30.7094  L19.5803,-30.7894  L19.6072,-30.8651  L19.6324,-30.9356  L19.6553,-31.0001  L19.6759,-31.0578  L19.6937,-31.1078  L19.7086,-31.1497  L19.7204,-31.1828  L19.7289,-31.2067  L19.7341,-31.2212  L19.7358,-31.2261 " /><path d="M19.7358,-31.2261 L19.7341,-31.2212  L19.7289,-31.2067  L19.7204,-31.1828  L19.7086,-31.1497  L19.6937,-31.1078  L19.6759,-31.0578  L19.6553,-31.0001  L19.6324,-30.9356  L19.6072,-30.8651  L19.5803,-30.7894  L19.5518,-30.7094  L19.5222,-30.6263  L19.4919,-30.541  L19.4611,-30.4546 " /><path id= "213" d=" M 16.6511 -22.5628 L 21.2975 -35.6121 " />
<path id= "214" d=" M 21.2975 -35.6121 L 21.4975 -35.6121 " />
<path id= "215" d=" M 16.0794 -22.2073 L 15.8 -22.2073 " />
<path id= "216" d=" M 15.8 -22.0189 L 16.1465 -22.0189 " />
</g>
</g>



<g id="Ortho_1_0"
   transform="rotate(-90,262.798,162.198) translate(262.798,162.198) scale(1,1)"
  >
<g   stroke="rgb(0, 0, 0)"
   stroke-width="0.35"
   stroke-linecap="butt"
   stroke-linejoin="miter"
   fill="none"
   transform="scale(1,-1)"
  >
<path id= "1" d=" M 0 0 L 3.66374e-15 16.5 " />
<path id= "2" d=" M 0 0 L -1.6 3.55271e-16 " />
<path id= "3" d=" M -1.6 3.55271e-16 L -1.6 16.5 " />
<path id= "4" d=" M 3.66374e-15 16.5 L -1.6 16.5 " />
<path d="M2.9976e-15,15.5 L2.9976e-15,15.4499  L2.9976e-15,15.3019  L2.9976e-15,15.0637  L2.9976e-15,14.747  L2.9976e-15,14.3678  L2.9976e-15,13.945  L2.9976e-15,13.5  L2.9976e-15,13.055  L2.9976e-15,12.6322  L2.9976e-15,12.253  L2.9976e-15,11.9363  L2.9976e-15,11.6981  L2.9976e-15,11.5501  L2.9976e-15,11.5 " /><path id= "6" d=" M 0.2 6.8 L 1.33227e-15 6.8 " />
<path id= "7" d=" M -1.6 6.8 L -2.4 6.8 " />
<path id= "8" d=" M -1.8 6 L -2.4 6 " />
<path id= "9" d=" M -2.4 6 L -2.4 6.8 " />
<path id= "10" d=" M -2.4 6.8 L -3 6.7 " />
<path id= "11" d=" M -2.4 6 L -3 6.1 " />
<path id= "12" d=" M -3 6.1 L -3 6.7 " />
<path id= "13" d=" M -1.8 6 L -2.4 6 " />
<path id= "14" d=" M 5.9 9.59549 L 5.9 9.39549 " />
<path d="M5.9,12.5503 L5.9,12.55  L5.9,12.5491  L5.9,12.5477  L5.9,12.5458  L5.9,12.5432  L5.9,12.5401  L5.9,12.5365  L5.9,12.5323  L5.9,12.5275  L5.9,12.5222  L5.9,12.5163  L5.9,12.5099  L5.9,12.503  L5.9,12.4955 " /><path id= "16" d=" M 5.9 12.4955 L 5.9 11.5 " />
<path id= "17" d=" M 5.9 10.7 L 5.9 9.59549 " />
<path d="M5.9,11.8503 L5.9,11.8484  L5.9,11.8427  L5.9,11.8332  L5.9,11.82  L5.9,11.8031  L5.9,11.7826  L5.9,11.7585  L5.9,11.731  L5.9,11.7001  L5.9,11.666  L5.9,11.6288  L5.9,11.5886  L5.9,11.5456  L5.9,11.5 " /><path d="M5.9,10.7 L5.9,10.6007  L5.9,10.5039  L5.9,10.4107  L5.9,10.322  L5.9,10.2388  L5.9,10.1618  L5.9,10.0919  L5.9,10.0298  L5.9,9.97613  L5.9,9.93145  L5.9,9.89621  L5.9,9.87078  L5.9,9.85541  L5.9,9.85027 " /><path d="M5.9,10.547 L5.9,10.4624  L5.9,10.381  L5.9,10.3034  L5.9,10.2302  L5.9,10.162  L5.9,10.0995  L5.9,10.043  L5.9,9.99316  L5.9,9.95025  L5.9,9.91465  L5.9,9.88666  L5.9,9.8665  L5.9,9.85434  L5.9,9.85027 " /><path id= "21" d=" M 5.85 12.5503 L 5.9 12.5503 " />
<path id= "22" d=" M 5.2 9.59549 L 5.9 9.59549 " />
<path id= "23" d=" M 5.2 9.39549 L 5.9 9.39549 " />
<path id= "24" d=" M 5.2 9.59549 L 5.9 9.59549 " />
<path id= "25" d=" M 5.2 12.4955 L 5.9 12.4955 " />
<path id= "26" d=" M -1.8 6 L -2.4 6 " />
<path id= "27" d=" M -1.8 7.55 L -1.6 7.55 " />
<path id= "28" d=" M 1.77636e-15 7.55 L 0.2 7.55 " />
<path id= "29" d=" M -1.8 7.55 L -1.8 8.19 " />
<path id= "30" d=" M -1.8 8.19 L -1.6 8.19 " />
<path id= "31" d=" M 1.77636e-15 8.19 L 0.2 8.19 " />
<path id= "32" d=" M 1 11.88 L 3.9 11.88 " />
<path id= "33" d=" M 3.9 11.88 L 3.91 11.87 " />
<path id= "34" d=" M 1 11.95 L 1 7 " />
<path id= "35" d=" M 1 6 L 1 7 " />
<path id= "36" d=" M 1 6 L 1 4.05 " />
<path id= "37" d=" M 1 7 L 1 6 " />
<path id= "38" d=" M 1 11.87 L 4.4 11.87 " />
<path id= "39" d=" M -1.8 10.37 L -1.6 10.37 " />
<path id= "40" d=" M 2.22045e-15 10.37 L 0.2 10.37 " />
<path id= "41" d=" M -1.8 5.37 L -1.6 5.37 " />
<path id= "42" d=" M 1.11022e-15 5.37 L 0.2 5.37 " />
<path id= "43" d=" M 0.2 12.75 L 5.2 12.75 " />
<path id= "44" d=" M 5.2 12.75 L 5.2 11.5 " />
<path id= "45" d=" M 5.2 9 L 5.2 10.7 " />
<path id= "46" d=" M 5.2 7 L 5.2 9 " />
<path id= "47" d=" M 5.2 5.3 L 5.2 7 " />
<path id= "48" d=" M 5.2 4.5 L 5.2 3.25 " />
<path id= "49" d=" M 0.2 6 L 0.2 7 " />
<path id= "50" d=" M 0.2 7 L 0.2 12.75 " />
<path id= "51" d=" M 0.2 3.25 L 0.2 6 " />
<path id= "52" d=" M 5.2 3.25 L 0.2 3.25 " />
<path id= "53" d=" M 4.4 11.95 L 1 11.95 " />
<path id= "54" d=" M 4.4 10.7 L 4.4 11.95 " />
<path id= "55" d=" M 4.4 4.05 L 4.4 9 " />
<path id= "56" d=" M 4.4 10.7 L 4.4 11.87 " />
<path id= "57" d=" M 4.4 4.05 L 4.4 5.3 " />
<path id= "58" d=" M 4.4 7 L 4.4 5.3 " />
<path id= "59" d=" M 4.4 7 L 4.4 9 " />
<path id= "60" d=" M 4.4 10.7 L 4.4 9 " />
<path id= "61" d=" M 3 9.73 L 3 10.37 " />
<path id= "62" d=" M 3.4 9.73 L 3 9.73 " />
<path id= "63" d=" M 3 7.55 L 3 8.19 " />
<path id= "64" d=" M 3.4 7.55 L 3 7.55 " />
<path id= "65" d=" M 3 5.37 L 3 6.01 " />
<path id= "66" d=" M 3.4 5.37 L 3 5.37 " />
<path id= "67" d=" M 1 4.05 L 4.4 4.05 " />
<path id= "68" d=" M 1 6 L 0.9 6 " />
<path id= "69" d=" M 0.9 6 L 0.9 3.95 " />
<path id= "70" d=" M 0.9 3.95 L 1 4.05 " />
<path id= "71" d=" M 0.9 6 L 0.2 6 " />
<path id= "72" d=" M 0.2 7 L 0.9 7 " />
<path id= "73" d=" M 0.9 7 L 0.2 7 " />
<path id= "74" d=" M 1 7 L 0.9 7 " />
<path id= "75" d=" M 0.9 12.05 L 1 11.95 " />
<path id= "76" d=" M 0.9 12.05 L 0.9 7 " />
<path id= "77" d=" M -1.8 9.73 L -1.6 9.73 " />
<path id= "78" d=" M 2.22045e-15 9.73 L 0.2 9.73 " />
<path id= "79" d=" M -1.8 9.73 L -1.8 10.37 " />
<path id= "80" d=" M -1.8 5.37 L -1.8 6.01 " />
<path id= "81" d=" M -1.8 6.01 L -1.6 6.01 " />
<path id= "82" d=" M 1.33227e-15 6.01 L 0.2 6.01 " />
<path id= "83" d=" M 0.9 3.95 L 4.5 3.95 " />
<path id= "84" d=" M 6.7 4.5 L 5.2 4.5 " />
<path id= "85" d=" M 6.7 11.5 L 6.7 4.5 " />
<path id= "86" d=" M 5.2 11.5 L 6.7 11.5 " />
<path id= "87" d=" M 4.5 12.05 L 0.9 12.05 " />
<path id= "88" d=" M 4.5 10.8 L 4.5 12.05 " />
<path id= "89" d=" M 6 10.8 L 4.5 10.8 " />
<path id= "90" d=" M 6 5.2 L 6 10.8 " />
<path id= "91" d=" M 4.5 5.2 L 6 5.2 " />
<path id= "92" d=" M 4.5 3.95 L 4.5 5.2 " />
<path id= "93" d=" M 5.2 10.7 L 4.4 10.7 " />
<path id= "94" d=" M 4.4 9 L 5.2 9 " />
<path id= "95" d=" M 4.4 9 L 5.2 9 " />
<path id= "96" d=" M 4.4 7 L 5.2 7 " />
<path id= "97" d=" M 4.5 12.05 L 4.4 11.95 " />
<path id= "98" d=" M 4.5 10.8 L 4.4 10.7 " />
<path id= "99" d=" M 5.9 10.7 L 4.4 10.7 " />
<path id= "100" d=" M 4.4 5.3 L 5.9 5.3 " />
<path id= "101" d=" M 4.5 3.95 L 4.4 4.05 " />
<path id= "102" d=" M 4.5 5.2 L 4.4 5.3 " />
<path id= "103" d=" M 3.4 10.37 L 3.4 9.73 " />
<path id= "104" d=" M 3 10.37 L 3.4 10.37 " />
<path id= "105" d=" M 3.4 9.73 L 3 9.73 " />
<path id= "106" d=" M 3 9.73 L 3 10.37 " />
<path id= "107" d=" M 3 8.19 L 3.4 8.19 " />
<path id= "108" d=" M 3 7.55 L 3 8.19 " />
<path id= "109" d=" M 3.4 8.19 L 3.4 7.55 " />
<path id= "110" d=" M 3.4 7.55 L 3 7.55 " />
<path id= "111" d=" M 3 6.01 L 3.4 6.01 " />
<path id= "112" d=" M 3 5.37 L 3 6.01 " />
<path id= "113" d=" M 3.4 6.01 L 3.4 5.37 " />
<path id= "114" d=" M 3.4 5.37 L 3 5.37 " />
<path id= "115" d=" M 6 5.2 L 5.9 5.3 " />
<path id= "116" d=" M 6 10.8 L 5.9 10.7 " />
<path id= "117" d=" M 5.9 5.3 L 5.9 10.7 " />
<path d="M6.7,10.5 L6.7,10.4969  L6.7,10.4875  L6.7,10.4719  L6.7,10.4505  L6.7,10.4234  L6.7,10.3909  L6.7,10.3536  L6.7,10.3117  L6.7,10.266  L6.7,10.2169  L6.7,10.1651  L6.7,10.1113  L6.7,10.056  L6.7,10 " /><path d="M5.9,6 L5.9,5.94402  L5.9,5.88874  L5.9,5.83486  L5.9,5.78306  L5.9,5.73398  L5.9,5.68826  L5.9,5.64645  L5.9,5.60908  L5.9,5.57664  L5.9,5.54952  L5.9,5.52806  L5.9,5.51254  L5.9,5.50314  L5.9,5.5 " /><path d="M5.9,10.5 L5.9,10.4969  L5.9,10.4875  L5.9,10.4719  L5.9,10.4505  L5.9,10.4234  L5.9,10.3909  L5.9,10.3536  L5.9,10.3117  L5.9,10.266  L5.9,10.2169  L5.9,10.1651  L5.9,10.1113  L5.9,10.056  L5.9,10 " /><path id= "121" d=" M 3.77146 17.5 L 2.22854 17.5 " />
<path id= "122" d=" M 5.85 12.5 L 5.2 12.5 " />
<path id= "123" d=" M 0.2 12.5 L 0.15 12.5 " />
<path id= "124" d=" M 5.85 12.5 L 5.35 12.5 " />
<path id= "125" d=" M 0.2 12.5 L 0.15 12.5 " />
<path id= "126" d=" M 0.15 12.5 L 0.15 16.5 " />
<path id= "127" d=" M 0.15 10.5 L 0.15 12.1 " />
<path d="M0.15,12.5 L0.15,12.4975  L0.15,12.49  L0.15,12.4776  L0.15,12.4604  L0.15,12.4387  L0.15,12.4127  L0.15,12.3828  L0.15,12.3494  L0.15,12.3128  L0.15,12.2736  L0.15,12.2321  L0.15,12.189  L0.15,12.1448  L0.15,12.1 " /><path id= "129" d=" M 5.85 12.5 L 5.85 16.5 " />
<path id= "130" d=" M 5.85 16.5 L 0.15 16.5 " />
<path d="M5.85,12.5 L5.85,12.5  L5.85,12.4999  L5.85,12.4998  L5.85,12.4996  L5.85,12.4994  L5.85,12.4992  L5.85,12.4989  L5.85,12.4985  L5.85,12.4981  L5.85,12.4977  L5.85,12.4972  L5.85,12.4967  L5.85,12.4961  L5.85,12.4955 " /><path d="M5.35,12.5 L5.35,12.5  L5.35,12.4999  L5.35,12.4998  L5.35,12.4996  L5.35,12.4994  L5.35,12.4992  L5.35,12.4989  L5.35,12.4985  L5.35,12.4981  L5.35,12.4977  L5.35,12.4972  L5.35,12.4967  L5.35,12.4961  L5.35,12.4955 " /><path id= "133" d=" M 0.2 10.5 L 0.15 10.5 " />
<path d="M5,16.5 L5,16.5351  L5,16.569  L5,16.6016  L5,16.6328  L5,16.6625  L5,16.6907  L5,16.7172  L5,16.742  L5,16.765  L5,16.7861  L5,16.8054  L5,16.8226  L5,16.8379  L5,16.8511 " /><path id= "135" d=" M 5 16.8511 L 3.32632 16.8511 " />
<path d="M3.32632,16.5 L3.32632,16.5351  L3.32632,16.569  L3.32632,16.6016  L3.32632,16.6328  L3.32632,16.6625  L3.32632,16.6907  L3.32632,16.7172  L3.32632,16.742  L3.32632,16.765  L3.32632,16.7861  L3.32632,16.8054  L3.32632,16.8226  L3.32632,16.8379  L3.32632,16.8511 " /><path id= "137" d=" M 3.32632 16.7513 L 3.32632 16.8511 " />
<path id= "138" d=" M 3.32632 16.9513 L 3.32632 16.8511 " />
<path id= "139" d=" M 5 16.8511 L 5 21.4975 " />
<path d="M3.77146,17.2002 L3.76893,17.178  L3.76136,17.1559  L3.74879,17.1341  L3.73132,17.1128  L3.70904,17.092  L3.68212,17.0719  L3.65073,17.0527  L3.61506,17.0344  L3.57537,17.0172  L3.5319,17.0013  L3.48494,16.9866  L3.4348,16.9733  L3.38181,16.9615  L3.32632,16.9513 " /><path id= "141" d=" M 3.77146 17.2002 L 3.77146 19.6611 " />
<path d="M2.22854,19.6611 L2.24788,19.7222  L2.30494,19.7803  L2.39685,19.8324  L2.519,19.8759  L2.66528,19.9086  L2.82833,19.9289  L3,19.9358  L3.17167,19.9289  L3.33472,19.9086  L3.481,19.8759  L3.60315,19.8324  L3.69506,19.7803  L3.75212,19.7222  L3.77146,19.6611 " /><path id= "143" d=" M 2.22854 17.2002 L 2.22854 19.6611 " />
<path d="M2.74062,16.9415 L2.67797,16.9506  L2.6178,16.9616  L2.56057,16.9745  L2.50672,16.989  L2.45666,17.0052  L2.41078,17.0229  L2.36942,17.042  L2.33292,17.0623  L2.30154,17.0836  L2.27553,17.1058  L2.25509,17.1288  L2.24038,17.1523  L2.23151,17.1762  L2.22854,17.2002 " /><path id= "145" d=" M 2.74062 16.8511 L 2.74062 16.9415 " />
<path id= "146" d=" M 2.74062 16.8511 L 1 16.8511 " />
<path id= "147" d=" M 1 16.8511 L 1 21.4975 " />
<path id= "148" d=" M 5 21.4975 L 1 21.4975 " />
<path d="M3.77146,19.4611 L3.75212,19.5222  L3.69506,19.5803  L3.60315,19.6324  L3.481,19.6759  L3.33472,19.7086  L3.17167,19.7289  L3,19.7358  L2.82833,19.7289  L2.66528,19.7086  L2.519,19.6759  L2.39685,19.6324  L2.30494,19.5803  L2.24788,19.5222  L2.22854,19.4611 " /><path d="M2.74062,16.5 L2.74062,16.5351  L2.74062,16.569  L2.74062,16.6016  L2.74062,16.6328  L2.74062,16.6625  L2.74062,16.6907  L2.74062,16.7172  L2.74062,16.742  L2.74062,16.765  L2.74062,16.7861  L2.74062,16.8054  L2.74062,16.8226  L2.74062,16.8379  L2.74062,16.8511 " /><path d="M1,16.5 L1,16.5351  L1,16.569  L1,16.6016  L1,16.6328  L1,16.6625  L1,16.6907  L1,16.7172  L1,16.742  L1,16.765  L1,16.7861  L1,16.8054  L1,16.8226  L1,16.8379  L1,16.8511 " /></g>
</g>



</svg>

