<?xml version="1.0" encoding="UTF-8"?>

<svg xmlns="http://www.w3.org/2000/svg" version="1.1"
	width="297mm"
	height="210mm"
	viewBox="0 0 297 210">
	<!-- Working space 0 0 297 210 -->
	<defs>
		<radialGradient
			id="radialGradient3661"
			gradientUnits="userSpaceOnUse"
			cy="29.149"
			cx="282.65"
			gradientTransform="matrix(.14777 .23089 -.24680 .15795 -26.318 -62.617)"
			r="19.571">
				<stop stop-color="#71b2f8" offset="0"/>
				<stop stop-color="#002795" offset="1"/>
		</radialGradient>
		<radialGradient
			id="radialGradient3817"
			gradientUnits="userSpaceOnUse"
			cy="33.9"
			cx="270.58"
			gradientTransform="matrix(.26631 .065024 -.17931 .73438 -60.668 -36.938)"
			r="19.571">
				<stop stop-color="#ff6d0f" offset="0"/>
				<stop stop-color="#ff1000" offset="1"/>
		</radialGradient>
	</defs>
	<!-- Set display:none to hide FreeCAD Logo -->
	<g
		style="display:inline"
		id="freecad-logo"
		transform="translate(271, 185) scale(1)"
		fill-rule="evenodd"
		stroke-width=".45621">
		<path d="m0.22811 0.22835v13.256h2.9558v-5.1876h2.09v-2.0452h-2.09v-2.2075h5.1486v-3.8087l-8.1044-0.0075z"
			stroke="#370700"
			fill="url(#radialGradient3817)"/>
		<path d="m13.386 4.1792-1.7193 0.98645-0.75925-0.26348-0.72439-1.8513-1.1395 0.05988-0.51976 1.9144-0.72743 0.34835-1.8143-0.79367-0.76632 0.85156 0.98645 1.7193-0.26957 0.75702-1.8513 0.72439 0.065967 1.1417 1.9144 0.51976 0.34835 0.72743-0.79976 1.8121 0.85156 0.76632 1.7193-0.98645 0.76311 0.27179 0.7183 1.8491 1.1478-0.06375 0.51367-1.9166 0.72743-0.34835 1.8182 0.80198 0.76632-0.85156-0.98645-1.7193 0.2657-0.76533 1.8491-0.7183-0.05766-1.1456-1.9166-0.51367-0.34835-0.72743 0.7959-1.8204-0.85156-0.76632zm-2.5751 2.8195 0.35295 0.20478 0.30579 0.27725 0.24481 0.33087 0.17611 0.36787 0.10354 0.39656 0.01715 0.4064-0.0587 0.4063-0.13396 0.38571-0.2131 0.35681-0.26894 0.30192-0.33087 0.24481-0.36787 0.17611-0.39656 0.10354-0.40863 0.02325-0.4063-0.0587-0.38571-0.13396-0.35681-0.2131-0.2997-0.27503-0.24703-0.32478-0.17611-0.36787-0.10132-0.40264-0.02324-0.40863 0.05869-0.4063 0.13396-0.38571 0.21087-0.35072 0.27116-0.30801 0.33087-0.24481 0.36787-0.17611 0.40264-0.10132 0.40641-0.01715 0.4063 0.05869 0.38571 0.13396z" 
		stroke="#000137"
		fill="url(#radialGradient3661)"/>
	</g>
<g id="View"
   transform="rotate(60,168.674,109.144) translate(168.674,109.144) scale(1,1)"
  >
<g   stroke="rgb(0, 0, 0)"
   stroke-width="0.35"
   stroke-linecap="butt"
   stroke-linejoin="miter"
   fill="none"
   transform="scale(1,-1)"
  >
<path id= "1" d=" M 2.25269 -14.0682 L 2.25269 -14.5908 " />
<path id= "2" d=" M 2.25269 -18.1507 L 2.25269 -18.6733 " />
<path id= "3" d=" M 4.52111 -16.4347 L 4.70226 -16.5393 " />
<path id= "4" d=" M 2.25269 -22.2332 L 2.25269 -22.7558 " />
<path id= "5" d=" M 10.0753 -12.2066 L 10.9467 -12.7097 " />
<path id= "6" d=" M 8.24431 -9.32006 L 9.42778 -10.0033 " />
<path id= "7" d=" M 9.84194 -10.2425 L 11.0727 -10.9531 " />
</g>
<g   stroke="rgb(0, 0, 0)"
   stroke-width="0.35"
   stroke-linecap="butt"
   stroke-linejoin="miter"
   fill="none"
   transform="scale(1,-1)"
  >
<path id= "1" d=" M 8.87419 5.12352 L 11.6673 6.7361 " />
<path id= "2" d=" M 11.6673 6.7361 L 12.7986 6.0829 " />
<path id= "3" d=" M -7.28523e-16 -3.78854 L -6.28037e-15 -32.6599 " />
<path id= "4" d=" M 11.6673 6.7361 L 11.6673 -12.3579 " />
<path id= "5" d=" M 11.6673 -14.6306 L 11.6673 -15.8969 " />
<path id= "6" d=" M 11.6673 -18.4239 L 11.6673 -25.9238 " />
<path id= "7" d=" M -6.28037e-15 -32.6599 L 11.6673 -25.9238 " />
<path d="M10.51 -9.57886 A2 1.1547 60 0 1 10.5459 -7.20859" />
<path d="M10.5459 -7.20859 A2 1.1547 60 0 1 8.51121 -8.42489" />
<path d="M9.54594 -26.0054 A2 1.1547 60 0 1 10.5459 -22.6404" />
<path d="M10.5459 -22.6404 A2 1.1547 60 0 1 8.54594 -26.1045" />
<path d="M8.54594 -26.1045 A2 1.1547 60 0 1 9.54594 -26.0054" />
<path id= "13" d=" M 11.6673 -25.9238 L 12.7986 -26.577 " />
<path id= "14" d=" M 12.7986 6.0829 L 12.7986 -15.3736 " />
<path id= "15" d=" M 12.7986 -19.0771 L 12.7986 -26.577 " />
<path id= "16" d=" M 1.13137 -33.3131 L 12.7986 -26.577 " />
<path d="M10.9362 -7.83895 A2 1.1547 60 0 1 9.64258 -9.07808" />
<path d="M10.9362 -23.2707 A2 1.1547 60 0 1 9.28701 -26.1273" />
<path id= "19" d=" M -6.28037e-15 -32.6599 L 1.13137 -33.3131 " />
<path d="M2.47169 -14.2302 A1 0.57735 180 0 1 2.25269 -14.5908" />
<path d="M2.25269 -14.5908 A1 0.57735 180 0 1 2.54558 -14.999" />
<path d="M2.47169 -13.7077 A1 0.57735 180 0 1 2.25269 -14.0682" />
<path d="M2.51042 -18.2864 A1 0.57735 180 0 1 2.25269 -18.6733" />
<path d="M2.25269 -18.6733 A1 0.57735 180 0 1 2.51042 -19.0602" />
<path d="M2.51042 -17.7638 A1 0.57735 180 0 1 2.25269 -18.1507" />
<path id= "26" d=" M 3.28595 -16.9384 L 3.28595 -14.1623 " />
<path id= "27" d=" M 4.0833 -16.478 L 3.28595 -16.9384 " />
<path id= "28" d=" M 6.68235 -23.5099 L 8.73296 -22.3259 " />
<path id= "29" d=" M 2.61311 -10.6724 L 2.61311 -12.3054 " />
<path id= "30" d=" M 2.61311 -12.3054 L 2.47169 -12.5503 " />
<path id= "31" d=" M 2.47169 -12.5503 L 2.47169 -14.5926 " />
<path id= "32" d=" M 2.47169 -14.5926 L 2.61311 -14.6743 " />
<path id= "33" d=" M 2.61311 -14.6743 L 2.61311 -17.4504 " />
<path id= "34" d=" M 2.61311 -17.4504 L 2.51042 -17.6282 " />
<path id= "35" d=" M 2.51042 -17.6282 L 2.51042 -19.9164 " />
<path id= "36" d=" M 2.51042 -19.9164 L 2.65184 -19.998 " />
<path id= "37" d=" M 2.65184 -19.998 L 2.65184 -21.1828 " />
<path id= "38" d=" M 2.65184 -21.1828 L 4.70245 -19.9989 " />
<path id= "39" d=" M 4.70245 -19.9989 L 4.70245 -16.8355 " />
<path d="M4.70245 -16.8355 A0.875611 0.505534 60 0 1 4.52111 -16.4347" />
<path d="M4.52111 -16.4347 A0.875611 0.505534 60 0 1 4.0833 -16.478" />
<path id= "42" d=" M 3.28595 -14.1623 L 4.04457 -13.7243 " />
<path d="M4.04457 -13.7243 A0.875611 0.505534 60 0 1 4.66372 -12.6519" />
<path id= "44" d=" M 4.66372 -12.6519 L 4.66372 -9.48849 " />
<path id= "45" d=" M 4.66372 -9.48849 L 2.61311 -10.6724 " />
<path d="M4.20748 -12.2433 A1 0.57735 60 0 1 4.00037 -11.7855" />
<path d="M4.00037 -11.7855 A1 0.57735 60 0 1 2.79327 -13.0598" />
<path id= "48" d=" M 2.79327 -13.0598 L 2.79327 -13.3047 " />
<path d="M2.79327 -13.3047 A1 0.57735 60 0 1 3.00037 -13.7625" />
<path d="M3.00037 -13.7625 A1 0.57735 60 0 1 4.20748 -12.4882" />
<path id= "51" d=" M 4.20748 -12.2433 L 4.20748 -12.4882 " />
<path d="M3.50037 -19.0202 A1 0.57735 60 0 1 4.00037 -17.3377" />
<path d="M4.00037 -17.3377 A1 0.57735 60 0 1 3.00037 -19.0697" />
<path d="M3.00037 -19.0697 A1 0.57735 60 0 1 3.50037 -19.0202" />
<path id= "55" d=" M 4.41942 -14.5853 L 3.75429 -14.6931 " />
<path id= "56" d=" M 6.68235 -23.5099 L 2.65184 -21.1828 " />
<path id= "57" d=" M 8.73296 -22.3259 L 4.70245 -19.9989 " />
<path id= "58" d=" M 4.70226 -9.51074 L 4.66372 -9.48849 " />
<path id= "59" d=" M 3.75429 -14.6931 L 3.75429 -15.9179 " />
<path id= "60" d=" M 4.17303 -22.0611 L 3.11127 -22.6741 " />
<path id= "61" d=" M 3.60734 -21.7345 L 2.54558 -22.3475 " />
<path d="M3.11127 -22.6741 A0.2 0.11547 180 0 1 3.05269 -22.7558" />
<path d="M3.05269 -22.7558 A0.2 0.11547 180 0 1 3.11127 -22.8374" />
<path d="M2.54558 -22.3475 A1 0.57735 180 0 1 2.25269 -22.7558" />
<path d="M2.25269 -22.7558 A1 0.57735 180 0 1 2.54558 -23.164" />
<path id= "66" d=" M 3.15479 -21.4732 L 2.54558 -21.825 " />
<path d="M2.54558 -21.825 A1 0.57735 180 0 1 2.25269 -22.2332" />
<path id= "68" d=" M 5.15481 -3.22924 L 4.5983 -2.90794 " />
<path id= "69" d=" M 7.76403 -1.06961 L 7.76403 -1.80446 " />
<path id= "70" d=" M 2.87085 -4.87448 L 2.37588 -5.16026 " />
<path id= "71" d=" M 3.01581 -4.62341 L 2.87085 -4.87448 " />
<path id= "72" d=" M 4.41942 -3.98042 L 3.89616 -4.28252 " />
<path id= "73" d=" M 4.56084 -3.73547 L 4.41942 -3.98042 " />
<path id= "74" d=" M 5.96091 -3.09044 L 5.43765 -3.39254 " />
<path id= "75" d=" M 6.10233 -2.84549 L 5.96091 -3.09044 " />
<path id= "76" d=" M 7.48119 -2.29436 L 6.98621 -2.58013 " />
<path id= "77" d=" M 7.76403 -1.80446 L 7.48119 -2.29436 " />
<path id= "78" d=" M 3.36781 -2.72008 L 2.58094 -2.26578 " />
<path id= "79" d=" M 2.2981 -2.75568 L 2.58094 -2.26578 " />
<path id= "80" d=" M 4.41942 -3.98042 L 2.2981 -2.75568 " />
<path id= "81" d=" M 7.69332 -1.02879 L 7.69332 -0.971631 " />
<path id= "82" d=" M 7.76403 -1.06961 L 7.69332 -1.02879 " />
<path id= "83" d=" M 7.76403 -1.80446 L 5.64271 -0.579713 " />
<path id= "84" d=" M 5.64271 0.212289 L 5.64271 -0.579713 " />
<path id= "85" d=" M 5.35987 -1.06961 L 5.64271 -0.579713 " />
<path id= "86" d=" M 7.48119 -2.29436 L 5.35987 -1.06961 " />
<path id= "87" d=" M 5.35987 -1.06961 L 4.86489 -1.35538 " />
<path id= "88" d=" M 6.98621 -2.58013 L 4.86489 -1.35538 " />
<path id= "89" d=" M 4.86489 -1.35538 L 4.58205 -1.19209 " />
<path id= "90" d=" M -0.0282843 -3.30681 L -0.374767 -3.10677 " />
<path id= "91" d=" M -0.0282843 -3.30681 L -0.0282843 -2.98838 " />
<path id= "92" d=" M -0.0282843 -2.98838 L 0.46669 -2.7026 " />
<path id= "93" d=" M 1.03238 -2.7026 L 0.46669 -2.7026 " />
<path id= "94" d=" M 1.51979 -2.98401 L 1.03238 -2.7026 " />
<path id= "95" d=" M 1.57287 -2.94117 L 1.5163 -2.97383 " />
<path id= "96" d=" M 1.492 -2.43724 L 1.492 -2.11064 " />
<path id= "97" d=" M 1.492 -2.11064 L 2.01525 -1.80854 " />
<path id= "98" d=" M 2.58094 -1.80854 L 2.01525 -1.80854 " />
<path id= "99" d=" M 3.05779 -2.08385 L 2.58094 -1.80854 " />
<path id= "100" d=" M 3.11436 -2.05119 L 3.05779 -2.08385 " />
<path id= "101" d=" M 3.03349 -1.22066 L 3.55675 -0.918559 " />
<path id= "102" d=" M 4.12243 -0.918559 L 3.55675 -0.918559 " />
<path id= "103" d=" M 4.58205 -1.18392 L 4.12243 -0.918559 " />
<path id= "104" d=" M 4.58205 -0.326599 L 5.07703 -0.0408248 " />
<path id= "105" d=" M 5.62857 -0.0408248 L 5.07703 -0.0408248 " />
<path id= "106" d=" M 5.62857 -0.0408248 L 5.28209 0.159217 " />
<path id= "107" d=" M -0.374767 -3.10677 L 5.28209 0.159217 " />
<path id= "108" d=" M 4.9093 -1.8301 L 4.12243 -1.3758 " />
<path id= "109" d=" M 3.83959 -1.86569 L 4.12243 -1.3758 " />
<path id= "110" d=" M 5.96091 -3.09044 L 3.83959 -1.86569 " />
<path id= "111" d=" M 3.83959 -1.86569 L 3.31633 -2.1678 " />
<path id= "112" d=" M 5.43765 -3.39254 L 3.31633 -2.1678 " />
<path id= "113" d=" M 4.5983 -2.90794 L 3.82036 -2.4588 " />
<path id= "114" d=" M 3.31633 -2.1678 L 3.03349 -2.0045 " />
<path id= "115" d=" M 2.2981 -2.75568 L 1.77484 -3.05778 " />
<path id= "116" d=" M 3.89616 -4.28252 L 1.77484 -3.05778 " />
<path id= "117" d=" M 3.05681 -3.79793 L 2.27887 -3.34878 " />
<path id= "118" d=" M 1.77484 -3.05778 L 1.492 -2.89448 " />
<path id= "119" d=" M 1.03238 -2.7026 L 1.03238 -3.15984 " />
<path id= "120" d=" M 1.83484 -3.62314 L 1.03238 -3.15984 " />
<path id= "121" d=" M 0.749533 -3.64974 L 1.03238 -3.15984 " />
<path id= "122" d=" M 2.87085 -4.87448 L 0.749533 -3.64974 " />
<path id= "123" d=" M 0.749533 -3.64974 L 0.254558 -3.93551 " />
<path id= "124" d=" M 2.37588 -5.16026 L 0.254558 -3.93551 " />
<path id= "125" d=" M 0.254558 -3.93551 L -0.0282843 -3.77221 " />
<path id= "126" d=" M 8.87419 -1.00021 L 5.33866 1.04103 " />
<path id= "127" d=" M -1.37886 -2.83733 L 5.33866 1.04103 " />
<path id= "128" d=" M -0.0282843 -3.61708 L -1.37886 -2.83733 " />
<path id= "129" d=" M 7.76403 -1.64116 L 8.87419 -1.00021 " />
<path id= "130" d=" M 7.74282 -1.00021 L 5.33866 0.387836 " />
<path id= "131" d=" M 7.74282 -1.00021 L 7.69332 -1.02879 " />
<path id= "132" d=" M -0.374767 -2.91081 L -0.247487 -2.83733 " />
<path id= "133" d=" M 5.28209 0.355176 L -0.247487 -2.83733 " />
<path id= "134" d=" M 5.33866 0.387836 L 5.28209 0.355176 " />
<path d="M4.14575 -3.49582 A1.71298 0.988989 120 0 0 3.36781 -2.72008" />
<path id= "136" d=" M 2.2981 -2.75568 L 2.01525 -2.26578 " />
<path id= "137" d=" M 2.58094 -2.26578 L 2.01525 -2.26578 " />
<path id= "138" d=" M 2.58094 -1.80854 L 2.58094 -2.26578 " />
<path d="M3.36781 -2.72008 A1.71298 0.988989 120 0 0 3.05779 -2.08385" />
<path id= "140" d=" M 6.61145 -4.91939 L 4.14575 -3.49582 " />
<path id= "141" d=" M 7.064 -4.65811 L 4.5983 -3.23454 " />
<path id= "142" d=" M 5.64271 -0.579713 L 5.07703 -0.579713 " />
<path id= "143" d=" M 5.07703 -0.0408248 L 5.07703 -0.579713 " />
<path id= "144" d=" M 5.62857 0.220454 L 5.62857 -0.0408248 " />
<path id= "145" d=" M 2.68701 4.98063 L 2.15668 4.67444 " />
<path id= "146" d=" M 2.15668 4.67444 L 2.15668 0.836909 " />
<path id= "147" d=" M 5.35987 -1.06961 L 5.07703 -0.579713 " />
<path id= "148" d=" M 4.86489 -1.35538 L 4.58205 -0.865486 " />
<path id= "149" d=" M 5.07703 -0.579713 L 4.58205 -0.865486 " />
<path id= "150" d=" M 4.58205 -1.19209 L 4.58205 -0.865486 " />
<path id= "151" d=" M 4.58205 -0.326599 L 4.58205 -0.865486 " />
<path id= "152" d=" M -0.374767 -2.91081 L -0.374767 -3.10677 " />
<path id= "153" d=" M 5.28209 0.355176 L 5.28209 0.159217 " />
<path id= "154" d=" M 8.60549 -3.44153 L 7.04985 -2.54339 " />
<path d="M6.13979 -2.34456 A1.71298 0.988989 120 0 0 5.44483 -1.69021" />
<path id= "156" d=" M 8.60549 -3.76813 L 6.13979 -2.34456 " />
<path d="M4.9093 -1.8301 A1.71298 0.988989 120 0 0 4.60277 -1.20405" />
<path d="M5.68725 -2.60584 A1.71298 0.988989 120 0 0 4.9093 -1.8301" />
<path id= "159" d=" M 4.12243 -0.918559 L 4.12243 -1.3758 " />
<path id= "160" d=" M 4.12243 -1.3758 L 3.55675 -1.3758 " />
<path id= "161" d=" M 3.55675 -0.918559 L 3.55675 -1.3758 " />
<path id= "162" d=" M 3.03349 -1.22066 L 3.03349 -1.6779 " />
<path id= "163" d=" M 3.55675 -1.3758 L 3.03349 -1.6779 " />
<path id= "164" d=" M 3.03349 -2.0045 L 3.03349 -1.6779 " />
<path d="M4.5983 -3.23454 A1.71298 0.988989 120 0 0 3.82036 -2.4588" />
<path id= "166" d=" M 2.01525 -1.80854 L 2.01525 -2.26578 " />
<path id= "167" d=" M 1.492 -2.11064 L 1.492 -2.56788 " />
<path id= "168" d=" M 2.01525 -2.26578 L 1.492 -2.56788 " />
<path id= "169" d=" M 1.492 -2.89448 L 1.492 -2.56788 " />
<path d="M3.05681 -4.12452 A1.71298 0.988989 120 0 0 2.27887 -3.34878" />
<path d="M2.60426 -4.3858 A1.71298 0.988989 120 0 0 1.5163 -2.97383" />
<path id= "172" d=" M 5.06996 -5.80937 L 2.60426 -4.3858 " />
<path id= "173" d=" M 1.03238 -3.15984 L 0.46669 -3.15984 " />
<path id= "174" d=" M 0.46669 -2.7026 L 0.46669 -3.15984 " />
<path id= "175" d=" M -0.0282843 -2.98838 L -0.0282843 -3.44562 " />
<path id= "176" d=" M 0.46669 -3.15984 L -0.0282843 -3.44562 " />
<path id= "177" d=" M -0.0282843 -3.77221 L -0.0282843 -3.44562 " />
<path id= "178" d=" M 3.83959 -1.86569 L 3.55675 -1.3758 " />
<path id= "179" d=" M 3.31633 -2.1678 L 3.03349 -1.6779 " />
<path id= "180" d=" M 1.77484 -3.05778 L 1.492 -2.56788 " />
<path id= "181" d=" M 0.749533 -3.64974 L 0.46669 -3.15984 " />
<path id= "182" d=" M 0.254558 -3.93551 L -0.0282843 -3.44562 " />
<path id= "183" d=" M 8.87419 7.98125 L 8.87419 -1.00021 " />
<path id= "184" d=" M 8.87419 7.98125 L 5.33866 10.0225 " />
<path id= "185" d=" M 5.33866 10.0225 L 5.33866 1.04103 " />
<path id= "186" d=" M 5.33866 10.0225 L 4.45477 9.51219 " />
<path id= "187" d=" M 4.45477 9.51219 L 4.45477 6.65445 " />
<path id= "188" d=" M 3.88909 6.32785 L 4.45477 6.65445 " />
<path id= "189" d=" M 2.68701 5.63383 L 3.88909 6.32785 " />
<path id= "190" d=" M 2.68701 1.1431 L 2.68701 5.63383 " />
<path id= "191" d=" M 1.27279 0.326599 L 2.68701 1.1431 " />
<path id= "192" d=" M 1.27279 0.326599 L 1.27279 4.81733 " />
<path id= "193" d=" M 0.0707107 4.12331 L 1.27279 4.81733 " />
<path id= "194" d=" M -0.494975 3.79671 L 0.0707107 4.12331 " />
<path id= "195" d=" M -1.37886 4.30702 L -1.37886 -2.83733 " />
<path id= "196" d=" M 0.636396 6.5728 L 0.636396 4.44991 " />
<path id= "197" d=" M 1.83848 0.653197 L 1.83848 4.49073 " />
<path id= "198" d=" M 2.15668 4.67444 L 2.12839 4.69077 " />
<path id= "199" d=" M 1.80312 4.87857 L 0.636396 5.55218 " />
<path id= "200" d=" M 8.15294 -4.02941 L 5.68725 -2.60584 " />
<path id= "201" d=" M 5.5225 -5.54809 L 3.05681 -4.12452 " />
<path id= "202" d=" M 3.39411 10.1246 L -1.55563 7.26682 " />
<path id= "203" d=" M 4.45477 9.51219 L 3.39411 10.1246 " />
<path id= "204" d=" M 4.45477 6.65445 L 3.39411 7.26682 " />
<path id= "205" d=" M 3.39411 10.1246 L 3.39411 7.26682 " />
<path id= "206" d=" M 3.39411 6.61362 L 3.88909 6.32785 " />
<path id= "207" d=" M 3.25269 6.53197 L 3.39411 6.61362 " />
<path id= "208" d=" M 2.68701 6.85857 L 3.25269 6.53197 " />
<path id= "209" d=" M 3.39411 7.26682 L 2.68701 6.85857 " />
<path id= "210" d=" M 1.83848 4.49073 L 1.27279 4.81733 " />
<path id= "211" d=" M -1.55563 4.40908 L -0.494975 3.79671 " />
<path id= "212" d=" M -0.848528 4.81733 L -1.55563 4.40908 " />
<path id= "213" d=" M -0.848528 4.81733 L -0.282843 4.49073 " />
<path id= "214" d=" M -0.424264 4.40908 L -0.282843 4.49073 " />
<path id= "215" d=" M 0.0707107 4.12331 L -0.424264 4.40908 " />
<path id= "216" d=" M -1.55563 7.26682 L -1.55563 4.40908 " />
<path id= "217" d=" M 0.636396 6.5728 L 0.212132 6.81775 " />
<path id= "218" d=" M 2.12839 0.820579 L 2.12839 4.73976 " />
<path id= "219" d=" M 1.84555 0.65728 L 1.84555 4.90306 " />
<path id= "220" d=" M 2.12839 4.73976 L 1.84555 4.90306 " />
<path id= "221" d=" M 1.84555 4.90306 L 1.48492 4.69486 " />
<path id= "222" d=" M 2.68701 8.49156 L 2.68701 6.85857 " />
<path d="M2.68701 8.49156 A0.5 0.288675 60 0 1 2.58345 8.72045" />
<path d="M2.58345 8.72045 A0.5 0.288675 60 0 1 2.33345 8.69569" />
<path id= "225" d=" M 2.33345 8.69569 L -0.494975 7.0627 " />
<path d="M-0.494975 7.0627 A0.5 0.288675 60 0 1 -0.848528 6.45032" />
<path id= "227" d=" M -0.848528 6.45032 L -0.848528 4.81733 " />
<path id= "228" d=" M -0.282843 4.49073 L -0.282843 6.12372 " />
<path d="M0.0707107 6.7361 A0.5 0.288675 60 0 1 -0.282843 6.12372" />
<path id= "230" d=" M 0.0707107 6.7361 L 2.68701 8.24662 " />
<path id= "231" d=" M 8.37922 -12.0637 L 9.01561 -11.6963 " />
<path id= "232" d=" M 8.37922 -12.8802 L 9.01561 -12.5128 " />
<path d="M9.01561 -11.6963 A0.3 0.173205 -120 0 0 9.02858 -11.6893" />
<path d="M9.01561 -12.5128 A0.3 0.173205 60 0 1 9.22206 -12.205" />
<path id= "235" d=" M 10.7112 -13.9017 L 11.0662 -13.6967 " />
<path d="M11.0662 -13.6967 A0.3 0.173205 60 0 1 11.2401 -13.4918" />
<path id= "237" d=" M 4.70226 -9.49177 L 4.70226 -13.0435 " />
<path id= "238" d=" M 8.71065 -22.3388 L 8.73277 -22.3516 " />
<path id= "239" d=" M 11.5612 -10.1858 L 11.5612 -12.0751 " />
<path id= "240" d=" M 11.5612 -14.3478 L 11.5612 -15.7895 " />
<path id= "241" d=" M 11.5612 -18.3627 L 11.5612 -20.7186 " />
<path id= "242" d=" M 8.73277 -22.3516 L 11.5612 -20.7186 " />
<path id= "243" d=" M 4.70226 -9.49177 L 7.53069 -7.85878 " />
<path id= "244" d=" M 7.53069 -7.85878 L 11.5612 -10.1858 " />
<path d="M4.70226 -13.0435 A0.4 0.23094 -120 0 0 4.41942 -13.5334" />
<path id= "246" d=" M 4.06668 -13.7371 L 4.41942 -13.5334 " />
<path id= "247" d=" M 4.24731 -16.4089 L 4.41942 -16.3095 " />
<path d="M4.70226 -16.4728 A0.4 0.23094 60 0 1 4.61942 -16.2897" />
<path d="M4.61942 -16.2897 A0.4 0.23094 60 0 1 4.41942 -16.3095" />
<path id= "250" d=" M 4.72457 -20.0117 L 7.53069 -18.3916 " />
<path id= "251" d=" M 7.53069 -7.85878 L 7.53069 -18.3916 " />
<path id= "252" d=" M 4.41942 -14.3091 L 4.41942 -15.5338 " />
<path id= "253" d=" M 4.41942 -15.5338 L 3.71231 -15.9421 " />
<path id= "254" d=" M 3.71231 -14.7174 L 3.71231 -15.9421 " />
<path id= "255" d=" M 4.41942 -14.3091 L 3.71231 -14.7174 " />
<path id= "256" d=" M 7.38927 -8.75693 L 7.38927 -9.16517 " />
<path id= "257" d=" M 7.38927 -9.16517 L 7.03571 -9.3693 " />
<path id= "258" d=" M 7.03571 -8.96105 L 7.03571 -9.3693 " />
<path id= "259" d=" M 7.38927 -8.75693 L 7.03571 -8.96105 " />
<path id= "260" d=" M 7.53069 -18.3916 L 11.5612 -20.7186 " />
<path id= "261" d=" M 10.9602 -10.6553 L 8.13173 -9.02229 " />
<path id= "262" d=" M 10.9602 -10.9914 L 10.9602 -10.6553 " />
<path id= "263" d=" M 8.13173 -9.83878 L 8.39038 -9.98812 " />
<path id= "264" d=" M 9.48077 -10.6177 L 10.2803 -11.0793 " />
<path id= "265" d=" M 8.13173 -9.02229 L 8.13173 -9.83878 " />
<path id= "266" d=" M 7.03571 -8.96105 L 7.38927 -9.16517 " />
<path id= "267" d=" M 10.9602 -10.6553 L 10.8187 -10.7369 " />
<path id= "268" d=" M 3.71231 -14.7174 L 3.75429 -14.7416 " />
<path d="M8.13173 -9.28521 A0.772059 0.445748 -120 0 0 8.24431 -9.32006" />
<path d="M8.24431 -9.32006 A0.772059 0.445748 -120 0 0 8.37998 -9.50176" />
<path id= "271" d=" M 8.37998 -9.50176 L 9.56345 -10.185 " />
<path d="M9.42778 -10.0033 A0.772059 0.445748 -120 0 0 9.56345 -10.185" />
<path id= "273" d=" M 9.49291 -10.4556 L 9.63433 -10.374 " />
<path id= "274" d=" M 9.63433 -10.374 L 9.56345 -10.185 " />
<path id= "275" d=" M 8.3231 -9.80876 L 8.13173 -9.69827 " />
<path d="M8.13173 -9.47359 A0.583917 0.337125 -120 0 0 8.15024 -9.483" />
<path d="M8.15024 -9.483 A0.583917 0.337125 -120 0 0 8.23856 -9.58341" />
<path id= "278" d=" M 8.37998 -9.50176 L 11.6655 -18.2596 " />
<path d="M9.49558,-10.6614 L9.48554,-10.6329  L9.47726,-10.6054  L9.47075,-10.5791  L9.46603,-10.5541  L9.46312,-10.5304  L9.46204,-10.5081  L9.46277,-10.4873  L9.46532,-10.468  L9.46969,-10.4503  L9.47585,-10.4342  L9.48379,-10.4199  L9.49348,-10.4073  L9.5049,-10.3965  L9.51801,-10.3876 " /><path d="M9.51801,-10.3876 L9.52435,-10.3842  L9.53102,-10.3811  L9.538,-10.3785  L9.5453,-10.3762  L9.5529,-10.3743  L9.56081,-10.3728  L9.56901,-10.3716  L9.57751,-10.3708  L9.5863,-10.3704  L9.59536,-10.3704  L9.60471,-10.3707  L9.61432,-10.3714  L9.6242,-10.3725  L9.63433,-10.374 " /><path id= "281" d=" M 9.49558 -10.6614 L 11.2357 -15.2998 " />
<path d="M12.3267,-15.9297 L12.3367,-15.9582  L12.345,-15.9857  L12.3515,-16.012  L12.3562,-16.037  L12.3591,-16.0607  L12.3602,-16.083  L12.3595,-16.1039  L12.3569,-16.1231  L12.3526,-16.1408  L12.3464,-16.1569  L12.3385,-16.1712  L12.3288,-16.1838  L12.3174,-16.1946  L12.3043,-16.2036 " /><path d="M12.3043,-16.2036 L12.2553,-16.2193  L12.1929,-16.2179  L12.1188,-16.1995  L12.0353,-16.1645  L11.9445,-16.114  L11.8492,-16.0494  L11.7519,-15.9726  L11.6554,-15.8856  L11.5625,-15.7909  L11.4758,-15.6913  L11.3977,-15.5895  L11.3304,-15.4885  L11.2759,-15.391  L11.2357,-15.2998 " /><path id= "284" d=" M 10.5866 -11.2913 L 12.3267 -15.9297 " />
<path d="M10.0416,-10.5946 L10.0923,-10.6373  L10.1426,-10.6826  L10.1922,-10.7302  L10.2405,-10.7797  L10.2874,-10.8306  L10.3323,-10.8827  L10.3751,-10.9355  L10.4152,-10.9886  L10.4525,-11.0417  L10.4866,-11.0942  L10.5173,-11.1458  L10.5443,-11.1961  L10.5675,-11.2447  L10.5866,-11.2913 " /><path id= "286" d=" M 9.9776 -10.4241 L 10.0416 -10.5946 " />
<path id= "287" d=" M 9.9776 -10.4241 L 11.2084 -11.1348 " />
<path id= "288" d=" M 11.2084 -11.1348 L 14.4939 -19.8926 " />
<path id= "289" d=" M 11.6655 -18.2596 L 14.4939 -19.8926 " />
<path id= "290" d=" M 9.90014 -10.6763 L 9.83618 -10.5058 " />
<path d="M10.4452,-11.373 L10.4261,-11.3264  L10.4029,-11.2778  L10.3759,-11.2275  L10.3452,-11.1758  L10.3111,-11.1233  L10.2738,-11.0703  L10.2336,-11.0172  L10.1909,-10.9644  L10.146,-10.9123  L10.0991,-10.8613  L10.0507,-10.8119  L10.0012,-10.7643  L9.95086,-10.719  L9.90014,-10.6763 " /><path id= "292" d=" M 12.1853 -16.0113 L 10.4452 -11.373 " />
<path d="M12.2119,-16.22 L12.2147,-16.2089  L12.2168,-16.1971  L12.2181,-16.1846  L12.2188,-16.1716  L12.2187,-16.158  L12.2178,-16.1437  L12.2163,-16.1289  L12.214,-16.1136  L12.211,-16.0978  L12.2073,-16.0814  L12.2028,-16.0646  L12.1977,-16.0473  L12.1918,-16.0295  L12.1853,-16.0113 " /><path d="M9.49291,-10.4556 L9.49115,-10.4554  L9.4894,-10.4551  L9.48765,-10.4548  L9.48591,-10.4546  L9.48418,-10.4544  L9.48245,-10.4541  L9.48074,-10.4539  L9.47903,-10.4537  L9.47733,-10.4535  L9.47563,-10.4533  L9.47395,-10.4532  L9.47227,-10.453  L9.4706,-10.4529  L9.46894,-10.4527 " /><path id= "295" d=" M 8.23856 -9.58341 L 11.5241 -18.3413 " />
<path id= "296" d=" M 14.3525 -19.9743 L 11.5241 -18.3413 " />
<path id= "297" d=" M 11.5241 -18.3413 L 11.6655 -18.2596 " />
<path id= "298" d=" M 14.4939 -19.8926 L 14.3525 -19.9743 " />
<path d="M9.57879 -10.2259 A0.772059 0.445748 -120 0 0 9.84194 -10.2425" />
<path d="M9.84194 -10.2425 A0.772059 0.445748 -120 0 0 9.9776 -10.4241" />
<path d="M11.0727 -10.9531 A0.772059 0.445748 -120 0 0 11.2084 -11.1348" />
<path id= "302" d=" M 9.90014 -10.6763 L 10.0416 -10.5946 " />
<path d="M9.62668 -10.3784 A0.583917 0.337125 -120 0 0 9.74786 -10.4054" />
<path d="M9.74786 -10.4054 A0.583917 0.337125 -120 0 0 9.83618 -10.5058" />
<path id= "305" d=" M 10.0368 -10.7982 L 9.46528 -10.4682 " />
</g>
</g>



</svg>

