<?xml version="1.0" encoding="UTF-8"?>

<svg xmlns="http://www.w3.org/2000/svg" version="1.1"
	width="297mm"
	height="210mm"
	viewBox="0 0 297 210">
	<!-- Working space 0 0 297 210 -->
	<defs>
		<radialGradient
			id="radialGradient3661"
			gradientUnits="userSpaceOnUse"
			cy="29.149"
			cx="282.65"
			gradientTransform="matrix(.14777 .23089 -.24680 .15795 -26.318 -62.617)"
			r="19.571">
				<stop stop-color="#71b2f8" offset="0"/>
				<stop stop-color="#002795" offset="1"/>
		</radialGradient>
		<radialGradient
			id="radialGradient3817"
			gradientUnits="userSpaceOnUse"
			cy="33.9"
			cx="270.58"
			gradientTransform="matrix(.26631 .065024 -.17931 .73438 -60.668 -36.938)"
			r="19.571">
				<stop stop-color="#ff6d0f" offset="0"/>
				<stop stop-color="#ff1000" offset="1"/>
		</radialGradient>
	</defs>
	<!-- Set display:none to hide FreeCAD Logo -->
	<g
		style="display:inline"
		id="freecad-logo"
		transform="translate(271, 185) scale(1)"
		fill-rule="evenodd"
		stroke-width=".45621">
		<path d="m0.22811 0.22835v13.256h2.9558v-5.1876h2.09v-2.0452h-2.09v-2.2075h5.1486v-3.8087l-8.1044-0.0075z"
			stroke="#370700"
			fill="url(#radialGradient3817)"/>
		<path d="m13.386 4.1792-1.7193 0.98645-0.75925-0.26348-0.72439-1.8513-1.1395 0.05988-0.51976 1.9144-0.72743 0.34835-1.8143-0.79367-0.76632 0.85156 0.98645 1.7193-0.26957 0.75702-1.8513 0.72439 0.065967 1.1417 1.9144 0.51976 0.34835 0.72743-0.79976 1.8121 0.85156 0.76632 1.7193-0.98645 0.76311 0.27179 0.7183 1.8491 1.1478-0.06375 0.51367-1.9166 0.72743-0.34835 1.8182 0.80198 0.76632-0.85156-0.98645-1.7193 0.2657-0.76533 1.8491-0.7183-0.05766-1.1456-1.9166-0.51367-0.34835-0.72743 0.7959-1.8204-0.85156-0.76632zm-2.5751 2.8195 0.35295 0.20478 0.30579 0.27725 0.24481 0.33087 0.17611 0.36787 0.10354 0.39656 0.01715 0.4064-0.0587 0.4063-0.13396 0.38571-0.2131 0.35681-0.26894 0.30192-0.33087 0.24481-0.36787 0.17611-0.39656 0.10354-0.40863 0.02325-0.4063-0.0587-0.38571-0.13396-0.35681-0.2131-0.2997-0.27503-0.24703-0.32478-0.17611-0.36787-0.10132-0.40264-0.02324-0.40863 0.05869-0.4063 0.13396-0.38571 0.21087-0.35072 0.27116-0.30801 0.33087-0.24481 0.36787-0.17611 0.40264-0.10132 0.40641-0.01715 0.4063 0.05869 0.38571 0.13396z" 
		stroke="#000137"
		fill="url(#radialGradient3661)"/>
	</g>
<g id="View"
   transform="rotate(60,148.5,101.206) translate(148.5,101.206) scale(1,1)"
  >
<g   stroke="rgb(0, 0, 0)"
   stroke-width="0.35"
   stroke-linecap="butt"
   stroke-linejoin="miter"
   fill="none"
   transform="scale(1,-1)"
  >
<path id= "1" d=" M 10.0282 -0.593617 L 8.09173 0.524392 " />
<path id= "2" d=" M 5.52817 -8.38785 L 3.50646 -7.22061 " />
<path id= "3" d=" M 9.02817 -2.32567 L 8.62481 -2.09278 " />
<path d="M3.36516,0.186518 L8.3149,-2.67122 " /><path id= "5" d=" M 8.09874 0.223846 L 3.59364 2.82487 " />
<path id= "6" d=" M 7.66844 -3.67151 L 2.83204 -0.879213 " />
<path d="M2.77474,-0.836141 L7.72449,-3.69388 " /><path d="M1.81688,-2.49659 L6.76663,-5.35433 " /><path d="M1.22605,-3.51898 L6.1758,-6.37672 " /><path id= "10" d=" M 4.25265 -7.03195 L -0.244423 -4.43556 " />
<path id= "11" d=" M -0.599812 -4.80236 L -1.03437 -4.55147 " />
<path d="M-1.22605,3.51898 L-0.792923,3.26891 " /><path d="M-1.81688,2.49659 L-1.6547,2.40295 " /><path d="M-2.77474,0.836141 L-2.69792,0.79179 " /><path d="M-3.36516,-0.186518 L-3.08479,-0.348389 " /></g>
<g   stroke="rgb(0, 0, 0)"
   stroke-width="0.35"
   stroke-linecap="butt"
   stroke-linejoin="miter"
   fill="none"
   transform="scale(1,-1)"
  >
<path d="M10.9602 -2.65361 A4.5 2.59808 -120 0 0 5.52817 -8.38785" />
<path d="M4.723 -5.22774 A4.5 2.59808 -120 0 0 4.82591 -4.8245" />
<path d="M5.42311 -3.37963 A4.5 2.59808 -120 0 0 5.49215 -3.25477" />
<path d="M10.0282 -0.593617 A4.5 2.59808 -120 0 0 10.9602 -2.65361" />
<path d="M8.03896 -1.95491 A4.5 2.59808 -120 0 0 8.01469 -2.07551" />
<path d="M7.93024 -2.42363 A4.5 2.59808 -120 0 0 7.91293 -2.48587" />
<path d="M7.82992 -2.75676 A4.5 2.59808 -120 0 0 7.71034 -3.09116" />
<path d="M7.50311 -3.57606 A4.5 2.59808 -120 0 0 7.50144 -3.57963" />
<path d="M7.16313 -4.21952 A4.5 2.59808 -120 0 0 7.08953 -4.34174" />
<path d="M6.13682 -5.58136 A4.5 2.59808 -120 0 0 5.83907 -5.8721" />
<path d="M4.28482 -6.83475 A4.5 2.59808 -120 0 0 4.00061 -6.91269" />
<path d="M3.46431 -6.96466 A4.5 2.59808 -120 0 0 3.42437 -6.96295" />
<path d="M7.80731 0.408383 A4.5 2.59808 -120 0 0 7.88868 0.247454" />
<path d="M9.36396,-0.717439 C9.17517,-0.608446 9.02224,-0.557684 8.90979,-0.549806 " /><path d="M8.48886,-1.10592 Q8.48532,-1.16182 8.48528,-1.22474 " /><path d="M9.36396,-0.717439 C9.50806,-0.800519 9.65649,-0.908722 9.78591,-1.01954  C9.88246,-1.10221 9.97171,-1.1879 10.0537,-1.27661  C10.1597,-1.39067 10.2544,-1.51202 10.3375,-1.64065  C10.4853,-1.87159 10.6059,-2.15217 10.6066,-2.44949 " /><path d="M10.6066,-2.44949 C10.607,-2.65838 10.5435,-2.83259 10.4554,-2.95838  C10.3855,-3.05685 10.3024,-3.13337 10.2063,-3.18792 " /><path d="M10.2063,-3.18792 C10.1193,-3.23863 10.0225,-3.27126 9.91596,-3.28579  C9.7559,-3.30724 9.55976,-3.28014 9.36396,-3.16693 " /><path d="M8.48528,-1.22474 Q8.48537,-1.31876 8.49319,-1.41625 " /><path d="M8.59743,-1.99939 C8.66827,-2.25273 8.76231,-2.48383 8.89774,-2.69792  C9.01162,-2.87752 9.16796,-3.05393 9.36396,-3.16693 " /><path d="M7.30646,-3.46706 L7.30418,-3.4612 " /><path d="M7.12741,-2.7546 Q7.0958,-2.54649 7.0809,-2.32431 " /><path d="M9.15757,-3.01377 C9.07672,-2.72656 8.89755,-2.49726 8.69757,-2.30008 " /><path d="M7.1292,-1.56427 Q7.15543,-1.49784 7.19292,-1.46645 " /><path d="M1.76777 1.02062 A2.5 1.44338 60 0 1 1.25 2.16506" />
<path d="M1.25 2.16506 A2.5 1.44338 60 0 1 -1.25 -2.16506" />
<path d="M-1.25 -2.16506 A2.5 1.44338 60 0 1 1.76777 1.02062" />
<path id= "28" d=" M 8.36786 -1.18213 L 8.40071 -1.16578 " />
<path d="M8.27287 -1.28905 A0.15 0.0866025 -120 0 0 8.36786 -1.18213" />
<path d="M8.40071,-1.16578 C8.41542,-1.15761 8.45972,-1.13108 8.53351,-1.07058 " /><path d="M8.53351,-1.07058 C8.62191,-0.997826 8.74963,-0.878235 8.90852,-0.690205 " /><path d="M8.90852 -0.690205 A5.6 3.23316 60 0 1 8.90852 -0.454078" />
<path d="M8.76901 -1.86127 A5.6 3.23316 60 0 1 8.81795 -1.60376" />
<path d="M8.37094,-2.14658 C8.46128,-2.09777 8.59479,-2.01146 8.76901,-1.86127 " /><path d="M8.23816,-2.20453 C8.25238,-2.2007 8.29559,-2.18707 8.37094,-2.14658 " /><path id= "36" d=" M 8.2068 -2.21102 L 8.23816 -2.20453 " />
<path d="M8.07405 -2.36223 A0.15 0.0866025 -120 0 0 8.2068 -2.21102" />
<path d="M8.36271,-0.22536 C8.37705,-0.213326 8.41987,-0.17544 8.4878,-0.09845 " /><path d="M8.03965 -2.4868 A4.7 2.71355 60 0 1 8.07405 -2.36223" />
<path d="M8.4878,-0.09845 C8.56914,-0.00597626 8.68364,0.139947 8.81795,0.354896 " /><path d="M8.03369 -2.5556 A0.15 0.0866025 -120 0 0 8.03965 -2.4868" />
<path d="M8.81795 0.354896 A5.6 3.23316 60 0 1 8.76901 0.555906" />
<path d="M8.50258,-2.82631 C8.40065,-2.71463 8.30602,-2.66013 8.23647,-2.63361 " /><path d="M8.50258,-2.82631 C8.40065,-2.71463 8.30602,-2.66013 8.23647,-2.63361 " /><path d="M8.40755 -3.09026 A5.6 3.23316 60 0 1 8.50258 -2.82631" />
<path d="M8.2068 0.256464 A0.15 0.0866025 -120 0 0 8.09874 0.223846" />
<path d="M8.00954,-3.2639 C8.09656,-3.24188 8.22811,-3.19386 8.40755,-3.09026 " /><path d="M7.8845,-3.28124 C7.8974,-3.28197 7.93701,-3.28204 8.00954,-3.2639 " /><path d="M8.03453 0.355929 A0.15 0.0866025 -120 0 0 8.0962 0.529355" />
<path id= "50" d=" M 7.85646 -3.27748 L 7.8845 -3.28124 " />
<path id= "51" d=" M 8.0962 0.529355 L 8.12635 0.562076 " />
<path d="M7.71211 -3.39654 A0.15 0.0866025 -120 0 0 7.85646 -3.27748" />
<path d="M8.12635,0.562076 C8.1395,0.577275 8.17835,0.624317 8.23647,0.713322 " /><path d="M7.65701 -3.52052 A4.7 2.71355 60 0 1 7.71211 -3.39654" />
<path d="M8.23647,0.713322 C8.30602,0.82014 8.40065,0.983914 8.50258,1.21329 " /><path d="M7.67928 -3.67618 A0.15 0.0866025 -120 0 0 7.66844 -3.67151" />
<path d="M7.65899 -3.66446 A0.15 0.0866025 -120 0 0 7.65701 -3.52052" />
<path d="M8.50258 1.21329 A5.6 3.23316 60 0 1 8.40755 1.3675" />
<path d="M7.79414,-3.74862 C7.74919,-3.70467 7.71657,-3.68887 7.70538,-3.68431 " /><path d="M7.79414,-3.74862 C7.74919,-3.70467 7.71657,-3.68887 7.70538,-3.68431 " /><path d="M7.98073,-4.05069 C7.91711,-3.89368 7.84784,-3.80156 7.79414,-3.74862 " /><path d="M7.84513 -4.30572 A5.6 3.23316 60 0 1 7.98073 -4.05069" />
<path d="M7.47032,-4.35762 C7.54897,-4.36366 7.6709,-4.35674 7.84513,-4.30572 " /><path d="M7.36029,-4.33334 C7.37111,-4.33859 7.40481,-4.35235 7.47032,-4.35762 " /><path d="M7.18964 -4.39953 A0.15 0.0866025 -120 0 0 7.33034 -4.31605" />
<path d="M7.70538,1.15076 C7.71657,1.16825 7.74919,1.22171 7.79414,1.31756 " /><path d="M7.11704 -4.51572 A4.7 2.71355 60 0 1 7.18964 -4.39953" />
<path d="M7.79414,1.31756 C7.84784,1.43251 7.91711,1.60462 7.98073,1.83509 " /><path d="M7.79414,1.31756 C7.84784,1.43251 7.91711,1.60462 7.98073,1.83509 " /><path d="M7.10373 -4.69317 A0.15 0.0866025 -120 0 0 7.11704 -4.51572" />
<path d="M7.98073 1.83509 A5.6 3.23316 60 0 1 7.84513 1.93354" />
<path id= "72" d=" M 7.12426 -4.71105 L 7.10373 -4.69317 " />
<path d="M7.18649,-4.81185 C7.15734,-4.74839 7.13285,-4.71989 7.12426,-4.71105 " /><path d="M7.28273,-5.20574 C7.26111,-5.01253 7.22124,-4.88813 7.18649,-4.81185 " /><path d="M7.11444 -5.43704 A5.6 3.23316 60 0 1 7.28273 -5.20574" />
<path d="M6.78462,-5.36418 C6.85031,-5.39792 6.95555,-5.43249 7.11444,-5.43704 " /><path d="M6.69598,-5.29969 C6.7041,-5.30915 6.72994,-5.33579 6.78462,-5.36418 " /><path d="M6.53699 -5.31293 A0.15 0.0866025 -120 0 0 6.605 -5.26048" />
<path d="M7.12426,1.50649 C7.13285,1.52524 7.15734,1.58202 7.18649,1.67914 " /><path d="M6.4511 -5.41456 A4.7 2.71355 60 0 1 6.53699 -5.31293" />
<path d="M7.18649,1.67914 C7.22124,1.79555 7.26111,1.96599 7.28273,2.18416 " /><path d="M7.18649,1.67914 C7.22124,1.79555 7.26111,1.96599 7.28273,2.18416 " /><path d="M6.403 -5.60349 A0.15 0.0866025 -120 0 0 6.4511 -5.41456" />
<path id= "84" d=" M 6.41677 -5.63009 L 6.403 -5.60349 " />
<path d="M6.44886,-5.76151 C6.43719,-5.68224 6.42225,-5.64269 6.41677,-5.63009 " /><path d="M6.44915,-6.22433 C6.47078,-6.00615 6.46262,-5.85671 6.44886,-5.76151 " /><path d="M6.25794 -6.41846 A5.6 3.23316 60 0 1 6.44915 -6.22433" />
<path d="M5.99227,-6.22506 C6.04121,-6.28456 6.12363,-6.35861 6.25794,-6.41846 " /><path d="M5.99227,-6.22506 C6.04121,-6.28456 6.12363,-6.35861 6.25794,-6.41846 " /><path d="M5.69792 -6.16481 A4.7 2.71355 60 0 1 5.74663 -6.12324" />
<path d="M5.61781 -6.35424 A0.15 0.0866025 -120 0 0 5.69792 -6.16481" />
<path id= "92" d=" M 5.62402 -6.38801 L 5.61781 -6.35424 " />
<path d="M5.6241,-6.54242 C5.6306,-6.45193 5.62607,-6.40364 5.62402,-6.38801 " /><path d="M5.52842,-7.04727 C5.59206,-6.8168 5.61609,-6.651 5.6241,-6.54242 " /><path d="M5.32542 -7.19294 A5.6 3.23316 60 0 1 5.52842 -7.04727" />
<path d="M5.62402,1.45112 C5.62607,1.46912 5.6306,1.52263 5.6241,1.60561 " /><path d="M4.7938 -6.90179 A0.15 0.0866025 -120 0 0 4.79509 -6.88675" />
<path id= "98" d=" M 4.79209 -6.94076 L 4.7938 -6.90179 " />
<path d="M4.76015,-7.10918 C4.78443,-7.01274 4.79059,-6.95852 4.79209,-6.94076 " /><path d="M4.57407,-7.62673 C4.67601,-7.39736 4.73083,-7.22483 4.76015,-7.10918 " /><path d="M4.37107 -7.71547 A5.6 3.23316 60 0 1 4.57407 -7.62673" />
<path d="M4.25265 -7.03195 A0.15 0.0866025 -120 0 0 4.28168 -7.12566" />
<path d="M4.1074 -7.05629 A4.7 2.71355 60 0 1 4.14378 -7.04604" />
<path d="M3.97885 -7.21431 A0.15 0.0866025 -120 0 0 4.1074 -7.05629" />
<path id= "105" d=" M 3.96931 -7.25622 L 3.97885 -7.21431 " />
<path d="M3.90722,-7.42887 C3.94788,-7.33208 3.96436,-7.27507 3.96931,-7.25622 " /><path d="M3.64155,-7.92903 C3.77587,-7.71409 3.85829,-7.54487 3.90722,-7.42887 " /><path d="M3.45035 -7.95569 A5.6 3.23316 60 0 1 3.64155 -7.92903" />
<path d="M3.50628 -7.21618 A0.15 0.0866025 -120 0 0 3.49649 -7.28157" />
<path d="M3.22032 -7.27365 A0.15 0.0866025 -120 0 0 3.2997 -7.16795" />
<path id= "111" d=" M 3.20352 -7.31606 L 3.22032 -7.27365 " />
<path d="M3.11488,-7.4829 C3.16955,-7.39139 3.19539,-7.3349 3.20352,-7.31606 " /><path d="M2.78506,-7.93661 C2.94395,-7.74859 3.04918,-7.59251 3.11488,-7.4829 " /><path d="M2.78506,-7.93661 C2.94395,-7.74859 3.04918,-7.59251 3.11488,-7.4829 " /><path d="M2.61676 -7.89964 A5.6 3.23316 60 0 1 2.78506 -7.93661" />
<path d="M2.81925 -7.0942 A0.15 0.0866025 -120 0 0 2.79576 -7.18038" />
<path d="M2.5623 -7.07634 A0.15 0.0866025 -120 0 0 2.57661 -7.05385" />
<path id= "118" d=" M 2.53921 -7.11679 L 2.5623 -7.07634 " />
<path d="M2.42917,-7.26813 C2.49468,-7.18721 2.52839,-7.13454 2.53921,-7.11679 " /><path d="M2.05437,-7.64902 C2.2286,-7.49885 2.35053,-7.36498 2.42917,-7.26813 " /><path d="M2.05437,-7.64902 C2.2286,-7.49885 2.35053,-7.36498 2.42917,-7.26813 " /><path d="M1.88995,-6.79705 C1.96249,-6.73143 2.0021,-6.68562 2.01499,-6.67001 " /><path d="M1.49195,-7.08298 C1.67139,-6.97939 1.80293,-6.87551 1.88995,-6.79705 " /><path d="M1.69855 -5.96655 A0.15 0.0866025 -120 0 0 1.71414 -5.95419" />
<path d="M1.36599,-5.20875 C1.43977,-5.18405 1.48408,-5.15942 1.49878,-5.15061 " /><path d="M0.990979,-5.2614 C1.14986,-5.26596 1.27758,-5.23808 1.36599,-5.20875 " /><path id= "127" d=" M 3.41811 1.6756 L 3.45097 1.69196 " />
<path d="M3.30466 1.50103 A0.15 0.0866025 -120 0 0 3.41811 1.6756" />
<path d="M3.45097,1.69196 C3.46567,1.70013 3.50998,1.72665 3.58376,1.78716 " /><path d="M3.29297 1.38309 A4.7 2.71355 60 0 1 3.30466 1.50103" />
<path d="M3.58376,1.78716 C3.67217,1.85991 3.79988,1.9795 3.95877,2.16753 " /><path d="M3.38051 1.29637 A0.15 0.0866025 -120 0 0 3.32308 1.29739" />
<path d="M3.32308 1.29739 A0.15 0.0866025 -120 0 0 3.29297 1.38309" />
<path d="M3.95877 2.16753 A5.6 3.23316 60 0 1 3.95877 2.40366" />
<path id= "135" d=" M 3.41296 1.30857 L 3.38051 1.29637 " />
<path d="M3.95877,2.40366 C3.79988,2.40823 3.67217,2.38034 3.58376,2.35101 " /><path d="M3.53805,1.3261 C3.47012,1.32465 3.4273,1.3131 3.41296,1.30857 " /><path d="M3.58376,2.35101 C3.50998,2.32632 3.46567,2.30168 3.45097,2.29288 " /><path d="M3.8682,1.25398 C3.73389,1.31385 3.61939,1.32755 3.53805,1.3261 " /><path id= "140" d=" M 3.45097 2.29288 L 3.41811 2.27129 " />
<path d="M3.81927 0.996463 A5.6 3.23316 60 0 1 3.8682 1.25398" />
<path d="M3.41811 2.27129 A0.15 0.0866025 -120 0 0 3.33513 2.2589" />
<path d="M3.33513 2.2589 A0.15 0.0866025 -120 0 0 3.30466 2.31487" />
<path d="M3.42119,0.711161 C3.51153,0.75997 3.64504,0.84628 3.81927,0.996463 " /><path d="M3.30466 2.31487 A4.7 2.71355 60 0 1 3.29297 2.4193" />
<path d="M3.28842,0.653208 C3.30263,0.657038 3.34584,0.670665 3.42119,0.711161 " /><path d="M3.29297 2.4193 A0.15 0.0866025 -120 0 0 3.38051 2.60711" />
<path id= "148" d=" M 3.25706 0.646722 L 3.28842 0.653208 " />
<path id= "149" d=" M 3.38051 2.60711 L 3.41296 2.63238 " />
<path d="M3.1243 0.495512 A0.15 0.0866025 -120 0 0 3.25706 0.646722" />
<path d="M3.41296,2.63238 C3.4273,2.64441 3.47012,2.6823 3.53805,2.75929 " /><path d="M3.08991 0.370935 A4.7 2.71355 60 0 1 3.1243 0.495512" />
<path d="M3.53805,2.75929 C3.61939,2.85176 3.73389,2.99768 3.8682,3.21263 " /><path d="M3.14646 0.24612 A0.15 0.0866025 -120 0 0 3.11354 0.252935" />
<path d="M3.11354 0.252935 A0.15 0.0866025 -120 0 0 3.08991 0.370935" />
<path d="M3.8682 3.21263 A5.6 3.23316 60 0 1 3.81927 3.41364" />
<path id= "157" d=" M 3.1766 0.248211 L 3.14646 0.24612 " />
<path d="M3.81927,3.41364 C3.64504,3.36265 3.51153,3.2948 3.42119,3.23929 " /><path d="M3.28673,0.224125 C3.2286,0.24601 3.18975,0.248195 3.1766,0.248211 " /><path d="M3.42119,3.23929 C3.34584,3.19278 3.30263,3.15651 3.28842,3.14393 " /><path d="M3.55283,0.0314291 C3.4509,0.143108 3.35627,0.197608 3.28673,0.224125 " /><path d="M3.55283,0.0314291 C3.4509,0.143108 3.35627,0.197608 3.28673,0.224125 " /><path id= "163" d=" M 3.28842 3.14393 L 3.25706 3.1142 " />
<path d="M3.4578 -0.232517 A5.6 3.23316 60 0 1 3.55283 0.0314291" />
<path d="M3.25706 3.1142 A0.15 0.0866025 -120 0 0 3.149 3.08158" />
<path d="M3.149 3.08158 A0.15 0.0866025 -120 0 0 3.1243 3.11212" />
<path d="M3.0598,-0.406165 C3.14682,-0.384138 3.27836,-0.336126 3.4578,-0.232517 " /><path d="M3.1243 3.11212 A4.7 2.71355 60 0 1 3.08991 3.19698" />
<path d="M2.93476,-0.423505 C2.94765,-0.424236 2.98726,-0.424301 3.0598,-0.406165 " /><path d="M3.08991 3.19698 A0.15 0.0866025 -120 0 0 3.14646 3.38709" />
<path id= "171" d=" M 2.90671 -0.419745 L 2.93476 -0.423505 " />
<path id= "172" d=" M 3.14646 3.38709 L 3.1766 3.41981 " />
<path d="M2.76236 -0.538798 A0.15 0.0866025 -120 0 0 2.90671 -0.419745" />
<path d="M3.1766,3.41981 C3.18975,3.43501 3.2286,3.48206 3.28673,3.57106 " /><path d="M2.70727 -0.662781 A4.7 2.71355 60 0 1 2.76236 -0.538798" />
<path d="M3.28673,3.57106 C3.35627,3.67788 3.4509,3.84165 3.55283,4.07103 " /><path d="M2.72954 -0.818437 A0.15 0.0866025 -120 0 0 2.7187 -0.813773" />
<path d="M2.7187 -0.813773 A0.15 0.0866025 -120 0 0 2.70727 -0.662781" />
<path d="M3.55283 4.07103 A5.6 3.23316 60 0 1 3.4578 4.22524" />
<path id= "180" d=" M 2.75563 -0.826571 L 2.72954 -0.818437 " />
<path d="M3.4578,4.22524 C3.27836,4.12165 3.14682,4.01777 3.0598,3.93931 " /><path d="M2.84439,-0.890878 C2.79944,-0.846932 2.76682,-0.83113 2.75563,-0.826571 " /><path d="M2.84439,-0.890878 C2.79944,-0.846932 2.76682,-0.83113 2.75563,-0.826571 " /><path d="M3.0598,3.93931 C2.98726,3.87369 2.94765,3.82789 2.93476,3.81227 " /><path d="M3.03098,-1.19295 C2.96736,-1.03595 2.89809,-0.943819 2.84439,-0.890878 " /><path id= "186" d=" M 2.93476 3.81227 L 2.90671 3.77613 " />
<path d="M2.89538 -1.44798 A5.6 3.23316 60 0 1 3.03098 -1.19295" />
<path d="M2.90671 3.77613 A0.15 0.0866025 -120 0 0 2.7755 3.71762" />
<path d="M2.7755 3.71762 A0.15 0.0866025 -120 0 0 2.76236 3.7285" />
<path d="M2.52058,-1.49989 C2.59922,-1.50592 2.72115,-1.499 2.89538,-1.44798 " /><path d="M2.76236 3.7285 A4.7 2.71355 60 0 1 2.70727 3.78886" />
<path d="M2.41054,-1.4756 C2.42136,-1.48086 2.45507,-1.49461 2.52058,-1.49989 " /><path d="M2.70727 3.78886 A0.15 0.0866025 -120 0 0 2.72954 3.97023" />
<path id= "194" d=" M 2.38745 -1.46182 L 2.41054 -1.4756 " />
<path id= "195" d=" M 2.72954 3.97023 L 2.75563 4.0085 " />
<path d="M2.23989 -1.5418 A0.15 0.0866025 -120 0 0 2.38634 -1.46116" />
<path d="M2.38634 -1.46116 A0.15 0.0866025 -120 0 0 2.38745 -1.46182" />
<path d="M2.75563,4.0085 C2.76682,4.02598 2.79944,4.07945 2.84439,4.1753 " /><path d="M2.16729 -1.65798 A4.7 2.71355 60 0 1 2.23989 -1.5418" />
<path d="M2.84439,4.1753 C2.89809,4.29025 2.96736,4.46236 3.03098,4.69283 " /><path d="M2.15399 -1.83543 A0.15 0.0866025 -120 0 0 2.16729 -1.65798" />
<path d="M3.03098 4.69283 A5.6 3.23316 60 0 1 2.89538 4.79128" />
<path id= "203" d=" M 2.17452 -1.85332 L 2.15399 -1.83543 " />
<path d="M2.89538,4.79128 C2.72115,4.64111 2.59922,4.50724 2.52058,4.4104 " /><path d="M2.23675,-1.95411 C2.20759,-1.89065 2.1831,-1.86215 2.17452,-1.85332 " /><path d="M2.52058,4.4104 C2.45507,4.32948 2.42136,4.2768 2.41054,4.25905 " /><path d="M2.33298,-2.348 C2.31136,-2.15479 2.27149,-2.0304 2.23675,-1.95411 " /><path id= "208" d=" M 2.41054 4.25905 L 2.38745 4.2186 " />
<path d="M2.16469 -2.5793 A5.6 3.23316 60 0 1 2.33298 -2.348" />
<path d="M2.38745 4.2186 A0.15 0.0866025 -120 0 0 2.23989 4.1282" />
<path d="M1.83487,-2.50644 C1.90057,-2.54019 2.0058,-2.57475 2.16469,-2.5793 " /><path d="M2.23989 4.1282 A4.7 2.71355 60 0 1 2.16729 4.16055" />
<path d="M1.74623,-2.44195 C1.75435,-2.45141 1.7802,-2.47806 1.83487,-2.50644 " /><path d="M1.74623,-2.44195 C1.75435,-2.45141 1.7802,-2.47806 1.83487,-2.50644 " /><path d="M2.16729 4.16055 A0.15 0.0866025 -120 0 0 2.1615 4.16341" />
<path d="M2.1615 4.16341 A0.15 0.0866025 -120 0 0 2.15399 4.32264" />
<path id= "217" d=" M 1.72943 -2.41894 L 1.74623 -2.44195 " />
<path id= "218" d=" M 2.15399 4.32264 L 2.17452 4.36423 " />
<path d="M1.58724 -2.45519 A0.15 0.0866025 -120 0 0 1.71285 -2.4037" />
<path d="M1.71285 -2.4037 A0.15 0.0866025 -120 0 0 1.72943 -2.41894" />
<path d="M2.17452,4.36423 C2.1831,4.38298 2.20759,4.43976 2.23675,4.53688 " /><path d="M1.50136 -2.55682 A4.7 2.71355 60 0 1 1.58724 -2.45519" />
<path d="M2.23675,4.53688 C2.27149,4.65329 2.31136,4.82372 2.33298,5.0419 " /><path d="M1.45325 -2.74575 A0.15 0.0866025 -120 0 0 1.50136 -2.55682" />
<path d="M2.33298 5.0419 A5.6 3.23316 60 0 1 2.16469 5.07887" />
<path id= "226" d=" M 1.46703 -2.77235 L 1.45325 -2.74575 " />
<path d="M2.16469,5.07887 C2.0058,4.89085 1.90057,4.73477 1.83487,4.62516 " /><path d="M1.49911,-2.90377 C1.48744,-2.8245 1.4725,-2.78495 1.46703,-2.77235 " /><path d="M1.83487,4.62516 C1.7802,4.53365 1.75435,4.47717 1.74623,4.45832 " /><path d="M1.4994,-3.36659 C1.52104,-3.14841 1.51288,-2.99897 1.49911,-2.90377 " /><path id= "231" d=" M 1.74623 4.45832 L 1.72943 4.41591 " />
<path d="M1.3082 -3.56072 A5.6 3.23316 60 0 1 1.4994 -3.36659" />
<path d="M1.72943 4.41591 A0.15 0.0866025 -120 0 0 1.58724 4.28797" />
<path d="M1.04253,-3.36733 C1.09146,-3.42682 1.17388,-3.50087 1.3082,-3.56072 " /><path d="M1.04253,-3.36733 C1.09146,-3.42682 1.17388,-3.50087 1.3082,-3.56072 " /><path d="M1.58724 4.28797 A4.7 2.71355 60 0 1 1.50136 4.29044" />
<path d="M0.980434,-3.26637 C0.985389,-3.2795 1.00187,-3.31749 1.04253,-3.36733 " /><path d="M1.50136 4.29044 A0.15 0.0866025 -120 0 0 1.47432 4.29746" />
<path d="M1.47432 4.29746 A0.15 0.0866025 -120 0 0 1.45325 4.42383" />
<path id= "240" d=" M 0.970901 -3.23547 L 0.980434 -3.26637 " />
<path id= "241" d=" M 1.45325 4.42383 L 1.46703 4.46633 " />
<path d="M0.842345 -3.2259 A0.15 0.0866025 -120 0 0 0.944179 -3.19899" />
<path d="M0.944179 -3.19899 A0.15 0.0866025 -120 0 0 0.970901 -3.23547" />
<path d="M1.46703,4.46633 C1.4725,4.48525 1.48744,4.54205 1.49911,4.63479 " /><path d="M0.74817 -3.30707 A4.7 2.71355 60 0 1 0.842345 -3.2259" />
<path d="M1.49911,4.63479 C1.51288,4.74589 1.52104,4.90476 1.4994,5.09795 " /><path d="M0.668065 -3.49651 A0.15 0.0866025 -120 0 0 0.74817 -3.30707" />
<path d="M1.4994 5.09795 A5.6 3.23316 60 0 1 1.3082 5.07129" />
<path id= "249" d=" M 0.674276 -3.53027 L 0.668065 -3.49651 " />
<path d="M1.3082,5.07129 C1.17388,4.85635 1.09146,4.68713 1.04253,4.57113 " /><path d="M0.674352,-3.68468 C0.680848,-3.59419 0.676323,-3.5459 0.674276,-3.53027 " /><path d="M1.04253,4.57113 C1.00187,4.47434 0.985389,4.41733 0.980434,4.39848 " /><path d="M0.578677,-4.18953 C0.642314,-3.95906 0.666341,-3.79326 0.674352,-3.68468 " /><path id= "254" d=" M 0.980434 4.39848 L 0.970901 4.35657 " />
<path d="M0.375677 -4.3352 A5.6 3.23316 60 0 1 0.578677 -4.18953" />
<path d="M0.970901 4.35657 A0.15 0.0866025 -120 0 0 0.842345 4.19855" />
<path d="M0.189597,-4.03252 C0.218921,-4.11431 0.273737,-4.22353 0.375677,-4.3352 " /><path d="M0.842345 4.19855 A4.7 2.71355 60 0 1 0.74817 4.17098" />
<path d="M0.157661,-3.90097 C0.159158,-3.917 0.165313,-3.96412 0.189597,-4.03252 " /><path d="M0.74817 4.17098 A0.15 0.0866025 -120 0 0 0.697098 4.17421" />
<path d="M0.697098 4.17421 A0.15 0.0866025 -120 0 0 0.668065 4.26792" />
<path id= "262" d=" M 0.15595 -3.86398 L 0.157661 -3.90097 " />
<path id= "263" d=" M 0.668065 4.26792 L 0.674276 4.30886 " />
<path d="M0.0484963 -3.80913 A0.15 0.0866025 -120 0 0 0.124993 -3.80082" />
<path d="M0.124993 -3.80082 A0.15 0.0866025 -120 0 0 0.15595 -3.86398" />
<path d="M0.674276,4.30886 C0.676323,4.32686 0.680848,4.38037 0.674352,4.46335 " /><path d="M-0.0484963 -3.86512 A4.7 2.71355 60 0 1 0.0484963 -3.80913" />
<path d="M0.674352,4.46335 C0.666341,4.56268 0.642314,4.70074 0.578677,4.85773 " /><path d="M-0.15595 -4.04405 A0.15 0.0866025 -120 0 0 -0.0484963 -3.86512" />
<path d="M0.578677 4.85773 A5.6 3.23316 60 0 1 0.375677 4.76899" />
<path id= "271" d=" M -0.157661 -4.08302 L -0.15595 -4.04405 " />
<path d="M0.375677,4.76899 C0.273737,4.53962 0.218921,4.3671 0.189597,4.25144 " /><path d="M-0.189597,-4.25144 C-0.165313,-4.155 -0.159158,-4.10078 -0.157661,-4.08302 " /><path d="M0.189597,4.25144 C0.165313,4.155 0.159158,4.10078 0.157661,4.08302 " /><path d="M-0.375677,-4.76899 C-0.273737,-4.53962 -0.218921,-4.3671 -0.189597,-4.25144 " /><path id= "276" d=" M 0.157661 4.08302 L 0.15595 4.04405 " />
<path d="M-0.578677 -4.85773 A5.6 3.23316 60 0 1 -0.375677 -4.76899" />
<path d="M0.15595 4.04405 A0.15 0.0866025 -120 0 0 0.0484963 3.86512" />
<path d="M-0.674352,-4.46335 C-0.666341,-4.56268 -0.642314,-4.70074 -0.578677,-4.85773 " /><path d="M0.0484963 3.86512 A4.7 2.71355 60 0 1 -0.0484963 3.80913" />
<path d="M-0.674276,-4.30886 C-0.676323,-4.32686 -0.680848,-4.38037 -0.674352,-4.46335 " /><path d="M-0.0484963 3.80913 A0.15 0.0866025 -120 0 0 -0.124993 3.80082" />
<path d="M-0.124993 3.80082 A0.15 0.0866025 -120 0 0 -0.15595 3.86398" />
<path id= "284" d=" M -0.668065 -4.26792 L -0.674276 -4.30886 " />
<path id= "285" d=" M -0.15595 3.86398 L -0.157661 3.90097 " />
<path d="M-0.74817 -4.17098 A0.15 0.0866025 -120 0 0 -0.697098 -4.17421" />
<path d="M-0.697098 -4.17421 A0.15 0.0866025 -120 0 0 -0.668065 -4.26792" />
<path d="M-0.157661,3.90097 C-0.159158,3.917 -0.165313,3.96412 -0.189597,4.03252 " /><path d="M-0.842345 -4.19855 A4.7 2.71355 60 0 1 -0.74817 -4.17098" />
<path d="M-0.189597,4.03252 C-0.218921,4.11431 -0.273737,4.22353 -0.375677,4.3352 " /><path d="M-0.970901 -4.35657 A0.15 0.0866025 -120 0 0 -0.842345 -4.19855" />
<path d="M-0.375677 4.3352 A5.6 3.23316 60 0 1 -0.578677 4.18953" />
<path id= "293" d=" M -0.980434 -4.39848 L -0.970901 -4.35657 " />
<path d="M-0.578677,4.18953 C-0.642314,3.95906 -0.666341,3.79326 -0.674352,3.68468 " /><path d="M-1.04253,-4.57113 C-1.00187,-4.47434 -0.985389,-4.41733 -0.980434,-4.39848 " /><path d="M-0.674352,3.68468 C-0.680848,3.59419 -0.676323,3.5459 -0.674276,3.53027 " /><path d="M-1.3082,-5.07129 C-1.17388,-4.85635 -1.09146,-4.68713 -1.04253,-4.57113 " /><path id= "298" d=" M -0.674276 3.53027 L -0.668065 3.49651 " />
<path d="M-1.4994 -5.09795 A5.6 3.23316 60 0 1 -1.3082 -5.07129" />
<path d="M-0.668065 3.49651 A0.15 0.0866025 -120 0 0 -0.74817 3.30707" />
<path d="M-1.49911,-4.63479 C-1.51288,-4.74589 -1.52104,-4.90476 -1.4994,-5.09795 " /><path d="M-0.74817 3.30707 A4.7 2.71355 60 0 1 -0.842345 3.2259" />
<path d="M-1.46703,-4.46633 C-1.4725,-4.48525 -1.48744,-4.54205 -1.49911,-4.63479 " /><path d="M-0.842345 3.2259 A0.15 0.0866025 -120 0 0 -0.944179 3.19899" />
<path d="M-0.944179 3.19899 A0.15 0.0866025 -120 0 0 -0.970901 3.23547" />
<path id= "306" d=" M -1.45325 -4.42383 L -1.46703 -4.46633 " />
<path id= "307" d=" M -0.970901 3.23547 L -0.980434 3.26637 " />
<path d="M-1.50136 -4.29044 A0.15 0.0866025 -120 0 0 -1.47432 -4.29746" />
<path d="M-1.47432 -4.29746 A0.15 0.0866025 -120 0 0 -1.45325 -4.42383" />
<path d="M-0.980434,3.26637 C-0.985389,3.2795 -1.00187,3.31749 -1.04253,3.36733 " /><path d="M-1.58724 -4.28797 A4.7 2.71355 60 0 1 -1.50136 -4.29044" />
<path d="M-1.04253,3.36733 C-1.09146,3.42682 -1.17388,3.50087 -1.3082,3.56072 " /><path d="M-1.04253,3.36733 C-1.09146,3.42682 -1.17388,3.50087 -1.3082,3.56072 " /><path d="M-1.72943 -4.41591 A0.15 0.0866025 -120 0 0 -1.58724 -4.28797" />
<path d="M-1.3082 3.56072 A5.6 3.23316 60 0 1 -1.4994 3.36659" />
<path id= "316" d=" M -1.74623 -4.45832 L -1.72943 -4.41591 " />
<path d="M-1.4994,3.36659 C-1.52104,3.14841 -1.51288,2.99897 -1.49911,2.90377 " /><path d="M-1.83487,-4.62516 C-1.7802,-4.53365 -1.75435,-4.47717 -1.74623,-4.45832 " /><path d="M-1.49911,2.90377 C-1.48744,2.8245 -1.4725,2.78495 -1.46703,2.77235 " /><path d="M-2.16469,-5.07887 C-2.0058,-4.89085 -1.90057,-4.73477 -1.83487,-4.62516 " /><path id= "321" d=" M -1.46703 2.77235 L -1.45325 2.74575 " />
<path d="M-2.33298 -5.0419 A5.6 3.23316 60 0 1 -2.16469 -5.07887" />
<path d="M-1.45325 2.74575 A0.15 0.0866025 -120 0 0 -1.50136 2.55682" />
<path d="M-2.23675,-4.53688 C-2.27149,-4.65329 -2.31136,-4.82372 -2.33298,-5.0419 " /><path d="M-1.50136 2.55682 A4.7 2.71355 60 0 1 -1.58724 2.45519" />
<path d="M-2.17452,-4.36423 C-2.1831,-4.38298 -2.20759,-4.43976 -2.23675,-4.53688 " /><path d="M-1.58724 2.45519 A0.15 0.0866025 -120 0 0 -1.71285 2.4037" />
<path d="M-1.71285 2.4037 A0.15 0.0866025 -120 0 0 -1.72943 2.41894" />
<path id= "329" d=" M -2.15399 -4.32264 L -2.17452 -4.36423 " />
<path id= "330" d=" M -1.72943 2.41894 L -1.74623 2.44195 " />
<path d="M-2.16729 -4.16055 A0.15 0.0866025 -120 0 0 -2.1615 -4.16341" />
<path d="M-2.1615 -4.16341 A0.15 0.0866025 -120 0 0 -2.15399 -4.32264" />
<path d="M-1.74623,2.44195 C-1.75435,2.45141 -1.7802,2.47806 -1.83487,2.50644 " /><path d="M-1.74623,2.44195 C-1.75435,2.45141 -1.7802,2.47806 -1.83487,2.50644 " /><path d="M-2.23989 -4.1282 A4.7 2.71355 60 0 1 -2.16729 -4.16055" />
<path d="M-1.83487,2.50644 C-1.90057,2.54019 -2.0058,2.57475 -2.16469,2.5793 " /><path d="M-2.38745 -4.2186 A0.15 0.0866025 -120 0 0 -2.23989 -4.1282" />
<path d="M-2.16469 2.5793 A5.6 3.23316 60 0 1 -2.33298 2.348" />
<path id= "339" d=" M -2.41054 -4.25905 L -2.38745 -4.2186 " />
<path d="M-2.33298,2.348 C-2.31136,2.15479 -2.27149,2.0304 -2.23675,1.95411 " /><path d="M-2.52058,-4.4104 C-2.45507,-4.32948 -2.42136,-4.2768 -2.41054,-4.25905 " /><path d="M-2.23675,1.95411 C-2.20759,1.89065 -2.1831,1.86215 -2.17452,1.85332 " /><path d="M-2.89538,-4.79128 C-2.72115,-4.64111 -2.59922,-4.50724 -2.52058,-4.4104 " /><path id= "344" d=" M -2.17452 1.85332 L -2.15399 1.83543 " />
<path d="M-3.03098 -4.69283 A5.6 3.23316 60 0 1 -2.89538 -4.79128" />
<path d="M-2.15399 1.83543 A0.15 0.0866025 -120 0 0 -2.16729 1.65798" />
<path d="M-2.84439,-4.1753 C-2.89809,-4.29025 -2.96736,-4.46236 -3.03098,-4.69283 " /><path d="M-2.16729 1.65798 A4.7 2.71355 60 0 1 -2.23989 1.5418" />
<path d="M-2.75563,-4.0085 C-2.76682,-4.02598 -2.79944,-4.07945 -2.84439,-4.1753 " /><path d="M-2.23989 1.5418 A0.15 0.0866025 -120 0 0 -2.38634 1.46116" />
<path d="M-2.38634 1.46116 A0.15 0.0866025 -120 0 0 -2.38745 1.46182" />
<path id= "352" d=" M -2.72954 -3.97023 L -2.75563 -4.0085 " />
<path id= "353" d=" M -2.38745 1.46182 L -2.41054 1.4756 " />
<path d="M-2.70727 -3.78886 A0.15 0.0866025 -120 0 0 -2.72954 -3.97023" />
<path d="M-2.41054,1.4756 C-2.42136,1.48086 -2.45507,1.49461 -2.52058,1.49989 " /><path d="M-2.76236 -3.7285 A4.7 2.71355 60 0 1 -2.70727 -3.78886" />
<path d="M-2.52058,1.49989 C-2.59922,1.50592 -2.72115,1.499 -2.89538,1.44798 " /><path d="M-2.90671 -3.77613 A0.15 0.0866025 -120 0 0 -2.7755 -3.71762" />
<path d="M-2.7755 -3.71762 A0.15 0.0866025 -120 0 0 -2.76236 -3.7285" />
<path d="M-2.89538 1.44798 A5.6 3.23316 60 0 1 -3.03098 1.19295" />
<path id= "361" d=" M -2.93476 -3.81227 L -2.90671 -3.77613 " />
<path d="M-3.03098,1.19295 C-2.96736,1.03595 -2.89809,0.943819 -2.84439,0.890878 " /><path d="M-3.0598,-3.93931 C-2.98726,-3.87369 -2.94765,-3.82789 -2.93476,-3.81227 " /><path d="M-2.84439,0.890878 C-2.79944,0.846932 -2.76682,0.83113 -2.75563,0.826571 " /><path d="M-2.84439,0.890878 C-2.79944,0.846932 -2.76682,0.83113 -2.75563,0.826571 " /><path d="M-3.4578,-4.22524 C-3.27836,-4.12165 -3.14682,-4.01777 -3.0598,-3.93931 " /><path id= "367" d=" M -2.75563 0.826571 L -2.72954 0.818437 " />
<path d="M-3.55283 -4.07103 A5.6 3.23316 60 0 1 -3.4578 -4.22524" />
<path d="M-2.72954 0.818437 A0.15 0.0866025 -120 0 0 -2.7187 0.813773" />
<path d="M-2.7187 0.813773 A0.15 0.0866025 -120 0 0 -2.70727 0.662781" />
<path d="M-3.28673,-3.57106 C-3.35627,-3.67788 -3.4509,-3.84165 -3.55283,-4.07103 " /><path d="M-2.70727 0.662781 A4.7 2.71355 60 0 1 -2.76236 0.538798" />
<path d="M-3.1766,-3.41981 C-3.18975,-3.43501 -3.2286,-3.48206 -3.28673,-3.57106 " /><path d="M-2.76236 0.538798 A0.15 0.0866025 -120 0 0 -2.90671 0.419745" />
<path id= "375" d=" M -3.14646 -3.38709 L -3.1766 -3.41981 " />
<path id= "376" d=" M -2.90671 0.419745 L -2.93476 0.423505 " />
<path d="M-3.08991 -3.19698 A0.15 0.0866025 -120 0 0 -3.14646 -3.38709" />
<path d="M-2.93476,0.423505 C-2.94765,0.424236 -2.98726,0.424301 -3.0598,0.406165 " /><path d="M-3.1243 -3.11212 A4.7 2.71355 60 0 1 -3.08991 -3.19698" />
<path d="M-3.0598,0.406165 C-3.14682,0.384138 -3.27836,0.336126 -3.4578,0.232517 " /><path d="M-3.25706 -3.1142 A0.15 0.0866025 -120 0 0 -3.149 -3.08158" />
<path d="M-3.149 -3.08158 A0.15 0.0866025 -120 0 0 -3.1243 -3.11212" />
<path d="M-3.4578 0.232517 A5.6 3.23316 60 0 1 -3.55283 -0.0314291" />
<path id= "384" d=" M -3.28842 -3.14393 L -3.25706 -3.1142 " />
<path d="M-3.55283,-0.0314291 C-3.4509,-0.143108 -3.35627,-0.197608 -3.28673,-0.224125 " /><path d="M-3.55283,-0.0314291 C-3.4509,-0.143108 -3.35627,-0.197608 -3.28673,-0.224125 " /><path d="M-3.42119,-3.23929 C-3.34584,-3.19278 -3.30263,-3.15651 -3.28842,-3.14393 " /><path d="M-3.28673,-0.224125 C-3.2286,-0.24601 -3.18975,-0.248195 -3.1766,-0.248211 " /><path d="M-3.81927,-3.41364 C-3.64504,-3.36265 -3.51153,-3.2948 -3.42119,-3.23929 " /><path id= "390" d=" M -3.1766 -0.248211 L -3.14646 -0.24612 " />
<path d="M-3.8682 -3.21263 A5.6 3.23316 60 0 1 -3.81927 -3.41364" />
<path d="M-3.14646 -0.24612 A0.15 0.0866025 -120 0 0 -3.11354 -0.252935" />
<path d="M-3.11354 -0.252935 A0.15 0.0866025 -120 0 0 -3.08991 -0.370935" />
<path d="M-3.53805,-2.75929 C-3.61939,-2.85176 -3.73389,-2.99768 -3.8682,-3.21263 " /><path d="M-3.08991 -0.370935 A4.7 2.71355 60 0 1 -3.1243 -0.495512" />
<path d="M-3.41296,-2.63238 C-3.4273,-2.64441 -3.47012,-2.6823 -3.53805,-2.75929 " /><path d="M-3.1243 -0.495512 A0.15 0.0866025 -120 0 0 -3.25706 -0.646722" />
<path id= "398" d=" M -3.38051 -2.60711 L -3.41296 -2.63238 " />
<path id= "399" d=" M -3.25706 -0.646722 L -3.28842 -0.653208 " />
<path d="M-3.29297 -2.4193 A0.15 0.0866025 -120 0 0 -3.38051 -2.60711" />
<path d="M-3.28842,-0.653208 C-3.30263,-0.657038 -3.34584,-0.670665 -3.42119,-0.711161 " /><path d="M-3.30466 -2.31487 A4.7 2.71355 60 0 1 -3.29297 -2.4193" />
<path d="M-3.42119,-0.711161 C-3.51153,-0.75997 -3.64504,-0.84628 -3.81927,-0.996463 " /><path d="M-3.41811 -2.27129 A0.15 0.0866025 -120 0 0 -3.33513 -2.2589" />
<path d="M-3.33513 -2.2589 A0.15 0.0866025 -120 0 0 -3.30466 -2.31487" />
<path d="M-3.81927 -0.996463 A5.6 3.23316 60 0 1 -3.8682 -1.25398" />
<path id= "407" d=" M -3.45097 -2.29288 L -3.41811 -2.27129 " />
<path d="M-3.8682,-1.25398 C-3.73389,-1.31385 -3.61939,-1.32755 -3.53805,-1.3261 " /><path d="M-3.58376,-2.35101 C-3.50998,-2.32632 -3.46567,-2.30168 -3.45097,-2.29288 " /><path d="M-3.53805,-1.3261 C-3.47012,-1.32465 -3.4273,-1.3131 -3.41296,-1.30857 " /><path d="M-3.95877,-2.40366 C-3.79988,-2.40823 -3.67217,-2.38034 -3.58376,-2.35101 " /><path id= "412" d=" M -3.41296 -1.30857 L -3.38051 -1.29637 " />
<path d="M-3.95877 -2.16753 A5.6 3.23316 60 0 1 -3.95877 -2.40366" />
<path d="M-3.38051 -1.29637 A0.15 0.0866025 -120 0 0 -3.32308 -1.29739" />
<path d="M-3.32308 -1.29739 A0.15 0.0866025 -120 0 0 -3.29297 -1.38309" />
<path d="M-3.58376,-1.78716 C-3.67217,-1.85991 -3.79988,-1.9795 -3.95877,-2.16753 " /><path d="M-3.29297 -1.38309 A4.7 2.71355 60 0 1 -3.30466 -1.50103" />
<path d="M-3.45097,-1.69196 C-3.46567,-1.70013 -3.50998,-1.72665 -3.58376,-1.78716 " /><path d="M-3.30466 -1.50103 A0.15 0.0866025 -120 0 0 -3.41811 -1.6756" />
<path id= "420" d=" M -3.41811 -1.6756 L -3.45097 -1.69196 " />
<path id= "421" d=" M 3.41811 1.6756 L 8.36786 -1.18213 " />
<path id= "422" d=" M 3.45097 1.69196 L 8.40071 -1.16578 " />
<path id= "423" d=" M 3.30466 1.50103 L 3.61269 1.32319 " />
<path id= "424" d=" M 3.58376 1.78716 L 8.53351 -1.07058 " />
<path id= "425" d=" M 3.29297 1.38309 L 3.41895 1.31036 " />
<path id= "426" d=" M 3.95877 2.16753 L 8.90852 -0.690205 " />
<path id= "427" d=" M 3.95877 2.40366 L 8.90852 -0.454078 " />
<path id= "428" d=" M 3.8682 1.25398 L 8.81795 -1.60376 " />
<path id= "429" d=" M 3.81927 0.996463 L 8.76901 -1.86127 " />
<path id= "430" d=" M 3.30466 2.31487 L 3.39883 2.26051 " />
<path id= "431" d=" M 3.42119 0.711161 L 8.37094 -2.14658 " />
<path id= "432" d=" M 3.29297 2.4193 L 3.4825 2.30988 " />
<path id= "433" d=" M 3.28842 0.653208 L 8.23816 -2.20453 " />
<path id= "434" d=" M 3.38051 2.60711 L 3.754 2.39147 " />
<path id= "435" d=" M 3.25706 0.646722 L 8.2068 -2.21102 " />
<path id= "436" d=" M 3.41296 2.63238 L 3.81689 2.39917 " />
<path id= "437" d=" M 3.1243 0.495512 L 8.07405 -2.36223 " />
<path id= "438" d=" M 3.53805 2.75929 L 8.4878 -0.09845 " />
<path id= "439" d=" M 3.08991 0.370935 L 8.03965 -2.4868 " />
<path id= "440" d=" M 3.8682 3.21263 L 8.81795 0.354896 " />
<path id= "441" d=" M 3.81927 3.41364 L 8.76901 0.555906 " />
<path id= "442" d=" M 3.44273 0.134059 L 8.23647 -2.63361 " />
<path id= "443" d=" M 3.55283 0.0314291 L 8.50258 -2.82631 " />
<path id= "444" d=" M 3.6454 2.88999 L 8.2068 0.256464 " />
<path id= "445" d=" M 3.4578 -0.232517 L 8.40755 -3.09026 " />
<path id= "446" d=" M 3.1243 3.11212 L 3.18779 3.07547 " />
<path id= "447" d=" M 3.0598 -0.406165 L 8.00954 -3.2639 " />
<path id= "448" d=" M 3.08991 3.19698 L 3.24776 3.10585 " />
<path id= "449" d=" M 2.93476 -0.423505 L 7.8845 -3.28124 " />
<path id= "450" d=" M 3.14646 3.38709 L 3.41218 3.23368 " />
<path id= "451" d=" M 3.75278 3.03703 L 8.0962 0.529355 " />
<path id= "452" d=" M 2.90671 -0.419745 L 7.85646 -3.27748 " />
<path id= "453" d=" M 3.1766 3.41981 L 3.4547 3.25925 " />
<path id= "454" d=" M 3.77739 3.07295 L 8.12635 0.562076 " />
<path id= "455" d=" M 2.76236 -0.538798 L 7.71211 -3.39654 " />
<path id= "456" d=" M 3.28673 3.57106 L 3.65685 3.35737 " />
<path id= "457" d=" M 2.70727 -0.662781 L 7.65701 -3.52052 " />
<path id= "458" d=" M 3.55283 4.07103 L 8.50258 1.21329 " />
<path id= "459" d=" M 2.82709 -0.874757 L 7.67928 -3.67618 " />
<path id= "460" d=" M 3.4578 4.22524 L 8.40755 1.3675 " />
<path id= "461" d=" M 2.7959 -0.849822 L 7.70538 -3.68431 " />
<path id= "462" d=" M 2.84439 -0.890878 L 7.79414 -3.74862 " />
<path id= "463" d=" M 3.03098 -1.19295 L 7.98073 -4.05069 " />
<path id= "464" d=" M 2.89538 -1.44798 L 7.84513 -4.30572 " />
<path id= "465" d=" M 2.76236 3.7285 L 2.79148 3.71169 " />
<path id= "466" d=" M 2.52058 -1.49989 L 7.47032 -4.35762 " />
<path id= "467" d=" M 2.70727 3.78886 L 2.83262 3.71649 " />
<path id= "468" d=" M 2.41054 -1.4756 L 7.36029 -4.33334 " />
<path id= "469" d=" M 2.72954 3.97023 L 2.95766 3.83853 " />
<path id= "470" d=" M 3.32262 3.62782 L 3.7383 3.38783 " />
<path id= "471" d=" M 2.75563 4.0085 L 2.99036 3.87298 " />
<path id= "472" d=" M 3.34651 3.66736 L 3.79734 3.40707 " />
<path id= "473" d=" M 2.23989 -1.5418 L 7.18964 -4.39953 " />
<path id= "474" d=" M 2.84439 4.1753 L 3.13768 4.00596 " />
<path id= "475" d=" M 3.43817 3.83248 L 7.79414 1.31756 " />
<path id= "476" d=" M 2.16729 -1.65798 L 7.11704 -4.51572 " />
<path id= "477" d=" M 3.03098 4.69283 L 7.98073 1.83509 " />
<path id= "478" d=" M 2.15399 -1.83543 L 7.10373 -4.69317 " />
<path id= "479" d=" M 2.89538 4.79128 L 7.84513 1.93354 " />
<path id= "480" d=" M 2.17452 -1.85332 L 7.12426 -4.71105 " />
<path id= "481" d=" M 2.23675 -1.95411 L 7.18649 -4.81185 " />
<path id= "482" d=" M 2.33298 -2.348 L 7.28273 -5.20574 " />
<path id= "483" d=" M 2.16469 -2.5793 L 7.11444 -5.43704 " />
<path id= "484" d=" M 1.83487 -2.50644 L 6.78462 -5.36418 " />
<path id= "485" d=" M 2.15399 4.32264 L 2.37314 4.19611 " />
<path id= "486" d=" M 2.17452 4.36423 L 2.39719 4.23567 " />
<path id= "487" d=" M 1.58724 -2.45519 L 6.53699 -5.31293 " />
<path id= "488" d=" M 2.23675 4.53688 L 2.50016 4.3848 " />
<path id= "489" d=" M 2.84833 4.18378 L 3.14544 4.01224 " />
<path id= "490" d=" M 3.44247 3.84076 L 7.18649 1.67914 " />
<path id= "491" d=" M 1.50136 -2.55682 L 6.4511 -5.41456 " />
<path id= "492" d=" M 2.33298 5.0419 L 2.84449 4.74658 " />
<path id= "493" d=" M 3.01789 4.64647 L 7.28273 2.18416 " />
<path id= "494" d=" M 1.45325 -2.74575 L 6.403 -5.60349 " />
<path id= "495" d=" M 1.46703 -2.77235 L 6.41677 -5.63009 " />
<path id= "496" d=" M 1.49911 -2.90377 L 6.44886 -5.76151 " />
<path id= "497" d=" M 1.4994 -3.36659 L 6.44915 -6.22433 " />
<path id= "498" d=" M 1.3082 -3.56072 L 6.25794 -6.41846 " />
<path id= "499" d=" M 1.45325 4.42383 L 1.65005 4.31021 " />
<path id= "500" d=" M 1.46703 4.46633 L 1.68392 4.3411 " />
<path id= "501" d=" M 0.842345 -3.2259 L 1.00993 -3.32265 " />
<path id= "502" d=" M 1.49911 4.63479 L 1.75847 4.48505 " />
<path id= "503" d=" M 0.74817 -3.30707 L 5.69792 -6.16481 " />
<path id= "504" d=" M 1.4994 5.09795 L 1.96818 4.8273 " />
<path id= "505" d=" M 0.668065 -3.49651 L 5.61781 -6.35424 " />
<path id= "506" d=" M 0.674276 -3.53027 L 5.62402 -6.38801 " />
<path id= "507" d=" M 0.674352 -3.68468 L 5.6241 -6.54242 " />
<path id= "508" d=" M 0.578677 -4.18953 L 5.52842 -7.04727 " />
<path id= "509" d=" M 0.375677 -4.3352 L 5.32542 -7.19294 " />
<path id= "510" d=" M 0.668065 4.26792 L 0.805969 4.1883 " />
<path id= "511" d=" M 0.674276 4.30886 L 0.856531 4.20363 " />
<path id= "512" d=" M 0.0484963 -3.80913 L 0.156291 -3.87136 " />
<path id= "513" d=" M 0.674352 4.46335 L 0.951696 4.30323 " />
<path id= "514" d=" M 3.56724 2.79314 L 5.6241 1.60561 " />
<path id= "515" d=" M -0.0484963 -3.86512 L 0.177546 -3.99563 " />
<path id= "516" d=" M 0.578677 4.85773 L 1.04895 4.58622 " />
<path id= "517" d=" M -0.15595 -4.04405 L 4.7938 -6.90179 " />
<path id= "518" d=" M -0.157661 -4.08302 L 4.79209 -6.94076 " />
<path id= "519" d=" M -0.189597 -4.25144 L 4.76015 -7.10918 " />
<path id= "520" d=" M -0.375677 -4.76899 L 4.57407 -7.62673 " />
<path id= "521" d=" M -0.578677 -4.85773 L 4.37107 -7.71547 " />
<path id= "522" d=" M -0.15595 3.86398 L -0.0548188 3.80559 " />
<path id= "523" d=" M -0.266775 -4.49961 L 4.28168 -7.12566 " />
<path id= "524" d=" M -0.157661 3.90097 L -0.0238072 3.82369 " />
<path id= "525" d=" M -0.74817 -4.17098 L -0.668766 -4.21683 " />
<path id= "526" d=" M -0.189597 4.03252 L 0.0720969 3.88143 " />
<path id= "527" d=" M -0.842345 -4.19855 L -0.672425 -4.29666 " />
<path id= "528" d=" M -0.2762 -4.52542 L 4.1074 -7.05629 " />
<path id= "529" d=" M -0.375677 4.3352 L 0.154655 4.02901 " />
<path id= "530" d=" M -0.970901 -4.35657 L -0.66679 -4.53215 " />
<path id= "531" d=" M -0.351693 -4.71407 L 3.97885 -7.21431 " />
<path id= "532" d=" M -0.980434 -4.39848 L -0.658441 -4.58439 " />
<path id= "533" d=" M -0.368157 -4.75198 L 3.96931 -7.25622 " />
<path id= "534" d=" M -1.04253 -4.57113 L -0.588291 -4.83339 " />
<path id= "535" d=" M -1.3082 -5.07129 L 3.64155 -7.92903 " />
<path id= "536" d=" M -1.4994 -5.09795 L 3.45035 -7.95569 " />
<path id= "537" d=" M -0.970901 3.23547 L -0.899221 3.19409 " />
<path id= "538" d=" M -1.07407 -4.64275 L 3.49649 -7.28157 " />
<path id= "539" d=" M -0.980434 3.26637 L -0.872951 3.20432 " />
<path id= "540" d=" M -1.50136 -4.29044 L -1.45471 -4.31737 " />
<path id= "541" d=" M -1.04253 3.36733 L -0.824562 3.24148 " />
<path id= "542" d=" M -1.58724 -4.28797 L -1.44334 -4.37106 " />
<path id= "543" d=" M -1.1526 3.47088 L -0.796878 3.26551 " />
<path id= "544" d=" M -1.72943 -4.41591 L -1.48713 -4.5558 " />
<path id= "545" d=" M -1.1315 -4.76112 L 3.22032 -7.27365 " />
<path id= "546" d=" M -1.74623 -4.45832 L -1.49486 -4.60345 " />
<path id= "547" d=" M -1.1523 -4.80122 L 3.20352 -7.31606 " />
<path id= "548" d=" M -1.83487 -4.62516 L -1.51206 -4.81154 " />
<path id= "549" d=" M -1.24435 -4.9661 L 3.11488 -7.4829 " />
<path id= "550" d=" M -2.16469 -5.07887 L 2.78506 -7.93661 " />
<path id= "551" d=" M -2.33298 -5.0419 L 2.61676 -7.89964 " />
<path id= "552" d=" M -1.72943 2.41894 L -1.69136 2.39696 " />
<path id= "553" d=" M -1.78436 -4.53604 L -1.50565 -4.69696 " />
<path id= "554" d=" M -1.19346 -4.8772 L 2.79576 -7.18038 " />
<path id= "555" d=" M -1.74623 2.44195 L -1.67049 2.39822 " />
<path id= "556" d=" M -2.16729 -4.16055 L -2.15612 -4.167 " />
<path id= "557" d=" M -1.80006 2.48634 L -1.65525 2.40274 " />
<path id= "558" d=" M -2.23989 -4.1282 L -2.14068 -4.18548 " />
<path id= "559" d=" M -2.38745 -4.2186 L -2.1658 -4.34657 " />
<path id= "560" d=" M -1.79706 -4.55946 L -1.50797 -4.72637 " />
<path id= "561" d=" M -1.20648 -4.90044 L 2.5623 -7.07634 " />
<path id= "562" d=" M -2.41054 -4.25905 L -2.18528 -4.38911 " />
<path id= "563" d=" M -1.82003 -4.59998 L -1.51092 -4.77845 " />
<path id= "564" d=" M -1.22961 -4.94086 L 2.53921 -7.11679 " />
<path id= "565" d=" M -2.52058 -4.4104 L -2.24603 -4.5689 " />
<path id= "566" d=" M -1.91948 -4.75744 L -1.50848 -4.99473 " />
<path id= "567" d=" M -2.89538 -4.79128 L 2.05437 -7.64902 " />
<path id= "568" d=" M -2.38745 1.46182 L -2.38521 1.46053 " />
<path id= "569" d=" M -2.41054 1.4756 L -2.38059 1.45832 " />
<path id= "570" d=" M -2.90671 -3.77613 L -2.69518 -3.89826 " />
<path id= "571" d=" M -2.93476 -3.81227 L -2.71207 -3.94084 " />
<path id= "572" d=" M -3.0598 -3.93931 L -2.80136 -4.08852 " />
<path id= "573" d=" M -2.4367 -4.29905 L -2.20274 -4.43413 " />
<path id= "574" d=" M -1.84444 -4.641 L -1.51249 -4.83265 " />
<path id= "575" d=" M -1.25377 -4.98202 L 1.88995 -6.79705 " />
<path id= "576" d=" M -2.75563 0.826571 L -2.69915 0.793959 " />
<path id= "577" d=" M -3.4578 -4.22524 L -2.97393 -4.50461 " />
<path id= "578" d=" M -2.72954 0.818437 L -2.70924 0.806718 " />
<path id= "579" d=" M -3.25706 -3.1142 L -3.08478 -3.21367 " />
<path id= "580" d=" M -0.987887 -4.42431 L -0.651833 -4.61833 " />
<path id= "581" d=" M -3.28842 -3.14393 L -3.08435 -3.26175 " />
<path id= "582" d=" M -1.00117 -4.46447 L -0.639119 -4.6735 " />
<path id= "583" d=" M -3.28673 -0.224125 L -3.08375 -0.341312 " />
<path id= "584" d=" M -3.42119 -3.23929 L -3.15296 -3.39415 " />
<path id= "585" d=" M -3.1766 -0.248211 L -3.08402 -0.301664 " />
<path id= "586" d=" M -3.81927 -3.41364 L -3.35497 -3.68171 " />
<path id= "587" d=" M -3.14646 -0.24612 L -3.09118 -0.278033 " />
<path id= "588" d=" M -3.41811 -2.27129 L -3.30232 -2.33814 " />
<path id= "589" d=" M -3.8682 -1.25398 L -3.32312 -1.56869 " />
<path id= "590" d=" M -3.45097 -2.29288 L -3.29756 -2.38144 " />
<path id= "591" d=" M -3.53805 -1.3261 L -3.30118 -1.46286 " />
<path id= "592" d=" M -3.58376 -2.35101 L -3.30837 -2.51001 " />
<path id= "593" d=" M -0.203293 -4.30273 L 1.36599 -5.20875 " />
<path id= "594" d=" M -3.41296 -1.30857 L -3.2925 -1.37811 " />
<path id= "595" d=" M -3.95877 -2.40366 L -3.46989 -2.68592 " />
<path id= "596" d=" M -3.38051 -1.29637 L -3.29347 -1.34663 " />
</g>
</g>



</svg>

