<?xml version="1.0" encoding="UTF-8"?>

<svg xmlns="http://www.w3.org/2000/svg" version="1.1"
	width="297mm"
	height="210mm"
	viewBox="0 0 297 210">
	<!-- Working space 0 0 297 210 -->
	<defs>
		<radialGradient
			id="radialGradient3661"
			gradientUnits="userSpaceOnUse"
			cy="29.149"
			cx="282.65"
			gradientTransform="matrix(.14777 .23089 -.24680 .15795 -26.318 -62.617)"
			r="19.571">
				<stop stop-color="#71b2f8" offset="0"/>
				<stop stop-color="#002795" offset="1"/>
		</radialGradient>
		<radialGradient
			id="radialGradient3817"
			gradientUnits="userSpaceOnUse"
			cy="33.9"
			cx="270.58"
			gradientTransform="matrix(.26631 .065024 -.17931 .73438 -60.668 -36.938)"
			r="19.571">
				<stop stop-color="#ff6d0f" offset="0"/>
				<stop stop-color="#ff1000" offset="1"/>
		</radialGradient>
	</defs>
	<!-- Set display:none to hide FreeCAD Logo -->
	<g
		style="display:inline"
		id="freecad-logo"
		transform="translate(271, 185) scale(1)"
		fill-rule="evenodd"
		stroke-width=".45621">
		<path d="m0.22811 0.22835v13.256h2.9558v-5.1876h2.09v-2.0452h-2.09v-2.2075h5.1486v-3.8087l-8.1044-0.0075z"
			stroke="#370700"
			fill="url(#radialGradient3817)"/>
		<path d="m13.386 4.1792-1.7193 0.98645-0.75925-0.26348-0.72439-1.8513-1.1395 0.05988-0.51976 1.9144-0.72743 0.34835-1.8143-0.79367-0.76632 0.85156 0.98645 1.7193-0.26957 0.75702-1.8513 0.72439 0.065967 1.1417 1.9144 0.51976 0.34835 0.72743-0.79976 1.8121 0.85156 0.76632 1.7193-0.98645 0.76311 0.27179 0.7183 1.8491 1.1478-0.06375 0.51367-1.9166 0.72743-0.34835 1.8182 0.80198 0.76632-0.85156-0.98645-1.7193 0.2657-0.76533 1.8491-0.7183-0.05766-1.1456-1.9166-0.51367-0.34835-0.72743 0.7959-1.8204-0.85156-0.76632zm-2.5751 2.8195 0.35295 0.20478 0.30579 0.27725 0.24481 0.33087 0.17611 0.36787 0.10354 0.39656 0.01715 0.4064-0.0587 0.4063-0.13396 0.38571-0.2131 0.35681-0.26894 0.30192-0.33087 0.24481-0.36787 0.17611-0.39656 0.10354-0.40863 0.02325-0.4063-0.0587-0.38571-0.13396-0.35681-0.2131-0.2997-0.27503-0.24703-0.32478-0.17611-0.36787-0.10132-0.40264-0.02324-0.40863 0.05869-0.4063 0.13396-0.38571 0.21087-0.35072 0.27116-0.30801 0.33087-0.24481 0.36787-0.17611 0.40264-0.10132 0.40641-0.01715 0.4063 0.05869 0.38571 0.13396z" 
		stroke="#000137"
		fill="url(#radialGradient3661)"/>
	</g>
<g id="Ortho_0_0"
   transform="rotate(-90,89.6246,89.0007) translate(89.6246,89.0007) scale(1,1)"
  >
<g   stroke="rgb(0, 0, 0)"
   stroke-width="0.35"
   stroke-linecap="butt"
   stroke-linejoin="miter"
   fill="none"
   transform="scale(1,-1)"
  >
<path id= "1" d=" M -11 -4.5 L -10.5 -4.5 " />
<path id= "2" d=" M -7.5 -4.5 L -7 -4.5 " />
<path id= "3" d=" M -11 4.5 L -7 4.5 " />
<path d="M0,0.36804 L-7,0.36804 " /><path d="M0,-0.36804 L-7,-0.36804 " /><path d="M0,1.54891 L-7,1.54891 " /><path d="M0,-1.54891 L-7,-1.54891 " /><path d="M0,2.72981 L-7,2.72981 " /><path d="M0,-2.72981 L-7,-2.72981 " /></g>
<g   stroke="rgb(0, 0, 0)"
   stroke-width="0.35"
   stroke-linecap="butt"
   stroke-linejoin="miter"
   fill="none"
   transform="scale(1,-1)"
  >
<path d="M-11,0 L-11,0.50384  L-11,1.00134  L-11,1.48626  L-11,1.95248  L-11,2.39414  L-11,2.8057  L-11,3.18198  L-11,3.51824  L-11,3.81026  L-11,4.05436  L-11,4.24747  L-11,4.38718  L-11,4.4717  L-11,4.5 " /><path d="M-11,-4.5 L-11,-4.4717  L-11,-4.38718  L-11,-4.24747  L-11,-4.05436  L-11,-3.81026  L-11,-3.51824  L-11,-3.18198  L-11,-2.8057  L-11,-2.39414  L-11,-1.95248  L-11,-1.48626  L-11,-1.00134  L-11,-0.50384  L-11,1.4885e-14 " /><path d="M-7,0.345291 L-7,0.356241  L-7,0.367189  L-7,0.378135  L-7,0.389079  L-7,0.400021  L-7,0.41096  L-7,0.421896  L-7,0.43283  L-7,0.443762  L-7,0.45469  L-7,0.465617  L-7,0.47654  L-7,0.48746  L-7,0.498378 " /><path d="M-7,1.48022 L-7,1.48898  L-7,1.49774  L-7,1.50649  L-7,1.51524  L-7,1.52398  L-7,1.53271  L-7,1.54144  L-7,1.55016  L-7,1.55887  L-7,1.56758  L-7,1.57628  L-7,1.58497  L-7,1.59366  L-7,1.60234 " /><path d="M-7,-0.498378 L-7,-0.48746  L-7,-0.47654  L-7,-0.465617  L-7,-0.45469  L-7,-0.443762  L-7,-0.43283  L-7,-0.421896  L-7,-0.41096  L-7,-0.400021  L-7,-0.389079  L-7,-0.378135  L-7,-0.367189  L-7,-0.356241  L-7,-0.345291 " /><path d="M-9,-1.5 C-8.79605,-1.50031 -8.60174,-1.45714 -8.44007,-1.39157  C-8.31975,-1.34238 -8.21166,-1.28241 -8.11579,-1.21168  C-7.99169,-1.12107 -7.88371,-1.01352 -7.79186,-0.88904  C-7.62777,-0.665789 -7.50091,-0.36374 -7.5,-9.4369e-16 " /><path d="M-9,-1.5 C-9.20395,-1.50031 -9.39826,-1.45714 -9.55993,-1.39157  C-9.68025,-1.34238 -9.78834,-1.28241 -9.88421,-1.21168  C-10.0083,-1.12107 -10.1163,-1.01352 -10.2081,-0.88904  C-10.3722,-0.665789 -10.4991,-0.36374 -10.5,-3.88578e-16 " /><path d="M-10.5,-2.22045e-16 C-10.5004,0.255749 -10.4334,0.491188 -10.3377,0.678683  C-10.2481,0.851809 -10.1355,0.998325 -9.99978,1.11823  C-9.9164,1.19317 -9.82314,1.25906 -9.71999,1.31591  C-9.61939,1.37184 -9.50696,1.41665 -9.38269,1.45036  C-9.26239,1.48269 -9.13482,1.49923 -9,1.5 " /><path d="M-7.5,-8.88178e-16 C-7.4996,0.255749 -7.56664,0.491188 -7.66232,0.678683  C-7.75189,0.851809 -7.86452,0.998325 -8.00022,1.11823  C-8.0836,1.19317 -8.17686,1.25906 -8.28001,1.31591  C-8.38061,1.37184 -8.49304,1.41665 -8.61731,1.45036  C-8.73761,1.48269 -8.86518,1.49923 -9,1.5 " /><path d="M-9,-4.24264 Q-9.34353,-4.24602 -9.59507,-4.28417 " /><path d="M-9.5956,-4.28424 L-9.63808,-4.29035 " /><path d="M-10.1104,-4.38553 L-10.123,-4.38875 " /><path d="M-10.3393,-4.44902 C-10.3605,-4.45553 -10.3816,-4.46203 -10.4028,-4.46853  C-10.4491,-4.48301 -10.5023,-4.50074 -10.5,-4.5 " /><path d="M-10.5,-4.5 C-10.4994,-4.49978 -10.4877,-4.49591 -10.4648,-4.48839  C-10.4247,-4.47515 -10.3737,-4.45929 -10.3118,-4.4408  C-10.2532,-4.42339 -10.189,-4.4057 -10.1189,-4.38772  C-10.0006,-4.35671 -9.86487,-4.32812 -9.71178,-4.30193  C-9.51818,-4.2699 -9.27667,-4.2426 -9,-4.24264 " /><path d="M-9,-4.24264 Q-8.65647,-4.24602 -8.40493,-4.28417 " /><path d="M-8.4044,-4.28424 L-8.36192,-4.29035 " /><path d="M-7.88965,-4.38553 L-7.877,-4.38875 " /><path d="M-7.66067,-4.44902 C-7.63952,-4.45553 -7.61837,-4.46203 -7.59722,-4.46853  C-7.55088,-4.48301 -7.49771,-4.50074 -7.5,-4.5 " /><path d="M-7.5,-4.5 C-7.50057,-4.49978 -7.5123,-4.49591 -7.53519,-4.48839  C-7.57528,-4.47515 -7.6263,-4.45929 -7.68824,-4.4408  C-7.74675,-4.42339 -7.81103,-4.4057 -7.88105,-4.38772  C-7.99941,-4.35671 -8.13513,-4.32812 -8.28822,-4.30193  C-8.48182,-4.2699 -8.72333,-4.2426 -9,-4.24264 " /><path d="M-9,1.5 L-8.90858,1.49721 " /><path d="M-8.77,1.48226 L-8.66766,1.46272 " /><path d="M-8.54245,1.42851 L-8.47778,1.40616 " /><path d="M-7.58126,0.487012 Q-7.54981,0.39597 -7.52943,0.295653 " /><path d="M-7.52931,0.295089 Q-7.50039,0.152498 -7.5,2.22045e-16 " /><path d="M-9,1.5 L-9.09142,1.49721 " /><path d="M-9.23,1.48226 L-9.33234,1.46272 " /><path d="M-9.45755,1.42851 L-9.52222,1.40616 " /><path d="M-10.4187,0.487012 Q-10.4502,0.39597 -10.4706,0.295653 " /><path d="M-10.4707,0.295089 Q-10.4996,0.152498 -10.5,4.44089e-16 " /><path d="M-10.5,-0.00576464 Q-10.4993,-0.134372 -10.4778,-0.256993 " /><path d="M-10.423,-0.474447 Q-10.3841,-0.589942 -10.3319,-0.689977 " /><path d="M-10.3233,-0.706259 Q-10.2697,-0.806189 -10.2058,-0.892247 " /><path d="M-10.1551,-0.956911 L-10.1293,-0.987281 " /><path d="M-10.0748,-1.04634 Q-10.0288,-1.09357 -9.9791,-1.13638 " /><path d="M-9.93098,-1.17613 L-9.92388,-1.18172 " /><path d="M-9.87744,-1.21659 Q-9.81531,-1.26146 -9.74726,-1.30062 " /><path d="M-9.65125,-1.35125 Q-9.59125,-1.38023 -9.52626,-1.40465 " /><path d="M-9.51648,-1.40828 L-9.46198,-1.42709 " /><path d="M-9.33615,-1.46185 L-9.24486,-1.47988 " /><path d="M-9.20103,-1.48647 Q-9.12631,-1.49664 -9.0484,-1.49922 " /><path d="M-7.50001,-0.00576464 Q-7.50071,-0.134372 -7.52218,-0.256993 " /><path d="M-7.57701,-0.474447 Q-7.61591,-0.589942 -7.66811,-0.689977 " /><path d="M-7.67667,-0.706259 Q-7.73027,-0.806189 -7.79422,-0.892247 " /><path d="M-7.84487,-0.956911 L-7.87072,-0.987281 " /><path d="M-7.92521,-1.04634 Q-7.9712,-1.09357 -8.0209,-1.13638 " /><path d="M-8.06902,-1.17613 L-8.07612,-1.18172 " /><path d="M-8.12256,-1.21659 Q-8.18469,-1.26146 -8.25274,-1.30062 " /><path d="M-8.34875,-1.35125 Q-8.40875,-1.38023 -8.47374,-1.40465 " /><path d="M-8.48352,-1.40828 L-8.53802,-1.42709 " /><path d="M-8.66385,-1.46185 L-8.75514,-1.47988 " /><path d="M-8.79897,-1.48647 Q-8.87369,-1.49664 -8.9516,-1.49922 " /><path d="M0,-0.345291 L0,-0.356277  L0,-0.367256  L0,-0.378228  L0,-0.389192  L0,-0.400149  L0,-0.411098  L0,-0.422038  L0,-0.432971  L0,-0.443894  L0,-0.454809  L0,-0.465716  L0,-0.476613  L0,-0.4875  L0,-0.498378 " /><path d="M0,1.60234 L0,1.59381  L0,1.58526  L0,1.57667  L0,1.56806  L0,1.55941  L0,1.55073  L0,1.54202  L0,1.53328  L0,1.52451  L0,1.51571  L0,1.50688  L0,1.49802  L0,1.48913  L0,1.48022 " /><path d="M0,0.498378 L0,0.4875  L0,0.476613  L0,0.465716  L0,0.454809  L0,0.443894  L0,0.432971  L0,0.422038  L0,0.411098  L0,0.400149  L0,0.389192  L0,0.378228  L0,0.367256  L0,0.356277  L0,0.345291 " /><path d="M-7,0.498378 L-7,0.482896  L-7,0.467758  L-7,0.45313  L-7,0.43917  L-7,0.426032  L-7,0.413858  L-7,0.402783  L-7,0.392927  L-7,0.384398  L-7,0.377288  L-7,0.371677  L-7,0.367624  L-7,0.365175  L-7,0.364355 " /><path d="M-7,0.367985 C-7,0.368377 -7,0.367216 -7,0.345291 " /><path d="M-7,0.367985 C-7,0.368377 -7,0.367216 -7,0.345291 " /><path d="M-7,0.634546 L-7,0.624836  L-7,0.615124  L-7,0.605409  L-7,0.595691  L-7,0.585971  L-7,0.576248  L-7,0.566522  L-7,0.556795  L-7,0.547064  L-7,0.537332  L-7,0.527597  L-7,0.517859  L-7,0.50812  L-7,0.498378 " /><path d="M-7,0.345291 C-7,0.318697 -7,0.262538 -7,0.144597 " /><path d="M-7,0.802656 L-7,0.799037  L-7,0.793675  L-7,0.786635  L-7,0.778002  L-7,0.76788  L-7,0.756391  L-7,0.743674  L-7,0.729882  L-7,0.715183  L-7,0.699754  L-7,0.683781  L-7,0.667457  L-7,0.650979  L-7,0.634546 " /><path d="M-7,0.144597 L-7,0.123944  L-7,0.10329  L-7,0.0826333  L-7,0.061976  L-7,0.0413178  L-7,0.020659  L-7,-8.32667e-17  L-7,-0.020659  L-7,-0.0413178  L-7,-0.061976  L-7,-0.0826333  L-7,-0.10329  L-7,-0.123944  L-7,-0.144597 " /><path id= "62" d=" M -7 0.810665 L -7 0.802656 " />
<path d="M-7,-0.144597 C-7,-0.262538 -7,-0.318697 -7,-0.345291 " /><path d="M-7,0.877643 C-7,0.831383 -7,0.815261 -7,0.810665 " /><path d="M-7,-0.345291 C-7,-0.367216 -7,-0.368377 -7,-0.367985 " /><path d="M-7,-0.345291 C-7,-0.367216 -7,-0.368377 -7,-0.367985 " /><path d="M-7,1.19942 C-7,1.03114 -7,0.933385 -7,0.877643 " /><path d="M-7,1.48022 L-7,1.46028  L-7,1.44033  L-7,1.42035  L-7,1.40036  L-7,1.38035  L-7,1.36032  L-7,1.34027  L-7,1.3202  L-7,1.30011  L-7,1.28001  L-7,1.25989  L-7,1.23975  L-7,1.2196  L-7,1.19942 " /><path d="M-7,-0.364355 L-7,-0.365175  L-7,-0.367624  L-7,-0.371677  L-7,-0.377288  L-7,-0.384398  L-7,-0.392927  L-7,-0.402783  L-7,-0.413858  L-7,-0.426032  L-7,-0.43917  L-7,-0.45313  L-7,-0.467758  L-7,-0.482896  L-7,-0.498378 " /><path d="M-7,1.54816 C-7,1.55226 -7,1.54096 -7,1.48022 " /><path d="M-7,-0.498378 L-7,-0.50812  L-7,-0.517859  L-7,-0.527597  L-7,-0.537332  L-7,-0.547064  L-7,-0.556795  L-7,-0.566522  L-7,-0.576248  L-7,-0.585971  L-7,-0.595691  L-7,-0.605409  L-7,-0.615124  L-7,-0.624836  L-7,-0.634546 " /><path d="M-7,-0.634546 L-7,-0.650979  L-7,-0.667457  L-7,-0.683781  L-7,-0.699754  L-7,-0.715183  L-7,-0.729882  L-7,-0.743674  L-7,-0.756391  L-7,-0.76788  L-7,-0.778002  L-7,-0.786635  L-7,-0.793675  L-7,-0.799037  L-7,-0.802656 " /><path id= "73" d=" M -7 -0.802656 L -7 -0.810665 " />
<path d="M-7,-0.810665 C-7,-0.815261 -7,-0.831383 -7,-0.877643 " /><path d="M-7,1.73059 L-7,1.72148  L-7,1.71236  L-7,1.70323  L-7,1.69409  L-7,1.68495  L-7,1.6758  L-7,1.66664  L-7,1.65748  L-7,1.64831  L-7,1.63913  L-7,1.62994  L-7,1.62075  L-7,1.61155  L-7,1.60234 " /><path d="M-7,-0.877643 C-7,-0.933385 -7,-1.03114 -7,-1.19942 " /><path d="M-7,1.92345 L-7,1.91608  L-7,1.90715  L-7,1.89674  L-7,1.885  L-7,1.87206  L-7,1.85807  L-7,1.84321  L-7,1.82766  L-7,1.81161  L-7,1.79523  L-7,1.77875  L-7,1.76235  L-7,1.74623  L-7,1.73059 " /><path d="M-7,-1.19942 L-7,-1.2196  L-7,-1.23975  L-7,-1.25989  L-7,-1.28001  L-7,-1.30011  L-7,-1.3202  L-7,-1.34027  L-7,-1.36032  L-7,-1.38035  L-7,-1.40036  L-7,-1.42035  L-7,-1.44033  L-7,-1.46028  L-7,-1.48022 " /><path id= "79" d=" M -7 1.9422 L -7 1.92345 " />
<path d="M-7,-1.48022 C-7,-1.54096 -7,-1.55226 -7,-1.54816 " /><path d="M-7,2.04957 C-7,1.98166 -7,1.95152 -7,1.9422 " /><path d="M-7,2.47374 C-7,2.26489 -7,2.13122 -7,2.04957 " /><path d="M-7,2.72981 L-7,2.71175  L-7,2.69366  L-7,2.67553  L-7,2.65736  L-7,2.63916  L-7,2.62092  L-7,2.60264  L-7,2.58433  L-7,2.56599  L-7,2.5476  L-7,2.52919  L-7,2.51074  L-7,2.49226  L-7,2.47374 " /><path d="M-7,-1.54891 L-7,-1.55221  L-7,-1.5556  L-7,-1.55908  L-7,-1.56265  L-7,-1.5663  L-7,-1.57003  L-7,-1.57384  L-7,-1.57772  L-7,-1.58167  L-7,-1.58569  L-7,-1.58977  L-7,-1.59391  L-7,-1.5981  L-7,-1.60234 " /><path d="M-7,-1.60234 L-7,-1.61155  L-7,-1.62075  L-7,-1.62994  L-7,-1.63913  L-7,-1.64831  L-7,-1.65748  L-7,-1.66664  L-7,-1.6758  L-7,-1.68495  L-7,-1.69409  L-7,-1.70323  L-7,-1.71236  L-7,-1.72148  L-7,-1.73059 " /><path d="M-7,-1.73059 L-7,-1.74623  L-7,-1.76235  L-7,-1.77875  L-7,-1.79523  L-7,-1.81161  L-7,-1.82766  L-7,-1.84321  L-7,-1.85807  L-7,-1.87206  L-7,-1.885  L-7,-1.89674  L-7,-1.90715  L-7,-1.91608  L-7,-1.92345 " /><path id= "87" d=" M -7 -1.92345 L -7 -1.9422 " />
<path d="M-7,-1.9422 C-7,-1.95152 -7,-1.98166 -7,-2.04957 " /><path d="M-7,-2.04957 C-7,-2.13122 -7,-2.26489 -7,-2.47374 " /><path d="M-7,2.93245 L-7,2.922  L-7,2.91028  L-7,2.89743  L-7,2.8836  L-7,2.86895  L-7,2.85365  L-7,2.83788  L-7,2.82182  L-7,2.80566  L-7,2.78959  L-7,2.77378  L-7,2.75843  L-7,2.74372  L-7,2.72981 " /><path d="M-7,-2.47374 L-7,-2.49226  L-7,-2.51074  L-7,-2.52919  L-7,-2.5476  L-7,-2.56599  L-7,-2.58433  L-7,-2.60264  L-7,-2.62092  L-7,-2.63916  L-7,-2.65736  L-7,-2.67553  L-7,-2.69366  L-7,-2.71175  L-7,-2.72981 " /><path id= "92" d=" M -7 2.96087 L -7 2.93245 " />
<path d="M-7,3.10239 C-7,3.01678 -7,2.97436 -7,2.96087 " /><path d="M-7,3.60429 C-7,3.36701 -7,3.2052 -7,3.10239 " /><path d="M-7,3.82075 L-7,3.80562  L-7,3.79044  L-7,3.77521  L-7,3.75992  L-7,3.74459  L-7,3.7292  L-7,3.71376  L-7,3.69827  L-7,3.68273  L-7,3.66714  L-7,3.6515  L-7,3.63581  L-7,3.62008  L-7,3.60429 " /><path d="M-7,-2.72981 L-7,-2.74372  L-7,-2.75843  L-7,-2.77378  L-7,-2.78959  L-7,-2.80566  L-7,-2.82182  L-7,-2.83788  L-7,-2.85365  L-7,-2.86895  L-7,-2.8836  L-7,-2.89743  L-7,-2.91028  L-7,-2.922  L-7,-2.93245 " /><path id= "97" d=" M -7 -2.93245 L -7 -2.96087 " />
<path d="M-7,-2.96087 C-7,-2.97436 -7,-3.01678 -7,-3.10239 " /><path d="M-7,-3.10239 C-7,-3.2052 -7,-3.36701 -7,-3.60429 " /><path d="M-7,-3.60429 L-7,-3.62008  L-7,-3.63581  L-7,-3.6515  L-7,-3.66714  L-7,-3.68273  L-7,-3.69827  L-7,-3.71376  L-7,-3.7292  L-7,-3.74459  L-7,-3.75992  L-7,-3.77521  L-7,-3.79044  L-7,-3.80562  L-7,-3.82075 " /><path d="M-7,3.9749 C-7,3.87657 -7,3.82435 -7,3.80745 " /><path d="M-7,4.52537 C-7,4.27345 -7,4.0929 -7,3.9749 " /><path d="M-7,4.68965 L-7,4.67833  L-7,4.66694  L-7,4.65549  L-7,4.64397  L-7,4.63239  L-7,4.62075  L-7,4.60905  L-7,4.59728  L-7,4.58545  L-7,4.57356  L-7,4.56161  L-7,4.54959  L-7,4.53751  L-7,4.52537 " /><path d="M-7,-3.80745 C-7,-3.82435 -7,-3.87657 -7,-3.9749 " /><path d="M-7,-3.9749 C-7,-4.0929 -7,-4.27345 -7,-4.52537 " /><path d="M-7,-4.52537 L-7,-4.53751  L-7,-4.54959  L-7,-4.56161  L-7,-4.57356  L-7,-4.58545  L-7,-4.59728  L-7,-4.60905  L-7,-4.62075  L-7,-4.63239  L-7,-4.64397  L-7,-4.65549  L-7,-4.66694  L-7,-4.67833  L-7,-4.68965 " /><path d="M-7,5.18346 C-7,4.93154 -7,4.74274 -7,4.61641 " /><path d="M-7,5.28601 L-7,5.27914  L-7,5.27221  L-7,5.26521  L-7,5.25813  L-7,5.25098  L-7,5.24377  L-7,5.23648  L-7,5.22911  L-7,5.22168  L-7,5.21418  L-7,5.2066  L-7,5.19896  L-7,5.19124  L-7,5.18346 " /><path d="M-7,-4.61641 C-7,-4.74274 -7,-4.93154 -7,-5.18346 " /><path d="M-7,-5.18346 L-7,-5.19124  L-7,-5.19896  L-7,-5.2066  L-7,-5.21418  L-7,-5.22168  L-7,-5.22911  L-7,-5.23648  L-7,-5.24377  L-7,-5.25098  L-7,-5.25813  L-7,-5.26521  L-7,-5.27221  L-7,-5.27914  L-7,-5.28601 " /><path d="M-7,5.5403 C-7,5.30302 -7,5.11695 -7,4.98963 " /><path d="M-7,5.57515 L-7,5.57316  L-7,5.57108  L-7,5.56893  L-7,5.56671  L-7,5.56441  L-7,5.56203  L-7,5.55958  L-7,5.55705  L-7,5.55445  L-7,5.55177  L-7,5.54901  L-7,5.54618  L-7,5.54328  L-7,5.5403 " /><path d="M-7,-4.98963 C-7,-5.11695 -7,-5.30302 -7,-5.5403 " /><path d="M-7,-5.5403 L-7,-5.54328  L-7,-5.54618  L-7,-5.54901  L-7,-5.55177  L-7,-5.55445  L-7,-5.55705  L-7,-5.55958  L-7,-5.56203  L-7,-5.56441  L-7,-5.56671  L-7,-5.56893  L-7,-5.57108  L-7,-5.57316  L-7,-5.57515 " /><path d="M0,0.498378 L0,0.482896  L0,0.467758  L0,0.45313  L0,0.43917  L0,0.426032  L0,0.413858  L0,0.402783  L0,0.392927  L0,0.384398  L0,0.377288  L0,0.371677  L0,0.367624  L0,0.365175  L0,0.364355 " /><path d="M0,0.367985 C0,0.368377 0,0.367216 0,0.345291 " /><path d="M0,0.367985 C0,0.368377 0,0.367216 0,0.345291 " /><path d="M0,0.634546 L0,0.624836  L0,0.615124  L0,0.605409  L0,0.595691  L0,0.585971  L0,0.576248  L0,0.566522  L0,0.556795  L0,0.547064  L0,0.537332  L0,0.527597  L0,0.517859  L0,0.50812  L0,0.498378 " /><path d="M0,0.345291 C0,0.318697 0,0.262538 0,0.144597 " /><path d="M0,0.802656 L0,0.799037  L0,0.793675  L0,0.786635  L0,0.778002  L0,0.76788  L0,0.756391  L0,0.743674  L0,0.729882  L0,0.715183  L0,0.699754  L0,0.683781  L0,0.667457  L0,0.650979  L0,0.634546 " /><path d="M0,0.144597 L0,0.123944  L0,0.10329  L0,0.0826333  L0,0.061976  L0,0.0413178  L0,0.020659  L0,-8.32667e-17  L0,-0.020659  L0,-0.0413178  L0,-0.061976  L0,-0.0826333  L0,-0.10329  L0,-0.123944  L0,-0.144597 " /><path id= "122" d=" M 0 0.810665 L 0 0.802656 " />
<path d="M0,-0.144597 C0,-0.262538 0,-0.318697 0,-0.345291 " /><path d="M0,0.877643 C0,0.831383 0,0.815261 0,0.810665 " /><path d="M0,-0.345291 C0,-0.367216 0,-0.368377 0,-0.367985 " /><path d="M0,-0.345291 C0,-0.367216 0,-0.368377 0,-0.367985 " /><path d="M0,1.19942 C0,1.03114 0,0.933385 0,0.877643 " /><path d="M0,1.48022 L0,1.46028  L0,1.44033  L0,1.42035  L0,1.40036  L0,1.38035  L0,1.36032  L0,1.34027  L0,1.3202  L0,1.30011  L0,1.28001  L0,1.25989  L0,1.23975  L0,1.2196  L0,1.19942 " /><path d="M0,-0.364355 L0,-0.365175  L0,-0.367624  L0,-0.371677  L0,-0.377288  L0,-0.384398  L0,-0.392927  L0,-0.402783  L0,-0.413858  L0,-0.426032  L0,-0.43917  L0,-0.45313  L0,-0.467758  L0,-0.482896  L0,-0.498378 " /><path d="M0,1.54816 C0,1.55226 0,1.54096 0,1.48022 " /><path d="M0,-0.498378 L0,-0.50812  L0,-0.517859  L0,-0.527597  L0,-0.537332  L0,-0.547064  L0,-0.556795  L0,-0.566522  L0,-0.576248  L0,-0.585971  L0,-0.595691  L0,-0.605409  L0,-0.615124  L0,-0.624836  L0,-0.634546 " /><path d="M0,-0.634546 L0,-0.650979  L0,-0.667457  L0,-0.683781  L0,-0.699754  L0,-0.715183  L0,-0.729882  L0,-0.743674  L0,-0.756391  L0,-0.76788  L0,-0.778002  L0,-0.786635  L0,-0.793675  L0,-0.799037  L0,-0.802656 " /><path id= "133" d=" M 0 -0.802656 L 0 -0.810665 " />
<path d="M0,-0.810665 C0,-0.815261 0,-0.831383 0,-0.877643 " /><path d="M0,1.73059 L0,1.72148  L0,1.71236  L0,1.70323  L0,1.69409  L0,1.68495  L0,1.6758  L0,1.66664  L0,1.65748  L0,1.64831  L0,1.63913  L0,1.62994  L0,1.62075  L0,1.61155  L0,1.60234 " /><path d="M0,-0.877643 C0,-0.933385 0,-1.03114 0,-1.19942 " /><path d="M0,1.92345 L0,1.91608  L0,1.90715  L0,1.89674  L0,1.885  L0,1.87206  L0,1.85807  L0,1.84321  L0,1.82766  L0,1.81161  L0,1.79523  L0,1.77875  L0,1.76235  L0,1.74623  L0,1.73059 " /><path d="M0,-1.19942 L0,-1.2196  L0,-1.23975  L0,-1.25989  L0,-1.28001  L0,-1.30011  L0,-1.3202  L0,-1.34027  L0,-1.36032  L0,-1.38035  L0,-1.40036  L0,-1.42035  L0,-1.44033  L0,-1.46028  L0,-1.48022 " /><path id= "139" d=" M 0 1.9422 L 0 1.92345 " />
<path d="M0,-1.48022 C0,-1.54096 0,-1.55226 0,-1.54816 " /><path d="M0,2.04957 C0,1.98166 0,1.95152 0,1.9422 " /><path d="M0,2.47374 C0,2.26489 0,2.13122 0,2.04957 " /><path d="M0,2.72981 L0,2.71175  L0,2.69366  L0,2.67553  L0,2.65736  L0,2.63916  L0,2.62092  L0,2.60264  L0,2.58433  L0,2.56599  L0,2.5476  L0,2.52919  L0,2.51074  L0,2.49226  L0,2.47374 " /><path d="M0,-1.54891 L0,-1.55221  L0,-1.5556  L0,-1.55908  L0,-1.56265  L0,-1.5663  L0,-1.57003  L0,-1.57384  L0,-1.57772  L0,-1.58167  L0,-1.58569  L0,-1.58977  L0,-1.59391  L0,-1.5981  L0,-1.60234 " /><path d="M0,-1.60234 L0,-1.61155  L0,-1.62075  L0,-1.62994  L0,-1.63913  L0,-1.64831  L0,-1.65748  L0,-1.66664  L0,-1.6758  L0,-1.68495  L0,-1.69409  L0,-1.70323  L0,-1.71236  L0,-1.72148  L0,-1.73059 " /><path d="M0,-1.73059 L0,-1.74623  L0,-1.76235  L0,-1.77875  L0,-1.79523  L0,-1.81161  L0,-1.82766  L0,-1.84321  L0,-1.85807  L0,-1.87206  L0,-1.885  L0,-1.89674  L0,-1.90715  L0,-1.91608  L0,-1.92345 " /><path id= "147" d=" M 0 -1.92345 L 0 -1.9422 " />
<path d="M0,-1.9422 C0,-1.95152 0,-1.98166 0,-2.04957 " /><path d="M0,-2.04957 C0,-2.13122 0,-2.26489 0,-2.47374 " /><path d="M0,2.93245 L0,2.922  L0,2.91028  L0,2.89743  L0,2.8836  L0,2.86895  L0,2.85365  L0,2.83788  L0,2.82182  L0,2.80566  L0,2.78959  L0,2.77378  L0,2.75843  L0,2.74372  L0,2.72981 " /><path d="M0,-2.47374 L0,-2.49226  L0,-2.51074  L0,-2.52919  L0,-2.5476  L0,-2.56599  L0,-2.58433  L0,-2.60264  L0,-2.62092  L0,-2.63916  L0,-2.65736  L0,-2.67553  L0,-2.69366  L0,-2.71175  L0,-2.72981 " /><path id= "152" d=" M 0 2.96087 L 0 2.93245 " />
<path d="M0,3.10239 C0,3.01678 0,2.97436 0,2.96087 " /><path d="M0,3.60429 C0,3.36701 0,3.2052 0,3.10239 " /><path d="M0,3.82075 L0,3.80562  L0,3.79044  L0,3.77521  L0,3.75992  L0,3.74459  L0,3.7292  L0,3.71376  L0,3.69827  L0,3.68273  L0,3.66714  L0,3.6515  L0,3.63581  L0,3.62008  L0,3.60429 " /><path d="M0,-2.72981 L0,-2.74372  L0,-2.75843  L0,-2.77378  L0,-2.78959  L0,-2.80566  L0,-2.82182  L0,-2.83788  L0,-2.85365  L0,-2.86895  L0,-2.8836  L0,-2.89743  L0,-2.91028  L0,-2.922  L0,-2.93245 " /><path id= "157" d=" M 0 -2.93245 L 0 -2.96087 " />
<path d="M0,-2.96087 C0,-2.97436 0,-3.01678 0,-3.10239 " /><path d="M0,-3.10239 C0,-3.2052 0,-3.36701 0,-3.60429 " /><path d="M0,-3.60429 L0,-3.62008  L0,-3.63581  L0,-3.6515  L0,-3.66714  L0,-3.68273  L0,-3.69827  L0,-3.71376  L0,-3.7292  L0,-3.74459  L0,-3.75992  L0,-3.77521  L0,-3.79044  L0,-3.80562  L0,-3.82075 " /><path d="M0,3.9749 C0,3.87657 0,3.82435 0,3.80745 " /><path d="M0,4.52537 C0,4.27345 0,4.0929 0,3.9749 " /><path d="M0,4.68965 L0,4.67833  L0,4.66694  L0,4.65549  L0,4.64397  L0,4.63239  L0,4.62075  L0,4.60905  L0,4.59728  L0,4.58545  L0,4.57356  L0,4.56161  L0,4.54959  L0,4.53751  L0,4.52537 " /><path d="M0,-3.80745 C0,-3.82435 0,-3.87657 0,-3.9749 " /><path d="M0,-3.9749 C0,-4.0929 0,-4.27345 0,-4.52537 " /><path d="M0,-4.52537 L0,-4.53751  L0,-4.54959  L0,-4.56161  L0,-4.57356  L0,-4.58545  L0,-4.59728  L0,-4.60905  L0,-4.62075  L0,-4.63239  L0,-4.64397  L0,-4.65549  L0,-4.66694  L0,-4.67833  L0,-4.68965 " /><path d="M0,5.18346 C0,4.93154 0,4.74274 0,4.61641 " /><path d="M0,5.28601 L0,5.27914  L0,5.27221  L0,5.26521  L0,5.25813  L0,5.25098  L0,5.24377  L0,5.23648  L0,5.22911  L0,5.22168  L0,5.21418  L0,5.2066  L0,5.19896  L0,5.19124  L0,5.18346 " /><path d="M0,-4.61641 C0,-4.74274 0,-4.93154 0,-5.18346 " /><path d="M0,-5.18346 L0,-5.19124  L0,-5.19896  L0,-5.2066  L0,-5.21418  L0,-5.22168  L0,-5.22911  L0,-5.23648  L0,-5.24377  L0,-5.25098  L0,-5.25813  L0,-5.26521  L0,-5.27221  L0,-5.27914  L0,-5.28601 " /><path d="M0,5.5403 C0,5.30302 0,5.11695 0,4.98963 " /><path d="M0,5.57515 L0,5.57316  L0,5.57108  L0,5.56893  L0,5.56671  L0,5.56441  L0,5.56203  L0,5.55958  L0,5.55705  L0,5.55445  L0,5.55177  L0,5.54901  L0,5.54618  L0,5.54328  L0,5.5403 " /><path d="M0,-4.98963 C0,-5.11695 0,-5.30302 0,-5.5403 " /><path d="M0,-5.5403 L0,-5.54328  L0,-5.54618  L0,-5.54901  L0,-5.55177  L0,-5.55445  L0,-5.55705  L0,-5.55958  L0,-5.56203  L0,-5.56441  L0,-5.56671  L0,-5.56893  L0,-5.57108  L0,-5.57316  L0,-5.57515 " /><path id= "175" d=" M 0 0.367985 L -7 0.367985 " />
<path id= "176" d=" M 0 0.498378 L -7 0.498378 " />
<path id= "177" d=" M 0 0.345291 L -7 0.345291 " />
<path id= "178" d=" M 0 0.634546 L -7 0.634546 " />
<path id= "179" d=" M 0 0.144597 L -7 0.144597 " />
<path id= "180" d=" M 0 0.802656 L -7 0.802656 " />
<path id= "181" d=" M 0 -0.144597 L -7 -0.144597 " />
<path id= "182" d=" M 0 0.810665 L -7 0.810665 " />
<path id= "183" d=" M 0 -0.345291 L -7 -0.345291 " />
<path id= "184" d=" M 0 0.877643 L -7 0.877643 " />
<path id= "185" d=" M 0 -0.367985 L -7 -0.367985 " />
<path id= "186" d=" M 0 1.19942 L -7 1.19942 " />
<path id= "187" d=" M 0 1.48022 L -7 1.48022 " />
<path id= "188" d=" M 0 -0.498378 L -7 -0.498378 " />
<path id= "189" d=" M 0 -0.634546 L -7 -0.634546 " />
<path id= "190" d=" M 0 -0.802656 L -7 -0.802656 " />
<path id= "191" d=" M 0 -0.810665 L -7 -0.810665 " />
<path id= "192" d=" M 0 1.60234 L -7 1.60234 " />
<path id= "193" d=" M 0 -0.877643 L -7 -0.877643 " />
<path id= "194" d=" M 0 1.73059 L -7 1.73059 " />
<path id= "195" d=" M 0 -1.19942 L -7 -1.19942 " />
<path id= "196" d=" M 0 1.92345 L -7 1.92345 " />
<path id= "197" d=" M 0 -1.48022 L -7 -1.48022 " />
<path id= "198" d=" M 0 1.9422 L -7 1.9422 " />
<path id= "199" d=" M 0 2.04957 L -7 2.04957 " />
<path id= "200" d=" M 0 2.47374 L -7 2.47374 " />
<path id= "201" d=" M 0 2.72981 L -7 2.72981 " />
<path id= "202" d=" M 0 -1.60234 L -7 -1.60234 " />
<path id= "203" d=" M 0 -1.73059 L -7 -1.73059 " />
<path id= "204" d=" M 0 -1.92345 L -7 -1.92345 " />
<path id= "205" d=" M 0 -1.9422 L -7 -1.9422 " />
<path id= "206" d=" M 0 -2.04957 L -7 -2.04957 " />
<path id= "207" d=" M 0 -2.47374 L -7 -2.47374 " />
<path id= "208" d=" M 0 2.93245 L -7 2.93245 " />
<path id= "209" d=" M 0 -2.72981 L -7 -2.72981 " />
<path id= "210" d=" M 0 2.96087 L -7 2.96087 " />
<path id= "211" d=" M 0 3.10239 L -7 3.10239 " />
<path id= "212" d=" M 0 3.60429 L -7 3.60429 " />
<path id= "213" d=" M 0 3.82075 L -7 3.82075 " />
<path id= "214" d=" M 0 -2.93245 L -7 -2.93245 " />
<path id= "215" d=" M 0 -2.96087 L -7 -2.96087 " />
<path id= "216" d=" M 0 -3.10239 L -7 -3.10239 " />
<path id= "217" d=" M 0 -3.60429 L -7 -3.60429 " />
<path id= "218" d=" M 0 -3.82075 L -7 -3.82075 " />
<path id= "219" d=" M 0 3.9749 L -7 3.9749 " />
<path id= "220" d=" M 0 4.52537 L -7 4.52537 " />
<path id= "221" d=" M 0 4.68965 L -7 4.68965 " />
<path id= "222" d=" M 0 -3.9749 L -7 -3.9749 " />
<path id= "223" d=" M 0 -4.52537 L -7 -4.52537 " />
<path id= "224" d=" M 0 -4.68965 L -7 -4.68965 " />
<path id= "225" d=" M 0 5.18346 L -7 5.18346 " />
<path id= "226" d=" M 0 5.28601 L -7 5.28601 " />
<path id= "227" d=" M 0 -5.18346 L -7 -5.18346 " />
<path id= "228" d=" M 0 -5.28601 L -7 -5.28601 " />
<path id= "229" d=" M 0 5.5403 L -7 5.5403 " />
<path id= "230" d=" M 0 5.57515 L -7 5.57515 " />
<path id= "231" d=" M 0 -5.5403 L -7 -5.5403 " />
<path id= "232" d=" M 0 -5.57515 L -7 -5.57515 " />
<path id= "233" d=" M 0 5.57515 L -7 5.57515 " />
<path id= "234" d=" M 0 -5.57515 L -7 -5.57515 " />
</g>
</g>



<g id="Ortho_0_1"
   transform="rotate(90,89.6246,61.0003) translate(89.6246,61.0003) scale(1,1)"
  >
<g   stroke="rgb(0, 0, 0)"
   stroke-width="0.35"
   stroke-linecap="butt"
   stroke-linejoin="miter"
   fill="none"
   transform="scale(1,-1)"
  >
<path d="M2.5,-0.000159999 L2.5,-2.22045e-16 " /><path d="M2.5,-4.44089e-16 C2.50039,0.237519 2.46453,0.461562 2.4165,0.640723  C2.35588,0.867658 2.27777,1.04151 2.20359,1.18076  C2.15299,1.27316 2.1074,1.34841 2.06682,1.40651  C2.02834,1.46298 1.99965,1.50031 2,1.5 " /><path d="M2.49866,0.0819053 C2.49197,0.290117 2.45888,0.481712 2.4165,0.640723  C2.35588,0.867658 2.27777,1.04151 2.20359,1.18076  C2.15299,1.27316 2.1074,1.34841 2.06682,1.40651  C2.02834,1.46298 1.99965,1.50031 2,1.5 " /><circle cx ="0" cy ="0" r ="2.5" /><path d="M1.5,2 C1.49831,2.00095 1.409,2.07019 1.28775,2.14283  C1.18873,2.20191 1.06531,2.26862 0.894694,2.33442  C0.806367,2.36796 0.715939,2.3983 0.59274,2.42872  C0.470115,2.45829 0.314305,2.48808 0.111028,2.49753  C-0.139444,2.50942 -0.366601,2.47813 -0.513571,2.44668  C-0.801946,2.3836 -0.969519,2.30772 -1.1127,2.23873  C-1.2268,2.18033 -1.31794,2.1276 -1.38614,2.08053  C-1.45377,2.03544 -1.49943,2.00027 -1.5,2 " /><path d="M1.5,2 C1.49831,2.00095 1.409,2.07019 1.28775,2.14283  C1.18873,2.20191 1.06531,2.26862 0.894694,2.33442  C0.806367,2.36796 0.715939,2.3983 0.59274,2.42872  C0.470115,2.45829 0.314305,2.48808 0.111028,2.49753  C-0.139444,2.50942 -0.366601,2.47813 -0.513571,2.44668  C-0.801946,2.3836 -0.969519,2.30772 -1.1127,2.23873  C-1.2268,2.18033 -1.31794,2.1276 -1.38614,2.08053  C-1.45377,2.03544 -1.49943,2.00027 -1.5,2 " /><path id= "7" d=" M 4.83394 -0.36478 L 4.8804 -0.367985 " />
<path d="M4.6735 -0.498378 A0.15 0.15 0 0 0 4.83394 -0.36478" /><path d="M4.8804,-0.367985 C4.9012,-0.368377 4.96385,-0.367216 5.0682,-0.345291 " /><path d="M4.65697 -0.634546 A4.7 4.7 0 0 1 4.6735 -0.498378" /><path d="M5.0682,-0.345291 C5.19323,-0.318697 5.37385,-0.262538 5.59854,-0.144597 " /><path d="M4.78077 -0.802656 A0.15 0.15 0 0 0 4.65697 -0.634546" /><path d="M5.59854 -0.144597 A5.6 5.6 0 0 1 5.59854 0.144597" /><path id= "14" d=" M 4.82665 -0.810665 L 4.78077 -0.802656 " />
<path d="M5.59854,0.144597 C5.37385,0.262538 5.19323,0.318697 5.0682,0.345291 " /><path d="M5.00356,-0.877643 C4.90749,-0.831383 4.84694,-0.815261 4.82665,-0.810665 " /><path d="M5.0682,0.345291 C4.96385,0.367216 4.9012,0.368377 4.8804,0.367985 " /><path d="M5.47047,-1.19942 C5.28052,-1.03114 5.11859,-0.933385 5.00356,-0.877643 " /><path id= "19" d=" M 4.8804 0.367985 L 4.83394 0.36478 " />
<path d="M5.40126 -1.48022 A5.6 5.6 0 0 1 5.47047 -1.19942" /><path d="M4.83394 0.36478 A0.15 0.15 0 0 0 4.6735 0.498378" /><path d="M4.8383,-1.54816 C4.96605,-1.55226 5.15486,-1.54096 5.40126,-1.48022 " /><path d="M4.6735 0.498378 A4.7 4.7 0 0 1 4.65697 0.634546" /><path d="M4.65052,-1.52525 C4.67062,-1.53061 4.73173,-1.54447 4.8383,-1.54816 " /><path d="M4.65697 0.634546 A0.15 0.15 0 0 0 4.78077 0.802656" /><path id= "26" d=" M 4.60617 -1.51102 L 4.65052 -1.52525 " />
<path id= "27" d=" M 4.78077 0.802656 L 4.82665 0.810665 " />
<path d="M4.41843 -1.60234 A0.15 0.15 0 0 0 4.60617 -1.51102" /><path d="M4.82665,0.810665 C4.84694,0.815261 4.90749,0.831383 5.00356,0.877643 " /><path d="M4.36979 -1.73059 A4.7 4.7 0 0 1 4.41843 -1.60234" /><path d="M5.00356,0.877643 C5.11859,0.933385 5.28052,1.03114 5.47047,1.19942 " /><path d="M4.44976 -1.92345 A0.15 0.15 0 0 0 4.36979 -1.73059" /><path d="M5.47047 1.19942 A5.6 5.6 0 0 1 5.40126 1.48022" /><path id= "34" d=" M 4.49239 -1.9422 L 4.44976 -1.92345 " />
<path d="M5.40126,1.48022 C5.15486,1.54096 4.96605,1.55226 4.8383,1.54816 " /><path d="M4.64813,-2.04957 C4.56593,-1.98166 4.51099,-1.95152 4.49239,-1.9422 " /><path d="M4.8383,1.54816 C4.73173,1.54447 4.67062,1.53061 4.65052,1.52525 " /><path d="M5.02446,-2.47374 C4.88031,-2.26489 4.74648,-2.13122 4.64813,-2.04957 " /><path id= "39" d=" M 4.65052 1.52525 L 4.60617 1.51102 " />
<path d="M4.89007 -2.72981 A5.6 5.6 0 0 1 5.02446 -2.47374" /><path d="M4.60617 1.51102 A0.15 0.15 0 0 0 4.41843 1.60234" /><path d="M4.32721,-2.66105 C4.45027,-2.69561 4.6363,-2.72982 4.89007,-2.72981 " /><path d="M4.41843 1.60234 A4.7 4.7 0 0 1 4.36979 1.73059" /><path d="M4.15037,-2.59387 C4.1686,-2.60388 4.22462,-2.63197 4.32721,-2.66105 " /><path d="M4.36979 1.73059 A0.15 0.15 0 0 0 4.44976 1.92345" /><path id= "46" d=" M 4.11072 -2.56944 L 4.15037 -2.59387 " />
<path id= "47" d=" M 4.44976 1.92345 L 4.49239 1.9422 " />
<path d="M3.90657 -2.61318 A0.15 0.15 0 0 0 4.11072 -2.56944" /><path d="M4.49239,1.9422 C4.51099,1.95152 4.56593,1.98166 4.64813,2.04957 " /><path d="M3.82865 -2.72606 A4.7 4.7 0 0 1 3.90657 -2.61318" /><path d="M4.64813,2.04957 C4.74648,2.13122 4.88031,2.26489 5.02446,2.47374 " /><path d="M3.86015 -2.93245 A0.15 0.15 0 0 0 3.82865 -2.72606" /><path d="M5.02446 2.47374 A5.6 5.6 0 0 1 4.89007 2.72981" /><path id= "54" d=" M 3.89705 -2.96087 L 3.86015 -2.93245 " />
<path d="M4.89007,2.72981 C4.6363,2.72982 4.45027,2.69561 4.32721,2.66105 " /><path d="M4.02257,-3.10239 C3.95901,-3.01678 3.91288,-2.97436 3.89705,-2.96087 " /><path d="M4.32721,2.66105 C4.22462,2.63197 4.1686,2.60388 4.15037,2.59387 " /><path d="M4.28646,-3.60429 C4.19648,-3.36701 4.09852,-3.2052 4.02257,-3.10239 " /><path id= "59" d=" M 4.15037 2.59387 L 4.11072 2.56944 " />
<path d="M4.09468 -3.82075 A5.6 5.6 0 0 1 4.28646 -3.60429" /><path d="M4.11072 2.56944 A0.15 0.15 0 0 0 3.90657 2.61318" /><path d="M3.56463,-3.61929 C3.67585,-3.6823 3.84829,-3.76003 4.09468,-3.82075 " /><path d="M3.90657 2.61318 A4.7 4.7 0 0 1 3.82865 2.72606" /><path d="M3.40902,-3.51175 C3.42432,-3.52583 3.47199,-3.56651 3.56463,-3.61929 " /><path d="M3.82865 2.72606 A0.15 0.15 0 0 0 3.86015 2.93245" /><path id= "66" d=" M 3.37636 -3.47853 L 3.40902 -3.51175 " />
<path id= "67" d=" M 3.86015 2.93245 L 3.89705 2.96087 " />
<path d="M3.16768 -3.47215 A0.15 0.15 0 0 0 3.37636 -3.47853" /><path d="M3.89705,2.96087 C3.91288,2.97436 3.95901,3.01678 4.02257,3.10239 " /><path d="M3.06501 -3.56311 A4.7 4.7 0 0 1 3.16768 -3.47215" /><path d="M4.02257,3.10239 C4.09852,3.2052 4.19648,3.36701 4.28646,3.60429 " /><path d="M3.0462 -3.77103 A0.15 0.15 0 0 0 3.06501 -3.56311" /><path d="M4.28646 3.60429 A5.6 5.6 0 0 1 4.09468 3.82075" /><path id= "74" d=" M 3.07523 -3.80745 L 3.0462 -3.77103 " />
<path d="M4.09468,3.82075 C3.84829,3.76003 3.67585,3.6823 3.56463,3.61929 " /><path d="M3.16324,-3.9749 C3.122,-3.87657 3.08737,-3.82435 3.07523,-3.80745 " /><path d="M3.56463,3.61929 C3.47199,3.56651 3.42432,3.52583 3.40902,3.51175 " /><path d="M3.29934,-4.52537 C3.26876,-4.27345 3.21237,-4.0929 3.16324,-3.9749 " /><path id= "79" d=" M 3.40902 3.51175 L 3.37636 3.47853 " />
<path d="M3.06133 -4.68965 A5.6 5.6 0 0 1 3.29934 -4.52537" /><path d="M3.37636 3.47853 A0.15 0.15 0 0 0 3.16768 3.47215" /><path d="M2.5949,-4.3672 C2.68781,-4.45498 2.83663,-4.57173 3.06133,-4.68965 " /><path d="M3.16768 3.47215 A4.7 4.7 0 0 1 3.06501 3.56311" /><path d="M2.46954,-4.22553 C2.48103,-4.24287 2.51758,-4.29377 2.5949,-4.3672 " /><path d="M3.06501 3.56311 A0.15 0.15 0 0 0 3.0462 3.77103" /><path id= "86" d=" M 2.44578 -4.18547 L 2.46954 -4.22553 " />
<path id= "87" d=" M 3.0462 3.77103 L 3.07523 3.80745 " />
<path d="M2.24469 -4.12933 A0.15 0.15 0 0 0 2.44578 -4.18547" /><path d="M3.07523,3.80745 C3.08737,3.82435 3.122,3.87657 3.16324,3.9749 " /><path d="M2.12324 -4.19307 A4.7 4.7 0 0 1 2.24469 -4.12933" /><path d="M3.16324,3.9749 C3.21237,4.0929 3.26876,4.27345 3.29934,4.52537 " /><path d="M2.05521 -4.39046 A0.15 0.15 0 0 0 2.12324 -4.19307" /><path d="M3.29934 4.52537 A5.6 5.6 0 0 1 3.06133 4.68965" /><path id= "94" d=" M 2.07469 -4.43277 L 2.05521 -4.39046 " />
<path d="M3.06133,4.68965 C2.83663,4.57173 2.68781,4.45498 2.5949,4.3672 " /><path d="M2.12006,-4.61641 C2.10356,-4.51107 2.08243,-4.45207 2.07469,-4.43277 " /><path d="M2.5949,4.3672 C2.51758,4.29377 2.48103,4.24287 2.46954,4.22553 " /><path d="M2.12047,-5.18346 C2.15107,-4.93154 2.13953,-4.74274 2.12006,-4.61641 " /><path id= "99" d=" M 2.46954 4.22553 L 2.44578 4.18547 " />
<path d="M1.85007 -5.28601 A5.6 5.6 0 0 1 2.12047 -5.18346" /><path d="M2.44578 4.18547 A0.15 0.15 0 0 0 2.24469 4.12933" /><path d="M1.47436,-4.86129 C1.54356,-4.96876 1.66012,-5.11773 1.85007,-5.28601 " /><path d="M2.24469 4.12933 A4.7 4.7 0 0 1 2.12324 4.19307" /><path d="M1.38654,-4.69375 C1.39355,-4.71333 1.41685,-4.7715 1.47436,-4.86129 " /><path d="M2.12324 4.19307 A0.15 0.15 0 0 0 2.05521 4.39046" /><path id= "106" d=" M 1.37306 -4.64916 L 1.38654 -4.69375 " />
<path id= "107" d=" M 2.05521 4.39046 L 2.07469 4.43277 " />
<path d="M1.19126 -4.54653 A0.15 0.15 0 0 0 1.37306 -4.64916" /><path d="M2.07469,4.43277 C2.08243,4.45207 2.10356,4.51107 2.12006,4.61641 " /><path d="M1.05807 -4.57935 A4.7 4.7 0 0 1 1.19126 -4.54653" /><path d="M2.12006,4.61641 C2.13953,4.74274 2.15107,4.93154 2.12047,5.18346 " /><path d="M0.944787 -4.75472 A0.15 0.15 0 0 0 1.05807 -4.57935" /><path d="M2.12047 5.18346 A5.6 5.6 0 0 1 1.85007 5.28601" /><path id= "114" d=" M 0.95357 -4.80047 L 0.944787 -4.75472 " />
<path d="M1.85007,5.28601 C1.66012,5.11773 1.54356,4.96876 1.47436,4.86129 " /><path d="M0.953678,-4.98963 C0.962865,-4.8834 0.956465,-4.82106 0.95357,-4.80047 " /><path d="M1.47436,4.86129 C1.41685,4.7715 1.39355,4.71333 1.38654,4.69375 " /><path d="M0.818373,-5.5403 C0.90837,-5.30302 0.942348,-5.11695 0.953678,-4.98963 " /><path id= "119" d=" M 1.38654 4.69375 L 1.37306 4.64916 " />
<path d="M0.531287 -5.57515 A5.6 5.6 0 0 1 0.818373 -5.5403" /><path d="M1.37306 4.64916 A0.15 0.15 0 0 0 1.19126 4.54653" /><path d="M0.268131,-5.07287 C0.309601,-5.19378 0.387122,-5.36631 0.531287,-5.57515 " /><path d="M1.19126 4.54653 A4.7 4.7 0 0 1 1.05807 4.57935" /><path d="M0.222966,-4.88918 C0.225083,-4.90987 0.233788,-4.97193 0.268131,-5.07287 " /><path d="M1.05807 4.57935 A0.15 0.15 0 0 0 0.944787 4.75472" /><path id= "126" d=" M 0.220546 -4.84266 L 0.222966 -4.88918 " />
<path id= "127" d=" M 0.944787 4.75472 L 0.95357 4.80047 " />
<path d="M0.0685841 -4.6995 A0.15 0.15 0 0 0 0.220546 -4.84266" /><path d="M0.95357,4.80047 C0.956465,4.82106 0.962865,4.8834 0.953678,4.98963 " /><path d="M-0.0685841 -4.6995 A4.7 4.7 0 0 1 0.0685841 -4.6995" /><path d="M0.953678,4.98963 C0.942348,5.11695 0.90837,5.30302 0.818373,5.5403 " /><path d="M-0.220546 -4.84266 A0.15 0.15 0 0 0 -0.0685841 -4.6995" /><path d="M0.818373 5.5403 A5.6 5.6 0 0 1 0.531287 5.57515" /><path id= "134" d=" M -0.222966 -4.88918 L -0.220546 -4.84266 " />
<path d="M0.531287,5.57515 C0.387122,5.36631 0.309601,5.19378 0.268131,5.07287 " /><path d="M-0.268131,-5.07287 C-0.233788,-4.97193 -0.225083,-4.90987 -0.222966,-4.88918 " /><path d="M0.268131,5.07287 C0.233788,4.97193 0.225083,4.90987 0.222966,4.88918 " /><path d="M-0.531287,-5.57515 C-0.387122,-5.36631 -0.309601,-5.19378 -0.268131,-5.07287 " /><path id= "139" d=" M 0.222966 4.88918 L 0.220546 4.84266 " />
<path d="M-0.818373 -5.5403 A5.6 5.6 0 0 1 -0.531287 -5.57515" /><path d="M0.220546 4.84266 A0.15 0.15 0 0 0 0.0685841 4.6995" /><path d="M-0.953678,-4.98963 C-0.942348,-5.11695 -0.90837,-5.30302 -0.818373,-5.5403 " /><path d="M0.0685841 4.6995 A4.7 4.7 0 0 1 -0.0685841 4.6995" /><path d="M-0.95357,-4.80047 C-0.956465,-4.82106 -0.962865,-4.8834 -0.953678,-4.98963 " /><path d="M-0.0685841 4.6995 A0.15 0.15 0 0 0 -0.220546 4.84266" /><path id= "146" d=" M -0.944787 -4.75472 L -0.95357 -4.80047 " />
<path id= "147" d=" M -0.220546 4.84266 L -0.222966 4.88918 " />
<path d="M-1.05807 -4.57935 A0.15 0.15 0 0 0 -0.944787 -4.75472" /><path d="M-0.222966,4.88918 C-0.225083,4.90987 -0.233788,4.97193 -0.268131,5.07287 " /><path d="M-1.19126 -4.54653 A4.7 4.7 0 0 1 -1.05807 -4.57935" /><path d="M-0.268131,5.07287 C-0.309601,5.19378 -0.387122,5.36631 -0.531287,5.57515 " /><path d="M-1.37306 -4.64916 A0.15 0.15 0 0 0 -1.19126 -4.54653" /><path d="M-0.531287 5.57515 A5.6 5.6 0 0 1 -0.818373 5.5403" /><path id= "154" d=" M -1.38654 -4.69375 L -1.37306 -4.64916 " />
<path d="M-0.818373,5.5403 C-0.90837,5.30302 -0.942348,5.11695 -0.953678,4.98963 " /><path d="M-1.47436,-4.86129 C-1.41685,-4.7715 -1.39355,-4.71333 -1.38654,-4.69375 " /><path d="M-0.953678,4.98963 C-0.962865,4.8834 -0.956465,4.82106 -0.95357,4.80047 " /><path d="M-1.85007,-5.28601 C-1.66012,-5.11773 -1.54356,-4.96876 -1.47436,-4.86129 " /><path id= "159" d=" M -0.95357 4.80047 L -0.944787 4.75472 " />
<path d="M-2.12047 -5.18346 A5.6 5.6 0 0 1 -1.85007 -5.28601" /><path d="M-0.944787 4.75472 A0.15 0.15 0 0 0 -1.05807 4.57935" /><path d="M-2.12006,-4.61641 C-2.13953,-4.74274 -2.15107,-4.93154 -2.12047,-5.18346 " /><path d="M-1.05807 4.57935 A4.7 4.7 0 0 1 -1.19126 4.54653" /><path d="M-2.07469,-4.43277 C-2.08243,-4.45207 -2.10356,-4.51107 -2.12006,-4.61641 " /><path d="M-1.19126 4.54653 A0.15 0.15 0 0 0 -1.37306 4.64916" /><path id= "166" d=" M -2.05521 -4.39046 L -2.07469 -4.43277 " />
<path id= "167" d=" M -1.37306 4.64916 L -1.38654 4.69375 " />
<path d="M-2.12324 -4.19307 A0.15 0.15 0 0 0 -2.05521 -4.39046" /><path d="M-1.38654,4.69375 C-1.39355,4.71333 -1.41685,4.7715 -1.47436,4.86129 " /><path d="M-2.24469 -4.12933 A4.7 4.7 0 0 1 -2.12324 -4.19307" /><path d="M-1.47436,4.86129 C-1.54356,4.96876 -1.66012,5.11773 -1.85007,5.28601 " /><path d="M-2.44578 -4.18547 A0.15 0.15 0 0 0 -2.24469 -4.12933" /><path d="M-1.85007 5.28601 A5.6 5.6 0 0 1 -2.12047 5.18346" /><path id= "174" d=" M -2.46954 -4.22553 L -2.44578 -4.18547 " />
<path d="M-2.12047,5.18346 C-2.15107,4.93154 -2.13953,4.74274 -2.12006,4.61641 " /><path d="M-2.5949,-4.3672 C-2.51758,-4.29377 -2.48103,-4.24287 -2.46954,-4.22553 " /><path d="M-2.12006,4.61641 C-2.10356,4.51107 -2.08243,4.45207 -2.07469,4.43277 " /><path d="M-3.06133,-4.68965 C-2.83663,-4.57173 -2.68781,-4.45498 -2.5949,-4.3672 " /><path id= "179" d=" M -2.07469 4.43277 L -2.05521 4.39046 " />
<path d="M-3.29934 -4.52537 A5.6 5.6 0 0 1 -3.06133 -4.68965" /><path d="M-2.05521 4.39046 A0.15 0.15 0 0 0 -2.12324 4.19307" /><path d="M-3.16324,-3.9749 C-3.21237,-4.0929 -3.26876,-4.27345 -3.29934,-4.52537 " /><path d="M-2.12324 4.19307 A4.7 4.7 0 0 1 -2.24469 4.12933" /><path d="M-3.07523,-3.80745 C-3.08737,-3.82435 -3.122,-3.87657 -3.16324,-3.9749 " /><path d="M-2.24469 4.12933 A0.15 0.15 0 0 0 -2.44578 4.18547" /><path id= "186" d=" M -3.0462 -3.77103 L -3.07523 -3.80745 " />
<path id= "187" d=" M -2.44578 4.18547 L -2.46954 4.22553 " />
<path d="M-3.06501 -3.56311 A0.15 0.15 0 0 0 -3.0462 -3.77103" /><path d="M-2.46954,4.22553 C-2.48103,4.24287 -2.51758,4.29377 -2.5949,4.3672 " /><path d="M-3.16768 -3.47215 A4.7 4.7 0 0 1 -3.06501 -3.56311" /><path d="M-2.5949,4.3672 C-2.68781,4.45498 -2.83663,4.57173 -3.06133,4.68965 " /><path d="M-3.37636 -3.47853 A0.15 0.15 0 0 0 -3.16768 -3.47215" /><path d="M-3.06133 4.68965 A5.6 5.6 0 0 1 -3.29934 4.52537" /><path id= "194" d=" M -3.40902 -3.51175 L -3.37636 -3.47853 " />
<path d="M-3.29934,4.52537 C-3.26876,4.27345 -3.21237,4.0929 -3.16324,3.9749 " /><path d="M-3.56463,-3.61929 C-3.47199,-3.56651 -3.42432,-3.52583 -3.40902,-3.51175 " /><path d="M-3.16324,3.9749 C-3.122,3.87657 -3.08737,3.82435 -3.07523,3.80745 " /><path d="M-4.09468,-3.82075 C-3.84829,-3.76003 -3.67585,-3.6823 -3.56463,-3.61929 " /><path id= "199" d=" M -3.07523 3.80745 L -3.0462 3.77103 " />
<path d="M-4.28646 -3.60429 A5.6 5.6 0 0 1 -4.09468 -3.82075" /><path d="M-3.0462 3.77103 A0.15 0.15 0 0 0 -3.06501 3.56311" /><path d="M-4.02257,-3.10239 C-4.09852,-3.2052 -4.19648,-3.36701 -4.28646,-3.60429 " /><path d="M-3.06501 3.56311 A4.7 4.7 0 0 1 -3.16768 3.47215" /><path d="M-3.89705,-2.96087 C-3.91288,-2.97436 -3.95901,-3.01678 -4.02257,-3.10239 " /><path d="M-3.16768 3.47215 A0.15 0.15 0 0 0 -3.37636 3.47853" /><path id= "206" d=" M -3.86015 -2.93245 L -3.89705 -2.96087 " />
<path id= "207" d=" M -3.37636 3.47853 L -3.40902 3.51175 " />
<path d="M-3.82865 -2.72606 A0.15 0.15 0 0 0 -3.86015 -2.93245" /><path d="M-3.40902,3.51175 C-3.42432,3.52583 -3.47199,3.56651 -3.56463,3.61929 " /><path d="M-3.90657 -2.61318 A4.7 4.7 0 0 1 -3.82865 -2.72606" /><path d="M-3.56463,3.61929 C-3.67585,3.6823 -3.84829,3.76003 -4.09468,3.82075 " /><path d="M-4.11072 -2.56944 A0.15 0.15 0 0 0 -3.90657 -2.61318" /><path d="M-4.09468 3.82075 A5.6 5.6 0 0 1 -4.28646 3.60429" /><path id= "214" d=" M -4.15037 -2.59387 L -4.11072 -2.56944 " />
<path d="M-4.28646,3.60429 C-4.19648,3.36701 -4.09852,3.2052 -4.02257,3.10239 " /><path d="M-4.32721,-2.66105 C-4.22462,-2.63197 -4.1686,-2.60388 -4.15037,-2.59387 " /><path d="M-4.02257,3.10239 C-3.95901,3.01678 -3.91288,2.97436 -3.89705,2.96087 " /><path d="M-4.89007,-2.72981 C-4.6363,-2.72982 -4.45027,-2.69561 -4.32721,-2.66105 " /><path id= "219" d=" M -3.89705 2.96087 L -3.86015 2.93245 " />
<path d="M-5.02446 -2.47374 A5.6 5.6 0 0 1 -4.89007 -2.72981" /><path d="M-3.86015 2.93245 A0.15 0.15 0 0 0 -3.82865 2.72606" /><path d="M-4.64813,-2.04957 C-4.74648,-2.13122 -4.88031,-2.26489 -5.02446,-2.47374 " /><path d="M-3.82865 2.72606 A4.7 4.7 0 0 1 -3.90657 2.61318" /><path d="M-4.49239,-1.9422 C-4.51099,-1.95152 -4.56593,-1.98166 -4.64813,-2.04957 " /><path d="M-3.90657 2.61318 A0.15 0.15 0 0 0 -4.11072 2.56944" /><path id= "226" d=" M -4.44976 -1.92345 L -4.49239 -1.9422 " />
<path id= "227" d=" M -4.11072 2.56944 L -4.15037 2.59387 " />
<path d="M-4.36979 -1.73059 A0.15 0.15 0 0 0 -4.44976 -1.92345" /><path d="M-4.15037,2.59387 C-4.1686,2.60388 -4.22462,2.63197 -4.32721,2.66105 " /><path d="M-4.41843 -1.60234 A4.7 4.7 0 0 1 -4.36979 -1.73059" /><path d="M-4.32721,2.66105 C-4.45027,2.69561 -4.6363,2.72982 -4.89007,2.72981 " /><path d="M-4.60617 -1.51102 A0.15 0.15 0 0 0 -4.41843 -1.60234" /><path d="M-4.89007 2.72981 A5.6 5.6 0 0 1 -5.02446 2.47374" /><path id= "234" d=" M -4.65052 -1.52525 L -4.60617 -1.51102 " />
<path d="M-5.02446,2.47374 C-4.88031,2.26489 -4.74648,2.13122 -4.64813,2.04957 " /><path d="M-4.8383,-1.54816 C-4.73173,-1.54447 -4.67062,-1.53061 -4.65052,-1.52525 " /><path d="M-4.64813,2.04957 C-4.56593,1.98166 -4.51099,1.95152 -4.49239,1.9422 " /><path d="M-5.40126,-1.48022 C-5.15486,-1.54096 -4.96605,-1.55226 -4.8383,-1.54816 " /><path id= "239" d=" M -4.49239 1.9422 L -4.44976 1.92345 " />
<path d="M-5.47047 -1.19942 A5.6 5.6 0 0 1 -5.40126 -1.48022" /><path d="M-4.44976 1.92345 A0.15 0.15 0 0 0 -4.36979 1.73059" /><path d="M-5.00356,-0.877643 C-5.11859,-0.933385 -5.28052,-1.03114 -5.47047,-1.19942 " /><path d="M-4.36979 1.73059 A4.7 4.7 0 0 1 -4.41843 1.60234" /><path d="M-4.82665,-0.810665 C-4.84694,-0.815261 -4.90749,-0.831383 -5.00356,-0.877643 " /><path d="M-4.41843 1.60234 A0.15 0.15 0 0 0 -4.60617 1.51102" /><path id= "246" d=" M -4.78077 -0.802656 L -4.82665 -0.810665 " />
<path id= "247" d=" M -4.60617 1.51102 L -4.65052 1.52525 " />
<path d="M-4.65697 -0.634546 A0.15 0.15 0 0 0 -4.78077 -0.802656" /><path d="M-4.65052,1.52525 C-4.67062,1.53061 -4.73173,1.54447 -4.8383,1.54816 " /><path d="M-4.6735 -0.498378 A4.7 4.7 0 0 1 -4.65697 -0.634546" /><path d="M-4.8383,1.54816 C-4.96605,1.55226 -5.15486,1.54096 -5.40126,1.48022 " /><path d="M-4.83394 -0.36478 A0.15 0.15 0 0 0 -4.6735 -0.498378" /><path d="M-5.40126 1.48022 A5.6 5.6 0 0 1 -5.47047 1.19942" /><path id= "254" d=" M -4.8804 -0.367985 L -4.83394 -0.36478 " />
<path d="M-5.47047,1.19942 C-5.28052,1.03114 -5.11859,0.933385 -5.00356,0.877643 " /><path d="M-5.0682,-0.345291 C-4.96385,-0.367216 -4.9012,-0.368377 -4.8804,-0.367985 " /><path d="M-5.00356,0.877643 C-4.90749,0.831383 -4.84694,0.815261 -4.82665,0.810665 " /><path d="M-5.59854,-0.144597 C-5.37385,-0.262538 -5.19323,-0.318697 -5.0682,-0.345291 " /><path id= "259" d=" M -4.82665 0.810665 L -4.78077 0.802656 " />
<path d="M-5.59854 0.144597 A5.6 5.6 0 0 1 -5.59854 -0.144597" /><path d="M-4.78077 0.802656 A0.15 0.15 0 0 0 -4.65697 0.634546" /><path d="M-5.0682,0.345291 C-5.19323,0.318697 -5.37385,0.262538 -5.59854,0.144597 " /><path d="M-4.65697 0.634546 A4.7 4.7 0 0 1 -4.6735 0.498378" /><path d="M-4.8804,0.367985 C-4.9012,0.368377 -4.96385,0.367216 -5.0682,0.345291 " /><path d="M-4.6735 0.498378 A0.15 0.15 0 0 0 -4.83394 0.36478" /><path id= "266" d=" M -4.83394 0.36478 L -4.8804 0.367985 " />
</g>
</g>



<g id="Ortho_1_0"
   transform="rotate(-90,207.25,89.0007) translate(207.25,89.0007) scale(1,1)"
  >
<g   stroke="rgb(0, 0, 0)"
   stroke-width="0.35"
   stroke-linecap="butt"
   stroke-linejoin="miter"
   fill="none"
   transform="scale(1,-1)"
  >
<path id= "1" d=" M -11 -4.5 L -7 -4.5 " />
<path id= "2" d=" M -7 5.60041 L 0 5.60041 " />
<path d="M0,2.1393 L-7,2.1393 " /><path d="M0,0.958447 L-7,0.958447 " /><path d="M0,-0.958447 L-7,-0.958447 " /><path d="M0,-2.1393 L-7,-2.1393 " /><path id= "7" d=" M -7 -5.60041 L 0 -5.60041 " />
</g>
<g   stroke="rgb(0, 0, 0)"
   stroke-width="0.35"
   stroke-linecap="butt"
   stroke-linejoin="miter"
   fill="none"
   transform="scale(1,-1)"
  >
<path d="M-11,-4.5 L-11,-4.38718  L-11,-4.05436  L-11,-3.51824  L-11,-2.8057  L-11,-1.95248  L-11,-1.00134  L-11,7.16697e-15  L-11,1.00134  L-11,1.95248  L-11,2.8057  L-11,3.51824  L-11,4.05436  L-11,4.38718  L-11,4.5 " /><path d="M-7,-1.05807 L-7,-1.05097  L-7,-1.04387  L-7,-1.03677  L-7,-1.02966  L-7,-1.02255  L-7,-1.01544  L-7,-1.00833  L-7,-1.00121  L-7,-0.994087  L-7,-0.986964  L-7,-0.979839  L-7,-0.972711  L-7,-0.96558  L-7,-0.958447 " /><path d="M-7,0.958447 L-7,0.96558  L-7,0.972711  L-7,0.979839  L-7,0.986964  L-7,0.994087  L-7,1.00121  L-7,1.00833  L-7,1.01544  L-7,1.02255  L-7,1.02966  L-7,1.03677  L-7,1.04387  L-7,1.05097  L-7,1.05807 " /><path id= "4" d=" M -7 4.5 L -7.5 4.5 " />
<path d="M-9,4.24264 C-8.79605,4.24247 -8.60174,4.25808 -8.44007,4.27943  C-8.31975,4.29566 -8.21166,4.31378 -8.11579,4.3338  C-7.99169,4.35974 -7.88371,4.38558 -7.79186,4.4113  C-7.62777,4.45621 -7.50091,4.49991 -7.5,4.5 " /><path d="M-9,4.24264 C-9.20395,4.24247 -9.39826,4.25808 -9.55993,4.27943  C-9.68025,4.29566 -9.78834,4.31378 -9.88421,4.3338  C-10.0083,4.35974 -10.1163,4.38558 -10.2081,4.4113  C-10.3722,4.45621 -10.4991,4.49991 -10.5,4.5 " /><path id= "7" d=" M -10.5 4.5 L -11 4.5 " />
<path d="M-10.5,4.5 C-10.5005,4.50027 -10.4234,4.47392 -10.317,4.44236 " /><path d="M-10.2925,4.43516 Q-10.2507,4.42295 -10.2031,4.40993 " /><path d="M-10.1663,4.40002 L-10.1451,4.39446 " /><path d="M-10.0889,4.38016 L-10.0463,4.36975 " /><path d="M-10.0016,4.35927 L-9.99723,4.35826 " /><path d="M-9.99689,4.35819 L-9.97553,4.35335 " /><path d="M-9.88825,4.33463 L-9.82877,4.32283 " /><path d="M-9.72367,4.30392 L-9.72367,4.30392 " /><path d="M-9.71938,4.3032 L-9.71938,4.3032 " /><path d="M-9.68015,4.29681 L-9.59876,4.28468 " /><path d="M-9.51718,4.27405 Q-9.45091,4.26598 -9.37918,4.25955 " /><path d="M-9.37865,4.2595 L-9.34763,4.25686 " /><path d="M-9.34293,4.25648 L-9.33498,4.25584 " /><path d="M-9.08758,4.24354 L-9.03039,4.24275 " /><path d="M-9.02949,4.24274 L-9.02829,4.24273 " /><path d="M-9.0003,4.24264 L-9,4.24264 " /><path d="M-7.5,4.5 C-7.4995,4.50027 -7.57661,4.47392 -7.68298,4.44236 " /><path d="M-7.70746,4.43516 Q-7.74926,4.42295 -7.79687,4.40993 " /><path d="M-7.83375,4.40002 L-7.85488,4.39446 " /><path d="M-7.91105,4.38016 L-7.95372,4.36975 " /><path d="M-7.99839,4.35927 L-8.00277,4.35826 " /><path d="M-8.00311,4.35819 L-8.02447,4.35335 " /><path d="M-8.11175,4.33463 L-8.17123,4.32283 " /><path d="M-8.27633,4.30392 L-8.27633,4.30392 " /><path d="M-8.28062,4.3032 L-8.28062,4.3032 " /><path d="M-8.31985,4.29681 L-8.40124,4.28468 " /><path d="M-8.48282,4.27405 Q-8.54909,4.26598 -8.62082,4.25955 " /><path d="M-8.62135,4.2595 L-8.65237,4.25686 " /><path d="M-8.65707,4.25648 L-8.66502,4.25584 " /><path d="M-8.91242,4.24354 L-8.96961,4.24275 " /><path d="M-8.97051,4.24274 L-8.97171,4.24273 " /><path d="M-8.9997,4.24264 L-9,4.24264 " /><path d="M-9,-1.5 C-9.39698,-1.49511 -9.68787,-1.36221 -9.9245,-1.18123  C-10.0443,-1.08929 -10.1522,-0.972858 -10.2482,-0.831918  C-10.3049,-0.749366 -10.3565,-0.649141 -10.4028,-0.531242  C-10.4374,-0.441579 -10.4794,-0.296654 -10.4933,-0.141788  C-10.5087,0.0134397 -10.4969,0.180704 -10.4648,0.323002  C-10.4277,0.489765 -10.3708,0.620576 -10.3118,0.727513  C-10.2518,0.834731 -10.1904,0.91841 -10.1189,0.998977  C-10.0006,1.13088 -9.86487,1.23801 -9.71178,1.32037  C-9.51818,1.42469 -9.27667,1.49978 -9,1.5 " /><path d="M-9,-1.5 C-8.60302,-1.49511 -8.31213,-1.36221 -8.0755,-1.18123  C-7.95568,-1.08929 -7.84779,-0.972858 -7.75184,-0.831918  C-7.69506,-0.749366 -7.64353,-0.649141 -7.59722,-0.531242  C-7.56256,-0.441579 -7.5206,-0.296654 -7.50672,-0.141788  C-7.49127,0.0134397 -7.50311,0.180704 -7.53519,0.323002  C-7.57233,0.489765 -7.62925,0.620576 -7.68824,0.727513  C-7.74817,0.834731 -7.80961,0.91841 -7.88105,0.998977  C-7.99941,1.13088 -8.13513,1.23801 -8.28822,1.32037  C-8.48182,1.42469 -8.72333,1.49978 -9,1.5 " /><path d="M0,1.05807 L0,1.05102  L0,1.04396  L0,1.03689  L0,1.0298  L0,1.02271  L0,1.01561  L0,1.0085  L0,1.00138  L0,0.994246  L0,0.987106  L0,0.979955  L0,0.972795  L0,0.965626  L0,0.958447 " /><path d="M0,-0.958447 L0,-0.965626  L0,-0.972795  L0,-0.979955  L0,-0.987106  L0,-0.994246  L0,-1.00138  L0,-1.0085  L0,-1.01561  L0,-1.02271  L0,-1.0298  L0,-1.03689  L0,-1.04396  L0,-1.05102  L0,-1.05807 " /><path d="M-9.66433,1.34487 L-9.72648,1.31234 " /><path d="M-9.7356,1.30724 L-9.73656,1.30671 " /><path d="M-9.79426,1.27246 C-9.9489,1.17506 -10.0847,1.05485 -10.2068,0.89089 " /><path d="M-10.2775,0.786098 L-10.3102,0.730304 " /><path d="M-10.3954,0.550356 L-10.4083,0.516298 " /><path d="M-10.496,0.110019 L-10.4999,0.0136385 " /><path d="M-10.4786,-0.252641 C-10.4597,-0.355034 -10.4367,-0.442011 -10.4093,-0.513571  C-10.2997,-0.801946 -10.1597,-0.969519 -10.0059,-1.1127  C-9.88042,-1.2268 -9.73619,-1.31794 -9.57325,-1.38614  C-9.40853,-1.45377 -9.22028,-1.49943 -9,-1.5 " /><path d="M-8.33567,1.34487 L-8.27352,1.31234 " /><path d="M-8.2644,1.30724 L-8.26344,1.30671 " /><path d="M-8.20574,1.27246 C-8.0511,1.17506 -7.91526,1.05485 -7.79322,0.890891 " /><path d="M-7.72248,0.786098 L-7.68979,0.730304 " /><path d="M-7.60461,0.550357 L-7.59165,0.516298 " /><path d="M-7.50404,0.11002 L-7.50006,0.0136389 " /><path d="M-7.52143,-0.25264 C-7.54026,-0.355034 -7.56334,-0.442011 -7.59066,-0.513571  C-7.70027,-0.801946 -7.84029,-0.969519 -7.99407,-1.1127  C-8.11958,-1.2268 -8.26381,-1.31794 -8.42675,-1.38614  C-8.59147,-1.45377 -8.77972,-1.49943 -9,-1.5 " /><path d="M-7,5.60041 L-7,5.6004  L-7,5.60037  L-7,5.60033  L-7,5.60026  L-7,5.60017  L-7,5.60007  L-7,5.59994  L-7,5.5998  L-7,5.59964  L-7,5.59946  L-7,5.59926  L-7,5.59904  L-7,5.5988  L-7,5.59854 " /><path d="M-7,5.59854 C-7,5.37385 -7,5.19323 -7,5.0682 " /><path d="M-7,5.47047 L-7,5.466  L-7,5.46147  L-7,5.45686  L-7,5.45217  L-7,5.44741  L-7,5.44258  L-7,5.43767  L-7,5.43269  L-7,5.42764  L-7,5.42251  L-7,5.41731  L-7,5.41203  L-7,5.40668  L-7,5.40126 " /><path d="M-7,5.40126 C-7,5.15486 -7,4.96605 -7,4.8383 " /><path d="M-7,5.02446 L-7,5.0153  L-7,5.00608  L-7,4.99678  L-7,4.98742  L-7,4.97798  L-7,4.96849  L-7,4.95892  L-7,4.94928  L-7,4.93958  L-7,4.92981  L-7,4.91998  L-7,4.91007  L-7,4.9001  L-7,4.89007 " /><path d="M-7,4.89007 C-7,4.6363 -7,4.45027 -7,4.32721 " /><path d="M-7,4.32721 C-7,4.22462 -7,4.1686 -7,4.15037 " /><path d="M-7,4.28646 L-7,4.27313  L-7,4.25975  L-7,4.24631  L-7,4.23281  L-7,4.21925  L-7,4.20564  L-7,4.19197  L-7,4.17824  L-7,4.16446  L-7,4.15061  L-7,4.13672  L-7,4.12276  L-7,4.10875  L-7,4.09468 " /><path d="M-7,4.09468 C-7,3.84829 -7,3.67585 -7,3.56463 " /><path d="M-7,3.56463 C-7,3.47199 -7,3.42432 -7,3.40902 " /><path id= "68" d=" M -7 3.40902 L -7 3.37636 " />
<path d="M-7,3.37636 L-7,3.37182  L-7,3.3671  L-7,3.36221  L-7,3.35714  L-7,3.35191  L-7,3.34654  L-7,3.34102  L-7,3.33537  L-7,3.32961  L-7,3.32373  L-7,3.31775  L-7,3.31169  L-7,3.30555  L-7,3.29934 " /><path d="M-7,3.29934 L-7,3.28262  L-7,3.26586  L-7,3.24906  L-7,3.23221  L-7,3.21531  L-7,3.19838  L-7,3.1814  L-7,3.16437  L-7,3.14731  L-7,3.1302  L-7,3.11304  L-7,3.09585  L-7,3.07861  L-7,3.06133 " /><path d="M-7,3.06133 C-7,2.83663 -7,2.68781 -7,2.5949 " /><path d="M-7,2.5949 C-7,2.51758 -7,2.48103 -7,2.46954 " /><path id= "73" d=" M -7 2.46954 L -7 2.44578 " />
<path d="M-7,2.44578 L-7,2.43669  L-7,2.42615  L-7,2.41428  L-7,2.40123  L-7,2.38715  L-7,2.37222  L-7,2.35661  L-7,2.34051  L-7,2.32412  L-7,2.30763  L-7,2.29125  L-7,2.27517  L-7,2.25959  L-7,2.24469 " /><path d="M-7,2.24469 L-7,2.23608  L-7,2.22746  L-7,2.21883  L-7,2.21018  L-7,2.20153  L-7,2.19287  L-7,2.1842  L-7,2.17552  L-7,2.16683  L-7,2.15813  L-7,2.14942  L-7,2.1407  L-7,2.13197  L-7,2.12324 " /><path d="M-7,2.12006 C-7,2.13953 -7,2.15107 -7,2.12047 " /><path d="M-7,2.12047 L-7,2.10134  L-7,2.08217  L-7,2.06298  L-7,2.04376  L-7,2.02451  L-7,2.00524  L-7,1.98593  L-7,1.9666  L-7,1.94725  L-7,1.92786  L-7,1.90845  L-7,1.88902  L-7,1.86956  L-7,1.85007 " /><path d="M-7,1.85007 C-7,1.66012 -7,1.54356 -7,1.47436 " /><path d="M-7,1.47436 C-7,1.41685 -7,1.39355 -7,1.38654 " /><path id= "80" d=" M -7 1.38654 L -7 1.37306 " />
<path d="M-7,1.37306 L-7,1.36753  L-7,1.36033  L-7,1.35154  L-7,1.34128  L-7,1.32966  L-7,1.31683  L-7,1.30294  L-7,1.28816  L-7,1.27267  L-7,1.25666  L-7,1.24031  L-7,1.22383  L-7,1.20741  L-7,1.19126 " /><path d="M-7,1.19126 L-7,1.18177  L-7,1.17229  L-7,1.1628  L-7,1.1533  L-7,1.1438  L-7,1.13429  L-7,1.12478  L-7,1.11527  L-7,1.10575  L-7,1.09622  L-7,1.08669  L-7,1.07716  L-7,1.06762  L-7,1.05807 " /><path d="M-7,1.05807 L-7,1.04907  L-7,1.04023  L-7,1.03159  L-7,1.02319  L-7,1.01505  L-7,1.0072  L-7,0.999685  L-7,0.992523  L-7,0.985743  L-7,0.979372  L-7,0.973435  L-7,0.967955  L-7,0.962953  L-7,0.958447 " /><path d="M-7,0.95357 C-7,0.956465 -7,0.962865 -7,0.953678 " /><path d="M-7,0.953678 C-7,0.942348 -7,0.90837 -7,0.818373 " /><path d="M-7,0.818373 L-7,0.79793  L-7,0.777477  L-7,0.757012  L-7,0.736538  L-7,0.716053  L-7,0.695559  L-7,0.675055  L-7,0.654542  L-7,0.63402  L-7,0.61349  L-7,0.592951  L-7,0.572404  L-7,0.551849  L-7,0.531287 " /><path d="M-7,0.531287 C-7,0.387122 -7,0.309601 -7,0.268131 " /><path d="M-7,0.268131 C-7,0.233788 -7,0.225083 -7,0.222966 " /><path id= "89" d=" M -7 0.222966 L -7 0.220546 " />
<path d="M-7,0.220546 L-7,0.218892  L-7,0.215448  L-7,0.210256  L-7,0.203379  L-7,0.194899  L-7,0.184918  L-7,0.173558  L-7,0.160956  L-7,0.147264  L-7,0.132647  L-7,0.117282  L-7,0.101354  L-7,0.0850556  L-7,0.0685841 " /><path d="M-7,0.0685841 L-7,0.0587869  L-7,0.0489895  L-7,0.0391919  L-7,0.029394  L-7,0.0195961  L-7,0.00979807  L-7,9.71445e-16  L-7,-0.00979807  L-7,-0.0195961  L-7,-0.029394  L-7,-0.0391919  L-7,-0.0489895  L-7,-0.0587869  L-7,-0.0685841 " /><path d="M-7,-0.0685841 L-7,-0.0850556  L-7,-0.101354  L-7,-0.117282  L-7,-0.132647  L-7,-0.147264  L-7,-0.160956  L-7,-0.173558  L-7,-0.184918  L-7,-0.194899  L-7,-0.203379  L-7,-0.210256  L-7,-0.215448  L-7,-0.218892  L-7,-0.220546 " /><path id= "93" d=" M -7 -0.220546 L -7 -0.222966 " />
<path d="M-7,-0.222966 C-7,-0.225083 -7,-0.233788 -7,-0.268131 " /><path d="M-7,-0.268131 C-7,-0.309601 -7,-0.387122 -7,-0.531287 " /><path d="M-7,-0.531287 L-7,-0.551849  L-7,-0.572404  L-7,-0.592951  L-7,-0.61349  L-7,-0.63402  L-7,-0.654542  L-7,-0.675055  L-7,-0.695559  L-7,-0.716053  L-7,-0.736538  L-7,-0.757012  L-7,-0.777477  L-7,-0.79793  L-7,-0.818373 " /><path d="M-7,-0.818373 C-7,-0.90837 -7,-0.942348 -7,-0.953678 " /><path d="M-7,-0.953678 C-7,-0.962865 -7,-0.956465 -7,-0.95357 " /><path d="M-7,-0.958447 L-7,-0.962953  L-7,-0.967955  L-7,-0.973435  L-7,-0.979372  L-7,-0.985743  L-7,-0.992523  L-7,-0.999685  L-7,-1.0072  L-7,-1.01505  L-7,-1.02319  L-7,-1.03159  L-7,-1.04023  L-7,-1.04907  L-7,-1.05807 " /><path d="M-7,-1.05807 L-7,-1.06762  L-7,-1.07716  L-7,-1.08669  L-7,-1.09622  L-7,-1.10575  L-7,-1.11527  L-7,-1.12478  L-7,-1.13429  L-7,-1.1438  L-7,-1.1533  L-7,-1.1628  L-7,-1.17229  L-7,-1.18177  L-7,-1.19126 " /><path d="M-7,-1.19126 L-7,-1.20741  L-7,-1.22383  L-7,-1.24031  L-7,-1.25666  L-7,-1.27267  L-7,-1.28816  L-7,-1.30294  L-7,-1.31683  L-7,-1.32966  L-7,-1.34128  L-7,-1.35154  L-7,-1.36033  L-7,-1.36753  L-7,-1.37306 " /><path id= "102" d=" M -7 -1.37306 L -7 -1.38654 " />
<path d="M-7,-1.38654 C-7,-1.39355 -7,-1.41685 -7,-1.47436 " /><path d="M-7,-1.47436 C-7,-1.54356 -7,-1.66012 -7,-1.85007 " /><path d="M-7,-1.85007 L-7,-1.86956  L-7,-1.88902  L-7,-1.90845  L-7,-1.92786  L-7,-1.94725  L-7,-1.9666  L-7,-1.98593  L-7,-2.00524  L-7,-2.02451  L-7,-2.04376  L-7,-2.06298  L-7,-2.08217  L-7,-2.10134  L-7,-2.12047 " /><path d="M-7,-2.12047 C-7,-2.15107 -7,-2.13953 -7,-2.12006 " /><path d="M-7,-2.12324 L-7,-2.13197  L-7,-2.1407  L-7,-2.14942  L-7,-2.15813  L-7,-2.16683  L-7,-2.17552  L-7,-2.1842  L-7,-2.19287  L-7,-2.20153  L-7,-2.21018  L-7,-2.21883  L-7,-2.22746  L-7,-2.23608  L-7,-2.24469 " /><path d="M-7,-2.24469 L-7,-2.25959  L-7,-2.27517  L-7,-2.29125  L-7,-2.30763  L-7,-2.32412  L-7,-2.34051  L-7,-2.35661  L-7,-2.37222  L-7,-2.38715  L-7,-2.40123  L-7,-2.41428  L-7,-2.42615  L-7,-2.43669  L-7,-2.44578 " /><path id= "109" d=" M -7 -2.44578 L -7 -2.46954 " />
<path d="M-7,-2.46954 C-7,-2.48103 -7,-2.51758 -7,-2.5949 " /><path d="M-7,-2.5949 C-7,-2.68781 -7,-2.83663 -7,-3.06133 " /><path d="M-7,-3.06133 L-7,-3.07861  L-7,-3.09585  L-7,-3.11304  L-7,-3.1302  L-7,-3.14731  L-7,-3.16437  L-7,-3.1814  L-7,-3.19838  L-7,-3.21531  L-7,-3.23221  L-7,-3.24906  L-7,-3.26586  L-7,-3.28262  L-7,-3.29934 " /><path d="M-7,-3.29934 L-7,-3.30555  L-7,-3.31169  L-7,-3.31775  L-7,-3.32373  L-7,-3.32961  L-7,-3.33537  L-7,-3.34102  L-7,-3.34654  L-7,-3.35191  L-7,-3.35714  L-7,-3.36221  L-7,-3.3671  L-7,-3.37182  L-7,-3.37636 " /><path id= "114" d=" M -7 -3.37636 L -7 -3.40902 " />
<path d="M-7,-3.40902 C-7,-3.42432 -7,-3.47199 -7,-3.56463 " /><path d="M-7,-3.56463 C-7,-3.67585 -7,-3.84829 -7,-4.09468 " /><path d="M-7,-4.09468 L-7,-4.10875  L-7,-4.12276  L-7,-4.13672  L-7,-4.15061  L-7,-4.16446  L-7,-4.17824  L-7,-4.19197  L-7,-4.20564  L-7,-4.21925  L-7,-4.23281  L-7,-4.24631  L-7,-4.25975  L-7,-4.27313  L-7,-4.28646 " /><path d="M-7,-4.15037 C-7,-4.1686 -7,-4.22462 -7,-4.32721 " /><path d="M-7,-4.32721 C-7,-4.45027 -7,-4.6363 -7,-4.89007 " /><path d="M-7,-4.89007 L-7,-4.9001  L-7,-4.91007  L-7,-4.91998  L-7,-4.92981  L-7,-4.93958  L-7,-4.94928  L-7,-4.95892  L-7,-4.96849  L-7,-4.97798  L-7,-4.98742  L-7,-4.99678  L-7,-5.00608  L-7,-5.0153  L-7,-5.02446 " /><path d="M-7,-4.8383 C-7,-4.96605 -7,-5.15486 -7,-5.40126 " /><path d="M-7,-5.40126 L-7,-5.40668  L-7,-5.41203  L-7,-5.41731  L-7,-5.42251  L-7,-5.42764  L-7,-5.43269  L-7,-5.43767  L-7,-5.44258  L-7,-5.44741  L-7,-5.45217  L-7,-5.45686  L-7,-5.46147  L-7,-5.466  L-7,-5.47047 " /><path d="M-7,-5.59854 L-7,-5.5988  L-7,-5.59904  L-7,-5.59926  L-7,-5.59946  L-7,-5.59964  L-7,-5.5998  L-7,-5.59994  L-7,-5.60007  L-7,-5.60017  L-7,-5.60026  L-7,-5.60033  L-7,-5.60037  L-7,-5.6004  L-7,-5.60041 " /><path d="M-7,-5.0682 C-7,-5.19323 -7,-5.37385 -7,-5.59854 " /><path d="M0,5.60041 L0,5.6004  L0,5.60037  L0,5.60033  L0,5.60026  L0,5.60017  L0,5.60007  L0,5.59994  L0,5.5998  L0,5.59964  L0,5.59946  L0,5.59926  L0,5.59904  L0,5.5988  L0,5.59854 " /><path d="M0,5.59854 C0,5.37385 0,5.19323 0,5.0682 " /><path d="M0,5.47047 L0,5.466  L0,5.46147  L0,5.45686  L0,5.45217  L0,5.44741  L0,5.44258  L0,5.43767  L0,5.43269  L0,5.42764  L0,5.42251  L0,5.41731  L0,5.41203  L0,5.40668  L0,5.40126 " /><path d="M0,5.40126 C0,5.15486 0,4.96605 0,4.8383 " /><path d="M0,5.02446 L0,5.0153  L0,5.00608  L0,4.99678  L0,4.98742  L0,4.97798  L0,4.96849  L0,4.95892  L0,4.94928  L0,4.93958  L0,4.92981  L0,4.91998  L0,4.91007  L0,4.9001  L0,4.89007 " /><path d="M0,4.89007 C0,4.6363 0,4.45027 0,4.32721 " /><path d="M0,4.32721 C0,4.22462 0,4.1686 0,4.15037 " /><path d="M0,4.28646 L0,4.27313  L0,4.25975  L0,4.24631  L0,4.23281  L0,4.21925  L0,4.20564  L0,4.19197  L0,4.17824  L0,4.16446  L0,4.15061  L0,4.13672  L0,4.12276  L0,4.10875  L0,4.09468 " /><path d="M0,4.09468 C0,3.84829 0,3.67585 0,3.56463 " /><path d="M0,3.56463 C0,3.47199 0,3.42432 0,3.40902 " /><path id= "135" d=" M 0 3.40902 L 0 3.37636 " />
<path d="M0,3.37636 L0,3.37182  L0,3.3671  L0,3.36221  L0,3.35714  L0,3.35191  L0,3.34654  L0,3.34102  L0,3.33537  L0,3.32961  L0,3.32373  L0,3.31775  L0,3.31169  L0,3.30555  L0,3.29934 " /><path d="M0,3.29934 L0,3.28262  L0,3.26586  L0,3.24906  L0,3.23221  L0,3.21531  L0,3.19838  L0,3.1814  L0,3.16437  L0,3.14731  L0,3.1302  L0,3.11304  L0,3.09585  L0,3.07861  L0,3.06133 " /><path d="M0,3.06133 C0,2.83663 0,2.68781 0,2.5949 " /><path d="M0,2.5949 C0,2.51758 0,2.48103 0,2.46954 " /><path id= "140" d=" M 0 2.46954 L 0 2.44578 " />
<path d="M0,2.44578 L0,2.43669  L0,2.42615  L0,2.41428  L0,2.40123  L0,2.38715  L0,2.37222  L0,2.35661  L0,2.34051  L0,2.32412  L0,2.30763  L0,2.29125  L0,2.27517  L0,2.25959  L0,2.24469 " /><path d="M0,2.24469 L0,2.23608  L0,2.22746  L0,2.21883  L0,2.21018  L0,2.20153  L0,2.19287  L0,2.1842  L0,2.17552  L0,2.16683  L0,2.15813  L0,2.14942  L0,2.1407  L0,2.13197  L0,2.12324 " /><path d="M0,2.12006 C0,2.13953 0,2.15107 0,2.12047 " /><path d="M0,2.12047 L0,2.10134  L0,2.08217  L0,2.06298  L0,2.04376  L0,2.02451  L0,2.00524  L0,1.98593  L0,1.9666  L0,1.94725  L0,1.92786  L0,1.90845  L0,1.88902  L0,1.86956  L0,1.85007 " /><path d="M0,1.85007 C0,1.66012 0,1.54356 0,1.47436 " /><path d="M0,1.47436 C0,1.41685 0,1.39355 0,1.38654 " /><path id= "147" d=" M 0 1.38654 L 0 1.37306 " />
<path d="M0,1.37306 L0,1.36753  L0,1.36033  L0,1.35154  L0,1.34128  L0,1.32966  L0,1.31683  L0,1.30294  L0,1.28816  L0,1.27267  L0,1.25666  L0,1.24031  L0,1.22383  L0,1.20741  L0,1.19126 " /><path d="M0,1.19126 L0,1.18177  L0,1.17229  L0,1.1628  L0,1.1533  L0,1.1438  L0,1.13429  L0,1.12478  L0,1.11527  L0,1.10575  L0,1.09622  L0,1.08669  L0,1.07716  L0,1.06762  L0,1.05807 " /><path d="M0,1.05807 L0,1.04907  L0,1.04023  L0,1.03159  L0,1.02319  L0,1.01505  L0,1.0072  L0,0.999685  L0,0.992523  L0,0.985743  L0,0.979372  L0,0.973435  L0,0.967955  L0,0.962953  L0,0.958447 " /><path d="M0,0.95357 C0,0.956465 0,0.962865 0,0.953678 " /><path d="M0,0.953678 C0,0.942348 0,0.90837 0,0.818373 " /><path d="M0,0.818373 L0,0.79793  L0,0.777477  L0,0.757012  L0,0.736538  L0,0.716053  L0,0.695559  L0,0.675055  L0,0.654542  L0,0.63402  L0,0.61349  L0,0.592951  L0,0.572404  L0,0.551849  L0,0.531287 " /><path d="M0,0.531287 C0,0.387122 0,0.309601 0,0.268131 " /><path d="M0,0.268131 C0,0.233788 0,0.225083 0,0.222966 " /><path id= "156" d=" M 0 0.222966 L 0 0.220546 " />
<path d="M0,0.220546 L0,0.218892  L0,0.215448  L0,0.210256  L0,0.203379  L0,0.194899  L0,0.184918  L0,0.173558  L0,0.160956  L0,0.147264  L0,0.132647  L0,0.117282  L0,0.101354  L0,0.0850556  L0,0.0685841 " /><path d="M0,0.0685841 L0,0.0587869  L0,0.0489895  L0,0.0391919  L0,0.029394  L0,0.0195961  L0,0.00979807  L0,9.71445e-16  L0,-0.00979807  L0,-0.0195961  L0,-0.029394  L0,-0.0391919  L0,-0.0489895  L0,-0.0587869  L0,-0.0685841 " /><path d="M0,-0.0685841 L0,-0.0850556  L0,-0.101354  L0,-0.117282  L0,-0.132647  L0,-0.147264  L0,-0.160956  L0,-0.173558  L0,-0.184918  L0,-0.194899  L0,-0.203379  L0,-0.210256  L0,-0.215448  L0,-0.218892  L0,-0.220546 " /><path id= "160" d=" M 0 -0.220546 L 0 -0.222966 " />
<path d="M0,-0.222966 C0,-0.225083 0,-0.233788 0,-0.268131 " /><path d="M0,-0.268131 C0,-0.309601 0,-0.387122 0,-0.531287 " /><path d="M0,-0.531287 L0,-0.551849  L0,-0.572404  L0,-0.592951  L0,-0.61349  L0,-0.63402  L0,-0.654542  L0,-0.675055  L0,-0.695559  L0,-0.716053  L0,-0.736538  L0,-0.757012  L0,-0.777477  L0,-0.79793  L0,-0.818373 " /><path d="M0,-0.818373 C0,-0.90837 0,-0.942348 0,-0.953678 " /><path d="M0,-0.953678 C0,-0.962865 0,-0.956465 0,-0.95357 " /><path d="M0,-0.958447 L0,-0.962953  L0,-0.967955  L0,-0.973435  L0,-0.979372  L0,-0.985743  L0,-0.992523  L0,-0.999685  L0,-1.0072  L0,-1.01505  L0,-1.02319  L0,-1.03159  L0,-1.04023  L0,-1.04907  L0,-1.05807 " /><path d="M0,-1.05807 L0,-1.06762  L0,-1.07716  L0,-1.08669  L0,-1.09622  L0,-1.10575  L0,-1.11527  L0,-1.12478  L0,-1.13429  L0,-1.1438  L0,-1.1533  L0,-1.1628  L0,-1.17229  L0,-1.18177  L0,-1.19126 " /><path d="M0,-1.19126 L0,-1.20741  L0,-1.22383  L0,-1.24031  L0,-1.25666  L0,-1.27267  L0,-1.28816  L0,-1.30294  L0,-1.31683  L0,-1.32966  L0,-1.34128  L0,-1.35154  L0,-1.36033  L0,-1.36753  L0,-1.37306 " /><path id= "169" d=" M 0 -1.37306 L 0 -1.38654 " />
<path d="M0,-1.38654 C0,-1.39355 0,-1.41685 0,-1.47436 " /><path d="M0,-1.47436 C0,-1.54356 0,-1.66012 0,-1.85007 " /><path d="M0,-1.85007 L0,-1.86956  L0,-1.88902  L0,-1.90845  L0,-1.92786  L0,-1.94725  L0,-1.9666  L0,-1.98593  L0,-2.00524  L0,-2.02451  L0,-2.04376  L0,-2.06298  L0,-2.08217  L0,-2.10134  L0,-2.12047 " /><path d="M0,-2.12047 C0,-2.15107 0,-2.13953 0,-2.12006 " /><path d="M0,-2.12324 L0,-2.13197  L0,-2.1407  L0,-2.14942  L0,-2.15813  L0,-2.16683  L0,-2.17552  L0,-2.1842  L0,-2.19287  L0,-2.20153  L0,-2.21018  L0,-2.21883  L0,-2.22746  L0,-2.23608  L0,-2.24469 " /><path d="M0,-2.24469 L0,-2.25959  L0,-2.27517  L0,-2.29125  L0,-2.30763  L0,-2.32412  L0,-2.34051  L0,-2.35661  L0,-2.37222  L0,-2.38715  L0,-2.40123  L0,-2.41428  L0,-2.42615  L0,-2.43669  L0,-2.44578 " /><path id= "176" d=" M 0 -2.44578 L 0 -2.46954 " />
<path d="M0,-2.46954 C0,-2.48103 0,-2.51758 0,-2.5949 " /><path d="M0,-2.5949 C0,-2.68781 0,-2.83663 0,-3.06133 " /><path d="M0,-3.06133 L0,-3.07861  L0,-3.09585  L0,-3.11304  L0,-3.1302  L0,-3.14731  L0,-3.16437  L0,-3.1814  L0,-3.19838  L0,-3.21531  L0,-3.23221  L0,-3.24906  L0,-3.26586  L0,-3.28262  L0,-3.29934 " /><path d="M0,-3.29934 L0,-3.30555  L0,-3.31169  L0,-3.31775  L0,-3.32373  L0,-3.32961  L0,-3.33537  L0,-3.34102  L0,-3.34654  L0,-3.35191  L0,-3.35714  L0,-3.36221  L0,-3.3671  L0,-3.37182  L0,-3.37636 " /><path id= "181" d=" M 0 -3.37636 L 0 -3.40902 " />
<path d="M0,-3.40902 C0,-3.42432 0,-3.47199 0,-3.56463 " /><path d="M0,-3.56463 C0,-3.67585 0,-3.84829 0,-4.09468 " /><path d="M0,-4.09468 L0,-4.10875  L0,-4.12276  L0,-4.13672  L0,-4.15061  L0,-4.16446  L0,-4.17824  L0,-4.19197  L0,-4.20564  L0,-4.21925  L0,-4.23281  L0,-4.24631  L0,-4.25975  L0,-4.27313  L0,-4.28646 " /><path d="M0,-4.15037 C0,-4.1686 0,-4.22462 0,-4.32721 " /><path d="M0,-4.32721 C0,-4.45027 0,-4.6363 0,-4.89007 " /><path d="M0,-4.89007 L0,-4.9001  L0,-4.91007  L0,-4.91998  L0,-4.92981  L0,-4.93958  L0,-4.94928  L0,-4.95892  L0,-4.96849  L0,-4.97798  L0,-4.98742  L0,-4.99678  L0,-5.00608  L0,-5.0153  L0,-5.02446 " /><path d="M0,-4.8383 C0,-4.96605 0,-5.15486 0,-5.40126 " /><path d="M0,-5.40126 L0,-5.40668  L0,-5.41203  L0,-5.41731  L0,-5.42251  L0,-5.42764  L0,-5.43269  L0,-5.43767  L0,-5.44258  L0,-5.44741  L0,-5.45217  L0,-5.45686  L0,-5.46147  L0,-5.466  L0,-5.47047 " /><path d="M0,-5.59854 L0,-5.5988  L0,-5.59904  L0,-5.59926  L0,-5.59946  L0,-5.59964  L0,-5.5998  L0,-5.59994  L0,-5.60007  L0,-5.60017  L0,-5.60026  L0,-5.60033  L0,-5.60037  L0,-5.6004  L0,-5.60041 " /><path d="M0,-5.0682 C0,-5.19323 0,-5.37385 0,-5.59854 " /><path id= "192" d=" M 0 5.59854 L -7 5.59854 " />
<path id= "193" d=" M 0 5.47047 L -7 5.47047 " />
<path id= "194" d=" M 0 5.40126 L -7 5.40126 " />
<path id= "195" d=" M 0 5.02446 L -7 5.02446 " />
<path id= "196" d=" M 0 4.89007 L -7 4.89007 " />
<path id= "197" d=" M 0 4.32721 L -7 4.32721 " />
<path id= "198" d=" M 0 4.28646 L -7 4.28646 " />
<path id= "199" d=" M 0 4.09468 L -7 4.09468 " />
<path id= "200" d=" M 0 3.56463 L -7 3.56463 " />
<path id= "201" d=" M 0 3.40902 L -7 3.40902 " />
<path id= "202" d=" M 0 3.37636 L -7 3.37636 " />
<path id= "203" d=" M 0 3.29934 L -7 3.29934 " />
<path id= "204" d=" M 0 3.06133 L -7 3.06133 " />
<path id= "205" d=" M 0 2.5949 L -7 2.5949 " />
<path id= "206" d=" M 0 2.46954 L -7 2.46954 " />
<path id= "207" d=" M 0 2.44578 L -7 2.44578 " />
<path id= "208" d=" M 0 2.24469 L -7 2.24469 " />
<path id= "209" d=" M 0 2.12047 L -7 2.12047 " />
<path id= "210" d=" M 0 1.85007 L -7 1.85007 " />
<path id= "211" d=" M 0 1.47436 L -7 1.47436 " />
<path id= "212" d=" M 0 1.38654 L -7 1.38654 " />
<path id= "213" d=" M 0 1.37306 L -7 1.37306 " />
<path id= "214" d=" M 0 1.19126 L -7 1.19126 " />
<path id= "215" d=" M 0 1.05807 L -7 1.05807 " />
<path id= "216" d=" M 0 0.953678 L -7 0.953678 " />
<path id= "217" d=" M 0 0.818373 L -7 0.818373 " />
<path id= "218" d=" M 0 0.531287 L -7 0.531287 " />
<path id= "219" d=" M 0 0.268131 L -7 0.268131 " />
<path id= "220" d=" M 0 0.222966 L -7 0.222966 " />
<path id= "221" d=" M 0 0.220546 L -7 0.220546 " />
<path id= "222" d=" M 0 0.0685841 L -7 0.0685841 " />
<path id= "223" d=" M 0 -0.0685841 L -7 -0.0685841 " />
<path id= "224" d=" M 0 -0.220546 L -7 -0.220546 " />
<path id= "225" d=" M 0 -0.222966 L -7 -0.222966 " />
<path id= "226" d=" M 0 -0.268131 L -7 -0.268131 " />
<path id= "227" d=" M 0 -0.531287 L -7 -0.531287 " />
<path id= "228" d=" M 0 -0.818373 L -7 -0.818373 " />
<path id= "229" d=" M 0 -0.953678 L -7 -0.953678 " />
<path id= "230" d=" M 0 -1.05807 L -7 -1.05807 " />
<path id= "231" d=" M 0 -1.19126 L -7 -1.19126 " />
<path id= "232" d=" M 0 -1.37306 L -7 -1.37306 " />
<path id= "233" d=" M 0 -1.38654 L -7 -1.38654 " />
<path id= "234" d=" M 0 -1.47436 L -7 -1.47436 " />
<path id= "235" d=" M 0 -1.85007 L -7 -1.85007 " />
<path id= "236" d=" M 0 -2.12047 L -7 -2.12047 " />
<path id= "237" d=" M 0 -2.24469 L -7 -2.24469 " />
<path id= "238" d=" M 0 -2.44578 L -7 -2.44578 " />
<path id= "239" d=" M 0 -2.46954 L -7 -2.46954 " />
<path id= "240" d=" M 0 -2.5949 L -7 -2.5949 " />
<path id= "241" d=" M 0 -3.06133 L -7 -3.06133 " />
<path id= "242" d=" M 0 -3.29934 L -7 -3.29934 " />
<path id= "243" d=" M 0 -3.37636 L -7 -3.37636 " />
<path id= "244" d=" M 0 -3.40902 L -7 -3.40902 " />
<path id= "245" d=" M 0 -3.56463 L -7 -3.56463 " />
<path id= "246" d=" M 0 -4.09468 L -7 -4.09468 " />
<path id= "247" d=" M 0 -4.28646 L -7 -4.28646 " />
<path id= "248" d=" M 0 -4.32721 L -7 -4.32721 " />
<path id= "249" d=" M 0 -4.89007 L -7 -4.89007 " />
<path id= "250" d=" M 0 -5.02446 L -7 -5.02446 " />
<path id= "251" d=" M 0 -5.40126 L -7 -5.40126 " />
<path id= "252" d=" M 0 -5.47047 L -7 -5.47047 " />
<path id= "253" d=" M 0 -5.59854 L -7 -5.59854 " />
</g>
</g>



</svg>

