<?xml version="1.0" encoding="UTF-8"?>

<svg xmlns="http://www.w3.org/2000/svg" version="1.1"
	width="297mm"
	height="210mm"
	viewBox="0 0 297 210">
	<!-- Working space 0 0 297 210 -->
	<defs>
		<radialGradient
			id="radialGradient3661"
			gradientUnits="userSpaceOnUse"
			cy="29.149"
			cx="282.65"
			gradientTransform="matrix(.14777 .23089 -.24680 .15795 -26.318 -62.617)"
			r="19.571">
				<stop stop-color="#71b2f8" offset="0"/>
				<stop stop-color="#002795" offset="1"/>
		</radialGradient>
		<radialGradient
			id="radialGradient3817"
			gradientUnits="userSpaceOnUse"
			cy="33.9"
			cx="270.58"
			gradientTransform="matrix(.26631 .065024 -.17931 .73438 -60.668 -36.938)"
			r="19.571">
				<stop stop-color="#ff6d0f" offset="0"/>
				<stop stop-color="#ff1000" offset="1"/>
		</radialGradient>
	</defs>
	<!-- Set display:none to hide FreeCAD Logo -->
	<g
		style="display:inline"
		id="freecad-logo"
		transform="translate(271, 185) scale(1)"
		fill-rule="evenodd"
		stroke-width=".45621">
		<path d="m0.22811 0.22835v13.256h2.9558v-5.1876h2.09v-2.0452h-2.09v-2.2075h5.1486v-3.8087l-8.1044-0.0075z"
			stroke="#370700"
			fill="url(#radialGradient3817)"/>
		<path d="m13.386 4.1792-1.7193 0.98645-0.75925-0.26348-0.72439-1.8513-1.1395 0.05988-0.51976 1.9144-0.72743 0.34835-1.8143-0.79367-0.76632 0.85156 0.98645 1.7193-0.26957 0.75702-1.8513 0.72439 0.065967 1.1417 1.9144 0.51976 0.34835 0.72743-0.79976 1.8121 0.85156 0.76632 1.7193-0.98645 0.76311 0.27179 0.7183 1.8491 1.1478-0.06375 0.51367-1.9166 0.72743-0.34835 1.8182 0.80198 0.76632-0.85156-0.98645-1.7193 0.2657-0.76533 1.8491-0.7183-0.05766-1.1456-1.9166-0.51367-0.34835-0.72743 0.7959-1.8204-0.85156-0.76632zm-2.5751 2.8195 0.35295 0.20478 0.30579 0.27725 0.24481 0.33087 0.17611 0.36787 0.10354 0.39656 0.01715 0.4064-0.0587 0.4063-0.13396 0.38571-0.2131 0.35681-0.26894 0.30192-0.33087 0.24481-0.36787 0.17611-0.39656 0.10354-0.40863 0.02325-0.4063-0.0587-0.38571-0.13396-0.35681-0.2131-0.2997-0.27503-0.24703-0.32478-0.17611-0.36787-0.10132-0.40264-0.02324-0.40863 0.05869-0.4063 0.13396-0.38571 0.21087-0.35072 0.27116-0.30801 0.33087-0.24481 0.36787-0.17611 0.40264-0.10132 0.40641-0.01715 0.4063 0.05869 0.38571 0.13396z" 
		stroke="#000137"
		fill="url(#radialGradient3661)"/>
	</g>
<g id="Ortho_0_0"
   transform="rotate(-90,94.4438,87.4639) translate(94.4438,87.4639) scale(1,1)"
  >
<g   stroke="rgb(0, 0, 0)"
   stroke-width="0.35"
   stroke-linecap="butt"
   stroke-linejoin="miter"
   fill="none"
   transform="scale(1,-1)"
  >
<path id= "1" d=" M 1.11022e-15 2.65 L 0.1 2.75 " />
<path id= "2" d=" M -1.33227e-15 -2.65 L 0.1 -2.75 " />
<path id= "3" d=" M 6.66134e-16 1.5 L -19.6 1.5 " />
<path id= "4" d=" M -6.66134e-16 -1.5 L -19.6 -1.5 " />
<path id= "5" d=" M 2.9 2.75 L 0.1 2.75 " />
<path id= "6" d=" M 2.9 -2.75 L 0.1 -2.75 " />
<path id= "7" d=" M -20 1.1 L -19.6 1.5 " />
<path id= "8" d=" M -20 -1.1 L -19.6 -1.5 " />
<path id= "9" d=" M 3 2.65 L 2.9 2.75 " />
<path id= "10" d=" M 3 -2.65 L 2.9 -2.75 " />
<path id= "11" d=" M 2.9 1.35 L 3 1.45 " />
<path id= "12" d=" M 2.9 -1.35 L 3 -1.45 " />
</g>
<g   stroke="rgb(0, 0, 0)"
   stroke-width="0.35"
   stroke-linecap="butt"
   stroke-linejoin="miter"
   fill="none"
   transform="scale(1,-1)"
  >
<path d="M-2.85066e-31,-6.41911e-16 L1.31764e-16,0.296706  L2.61871e-16,0.58968  L3.88684e-16,0.87524  L5.1061e-16,1.14979  L6.26115e-16,1.40989  L7.33745e-16,1.65225  L8.32149e-16,1.87383  L9.20088e-16,2.07185  L9.96456e-16,2.24382  L1.06029e-15,2.38757  L1.1108e-15,2.50129  L1.14733e-15,2.58356  L1.16944e-15,2.63334  L1.17684e-15,2.65 " /><path d="M-1.17684e-15,-2.65 L-1.16944e-15,-2.63334  L-1.14733e-15,-2.58356  L-1.1108e-15,-2.50129  L-1.06029e-15,-2.38757  L-9.96456e-16,-2.24382  L-9.20088e-16,-2.07185  L-8.32149e-16,-1.87383  L-7.33745e-16,-1.65225  L-6.26115e-16,-1.40989  L-5.1061e-16,-1.14979  L-3.88684e-16,-0.87524  L-2.61871e-16,-0.58968  L-1.31764e-16,-0.296706  L3.89272e-30,8.76563e-15 " /><path d="M0.1,-7.10543e-16 L0.1,0.307902  L0.1,0.611933  L0.1,0.908267  L0.1,1.19318  L0.1,1.46309  L0.1,1.7146  L0.1,1.94454  L0.1,2.15004  L0.1,2.32849  L0.1,2.47766  L0.1,2.59568  L0.1,2.68105  L0.1,2.73271  L0.1,2.75 " /><path d="M0.1,-2.75 L0.1,-2.73271  L0.1,-2.68105  L0.1,-2.59568  L0.1,-2.47766  L0.1,-2.32849  L0.1,-2.15004  L0.1,-1.94454  L0.1,-1.7146  L0.1,-1.46309  L0.1,-1.19318  L0.1,-0.908267  L0.1,-0.611933  L0.1,-0.307902  L0.1,9.052e-15 " /><path d="M-19.6,8.70415e-15 L-19.6,0.167947  L-19.6,0.333781  L-19.6,0.495419  L-19.6,0.650826  L-19.6,0.798048  L-19.6,0.935235  L-19.6,1.06066  L-19.6,1.17275  L-19.6,1.27009  L-19.6,1.35145  L-19.6,1.41582  L-19.6,1.46239  L-19.6,1.49057  L-19.6,1.5 " /><path d="M-19.6,-1.5 L-19.6,-1.49057  L-19.6,-1.46239  L-19.6,-1.41582  L-19.6,-1.35145  L-19.6,-1.27009  L-19.6,-1.17275  L-19.6,-1.06066  L-19.6,-0.935235  L-19.6,-0.798048  L-19.6,-0.650826  L-19.6,-0.495419  L-19.6,-0.333781  L-19.6,-0.167947  L-19.6,3.45177e-15 " /><path d="M2.9,-1.95399e-15 L2.9,0.307902  L2.9,0.611933  L2.9,0.908267  L2.9,1.19318  L2.9,1.46309  L2.9,1.7146  L2.9,1.94454  L2.9,2.15004  L2.9,2.32849  L2.9,2.47766  L2.9,2.59568  L2.9,2.68105  L2.9,2.73271  L2.9,2.75 " /><path d="M2.9,-2.75 L2.9,-2.73271  L2.9,-2.68105  L2.9,-2.59568  L2.9,-2.47766  L2.9,-2.32849  L2.9,-2.15004  L2.9,-1.94454  L2.9,-1.7146  L2.9,-1.46309  L2.9,-1.19318  L2.9,-0.908267  L2.9,-0.611933  L2.9,-0.307902  L2.9,7.14241e-15 " /><path d="M-20,8.88178e-15 L-20,0.123161  L-20,0.244773  L-20,0.363307  L-20,0.477272  L-20,0.585235  L-20,0.685839  L-20,0.777817  L-20,0.860015  L-20,0.931397  L-20,0.991066  L-20,1.03827  L-20,1.07242  L-20,1.09308  L-20,1.1 " /><path d="M-20,-1.1 L-20,-1.09308  L-20,-1.07242  L-20,-1.03827  L-20,-0.991066  L-20,-0.931397  L-20,-0.860015  L-20,-0.777817  L-20,-0.685839  L-20,-0.585235  L-20,-0.477272  L-20,-0.363307  L-20,-0.244773  L-20,-0.123161  L-20,5.03004e-15 " /><path d="M3,-1.97418e-15 L3,0.296706  L3,0.58968  L3,0.87524  L3,1.14979  L3,1.40989  L3,1.65225  L3,1.87383  L3,2.07185  L3,2.24382  L3,2.38757  L3,2.50129  L3,2.58356  L3,2.63334  L3,2.65 " /><path d="M3,-2.65 L3,-2.63334  L3,-2.58356  L3,-2.50129  L3,-2.38757  L3,-2.24382  L3,-2.07185  L3,-1.87383  L3,-1.65225  L3,-1.40989  L3,-1.14979  L3,-0.87524  L3,-0.58968  L3,-0.296706  L3,6.79145e-15 " /><path d="M2.99338,-2.10942e-15 L2.98563,-0.0135283  L2.97805,-0.0269845  L2.97064,-0.0403703  L2.9634,-0.0536873  L2.95632,-0.066937  L2.94941,-0.080121  L2.94267,-0.0932408  L2.93609,-0.106298  L2.92967,-0.119294  L2.92341,-0.132231  L2.91732,-0.145109  L2.91139,-0.157931  L2.90561,-0.170698  L2.9,-0.183412 " /><path d="M2.9,-1.06659 L2.90561,-1.0793  L2.91139,-1.09207  L2.91732,-1.10489  L2.92341,-1.11777  L2.92967,-1.13071  L2.93609,-1.1437  L2.94267,-1.15676  L2.94941,-1.16988  L2.95632,-1.18306  L2.9634,-1.19631  L2.97064,-1.20963  L2.97805,-1.22302  L2.98563,-1.23647  L2.99338,-1.25 " /><path d="M2.99338,-1.25 L2.98563,-1.25  L2.97805,-1.25  L2.97064,-1.25  L2.9634,-1.25  L2.95632,-1.25  L2.94941,-1.25  L2.94267,-1.25  L2.93609,-1.25  L2.92967,-1.25  L2.92341,-1.25  L2.91732,-1.25  L2.91139,-1.25  L2.90561,-1.25  L2.9,-1.25 " /><path d="M2.9,1.25 L2.90561,1.25  L2.91139,1.25  L2.91732,1.25  L2.92341,1.25  L2.92967,1.25  L2.93609,1.25  L2.94267,1.25  L2.94941,1.25  L2.95632,1.25  L2.9634,1.25  L2.97064,1.25  L2.97805,1.25  L2.98563,1.25  L2.99338,1.25 " /><path d="M2.99338,1.25 L2.98563,1.23647  L2.97805,1.22302  L2.97064,1.20963  L2.9634,1.19631  L2.95632,1.18306  L2.94941,1.16988  L2.94267,1.15676  L2.93609,1.1437  L2.92967,1.13071  L2.92341,1.11777  L2.91732,1.10489  L2.91139,1.09207  L2.90561,1.0793  L2.9,1.06659 " /><path d="M2.9,0.183412 L2.90561,0.170698  L2.91139,0.157931  L2.91732,0.145109  L2.92341,0.132231  L2.92967,0.119294  L2.93609,0.106298  L2.94267,0.0932408  L2.94941,0.080121  L2.95632,0.066937  L2.9634,0.0536873  L2.97064,0.0403703  L2.97805,0.0269845  L2.98563,0.0135283  L2.99338,-1.9984e-15 " /><path id= "19" d=" M 2.99338 -1.25 L 2.9 -1.25 " />
<path id= "20" d=" M 2.99338 -2.65865e-15 L 2.9 -2.57572e-15 " />
<path id= "21" d=" M 2.99338 1.25 L 2.9 1.25 " />
</g>
</g>



<g id="Ortho_0_1"
   transform="rotate(90,94.4438,36.1777) translate(94.4438,36.1777) scale(1,1)"
  >
<g   stroke="rgb(0, 0, 0)"
   stroke-width="0.35"
   stroke-linecap="butt"
   stroke-linejoin="miter"
   fill="none"
   transform="scale(1,-1)"
  >
<circle cx ="0" cy ="1.28786e-15" r ="2.75" /><circle cx ="0" cy ="1.33227e-15" r ="2.65" /><circle cx ="0" cy ="1.33227e-15" r ="1.45" /><path d="M1.44338,2.10942e-15 L1.3878,0.0962658  L1.3341,0.189274  L1.28195,0.279598  L1.23103,0.367793  L1.18103,0.454404  L1.13163,0.539964  L1.08253,0.625  L1.03344,0.710036  L0.984038,0.795596  L0.934033,0.882207  L0.883114,0.970402  L0.830965,1.06073  L0.777267,1.15373  L0.721688,1.25 " /><path d="M0.721688,1.25 L0.61053,1.25  L0.503133,1.25  L0.398836,1.25  L0.296997,1.25  L0.196987,1.25  L0.0981911,1.25  L5.89806e-16,1.25  L-0.0981911,1.25  L-0.196987,1.25  L-0.296997,1.25  L-0.398836,1.25  L-0.503133,1.25  L-0.61053,1.25  L-0.721688,1.25 " /><path d="M-0.721688,1.25 L-0.777267,1.15373  L-0.830965,1.06073  L-0.883114,0.970402  L-0.934033,0.882207  L-0.984038,0.795596  L-1.03344,0.710036  L-1.08253,0.625  L-1.13163,0.539964  L-1.18103,0.454404  L-1.23103,0.367793  L-1.28195,0.279598  L-1.3341,0.189274  L-1.3878,0.0962658  L-1.44338,2.10942e-15 " /><path d="M-1.44338,1.9984e-15 L-1.3878,-0.0962658  L-1.3341,-0.189274  L-1.28195,-0.279598  L-1.23103,-0.367793  L-1.18103,-0.454404  L-1.13163,-0.539964  L-1.08253,-0.625  L-1.03344,-0.710036  L-0.984038,-0.795596  L-0.934033,-0.882207  L-0.883114,-0.970402  L-0.830965,-1.06073  L-0.777267,-1.15373  L-0.721688,-1.25 " /><path d="M-0.721688,-1.25 L-0.61053,-1.25  L-0.503133,-1.25  L-0.398836,-1.25  L-0.296997,-1.25  L-0.196987,-1.25  L-0.0981911,-1.25  L6.59195e-16,-1.25  L0.0981911,-1.25  L0.196987,-1.25  L0.296997,-1.25  L0.398836,-1.25  L0.503133,-1.25  L0.61053,-1.25  L0.721688,-1.25 " /><path d="M0.721688,-1.25 L0.777267,-1.15373  L0.830965,-1.06073  L0.883114,-0.970402  L0.934033,-0.882207  L0.984038,-0.795596  L1.03344,-0.710036  L1.08253,-0.625  L1.13163,-0.539964  L1.18103,-0.454404  L1.23103,-0.367793  L1.28195,-0.279598  L1.3341,-0.189274  L1.3878,-0.0962658  L1.44338,1.9984e-15 " /><path d="M1.44338,1.29328e-15 L1.3878,0.0962658  L1.3341,0.189274  L1.28195,0.279598  L1.23103,0.367793  L1.18103,0.454404  L1.13163,0.539964  L1.08253,0.625  L1.03344,0.710036  L0.984038,0.795596  L0.934033,0.882207  L0.883114,0.970402  L0.830965,1.06073  L0.777267,1.15373  L0.721688,1.25 " /><path d="M0.721688,1.25 L0.61053,1.25  L0.503133,1.25  L0.398836,1.25  L0.296997,1.25  L0.196987,1.25  L0.0981911,1.25  L-1.04083e-16,1.25  L-0.0981911,1.25  L-0.196987,1.25  L-0.296997,1.25  L-0.398836,1.25  L-0.503133,1.25  L-0.61053,1.25  L-0.721688,1.25 " /><path d="M-0.721688,1.25 L-0.777267,1.15373  L-0.830965,1.06073  L-0.883114,0.970402  L-0.934033,0.882207  L-0.984038,0.795596  L-1.03344,0.710036  L-1.08253,0.625  L-1.13163,0.539964  L-1.18103,0.454404  L-1.23103,0.367793  L-1.28195,0.279598  L-1.3341,0.189274  L-1.3878,0.0962658  L-1.44338,1.8306e-16 " /><path d="M-1.44338,1.8306e-16 L-1.3878,-0.0962658  L-1.3341,-0.189274  L-1.28195,-0.279598  L-1.23103,-0.367793  L-1.18103,-0.454404  L-1.13163,-0.539964  L-1.08253,-0.625  L-1.03344,-0.710036  L-0.984038,-0.795596  L-0.934033,-0.882207  L-0.883114,-0.970402  L-0.830965,-1.06073  L-0.777267,-1.15373  L-0.721688,-1.25 " /><path d="M-0.721688,-1.25 L-0.61053,-1.25  L-0.503133,-1.25  L-0.398836,-1.25  L-0.296997,-1.25  L-0.196987,-1.25  L-0.0981911,-1.25  L1.04083e-16,-1.25  L0.0981911,-1.25  L0.196987,-1.25  L0.296997,-1.25  L0.398836,-1.25  L0.503133,-1.25  L0.61053,-1.25  L0.721688,-1.25 " /><path d="M0.721688,-1.25 L0.777267,-1.15373  L0.830965,-1.06073  L0.883114,-0.970402  L0.934033,-0.882207  L0.984038,-0.795596  L1.03344,-0.710036  L1.08253,-0.625  L1.13163,-0.539964  L1.18103,-0.454404  L1.23103,-0.367793  L1.28195,-0.279598  L1.3341,-0.189274  L1.3878,-0.0962658  L1.44338,1.29328e-15 " /></g>
</g>



<g id="Ortho_1_0"
   transform="rotate(-90,202.638,87.4639) translate(202.638,87.4639) scale(1,1)"
  >
<g   stroke="rgb(0, 0, 0)"
   stroke-width="0.35"
   stroke-linecap="butt"
   stroke-linejoin="miter"
   fill="none"
   transform="scale(1,-1)"
  >
<path id= "1" d=" M -2.22045e-16 -2.65 L 0.1 -2.75 " />
<path id= "2" d=" M 0 -1.5 L -19.6 -1.5 " />
<path id= "3" d=" M 2.9 -2.75 L 0.1 -2.75 " />
<path id= "4" d=" M -20 -1.1 L -19.6 -1.5 " />
<path id= "5" d=" M 3 -2.65 L 2.9 -2.75 " />
</g>
<g   stroke="rgb(0, 0, 0)"
   stroke-width="0.35"
   stroke-linecap="butt"
   stroke-linejoin="miter"
   fill="none"
   transform="scale(1,-1)"
  >
<path d="M-3.78499e-31,-2.65 L-2.61871e-16,-2.58356  L-5.1061e-16,-2.38757  L-7.33745e-16,-2.07185  L-9.20088e-16,-1.65225  L-1.06029e-15,-1.14979  L-1.14733e-15,-0.58968  L-1.17684e-15,1.86688e-15  L-1.14733e-15,0.58968  L-1.06029e-15,1.14979  L-9.20088e-16,1.65225  L-7.33745e-16,2.07185  L-5.1061e-16,2.38757  L-2.61871e-16,2.58356  L3.89272e-30,2.65 " /><path id= "2" d=" M -3.33067e-16 2.65 L 0.1 2.75 " />
<path d="M0.1,-2.75 L0.1,-2.68105  L0.1,-2.47766  L0.1,-2.15004  L0.1,-1.7146  L0.1,-1.19318  L0.1,-0.611933  L0.1,1.93732e-15  L0.1,0.611933  L0.1,1.19318  L0.1,1.7146  L0.1,2.15004  L0.1,2.47766  L0.1,2.68105  L0.1,2.75 " /><path id= "4" d=" M 0 1.5 L -19.6 1.5 " />
<path d="M-19.6,-1.5 L-19.6,-1.46239  L-19.6,-1.35145  L-19.6,-1.17275  L-19.6,-0.935235  L-19.6,-0.650826  L-19.6,-0.333781  L-19.6,-1.16372e-15  L-19.6,0.333781  L-19.6,0.650826  L-19.6,0.935235  L-19.6,1.17275  L-19.6,1.35145  L-19.6,1.46239  L-19.6,1.5 " /><path id= "6" d=" M 2.9 2.75 L 0.1 2.75 " />
<path d="M2.9,-2.75 L2.9,-2.68105  L2.9,-2.47766  L2.9,-2.15004  L2.9,-1.7146  L2.9,-1.19318  L2.9,-0.611933  L2.9,1.27119e-15  L2.9,0.611933  L2.9,1.19318  L2.9,1.7146  L2.9,2.15004  L2.9,2.47766  L2.9,2.68105  L2.9,2.75 " /><path id= "8" d=" M -19.6 1.5 L -20 1.1 " />
<path d="M-20,-1.1 L-20,-1.07242  L-20,-0.991066  L-20,-0.860015  L-20,-0.685839  L-20,-0.477272  L-20,-0.244773  L-20,-8.53398e-16  L-20,0.244773  L-20,0.477272  L-20,0.685839  L-20,0.860015  L-20,0.991066  L-20,1.07242  L-20,1.1 " /><path id= "10" d=" M 2.9 2.75 L 3 2.65 " />
<path d="M3,-2.65 L3,-2.58356  L3,-2.38757  L3,-2.07185  L3,-1.65225  L3,-1.14979  L3,-0.58968  L3,3.57864e-15  L3,0.58968  L3,1.14979  L3,1.65225  L3,2.07185  L3,2.38757  L3,2.58356  L3,2.65 " /><path d="M2.99338,1.44338 L2.98563,1.43557  L2.97805,1.4278  L2.97064,1.42007  L2.9634,1.41238  L2.95632,1.40473  L2.94941,1.39712  L2.94267,1.38954  L2.93609,1.382  L2.92967,1.3745  L2.92341,1.36703  L2.91732,1.3596  L2.91139,1.35219  L2.90561,1.34482  L2.9,1.33748 " /><path d="M2.9,0.827581 L2.90561,0.820241  L2.91139,0.812869  L2.91732,0.805467  L2.92341,0.798031  L2.92967,0.790562  L2.93609,0.783059  L2.94267,0.77552  L2.94941,0.767946  L2.95632,0.760334  L2.9634,0.752684  L2.97064,0.744996  L2.97805,0.737267  L2.98563,0.729498  L2.99338,0.721688 " /><path d="M2.99338,0.721688 L2.98563,0.706067  L2.97805,0.690529  L2.97064,0.675072  L2.9634,0.659695  L2.95632,0.644396  L2.94941,0.629172  L2.94267,0.614023  L2.93609,0.598945  L2.92967,0.583939  L2.92341,0.569001  L2.91732,0.55413  L2.91139,0.539325  L2.90561,0.524583  L2.9,0.509902 " /><path d="M2.9,-0.509902 L2.90561,-0.524583  L2.91139,-0.539325  L2.91732,-0.55413  L2.92341,-0.569001  L2.92967,-0.583939  L2.93609,-0.598945  L2.94267,-0.614023  L2.94941,-0.629172  L2.95632,-0.644396  L2.9634,-0.659695  L2.97064,-0.675072  L2.97805,-0.690529  L2.98563,-0.706067  L2.99338,-0.721688 " /><path d="M2.99338,-0.721688 L2.98563,-0.729498  L2.97805,-0.737267  L2.97064,-0.744996  L2.9634,-0.752684  L2.95632,-0.760334  L2.94941,-0.767946  L2.94267,-0.77552  L2.93609,-0.783059  L2.92967,-0.790562  L2.92341,-0.798031  L2.91732,-0.805467  L2.91139,-0.812869  L2.90561,-0.820241  L2.9,-0.827581 " /><path d="M2.9,-1.33748 L2.90561,-1.34482  L2.91139,-1.35219  L2.91732,-1.3596  L2.92341,-1.36703  L2.92967,-1.3745  L2.93609,-1.382  L2.94267,-1.38954  L2.94941,-1.39712  L2.95632,-1.40473  L2.9634,-1.41238  L2.97064,-1.42007  L2.97805,-1.4278  L2.98563,-1.43557  L2.99338,-1.44338 " /><path id= "18" d=" M 2.99338 1.44338 L 2.9 1.44338 " />
<path id= "19" d=" M 2.99338 -1.44338 L 2.9 -1.44338 " />
<path id= "20" d=" M 2.99338 -0.721688 L 2.9 -0.721688 " />
<path id= "21" d=" M 2.99338 0.721688 L 2.9 0.721688 " />
</g>
</g>



</svg>

