<?xml version="1.0" encoding="UTF-8"?>

<svg xmlns="http://www.w3.org/2000/svg" version="1.1"
	width="297mm"
	height="210mm"
	viewBox="0 0 297 210">
	<!-- Working space 0 0 297 210 -->
	<defs>
		<radialGradient
			id="radialGradient3661"
			gradientUnits="userSpaceOnUse"
			cy="29.149"
			cx="282.65"
			gradientTransform="matrix(.14777 .23089 -.24680 .15795 -26.318 -62.617)"
			r="19.571">
				<stop stop-color="#71b2f8" offset="0"/>
				<stop stop-color="#002795" offset="1"/>
		</radialGradient>
		<radialGradient
			id="radialGradient3817"
			gradientUnits="userSpaceOnUse"
			cy="33.9"
			cx="270.58"
			gradientTransform="matrix(.26631 .065024 -.17931 .73438 -60.668 -36.938)"
			r="19.571">
				<stop stop-color="#ff6d0f" offset="0"/>
				<stop stop-color="#ff1000" offset="1"/>
		</radialGradient>
	</defs>
	<!-- Set display:none to hide FreeCAD Logo -->
	<g
		style="display:inline"
		id="freecad-logo"
		transform="translate(271, 185) scale(1)"
		fill-rule="evenodd"
		stroke-width=".45621">
		<path d="m0.22811 0.22835v13.256h2.9558v-5.1876h2.09v-2.0452h-2.09v-2.2075h5.1486v-3.8087l-8.1044-0.0075z"
			stroke="#370700"
			fill="url(#radialGradient3817)"/>
		<path d="m13.386 4.1792-1.7193 0.98645-0.75925-0.26348-0.72439-1.8513-1.1395 0.05988-0.51976 1.9144-0.72743 0.34835-1.8143-0.79367-0.76632 0.85156 0.98645 1.7193-0.26957 0.75702-1.8513 0.72439 0.065967 1.1417 1.9144 0.51976 0.34835 0.72743-0.79976 1.8121 0.85156 0.76632 1.7193-0.98645 0.76311 0.27179 0.7183 1.8491 1.1478-0.06375 0.51367-1.9166 0.72743-0.34835 1.8182 0.80198 0.76632-0.85156-0.98645-1.7193 0.2657-0.76533 1.8491-0.7183-0.05766-1.1456-1.9166-0.51367-0.34835-0.72743 0.7959-1.8204-0.85156-0.76632zm-2.5751 2.8195 0.35295 0.20478 0.30579 0.27725 0.24481 0.33087 0.17611 0.36787 0.10354 0.39656 0.01715 0.4064-0.0587 0.4063-0.13396 0.38571-0.2131 0.35681-0.26894 0.30192-0.33087 0.24481-0.36787 0.17611-0.39656 0.10354-0.40863 0.02325-0.4063-0.0587-0.38571-0.13396-0.35681-0.2131-0.2997-0.27503-0.24703-0.32478-0.17611-0.36787-0.10132-0.40264-0.02324-0.40863 0.05869-0.4063 0.13396-0.38571 0.21087-0.35072 0.27116-0.30801 0.33087-0.24481 0.36787-0.17611 0.40264-0.10132 0.40641-0.01715 0.4063 0.05869 0.38571 0.13396z" 
		stroke="#000137"
		fill="url(#radialGradient3661)"/>
	</g>
<g id="View"
   transform="rotate(60,148.5,98.3762) translate(148.5,98.3762) scale(1,1)"
  >
<g   stroke="rgb(0, 0, 0)"
   stroke-width="0.35"
   stroke-linecap="butt"
   stroke-linejoin="miter"
   fill="none"
   transform="scale(1,-1)"
  >
<path id= "1" d=" M -1.9984e-15 -2.16372 L -0.0707107 -2.20454 " />
<path id= "2" d=" M 0.342303 -1.92968 L 13.1093 -9.3007 " />
<path id= "3" d=" M 1.8423 0.668397 L 14.6093 -6.70263 " />
<path id= "4" d=" M -3.42561 -1.19765 L -1.44571 -2.34075 " />
<path id= "5" d=" M -0.67561 3.56549 L 1.30429 2.42239 " />
<path id= "6" d=" M 14.1421 -9.06311 L 13.8593 -9.22641 " />
<path id= "7" d=" M -3.99515 0.142887 L -3.99515 0.0612372 " />
<path id= "8" d=" M -2.12132 3.38846 L -2.05061 3.42929 " />
</g>
<g   stroke="rgb(0, 0, 0)"
   stroke-width="0.35"
   stroke-linecap="butt"
   stroke-linejoin="miter"
   fill="none"
   transform="scale(1,-1)"
  >
<path d="M1.87383 1.08186 A2.65 1.52998 -120 0 0 -2.55351e-15 -2.16372" />
<path d="M-1.87034 -0.947694 A2.65 1.52998 -120 0 0 -1.85478 -0.763082" />
<path d="M-0.266541 1.98783 A2.65 1.52998 -120 0 0 -0.11444 2.0936" />
<path id= "4" d=" M 1.87383 1.08186 L 1.87383 1.16351 " />
<path d="M1.87383 1.16351 A2.75 1.58771 -120 0 0 -0.0707107 -2.20454" />
<path d="M-0.0707107 -2.20454 A2.75 1.58771 -120 0 0 -1.44571 -2.34075" />
<path d="M-2.01493 -1.04047 A2.75 1.58771 -120 0 0 -2.00688 -0.86886" />
<path d="M-0.250985 2.17244 A2.75 1.58771 -120 0 0 -0.106393 2.26521" />
<path d="M1.30429 2.42239 A2.75 1.58771 -120 0 0 1.87383 1.16351" />
<path d="M14.92 -7.38929 A1.5 0.866025 -120 0 0 13.8593 -9.22641" />
<path d="M13.8593 -9.22641 A1.5 0.866025 -120 0 0 13.1093 -9.3007" />
<path d="M14.6093 -6.70263 A1.5 0.866025 -120 0 0 14.92 -7.38929" />
<path d="M-0.106066 2.3066 A2.75 1.58771 -120 0 0 -3.42561 -1.19765" />
<path d="M-3.42561 -1.19765 A2.75 1.58771 -120 0 0 -3.99515 0.0612372" />
<path d="M-2.05061 3.42929 A2.75 1.58771 -120 0 0 -0.67561 3.56549" />
<path d="M-0.67561 3.56549 A2.75 1.58771 -120 0 0 -0.106066 2.3066" />
<path id= "17" d=" M 14.92 -7.38929 L 14.92 -7.71589 " />
<path d="M14.92 -7.71589 A1.1 0.635085 -120 0 0 14.1421 -9.06311" />
<path d="M-0.247487 2.3066 A2.65 1.52998 -120 0 0 -3.99515 0.142887" />
<path d="M-3.99515 0.142887 A2.65 1.52998 -120 0 0 -2.12132 3.38846" />
<path d="M-2.12132 3.38846 A2.65 1.52998 -120 0 0 -0.247487 2.3066" />
<path d="M-1.09602 1.8167 A1.45 0.837158 -120 0 0 -2.12132 0.0408242" />
<path d="M-2.12132 0.0408242 A1.45 0.837158 -120 1 0 -1.09602 1.8167" />
<path d="M-1.09602,1.8129 L-1.09859,1.84743  L-1.10585,1.88357  L-1.11786,1.92154  L-1.13469,1.96156  L-1.15643,2.00389  L-1.18324,2.04879  L-1.21526,2.09652  L-1.25269,2.14738  L-1.29577,2.20168  L-1.34475,2.25975  L-1.39994,2.32196  L-1.46167,2.38867  L-1.53033,2.4603  L-1.60633,2.53729 " /><path d="M-1.60633,2.53729 L-1.64798,2.47058  L-1.69304,2.40891  L-1.74178,2.35189  L-1.7945,2.29917  L-1.85152,2.25043  L-1.91319,2.20537  L-1.9799,2.16372  L-2.05205,2.1252  L-2.1301,2.08959  L-2.21451,2.05667  L-2.30582,2.02624  L-2.40458,1.9981  L-2.5114,1.97208  L-2.62695,1.94803 " /><path d="M-2.62695,1.94803 L-2.6293,1.82541  L-2.63639,1.70972  L-2.64826,1.60024  L-2.66497,1.4963  L-2.68663,1.39726  L-2.71337,1.30251  L-2.74536,1.21146  L-2.7828,1.12356  L-2.82592,1.03826  L-2.87497,0.955037  L-2.93028,0.873378  L-2.99216,0.79278  L-3.06101,0.712747  L-3.13726,0.632785 " /><path d="M-3.13726,0.632785 L-3.06101,0.555546  L-2.99216,0.483697  L-2.93028,0.416797  L-2.87497,0.354434  L-2.82592,0.296222  L-2.7828,0.241803  L-2.74536,0.190843  L-2.71337,0.143027  L-2.68663,0.0980597  L-2.66497,0.0556652  L-2.64826,0.0155819  L-2.63639,-0.0224371  L-2.6293,-0.0586261  L-2.62695,-0.0932081 " /><path d="M-2.62695,-0.0932081 L-2.57602,-0.0830692  L-2.52678,-0.0725815  L-2.47918,-0.0617328  L-2.43317,-0.0505108  L-2.38868,-0.0389026  L-2.34568,-0.026895  L-2.30411,-0.0144742  L-2.26392,-0.00162589  L-2.22506,0.0116645  L-2.1875,0.0254123  L-2.15119,0.0396332  L-2.11609,0.0543434  L-2.08215,0.0695599  L-2.04935,0.0853 " /><path id= "29" d=" M -2.62695 1.94803 L -1.23401 1.14382 " />
<path id= "30" d=" M -3.13726 0.632785 L -2.12715 0.0495995 " />
<path d="M-1.46489,-0.422871 L-1.45832,-0.431188  L-1.45181,-0.439452  L-1.44537,-0.447664  L-1.43898,-0.455825  L-1.43266,-0.463937  L-1.4264,-0.472001  L-1.4202,-0.480017  L-1.41406,-0.487988  L-1.40797,-0.495912  L-1.40194,-0.503793  L-1.39597,-0.511631  L-1.39005,-0.519426  L-1.38419,-0.52718  L-1.37838,-0.534895 " /><path id= "32" d=" M -1.69162 -0.633221 L -1.56251 -0.707758 " />
</g>
</g>



</svg>

