  0
SECTION
  2
HEADER
  9
$ACADVER
  1
AC1009
  9
$INSBASE
 10
0.0
 20
0.0
 30
0.0
  9
$EXTMIN
 10
0.0
 20
0.0
 30
0.0
  9
$EXTMAX
 10
0.0
 20
0.0
 30
0.0
  0
ENDSEC
  0
SECTION
  2
TABLES
  0
TABLE
  2
VPORT
 70
0
  0
ENDTAB
  0
TABLE
  2
LTYPE
 70
1
  0
LTYPE
  2
CONTINUOUS
 70
0
  3
Solid line
 72
65
 73
0
 40
0.0
  0
ENDTAB
  0
TABLE
  2
LAYER
 70
1
  0
LAYER
  2
0
 70
64
 62
7
  6
continuous
  0
ENDTAB
  0
TABLE
  2
STYLE
 70
1
  0
STYLE
  2
STANDARD
 70
0
 40
0
 41
1.0
 50
0.0
 71
0
 42
1
 3
ARIAL.TTF
 4

  0
ENDTAB
  0
TABLE
  2
VIEW
 70
0
  0
ENDTAB
  0
ENDSEC
  0
SECTION
  2
BLOCKS
  0
BLOCK
  8
0
  2
POCKET005002001
 70
0
 10
0.0
 20
0.0
 30
0.0
  3
POCKET005002001
  0
LINE
  8
0
 62
0
 10
85.0
 20
428.0
 30
0.0
 11
85.0
 21
-3.97903932026e-13
 31
0.0
  0
LINE
  8
0
 62
0
 10
85.0
 20
428.0
 30
0.0
 11
77.0
 21
436.0
 31
0.0
  0
LINE
  8
0
 62
0
 10
85.0
 20
2.6645352591e-14
 30
0.0
 11
-85.0
 21
2.79221090693e-14
 31
0.0
  0
LINE
  8
0
 62
0
 10
-77.0
 20
436.0
 30
0.0
 11
77.0
 21
436.0
 31
0.0
  0
LINE
  8
0
 62
0
 10
-85.0
 20
2.79221090693e-14
 30
0.0
 11
-85.0
 21
428.0
 31
0.0
  0
LINE
  8
0
 62
0
 10
-85.0
 20
428.0
 30
0.0
 11
-77.0
 21
436.0
 31
0.0
  0
CIRCLE
  8
0
 62
0
 10
-31.5
 20
50.0
 30
0.0
 40
1.6
  0
CIRCLE
  8
0
 62
0
 10
-31.5
 20
30.0
 30
0.0
 40
1.6
  0
CIRCLE
  8
0
 62
0
 10
31.5
 20
30.0
 30
0.0
 40
1.6
  0
CIRCLE
  8
0
 62
0
 10
31.5
 20
50.0
 30
0.0
 40
1.6
  0
ARC
  8
0
 62
0
 10
14.0
 20
32.5
 30
0.0
 40
2.0
 50
90.0
 51
180.0
  0
LINE
  8
0
 62
0
 10
14.0
 20
34.5
 30
0.0
 11
20.0
 21
34.5
 31
0.0
  0
LINE
  8
0
 62
0
 10
12.0
 20
14.5
 30
0.0
 11
12.0
 21
32.5
 31
0.0
  0
ARC
  8
0
 62
0
 10
20.0
 20
32.5
 30
0.0
 40
2.0
 50
0.0
 51
90.0
  0
ARC
  8
0
 62
0
 10
14.0
 20
14.5
 30
0.0
 40
2.0
 50
-180.0
 51
-90.0
  0
LINE
  8
0
 62
0
 10
22.0
 20
32.5
 30
0.0
 11
22.0
 21
14.5
 31
0.0
  0
LINE
  8
0
 62
0
 10
20.0
 20
12.5
 30
0.0
 11
14.0
 21
12.5
 31
0.0
  0
ARC
  8
0
 62
0
 10
20.0
 20
14.5
 30
0.0
 40
2.0
 50
-90.0
 51
-0.0
  0
CIRCLE
  8
0
 62
0
 10
-58.0
 20
50.0
 30
0.0
 40
1.6
  0
CIRCLE
  8
0
 62
0
 10
-73.0
 20
210.0
 30
0.0
 40
2.0
  0
CIRCLE
  8
0
 62
0
 10
-73.0
 20
230.0
 30
0.0
 40
2.0
  0
LINE
  8
0
 62
0
 10
-29.0
 20
315.0
 30
0.0
 11
29.0
 21
315.0
 31
0.0
  0
LINE
  8
0
 62
0
 10
-29.0
 20
315.0
 30
0.0
 11
-35.0
 21
309.0
 31
0.0
  0
LINE
  8
0
 62
0
 10
29.0
 20
315.0
 30
0.0
 11
35.0
 21
309.0
 31
0.0
  0
LINE
  8
0
 62
0
 10
-35.0
 20
61.0
 30
0.0
 11
-35.0
 21
309.0
 31
0.0
  0
LINE
  8
0
 62
0
 10
35.0
 20
309.0
 30
0.0
 11
35.0
 21
61.0
 31
0.0
  0
LINE
  8
0
 62
0
 10
-29.0
 20
55.0
 30
0.0
 11
-35.0
 21
61.0
 31
0.0
  0
LINE
  8
0
 62
0
 10
35.0
 20
61.0
 30
0.0
 11
29.0
 21
55.0
 31
0.0
  0
LINE
  8
0
 62
0
 10
29.0
 20
55.0
 30
0.0
 11
-29.0
 21
55.0
 31
0.0
  0
CIRCLE
  8
0
 62
0
 10
60.0
 20
355.0
 30
0.0
 40
1.6
  0
CIRCLE
  8
0
 62
0
 10
58.0
 20
50.0
 30
0.0
 40
1.6
  0
CIRCLE
  8
0
 62
0
 10
-60.0
 20
355.0
 30
0.0
 40
1.6
  0
CIRCLE
  8
0
 62
0
 10
-28.0
 20
355.0
 30
0.0
 40
1.6
  0
CIRCLE
  8
0
 62
0
 10
28.0
 20
355.0
 30
0.0
 40
1.6
  0
CIRCLE
  8
0
 62
0
 10
60.0
 20
5.0
 30
0.0
 40
1.6
  0
CIRCLE
  8
0
 62
0
 10
28.0
 20
5.0
 30
0.0
 40
1.6
  0
CIRCLE
  8
0
 62
0
 10
-28.0
 20
5.0
 30
0.0
 40
1.6
  0
CIRCLE
  8
0
 62
0
 10
-60.0
 20
5.0
 30
0.0
 40
1.6
  0
CIRCLE
  8
0
 62
0
 10
10.0
 20
375.0
 30
0.0
 40
1.6
  0
CIRCLE
  8
0
 62
0
 10
-10.0
 20
375.0
 30
0.0
 40
1.6
  0
ARC
  8
0
 62
0
 10
-48.0
 20
412.0
 30
0.0
 40
6.0
 50
90.0
 51
180.0
  0
LINE
  8
0
 62
0
 10
-54.0
 20
392.0
 30
0.0
 11
-54.0
 21
412.0
 31
0.0
  0
ARC
  8
0
 62
0
 10
-48.0
 20
392.0
 30
0.0
 40
6.0
 50
-180.0
 51
-90.0
  0
LINE
  8
0
 62
0
 10
48.0
 20
386.0
 30
0.0
 11
-48.0
 21
386.0
 31
0.0
  0
ARC
  8
0
 62
0
 10
48.0
 20
392.0
 30
0.0
 40
6.0
 50
-90.0
 51
-0.0
  0
LINE
  8
0
 62
0
 10
54.0
 20
412.0
 30
0.0
 11
54.0
 21
392.0
 31
0.0
  0
ARC
  8
0
 62
0
 10
48.0
 20
412.0
 30
0.0
 40
6.0
 50
0.0
 51
90.0
  0
LINE
  8
0
 62
0
 10
-48.0
 20
418.0
 30
0.0
 11
48.0
 21
418.0
 31
0.0
  0
ENDBLK
  0
ENDSEC
  0
SECTION
  2
ENTITIES
  0
INSERT
  2
POCKET005002001
  8
0
 10
0.0
 20
0.0
 30
0.0
  0
ENDSEC
  0
EOF
