<?xml version="1.0" encoding="UTF-8"?>

<svg xmlns="http://www.w3.org/2000/svg" version="1.1"
	width="297mm"
	height="210mm"
	viewBox="0 0 297 210">
	<!-- Working space 0 0 297 210 -->
	<defs>
		<radialGradient
			id="radialGradient3661"
			gradientUnits="userSpaceOnUse"
			cy="29.149"
			cx="282.65"
			gradientTransform="matrix(.14777 .23089 -.24680 .15795 -26.318 -62.617)"
			r="19.571">
				<stop stop-color="#71b2f8" offset="0"/>
				<stop stop-color="#002795" offset="1"/>
		</radialGradient>
		<radialGradient
			id="radialGradient3817"
			gradientUnits="userSpaceOnUse"
			cy="33.9"
			cx="270.58"
			gradientTransform="matrix(.26631 .065024 -.17931 .73438 -60.668 -36.938)"
			r="19.571">
				<stop stop-color="#ff6d0f" offset="0"/>
				<stop stop-color="#ff1000" offset="1"/>
		</radialGradient>
	</defs>
	<!-- Set display:none to hide FreeCAD Logo -->
	<g
		style="display:inline"
		id="freecad-logo"
		transform="translate(271, 185) scale(1)"
		fill-rule="evenodd"
		stroke-width=".45621">
		<path d="m0.22811 0.22835v13.256h2.9558v-5.1876h2.09v-2.0452h-2.09v-2.2075h5.1486v-3.8087l-8.1044-0.0075z"
			stroke="#370700"
			fill="url(#radialGradient3817)"/>
		<path d="m13.386 4.1792-1.7193 0.98645-0.75925-0.26348-0.72439-1.8513-1.1395 0.05988-0.51976 1.9144-0.72743 0.34835-1.8143-0.79367-0.76632 0.85156 0.98645 1.7193-0.26957 0.75702-1.8513 0.72439 0.065967 1.1417 1.9144 0.51976 0.34835 0.72743-0.79976 1.8121 0.85156 0.76632 1.7193-0.98645 0.76311 0.27179 0.7183 1.8491 1.1478-0.06375 0.51367-1.9166 0.72743-0.34835 1.8182 0.80198 0.76632-0.85156-0.98645-1.7193 0.2657-0.76533 1.8491-0.7183-0.05766-1.1456-1.9166-0.51367-0.34835-0.72743 0.7959-1.8204-0.85156-0.76632zm-2.5751 2.8195 0.35295 0.20478 0.30579 0.27725 0.24481 0.33087 0.17611 0.36787 0.10354 0.39656 0.01715 0.4064-0.0587 0.4063-0.13396 0.38571-0.2131 0.35681-0.26894 0.30192-0.33087 0.24481-0.36787 0.17611-0.39656 0.10354-0.40863 0.02325-0.4063-0.0587-0.38571-0.13396-0.35681-0.2131-0.2997-0.27503-0.24703-0.32478-0.17611-0.36787-0.10132-0.40264-0.02324-0.40863 0.05869-0.4063 0.13396-0.38571 0.21087-0.35072 0.27116-0.30801 0.33087-0.24481 0.36787-0.17611 0.40264-0.10132 0.40641-0.01715 0.4063 0.05869 0.38571 0.13396z" 
		stroke="#000137"
		fill="url(#radialGradient3661)"/>
	</g>
<g id="View"
   transform="rotate(60,153.856,90.6501) translate(153.856,90.6501) scale(1,1)"
  >
<g   stroke="rgb(0, 0, 0)"
   stroke-width="0.35"
   stroke-linecap="butt"
   stroke-linejoin="miter"
   fill="none"
   transform="scale(1,-1)"
  >
<path id= "1" d=" M 33.234 13.0517 L 32.8198 13.2909 " />
</g>
<g   stroke="rgb(0, 0, 0)"
   stroke-width="0.35"
   stroke-linecap="butt"
   stroke-linejoin="miter"
   fill="none"
   transform="scale(1,-1)"
  >
<path id= "1" d=" M -43.1335 -25.7196 L -43.1335 -31.4351 " />
<path id= "2" d=" M -43.1335 -25.7196 L 43.1335 24.0866 " />
<path id= "3" d=" M -43.1335 -31.4351 L -37.4767 -28.1691 " />
<path id= "4" d=" M 43.1335 24.0866 L 43.1335 18.3712 " />
<path id= "5" d=" M -37.4767 -28.1691 L -37.4767 -42.172 " />
<path id= "6" d=" M 43.1335 18.3712 L 37.4767 15.1052 " />
<path id= "7" d=" M -37.4767 -42.172 L -33.9411 -44.2133 " />
<path id= "8" d=" M 37.4767 15.1052 L 37.4767 1.10227 " />
<path id= "9" d=" M -33.9411 -44.2133 L -28.2843 -40.9473 " />
<path id= "10" d=" M 37.4767 1.10227 L 33.9411 -5.02145 " />
<path id= "11" d=" M -28.2843 -40.9473 L -24.7487 -34.8236 " />
<path id= "12" d=" M 28.2843 -8.28744 L 33.9411 -5.02145 " />
<path id= "13" d=" M -24.7487 -34.8236 L -24.7487 -20.8207 " />
<path id= "14" d=" M 28.2843 -8.28744 L 24.7487 -6.2462 " />
<path id= "15" d=" M -24.7487 -20.8207 L -19.799 -17.9629 " />
<path id= "16" d=" M 24.7487 -6.2462 L 24.7487 7.75672 " />
<path id= "17" d=" M -19.799 -17.9629 L -15.5563 -15.5134 " />
<path id= "18" d=" M 24.7487 7.75672 L 19.799 4.89898 " />
<path id= "19" d=" M -15.5563 -15.5134 L -15.5563 -43.5193 " />
<path id= "20" d=" M 19.799 4.89898 L 15.5563 2.44949 " />
<path id= "21" d=" M -15.5563 -43.5193 L -9.68736 -40.1308 " />
<path id= "22" d=" M 15.5563 2.44949 L 15.5563 -25.5563 " />
<path id= "23" d=" M -9.68736 -40.1308 L -7.56604 -36.4566 " />
<path id= "24" d=" M 15.5563 -25.5563 L 9.68736 -28.9448 " />
<path id= "25" d=" M -7.56604 -36.4566 L -7.56604 -26.3584 " />
<path id= "26" d=" M 7.56604 -27.7201 L 9.68736 -28.9448 " />
<path d="M7.56604 -17.6219 A12 6.9282 60 0 1 6 -7.16237" />
<path d="M6 -7.16237 A12 6.9282 60 0 1 -7.56604 -26.3584" />
<path id= "29" d=" M 7.56604 -27.7201 L 7.56604 -17.6219 " />
<path id= "30" d=" M -33.234 -32.8891 L -33.234 -25.1836 " />
<path d="M-33.234 -32.8891 A5.3 3.05996 60 0 1 -31.1127 -39.5593" />
<path d="M-31.1127 -39.5593 A5.3 3.05996 60 0 1 -27.365 -33.0681" />
<path d="M-27.365 -33.0681 A5.3 3.05996 60 0 1 -28.9914 -30.4396" />
<path d="M-33.234 -25.1836 A3 1.73205 -120 0 0 -28.9914 -22.7341" />
<path id= "35" d=" M -28.9914 -22.7341 L -28.9914 -30.4396 " />
<path d="M-8.83883 -35.0277 A3 1.73205 60 0 1 -9.46016 -33.6544" />
<path d="M-9.46016 -33.6544 A3 1.73205 60 0 1 -12.4602 -38.8505" />
<path d="M-12.4602 -38.8505 A3 1.73205 60 0 1 -8.83883 -35.0277" />
<path d="M-8.83883 -9.71631 A3 1.73205 60 0 1 -9.46016 -8.34298" />
<path d="M-9.46016 -8.34298 A3 1.73205 60 0 1 -12.4602 -13.5391" />
<path d="M-12.4602 -13.5391 A3 1.73205 60 0 1 -8.83883 -9.71631" />
<path d="M13.0815 -22.372 A3 1.73205 60 0 1 12.4602 -20.9987" />
<path d="M12.4602 -20.9987 A3 1.73205 60 0 1 9.46016 -26.1948" />
<path d="M9.46016 -26.1948 A3 1.73205 60 0 1 13.0815 -22.372" />
<path d="M13.0815 2.93939 A3 1.73205 60 0 1 12.4602 4.31272" />
<path d="M12.4602 4.31272 A3 1.73205 60 0 1 9.46016 -0.883433" />
<path d="M9.46016 -0.883433 A3 1.73205 60 0 1 13.0815 2.93939" />
<path id= "48" d=" M 28.9914 3.03673 L 28.9914 10.7423 " />
<path d="M28.9914 3.03673 A5.3 3.05996 60 0 1 31.1127 -3.63341" />
<path d="M31.1127 -3.63341 A5.3 3.05996 60 0 1 34.8604 2.85774" />
<path d="M34.8604 2.85774 A5.3 3.05996 60 0 1 33.234 5.48621" />
<path d="M28.9914 10.7423 A3 1.73205 -120 1 0 33.234 13.1918" />
<path id= "53" d=" M 33.234 13.1918 L 33.234 5.48621 " />
<path id= "54" d=" M -43.1335 -33.0681 L -43.1335 -31.4351 " />
<path id= "55" d=" M 43.1335 24.0866 L 44.5477 24.9031 " />
<path id= "56" d=" M -43.1335 -33.0681 L -38.8909 -35.5176 " />
<path id= "57" d=" M -37.4767 -35.5176 L -38.8909 -35.5176 " />
<path id= "58" d=" M -40.8227 -32.7693 L -39.9261 -30.8374 " />
<path id= "59" d=" M -38.3732 -34.1835 L -40.8227 -32.7693 " />
<path id= "60" d=" M -37.4767 -34.0448 L -38.3732 -34.1835 " />
<path id= "61" d=" M -39.9261 -30.8374 L -37.4767 -30.4585 " />
<path id= "62" d=" M 44.5477 24.9031 L 45.9619 24.9031 " />
<path id= "63" d=" M 45.9619 24.9031 L 45.9619 18.3712 " />
<path id= "64" d=" M 43.1335 18.3712 L 45.9619 18.3712 " />
<path id= "65" d=" M 37.4767 15.1052 L 44.5477 11.0227 " />
<path id= "66" d=" M 45.9619 18.3712 L 50.2046 15.9217 " />
<path id= "67" d=" M 44.5477 11.0227 L 50.2046 14.2887 " />
<path id= "68" d=" M 50.2046 15.9217 L 50.2046 14.2887 " />
<path id= "69" d=" M 46.9972 13.691 L 43.6512 13.1733 " />
<path id= "70" d=" M 43.6512 13.1733 L 41.2017 14.5875 " />
<path id= "71" d=" M 41.2017 14.5875 L 42.0982 16.5194 " />
<path id= "72" d=" M 42.0982 16.5194 L 45.4443 17.037 " />
<path id= "73" d=" M 45.4443 17.037 L 47.8938 15.6228 " />
<path id= "74" d=" M 47.8938 15.6228 L 46.9972 13.691 " />
<path id= "75" d=" M -33.9411 -44.2133 L -26.8701 -48.2958 " />
<path id= "76" d=" M 37.4767 1.10227 L 44.5477 -2.98021 " />
<path id= "77" d=" M 44.5477 -2.98021 L 44.5477 11.0227 " />
<path d="M41.0122 10.2062 A3 1.73205 -60 0 1 39.5122 10.3548" />
<path d="M39.5122 10.3548 A3 1.73205 -60 0 1 42.5122 5.15864" />
<path d="M42.5122 5.15864 A3 1.73205 -60 0 1 41.0122 10.2062" />
<path id= "81" d=" M -28.2843 -40.9473 L -21.2132 -45.0298 " />
<path id= "82" d=" M -26.8701 -48.2958 L -21.2132 -45.0298 " />
<path id= "83" d=" M 33.9411 -5.02145 L 41.0122 -9.10394 " />
<path id= "84" d=" M 44.5477 -2.98021 L 41.0122 -9.10394 " />
<path id= "85" d=" M -24.7487 -34.8236 L -17.6777 -38.9061 " />
<path id= "86" d=" M -21.2132 -45.0298 L -17.6777 -38.9061 " />
<path id= "87" d=" M 28.2843 -8.28744 L 35.3553 -12.3699 " />
<path id= "88" d=" M 41.0122 -9.10394 L 35.3553 -12.3699 " />
<path id= "89" d=" M -24.7487 -20.8207 L -17.6777 -24.9031 " />
<path id= "90" d=" M -17.6777 -38.9061 L -17.6777 -24.9031 " />
<path id= "91" d=" M -21.2132 -30.9976 L -23.3345 -28.3586 " />
<path id= "92" d=" M -19.0919 -30.8081 L -21.2132 -30.9976 " />
<path id= "93" d=" M -23.3345 -28.3586 L -23.3345 -25.5302 " />
<path id= "94" d=" M -19.0919 -27.9797 L -19.0919 -30.8081 " />
<path id= "95" d=" M -23.3345 -25.5302 L -21.2132 -25.3407 " />
<path id= "96" d=" M -21.2132 -25.3407 L -19.0919 -27.9797 " />
<path id= "97" d=" M -17.6777 -24.9031 L -15.5563 -26.1279 " />
<path id= "98" d=" M -17.8418 -19.5012 L -15.5563 -20.8207 " />
<path id= "99" d=" M -21.1878 -20.0188 L -17.8418 -19.5012 " />
<path id= "100" d=" M -15.5563 -21.269 L -16.2888 -22.8472 " />
<path id= "101" d=" M -22.0844 -21.9507 L -21.1878 -20.0188 " />
<path id= "102" d=" M -16.2888 -22.8472 L -19.6349 -23.3649 " />
<path id= "103" d=" M -19.6349 -23.3649 L -22.0844 -21.9507 " />
<path id= "104" d=" M 15.5563 2.44949 L 24.0416 2.44949 " />
<path id= "105" d=" M 45.9619 -4.49073 L 42.5325 -6.47074 " />
<path id= "106" d=" M 45.9619 -4.49073 L 44.2472 -3.50073 " />
<path id= "107" d=" M 23.3599 5.70082 L 24.7487 5.91567 " />
<path id= "108" d=" M 22.4633 3.76897 L 23.3599 5.70082 " />
<path id= "109" d=" M 24.7487 2.44949 L 22.4633 3.76897 " />
<path id= "110" d=" M -15.5563 -43.5193 L -15.5563 -48.4182 " />
<path id= "111" d=" M -9.68736 -40.1308 L -4.03051 -43.3968 " />
<path id= "112" d=" M -9.89949 -46.7853 L -4.03051 -43.3968 " />
<path id= "113" d=" M -15.5563 -48.4182 L 1.41421 -58.2162 " />
<path id= "114" d=" M 5.65685 -55.7667 L -9.89949 -46.7853 " />
<path id= "115" d=" M 1.41421 -58.2162 L 5.65685 -55.7667 " />
<path d="M-8.06102 -48.9898 A1.6 0.92376 180 0 1 -10.7924 -49.643" />
<path d="M-10.7924 -49.643 A1.6 0.92376 180 0 1 -7.59239 -49.643" />
<path d="M-7.59239 -49.643 A1.6 0.92376 180 0 1 -8.06102 -48.9898" />
<path d="M0.424264 -53.8888 A1.6 0.92376 180 0 1 -2.30711 -54.542" />
<path d="M-2.30711 -54.542 A1.6 0.92376 180 0 1 0.892893 -54.542" />
<path d="M0.892893 -54.542 A1.6 0.92376 180 0 1 0.424264 -53.8888" />
<path id= "122" d=" M 24.0416 2.44949 L 24.0416 -25.5563 " />
<path id= "123" d=" M 15.5563 -25.5563 L 24.0416 -25.5563 " />
<path id= "124" d=" M -7.56604 -36.4566 L -1.90919 -39.7226 " />
<path id= "125" d=" M -4.03051 -43.3968 L -1.90919 -39.7226 " />
<path id= "126" d=" M 9.68736 -28.9448 L 15.3442 -32.2108 " />
<path id= "127" d=" M 15.3442 -32.2108 L 21.2132 -28.8223 " />
<path id= "128" d=" M 24.0416 -25.5563 L 41.0122 -35.3543 " />
<path id= "129" d=" M 21.2132 -28.8223 L 36.7696 -37.8038 " />
<path id= "130" d=" M 41.0122 -35.3543 L 36.7696 -37.8038 " />
<path d="M27.2943 -28.5774 A1.6 0.92376 180 0 1 24.563 -29.2306" />
<path d="M24.563 -29.2306 A1.6 0.92376 180 0 1 27.763 -29.2306" />
<path d="M27.763 -29.2306 A1.6 0.92376 180 0 1 27.2943 -28.5774" />
<path d="M35.7796 -33.4764 A1.6 0.92376 180 0 1 33.0482 -34.1296" />
<path d="M33.0482 -34.1296 A1.6 0.92376 180 0 1 36.2482 -34.1296" />
<path d="M36.2482 -34.1296 A1.6 0.92376 180 0 1 35.7796 -33.4764" />
<path id= "137" d=" M -7.56604 -26.3584 L -1.90919 -29.6244 " />
<path id= "138" d=" M -1.90919 -39.7226 L -1.90919 -29.6244 " />
<path d="M8.11993 -10.0225 A12 6.9282 60 0 1 -1.90919 -29.6244" />
<path d="M-31.8198,-33.3485 L-31.9144,-33.3157  L-32.0099,-33.2829  L-32.1065,-33.2501  L-32.204,-33.2173  L-32.3025,-33.1845  L-32.4021,-33.1516  L-32.5026,-33.1188  L-32.6041,-33.086  L-32.7066,-33.0532  L-32.8101,-33.0204  L-32.9146,-32.9876  L-33.0201,-32.9548  L-33.1265,-32.9219  L-33.234,-32.8891 " /><path id= "141" d=" M -31.8198 -33.3485 L -31.8198 -25.1836 " />
<path d="M-31.8198 -33.3485 A4.3 2.48261 60 0 1 -32.5556 -39.364" />
<path d="M-32.5556 -39.364 A4.3 2.48261 60 0 1 -30.7406 -39.3231" />
<path d="M-27.3835 -33.5084 A4.3 2.48261 60 0 1 -28.2556 -31.9162" />
<path d="M-28.2556 -31.9162 A4.3 2.48261 60 0 1 -28.9914 -31.7155" />
<path d="M-28.9914,-31.7155 L-28.9914,-31.6281  L-28.9914,-31.5401  L-28.9914,-31.4516  L-28.9914,-31.3625  L-28.9914,-31.2728  L-28.9914,-31.1825  L-28.9914,-31.0916  L-28.9914,-31.0002  L-28.9914,-30.9082  L-28.9914,-30.8156  L-28.9914,-30.7225  L-28.9914,-30.6288  L-28.9914,-30.5345  L-28.9914,-30.4396 " /><path d="M-31.8198 -25.1836 A2 1.1547 -120 0 0 -29.4056 -22.635" />
<path d="M-29.4056 -22.635 A2 1.1547 -120 0 0 -28.9914 -23.5506" />
<path d="M-8.93017 -34.3694 A3 1.73205 60 0 1 -11.5759 -38.952" />
<path d="M-8.93017 -9.05801 A3 1.73205 60 0 1 -11.5759 -13.6406" />
<path d="M12.9901 -21.7137 A3 1.73205 60 0 1 10.3444 -26.2963" />
<path d="M12.9901 3.59768 A3 1.73205 60 0 1 10.3444 -0.984893" />
<path d="M28.9914,3.03673 L29.0989,3.00392  L29.2053,2.9711  L29.3108,2.93829  L29.4153,2.90547  L29.5188,2.87266  L29.6213,2.83985  L29.7228,2.80703  L29.8233,2.77422  L29.9229,2.74141  L30.0214,2.70859  L30.1189,2.67578  L30.2155,2.64296  L30.311,2.61015  L30.4056,2.57734 " /><path id= "154" d=" M 30.4056 2.57734 L 30.4056 10.7423 " />
<path d="M30.4056 2.57734 A4.3 2.48261 60 0 1 29.6698 -3.43814" />
<path d="M29.6698 -3.43814 A4.3 2.48261 60 0 1 31.4848 -3.39722" />
<path d="M34.8418 2.41742 A4.3 2.48261 60 0 1 33.9698 4.00968" />
<path d="M33.9698 4.00968 A4.3 2.48261 60 0 1 33.234 4.21032" />
<path d="M33.234,5.48621 L33.234,5.39135  L33.234,5.29706  L33.234,5.20335  L33.234,5.1102  L33.234,5.01764  L33.234,4.92564  L33.234,4.83422  L33.234,4.74337  L33.234,4.6531  L33.234,4.5634  L33.234,4.47427  L33.234,4.38571  L33.234,4.29773  L33.234,4.21032 " /><path d="M30.4056 10.7423 A2 1.1547 -120 0 0 32.8198 13.2909" />
<path d="M32.8198 13.2909 A2 1.1547 -120 0 0 33.234 12.3753" />
<path id= "162" d=" M 45.9619 24.9031 L 50.2046 22.4537 " />
<path id= "163" d=" M 5.65685 -21.2289 L -0.517318 -17.6643 " />
<path id= "164" d=" M -38.3732 -34.1835 L -38.3732 -30.9175 " />
<path id= "165" d=" M -38.3732 -30.9175 L -38.8108 -30.6649 " />
<path id= "166" d=" M -37.4767 -30.7788 L -38.3732 -30.9175 " />
<path id= "167" d=" M 50.2046 15.9217 L 50.2046 22.4537 " />
<path d="M-33.234 -37.5588 A3 1.73205 120 0 0 -33.446 -37.4242" />
<path id= "169" d=" M 46.9972 13.691 L 46.9972 16.1405 " />
<path id= "170" d=" M 45.8819 16.7844 L 43.6512 16.4393 " />
<path id= "171" d=" M 43.6512 13.1733 L 43.6512 16.4393 " />
<path id= "172" d=" M 43.6512 16.4393 L 43.2136 16.6919 " />
<path d="M40.3051 9.79796 A3 1.73205 -60 0 1 39.2009 10.0775" />
<path d="M42.1164 5.02772 A3 1.73205 -60 0 1 40.3051 9.79796" />
<path id= "175" d=" M -19.0919 -27.9797 L -20.5061 -28.7962 " />
<path id= "176" d=" M -20.5061 -28.7962 L -20.5061 -30.9344 " />
<path id= "177" d=" M -23.3345 -26.2204 L -22.6274 -26.1572 " />
<path id= "178" d=" M -21.2132 -25.3407 L -22.6274 -26.1572 " />
<path id= "179" d=" M -22.6274 -26.1572 L -20.5061 -28.7962 " />
<path id= "180" d=" M 5.65685 -21.2289 L 5.65685 -55.7667 " />
<path id= "181" d=" M -17.6777 -25.7196 L -15.5563 -26.9444 " />
<path id= "182" d=" M -16.2888 -22.8472 L -16.2888 -20.3978 " />
<path id= "183" d=" M -17.4042 -19.7538 L -19.6349 -20.0989 " />
<path id= "184" d=" M -19.6349 -23.3649 L -19.6349 -20.0989 " />
<path id= "185" d=" M -19.6349 -20.0989 L -20.0725 -19.8463 " />
<path id= "186" d=" M 41.0122 -9.10394 L 41.0122 -35.3543 " />
<path id= "187" d=" M 38.8909 -26.7811 L 38.8909 -29.2306 " />
<path id= "188" d=" M 38.8909 -29.2306 L 34.6482 -26.7811 " />
<path id= "189" d=" M 34.6482 -26.7811 L 34.6482 -24.3316 " />
<path id= "190" d=" M 34.6482 -24.3316 L 38.8909 -26.7811 " />
<path id= "191" d=" M 30.4056 -21.8821 L 30.4056 -24.3316 " />
<path id= "192" d=" M 30.4056 -24.3316 L 26.163 -21.8821 " />
<path id= "193" d=" M 26.163 -21.8821 L 26.163 -19.4326 " />
<path id= "194" d=" M 26.163 -19.4326 L 30.4056 -21.8821 " />
<path id= "195" d=" M 45.9619 -4.49073 L 46.0327 -4.44991 " />
<path id= "196" d=" M 46.0327 -4.44991 L 46.0327 -3.71506 " />
<path id= "197" d=" M 46.0327 -3.71506 L 44.5477 -2.85774 " />
<path id= "198" d=" M 24.7487 5.71548 L 24.4753 5.87337 " />
<path id= "199" d=" M -9.89949 -37.7614 L -9.89949 -36.0321 " />
<path id= "200" d=" M 3.53553 -47.1935 L 3.53553 -49.643 " />
<path id= "201" d=" M -0.707107 -44.744 L 3.53553 -47.1935 " />
<path id= "202" d=" M -0.707107 -47.1935 L -0.707107 -44.744 " />
<path id= "203" d=" M 3.53553 -49.643 L -0.707107 -47.1935 " />
<path id= "204" d=" M -4.94975 -44.744 L -5.65685 -44.3358 " />
<path id= "205" d=" M -4.94975 -43.9275 L -4.94975 -44.744 " />
<path id= "206" d=" M -31.8198 -33.3485 L -27.9021 -35.6104 " />
<path d="M-28.9914 -33.9663 A1.6 0.92376 120 0 0 -29.7914 -31.2742" />
<path d="M-29.7914 -31.2742 A1.6 0.92376 120 0 0 -28.9914 -31.3535" />
<path d="M-28.4533 -31.8213 A1.6 0.92376 120 0 0 -28.1914 -34.0455" />
<path d="M-28.1914 -34.0455 A1.6 0.92376 120 0 0 -28.9914 -33.9663" />
<path id= "211" d=" M -28.9914 -31.7155 L -27.7139 -32.4531 " />
<path d="M-8.8958 -35.6244 A1.6 0.92376 60 0 1 -10.4719 -38.3542" />
<path d="M-8.8958 -10.313 A1.6 0.92376 60 0 1 -10.4719 -13.0428" />
<path d="M13.0245 -22.9687 A1.6 0.92376 60 0 1 11.4485 -25.6985" />
<path d="M13.0245 2.34266 A1.6 0.92376 60 0 1 11.4485 -0.387149" />
<path id= "216" d=" M 30.4056 2.57734 L 34.3233 0.315452 " />
<path d="M33.234 4.57238 A1.6 0.92376 -60 0 1 32.434 4.65163" />
<path d="M32.434 4.65163 A1.6 0.92376 -60 0 1 34.034 1.88035" />
<path d="M34.034 1.88035 A1.6 0.92376 -60 0 1 33.7721 4.10454" />
<path id= "220" d=" M 33.234 4.21032 L 34.5115 3.4728 " />
<path id= "221" d=" M 42.1422 5.06306 L 42.1848 5.03847 " />
<path id= "222" d=" M 44.5477 3.67423 L 46.0327 2.81691 " />
<path d="M-33.234 -36.4157 A1.6 0.92376 120 0 0 -33.3278 -36.3571" />
<path id= "224" d=" M 46.0327 2.81691 L 46.0327 -3.71506 " />
<path d="M40.3051 8.65486 A1.6 0.92376 -60 0 1 39.5051 8.73411" />
<path d="M39.5051 8.73411 A1.6 0.92376 -60 0 1 39.3654 7.16336" />
<path d="M39.675 6.62727 A1.6 0.92376 -60 0 1 41.1051 5.96283" />
<path d="M41.1051 5.96283 A1.6 0.92376 -60 0 1 40.3051 8.65486" />
<path d="M-23.3345 -27.5576 A1.6 0.92376 120 0 0 -21.7562 -30.3221" />
<path id= "230" d=" M 3.53553 -47.1935 L 1.41421 -48.4182 " />
<path d="M0.424264 -46.5403 A1.6 0.92376 180 0 1 -0.707107 -46.2697" />
<path d="M0.424264 -47.8467 A1.6 0.92376 180 0 1 0.892893 -47.1935" />
<path d="M0.892893 -47.1935 A1.6 0.92376 180 0 1 0.424264 -46.5403" />
<path d="M29.1435 0.406796 A1.6 0.92376 -60 0 1 30.4985 -0.160896" />
<path id= "235" d=" M 38.8909 -26.7811 L 36.7696 -28.0058 " />
<path d="M35.7796 -26.1279 A1.6 0.92376 180 0 1 34.6482 -25.8573" />
<path d="M35.7796 -27.4343 A1.6 0.92376 180 0 1 36.2482 -26.7811" />
<path d="M36.2482 -26.7811 A1.6 0.92376 180 0 1 35.7796 -26.1279" />
<path id= "239" d=" M 30.4056 -21.8821 L 28.2843 -23.1069 " />
<path d="M27.2943 -21.2289 A1.6 0.92376 180 0 1 26.163 -20.9583" />
<path d="M27.2943 -22.5353 A1.6 0.92376 180 0 1 27.763 -21.8821" />
<path d="M27.763 -21.8821 A1.6 0.92376 180 0 1 27.2943 -21.2289" />
</g>
</g>



</svg>

