<?xml version="1.0" encoding="UTF-8"?>

<svg xmlns="http://www.w3.org/2000/svg" version="1.1"
	width="297mm"
	height="210mm"
	viewBox="0 0 297 210">
	<!-- Working space 0 0 297 210 -->
	<defs>
		<radialGradient
			id="radialGradient3661"
			gradientUnits="userSpaceOnUse"
			cy="29.149"
			cx="282.65"
			gradientTransform="matrix(.14777 .23089 -.24680 .15795 -26.318 -62.617)"
			r="19.571">
				<stop stop-color="#71b2f8" offset="0"/>
				<stop stop-color="#002795" offset="1"/>
		</radialGradient>
		<radialGradient
			id="radialGradient3817"
			gradientUnits="userSpaceOnUse"
			cy="33.9"
			cx="270.58"
			gradientTransform="matrix(.26631 .065024 -.17931 .73438 -60.668 -36.938)"
			r="19.571">
				<stop stop-color="#ff6d0f" offset="0"/>
				<stop stop-color="#ff1000" offset="1"/>
		</radialGradient>
	</defs>
	<!-- Set display:none to hide FreeCAD Logo -->
	<g
		style="display:inline"
		id="freecad-logo"
		transform="translate(271, 185) scale(1)"
		fill-rule="evenodd"
		stroke-width=".45621">
		<path d="m0.22811 0.22835v13.256h2.9558v-5.1876h2.09v-2.0452h-2.09v-2.2075h5.1486v-3.8087l-8.1044-0.0075z"
			stroke="#370700"
			fill="url(#radialGradient3817)"/>
		<path d="m13.386 4.1792-1.7193 0.98645-0.75925-0.26348-0.72439-1.8513-1.1395 0.05988-0.51976 1.9144-0.72743 0.34835-1.8143-0.79367-0.76632 0.85156 0.98645 1.7193-0.26957 0.75702-1.8513 0.72439 0.065967 1.1417 1.9144 0.51976 0.34835 0.72743-0.79976 1.8121 0.85156 0.76632 1.7193-0.98645 0.76311 0.27179 0.7183 1.8491 1.1478-0.06375 0.51367-1.9166 0.72743-0.34835 1.8182 0.80198 0.76632-0.85156-0.98645-1.7193 0.2657-0.76533 1.8491-0.7183-0.05766-1.1456-1.9166-0.51367-0.34835-0.72743 0.7959-1.8204-0.85156-0.76632zm-2.5751 2.8195 0.35295 0.20478 0.30579 0.27725 0.24481 0.33087 0.17611 0.36787 0.10354 0.39656 0.01715 0.4064-0.0587 0.4063-0.13396 0.38571-0.2131 0.35681-0.26894 0.30192-0.33087 0.24481-0.36787 0.17611-0.39656 0.10354-0.40863 0.02325-0.4063-0.0587-0.38571-0.13396-0.35681-0.2131-0.2997-0.27503-0.24703-0.32478-0.17611-0.36787-0.10132-0.40264-0.02324-0.40863 0.05869-0.4063 0.13396-0.38571 0.21087-0.35072 0.27116-0.30801 0.33087-0.24481 0.36787-0.17611 0.40264-0.10132 0.40641-0.01715 0.4063 0.05869 0.38571 0.13396z" 
		stroke="#000137"
		fill="url(#radialGradient3661)"/>
	</g>
<g id="Ortho_0_0"
   transform="rotate(-90,85.2,162) translate(85.2,162) scale(1,1)"
  >
<g   stroke="rgb(0, 0, 0)"
   stroke-width="0.35"
   stroke-linecap="butt"
   stroke-linejoin="miter"
   fill="none"
   transform="scale(1,-1)"
  >
<path id= "1" d=" M 0 1 L 0 8 " />
<path id= "2" d=" M 0 8 L 0 25.15 " />
<path id= "3" d=" M 0 25.15 L 0 30.15 " />
<path id= "4" d=" M 0 30.15 L 0 42.3 " />
<path id= "5" d=" M 1.06581e-14 1 L -1 -7.10543e-15 " />
<path id= "6" d=" M -1 0 L -2 0 " />
<path id= "7" d=" M -2 0 L -2 8 " />
<path id= "8" d=" M 4.66294e-15 8 L -2 8 " />
<path id= "9" d=" M 0 8 L -1.5359 8 " />
<path id= "10" d=" M -2 8 L -8 8 " />
<path id= "11" d=" M -8 8 L -10 8 " />
<path id= "12" d=" M -8.4641 8 L -6.73205 8 " />
<path id= "13" d=" M -6.73205 8 L -3.26795 8 " />
<path id= "14" d=" M -3.26795 8 L -1.5359 8 " />
<path id= "15" d=" M 0 25.15 L -10 25.15 " />
<path id= "16" d=" M -10 25.15 L -10 8 " />
<circle cx ="-5" cy ="14.5" r ="3" /><path id= "18" d=" M 0 30.15 L -10 30.15 " />
<path id= "19" d=" M -10 25.15 L -10 30.15 " />
<path id= "20" d=" M -28.4641 8 L -26.7321 8 " />
<path id= "21" d=" M -26.7321 8 L -23.2679 8 " />
<path id= "22" d=" M -23.2679 8 L -21.5359 8 " />
<path id= "23" d=" M 0 42.3 L -8 42.3 " />
<path id= "24" d=" M -30 42.3 L -8 42.3 " />
<path id= "25" d=" M -6 13.251 L -6 15.749 " />
<path id= "26" d=" M -6 30.15 L -6 42.3 " />
<path id= "27" d=" M -2.66454e-15 42.3 L -6 42.3 " />
<path id= "28" d=" M -6 42.3 L -30 42.3 " />
<path d="M-12,42.3 L-11.8209,42.3  L-11.644,42.3  L-11.4716,42.3  L-11.3058,42.3  L-11.1487,42.3  L-11.0024,42.3  L-10.8686,42.3  L-10.7491,42.3  L-10.6452,42.3  L-10.5584,42.3  L-10.4898,42.3  L-10.4401,42.3  L-10.4101,42.3  L-10.4,42.3 " /><path d="M-13.6,42.3 L-13.5899,42.3  L-13.5599,42.3  L-13.5102,42.3  L-13.4416,42.3  L-13.3548,42.3  L-13.2509,42.3  L-13.1314,42.3  L-12.9976,42.3  L-12.8513,42.3  L-12.6942,42.3  L-12.5284,42.3  L-12.356,42.3  L-12.1791,42.3  L-12,42.3 " /><path d="M-24,42.3 L-23.8209,42.3  L-23.644,42.3  L-23.4716,42.3  L-23.3058,42.3  L-23.1487,42.3  L-23.0024,42.3  L-22.8686,42.3  L-22.7491,42.3  L-22.6452,42.3  L-22.5584,42.3  L-22.4898,42.3  L-22.4401,42.3  L-22.4101,42.3  L-22.4,42.3 " /><path d="M-25.6,42.3 L-25.5899,42.3  L-25.5599,42.3  L-25.5102,42.3  L-25.4416,42.3  L-25.3548,42.3  L-25.2509,42.3  L-25.1314,42.3  L-24.9976,42.3  L-24.8513,42.3  L-24.6942,42.3  L-24.5284,42.3  L-24.356,42.3  L-24.1791,42.3  L-24,42.3 " /><path id= "33" d=" M -2 0 L -8 0 " />
<path id= "34" d=" M -8 8.88178e-16 L -10 8.88178e-16 " />
<path id= "35" d=" M -10 0 L -8 0 " />
<path d="M-5,0 L-4.82086,-3.97778e-17  L-4.64397,-7.90553e-17  L-4.47155,-1.17339e-16  L-4.30579,-1.54146e-16  L-4.14875,-1.89016e-16  L-4.00242,-2.21508e-16  L-3.86863,-2.51215e-16  L-3.74907,-2.77762e-16  L-3.64524,-3.00817e-16  L-3.55845,-3.20088e-16  L-3.48979,-3.35335e-16  L-3.44012,-3.46364e-16  L-3.41006,-3.53037e-16  L-3.4,-3.55271e-16 " /><path id= "37" d=" M -8 8 L -8 3.55271e-15 " />
<path d="M-10,16.7808 L-10,16.7808  L-10,16.7808  L-10,16.7808  L-10,16.7808  L-10,16.7808  L-10,16.7808  L-10,16.7808  L-10,16.7808  L-10,16.7808  L-10,16.7808  L-10,16.7808  L-10,16.7808  L-10,16.7808  L-10,16.7808 " /><path d="M-10,26.45 L-10,26.363  L-10,26.1049  L-10,25.6842  L-10,25.1146  L-10,24.4149  L-10,23.6081  L-10,22.7205  L-10,21.7814  L-10,20.8216  L-10,19.8726  L-10,18.9655  L-10,18.1301  L-10,17.3938  L-10,16.7808 " /><path id= "40" d=" M -10 16.7808 L -10 8 " />
<path d="M-10,4.34342 L-10,4.36228  L-10,4.41864  L-10,4.51177  L-10,4.64051  L-10,4.80325  L-10,4.99793  L-10,5.2221  L-10,5.47296  L-10,5.74733  L-10,6.04178  L-10,6.35259  L-10,6.67587  L-10,7.00754  L-10,7.34344 " /><path id= "42" d=" M -10 8 L -10 3.55271e-15 " />
<path id= "43" d=" M -10 4.34342 L -10 3.55271e-15 " />
<path id= "44" d=" M -30 8 L -30 42.3 " />
<path id= "45" d=" M -27 33.3 L -27 36.3 " />
<path id= "46" d=" M -27 36.3 L -21 36.3 " />
<path id= "47" d=" M -21 36.3 L -21 33.3 " />
<path id= "48" d=" M -21 33.3 L -27 33.3 " />
<path id= "49" d=" M -15 33.3 L -15 36.3 " />
<path id= "50" d=" M -15 36.3 L -9 36.3 " />
<path id= "51" d=" M -9 36.3 L -9 33.3 " />
<path id= "52" d=" M -9 33.3 L -15 33.3 " />
<path id= "53" d=" M -30 8 L -29.1 8 " />
<path id= "54" d=" M -29.1 8 L -10 8 " />
<path id= "55" d=" M -27 33.3 L -27 36.3 " />
<path id= "56" d=" M -21 36.3 L -21 33.3 " />
<path id= "57" d=" M -15 33.3 L -15 36.3 " />
<path id= "58" d=" M -9 36.3 L -9 33.3 " />
<circle cx ="-5" cy ="14.5" r ="1.6" /><path id= "60" d=" M -10 0 L -29.1 0 " />
<path id= "61" d=" M -30 0 L -29.1 0 " />
<path id= "62" d=" M -29.1 0 L -29.1 8 " />
<circle cx ="-5" cy ="14.5" r ="1.6" /><path d="M-24,33.3 L-23.8209,33.3  L-23.644,33.3  L-23.4716,33.3  L-23.3058,33.3  L-23.1487,33.3  L-23.0024,33.3  L-22.8686,33.3  L-22.7491,33.3  L-22.6452,33.3  L-22.5584,33.3  L-22.4898,33.3  L-22.4401,33.3  L-22.4101,33.3  L-22.4,33.3 " /><path d="M-25.6,33.3 L-25.5899,33.3  L-25.5599,33.3  L-25.5102,33.3  L-25.4416,33.3  L-25.3548,33.3  L-25.2509,33.3  L-25.1314,33.3  L-24.9976,33.3  L-24.8513,33.3  L-24.6942,33.3  L-24.5284,33.3  L-24.356,33.3  L-24.1791,33.3  L-24,33.3 " /><path d="M-12,33.3 L-11.8209,33.3  L-11.644,33.3  L-11.4716,33.3  L-11.3058,33.3  L-11.1487,33.3  L-11.0024,33.3  L-10.8686,33.3  L-10.7491,33.3  L-10.6452,33.3  L-10.5584,33.3  L-10.4898,33.3  L-10.4401,33.3  L-10.4101,33.3  L-10.4,33.3 " /><path d="M-13.6,33.3 L-13.5899,33.3  L-13.5599,33.3  L-13.5102,33.3  L-13.4416,33.3  L-13.3548,33.3  L-13.2509,33.3  L-13.1314,33.3  L-12.9976,33.3  L-12.8513,33.3  L-12.6942,33.3  L-12.5284,33.3  L-12.356,33.3  L-12.1791,33.3  L-12,33.3 " /><path id= "68" d=" M -30 0 L -30 8 " />
</g>
</g>



<g id="Ortho_0_1"
   transform="rotate(90,85.2,81) translate(85.2,81) scale(1,1)"
  >
<g   stroke="rgb(0, 0, 0)"
   stroke-width="0.35"
   stroke-linecap="butt"
   stroke-linejoin="miter"
   fill="none"
   transform="scale(1,-1)"
  >
<path id= "1" d=" M -61 -1 L -61 -8 " />
<path id= "2" d=" M -61 -1 L 61 -1 " />
<path id= "3" d=" M -61 -8 L -53 -8 " />
<path id= "4" d=" M 61 -1 L 61 -8 " />
<path id= "5" d=" M -53 -8 L -53 -25.15 " />
<path id= "6" d=" M 61 -8 L 53 -8 " />
<path id= "7" d=" M -53 -25.15 L -48 -30.15 " />
<path id= "8" d=" M 53 -8 L 53 -25.15 " />
<path id= "9" d=" M -48 -30.15 L -40 -30.15 " />
<path id= "10" d=" M 53 -25.15 L 48 -30.15 " />
<path id= "11" d=" M -40 -30.15 L -35 -25.15 " />
<path id= "12" d=" M 40 -30.15 L 48 -30.15 " />
<path id= "13" d=" M -35 -25.15 L -35 -8 " />
<path id= "14" d=" M 40 -30.15 L 35 -25.15 " />
<path id= "15" d=" M -35 -8 L -28 -8 " />
<path id= "16" d=" M 35 -25.15 L 35 -8 " />
<path id= "17" d=" M -28 -8 L -22 -8 " />
<path id= "18" d=" M 35 -8 L 28 -8 " />
<path id= "19" d=" M -22 -8 L -22 -42.3 " />
<path id= "20" d=" M 28 -8 L 22 -8 " />
<path id= "21" d=" M -22 -42.3 L -13.7 -42.3 " />
<path id= "22" d=" M 22 -8 L 22 -42.3 " />
<path id= "23" d=" M -13.7 -42.3 L -10.7 -39.3 " />
<path id= "24" d=" M 22 -42.3 L 13.7 -42.3 " />
<path id= "25" d=" M -10.7 -39.3 L -10.7 -26.9323 " />
<path id= "26" d=" M 10.7 -39.3 L 13.7 -42.3 " />
<path d="M10.7 -26.9323 A12 12 0 1 1 -10.7 -26.9323" /><path id= "28" d=" M 10.7 -39.3 L 10.7 -26.9323 " />
<path id= "29" d=" M -47 -16.7808 L -47 -7.34343 " />
<path d="M-47 -16.7808 A5.3 5.3 0 1 1 -41 -16.7808" /><path d="M-47 -7.34343 A3 3 0 0 0 -41 -7.34343" /><path id= "32" d=" M -41 -7.34343 L -41 -16.7808 " />
<circle cx ="-15.5" cy ="-36.65" r ="3" /><circle cx ="-15.5" cy ="-5.65" r ="3" /><circle cx ="15.5" cy ="-36.65" r ="3" /><circle cx ="15.5" cy ="-5.65" r ="3" /><path id= "37" d=" M 41 -16.7808 L 41 -7.34342 " />
<path d="M41 -16.7808 A5.3 5.3 0 1 1 47 -16.7808" /><path d="M41 -7.34343 A3 3 0 1 0 47 -7.34344" /><path id= "40" d=" M 47 -7.34343 L 47 -16.7808 " />
<path id= "41" d=" M -63 0 L -62 0 " />
<path id= "42" d=" M -61 -1 L -62 -2.16493e-15 " />
<path id= "43" d=" M -63 0 L -63 -8 " />
<path id= "44" d=" M -63 -8 L -61 -8 " />
<path id= "45" d=" M -62 0 L 62 0 " />
<path id= "46" d=" M 61 -1 L 62 7.10543e-15 " />
<path id= "47" d=" M 62 0 L 63 0 " />
<path id= "48" d=" M 63 0 L 63 -8 " />
<path id= "49" d=" M 61 -8 L 63 -8 " />
<path id= "50" d=" M -28 -8 L -28 -42.3 " />
<path id= "51" d=" M -22 -42.3 L -28 -42.3 " />
<path d="M-23.4,-42.3 L-23.4401,-42.3  L-23.5584,-42.3  L-23.7491,-42.3  L-24.0024,-42.3  L-24.3058,-42.3  L-24.644,-42.3  L-25,-42.3  L-25.356,-42.3  L-25.6942,-42.3  L-25.9976,-42.3  L-26.2509,-42.3  L-26.4416,-42.3  L-26.5599,-42.3  L-26.6,-42.3 " /><path id= "53" d=" M 28 -8 L 28 -42.3 " />
<path id= "54" d=" M 22 -42.3 L 28 -42.3 " />
<path d="M26.6,-42.3 L26.5599,-42.3  L26.4416,-42.3  L26.2509,-42.3  L25.9976,-42.3  L25.6942,-42.3  L25.356,-42.3  L25,-42.3  L24.644,-42.3  L24.3058,-42.3  L24.0024,-42.3  L23.7491,-42.3  L23.5584,-42.3  L23.4401,-42.3  L23.4,-42.3 " /><path d="M-46,-17.3434 L-46.0669,-17.3032  L-46.1344,-17.2631  L-46.2027,-17.2229  L-46.2717,-17.1827  L-46.3413,-17.1425  L-46.4117,-17.1023  L-46.4828,-17.0621  L-46.5546,-17.0219  L-46.6271,-16.9817  L-46.7002,-16.9415  L-46.7741,-16.9014  L-46.8487,-16.8612  L-46.924,-16.821  L-47,-16.7808 " /><path id= "57" d=" M -46 -17.3434 L -46 -7.34343 " />
<path d="M-46 -17.3434 A4.3 4.3 0 1 1 -42 -17.3434" /><path d="M-42,-17.3434 L-41.9331,-17.3032  L-41.8656,-17.263  L-41.7973,-17.2229  L-41.7283,-17.1827  L-41.6587,-17.1425  L-41.5883,-17.1023  L-41.5172,-17.0621  L-41.4454,-17.0219  L-41.3729,-16.9817  L-41.2998,-16.9415  L-41.2259,-16.9014  L-41.1513,-16.8612  L-41.076,-16.821  L-41,-16.7808 " /><path d="M-46 -7.34343 A2 2 0 0 0 -42 -7.34343" /><path id= "61" d=" M -42 -7.34343 L -42 -17.3434 " />
<path d="M41,-16.7808 L41.076,-16.821  L41.1513,-16.8612  L41.2259,-16.9014  L41.2998,-16.9415  L41.3729,-16.9817  L41.4454,-17.0219  L41.5172,-17.0621  L41.5883,-17.1023  L41.6587,-17.1425  L41.7283,-17.1827  L41.7973,-17.2229  L41.8656,-17.263  L41.9331,-17.3032  L42,-17.3434 " /><path id= "63" d=" M 42 -17.3434 L 42 -7.34342 " />
<path d="M42 -17.3434 A4.3 4.3 0 1 1 46 -17.3434" /><path d="M47,-16.7808 L46.924,-16.821  L46.8487,-16.8612  L46.7741,-16.9014  L46.7002,-16.9415  L46.6271,-16.9817  L46.5546,-17.0219  L46.4828,-17.0621  L46.4117,-17.1023  L46.3413,-17.1425  L46.2717,-17.1827  L46.2027,-17.2229  L46.1344,-17.2631  L46.0669,-17.3032  L46,-17.3434 " /><path d="M42 -7.34342 A2 2 0 1 0 46 -7.34343" /><path id= "67" d=" M 46 -7.34343 L 46 -17.3434 " />
<path d="M-56.4,0 L-56.4401,7.90553e-17  L-56.5584,1.54146e-16  L-56.7491,2.21508e-16  L-57.0024,2.77762e-16  L-57.3058,3.20088e-16  L-57.644,3.46364e-16  L-58,3.55271e-16  L-58.356,3.46364e-16  L-58.6942,3.20088e-16  L-58.9976,2.77762e-16  L-59.2509,2.21508e-16  L-59.4416,1.54146e-16  L-59.5599,7.90553e-17  L-59.6,4.35082e-32 " /><circle cx ="-15.5" cy ="-36.65" r ="1.6" /><circle cx ="-15.5" cy ="-5.65" r ="1.6" /><circle cx ="15.5" cy ="-36.65" r ="1.6" /><circle cx ="15.5" cy ="-5.65" r ="1.6" /></g>
</g>



<g id="Ortho_1_0"
   transform="rotate(-90,191.1,162) translate(191.1,162) scale(1,1)"
  >
<g   stroke="rgb(0, 0, 0)"
   stroke-width="0.35"
   stroke-linecap="butt"
   stroke-linejoin="miter"
   fill="none"
   transform="scale(1,-1)"
  >
<path id= "1" d=" M 0 -61 L 0 61 " />
<path id= "2" d=" M -2 -63 L -1 -62 " />
<path id= "3" d=" M 1.55431e-15 -61 L -1 -62 " />
<path id= "4" d=" M -1 -62 L -1 62 " />
<path id= "5" d=" M 1.06581e-14 61 L -1 62 " />
<path id= "6" d=" M -1 62 L -2 63 " />
<path id= "7" d=" M -2 -63 L -8 -63 " />
<path id= "8" d=" M -10 -61 L -8 -63 " />
<path id= "9" d=" M -2 63 L -8 63 " />
<path id= "10" d=" M -10 -61 L -10 -36 " />
<path id= "11" d=" M -8 63 L -10 61 " />
<path id= "12" d=" M -10 -35 L -10 -36 " />
<path id= "13" d=" M -10 61 L -10 36 " />
<path id= "14" d=" M -30 -35 L -10 -35 " />
<path id= "15" d=" M -10 35 L -10 36 " />
<path id= "16" d=" M -30 -35 L -30 -22 " />
<path id= "17" d=" M -10 35 L -30 35 " />
<path id= "18" d=" M -30 -22 L -8 -22 " />
<path id= "19" d=" M -30 22 L -30 35 " />
<path id= "20" d=" M -8 -22 L -7 -22 " />
<path id= "21" d=" M -8 22 L -30 22 " />
<path id= "22" d=" M -7 -22 L -7 22 " />
<path id= "23" d=" M -8 22 L -7 22 " />
<circle cx ="-25" cy ="31.5" r ="1.6" /><circle cx ="-5" cy ="-58" r ="1.6" /><circle cx ="-5" cy ="58" r ="1.6" /><circle cx ="-25" cy ="-31.5" r ="1.6" /><circle cx ="-5" cy ="-31.5" r ="1.6" /><circle cx ="-5" cy ="31.5" r ="1.6" /><path id= "30" d=" M -8 -22 L -8 22 " />
<path id= "31" d=" M -7 -22 L -8 -22 " />
<path id= "32" d=" M -27 -22 L -21 -22 " />
<path id= "33" d=" M -15 -22 L -9 -22 " />
<path id= "34" d=" M -30 -35 L -30 -35.1 " />
<path id= "35" d=" M -30 -35.1 L -29.1 -36 " />
<path id= "36" d=" M -29.1 -36 L -10 -36 " />
<path id= "37" d=" M -10 36 L -29.1 36 " />
<path id= "38" d=" M -30 35.1 L -29.1 36 " />
<path id= "39" d=" M -30 35 L -30 35.1 " />
</g>
</g>



</svg>

