<?xml version="1.0" encoding="UTF-8"?>

<svg xmlns="http://www.w3.org/2000/svg" version="1.1"
	width="297mm"
	height="210mm"
	viewBox="0 0 297 210">
	<!-- Working space 0 0 297 210 -->
	<defs>
		<radialGradient
			id="radialGradient3661"
			gradientUnits="userSpaceOnUse"
			cy="29.149"
			cx="282.65"
			gradientTransform="matrix(.14777 .23089 -.24680 .15795 -26.318 -62.617)"
			r="19.571">
				<stop stop-color="#71b2f8" offset="0"/>
				<stop stop-color="#002795" offset="1"/>
		</radialGradient>
		<radialGradient
			id="radialGradient3817"
			gradientUnits="userSpaceOnUse"
			cy="33.9"
			cx="270.58"
			gradientTransform="matrix(.26631 .065024 -.17931 .73438 -60.668 -36.938)"
			r="19.571">
				<stop stop-color="#ff6d0f" offset="0"/>
				<stop stop-color="#ff1000" offset="1"/>
		</radialGradient>
	</defs>
	<!-- Set display:none to hide FreeCAD Logo -->
	<g
		style="display:inline"
		id="freecad-logo"
		transform="translate(271, 185) scale(1)"
		fill-rule="evenodd"
		stroke-width=".45621">
		<path d="m0.22811 0.22835v13.256h2.9558v-5.1876h2.09v-2.0452h-2.09v-2.2075h5.1486v-3.8087l-8.1044-0.0075z"
			stroke="#370700"
			fill="url(#radialGradient3817)"/>
		<path d="m13.386 4.1792-1.7193 0.98645-0.75925-0.26348-0.72439-1.8513-1.1395 0.05988-0.51976 1.9144-0.72743 0.34835-1.8143-0.79367-0.76632 0.85156 0.98645 1.7193-0.26957 0.75702-1.8513 0.72439 0.065967 1.1417 1.9144 0.51976 0.34835 0.72743-0.79976 1.8121 0.85156 0.76632 1.7193-0.98645 0.76311 0.27179 0.7183 1.8491 1.1478-0.06375 0.51367-1.9166 0.72743-0.34835 1.8182 0.80198 0.76632-0.85156-0.98645-1.7193 0.2657-0.76533 1.8491-0.7183-0.05766-1.1456-1.9166-0.51367-0.34835-0.72743 0.7959-1.8204-0.85156-0.76632zm-2.5751 2.8195 0.35295 0.20478 0.30579 0.27725 0.24481 0.33087 0.17611 0.36787 0.10354 0.39656 0.01715 0.4064-0.0587 0.4063-0.13396 0.38571-0.2131 0.35681-0.26894 0.30192-0.33087 0.24481-0.36787 0.17611-0.39656 0.10354-0.40863 0.02325-0.4063-0.0587-0.38571-0.13396-0.35681-0.2131-0.2997-0.27503-0.24703-0.32478-0.17611-0.36787-0.10132-0.40264-0.02324-0.40863 0.05869-0.4063 0.13396-0.38571 0.21087-0.35072 0.27116-0.30801 0.33087-0.24481 0.36787-0.17611 0.40264-0.10132 0.40641-0.01715 0.4063 0.05869 0.38571 0.13396z" 
		stroke="#000137"
		fill="url(#radialGradient3661)"/>
	</g>
<g id="View"
   transform="rotate(60,133.474,123.575) translate(133.474,123.575) scale(1,1)"
  >
<g   stroke="rgb(0, 0, 0)"
   stroke-width="0.35"
   stroke-linecap="butt"
   stroke-linejoin="miter"
   fill="none"
   transform="scale(1,-1)"
  >
<path id= "1" d=" M 8.14214 39.414 L 16.6274 34.515 " />
<path id= "2" d=" M 15.7782 35.1693 L 15.7782 39.0638 " />
<path id= "3" d=" M -42.0833 24.2727 L -33.598 19.3738 " />
</g>
<g   stroke="rgb(0, 0, 0)"
   stroke-width="0.35"
   stroke-linecap="butt"
   stroke-linejoin="miter"
   fill="none"
   transform="scale(1,-1)"
  >
<path d="M-49.3561 -1.55134 A3.2 1.84752 -180 0 1 -54.8188 -2.85774" />
<path d="M-54.8188 -2.85774 A3.2 1.84752 -180 0 1 -48.4188 -2.85774" />
<path d="M-48.4188 -2.85774 A3.2 1.84752 -180 0 1 -49.3561 -1.55134" />
<path d="M-53.6473 -1.42887 A3.2 1.84752 -180 0 1 -49.5902 -1.42887" />
<path d="M-40.8708 -6.45032 A3.2 1.84752 -180 0 1 -46.3335 -7.75672" />
<path d="M-46.3335 -7.75672 A3.2 1.84752 -180 0 1 -39.9335 -7.75672" />
<path d="M-39.9335 -7.75672 A3.2 1.84752 -180 0 1 -40.8708 -6.45032" />
<path d="M-45.1621 -6.32785 A3.2 1.84752 -180 0 1 -41.105 -6.32785" />
<path d="M-13.435 -6.53197 A1 0.57735 60 0 1 -13.6421 -6.0742" />
<path d="M-13.6421 -6.0742 A1 0.57735 60 0 1 -14.8492 -7.34847" />
<path id= "11" d=" M -13.435 -6.53197 L -13.435 -8.98146 " />
<path id= "12" d=" M -14.8492 -7.34847 L -14.8492 -9.79796 " />
<path d="M-14.8492 -9.79796 A1 0.57735 60 0 1 -14.6421 -10.2557" />
<path d="M-14.6421 -10.2557 A1 0.57735 60 0 1 -13.435 -8.98146" />
<path id= "15" d=" M 33.8513 35.874 L 31.4537 37.2583 " />
<path id= "16" d=" M 26.3495 40.2052 L 22.9684 42.1573 " />
<path id= "17" d=" M 16.8807 45.672 L 25.4558 50.6228 " />
<path id= "18" d=" M 42.4264 40.8248 L 25.4558 50.6228 " />
<path id= "19" d=" M 33.8513 47.3049 L 16.8807 57.1029 " />
<path d="M31.8708 46.9191 A8 4.6188 -120 0 0 33.8513 47.3049" />
<path d="M16.8807 45.672 A8 4.6188 -120 0 0 10.1421 42.8781" />
<path d="M10.1421 42.8781 A8 4.6188 -120 0 0 16.8807 57.1029" />
<path id= "23" d=" M 25.4558 62.0537 L 16.8807 57.1029 " />
<path id= "24" d=" M 25.4558 66.1362 L 25.4558 62.0537 " />
<path id= "25" d=" M 14.1421 59.6043 L 25.4558 66.1362 " />
<path d="M14.1421 40.0083 A12 6.9282 -120 0 0 8.14214 39.414" />
<path d="M8.14214 39.414 A12 6.9282 -120 0 0 14.1421 59.6043" />
<path id= "28" d=" M 25.4558 46.5403 L 14.1421 40.0083 " />
<path id= "29" d=" M 25.4558 50.6228 L 25.4558 46.5403 " />
<path id= "30" d=" M 42.4264 36.7423 L 25.4558 46.5403 " />
<path id= "31" d=" M 42.4264 40.8248 L 42.4264 36.7423 " />
<path id= "32" d=" M 42.4264 52.2558 L 25.4558 62.0537 " />
<path id= "33" d=" M 42.4264 52.2558 L 33.8513 47.3049 " />
<path d="M35.7796 53.3172 A1.6 0.92376 -180 0 1 33.0482 52.664" />
<path d="M33.0482 52.664 A1.6 0.92376 -180 0 1 36.2482 52.664" />
<path d="M36.2482 52.664 A1.6 0.92376 -180 0 1 35.7796 53.3172" />
<path d="M27.2943 58.2162 A1.6 0.92376 -180 0 1 24.563 57.563" />
<path d="M24.563 57.563 A1.6 0.92376 -180 0 1 27.763 57.563" />
<path d="M27.763 57.563 A1.6 0.92376 -180 0 1 27.2943 58.2162" />
<path id= "40" d=" M 42.4264 56.3383 L 25.4558 66.1362 " />
<path id= "41" d=" M 42.4264 56.3383 L 42.4264 52.2558 " />
<path d="M16.6274 34.515 A12 6.9282 60 0 1 22.6274 35.1094" />
<path id= "43" d=" M 22.6274 35.1094 L 14.1421 40.0083 " />
<path d="M36.6768 38.5795 A3.2 1.84752 -1.55815e-14 0 0 32.6197 38.5795" />
<path d="M28.1915 43.4784 A3.2 1.84752 -1.55815e-14 0 0 24.1344 43.4784" />
<path d="M33.4503 53.2764 A1.6 0.92376 -180 0 1 35.8461 53.2764" />
<path d="M24.965 58.1754 A1.6 0.92376 -180 0 1 27.3609 58.1754" />
<path id= "48" d=" M 25.2664 58.3281 L 25.2664 58.0226 " />
<path id= "49" d=" M 33.7517 53.4291 L 33.7517 53.1237 " />
<path d="M32.3855 35.8442 A3.2 1.84752 -1.55815e-14 0 0 31.4482 37.1506" />
<path d="M31.4482 37.1506 A3.2 1.84752 -1.55815e-14 0 0 37.8482 37.1506" />
<path d="M37.8482 37.1506 A3.2 1.84752 -1.55815e-14 0 0 32.3855 35.8442" />
<path d="M23.9002 40.7432 A3.2 1.84752 -1.55815e-14 0 0 22.963 42.0496" />
<path d="M22.963 42.0496 A3.2 1.84752 -1.55815e-14 0 0 29.363 42.0496" />
<path d="M29.363 42.0496 A3.2 1.84752 -1.55815e-14 0 0 23.9002 40.7432" />
<path d="M-28.9914 30.2104 A6 3.4641 180 0 1 -20.5061 30.2104" />
<path id= "57" d=" M -20.5061 30.2104 L 5.66422 45.3198 " />
<path id= "58" d=" M -33.234 27.7609 L -28.9914 30.2104 " />
<path id= "59" d=" M 8.13173 -7.96084 L 12.3744 -10.4103 " />
<path id= "60" d=" M 20.5061 -5.71548 L 12.3744 -10.4103 " />
<path id= "61" d=" M 20.5061 -0.816497 L 20.5061 -5.71548 " />
<path id= "62" d=" M 16.2635 1.63299 L 20.5061 -0.816497 " />
<path id= "63" d=" M 12.0208 -0.816497 L 16.2635 1.63299 " />
<path d="M12.0208 -5.71548 A6 3.4641 180 0 1 13.7782 -3.26599" />
<path d="M13.7782 -3.26599 A6 3.4641 180 0 1 12.0208 -0.816497" />
<path id= "66" d=" M 8.13173 -7.96084 L 12.0208 -5.71548 " />
<path id= "67" d=" M 20.5061 -0.816497 L 20.5061 28.9856 " />
<path id= "68" d=" M 20.5061 28.9856 L 16.2635 31.4351 " />
<path id= "69" d=" M 16.2635 1.63299 L 16.2635 31.4351 " />
<path id= "70" d=" M 12.0208 -0.816497 L 12.0208 6.53197 " />
<path id= "71" d=" M 12.0208 -5.71548 L 12.0208 1.63299 " />
<path d="M12.0208 22.0454 A6 3.4641 180 0 1 13.435 23.3402" />
<path d="M13.435 25.6496 A6 3.4641 180 0 1 12.0208 26.9444" />
<path id= "74" d=" M 12.0208 26.9444 L 12.0208 28.9856 " />
<path id= "75" d=" M 12.0208 28.9856 L 12.0208 31.8434 " />
<path id= "76" d=" M 12.0208 22.0454 L 12.0208 26.9444 " />
<path id= "77" d=" M 12.0208 31.8434 L 13.435 32.6599 " />
<path id= "78" d=" M 8.27916 24.7841 L 12.0208 26.9444 " />
<path d="M13.1891 25.9918 A8 4.6188 9.73842e-15 0 0 12.0208 25.4781" />
<path id= "80" d=" M 8.27916 24.7841 L 8.27916 39.3384 " />
<path id= "81" d=" M 12.0208 26.9444 L 13.435 27.7609 " />
<path id= "82" d=" M 8.27916 19.8852 L 12.0208 22.0454 " />
<path d="M13.435 21.2289 A8 4.6188 9.73842e-15 0 0 8.27916 19.8852" />
<path id= "84" d=" M 8.27916 -0.527254 L 8.27916 19.8852 " />
<path id= "85" d=" M 13.435 7.34847 L 13.435 27.7609 " />
<path id= "86" d=" M 12.0208 6.53197 L 13.435 7.34847 " />
<path id= "87" d=" M 8.27916 -0.527254 L 12.0208 1.63299 " />
<path d="M20.5061,21.433 L20.5061,21.4775  L20.5061,21.5193  L20.5061,21.5583  L20.5061,21.5943  L20.5061,21.6272  L20.5061,21.6569  L20.5061,21.6833  L20.5061,21.7064  L20.5061,21.7261  L20.5061,21.7423  L20.5061,21.7549  L20.5061,21.764  L20.5061,21.7694  L20.5061,21.7712 " /><path d="M20.5061,21.433 L20.5061,21.3365  L20.5061,21.2309  L20.5061,21.1175  L20.5061,20.9979  L20.5061,20.8735  L20.5061,20.7458  L20.5061,20.6165  L20.5061,20.4873  L20.5061,20.3596  L20.5061,20.2352  L20.5061,20.1155  L20.5061,20.0022  L20.5061,19.8966  L20.5061,19.8 " /><path id= "90" d=" M 20.5061 17.3506 L 20.5061 19.8 " />
<path d="M20.5061,17.3506 L20.5061,17.3061  L20.5061,17.2643  L20.5061,17.2253  L20.5061,17.1893  L20.5061,17.1564  L20.5061,17.1267  L20.5061,17.1003  L20.5061,17.0772  L20.5061,17.0575  L20.5061,17.0413  L20.5061,17.0287  L20.5061,17.0196  L20.5061,17.0142  L20.5061,17.0124 " /><path d="M20.5061,17.0124 L20.5061,17.0287  L20.5061,17.0772  L20.5061,17.1564  L20.5061,17.2643  L20.5061,17.3976  L20.5061,17.5527  L20.5061,17.7252  L20.5061,17.9101  L20.5061,18.1023  L20.5061,18.2963  L20.5061,18.4867  L20.5061,18.6681  L20.5061,18.8352  L20.5061,18.9836 " /><path d="M20.5061,7.5526 L20.5061,7.50811  L20.5061,7.46632  L20.5061,7.42737  L20.5061,7.39139  L20.5061,7.35848  L20.5061,7.32875  L20.5061,7.3023  L20.5061,7.2792  L20.5061,7.25953  L20.5061,7.24335  L20.5061,7.23072  L20.5061,7.22166  L20.5061,7.21622  L20.5061,7.2144 " /><path d="M20.5061,7.2144 L20.5061,7.23072  L20.5061,7.2792  L20.5061,7.35848  L20.5061,7.46632  L20.5061,7.59967  L20.5061,7.75476  L20.5061,7.92721  L20.5061,8.11215  L20.5061,8.30435  L20.5061,8.49838  L20.5061,8.68876  L20.5061,8.8701  L20.5061,9.03729  L20.5061,9.18559 " /><path id= "95" d=" M 20.5061 7.5526 L 20.5061 10.0021 " />
<path d="M20.5061,11.6351 L20.5061,11.6796  L20.5061,11.7214  L20.5061,11.7603  L20.5061,11.7963  L20.5061,11.8292  L20.5061,11.8589  L20.5061,11.8854  L20.5061,11.9085  L20.5061,11.9282  L20.5061,11.9443  L20.5061,11.957  L20.5061,11.966  L20.5061,11.9715  L20.5061,11.9733 " /><path d="M20.5061,11.6351 L20.5061,11.5385  L20.5061,11.4329  L20.5061,11.3196  L20.5061,11.2  L20.5061,11.0755  L20.5061,10.9479  L20.5061,10.8186  L20.5061,10.6893  L20.5061,10.5616  L20.5061,10.4372  L20.5061,10.3176  L20.5061,10.2042  L20.5061,10.0986  L20.5061,10.0021 " /><path id= "98" d=" M 15.026 24.597 L 15.026 22.1475 " />
<path d="M15.026 24.597 A1 0.57735 60 0 1 14.8189 25.0547" />
<path d="M14.8189 25.0547 A1 0.57735 60 0 1 13.6118 23.7805" />
<path d="M13.6118 21.331 A1 0.57735 60 0 1 13.8189 20.8732" />
<path d="M13.8189 20.8732 A1 0.57735 60 0 1 15.026 22.1475" />
<path id= "103" d=" M 13.6118 23.7805 L 13.6118 21.331 " />
<path id= "104" d=" M 13.6118 13.9825 L 13.6118 11.533 " />
<path d="M15.026 14.799 A1 0.57735 60 0 1 14.8189 15.2568" />
<path d="M14.8189 15.2568 A1 0.57735 60 0 1 13.6118 13.9825" />
<path d="M13.6118 11.533 A1 0.57735 60 0 1 13.8189 11.0752" />
<path d="M13.8189 11.0752 A1 0.57735 60 0 1 15.026 12.3495" />
<path id= "109" d=" M 15.026 14.799 L 15.026 12.3495 " />
<path d="M-8.11635 -1.82825 A12 6.9282 60 0 1 -8.48528 -4.89898" />
<path d="M-8.95577,0.953094 C-9.12712,0.476427 -9.1659,-0.110387 -8.98326,-0.677633  C-8.83108,-1.16293 -8.50463,-1.60793 -8.11635,-1.82825 " /><path d="M-8.54688 2.00569 A12 6.9282 60 0 1 -8.95577 0.953094" />
<path d="M-5.98956,3.48216 C-6.23774,3.62707 -6.54987,3.64725 -6.8525,3.5724  C-7.03289,3.52753 -7.20815,3.45566 -7.37828,3.35679 " /><path d="M-7.37828,3.35679 C-7.87344,3.06976 -8.30022,2.58895 -8.54688,2.00569 " /><path d="M3.49117 10.9459 A12 6.9282 60 0 1 -5.98956 3.48216" />
<path d="M-8.95577 -8.02834 A12 6.9282 60 0 1 -8.65938 -8.46651" />
<path d="M-8.11635,-7.5437 C-8.50044,-7.31912 -8.8244,-7.27045 -8.9783,-7.36494 " /><path d="M-8.9783,-7.36494 C-9.1665,-7.47496 -9.12872,-7.74499 -8.95577,-8.02834 " /><path d="M-8.48528 -4.89898 A12 6.9282 60 0 1 -8.11635 -7.5437" />
<path d="M-12.7279 -2.44949 A12 6.9282 60 0 1 -10.2426 -7.94282" />
<path d="M-10.2426 -7.94282 A12 6.9282 60 0 1 1.75736 12.8418" />
<path d="M1.75736 12.8418 A12 6.9282 60 0 1 -12.7279 -2.44949" />
<path id= "123" d=" M -8.54688 2.00569 L -5.98956 3.48216 " />
<path id= "124" d=" M -20.5061 -29.3939 L -28.9914 -29.3939 " />
<path id= "125" d=" M -20.5061 28.5774 L -20.5061 30.2104 " />
<path id= "126" d=" M -28.9914 28.5774 L -28.9914 30.2104 " />
<path d="M-28.9914 28.5774 A6 3.4641 180 0 1 -20.5061 28.5774" />
<path id= "128" d=" M -33.234 22.4537 L -33.234 27.7609 " />
<path id= "129" d=" M 8.13173 -7.96084 L 8.13173 -16.5341 " />
<path id= "130" d=" M 9.54594 -17.3506 L 8.13173 -16.5341 " />
<path id= "131" d=" M 9.54594 -17.3506 L 9.54594 -22.6578 " />
<path id= "132" d=" M 9.54594 -22.6578 L 12.3744 -24.2908 " />
<path id= "133" d=" M 12.3744 -19.3918 L 12.3744 -24.2908 " />
<path id= "134" d=" M 11.6673 -18.9835 L 12.3744 -19.3918 " />
<path id= "135" d=" M 11.6673 -14.0846 L 11.6673 -18.9835 " />
<path id= "136" d=" M 12.3744 -14.4928 L 11.6673 -14.0846 " />
<path id= "137" d=" M 12.3744 -10.4103 L 12.3744 -14.4928 " />
<path id= "138" d=" M -33.234 -26.9444 L -28.9914 -24.4949 " />
<path id= "139" d=" M -28.9914 -29.3939 L -33.234 -26.9444 " />
<path id= "140" d=" M -9.54594 -23.066 L -20.5061 -29.3939 " />
<path id= "141" d=" M -20.5061 -24.4949 L -9.54594 -18.167 " />
<path d="M-28.9914 -24.4949 A6 3.4641 180 0 1 -20.5061 -24.4949" />
<path id= "143" d=" M -20.5061 28.5774 L -16.7644 30.7376 " />
<path id= "144" d=" M -30.4056 27.7609 L -28.9914 28.5774 " />
<path d="M-16.7644 30.7376 A8 4.6188 9.73842e-15 0 0 -30.4056 27.7609" />
<path id= "146" d=" M -30.4056 24.0866 L -30.4056 27.7609 " />
<path id= "147" d=" M -30.4056 7.34847 L -30.4056 24.0866 " />
<path id= "148" d=" M -16.7644 10.3252 L -16.7644 30.7376 " />
<path id= "149" d=" M -20.5061 8.16497 L -16.7644 10.3252 " />
<path d="M-28.9914 8.16497 A6 3.4641 180 0 1 -20.5061 8.16497" />
<path id= "151" d=" M -30.4056 7.34847 L -28.9914 8.16497 " />
<path d="M-28.9914 3.26599 A6 3.4641 180 0 1 -20.5061 3.26599" />
<path id= "153" d=" M -20.5061 3.26599 L -20.5061 8.16497 " />
<path id= "154" d=" M -28.9914 5.30723 L -28.9914 8.16497 " />
<path id= "155" d=" M -28.9914 3.26599 L -28.9914 5.30723 " />
<path id= "156" d=" M -20.5061 3.26599 L -16.7644 5.42623 " />
<path id= "157" d=" M -30.4056 2.44949 L -28.9914 3.26599 " />
<path d="M-16.7644 5.42623 A8 4.6188 9.73842e-15 0 0 -30.4056 2.44949" />
<path id= "159" d=" M -30.4056 -17.9629 L -30.4056 2.44949 " />
<path id= "160" d=" M -16.7644 -14.9862 L -16.7644 5.42623 " />
<path id= "161" d=" M -20.5061 -17.1464 L -16.7644 -14.9862 " />
<path d="M-28.9914 -17.1464 A6 3.4641 180 0 1 -20.5061 -17.1464" />
<path id= "163" d=" M -30.4056 -17.9629 L -28.9914 -17.1464 " />
<path id= "164" d=" M -20.5061 -24.4949 L -20.5061 -17.1464 " />
<path id= "165" d=" M -28.9914 -24.4949 L -28.9914 -17.1464 " />
<path id= "166" d=" M 6.36396 14.6969 L 6.36396 12.2474 " />
<path d="M6.36396 14.6969 A1 0.57735 60 0 1 6.15685 15.1547" />
<path d="M6.15685 15.1547 A1 0.57735 60 0 1 4.94975 13.8804" />
<path d="M4.94975 11.431 A1 0.57735 60 0 1 5.15685 10.9732" />
<path d="M5.15685 10.9732 A1 0.57735 60 0 1 6.36396 12.2474" />
<path id= "171" d=" M 4.94975 13.8804 L 4.94975 11.431 " />
<path id= "172" d=" M -13.435 3.26599 L -13.435 0.816498 " />
<path d="M-13.435 3.26599 A1 0.57735 60 0 1 -13.6421 3.72376" />
<path d="M-13.6421 3.72376 A1 0.57735 60 0 1 -14.8492 2.44949" />
<path d="M-14.8492 1.10462e-06 A1 0.57735 60 0 1 -14.6421 -0.457776" />
<path d="M-14.6421 -0.457776 A1 0.57735 60 0 1 -13.435 0.816498" />
<path id= "177" d=" M -14.8492 2.44949 L -14.8492 1.30955e-06 " />
<path id= "178" d=" M 6.36396 4.89898 L 6.36396 2.44949 " />
<path d="M6.36396 4.89898 A1 0.57735 60 0 1 6.15685 5.35676" />
<path d="M6.15685 5.35676 A1 0.57735 60 0 1 4.94975 4.08248" />
<path d="M4.94975 1.63299 A1 0.57735 60 0 1 5.15685 1.17522" />
<path d="M5.15685 1.17522 A1 0.57735 60 0 1 6.36396 2.44949" />
<path id= "183" d=" M 4.94975 4.08248 L 4.94975 1.63299 " />
<path id= "184" d=" M -9.42677 -8.30027 L -8.11635 -7.5437 " />
<path id= "185" d=" M -33.234 -26.9444 L -33.234 2.85774 " />
<path d="M-30.5824 -11.533 A1 0.57735 60 0 1 -30.7895 -11.0752" />
<path d="M-30.7895 -11.0752 A1 0.57735 60 0 1 -31.9966 -12.3495" />
<path id= "188" d=" M -30.5824 -11.533 L -30.5824 -13.9825 " />
<path id= "189" d=" M -31.9966 -12.3495 L -31.9966 -14.799 " />
<path d="M-31.9966 -14.799 A1 0.57735 60 0 1 -31.7895 -15.2568" />
<path d="M-31.7895 -15.2568 A1 0.57735 60 0 1 -30.5824 -13.9825" />
<path id= "192" d=" M -30.5824 -1.73506 L -30.5824 -4.18454 " />
<path d="M-31.9966 -5.00103 A1 0.57735 60 0 1 -31.7895 -5.45881" />
<path d="M-31.7895 -5.45881 A1 0.57735 60 0 1 -30.5824 -4.18454" />
<path d="M-30.5824 -1.73506 A1 0.57735 60 0 1 -30.7895 -1.27729" />
<path d="M-30.7895 -1.27729 A1 0.57735 60 0 1 -31.9966 -2.55156" />
<path id= "197" d=" M -31.9966 -2.55156 L -31.9966 -5.00103 " />
<path id= "198" d=" M 4.06586 -18.8815 L 8.13173 -16.5341 " />
<path id= "199" d=" M 5.48008 -19.698 L 9.54594 -17.3506 " />
<path id= "200" d=" M 4.06586 -18.8815 L 5.48008 -19.698 " />
<path id= "201" d=" M 5.48008 -25.0052 L 5.48008 -19.698 " />
<path id= "202" d=" M 9.54594 -22.6578 L 5.48008 -25.0052 " />
<path d="M6.29325 -22.0862 A1.6 0.92376 60 0 1 6.62462 -22.8187" />
<path d="M6.62462 -22.8187 A1.6 0.92376 60 0 1 8.22462 -20.0474" />
<path d="M8.22462 -20.0474 A1.6 0.92376 60 0 1 6.29325 -22.0862" />
<path id= "206" d=" M 5.48008 -25.0052 L 8.3085 -26.6382 " />
<path id= "207" d=" M 12.3744 -24.2908 L 8.3085 -26.6382 " />
<path id= "208" d=" M -8.13173 -32.864 L -8.13173 -27.5568 " />
<path id= "209" d=" M -9.54594 -26.7403 L -8.13173 -27.5568 " />
<path id= "210" d=" M -9.54594 -26.7403 L -9.54594 -18.167 " />
<path id= "211" d=" M -8.13173 -32.864 L -5.3033 -34.497 " />
<path id= "212" d=" M -9.54594 -26.7403 L -5.48008 -24.3928 " />
<path id= "213" d=" M -4.06586 -25.2093 L -5.48008 -24.3928 " />
<path id= "214" d=" M -8.13173 -27.5568 L -4.06586 -25.2093 " />
<path id= "215" d=" M -5.48008 -19.9021 L -5.48008 -24.3928 " />
<path id= "216" d=" M -4.06586 -25.2093 L -4.06586 -30.5166 " />
<path id= "217" d=" M -4.06586 -30.5166 L -1.23744 -32.1496 " />
<path id= "218" d=" M -1.23744 -27.2506 L -1.23744 -32.1496 " />
<path id= "219" d=" M -1.94454 -26.8423 L -1.23744 -27.2506 " />
<path id= "220" d=" M -1.94454 -21.9433 L -1.94454 -26.8423 " />
<path id= "221" d=" M -5.48008 -19.9021 L -1.94454 -21.9433 " />
<path id= "222" d=" M 4.06586 -18.8815 L 4.06586 -14.3908 " />
<path d="M-33.598 19.3738 A12 6.9282 -120 0 0 -33.234 19.1364" />
<path d="M-33.234 19.1364 A12 6.9282 -120 0 0 -33.234 6.17496" />
<path d="M-33.234 6.17496 A12 6.9282 -120 0 0 -39.598 -0.816497" />
<path id= "226" d=" M -39.598 -0.816497 L -48.0833 4.08248 " />
<path d="M-48.0833 4.08248 A12 6.9282 60 0 1 -42.0833 24.2727" />
<path d="M-42.0833 24.2727 A12 6.9282 60 0 1 -48.0833 23.6784" />
<path id= "229" d=" M -4.06586 -30.5166 L -8.13173 -32.864 " />
<path d="M-7.14178 -29.843 A1.6 0.92376 60 0 1 -6.81041 -30.5754" />
<path d="M-6.81041 -30.5754 A1.6 0.92376 60 0 1 -5.21041 -27.8041" />
<path d="M-5.21041 -27.8041 A1.6 0.92376 60 0 1 -7.14178 -29.843" />
<path id= "233" d=" M -1.23744 -32.1496 L -5.3033 -34.497 " />
<path id= "234" d=" M -48.0833 23.6784 L -59.397 17.1464 " />
<path id= "235" d=" M -50.8219 6.58383 L -59.397 1.63299 " />
<path d="M-50.8219 6.58383 A8 4.6188 60 0 1 -44.0833 20.8086" />
<path d="M-44.0833 20.8086 A8 4.6188 60 0 1 -50.8219 18.0148" />
<path id= "238" d=" M -59.397 13.0639 L -50.8219 18.0148 " />
<path id= "239" d=" M -59.397 17.1464 L -59.397 13.0639 " />
<path id= "240" d=" M -59.397 -2.44949 L -48.0833 4.08248 " />
<path id= "241" d=" M -59.397 1.63299 L -59.397 -2.44949 " />
<path id= "242" d=" M -43.1335 13.5759 L -50.8219 18.0148 " />
<path id= "243" d=" M -48.8414 6.96968 L -59.397 13.0639 " />
<path d="M-52.7502 12.0025 A1.6 0.92376 -1.94768e-14 0 0 -53.2188 12.6557" />
<path d="M-53.2188 12.6557 A1.6 0.92376 -1.94768e-14 0 0 -50.0188 12.6557" />
<path d="M-50.0188 12.6557 A1.6 0.92376 -1.94768e-14 0 0 -52.7502 12.0025" />
<path id= "247" d=" M -42.4264 -12.2475 L -59.397 -2.44949 " />
<path id= "248" d=" M -52.5154 13.4208 L -52.5154 13.1153 " />
<path d="M-52.7502 13.2272 A1.6 0.92376 -1.94768e-14 0 0 -52.8167 13.2681" />
<path d="M-50.4209 13.2681 A1.6 0.92376 -1.94768e-14 0 0 -52.7502 13.2272" />
<path id= "251" d=" M 42.4264 36.7423 L 31.1127 30.2104 " />
<path id= "252" d=" M 31.1127 30.2104 L 31.1127 30.2104 " />
<path id= "253" d=" M 31.1127 30.2104 L 20.5061 24.0866 " />
<path id= "254" d=" M -42.4264 -12.2475 L -33.234 -6.94022 " />
<path id= "255" d=" M -2.22938 24.8855 L -3.49683 25.6172 " />
<path d="M-4.94975 22.4537 A3 1.73205 60 0 1 -4.85841 21.7954" />
<path d="M-2.21266 26.3779 A3 1.73205 60 0 1 -4.94975 22.4537" />
<path d="M-6.36396 23.2702 A3 1.73205 60 0 1 -5.74264 21.8968" />
<path d="M-5.74264 21.8968 A3 1.73205 60 0 1 -2.74264 27.093" />
<path d="M-2.74264 27.093 A3 1.73205 60 0 1 -6.36396 23.2702" />
<path d="M-5.37401 14.8602 A1.6 0.92376 60 0 1 -5.04264 14.1278" />
<path d="M-5.04264 14.1278 A1.6 0.92376 60 0 1 -3.44264 16.8991" />
<path d="M-3.44264 16.8991 A1.6 0.92376 60 0 1 -5.37401 14.8602" />
<path id= "264" d=" M -31.9966 18.6774 L -31.9966 21.1268 " />
<path d="M-30.5824 21.9433 A1 0.57735 60 0 1 -30.7895 22.4011" />
<path d="M-30.7895 22.4011 A1 0.57735 60 0 1 -31.9966 21.1268" />
<path id= "267" d=" M -30.5824 19.4939 L -30.5824 21.9433 " />
<path d="M-31.9966 18.6774 A1 0.57735 60 0 1 -31.7895 18.2196" />
<path d="M-31.7895 18.2196 A1 0.57735 60 0 1 -30.5824 19.4939" />
<path d="M-14.8492 23.6784 A1 0.57735 60 0 1 -14.6421 23.2206" />
<path d="M-14.6421 23.2206 A1 0.57735 60 0 1 -13.435 24.4949" />
<path id= "272" d=" M -14.8492 26.1279 L -14.8492 23.6784 " />
<path id= "273" d=" M -13.435 26.9444 L -13.435 24.4949 " />
<path d="M-13.435 26.9444 A1 0.57735 60 0 1 -13.6421 27.4022" />
<path d="M-13.6421 27.4022 A1 0.57735 60 0 1 -14.8492 26.1279" />
<path d="M4.94975 35.1094 A1 0.57735 60 0 1 5.15685 34.6516" />
<path d="M5.15685 34.6516 A1 0.57735 60 0 1 6.36396 35.9259" />
<path id= "278" d=" M 4.94975 37.5589 L 4.94975 35.1094 " />
<path id= "279" d=" M 6.36396 38.3753 L 6.36396 35.9259 " />
<path d="M6.36396 38.3753 A1 0.57735 60 0 1 6.15685 38.8331" />
<path d="M6.15685 38.8331 A1 0.57735 60 0 1 4.94975 37.5589" />
<path d="M5.58614 20.7798 A1.6 0.92376 60 0 1 5.91751 20.0474" />
<path d="M5.91751 20.0474 A1.6 0.92376 60 0 1 7.51751 22.8187" />
<path d="M7.51751 22.8187 A1.6 0.92376 60 0 1 5.58614 20.7798" />
<path d="M-16.3342 8.12414 A1.6 0.92376 60 0 1 -16.0028 7.3917" />
<path d="M-16.0028 7.3917 A1.6 0.92376 60 0 1 -14.4028 10.163" />
<path d="M-14.4028 10.163 A1.6 0.92376 60 0 1 -16.3342 8.12414" />
<path id= "288" d=" M 12.3744 -14.4928 L 11.6673 -14.9011 " />
<path id= "289" d=" M 4.41942 -19.0856 L -1.23744 -22.3516 " />
<path id= "290" d=" M -1.23744 -22.3516 L -1.94454 -22.7598 " />
<path d="M-5.37401 -11.2677 A1.6 0.92376 60 0 1 -5.04264 -12.0001" />
<path d="M-5.04264 -12.0001 A1.6 0.92376 60 0 1 -3.44264 -9.22881" />
<path d="M-3.44264 -9.22881 A1.6 0.92376 60 0 1 -5.37401 -11.2677" />
<path d="M5.58614 -4.53156 A1.6 0.92376 60 0 1 5.91751 -5.264" />
<path d="M5.91751 -5.264 A1.6 0.92376 60 0 1 7.51751 -2.49272" />
<path d="M7.51751 -2.49272 A1.6 0.92376 60 0 1 5.58614 -4.53156" />
<path d="M-16.3342 -17.1873 A1.6 0.92376 60 0 1 -16.0028 -17.9197" />
<path d="M-16.0028 -17.9197 A1.6 0.92376 60 0 1 -14.4028 -15.1484" />
<path d="M-14.4028 -15.1484 A1.6 0.92376 60 0 1 -16.3342 -17.1873" />
<path id= "300" d=" M 22.6274 35.1094 L 16.2635 31.4351 " />
<path id= "301" d=" M -39.598 -0.816497 L -33.234 2.85774 " />
<path id= "302" d=" M 4.06586 -14.3908 L -5.48008 -19.9021 " />
</g>
</g>



</svg>

