<?xml version="1.0" encoding="UTF-8"?>

<svg xmlns="http://www.w3.org/2000/svg" version="1.1"
	width="297mm"
	height="210mm"
	viewBox="0 0 297 210">
	<!-- Working space 0 0 297 210 -->
	<defs>
		<radialGradient
			id="radialGradient3661"
			gradientUnits="userSpaceOnUse"
			cy="29.149"
			cx="282.65"
			gradientTransform="matrix(.14777 .23089 -.24680 .15795 -26.318 -62.617)"
			r="19.571">
				<stop stop-color="#71b2f8" offset="0"/>
				<stop stop-color="#002795" offset="1"/>
		</radialGradient>
		<radialGradient
			id="radialGradient3817"
			gradientUnits="userSpaceOnUse"
			cy="33.9"
			cx="270.58"
			gradientTransform="matrix(.26631 .065024 -.17931 .73438 -60.668 -36.938)"
			r="19.571">
				<stop stop-color="#ff6d0f" offset="0"/>
				<stop stop-color="#ff1000" offset="1"/>
		</radialGradient>
	</defs>
	<!-- Set display:none to hide FreeCAD Logo -->
	<g
		style="display:inline"
		id="freecad-logo"
		transform="translate(271, 185) scale(1)"
		fill-rule="evenodd"
		stroke-width=".45621">
		<path d="m0.22811 0.22835v13.256h2.9558v-5.1876h2.09v-2.0452h-2.09v-2.2075h5.1486v-3.8087l-8.1044-0.0075z"
			stroke="#370700"
			fill="url(#radialGradient3817)"/>
		<path d="m13.386 4.1792-1.7193 0.98645-0.75925-0.26348-0.72439-1.8513-1.1395 0.05988-0.51976 1.9144-0.72743 0.34835-1.8143-0.79367-0.76632 0.85156 0.98645 1.7193-0.26957 0.75702-1.8513 0.72439 0.065967 1.1417 1.9144 0.51976 0.34835 0.72743-0.79976 1.8121 0.85156 0.76632 1.7193-0.98645 0.76311 0.27179 0.7183 1.8491 1.1478-0.06375 0.51367-1.9166 0.72743-0.34835 1.8182 0.80198 0.76632-0.85156-0.98645-1.7193 0.2657-0.76533 1.8491-0.7183-0.05766-1.1456-1.9166-0.51367-0.34835-0.72743 0.7959-1.8204-0.85156-0.76632zm-2.5751 2.8195 0.35295 0.20478 0.30579 0.27725 0.24481 0.33087 0.17611 0.36787 0.10354 0.39656 0.01715 0.4064-0.0587 0.4063-0.13396 0.38571-0.2131 0.35681-0.26894 0.30192-0.33087 0.24481-0.36787 0.17611-0.39656 0.10354-0.40863 0.02325-0.4063-0.0587-0.38571-0.13396-0.35681-0.2131-0.2997-0.27503-0.24703-0.32478-0.17611-0.36787-0.10132-0.40264-0.02324-0.40863 0.05869-0.4063 0.13396-0.38571 0.21087-0.35072 0.27116-0.30801 0.33087-0.24481 0.36787-0.17611 0.40264-0.10132 0.40641-0.01715 0.4063 0.05869 0.38571 0.13396z" 
		stroke="#000137"
		fill="url(#radialGradient3661)"/>
	</g>
<g id="Ortho_0_0"
   transform="rotate(-90,69.5,188) translate(69.5,188) scale(1,1)"
  >
<g   stroke="rgb(0, 0, 0)"
   stroke-width="0.35"
   stroke-linecap="butt"
   stroke-linejoin="miter"
   fill="none"
   transform="scale(1,-1)"
  >
<path id= "1" d=" M 24 -39 L 21.4641 -39 " />
<path id= "2" d=" M 16.2679 -39 L 12 -39 " />
<path id= "3" d=" M 4 8.16142 L 4 7.49999 " />
<path id= "4" d=" M 4 4.50001 L 4 3.83856 " />
<path id= "5" d=" M 4 -3.83858 L 4 -4.50001 " />
<path id= "6" d=" M 4 -7.49999 L 4 -8.16144 " />
</g>
<g   stroke="rgb(0, 0, 0)"
   stroke-width="0.35"
   stroke-linecap="butt"
   stroke-linejoin="miter"
   fill="none"
   transform="scale(1,-1)"
  >
<path d="M1.73206 4.5 A2 2 0 0 1 2 5.49998" /><path d="M0.992157,8.23657 L0.980112,8.2434 " /><path d="M0.979869,8.24353 L0.95955,8.2548 " /><path d="M0.959202,8.25499 L0.959142,8.25502 " /><path id= "5" d=" M -4.21706e-15 -20 L 24 -20 " />
<path id= "6" d=" M -1.4988e-14 -20 L 24 -20 " />
<path d="M18,-20 L18.1791,-20  L18.356,-20  L18.5284,-20  L18.6942,-20  L18.8513,-20  L18.9976,-20  L19.1314,-20  L19.2509,-20  L19.3548,-20  L19.4416,-20  L19.5102,-20  L19.5599,-20  L19.5899,-20  L19.6,-20 " /><path d="M16.4,-20 L16.4101,-20  L16.4401,-20  L16.4898,-20  L16.5584,-20  L16.6452,-20  L16.7491,-20  L16.8686,-20  L17.0024,-20  L17.1487,-20  L17.3058,-20  L17.4716,-20  L17.644,-20  L17.8209,-20  L18,-20 " /><path id= "9" d=" M -2.66274e-15 -34 L 24 -34 " />
<path d="M2.66274e-15,-20 L3.6398e-15,-20.6681  L4.5327e-15,-21.4827  L5.3208e-15,-22.4248  L5.98587e-15,-23.4727  L6.51253e-15,-24.6022  L6.88862e-15,-25.7871  L7.10543e-15,-27  L7.15795e-15,-28.2129  L7.04496e-15,-29.3978  L6.76909e-15,-30.5273  L6.3367e-15,-31.5752  L5.75779e-15,-32.5173  L5.04576e-15,-33.3319  L4.21706e-15,-34 " /><path d="M24,-20 L24,-19.8648  L24,-19.7389  L24,-19.6224  L24,-19.5156  L24,-19.4185  L24,-19.3313  L24,-19.254  L24,-19.1869  L24,-19.1299  L24,-19.0832  L24,-19.0469  L24,-19.0208  L24,-19.0052  L24,-19 " /><path d="M24,-20 L24,-20.6681  L24,-21.4827  L24,-22.4248  L24,-23.4727  L24,-24.6022  L24,-25.7871  L24,-27  L24,-28.2129  L24,-29.3978  L24,-30.5273  L24,-31.5752  L24,-32.5173  L24,-33.3319  L24,-34 " /><path d="M24,-35 L24,-34.9948  L24,-34.9792  L24,-34.9531  L24,-34.9168  L24,-34.8701  L24,-34.8131  L24,-34.746  L24,-34.6687  L24,-34.5815  L24,-34.4844  L24,-34.3776  L24,-34.2611  L24,-34.1352  L24,-34 " /><path id= "14" d=" M 24 -39 L 24 -34 " />
<path d="M24,-15 L24,-15.0216  L24,-15.0865  L24,-15.1944  L24,-15.3448  L24,-15.5373  L24,-15.7712  L24,-16.0455  L24,-16.3594  L24,-16.7117  L24,-17.1011  L24,-17.5263  L24,-17.9856  L24,-18.4774  L24,-19 " /><path d="M24,-35 L24,-35.5226  L24,-36.0144  L24,-36.4737  L24,-36.8989  L24,-37.2883  L24,-37.6406  L24,-37.9545  L24,-38.2288  L24,-38.4627  L24,-38.6552  L24,-38.8056  L24,-38.9135  L24,-38.9784  L24,-39 " /><path id= "17" d=" M 24 -20 L 24 -15 " />
<path id= "18" d=" M -1.55431e-14 -15 L 24 -15 " />
<path id= "19" d=" M -1.4988e-14 -20 L -1.55431e-14 -15 " />
<path id= "20" d=" M -1.34337e-14 -34 L 24 -34 " />
<path d="M6,-34 L6.17914,-34  L6.35603,-34  L6.52845,-34  L6.69421,-34  L6.85125,-34  L6.99758,-34  L7.13137,-34  L7.25093,-34  L7.35476,-34  L7.44155,-34  L7.51021,-34  L7.55988,-34  L7.58994,-34  L7.6,-34 " /><path d="M4.4,-34 L4.41006,-34  L4.44012,-34  L4.48979,-34  L4.55845,-34  L4.64524,-34  L4.74907,-34  L4.86863,-34  L5.00242,-34  L5.14875,-34  L5.30579,-34  L5.47155,-34  L5.64397,-34  L5.82086,-34  L6,-34 " /><path d="M18,-34 L18.1791,-34  L18.356,-34  L18.5284,-34  L18.6942,-34  L18.8513,-34  L18.9976,-34  L19.1314,-34  L19.2509,-34  L19.3548,-34  L19.4416,-34  L19.5102,-34  L19.5599,-34  L19.5899,-34  L19.6,-34 " /><path d="M16.4,-34 L16.4101,-34  L16.4401,-34  L16.4898,-34  L16.5584,-34  L16.6452,-34  L16.7491,-34  L16.8686,-34  L17.0024,-34  L17.1487,-34  L17.3058,-34  L17.4716,-34  L17.644,-34  L17.8209,-34  L18,-34 " /><path id= "25" d=" M -1.28786e-14 -39 L 24 -39 " />
<path id= "26" d=" M -1.28786e-14 -39 L -1.34337e-14 -34 " />
<path id= "27" d=" M 21.4641 -39 L 19.7321 -39 " />
<path id= "28" d=" M 16.2679 -39 L 14.5359 -39 " />
<path id= "29" d=" M 19.7321 -39 L 16.2679 -39 " />
<path id= "30" d=" M 4.26795 -39 L 2.5359 -39 " />
<path id= "31" d=" M 4.26795 -39 L 7.73205 -39 " />
<path id= "32" d=" M 7.73205 -39 L 9.4641 -39 " />
<path d="M12,-39 L12,-38.9998  L12,-38.9991  L12,-38.998  L12,-38.9965  L12,-38.9945  L12,-38.9921  L12,-38.9892  L12,-38.9859  L12,-38.9822  L12,-38.978  L12,-38.9734  L12,-38.9683  L12,-38.9628  L12,-38.9569 " /><path id= "34" d=" M 1.33227e-15 -39 L 4.26795 -39 " />
<path id= "35" d=" M 7.73205 -39 L 12 -39 " />
<path d="M9.2,-15 L9.11977,-15  L8.8831,-15  L8.50186,-15  L7.99517,-15  L7.38843,-15  L6.71207,-15  L6,-15  L5.28793,-15  L4.61157,-15  L4.00483,-15  L3.49814,-15  L3.1169,-15  L2.88023,-15  L2.8,-15 " /><path d="M21.2,-15 L21.1198,-15  L20.8831,-15  L20.5019,-15  L19.9952,-15  L19.3884,-15  L18.7121,-15  L18,-15  L17.2879,-15  L16.6116,-15  L16.0048,-15  L15.4981,-15  L15.1169,-15  L14.8802,-15  L14.8,-15 " /><path id= "38" d=" M 6 -39 L 6 -45.5 " />
<path id= "39" d=" M 12 -45.5 L 6 -45.5 " />
<path id= "40" d=" M 12 -39 L 12 -45.5 " />
<path id= "41" d=" M -2.95541e-13 -39 L -3.27294e-13 -45.5 " />
<path id= "42" d=" M 6 -45.5 L -3.25961e-13 -45.5 " />
<path d="M6,-45.5 L6.03773,-45.5  L6.15043,-45.5  L6.3367,-45.5  L6.59419,-45.5  L6.91965,-45.5  L7.30901,-45.5  L7.75736,-45.5  L8.25906,-45.5  L8.80781,-45.5  L9.3967,-45.5  L10.0183,-45.5  L10.6649,-45.5  L11.3282,-45.5  L12,-45.5 " /><path id= "44" d=" M 6 21.5 L 8.88178e-16 21.5 " />
<path id= "45" d=" M 12 21.5 L 6 21.5 " />
<path id= "46" d=" M 6 21.5 L 6 -15 " />
<path id= "47" d=" M 12 21.5 L 12 -15 " />
<path id= "48" d=" M 12 21.5 L 12 12.5 " />
<path id= "49" d=" M 12 -12.5 L 12 -15 " />
<path id= "50" d=" M 12 -39 L 12 -43.5 " />
<path id= "51" d=" M 12 12.5 L 12 -12.5 " />
<path id= "52" d=" M 0 21.5 L -6.35047e-14 8.50002 " />
<path d="M-6.9865e-14,8.50002 L0.223929,8.48744  L0.445042,8.44987  L0.660558,8.38778  L0.867767,8.30195  L1.06406,8.19346  L1.24698,8.06368  L1.41421,7.91423  L1.56366,7.747  L1.69345,7.56408  L1.80194,7.36778  L1.88777,7.16057  L1.94986,6.94506  L1.98742,6.72394  L2,6.50002 " /><path id= "54" d=" M 2 5.49998 L 2 6.50002 " />
<path d="M2,5.49998 L1.98742,5.27605  L1.94986,5.05494  L1.88777,4.83943  L1.80194,4.63222  L1.69345,4.43592  L1.56366,4.253  L1.41421,4.08577  L1.24698,3.93632  L1.06406,3.80654  L0.867767,3.69805  L0.660558,3.61222  L0.445042,3.55013  L0.223929,3.51256  L-7.73735e-14,3.49998 " /><path id= "56" d=" M -8.79297e-14 3.49998 L -1.22124e-13 -3.49998 " />
<path d="M-1.11609e-13,-3.49998 L0.223929,-3.51256  L0.445042,-3.55013  L0.660558,-3.61222  L0.867767,-3.69805  L1.06406,-3.80654  L1.24698,-3.93632  L1.41421,-4.08577  L1.56366,-4.253  L1.69345,-4.43592  L1.80194,-4.63222  L1.88777,-4.83943  L1.94986,-5.05494  L1.98742,-5.27605  L2,-5.49998 " /><path id= "58" d=" M 2 -6.50002 L 2 -5.49998 " />
<path d="M2,-6.50002 L1.98742,-6.72395  L1.94986,-6.94506  L1.88777,-7.16058  L1.80194,-7.36778  L1.69345,-7.56408  L1.56366,-7.747  L1.41421,-7.91423  L1.24698,-8.06368  L1.06406,-8.19347  L0.867767,-8.30195  L0.660558,-8.38778  L0.445042,-8.44987  L0.223929,-8.48744  L-1.4025e-13,-8.50002 " /><path id= "60" d=" M -1.4655e-13 -8.50002 L -1.78302e-13 -15 " />
<path d="M4.25,-7.50001 L4.24371,-7.61197  L4.22493,-7.72253  L4.19388,-7.83029  L4.15097,-7.93389  L4.09672,-8.03204  L4.03183,-8.1235  L3.95711,-8.20711  L3.87349,-8.28184  L3.78203,-8.34673  L3.68388,-8.40098  L3.58028,-8.44389  L3.47252,-8.47493  L3.36196,-8.49372  L3.25,-8.50001 " /><path d="M3.25,-8.50001 L3.13803,-8.49372  L3.02748,-8.47493  L2.91972,-8.44389  L2.81611,-8.40097  L2.71796,-8.34673  L2.62651,-8.28183  L2.54289,-8.20711  L2.46816,-8.12349  L2.40327,-8.03203  L2.34903,-7.93388  L2.30611,-7.83028  L2.27507,-7.72252  L2.25629,-7.61196  L2.25,-7.49999 " /><path id= "63" d=" M 4.25 -4.50001 L 4.25 -7.50001 " />
<path id= "64" d=" M 2.25 -4.50001 L 2.25 -7.49999 " />
<path d="M2.25,-4.50001 L2.25629,-4.38805  L2.27507,-4.27749  L2.30612,-4.16973  L2.34903,-4.06613  L2.40328,-3.96798  L2.46817,-3.87652  L2.54289,-3.79291  L2.62651,-3.71818  L2.71797,-3.65329  L2.81612,-3.59905  L2.91972,-3.55613  L3.02748,-3.52509  L3.13804,-3.5063  L3.25,-3.50001 " /><path d="M3.25,-3.50001 L3.36196,-3.5063  L3.47252,-3.52509  L3.58028,-3.55613  L3.68388,-3.59904  L3.78203,-3.65329  L3.87349,-3.71818  L3.9571,-3.7929  L4.03183,-3.87652  L4.09672,-3.96798  L4.15097,-4.06613  L4.19388,-4.16973  L4.22493,-4.27749  L4.24371,-4.38804  L4.25,-4.50001 " /><path d="M2.25,7.49999 L2.25629,7.61195  L2.27507,7.72251  L2.30612,7.83027  L2.34903,7.93387  L2.40328,8.03202  L2.46817,8.12348  L2.54289,8.20709  L2.62651,8.28182  L2.71797,8.34671  L2.81612,8.40095  L2.91972,8.44387  L3.02748,8.47491  L3.13804,8.4937  L3.25,8.49999 " /><path d="M3.25,8.49999 L3.36196,8.4937  L3.47252,8.47491  L3.58028,8.44387  L3.68388,8.40096  L3.78203,8.34671  L3.87349,8.28182  L3.9571,8.2071  L4.03183,8.12348  L4.09672,8.03202  L4.15097,7.93387  L4.19388,7.83027  L4.22493,7.72251  L4.24371,7.61196  L4.25,7.49999 " /><path id= "69" d=" M 2.25 7.49999 L 2.25 4.50001 " />
<path id= "70" d=" M 4.25 7.49999 L 4.25 4.49999 " />
<path d="M4.25,4.49999 L4.24371,4.38803  L4.22493,4.27747  L4.19388,4.16971  L4.15097,4.06611  L4.09672,3.96796  L4.03183,3.8765  L3.95711,3.79289  L3.87349,3.71816  L3.78203,3.65327  L3.68388,3.59902  L3.58028,3.55611  L3.47252,3.52507  L3.36196,3.50628  L3.25,3.49999 " /><path d="M3.25,3.49999 L3.13803,3.50628  L3.02748,3.52507  L2.91972,3.55611  L2.81611,3.59903  L2.71796,3.65327  L2.62651,3.71817  L2.54289,3.79289  L2.46816,3.87651  L2.40327,3.96797  L2.34903,4.06612  L2.30611,4.16972  L2.27507,4.27748  L2.25629,4.38804  L2.25,4.50001 " /><path d="M1.73206 -7.5 A2 2 0 0 1 2 -6.50002" /><path d="M-9.42822e-15,-8.50002 L0.0118275,-8.49998 " /><path d="M0.709692,-3.63013 C0.486461,-3.54517 0.243379,-3.49977 -4.996e-15,-3.49998 " /><path d="M-5.4106e-15,3.49998 L0.0122938,3.50002 " /><path d="M2,6.50002 C1.99956,6.91848 1.87038,7.31326 1.6417,7.64231 " /><path d="M1.64158,7.64248 Q1.53756,7.79215 1.40571,7.92268 " /><path d="M1.4056,7.92279 Q1.18031,8.14733 0.87612,8.29791 " /><path d="M0.769397,8.3461 Q0.520885,8.45055 0.238814,8.48571 " /><path d="M0.194152,8.49057 L0.152683,8.49418 " /><path d="M0.0392507,8.49963 L-2.68882e-15,8.50002 " /><path d="M1.73206 -7.5 A2 2 0 0 1 2 -6.50002" /><path id= "84" d=" M 6 21.5 L 6 32 " />
<path id= "85" d=" M 4 32 L 6 32 " />
<path id= "86" d=" M 4 32 L 4 38.5 " />
<path id= "87" d=" M 4 38.5 L 7.99361e-14 38.5 " />
<path id= "88" d=" M 5.37348e-14 32.5 L 8.30447e-14 38.5 " />
<path id= "89" d=" M 1 32.5 L 4.9738e-14 32.5 " />
<path id= "90" d=" M 1 26.5 L 1 32.5 " />
<path id= "91" d=" M 1.9984e-14 26.5 L 1 26.5 " />
<path id= "92" d=" M 0 21.5 L 2.44249e-14 26.5 " />
<path d="M2 -5.49998 A2 2 0 0 1 1.73206 -4.5" /><path d="M2 6.50002 A2 2 0 0 1 1.73206 7.5" /><path d="M0.012294,3.49999 C0.0131762,3.5 0.0742686,3.5009 0.105139,3.50259 " /><path d="M1.73206 4.5 A2 2 0 0 1 2 5.49998" /><path id= "97" d=" M 2 6.50002 L 2 5.49998 " />
<path id= "98" d=" M 4 32 L 6 32 " />
<path id= "99" d=" M 6 26.5 L 6 32 " />
<path id= "100" d=" M 1 26.5 L 1 32.5 " />
<path d="M24,-15 L24,-15.0216  L24,-15.0865  L24,-15.1944  L24,-15.3448  L24,-15.5373  L24,-15.7712  L24,-16.0455  L24,-16.3594  L24,-16.7117  L24,-17.1011  L24,-17.5263  L24,-17.9856  L24,-18.4774  L24,-19 " /><path d="M24,-35 L24,-35.5226  L24,-36.0144  L24,-36.4737  L24,-36.8989  L24,-37.2883  L24,-37.6406  L24,-37.9545  L24,-38.2288  L24,-38.4627  L24,-38.6552  L24,-38.8056  L24,-38.9135  L24,-38.9784  L24,-39 " /><path id= "103" d=" M -1.97842e-13 -19 L -1.83187e-13 -16 " />
<path id= "104" d=" M -2.7589e-13 -35 L -2.83218e-13 -36.5 " />
<path d="M-1.78302e-13,-15 L-1.79323e-13,-15.209  L-1.80369e-13,-15.4232  L-1.81423e-13,-15.6388  L-1.82464e-13,-15.8519  L-1.83473e-13,-16.0587  L-1.84434e-13,-16.2552  L-1.85327e-13,-16.4381  L-1.86137e-13,-16.6039  L-1.86849e-13,-16.7496  L-1.8745e-13,-16.8727  L-1.87929e-13,-16.9708  L-1.88278e-13,-17.0421  L-1.88489e-13,-17.0855  L-1.8856e-13,-17.1 " /></g>
</g>



<g id="Ortho_0_1"
   transform="rotate(90,69.5,82) translate(69.5,82) scale(1,1)"
  >
<g   stroke="rgb(0, 0, 0)"
   stroke-width="0.35"
   stroke-linecap="butt"
   stroke-linejoin="miter"
   fill="none"
   transform="scale(1,-1)"
  >
<path d="M-13 -4.5 A1 1 0 0 1 -15 -4.5" /><path id= "2" d=" M -13 -4.5 L -13 -7.5 " />
<path id= "3" d=" M -15 -4.5 L -15 -7.5 " />
<path d="M-15 -7.5 A1 1 0 0 1 -13 -7.5" /><path d="M-14,-8.5 C-13.9915,-8.49996 -13.9807,-8.49979 -13.9678,-8.49949  C-13.9585,-8.49928 -13.9483,-8.49879 -13.9372,-8.49803  C-13.872,-8.49394 -13.8075,-8.48346 -13.7437,-8.4666  C-13.5798,-8.42436 -13.4314,-8.3397 -13.2985,-8.21264  C-13.1298,-8.04766 -13.0005,-7.79748 -13,-7.5 " /><path d="M-15,-7.5 C-14.9983,-7.87018 -14.8039,-8.15959 -14.5736,-8.3191 " /><path d="M-10.0871,-6.50002 C-9.74315,-7.036 -9.3568,-7.53138 -9.03002,-7.90308  C-8.72654,-8.25022 -8.46864,-8.50104 -8.47052,-8.50002 " /><path id= "8" d=" M 47.873 20 L 60 20 " />
<path d="M47.873 20 A8 8 0 1 0 47.873 34" /><path id= "10" d=" M 60 34 L 47.873 34 " />
<path id= "11" d=" M 60 39 L 60 34 " />
<path id= "12" d=" M 44 39 L 60 39 " />
<path d="M44 15 A12 12 0 1 0 44 39" /><path id= "14" d=" M 60 15 L 44 15 " />
<path id= "15" d=" M 60 20 L 60 15 " />
<path d="M44 39 A12 12 0 0 1 35 34.9373" /><path d="M35 34.9373 A12 12 0 0 1 35 19.0627" /><path id= "18" d=" M 35 39 L 44 39 " />
<path id= "19" d=" M 35 39 L 35 45.5 " />
<path d="M-29,45.5 L-28.9623,45.5  L-28.8496,45.5  L-28.6633,45.5  L-28.4058,45.5  L-28.0803,45.5  L-27.691,45.5  L-27.2426,45.5  L-26.7409,45.5  L-26.1922,45.5  L-25.6033,45.5  L-24.9817,45.5  L-24.3351,45.5  L-23.6718,45.5  L-23,45.5 " /><path id= "21" d=" M -23 45.5 L 23 45.5 " />
<path d="M23,45.5 L23.6718,45.5  L24.3351,45.5  L24.9817,45.5  L25.6033,45.5  L26.1922,45.5  L26.7409,45.5  L27.2426,45.5  L27.691,45.5  L28.0803,45.5  L28.4058,45.5  L28.6633,45.5  L28.8496,45.5  L28.9623,45.5  L29,45.5 " /><path id= "23" d=" M 29 45.5 L 35 45.5 " />
<path id= "24" d=" M -35 45.5 L -29 45.5 " />
<path d="M23,43.5 L23.6718,43.5  L24.3351,43.5  L24.9817,43.5  L25.6033,43.5  L26.1922,43.5  L26.7409,43.5  L27.2426,43.5  L27.691,43.5  L28.0803,43.5  L28.4058,43.5  L28.6633,43.5  L28.8496,43.5  L28.9623,43.5  L29,43.5 " /><path id= "26" d=" M 29 43.5 L 29 45.5 " />
<path id= "27" d=" M 23 43.5 L 23 45.5 " />
<path id= "28" d=" M 29 43.5 L 31 43.5 " />
<path id= "29" d=" M 17.7085 43.5 L 23 43.5 " />
<path d="M23,43.5 L22.5872,43.5  L22.1755,43.5  L21.766,43.5  L21.3598,43.5  L20.9579,43.5  L20.5615,43.5  L20.1716,43.5  L19.7892,43.5  L19.4154,43.5  L19.0511,43.5  L18.6973,43.5  L18.3551,43.5  L18.0252,43.5  L17.7085,43.5 " /><path id= "31" d=" M 29 -21.5 L 35 -21.5 " />
<path d="M23,-21.5 L23.6718,-21.5  L24.3351,-21.5  L24.9817,-21.5  L25.6033,-21.5  L26.1922,-21.5  L26.7409,-21.5  L27.2426,-21.5  L27.691,-21.5  L28.0803,-21.5  L28.4058,-21.5  L28.6633,-21.5  L28.8496,-21.5  L28.9623,-21.5  L29,-21.5 " /><path id= "33" d=" M 17.5 -21.5 L 23 -21.5 " />
<path id= "34" d=" M 35 -21.5 L 35 15 " />
<path id= "35" d=" M 29 -21.5 L 29 -12.5 " />
<path d="M23,-12.5 L23.6718,-12.5  L24.3351,-12.5  L24.9817,-12.5  L25.6033,-12.5  L26.1922,-12.5  L26.7409,-12.5  L27.2426,-12.5  L27.691,-12.5  L28.0803,-12.5  L28.4058,-12.5  L28.6633,-12.5  L28.8496,-12.5  L28.9623,-12.5  L29,-12.5 " /><path id= "37" d=" M 23 -21.5 L 23 -12.5 " />
<path d="M23,12.5 L23.6718,12.5  L24.3351,12.5  L24.9817,12.5  L25.6033,12.5  L26.1922,12.5  L26.7409,12.5  L27.2426,12.5  L27.691,12.5  L28.0803,12.5  L28.4058,12.5  L28.6633,12.5  L28.8496,12.5  L28.9623,12.5  L29,12.5 " /><path id= "39" d=" M 29 12.5 L 29 15 " />
<path id= "40" d=" M 29 15 L 29 18.5 " />
<path d="M23,18.5 L23.6718,18.5  L24.3351,18.5  L24.9817,18.5  L25.6033,18.5  L26.1922,18.5  L26.7409,18.5  L27.2426,18.5  L27.691,18.5  L28.0803,18.5  L28.4058,18.5  L28.6633,18.5  L28.8496,18.5  L28.9623,18.5  L29,18.5 " /><path id= "42" d=" M 23 12.5 L 23 18.5 " />
<path id= "43" d=" M 29 18.5 L 31 18.5 " />
<path id= "44" d=" M 17.7085 18.5 L 23 18.5 " />
<path d="M23,18.5 L22.5872,18.5  L22.1755,18.5  L21.766,18.5  L21.3598,18.5  L20.9579,18.5  L20.5615,18.5  L20.1716,18.5  L19.7892,18.5  L19.4154,18.5  L19.0511,18.5  L18.6973,18.5  L18.3551,18.5  L18.0252,18.5  L17.7085,18.5 " /><path id= "46" d=" M 17.7085 18.5 L 17.7085 43.5 " />
<path id= "47" d=" M 31 18.5 L 31 39 " />
<path id= "48" d=" M 31 39 L 31 43.5 " />
<path id= "49" d=" M 29 12.5 L 31 12.5 " />
<path id= "50" d=" M 17.7085 12.5 L 23 12.5 " />
<path d="M23,12.5 L22.5872,12.5  L22.1755,12.5  L21.766,12.5  L21.3598,12.5  L20.9579,12.5  L20.5615,12.5  L20.1716,12.5  L19.7892,12.5  L19.4154,12.5  L19.0511,12.5  L18.6973,12.5  L18.3551,12.5  L18.0252,12.5  L17.7085,12.5 " /><path id= "52" d=" M 17.7085 -12.5 L 17.7085 12.5 " />
<path id= "53" d=" M 31 -12.5 L 31 12.5 " />
<path id= "54" d=" M 29 -12.5 L 31 -12.5 " />
<path id= "55" d=" M 17.7085 -12.5 L 23 -12.5 " />
<path d="M29,-8.50002 L29.2239,-8.48744  L29.445,-8.44987  L29.6606,-8.38778  L29.8678,-8.30195  L30.0641,-8.19346  L30.247,-8.06368  L30.4142,-7.91423  L30.5637,-7.747  L30.6934,-7.56408  L30.8019,-7.36778  L30.8878,-7.16057  L30.9499,-6.94506  L30.9874,-6.72394  L31,-6.50002 " /><path d="M31,-5.49998 L30.9874,-5.27605  L30.9499,-5.05494  L30.8878,-4.83943  L30.8019,-4.63222  L30.6934,-4.43592  L30.5637,-4.253  L30.4142,-4.08577  L30.247,-3.93632  L30.0641,-3.80654  L29.8678,-3.69805  L29.6606,-3.61222  L29.445,-3.55013  L29.2239,-3.51256  L29,-3.49998 " /><path d="M29,3.49998 L29.2239,3.51256  L29.445,3.55013  L29.6606,3.61222  L29.8678,3.69805  L30.0641,3.80654  L30.247,3.93632  L30.4142,4.08577  L30.5637,4.253  L30.6934,4.43592  L30.8019,4.63222  L30.8878,4.83943  L30.9499,5.05494  L30.9874,5.27605  L31,5.49998 " /><path d="M31,6.50002 L30.9874,6.72395  L30.9499,6.94506  L30.8878,7.16058  L30.8019,7.36778  L30.6934,7.56408  L30.5637,7.747  L30.4142,7.91423  L30.247,8.06368  L30.0641,8.19347  L29.8678,8.30195  L29.6606,8.38778  L29.445,8.44987  L29.2239,8.48744  L29,8.50002 " /><path id= "60" d=" M 33.25 7.50001 L 33.25 4.50001 " />
<path d="M33.25 7.50001 A1 1 0 1 1 31.25 7.49999" /><path d="M31.25 4.50001 A1 1 0 0 1 33.25 4.50001" /><path id= "63" d=" M 31.25 7.49999 L 31.25 4.50001 " />
<path id= "64" d=" M 31.25 -4.50001 L 31.25 -7.49999 " />
<path d="M33.25 -4.49999 A1 1 0 1 1 31.25 -4.50001" /><path d="M31.25 -7.49999 A1 1 0 0 1 33.25 -7.49999" /><path id= "67" d=" M 33.25 -4.49999 L 33.25 -7.49999 " />
<path d="M14.7445,8.16762 C14.5877,8.34253 14.3777,8.45281 14.1564,8.48769  C14.1098,8.49507 14.0628,8.49913 14.0157,8.49988  C13.9671,8.50038 13.9394,8.49876 13.8903,8.49396  C13.766,8.48019 13.6476,8.44402 13.5353,8.38545 " /><path d="M-10.6654,5.49998 C-10.9064,5.03608 -11.1294,4.51291 -11.279,4.09692  C-11.4084,3.73959 -11.4788,3.49584 -11.4782,3.49998 " /><circle cx ="0" cy ="2.4869e-14" r ="12" /><path d="M-13,7.5 C-13.0026,7.89189 -13.2168,8.19883 -13.491,8.36074  C-13.6013,8.42557 -13.7188,8.46789 -13.8436,8.48769  C-13.8903,8.49507 -13.9372,8.49913 -13.9843,8.49988  C-14.0323,8.50039 -14.0613,8.49874 -14.1097,8.49396  C-14.4039,8.46211 -14.6852,8.29574 -14.8526,8.0225  C-14.9425,7.87562 -14.9997,7.69771 -15,7.5 " /><path id= "72" d=" M -23 43.5 L -23 45.5 " />
<path id= "73" d=" M -29 43.5 L -29 45.5 " />
<path d="M-29,43.5 L-28.9623,43.5  L-28.8496,43.5  L-28.6633,43.5  L-28.4058,43.5  L-28.0803,43.5  L-27.691,43.5  L-27.2426,43.5  L-26.7409,43.5  L-26.1922,43.5  L-25.6033,43.5  L-24.9817,43.5  L-24.3351,43.5  L-23.6718,43.5  L-23,43.5 " /><path id= "75" d=" M -35 39 L -35 45.5 " />
<path id= "76" d=" M 17.5 -21.5 L 17.5 -32 " />
<path id= "77" d=" M 17.5 -32 L 17.5 -38.5 " />
<path id= "78" d=" M -35 -21.5 L -29 -21.5 " />
<path id= "79" d=" M -23 -21.5 L -7.5 -21.5 " />
<path d="M-29,-21.5 L-28.9623,-21.5  L-28.8496,-21.5  L-28.6633,-21.5  L-28.4058,-21.5  L-28.0803,-21.5  L-27.691,-21.5  L-27.2426,-21.5  L-26.7409,-21.5  L-26.1922,-21.5  L-25.6033,-21.5  L-24.9817,-21.5  L-24.3351,-21.5  L-23.6718,-21.5  L-23,-21.5 " /><path id= "81" d=" M -23 43.5 L -17.7085 43.5 " />
<path id= "82" d=" M -31 43.5 L -29 43.5 " />
<path id= "83" d=" M -31 39 L -31 43.5 " />
<path id= "84" d=" M -31 18.5 L -31 39 " />
<path d="M-17.7085,18.5 L-18.0252,18.5  L-18.3551,18.5  L-18.6973,18.5  L-19.0511,18.5  L-19.4154,18.5  L-19.7892,18.5  L-20.1716,18.5  L-20.5615,18.5  L-20.9579,18.5  L-21.3598,18.5  L-21.766,18.5  L-22.1755,18.5  L-22.5872,18.5  L-23,18.5 " /><path id= "86" d=" M -17.7085 18.5 L -17.7085 43.5 " />
<path id= "87" d=" M -23 18.5 L -17.7085 18.5 " />
<path d="M-29,18.5 L-28.9623,18.5  L-28.8496,18.5  L-28.6633,18.5  L-28.4058,18.5  L-28.0803,18.5  L-27.691,18.5  L-27.2426,18.5  L-26.7409,18.5  L-26.1922,18.5  L-25.6033,18.5  L-24.9817,18.5  L-24.3351,18.5  L-23.6718,18.5  L-23,18.5 " /><path id= "89" d=" M -31 18.5 L -29 18.5 " />
<path d="M-29,12.5 L-28.9623,12.5  L-28.8496,12.5  L-28.6633,12.5  L-28.4058,12.5  L-28.0803,12.5  L-27.691,12.5  L-27.2426,12.5  L-26.7409,12.5  L-26.1922,12.5  L-25.6033,12.5  L-24.9817,12.5  L-24.3351,12.5  L-23.6718,12.5  L-23,12.5 " /><path id= "91" d=" M -23 12.5 L -23 18.5 " />
<path id= "92" d=" M -29 15 L -29 18.5 " />
<path id= "93" d=" M -29 12.5 L -29 15 " />
<path id= "94" d=" M -23 12.5 L -17.7085 12.5 " />
<path id= "95" d=" M -31 12.5 L -29 12.5 " />
<path id= "96" d=" M -31 -12.5 L -31 12.5 " />
<path d="M-17.7085,-12.5 L-18.0252,-12.5  L-18.3551,-12.5  L-18.6973,-12.5  L-19.0511,-12.5  L-19.4154,-12.5  L-19.7892,-12.5  L-20.1716,-12.5  L-20.5615,-12.5  L-20.9579,-12.5  L-21.3598,-12.5  L-21.766,-12.5  L-22.1755,-12.5  L-22.5872,-12.5  L-23,-12.5 " /><path id= "98" d=" M -17.7085 -12.5 L -17.7085 12.5 " />
<path id= "99" d=" M -23 -12.5 L -17.7085 -12.5 " />
<path d="M-29,-12.5 L-28.9623,-12.5  L-28.8496,-12.5  L-28.6633,-12.5  L-28.4058,-12.5  L-28.0803,-12.5  L-27.691,-12.5  L-27.2426,-12.5  L-26.7409,-12.5  L-26.1922,-12.5  L-25.6033,-12.5  L-24.9817,-12.5  L-24.3351,-12.5  L-23.6718,-12.5  L-23,-12.5 " /><path id= "101" d=" M -31 -12.5 L -29 -12.5 " />
<path id= "102" d=" M -23 -21.5 L -23 -12.5 " />
<path id= "103" d=" M -29 -21.5 L -29 -12.5 " />
<path id= "104" d=" M 15 7.5 L 15 4.5 " />
<path d="M15 7.5 A1 1 0 0 1 13 7.5" /><path d="M13 4.5 A1 1 0 1 1 15 4.5" /><path d="M15,4.5 C14.9992,4.17901 14.85,3.91494 14.6613,3.74991  C14.5633,3.66477 14.457,3.6016 14.3423,3.5604  C14.2838,3.53917 14.2244,3.52355 14.1641,3.51355  C14.1358,3.51008 14.1076,3.50661 14.0793,3.50315  C14.0618,3.5018 14.057,3.50158 14.042,3.50089  C14.0287,3.50026 14.0076,3.49992 14,3.5 " /><path d="M13,4.5 C13.0008,4.17901 13.15,3.91494 13.3387,3.74991  C13.4367,3.66477 13.543,3.6016 13.6577,3.5604  C13.7162,3.53917 13.7756,3.52355 13.8359,3.51355  C13.8642,3.51008 13.8924,3.50661 13.9207,3.50315  C13.9382,3.5018 13.943,3.50158 13.958,3.50089  C13.9713,3.50026 13.9924,3.49992 14,3.5 " /><path id= "109" d=" M 13 7.5 L 13 4.5 " />
<path id= "110" d=" M -13 7.5 L -13 4.5 " />
<path d="M-13 7.5 A1 1 0 0 1 -15 7.5" /><path d="M-15 4.5 A1 1 0 1 1 -13 4.5" /><path d="M-13,4.5 C-13.0007,4.18892 -13.1413,3.93056 -13.3216,3.76533  C-13.418,3.67767 -13.5231,3.61196 -13.637,3.56822  C-13.6952,3.5456 -13.7545,3.52862 -13.8148,3.51729  C-13.8431,3.51322 -13.8713,3.50914 -13.8995,3.50506  C-13.9221,3.50286 -13.9275,3.50256 -13.9466,3.50144  C-13.9634,3.50042 -13.9912,3.49988 -14,3.5 " /><path d="M-15,4.5 C-14.9993,4.18892 -14.8587,3.93056 -14.6784,3.76533  C-14.582,3.67767 -14.4769,3.61196 -14.363,3.56822  C-14.3048,3.5456 -14.2455,3.52862 -14.1852,3.51729  C-14.1569,3.51322 -14.1287,3.50914 -14.1005,3.50506  C-14.0779,3.50286 -14.0725,3.50256 -14.0534,3.50144  C-14.0366,3.50042 -14.0088,3.49988 -14,3.5 " /><path id= "115" d=" M -15 7.5 L -15 4.5 " />
<path d="M13,-7.5 C13.0017,-7.87025 13.1962,-8.1597 13.4265,-8.3192 " /><path d="M14,-8.5 C14.0086,-8.49996 14.0193,-8.49979 14.0322,-8.49949  C14.0415,-8.49928 14.0517,-8.49879 14.0628,-8.49803  C14.128,-8.49394 14.1925,-8.48346 14.2563,-8.4666  C14.4202,-8.42436 14.5686,-8.3397 14.7015,-8.21264  C14.8702,-8.04766 14.9995,-7.79748 15,-7.5 " /><path id= "118" d=" M 15 -4.5 L 15 -7.5 " />
<path d="M15 -4.5 A1 1 0 1 1 13 -4.5" /><path d="M13 -7.5 A1 1 0 0 1 15 -7.5" /><path id= "121" d=" M 13 -4.5 L 13 -7.5 " />
<path id= "122" d=" M -35 -21.5 L -35 15 " />
<path d="M-31.25 -4.50001 A1 1 0 1 1 -33.25 -4.50001" /><path id= "124" d=" M -31.25 -4.50001 L -31.25 -7.49999 " />
<path id= "125" d=" M -33.25 -4.50001 L -33.25 -7.49999 " />
<path d="M-33.25 -7.49999 A1 1 0 1 1 -31.25 -7.49999" /><path id= "127" d=" M -31.25 7.49999 L -31.25 4.50001 " />
<path d="M-33.25 4.50001 A1 1 0 0 1 -31.25 4.50001" /><path d="M-31.25 7.49999 A1 1 0 0 1 -33.25 7.49999" /><path id= "130" d=" M -33.25 7.49999 L -33.25 4.50001 " />
<path id= "131" d=" M -35 39 L -44 39 " />
<path id= "132" d=" M 11.75 -32 L 17.5 -32 " />
<path id= "133" d=" M 11.75 -32 L 17.5 -32 " />
<path id= "134" d=" M 11.75 -38.5 L 11.75 -32 " />
<path id= "135" d=" M 17.5 -38.5 L 11.75 -38.5 " />
<circle cx ="14.5" cy ="-35.5" r ="1.6" /><path id= "137" d=" M -7.5 -38.5 L -7.5 -32 " />
<path id= "138" d=" M -7.5 -32 L -7.5 -21.5 " />
<path id= "139" d=" M -7.5 -32 L -1.75 -32 " />
<path id= "140" d=" M -7.5 -32 L -1.75 -32 " />
<path id= "141" d=" M -1.75 -26.5 L -1.75 -32 " />
<path id= "142" d=" M -1.75 -32 L -1.75 -38.5 " />
<path id= "143" d=" M 11.75 -32 L 11.75 -26.5 " />
<path d="M-44 39 A12 12 0 0 0 -35 34.9373" /><path d="M-35 34.9373 A12 12 0 0 0 -35 19.0627" /><path d="M-35 19.0627 A12 12 0 0 0 -44 15" /><path d="M-44 15 A12 12 0 1 1 -44 39" /><path id= "148" d=" M -1.75 -38.5 L -7.5 -38.5 " />
<circle cx ="-4.5" cy ="-35.5" r ="1.6" /><path id= "150" d=" M -44 39 L -60 39 " />
<path id= "151" d=" M -47.873 20 L -60 20 " />
<path d="M-47.873 20 A8 8 0 1 1 -47.873 34" /><path id= "153" d=" M -60 34 L -47.873 34 " />
<path id= "154" d=" M -60 39 L -60 34 " />
<path id= "155" d=" M -60 15 L -44 15 " />
<path id= "156" d=" M -60 20 L -60 15 " />
<circle cx ="0" cy ="27" r ="3" /><circle cx ="0" cy ="16" r ="1.6" /><path id= "159" d=" M 33.25 33.5 L 33.25 36.5 " />
<path d="M31.25 33.5 A1 1 0 1 1 33.25 33.5" /><path id= "161" d=" M 31.25 33.5 L 31.25 36.5 " />
<path d="M33.25 36.5 A1 1 0 0 1 31.25 36.5" /><path id= "163" d=" M -33.25 33.5 L -33.25 36.5 " />
<path d="M-31.25 36.5 A1 1 0 0 1 -33.25 36.5" /><path id= "165" d=" M -31.25 33.5 L -31.25 36.5 " />
<path d="M-33.25 33.5 A1 1 0 1 1 -31.25 33.5" /><path d="M-15 33.5 A1 1 0 0 1 -13 33.5" /><path id= "168" d=" M -15 36.5 L -15 33.5 " />
<path id= "169" d=" M -13 36.5 L -13 33.5 " />
<path d="M-13 36.5 A1 1 0 1 1 -15 36.5" /><path d="M13 33.5 A1 1 0 1 1 15 33.5" /><path id= "172" d=" M 13 36.5 L 13 33.5 " />
<path id= "173" d=" M 15 36.5 L 15 33.5 " />
<path d="M15 36.5 A1 1 0 1 1 13 36.5" /><circle cx ="15.5" cy ="15.5" r ="1.6" /><circle cx ="-15.5" cy ="15.5" r ="1.6" /><circle cx ="0" cy ="-16" r ="1.6" /><circle cx ="15.5" cy ="-15.5" r ="1.6" /><circle cx ="-15.5" cy ="-15.5" r ="1.6" /><path id= "180" d=" M 44 15 L 35 15 " />
<path id= "181" d=" M -44 15 L -35 15 " />
<path id= "182" d=" M 11.75 -26.5 L -1.75 -26.5 " />
</g>
</g>



<g id="Ortho_1_0"
   transform="rotate(-90,206,188) translate(206,188) scale(1,1)"
  >
<g   stroke="rgb(0, 0, 0)"
   stroke-width="0.35"
   stroke-linecap="butt"
   stroke-linejoin="miter"
   fill="none"
   transform="scale(1,-1)"
  >
<path id= "1" d=" M 24 32 L 12 32 " />
<path id= "2" d=" M 24 -32 L 12 -32 " />
</g>
<g   stroke="rgb(0, 0, 0)"
   stroke-width="0.35"
   stroke-linecap="butt"
   stroke-linejoin="miter"
   fill="none"
   transform="scale(1,-1)"
  >
<path id= "1" d=" M -4.21706e-15 47.873 L -1.4988e-14 60 " />
<path d="M7.10543e-15,36 L7.16019e-15,36.0503  L7.12492e-15,36.2006  L7.00004e-15,36.4489  L6.78714e-15,36.7922  L6.48888e-15,37.2262  L6.10902e-15,37.7453  L5.65233e-15,38.3431  L5.12457e-15,39.0121  L4.53236e-15,39.7437  L3.88315e-15,40.5289  L3.18511e-15,41.3578  L2.44702e-15,42.2198  L1.67815e-15,43.1043  L8.88178e-16,44 " /><path d="M8.88173e-16,44 L6.31164e-16,44.2887  L3.73334e-16,44.5771  L1.15017e-16,44.8646  L-1.4345e-16,45.1511  L-4.0173e-16,45.4361  L-6.59487e-16,45.7192  L-9.16385e-16,46  L-1.17209e-15,46.2782  L-1.42626e-15,46.5535  L-1.67858e-15,46.8255  L-1.92871e-15,47.0937  L-2.17633e-15,47.358  L-2.42112e-15,47.6178  L-2.66274e-15,47.873 " /><path id= "4" d=" M 24 44 L 24 60 " />
<path d="M24,32 L24,32.0755  L24,32.3009  L24,32.6734  L24,33.1884  L24,33.8393  L24,34.618  L24,35.5147  L24,36.5181  L24,37.6156  L24,38.7934  L24,40.0367  L24,41.3298  L24,42.6564  L24,44 " /><path id= "6" d=" M -1.28786e-14 60 L 24 60 " />
<path id= "7" d=" M 1.33226e-15 44 L -1.28786e-14 60 " />
<path id= "8" d=" M 21.4641 55 L 19.7321 52 " />
<path id= "9" d=" M 21.4641 55 L 19.7321 58 " />
<path id= "10" d=" M 16.2679 58 L 19.7321 58 " />
<path id= "11" d=" M 14.5359 55 L 16.2679 58 " />
<path id= "12" d=" M 16.2679 52 L 14.5359 55 " />
<path id= "13" d=" M 19.7321 52 L 16.2679 52 " />
<path id= "14" d=" M 7.73205 58 L 4.26795 58 " />
<path id= "15" d=" M 4.26795 58 L 2.5359 55 " />
<path id= "16" d=" M 4.26795 52 L 2.5359 55 " />
<path id= "17" d=" M 4.26795 52 L 7.73205 52 " />
<path id= "18" d=" M 7.73205 52 L 9.4641 55 " />
<path id= "19" d=" M 9.4641 55 L 7.73205 58 " />
<path d="M12,44 L12,43.2735  L12,42.5497  L12,41.8313  L12,41.1207  L12,40.4208  L12,39.7339  L12,39.0627  L12,38.4097  L12,37.7771  L12,37.1674  L12,36.5827  L12,36.0252  L12,35.497  L12,35 " /><path id= "21" d=" M 1.33227e-15 44 L 12 44 " />
<path d="M1.33227e-15,44 L1.33227e-15,44  L1.33227e-15,44  L1.33227e-15,44  L1.33227e-15,44  L1.33227e-15,44  L1.33227e-15,44  L1.33226e-15,44  L1.33226e-15,44  L1.33226e-15,44  L1.33226e-15,44  L1.33226e-15,44  L1.33226e-15,44  L1.33226e-15,44  L1.33226e-15,44 " /><circle cx ="6" cy ="55" r ="1.6" /><circle cx ="18" cy ="55" r ="1.6" /><path id= "25" d=" M 21.4641 55 L 19.7321 58 " />
<path id= "26" d=" M 16.2679 58 L 19.7321 58 " />
<path id= "27" d=" M 19.7321 52 L 16.2679 52 " />
<path id= "28" d=" M 7.73205 58 L 4.26795 58 " />
<path id= "29" d=" M 7.73205 52 L 9.4641 55 " />
<path id= "30" d=" M 1.46549e-14 29 L 1.33227e-15 44 " />
<path id= "31" d=" M 12 35 L 12 44 " />
<path id= "32" d=" M 12 35 L 6 35 " />
<path id= "33" d=" M 6 35 L -3.25961e-13 29 " />
<path d="M12 -29 A6 6 0 0 0 6 -23" /><path id= "35" d=" M 6 -23 L 6 23 " />
<path d="M6 23 A6 6 0 0 0 12 29" /><path id= "37" d=" M 12 29 L 12 35 " />
<path id= "38" d=" M -3.27294e-13 29 L -3.27294e-13 -29 " />
<path id= "39" d=" M -3.27294e-13 -29 L 6 -35 " />
<path id= "40" d=" M 6 -35 L 12 -35 " />
<path id= "41" d=" M 12 -35 L 12 -29 " />
<path d="M6 23 A6 6 0 0 0 12 29" /><path d="M6 23 A6 6 0 0 0 12 29" /><path d="M12 -29 A6 6 0 0 0 6 -23" /><path d="M12 -29 A6 6 0 0 0 6 -23" /><path id= "46" d=" M 8.32667e-15 -29 L 0 -44 " />
<path id= "47" d=" M 0 -44 L 12 -44 " />
<path id= "48" d=" M 12 -35 L 12 -44 " />
<path d="M12,-44 L12,-43.2735  L12,-42.5497  L12,-41.8313  L12,-41.1207  L12,-40.4208  L12,-39.7339  L12,-39.0627  L12,-38.4097  L12,-37.7771  L12,-37.1674  L12,-36.5827  L12,-36.0252  L12,-35.497  L12,-35 " /><path d="M-2.20343e-29,-44 L-2.52209e-22,-44  L-5.04419e-22,-44  L-7.56628e-22,-44  L-1.00884e-21,-44  L-1.26105e-21,-44  L-1.51326e-21,-44  L-1.76547e-21,-44  L-2.01768e-21,-44  L-2.26988e-21,-44  L-2.52209e-21,-44  L-2.7743e-21,-44  L-3.02651e-21,-44  L-3.27872e-21,-44  L-3.53093e-21,-44 " /><path d="M24,-32 L24,-32.0755  L24,-32.3009  L24,-32.6734  L24,-33.1884  L24,-33.8393  L24,-34.618  L24,-35.5147  L24,-36.5181  L24,-37.6156  L24,-38.7934  L24,-40.0367  L24,-41.3298  L24,-42.6564  L24,-44 " /><path id= "52" d=" M -3.53093e-21 -44 L -8.88179e-15 -60 " />
<path id= "53" d=" M 24 -44 L 24 -60 " />
<path id= "54" d=" M -8.88179e-15 -60 L 24 -60 " />
<path id= "55" d=" M 21.4641 -55 L 19.7321 -52 " />
<path id= "56" d=" M 21.4641 -55 L 19.7321 -58 " />
<path id= "57" d=" M 16.2679 -58 L 19.7321 -58 " />
<path id= "58" d=" M 14.5359 -55 L 16.2679 -58 " />
<path id= "59" d=" M 16.2679 -52 L 14.5359 -55 " />
<path id= "60" d=" M 19.7321 -52 L 16.2679 -52 " />
<path id= "61" d=" M 7.73205 -58 L 4.26795 -58 " />
<path id= "62" d=" M 4.26795 -58 L 2.5359 -55 " />
<path id= "63" d=" M 4.26795 -52 L 2.5359 -55 " />
<path id= "64" d=" M 4.26795 -52 L 7.73205 -52 " />
<path id= "65" d=" M 7.73205 -52 L 9.4641 -55 " />
<path id= "66" d=" M 9.4641 -55 L 7.73205 -58 " />
<path d="M4.44089e-15,-36 L4.41297e-15,-36.0503  L4.32955e-15,-36.2006  L4.19168e-15,-36.4489  L4.00111e-15,-36.7922  L3.76021e-15,-37.2262  L3.47203e-15,-37.7453  L3.14018e-15,-38.3431  L2.76885e-15,-39.0121  L2.3627e-15,-39.7437  L1.92683e-15,-40.5289  L1.46673e-15,-41.3578  L9.88191e-16,-42.2198  L4.97222e-16,-43.1043  L-2.8566e-30,-44 " /><circle cx ="6" cy ="-55" r ="1.6" /><circle cx ="18" cy ="-55" r ="1.6" /><path id= "70" d=" M 19.7321 -52 L 16.2679 -52 " />
<path id= "71" d=" M 4.26795 -52 L 2.5359 -55 " />
<path id= "72" d=" M 4.26795 -52 L 7.73205 -52 " />
<path id= "73" d=" M 7.73205 -52 L 9.4641 -55 " />
<circle cx ="6" cy ="-55" r ="1.6" /><circle cx ="18" cy ="-55" r ="1.6" /><path id= "76" d=" M -2.14939e-13 2.59808 L -2.36922e-13 5.19615 " />
<path d="M1.12133e-14,33.25 L1.11993e-14,33.2249  L1.11583e-14,33.151  L1.10921e-14,33.0318  L1.10042e-14,32.8735  L1.0899e-14,32.6839  L1.07817e-14,32.4725  L1.06581e-14,32.25  L1.05346e-14,32.0275  L1.04173e-14,31.8161  L1.0312e-14,31.6265  L1.02241e-14,31.4682  L1.0158e-14,31.349  L1.01169e-14,31.2751  L1.0103e-14,31.25 " /></g>
</g>



</svg>

