<?xml version="1.0" encoding="UTF-8"?>

<svg xmlns="http://www.w3.org/2000/svg" version="1.1"
	width="297mm"
	height="210mm"
	viewBox="0 0 297 210">
	<!-- Working space 0 0 297 210 -->
	<defs>
		<radialGradient
			id="radialGradient3661"
			gradientUnits="userSpaceOnUse"
			cy="29.149"
			cx="282.65"
			gradientTransform="matrix(.14777 .23089 -.24680 .15795 -26.318 -62.617)"
			r="19.571">
				<stop stop-color="#71b2f8" offset="0"/>
				<stop stop-color="#002795" offset="1"/>
		</radialGradient>
		<radialGradient
			id="radialGradient3817"
			gradientUnits="userSpaceOnUse"
			cy="33.9"
			cx="270.58"
			gradientTransform="matrix(.26631 .065024 -.17931 .73438 -60.668 -36.938)"
			r="19.571">
				<stop stop-color="#ff6d0f" offset="0"/>
				<stop stop-color="#ff1000" offset="1"/>
		</radialGradient>
	</defs>
	<!-- Set display:none to hide FreeCAD Logo -->
	<g
		style="display:inline"
		id="freecad-logo"
		transform="translate(271, 185) scale(1)"
		fill-rule="evenodd"
		stroke-width=".45621">
		<path d="m0.22811 0.22835v13.256h2.9558v-5.1876h2.09v-2.0452h-2.09v-2.2075h5.1486v-3.8087l-8.1044-0.0075z"
			stroke="#370700"
			fill="url(#radialGradient3817)"/>
		<path d="m13.386 4.1792-1.7193 0.98645-0.75925-0.26348-0.72439-1.8513-1.1395 0.05988-0.51976 1.9144-0.72743 0.34835-1.8143-0.79367-0.76632 0.85156 0.98645 1.7193-0.26957 0.75702-1.8513 0.72439 0.065967 1.1417 1.9144 0.51976 0.34835 0.72743-0.79976 1.8121 0.85156 0.76632 1.7193-0.98645 0.76311 0.27179 0.7183 1.8491 1.1478-0.06375 0.51367-1.9166 0.72743-0.34835 1.8182 0.80198 0.76632-0.85156-0.98645-1.7193 0.2657-0.76533 1.8491-0.7183-0.05766-1.1456-1.9166-0.51367-0.34835-0.72743 0.7959-1.8204-0.85156-0.76632zm-2.5751 2.8195 0.35295 0.20478 0.30579 0.27725 0.24481 0.33087 0.17611 0.36787 0.10354 0.39656 0.01715 0.4064-0.0587 0.4063-0.13396 0.38571-0.2131 0.35681-0.26894 0.30192-0.33087 0.24481-0.36787 0.17611-0.39656 0.10354-0.40863 0.02325-0.4063-0.0587-0.38571-0.13396-0.35681-0.2131-0.2997-0.27503-0.24703-0.32478-0.17611-0.36787-0.10132-0.40264-0.02324-0.40863 0.05869-0.4063 0.13396-0.38571 0.21087-0.35072 0.27116-0.30801 0.33087-0.24481 0.36787-0.17611 0.40264-0.10132 0.40641-0.01715 0.4063 0.05869 0.38571 0.13396z" 
		stroke="#000137"
		fill="url(#radialGradient3661)"/>
	</g>
<g id="Ortho_0_0"
   transform="rotate(-90,81.647,169.333) translate(81.647,169.333) scale(1,1)"
  >
<g   stroke="rgb(0, 0, 0)"
   stroke-width="0.35"
   stroke-linecap="butt"
   stroke-linejoin="miter"
   fill="none"
   transform="scale(1,-1)"
  >
<path id= "1" d=" M 2 6.5 L 1 6.5 " />
<path id= "2" d=" M 2 -6.5 L 1 -6.5 " />
<path d="M1,6.5 C1.00093,6.331 0.957802,6.16701 0.870605,6.00802  C0.793168,5.87188 0.679445,5.74174 0.512479,5.6413  C0.381513,5.56227 0.208048,5.50346 0.0197047,5.50019  C-0.166007,5.49586 -0.343574,5.54736 -0.478246,5.62177  C-0.649663,5.7159 -0.768207,5.84177 -0.850544,5.9741  C-0.951427,6.14313 -1.00125,6.31843 -1,6.5 " /><path d="M-1,-6.5 C-1.00093,-6.33106 -0.957832,-6.16712 -0.870699,-6.00818  C-0.793286,-5.87203 -0.679587,-5.74186 -0.512642,-5.6414  C-0.381694,-5.56234 -0.20825,-5.5035 -0.0198954,-5.5002  C0.165802,-5.49583 0.343388,-5.54729 0.478079,-5.62168  C0.649517,-5.71578 0.768084,-5.84162 0.850444,-5.97393  C0.951395,-6.14301 1.00125,-6.31837 1,-6.5 " /><path id= "5" d=" M -2 -6.5 L -1 -6.5 " />
<path id= "6" d=" M -2 6.5 L -1 6.5 " />
<path id= "7" d=" M -1 2 L -1.9 2 " />
<path id= "8" d=" M -1 -2 L -1.9 -2 " />
</g>
<g   stroke="rgb(0, 0, 0)"
   stroke-width="0.35"
   stroke-linecap="butt"
   stroke-linejoin="miter"
   fill="none"
   transform="scale(1,-1)"
  >
<path d="M2,-3.10862e-15 L2,0.727769  L2,1.44639  L2,2.14681  L2,2.82024  L2,3.45821  L2,4.05268  L2,4.59619  L2,5.0819  L2,5.50371  L2,5.8563  L2,6.13524  L2,6.33703  L2,6.45913  L2,6.5 " /><path d="M2,-6.5 L2,-6.45913  L2,-6.33703  L2,-6.13524  L2,-5.8563  L2,-5.50371  L2,-5.0819  L2,-4.59619  L2,-4.05268  L2,-3.45821  L2,-2.82024  L2,-2.14681  L2,-1.44639  L2,-0.727769  L2,1.8392e-14 " /><path d="M1,-1.55431e-15 L1,0.727769  L1,1.44639  L1,2.14681  L1,2.82024  L1,3.45821  L1,4.05268  L1,4.59619  L1,5.0819  L1,5.50371  L1,5.8563  L1,6.13524  L1,6.33703  L1,6.45913  L1,6.5 " /><path d="M1,-6.5 L1,-6.45913  L1,-6.33703  L1,-6.13524  L1,-5.8563  L1,-5.50371  L1,-5.0819  L1,-4.59619  L1,-4.05268  L1,-3.45821  L1,-2.82024  L1,-2.14681  L1,-1.44639  L1,-0.727769  L1,1.99463e-14 " /><path d="M-1,1.55431e-15 L-1,0.727769  L-1,1.44639  L-1,2.14681  L-1,2.82024  L-1,3.45821  L-1,4.05268  L-1,4.59619  L-1,5.0819  L-1,5.50371  L-1,5.8563  L-1,6.13524  L-1,6.33703  L-1,6.45913  L-1,6.5 " /><path d="M-1,-6.5 L-1,-6.45913  L-1,-6.33703  L-1,-6.13524  L-1,-5.8563  L-1,-5.50371  L-1,-5.0819  L-1,-4.59619  L-1,-4.05268  L-1,-3.45821  L-1,-2.82024  L-1,-2.14681  L-1,-1.44639  L-1,-0.727769  L-1,2.30549e-14 " /><path d="M-2,3.10862e-15 L-2,0.727769  L-2,1.44639  L-2,2.14681  L-2,2.82024  L-2,3.45821  L-2,4.05268  L-2,4.59619  L-2,5.0819  L-2,5.50371  L-2,5.8563  L-2,6.13524  L-2,6.33703  L-2,6.45913  L-2,6.5 " /><path d="M-2,-6.5 L-2,-6.45913  L-2,-6.33703  L-2,-6.13524  L-2,-5.8563  L-2,-5.50371  L-2,-5.0819  L-2,-4.59619  L-2,-4.05268  L-2,-3.45821  L-2,-2.82024  L-2,-2.14681  L-2,-1.44639  L-2,-0.727769  L-2,2.46092e-14 " /></g>
</g>



<g id="Ortho_0_1"
   transform="rotate(90,81.647,76.6667) translate(81.647,76.6667) scale(1,1)"
  >
<g   stroke="rgb(0, 0, 0)"
   stroke-width="0.35"
   stroke-linecap="butt"
   stroke-linejoin="miter"
   fill="none"
   transform="scale(1,-1)"
  >
<circle cx ="0" cy ="2.66454e-15" r ="6.5" /><circle cx ="0" cy ="2.66454e-15" r ="4.71" /><circle cx ="0" cy ="2.66454e-15" r ="2.945" /><circle cx ="0" cy ="2.66454e-15" r ="2" /></g>
</g>



<g id="Ortho_1_0"
   transform="rotate(-90,215.294,169.333) translate(215.294,169.333) scale(1,1)"
  >
<g   stroke="rgb(0, 0, 0)"
   stroke-width="0.35"
   stroke-linecap="butt"
   stroke-linejoin="miter"
   fill="none"
   transform="scale(1,-1)"
  >
<path id= "1" d=" M 2 -6.5 L 1 -6.5 " />
<path d="M-1,-6.5 C-0.998666,-6.25912 -0.916975,-6.01401 -0.721035,-5.8071  C-0.663309,-5.74605 -0.593845,-5.69081 -0.512642,-5.6414  C-0.381715,-5.56235 -0.208273,-5.5035 -0.0198954,-5.5002  C0.165831,-5.49584 0.34341,-5.5473 0.478079,-5.62168  C0.556141,-5.66495 0.623944,-5.71378 0.681488,-5.76817  C0.906795,-5.98193 0.998247,-6.24398 1,-6.5 " /><path id= "3" d=" M -2 -6.5 L -1 -6.5 " />
<path id= "4" d=" M -1 -2 L -1.9 -2 " />
</g>
<g   stroke="rgb(0, 0, 0)"
   stroke-width="0.35"
   stroke-linecap="butt"
   stroke-linejoin="miter"
   fill="none"
   transform="scale(1,-1)"
  >
<path d="M2,-6.5 L2,-6.33703  L2,-5.8563  L2,-5.0819  L2,-4.05268  L2,-2.82024  L2,-1.44639  L2,9.9082e-15  L2,1.44639  L2,2.82024  L2,4.05268  L2,5.0819  L2,5.8563  L2,6.33703  L2,6.5 " /><path d="M1,-6.5 L1,-6.33703  L1,-5.8563  L1,-5.0819  L1,-4.05268  L1,-2.82024  L1,-1.44639  L1,1.01302e-14  L1,1.44639  L1,2.82024  L1,4.05268  L1,5.0819  L1,5.8563  L1,6.33703  L1,6.5 " /><path id= "3" d=" M 2 6.5 L 1 6.5 " />
<path d="M-1,-6.5 L-1,-6.33703  L-1,-5.8563  L-1,-5.0819  L-1,-4.05268  L-1,-2.82024  L-1,-1.44639  L-1,-7.34163e-13  L-1,1.44639  L-1,2.82024  L-1,4.05268  L-1,5.0819  L-1,5.8563  L-1,6.33703  L-1,6.5 " /><path d="M1 6.5 A1 1 0 0 0 -1 6.5" /><path d="M-2,-6.5 L-2,-6.33703  L-2,-5.8563  L-2,-5.0819  L-2,-4.05268  L-2,-2.82024  L-2,-1.44639  L-2,1.07964e-14  L-2,1.44639  L-2,2.82024  L-2,4.05268  L-2,5.0819  L-2,5.8563  L-2,6.33703  L-2,6.5 " /><path id= "7" d=" M -2 6.5 L -1 6.5 " />
<path id= "8" d=" M -1 2 L -1.9 2 " />
</g>
</g>



</svg>

