<?xml version="1.0" encoding="UTF-8"?>

<svg xmlns="http://www.w3.org/2000/svg" version="1.1"
	width="297mm"
	height="210mm"
	viewBox="0 0 297 210">
	<!-- Working space 0 0 297 210 -->
	<defs>
		<radialGradient
			id="radialGradient3661"
			gradientUnits="userSpaceOnUse"
			cy="29.149"
			cx="282.65"
			gradientTransform="matrix(.14777 .23089 -.24680 .15795 -26.318 -62.617)"
			r="19.571">
				<stop stop-color="#71b2f8" offset="0"/>
				<stop stop-color="#002795" offset="1"/>
		</radialGradient>
		<radialGradient
			id="radialGradient3817"
			gradientUnits="userSpaceOnUse"
			cy="33.9"
			cx="270.58"
			gradientTransform="matrix(.26631 .065024 -.17931 .73438 -60.668 -36.938)"
			r="19.571">
				<stop stop-color="#ff6d0f" offset="0"/>
				<stop stop-color="#ff1000" offset="1"/>
		</radialGradient>
	</defs>
	<!-- Set display:none to hide FreeCAD Logo -->
	<g
		style="display:inline"
		id="freecad-logo"
		transform="translate(271, 185) scale(1)"
		fill-rule="evenodd"
		stroke-width=".45621">
		<path d="m0.22811 0.22835v13.256h2.9558v-5.1876h2.09v-2.0452h-2.09v-2.2075h5.1486v-3.8087l-8.1044-0.0075z"
			stroke="#370700"
			fill="url(#radialGradient3817)"/>
		<path d="m13.386 4.1792-1.7193 0.98645-0.75925-0.26348-0.72439-1.8513-1.1395 0.05988-0.51976 1.9144-0.72743 0.34835-1.8143-0.79367-0.76632 0.85156 0.98645 1.7193-0.26957 0.75702-1.8513 0.72439 0.065967 1.1417 1.9144 0.51976 0.34835 0.72743-0.79976 1.8121 0.85156 0.76632 1.7193-0.98645 0.76311 0.27179 0.7183 1.8491 1.1478-0.06375 0.51367-1.9166 0.72743-0.34835 1.8182 0.80198 0.76632-0.85156-0.98645-1.7193 0.2657-0.76533 1.8491-0.7183-0.05766-1.1456-1.9166-0.51367-0.34835-0.72743 0.7959-1.8204-0.85156-0.76632zm-2.5751 2.8195 0.35295 0.20478 0.30579 0.27725 0.24481 0.33087 0.17611 0.36787 0.10354 0.39656 0.01715 0.4064-0.0587 0.4063-0.13396 0.38571-0.2131 0.35681-0.26894 0.30192-0.33087 0.24481-0.36787 0.17611-0.39656 0.10354-0.40863 0.02325-0.4063-0.0587-0.38571-0.13396-0.35681-0.2131-0.2997-0.27503-0.24703-0.32478-0.17611-0.36787-0.10132-0.40264-0.02324-0.40863 0.05869-0.4063 0.13396-0.38571 0.21087-0.35072 0.27116-0.30801 0.33087-0.24481 0.36787-0.17611 0.40264-0.10132 0.40641-0.01715 0.4063 0.05869 0.38571 0.13396z" 
		stroke="#000137"
		fill="url(#radialGradient3661)"/>
	</g>
<g id="View"
   transform="rotate(60,148.5,103.367) translate(148.5,103.367) scale(1,1)"
  >
<g   stroke="rgb(0, 0, 0)"
   stroke-width="0.35"
   stroke-linecap="butt"
   stroke-linejoin="miter"
   fill="none"
   transform="scale(1,-1)"
  >
<path id= "1" d=" M 5.1163 2.81961 L 2.71213 4.20765 " />
<path id= "2" d=" M 0.116295 -5.84065 L -2.28787 -4.4526 " />
<path id= "3" d=" M -3.3234 -1.91877 L -3.3234 -2.16372 " />
<path id= "4" d=" M 9.32587e-15 3.83753 L 0.212132 3.96001 " />
<path id= "5" d=" M 2.82843 -5.47053 L 2.6163 -5.593 " />
<path id= "6" d=" M 1.32071 2.12424 L 1.25 2.16506 " />
<path id= "7" d=" M -1.17929 -2.20589 L -1.25 -2.16506 " />
</g>
<g   stroke="rgb(0, 0, 0)"
   stroke-width="0.35"
   stroke-linecap="butt"
   stroke-linejoin="miter"
   fill="none"
   transform="scale(1,-1)"
  >
<path d="M3.74767 1.91877 A5 2.88675 -120 0 0 -2.28787 -4.4526" />
<path d="M-2.28787 -4.4526 A5 2.88675 -120 0 0 -3.3234 -2.16372" />
<path d="M0.212132 3.96001 A5 2.88675 -120 0 0 2.71213 4.20765" />
<path d="M2.71213 4.20765 A5 2.88675 -120 0 0 3.74767 1.91877" />
<path d="M6.15183 0.530723 A5 2.88675 -120 0 0 2.6163 -5.593" />
<path d="M2.6163 -5.593 A5 2.88675 -120 0 0 0.116295 -5.84065" />
<path d="M-0.777817 -4.61321 A5 2.88675 -120 0 0 -0.869431 -4.20585" />
<path d="M-0.495426 -1.36896 A5 2.88675 -120 0 0 0.937845 1.11353" />
<path d="M3.20766 2.85588 A5 2.88675 -120 0 0 3.60624 2.98021" />
<path d="M5.1163 2.81961 A5 2.88675 -120 0 0 6.15183 0.530723" />
<path d="M3.3234 1.91877 A4.7 2.71355 -120 0 0 -3.3234 -1.91877" />
<path d="M-3.3234 -1.91877 A4.7 2.71355 -120 0 0 1.13243e-14 3.83753" />
<path d="M1.13243e-14 3.83753 A4.7 2.71355 -120 0 0 3.3234 1.91877" />
<path id= "14" d=" M 6.15183 0.530723 L 6.15183 0.285774 " />
<path d="M6.15183 0.285774 A4.7 2.71355 -120 0 0 2.82843 -5.47053" />
<path d="M-0.379234 -4.48887 A4.7 2.71355 -120 0 0 -0.462619 -4.06727" />
<path d="M0.0142377 -1.21641 A4.7 2.71355 -120 0 0 1.06056 0.595877" />
<path d="M3.29105 2.43427 A4.7 2.71355 -120 0 0 3.69786 2.57286" />
<path d="M2.82843 1.63299 A4 2.3094 -120 0 0 -2 -3.4641" />
<path d="M-2 -3.4641 A4 2.3094 -120 1 0 2 3.4641" />
<path d="M2 3.4641 A4 2.3094 -120 0 0 2.82843 1.63299" />
<path d="M0.153376 -4.23832 A4 2.3094 -120 0 0 0.0435962 -3.81203" />
<path d="M3.32312 1.86826 A4 2.3094 -120 0 0 3.74718 1.98633" />
<path d="M-1.96433 -3.48397 A4 2.3094 -120 0 0 2.03504 3.44315" />
<path d="M0.107611 -4.26352 A4 2.3094 -120 0 0 -0.0135705 -3.84534" />
<path d="M3.32337 1.93442 A4 2.3094 -120 0 0 3.74612 2.03856" />
<path d="M1.83848 0.979796 A2.5 1.44338 -120 0 0 -1.17929 -2.20589" />
<path d="M1.32071 2.12424 A2.5 1.44338 -120 0 0 1.83848 0.979796" />
<path d="M1.20624 -3.4663 A2.5 1.44338 -120 0 0 1.03583 -3.04834" />
<path d="M1.76777 1.02062 A2.5 1.44338 -120 0 0 -1.25 -2.16506" />
<path d="M-1.25 -2.16506 A2.5 1.44338 -120 1 0 1.25 2.16506" />
<path d="M1.25 2.16506 A2.5 1.44338 -120 0 0 1.76777 1.02062" />
<path d="M1.23607 -3.43883 A2.5 1.44338 -120 0 0 1.08836 -2.99756" />
<path d="M1.06066 0.612372 A1.5 0.866025 -120 0 0 -0.75 -1.29904" />
<path d="M-0.75 -1.29904 A1.5 0.866025 -120 1 0 0.75 1.29904" />
<path d="M0.75 1.29904 A1.5 0.866025 -120 0 0 1.06066 0.612372" />
</g>
</g>



</svg>

