<?xml version="1.0" encoding="UTF-8"?>

<svg xmlns="http://www.w3.org/2000/svg" version="1.1"
	width="297mm"
	height="210mm"
	viewBox="0 0 297 210">
	<!-- Working space 0 0 297 210 -->
	<defs>
		<radialGradient
			id="radialGradient3661"
			gradientUnits="userSpaceOnUse"
			cy="29.149"
			cx="282.65"
			gradientTransform="matrix(.14777 .23089 -.24680 .15795 -26.318 -62.617)"
			r="19.571">
				<stop stop-color="#71b2f8" offset="0"/>
				<stop stop-color="#002795" offset="1"/>
		</radialGradient>
		<radialGradient
			id="radialGradient3817"
			gradientUnits="userSpaceOnUse"
			cy="33.9"
			cx="270.58"
			gradientTransform="matrix(.26631 .065024 -.17931 .73438 -60.668 -36.938)"
			r="19.571">
				<stop stop-color="#ff6d0f" offset="0"/>
				<stop stop-color="#ff1000" offset="1"/>
		</radialGradient>
	</defs>
	<!-- Set display:none to hide FreeCAD Logo -->
	<g
		style="display:inline"
		id="freecad-logo"
		transform="translate(271, 185) scale(1)"
		fill-rule="evenodd"
		stroke-width=".45621">
		<path d="m0.22811 0.22835v13.256h2.9558v-5.1876h2.09v-2.0452h-2.09v-2.2075h5.1486v-3.8087l-8.1044-0.0075z"
			stroke="#370700"
			fill="url(#radialGradient3817)"/>
		<path d="m13.386 4.1792-1.7193 0.98645-0.75925-0.26348-0.72439-1.8513-1.1395 0.05988-0.51976 1.9144-0.72743 0.34835-1.8143-0.79367-0.76632 0.85156 0.98645 1.7193-0.26957 0.75702-1.8513 0.72439 0.065967 1.1417 1.9144 0.51976 0.34835 0.72743-0.79976 1.8121 0.85156 0.76632 1.7193-0.98645 0.76311 0.27179 0.7183 1.8491 1.1478-0.06375 0.51367-1.9166 0.72743-0.34835 1.8182 0.80198 0.76632-0.85156-0.98645-1.7193 0.2657-0.76533 1.8491-0.7183-0.05766-1.1456-1.9166-0.51367-0.34835-0.72743 0.7959-1.8204-0.85156-0.76632zm-2.5751 2.8195 0.35295 0.20478 0.30579 0.27725 0.24481 0.33087 0.17611 0.36787 0.10354 0.39656 0.01715 0.4064-0.0587 0.4063-0.13396 0.38571-0.2131 0.35681-0.26894 0.30192-0.33087 0.24481-0.36787 0.17611-0.39656 0.10354-0.40863 0.02325-0.4063-0.0587-0.38571-0.13396-0.35681-0.2131-0.2997-0.27503-0.24703-0.32478-0.17611-0.36787-0.10132-0.40264-0.02324-0.40863 0.05869-0.4063 0.13396-0.38571 0.21087-0.35072 0.27116-0.30801 0.33087-0.24481 0.36787-0.17611 0.40264-0.10132 0.40641-0.01715 0.4063 0.05869 0.38571 0.13396z" 
		stroke="#000137"
		fill="url(#radialGradient3661)"/>
	</g>
<g id="Ortho_0_0"
   transform="rotate(-90,82.3144,146.667) translate(82.3144,146.667) scale(1,1)"
  >
<g   stroke="rgb(0, 0, 0)"
   stroke-width="0.35"
   stroke-linecap="butt"
   stroke-linejoin="miter"
   fill="none"
   transform="scale(1,-1)"
  >
<path id= "1" d=" M -3.7 -5 L -0.3 -5 " />
<path id= "2" d=" M -3.7 5 L -0.3 5 " />
<path id= "3" d=" M 3.9968e-15 4.7 L -0.3 5 " />
<path id= "4" d=" M -3.55271e-15 -4.7 L -0.3 -5 " />
<path id= "5" d=" M -4 4.7 L -3.7 5 " />
<path id= "6" d=" M -4 -4.7 L -3.7 -5 " />
<path id= "7" d=" M -0.3 -1.5 L -0.1 -1.5 " />
<path id= "8" d=" M -0.3 1.5 L -0.1 1.5 " />
</g>
<g   stroke="rgb(0, 0, 0)"
   stroke-width="0.35"
   stroke-linecap="butt"
   stroke-linejoin="miter"
   fill="none"
   transform="scale(1,-1)"
  >
<path d="M-0.3,2.66454e-16 L-0.3,0.559822  L-0.3,1.1126  L-0.3,1.6514  L-0.3,2.16942  L-0.3,2.66016  L-0.3,3.11745  L-0.3,3.53553  L-0.3,3.90916  L-0.3,4.23362  L-0.3,4.50484  L-0.3,4.71942  L-0.3,4.87464  L-0.3,4.96856  L-0.3,5 " /><path d="M-0.3,-5 L-0.3,-4.96856  L-0.3,-4.87464  L-0.3,-4.71942  L-0.3,-4.50484  L-0.3,-4.23362  L-0.3,-3.90916  L-0.3,-3.53553  L-0.3,-3.11745  L-0.3,-2.66016  L-0.3,-2.16942  L-0.3,-1.6514  L-0.3,-1.1126  L-0.3,-0.559822  L-0.3,1.68054e-14 " /><path d="M-3.7,2.39808e-15 L-3.7,0.559822  L-3.7,1.1126  L-3.7,1.6514  L-3.7,2.16942  L-3.7,2.66016  L-3.7,3.11745  L-3.7,3.53553  L-3.7,3.90916  L-3.7,4.23362  L-3.7,4.50484  L-3.7,4.71942  L-3.7,4.87464  L-3.7,4.96856  L-3.7,5 " /><path d="M-3.7,-5 L-3.7,-4.96856  L-3.7,-4.87464  L-3.7,-4.71942  L-3.7,-4.50484  L-3.7,-4.23362  L-3.7,-3.90916  L-3.7,-3.53553  L-3.7,-3.11745  L-3.7,-2.66016  L-3.7,-2.16942  L-3.7,-1.6514  L-3.7,-1.1126  L-3.7,-0.559822  L-3.7,1.8937e-14 " /><path d="M-2.05816e-47,-2.31728e-32 L4.67389e-16,0.526233  L9.289e-16,1.04585  L1.37873e-15,1.55231  L1.81122e-15,2.03925  L2.22094e-15,2.50055  L2.60272e-15,2.9304  L2.95177e-15,3.3234  L3.26371e-15,3.67461  L3.5346e-15,3.9796  L3.76104e-15,4.23455  L3.94018e-15,4.43625  L4.06978e-15,4.58216  L4.14819e-15,4.67045  L4.17444e-15,4.7 " /><path d="M-4.17444e-15,-4.7 L-4.14819e-15,-4.67045  L-4.06978e-15,-4.58216  L-3.94018e-15,-4.43625  L-3.76104e-15,-4.23455  L-3.5346e-15,-3.9796  L-3.26371e-15,-3.67461  L-2.95177e-15,-3.3234  L-2.60272e-15,-2.9304  L-2.22094e-15,-2.50055  L-1.81122e-15,-2.03925  L-1.37873e-15,-1.55231  L-9.289e-16,-1.04585  L-4.67389e-16,-0.526233  L1.38081e-29,1.55466e-14 " /><path d="M-4,2.71783e-15 L-4,0.526233  L-4,1.04585  L-4,1.55231  L-4,2.03925  L-4,2.50055  L-4,2.9304  L-4,3.3234  L-4,3.67461  L-4,3.9796  L-4,4.23455  L-4,4.43625  L-4,4.58216  L-4,4.67045  L-4,4.7 " /><path d="M-4,-4.7 L-4,-4.67045  L-4,-4.58216  L-4,-4.43625  L-4,-4.23455  L-4,-3.9796  L-4,-3.67461  L-4,-3.3234  L-4,-2.9304  L-4,-2.50055  L-4,-2.03925  L-4,-1.55231  L-4,-1.04585  L-4,-0.526233  L-4,1.82644e-14 " /></g>
</g>



<g id="Ortho_0_1"
   transform="rotate(90,82.3144,73.3333) translate(82.3144,73.3333) scale(1,1)"
  >
<g   stroke="rgb(0, 0, 0)"
   stroke-width="0.35"
   stroke-linecap="butt"
   stroke-linejoin="miter"
   fill="none"
   transform="scale(1,-1)"
  >
<circle cx ="0" cy ="-2.66454e-16" r ="5" /><circle cx ="0" cy ="0" r ="4.7" /><circle cx ="0" cy ="0" r ="4" /><circle cx ="0" cy ="0" r ="2.5" /><circle cx ="0" cy ="0" r ="1.5" /></g>
</g>



<g id="Ortho_1_0"
   transform="rotate(-90,214.629,146.667) translate(214.629,146.667) scale(1,1)"
  >
<g   stroke="rgb(0, 0, 0)"
   stroke-width="0.35"
   stroke-linecap="butt"
   stroke-linejoin="miter"
   fill="none"
   transform="scale(1,-1)"
  >
<path id= "1" d=" M -3.7 -5 L -0.3 -5 " />
<path id= "2" d=" M -4.44089e-16 -4.7 L -0.3 -5 " />
<path id= "3" d=" M -4 -4.7 L -3.7 -5 " />
<path id= "4" d=" M -0.3 -1.5 L -0.1 -1.5 " />
</g>
<g   stroke="rgb(0, 0, 0)"
   stroke-width="0.35"
   stroke-linecap="butt"
   stroke-linejoin="miter"
   fill="none"
   transform="scale(1,-1)"
  >
<path id= "1" d=" M -0.3 5 L -3.7 5 " />
<path d="M-0.3,-5 L-0.3,-4.87464  L-0.3,-4.50484  L-0.3,-3.90916  L-0.3,-3.11745  L-0.3,-2.16942  L-0.3,-1.1126  L-0.3,7.9633e-15  L-0.3,1.1126  L-0.3,2.16942  L-0.3,3.11745  L-0.3,3.90916  L-0.3,4.50484  L-0.3,4.87464  L-0.3,5 " /><path d="M-3.7,-5 L-3.7,-4.87464  L-3.7,-4.50484  L-3.7,-3.90916  L-3.7,-3.11745  L-3.7,-2.16942  L-3.7,-1.1126  L-3.7,7.07512e-15  L-3.7,1.1126  L-3.7,2.16942  L-3.7,3.11745  L-3.7,3.90916  L-3.7,4.50484  L-3.7,4.87464  L-3.7,5 " /><path id= "4" d=" M -0.3 5 L 1.11022e-16 4.7 " />
<path d="M4.21887e-30,-4.7 L-9.289e-16,-4.58216  L-1.81122e-15,-4.23455  L-2.60272e-15,-3.67461  L-3.26371e-15,-2.9304  L-3.76104e-15,-2.03925  L-4.06978e-15,-1.04585  L-4.17444e-15,3.31106e-15  L-4.06978e-15,1.04585  L-3.76104e-15,2.03925  L-3.26371e-15,2.9304  L-2.60272e-15,3.67461  L-1.81122e-15,4.23455  L-9.289e-16,4.58216  L1.38081e-29,4.7 " /><path id= "6" d=" M -3.7 5 L -4 4.7 " />
<path d="M-4,-4.7 L-4,-4.58216  L-4,-4.23455  L-4,-3.67461  L-4,-2.9304  L-4,-2.03925  L-4,-1.04585  L-4,6.65061e-15  L-4,1.04585  L-4,2.03925  L-4,2.9304  L-4,3.67461  L-4,4.23455  L-4,4.58216  L-4,4.7 " /><path id= "8" d=" M -0.1 1.5 L -0.3 1.5 " />
</g>
</g>



</svg>

