<?xml version="1.0" encoding="UTF-8"?>

<svg xmlns="http://www.w3.org/2000/svg" version="1.1"
	width="297mm"
	height="210mm"
	viewBox="0 0 297 210">
	<!-- Working space 0 0 297 210 -->
	<defs>
		<radialGradient
			id="radialGradient3661"
			gradientUnits="userSpaceOnUse"
			cy="29.149"
			cx="282.65"
			gradientTransform="matrix(.14777 .23089 -.24680 .15795 -26.318 -62.617)"
			r="19.571">
				<stop stop-color="#71b2f8" offset="0"/>
				<stop stop-color="#002795" offset="1"/>
		</radialGradient>
		<radialGradient
			id="radialGradient3817"
			gradientUnits="userSpaceOnUse"
			cy="33.9"
			cx="270.58"
			gradientTransform="matrix(.26631 .065024 -.17931 .73438 -60.668 -36.938)"
			r="19.571">
				<stop stop-color="#ff6d0f" offset="0"/>
				<stop stop-color="#ff1000" offset="1"/>
		</radialGradient>
	</defs>
	<!-- Set display:none to hide FreeCAD Logo -->
	<g
		style="display:inline"
		id="freecad-logo"
		transform="translate(271, 185) scale(1)"
		fill-rule="evenodd"
		stroke-width=".45621">
		<path d="m0.22811 0.22835v13.256h2.9558v-5.1876h2.09v-2.0452h-2.09v-2.2075h5.1486v-3.8087l-8.1044-0.0075z"
			stroke="#370700"
			fill="url(#radialGradient3817)"/>
		<path d="m13.386 4.1792-1.7193 0.98645-0.75925-0.26348-0.72439-1.8513-1.1395 0.05988-0.51976 1.9144-0.72743 0.34835-1.8143-0.79367-0.76632 0.85156 0.98645 1.7193-0.26957 0.75702-1.8513 0.72439 0.065967 1.1417 1.9144 0.51976 0.34835 0.72743-0.79976 1.8121 0.85156 0.76632 1.7193-0.98645 0.76311 0.27179 0.7183 1.8491 1.1478-0.06375 0.51367-1.9166 0.72743-0.34835 1.8182 0.80198 0.76632-0.85156-0.98645-1.7193 0.2657-0.76533 1.8491-0.7183-0.05766-1.1456-1.9166-0.51367-0.34835-0.72743 0.7959-1.8204-0.85156-0.76632zm-2.5751 2.8195 0.35295 0.20478 0.30579 0.27725 0.24481 0.33087 0.17611 0.36787 0.10354 0.39656 0.01715 0.4064-0.0587 0.4063-0.13396 0.38571-0.2131 0.35681-0.26894 0.30192-0.33087 0.24481-0.36787 0.17611-0.39656 0.10354-0.40863 0.02325-0.4063-0.0587-0.38571-0.13396-0.35681-0.2131-0.2997-0.27503-0.24703-0.32478-0.17611-0.36787-0.10132-0.40264-0.02324-0.40863 0.05869-0.4063 0.13396-0.38571 0.21087-0.35072 0.27116-0.30801 0.33087-0.24481 0.36787-0.17611 0.40264-0.10132 0.40641-0.01715 0.4063 0.05869 0.38571 0.13396z" 
		stroke="#000137"
		fill="url(#radialGradient3661)"/>
	</g>
<g id="Ortho_0_0"
   transform="rotate(-90,104.023,174.967) translate(104.023,174.967) scale(1,1)"
  >
<g   stroke="rgb(0, 0, 0)"
   stroke-width="0.35"
   stroke-linecap="butt"
   stroke-linejoin="miter"
   fill="none"
   transform="scale(1,-1)"
  >
<path id= "1" d=" M 12.4346 28.8324 L 12.4515 28.8324 " />
<path id= "2" d=" M 12.4515 28.8324 L 15 35.3735 " />
<path id= "3" d=" M 15 35.3956 L 15 35.3735 " />
<path id= "4" d=" M 14.8958 35.3956 L 15 35.3956 " />
<path id= "5" d=" M 15 44.5735 L 15 35.6735 " />
<path id= "6" d=" M 15 35.6735 L 15 35.3956 " />
<path id= "7" d=" M 0 44.5735 L 0 6.32348 " />
<path id= "8" d=" M 0 6.32348 L 0 2.07348 " />
<path id= "9" d=" M 0 44.5735 L 15 44.5735 " />
<path d="M7.5,44.5735 L7.72393,44.5735  L7.94504,44.5735  L8.16056,44.5735  L8.36777,44.5735  L8.56406,44.5735  L8.74698,44.5735  L8.91421,44.5735  L9.06366,44.5735  L9.19345,44.5735  L9.30194,44.5735  L9.38777,44.5735  L9.44986,44.5735  L9.48742,44.5735  L9.5,44.5735 " /><path d="M5.5,44.5735 L5.51258,44.5735  L5.55014,44.5735  L5.61223,44.5735  L5.69806,44.5735  L5.80655,44.5735  L5.93634,44.5735  L6.08579,44.5735  L6.25302,44.5735  L6.43594,44.5735  L6.63223,44.5735  L6.83944,44.5735  L7.05496,44.5735  L7.27607,44.5735  L7.5,44.5735 " /><path d="M10.5,44.5735 L10.8359,44.5735  L11.1676,44.5735  L11.4908,44.5735  L11.8017,44.5735  L12.0961,44.5735  L12.3705,44.5735  L12.6213,44.5735  L12.8455,44.5735  L13.0402,44.5735  L13.2029,44.5735  L13.3316,44.5735  L13.4248,44.5735  L13.4811,44.5735  L13.5,44.5735 " /><path id= "13" d=" M 0 6.32348 L 12 6.32348 " />
<path id= "14" d=" M 12 27.6735 L 12 6.32348 " />
<path id= "15" d=" M 12 27.6746 L 12 27.6735 " />
<path id= "16" d=" M 12 27.6746 L 12.0004 27.6746 " />
<path id= "17" d=" M 15 35.6735 L 12.0004 27.6746 " />
<circle cx ="5.9" cy ="20.9235" r ="2.1" /><path id= "19" d=" M 12 4.57348 L 5 4.57348 " />
<path id= "20" d=" M 0 2.07348 L 5 2.07348 " />
<path id= "21" d=" M 5 2.07348 L 5 4.57348 " />
<path id= "22" d=" M 12 6.32348 L 12 4.57348 " />
<path id= "23" d=" M 14 2.07348 L 5 2.07348 " />
<path id= "24" d=" M 1.71855 2.07348 L 4.5976 2.07348 " />
<path id= "25" d=" M 12.6 2.07348 L 11.7803 2.07348 " />
<path d="M9.49866,2.07348 L9.42542,2.07348  L9.20939,2.07348  L8.86139,2.07348  L8.39888,2.07348  L7.84505,2.07348  L7.22766,2.07348  L6.57768,2.07348  L5.9277,2.07348  L5.31032,2.07348  L4.75648,2.07348  L4.29397,2.07348  L3.94598,2.07348  L3.72994,2.07348  L3.65671,2.07348 " /><path id= "27" d=" M 14 15.0735 L 12 15.0735 " />
<path id= "28" d=" M 5 2.07348 L 5 4.57348 " />
<path id= "29" d=" M 14 2.07348 L 14 15.0735 " />
</g>
</g>



<g id="Ortho_0_1"
   transform="rotate(90,104.023,40.0612) translate(104.023,40.0612) scale(1,1)"
  >
<g   stroke="rgb(0, 0, 0)"
   stroke-width="0.35"
   stroke-linecap="butt"
   stroke-linejoin="miter"
   fill="none"
   transform="scale(1,-1)"
  >
<path id= "1" d=" M 36.3986 -28.8324 L 41.5986 -28.8324 " />
<path d="M37.7598,-28.8324 L37.7912,-28.8324  L37.8836,-28.8324  L38.0325,-28.8324  L38.2305,-28.8324  L38.4675,-28.8324  L38.7317,-28.8324  L39.0098,-28.8324  L39.288,-28.8324  L39.5522,-28.8324  L39.7892,-28.8324  L39.9871,-28.8324  L40.136,-28.8324  L40.2285,-28.8324  L40.2598,-28.8324 " /><path id= "3" d=" M 33.6221 -35.3324 L 36.3986 -28.8324 " />
<path id= "4" d=" M 41.5986 -28.8324 L 44.2133 -35.3735 " />
<path id= "5" d=" M 33.6221 -35.3324 L 27.2793 -35.3735 " />
<path id= "6" d=" M 44.2133 -35.3735 L 27.2793 -35.3735 " />
<path id= "7" d=" M 44.2221 -35.3956 L 44.2133 -35.3735 " />
<path id= "8" d=" M 11.8221 -35.4735 L 27.2793 -35.3735 " />
<path id= "9" d=" M 11.8221 -35.4735 L 11.8221 -39.5735 " />
<path id= "10" d=" M 11.8221 -39.5735 L 16.8221 -44.5735 " />
<path id= "11" d=" M 16.8221 -44.5735 L 60.5221 -44.5735 " />
<path id= "12" d=" M 60.5221 -44.5735 L 60.5221 -35.6735 " />
<path id= "13" d=" M 60.5221 -35.6735 L 53.5221 -35.6735 " />
<path id= "14" d=" M 53.5221 -35.6735 L 44.2221 -35.3956 " />
<circle cx ="17.5221" cy ="-39.5735" r ="2" /><circle cx ="48.5221" cy ="-39.5735" r ="2" /><path d="M28.2221,-44.5735 L28.172,-44.5735  L28.0241,-44.5735  L27.7858,-44.5735  L27.4691,-44.5735  L27.0899,-44.5735  L26.6672,-44.5735  L26.2221,-44.5735  L25.7771,-44.5735  L25.3544,-44.5735  L24.9752,-44.5735  L24.6585,-44.5735  L24.4202,-44.5735  L24.2723,-44.5735  L24.2221,-44.5735 " /><path d="M57.5221,-44.5735 L57.472,-44.5735  L57.3241,-44.5735  L57.0858,-44.5735  L56.7691,-44.5735  L56.3899,-44.5735  L55.9672,-44.5735  L55.5221,-44.5735  L55.0771,-44.5735  L54.6544,-44.5735  L54.2752,-44.5735  L53.9585,-44.5735  L53.7202,-44.5735  L53.5723,-44.5735  L53.5221,-44.5735 " /><path d="M42.0098,-44.5735 L41.9346,-44.5735  L41.7127,-44.5735  L41.3553,-44.5735  L40.8803,-44.5735  L40.3115,-44.5735  L39.6774,-44.5735  L39.0098,-44.5735  L38.3423,-44.5735  L37.7082,-44.5735  L37.1393,-44.5735  L36.6643,-44.5735  L36.3069,-44.5735  L36.085,-44.5735  L36.0098,-44.5735 " /><path id= "20" d=" M 60.5221 -27.6735 L 60.5221 -6.32348 " />
<path id= "21" d=" M 60.5221 -27.6746 L 60.5221 -27.6735 " />
<path id= "22" d=" M 60.5221 -35.6735 L 60.5221 -27.6746 " />
<path id= "23" d=" M 60.5221 -27.6746 L 53.5221 -27.6746 " />
<path id= "24" d=" M 53.5221 -35.6735 L 53.5221 -27.6746 " />
<path id= "25" d=" M 53.5221 -4.57348 L 53.5221 -6.32348 " />
<path id= "26" d=" M 53.5221 -27.6735 L 53.5221 -6.32348 " />
<path id= "27" d=" M 53.5221 -27.6746 L 53.5221 -27.6735 " />
<path d="M53.5221,-18.8235 L53.5221,-18.8761  L53.5221,-19.0314  L53.5221,-19.2816  L53.5221,-19.6142  L53.5221,-20.0123  L53.5221,-20.4562  L53.5221,-20.9235  L53.5221,-21.3908  L53.5221,-21.8346  L53.5221,-22.2328  L53.5221,-22.5653  L53.5221,-22.8155  L53.5221,-22.9708  L53.5221,-23.0235 " /><path id= "29" d=" M 43.5221 -2.07348 L 53.5221 -4.57348 " />
<path id= "30" d=" M 60.5221 -6.32348 L 53.5221 -4.57348 " />
<path id= "31" d=" M 17.0221 -2.07348 L 43.5221 -2.07348 " />
<path d="M23.1987,-2.07348 L23.0664,-2.07348  L22.9368,-2.07348  L22.8108,-2.07348  L22.6891,-2.07348  L22.5724,-2.07348  L22.4615,-2.07348  L22.357,-2.07348  L22.2595,-2.07348  L22.1697,-2.07348  L22.088,-2.07348  L22.015,-2.07348  L21.9511,-2.07348  L21.8967,-2.07348  L21.8521,-2.07348 " /><path d="M21.7761,-2.07348 L21.7765,-2.07348  L21.7777,-2.07348  L21.7796,-2.07348  L21.7824,-2.07348  L21.7859,-2.07348  L21.7902,-2.07348  L21.7952,-2.07348  L21.8011,-2.07348  L21.8077,-2.07348  L21.815,-2.07348  L21.8232,-2.07348  L21.8321,-2.07348  L21.8417,-2.07348  L21.8521,-2.07348 " /><path id= "34" d=" M 20.6051 -2.07348 L 18.5221 -2.07348 " />
<path id= "35" d=" M 21.8781 -2.07348 L 23.1987 -2.07348 " />
<path d="M23.1987,-2.07348 L23.5492,-2.07348  L23.8994,-2.07348  L24.2441,-2.07348  L24.5785,-2.07348  L24.8977,-2.07348  L25.1971,-2.07348  L25.4724,-2.07348  L25.7196,-2.07348  L25.9351,-2.07348  L26.1158,-2.07348  L26.2592,-2.07348  L26.3631,-2.07348  L26.426,-2.07348  L26.4471,-2.07348 " /><path d="M21.7761,-2.07348 L21.6288,-2.07348  L21.4893,-2.07348  L21.3584,-2.07348  L21.2365,-2.07348  L21.1241,-2.07348  L21.0218,-2.07348  L20.93,-2.07348  L20.8489,-2.07348  L20.7791,-2.07348  L20.7207,-2.07348  L20.674,-2.07348  L20.6393,-2.07348  L20.6165,-2.07348  L20.606,-2.07348 " /><path d="M20.6051,-2.07348 L20.6052,-2.07348  L20.6052,-2.07348  L20.6052,-2.07348  L20.6052,-2.07348  L20.6053,-2.07348  L20.6053,-2.07348  L20.6054,-2.07348  L20.6054,-2.07348  L20.6055,-2.07348  L20.6056,-2.07348  L20.6057,-2.07348  L20.6058,-2.07348  L20.6059,-2.07348  L20.606,-2.07348 " /><path id= "39" d=" M 12.0221 -7.07348 L 17.0221 -2.07348 " />
<path id= "40" d=" M 12.0221 -10.0735 L 12.0221 -7.07348 " />
<path id= "41" d=" M 17.0221 -15.0735 L 12.0221 -10.0735 " />
<path id= "42" d=" M 43.5221 -15.0735 L 17.0221 -15.0735 " />
<path id= "43" d=" M 43.5221 -15.0735 L 53.5221 -15.0735 " />
<circle cx ="48.5221" cy ="-8.57348" r ="2" /><circle cx ="17.5221" cy ="-8.57348" r ="2" /><path id= "46" d=" M 60.5221 -27.6746 L 53.5221 -27.6746 " />
<path id= "47" d=" M 43.5221 -2.07348 L 43.5221 -15.0735 " />
<path id= "48" d=" M 43.5221 -2.07348 L 43.5221 -15.0735 " />
<circle cx ="17.5221" cy ="-8.57348" r ="3" /></g>
</g>



<g id="Ortho_1_0"
   transform="rotate(-90,246.272,174.967) translate(246.272,174.967) scale(1,1)"
  >
<g   stroke="rgb(0, 0, 0)"
   stroke-width="0.35"
   stroke-linecap="butt"
   stroke-linejoin="miter"
   fill="none"
   transform="scale(1,-1)"
  >
<path id= "1" d=" M 14 33.6221 L 14.984 33.6221 " />
<path id= "2" d=" M 14.984 33.6221 L 14 34.7009 " />
<path id= "3" d=" M 14 43.1873 L 15 44.2133 " />
<path id= "4" d=" M 14.984 33.6221 L 15 27.2793 " />
<path id= "5" d=" M 15 44.2133 L 15 27.2793 " />
<path id= "6" d=" M 15 44.2221 L 15 44.2133 " />
<path id= "7" d=" M 6 44.2221 L 15 44.2221 " />
<path id= "8" d=" M 6 43.5221 L 6 44.2221 " />
<path id= "9" d=" M 0 11.8221 L 0 12.0221 " />
<path id= "10" d=" M 15 11.8221 L 15 27.2793 " />
<path id= "11" d=" M 0 11.8221 L 15 11.8221 " />
<path id= "12" d=" M 15 60.5221 L 15 53.5221 " />
<path id= "13" d=" M 15 53.5221 L 15 44.2221 " />
<path id= "14" d=" M 5 44.2221 L 6 44.2221 " />
<path id= "15" d=" M 0 60.5221 L 0 43.5221 " />
<path id= "16" d=" M 0 43.5221 L 0 17.0221 " />
<path id= "17" d=" M 0 17.0221 L 0 12.0221 " />
<path id= "18" d=" M 0 60.5221 L 12 60.5221 " />
<path id= "19" d=" M 12 60.5221 L 12.0004 60.5221 " />
<path id= "20" d=" M 15 60.5221 L 12.0004 60.5221 " />
<path id= "21" d=" M 12.0004 60.5221 L 12.0004 53.5221 " />
<path id= "22" d=" M 15 53.5221 L 12.0004 53.5221 " />
<path id= "23" d=" M 12 53.5221 L 5 53.5221 " />
<path id= "24" d=" M 12 53.5221 L 12.0004 53.5221 " />
<path d="M5.9,53.5221 L6.13513,53.5221  L6.36729,53.5221  L6.59359,53.5221  L6.81116,53.5221  L7.01727,53.5221  L7.20933,53.5221  L7.38492,53.5221  L7.54185,53.5221  L7.67812,53.5221  L7.79203,53.5221  L7.88215,53.5221  L7.94735,53.5221  L7.9868,53.5221  L8,53.5221 " /><path d="M5,53.5221 L5.06047,53.5221  L5.12177,53.5221  L5.18386,53.5221  L5.24666,53.5221  L5.31012,53.5221  L5.37416,53.5221  L5.43874,53.5221  L5.50377,53.5221  L5.5692,53.5221  L5.63496,53.5221  L5.70099,53.5221  L5.76722,53.5221  L5.83357,53.5221  L5.9,53.5221 " /><path id= "27" d=" M 0 43.5221 L 5 43.5221 " />
<path id= "28" d=" M 5 43.5221 L 5 53.5221 " />
<path id= "29" d=" M 12 60.5221 L 12 53.5221 " />
<path id= "30" d=" M 0 17.0221 L 14 17.0221 " />
<path id= "31" d=" M 14 43.5221 L 5 43.5221 " />
<path id= "32" d=" M 14 17.0221 L 14 43.5221 " />
<path id= "33" d=" M 8.30107 21.8521 L 7.08778 21.8521 " />
<path d="M8.30107 23.2221 A1.75 1.75 0 1 1 7.08778 21.8521" /><path id= "35" d=" M 8.30107 21.8521 L 8.30107 23.2221 " />
<path id= "36" d=" M 11.1957 20.606 L 10.1976 18.5221 " />
<path id= "37" d=" M 4.5976 18.5221 L 10.1976 18.5221 " />
<path id= "38" d=" M 1.71855 23.5921 L 4.5976 18.5221 " />
<path id= "39" d=" M 4.5976 28.6507 L 1.71855 23.5921 " />
<path id= "40" d=" M 10.1976 28.6507 L 4.5976 28.6507 " />
<path id= "41" d=" M 12.6 23.5921 L 10.1976 28.6507 " />
<path id= "42" d=" M 12.6 23.5921 L 11.7803 21.8781 " />
<path id= "43" d=" M 11.7803 21.8781 L 9.48025 21.8781 " />
<path id= "44" d=" M 9.48025 21.8781 L 9.48025 23.1987 " />
<path d="M9.48025 23.1987 A2.92097 2.92097 0 1 1 6.64707 20.606" /><path id= "46" d=" M 11.1957 20.606 L 6.64707 20.606 " />
<path id= "47" d=" M 0 12.0221 L 14 12.0221 " />
<path id= "48" d=" M 14 12.0221 L 14 17.0221 " />
<circle cx ="10.5" cy ="39.0098" r ="1" /></g>
</g>



</svg>

