<?xml version="1.0" encoding="UTF-8"?>

<svg xmlns="http://www.w3.org/2000/svg" version="1.1"
	width="297mm"
	height="210mm"
	viewBox="0 0 297 210">
	<!-- Working space 0 0 297 210 -->
	<defs>
		<radialGradient
			id="radialGradient3661"
			gradientUnits="userSpaceOnUse"
			cy="29.149"
			cx="282.65"
			gradientTransform="matrix(.14777 .23089 -.24680 .15795 -26.318 -62.617)"
			r="19.571">
				<stop stop-color="#71b2f8" offset="0"/>
				<stop stop-color="#002795" offset="1"/>
		</radialGradient>
		<radialGradient
			id="radialGradient3817"
			gradientUnits="userSpaceOnUse"
			cy="33.9"
			cx="270.58"
			gradientTransform="matrix(.26631 .065024 -.17931 .73438 -60.668 -36.938)"
			r="19.571">
				<stop stop-color="#ff6d0f" offset="0"/>
				<stop stop-color="#ff1000" offset="1"/>
		</radialGradient>
	</defs>
	<!-- Set display:none to hide FreeCAD Logo -->
	<g
		style="display:inline"
		id="freecad-logo"
		transform="translate(271, 185) scale(1)"
		fill-rule="evenodd"
		stroke-width=".45621">
		<path d="m0.22811 0.22835v13.256h2.9558v-5.1876h2.09v-2.0452h-2.09v-2.2075h5.1486v-3.8087l-8.1044-0.0075z"
			stroke="#370700"
			fill="url(#radialGradient3817)"/>
		<path d="m13.386 4.1792-1.7193 0.98645-0.75925-0.26348-0.72439-1.8513-1.1395 0.05988-0.51976 1.9144-0.72743 0.34835-1.8143-0.79367-0.76632 0.85156 0.98645 1.7193-0.26957 0.75702-1.8513 0.72439 0.065967 1.1417 1.9144 0.51976 0.34835 0.72743-0.79976 1.8121 0.85156 0.76632 1.7193-0.98645 0.76311 0.27179 0.7183 1.8491 1.1478-0.06375 0.51367-1.9166 0.72743-0.34835 1.8182 0.80198 0.76632-0.85156-0.98645-1.7193 0.2657-0.76533 1.8491-0.7183-0.05766-1.1456-1.9166-0.51367-0.34835-0.72743 0.7959-1.8204-0.85156-0.76632zm-2.5751 2.8195 0.35295 0.20478 0.30579 0.27725 0.24481 0.33087 0.17611 0.36787 0.10354 0.39656 0.01715 0.4064-0.0587 0.4063-0.13396 0.38571-0.2131 0.35681-0.26894 0.30192-0.33087 0.24481-0.36787 0.17611-0.39656 0.10354-0.40863 0.02325-0.4063-0.0587-0.38571-0.13396-0.35681-0.2131-0.2997-0.27503-0.24703-0.32478-0.17611-0.36787-0.10132-0.40264-0.02324-0.40863 0.05869-0.4063 0.13396-0.38571 0.21087-0.35072 0.27116-0.30801 0.33087-0.24481 0.36787-0.17611 0.40264-0.10132 0.40641-0.01715 0.4063 0.05869 0.38571 0.13396z" 
		stroke="#000137"
		fill="url(#radialGradient3661)"/>
	</g>
<g id="View"
   transform="rotate(60,139.15,85.365) translate(139.15,85.365) scale(1,1)"
  >
<g   stroke="rgb(0, 0, 0)"
   stroke-width="0.35"
   stroke-linecap="butt"
   stroke-linejoin="miter"
   fill="none"
   transform="scale(1,-1)"
  >
<path id= "1" d=" M 35.3103 -10.7705 L 33.2554 -9.58405 " />
</g>
<g   stroke="rgb(0, 0, 0)"
   stroke-width="0.35"
   stroke-linecap="butt"
   stroke-linejoin="miter"
   fill="none"
   transform="scale(1,-1)"
  >
<path id= "1" d=" M 16.9331 -3.59862 L 20.6101 -1.47573 " />
<path id= "2" d=" M 23.5347 -3.16427 L 20.6101 -1.47573 " />
<path id= "3" d=" M 13.1791 -9.00544 L 16.9331 -3.59862 " />
<path id= "4" d=" M 20.6101 -1.47573 L 20.6569 -4.7086 " />
<path id= "5" d=" M 13.1791 -9.00544 L 8.6828 -11.6219 " />
<path id= "6" d=" M 20.6569 -4.7086 L 8.6828 -11.6219 " />
<path id= "7" d=" M 20.6632 -4.72307 L 20.6569 -4.7086 " />
<path id= "8" d=" M -2.24708 -18.0139 L 8.6828 -11.6219 " />
<path id= "9" d=" M -2.24708 -18.0139 L -2.24708 -21.3615 " />
<path id= "10" d=" M -2.24708 -21.3615 L 1.28845 -23.4028 " />
<path id= "11" d=" M 1.28845 -23.4028 L 32.189 -5.56231 " />
<path id= "12" d=" M 32.189 -5.56231 L 32.189 1.70451 " />
<path id= "13" d=" M 32.189 1.70451 L 27.2393 -1.15323 " />
<path id= "14" d=" M 27.2393 -1.15323 L 20.6632 -4.72307 " />
<path d="M3.19764 -18.218 A2 1.1547 60 0 1 2.78342 -17.3025" />
<path d="M2.78342 -17.3025 A2 1.1547 60 0 1 0.783425 -20.7666" />
<path d="M0.783425 -20.7666 A2 1.1547 60 0 1 3.19764 -18.218" />
<path d="M25.1179 -5.56231 A2 1.1547 60 0 1 24.7037 -4.64676" />
<path d="M24.7037 -4.64676 A2 1.1547 60 0 1 22.7037 -8.11086" />
<path d="M22.7037 -8.11086 A2 1.1547 60 0 1 25.1179 -5.56231" />
<path id= "21" d=" M 11.8951 -29.5265 L 42.7956 -11.686 " />
<path id= "22" d=" M 42.7956 -11.686 L 42.7956 19.545 " />
<path id= "23" d=" M 12.0365 -5.35819 L 18.0387 -1.89278 " />
<path id= "24" d=" M 18.0387 -1.89278 L 20.4025 1.51321 " />
<path id= "25" d=" M 28.6535 4.23565 L 26.2965 4.91606 " />
<path id= "26" d=" M 28.6535 4.23565 L 29.3606 4.6439 " />
<path id= "27" d=" M 11.8951 -29.5265 L 1.28845 -23.4028 " />
<path id= "28" d=" M 42.7956 -11.686 L 32.189 -5.56231 " />
<path d="M14.6528 -21.8106 A2 1.1547 180 0 1 11.2386 -22.6271" />
<path d="M11.2386 -22.6271 A2 1.1547 180 0 1 15.2386 -22.6271" />
<path d="M15.2386 -22.6271 A2 1.1547 180 0 1 14.6528 -21.8106" />
<path d="M35.371 -9.84892 A2 1.1547 180 0 1 31.9568 -10.6654" />
<path d="M31.9568 -10.6654 A2 1.1547 180 0 1 35.9568 -10.6654" />
<path d="M35.9568 -10.6654 A2 1.1547 180 0 1 35.371 -9.84892" />
<path d="M22.2808 -14.9571 A3 1.73205 180 0 1 17.1595 -16.1818" />
<path d="M17.1595 -16.1818 A3 1.73205 180 0 1 23.1595 -16.1818" />
<path d="M23.1595 -16.1818 A3 1.73205 180 0 1 22.2808 -14.9571" />
<path id= "38" d=" M 42.7956 19.545 L 34.3103 24.4439 " />
<path id= "39" d=" M 34.3103 7.01174 L 34.3103 24.4439 " />
<path id= "40" d=" M 34.3103 7.01082 L 34.3103 7.01174 " />
<path id= "41" d=" M 34.3103 7.01082 L 34.31 7.01099 " />
<path id= "42" d=" M 32.189 1.70451 L 34.31 7.01099 " />
<path d="M38.6237 11.7474 A2.1 1.21244 -60 0 1 37.5737 11.8514" />
<path d="M37.5737 11.8514 A2.1 1.21244 -60 0 1 39.6737 8.21412" />
<path d="M39.6737 8.21412 A2.1 1.21244 -60 0 1 38.6237 11.7474" />
<path id= "46" d=" M 34.31 7.01099 L 29.3603 4.15325 " />
<path id= "47" d=" M 27.2393 -1.15323 L 29.3603 4.15325 " />
<path id= "48" d=" M 29.3606 23.0151 L 29.3606 21.5862 " />
<path id= "49" d=" M 29.3606 4.154 L 29.3606 21.5862 " />
<path id= "50" d=" M 29.3606 4.15342 L 29.3606 4.154 " />
<path id= "51" d=" M 27.2393 18.1161 L 29.3606 18.7285 " />
<path id= "52" d=" M 34.3103 24.4439 L 29.3606 23.0151 " />
<path id= "53" d=" M 20.8753 21.7903 L 27.2393 18.1161 " />
<path id= "54" d=" M 2.13698 10.9717 L 20.8753 21.7903 " />
<path id= "55" d=" M -1.39856 4.84802 L 2.13698 10.9717 " />
<path id= "56" d=" M -1.39856 2.39853 L -1.39856 4.84802 " />
<path id= "57" d=" M 12.0365 -5.35819 L 2.13698 0.357289 " />
<path id= "58" d=" M 2.13698 0.357289 L -1.39856 2.39853 " />
<path id= "59" d=" M 20.8753 11.1759 L 2.13698 0.357289 " />
<path id= "60" d=" M 20.8753 11.1759 L 27.2393 7.50163 " />
<path id= "61" d=" M 27.2393 7.50163 L 29.3606 8.72638 " />
<path id= "62" d=" M 28.6535 4.23565 L 26.8857 5.25627 " />
<path id= "63" d=" M 16.271 -0.872163 L 26.8857 5.25627 " />
<path id= "64" d=" M 18.0387 -1.89278 L 16.271 -0.872163 " />
<path d="M19.4524 7.4966 A1 0.57735 -9.73842e-15 0 0 19.1595 7.90485" />
<path d="M19.1595 7.90485 A1 0.57735 -9.73842e-15 0 0 21.1595 7.90485" />
<path d="M21.1595 7.90485 A1 0.57735 -9.73842e-15 0 0 19.4524 7.4966" />
<path d="M29.3606 14.0336 A2 1.1547 60 0 1 29.7748 13.1181" />
<path id= "69" d=" M 27.2393 18.1161 L 27.2393 7.50163 " />
<path id= "70" d=" M 20.8753 21.7903 L 20.8753 11.1759 " />
<path d="M4.61185 7.09339 A3 1.73205 60 0 1 3.99053 8.46672" />
<path d="M3.99053 8.46672 A3 1.73205 60 0 1 0.990531 3.27056" />
<path d="M0.990531 3.27056 A3 1.73205 60 0 1 4.61185 7.09339" />
</g>
</g>



</svg>

