<?xml version="1.0" encoding="UTF-8"?>

<svg xmlns="http://www.w3.org/2000/svg" version="1.1"
	width="297mm"
	height="210mm"
	viewBox="0 0 297 210">
	<!-- Working space 0 0 297 210 -->
	<defs>
		<radialGradient
			id="radialGradient3661"
			gradientUnits="userSpaceOnUse"
			cy="29.149"
			cx="282.65"
			gradientTransform="matrix(.14777 .23089 -.24680 .15795 -26.318 -62.617)"
			r="19.571">
				<stop stop-color="#71b2f8" offset="0"/>
				<stop stop-color="#002795" offset="1"/>
		</radialGradient>
		<radialGradient
			id="radialGradient3817"
			gradientUnits="userSpaceOnUse"
			cy="33.9"
			cx="270.58"
			gradientTransform="matrix(.26631 .065024 -.17931 .73438 -60.668 -36.938)"
			r="19.571">
				<stop stop-color="#ff6d0f" offset="0"/>
				<stop stop-color="#ff1000" offset="1"/>
		</radialGradient>
	</defs>
	<!-- Set display:none to hide FreeCAD Logo -->
	<g
		style="display:inline"
		id="freecad-logo"
		transform="translate(271, 185) scale(1)"
		fill-rule="evenodd"
		stroke-width=".45621">
		<path d="m0.22811 0.22835v13.256h2.9558v-5.1876h2.09v-2.0452h-2.09v-2.2075h5.1486v-3.8087l-8.1044-0.0075z"
			stroke="#370700"
			fill="url(#radialGradient3817)"/>
		<path d="m13.386 4.1792-1.7193 0.98645-0.75925-0.26348-0.72439-1.8513-1.1395 0.05988-0.51976 1.9144-0.72743 0.34835-1.8143-0.79367-0.76632 0.85156 0.98645 1.7193-0.26957 0.75702-1.8513 0.72439 0.065967 1.1417 1.9144 0.51976 0.34835 0.72743-0.79976 1.8121 0.85156 0.76632 1.7193-0.98645 0.76311 0.27179 0.7183 1.8491 1.1478-0.06375 0.51367-1.9166 0.72743-0.34835 1.8182 0.80198 0.76632-0.85156-0.98645-1.7193 0.2657-0.76533 1.8491-0.7183-0.05766-1.1456-1.9166-0.51367-0.34835-0.72743 0.7959-1.8204-0.85156-0.76632zm-2.5751 2.8195 0.35295 0.20478 0.30579 0.27725 0.24481 0.33087 0.17611 0.36787 0.10354 0.39656 0.01715 0.4064-0.0587 0.4063-0.13396 0.38571-0.2131 0.35681-0.26894 0.30192-0.33087 0.24481-0.36787 0.17611-0.39656 0.10354-0.40863 0.02325-0.4063-0.0587-0.38571-0.13396-0.35681-0.2131-0.2997-0.27503-0.24703-0.32478-0.17611-0.36787-0.10132-0.40264-0.02324-0.40863 0.05869-0.4063 0.13396-0.38571 0.21087-0.35072 0.27116-0.30801 0.33087-0.24481 0.36787-0.17611 0.40264-0.10132 0.40641-0.01715 0.4063 0.05869 0.38571 0.13396z" 
		stroke="#000137"
		fill="url(#radialGradient3661)"/>
	</g>
<g id="Ortho_0_0"
   transform="rotate(-90,93.2012,131.621) translate(93.2012,131.621) scale(1,1)"
  >
<g   stroke="rgb(0, 0, 0)"
   stroke-width="0.35"
   stroke-linecap="butt"
   stroke-linejoin="miter"
   fill="none"
   transform="scale(1,-1)"
  >
<path id= "1" d=" M 8.88178e-16 2 L -13.6 2 " />
<path id= "2" d=" M -8.88178e-16 -2 L -13.6 -2 " />
<path id= "3" d=" M -14 1.6 L -13.6 2 " />
<path id= "4" d=" M -14 -1.6 L -13.6 -2 " />
<path id= "5" d=" M 1.77636e-15 3.4 L 0.1 3.5 " />
<path id= "6" d=" M -1.33227e-15 -3.4 L 0.1 -3.5 " />
<path id= "7" d=" M 3.9 3.5 L 0.1 3.5 " />
<path id= "8" d=" M 3.9 -3.5 L 0.1 -3.5 " />
<path id= "9" d=" M 4 3.4 L 3.9 3.5 " />
<path id= "10" d=" M 4 -3.4 L 3.9 -3.5 " />
</g>
<g   stroke="rgb(0, 0, 0)"
   stroke-width="0.35"
   stroke-linecap="butt"
   stroke-linejoin="miter"
   fill="none"
   transform="scale(1,-1)"
  >
<path d="M-13.6,6.03961e-15 L-13.6,0.223929  L-13.6,0.445042  L-13.6,0.660558  L-13.6,0.867767  L-13.6,1.06406  L-13.6,1.24698  L-13.6,1.41421  L-13.6,1.56366  L-13.6,1.69345  L-13.6,1.80194  L-13.6,1.88777  L-13.6,1.94986  L-13.6,1.98742  L-13.6,2 " /><path d="M-13.6,-2 L-13.6,-1.98742  L-13.6,-1.94986  L-13.6,-1.88777  L-13.6,-1.80194  L-13.6,-1.69345  L-13.6,-1.56366  L-13.6,-1.41421  L-13.6,-1.24698  L-13.6,-1.06406  L-13.6,-0.867767  L-13.6,-0.660558  L-13.6,-0.445042  L-13.6,-0.223929  L-13.6,-3.77612e-15 " /><path d="M-14,6.21725e-15 L-14,0.179143  L-14,0.356033  L-14,0.528446  L-14,0.694214  L-14,0.851251  L-14,0.997584  L-14,1.13137  L-14,1.25093  L-14,1.35476  L-14,1.44155  L-14,1.51021  L-14,1.55988  L-14,1.58994  L-14,1.6 " /><path d="M-14,-1.6 L-14,-1.58994  L-14,-1.55988  L-14,-1.51021  L-14,-1.44155  L-14,-1.35476  L-14,-1.25093  L-14,-1.13137  L-14,-0.997584  L-14,-0.851251  L-14,-0.694214  L-14,-0.528446  L-14,-0.356033  L-14,-0.179143  L-14,-1.63534e-15 " /><path d="M-3.83161e-31,-8.62802e-16 L1.69056e-16,0.380679  L3.35985e-16,0.756571  L4.98689e-16,1.12295  L6.55122e-16,1.4752  L8.03317e-16,1.80891  L9.41409e-16,2.11987  L1.06766e-15,2.40416  L1.18049e-15,2.65823  L1.27847e-15,2.87886  L1.36038e-15,3.06329  L1.42517e-15,3.2092  L1.47205e-15,3.31475  L1.50041e-15,3.37862  L1.5099e-15,3.4 " /><path d="M-1.5099e-15,-3.4 L-1.50041e-15,-3.37862  L-1.47205e-15,-3.31475  L-1.42517e-15,-3.2092  L-1.36038e-15,-3.06329  L-1.27847e-15,-2.87886  L-1.18049e-15,-2.65823  L-1.06766e-15,-2.40416  L-9.41409e-16,-2.11987  L-8.03317e-16,-1.80891  L-6.55122e-16,-1.4752  L-4.98689e-16,-1.12295  L-3.35985e-16,-0.756571  L-1.69056e-16,-0.380679  L4.99443e-30,1.12465e-14 " /><path d="M0.1,-9.32587e-16 L0.1,0.391876  L0.1,0.778823  L0.1,1.15598  L0.1,1.51859  L0.1,1.86211  L0.1,2.18221  L0.1,2.47487  L0.1,2.73641  L0.1,2.96353  L0.1,3.15339  L0.1,3.30359  L0.1,3.41225  L0.1,3.47799  L0.1,3.5 " /><path d="M0.1,-3.5 L0.1,-3.47799  L0.1,-3.41225  L0.1,-3.30359  L0.1,-3.15339  L0.1,-2.96353  L0.1,-2.73641  L0.1,-2.47487  L0.1,-2.18221  L0.1,-1.86211  L0.1,-1.51859  L0.1,-1.15598  L0.1,-0.778823  L0.1,-0.391876  L0.1,1.15328e-14 " /><path d="M3.9,-2.62013e-15 L3.9,0.391876  L3.9,0.778823  L3.9,1.15598  L3.9,1.51859  L3.9,1.86211  L3.9,2.18221  L3.9,2.47487  L3.9,2.73641  L3.9,2.96353  L3.9,3.15339  L3.9,3.30359  L3.9,3.41225  L3.9,3.47799  L3.9,3.5 " /><path d="M3.9,-3.5 L3.9,-3.47799  L3.9,-3.41225  L3.9,-3.30359  L3.9,-3.15339  L3.9,-2.96353  L3.9,-2.73641  L3.9,-2.47487  L3.9,-2.18221  L3.9,-1.86211  L3.9,-1.51859  L3.9,-1.15598  L3.9,-0.778823  L3.9,-0.391876  L3.9,8.95712e-15 " /><path d="M4,-2.63916e-15 L4,0.380679  L4,0.756571  L4,1.12295  L4,1.4752  L4,1.80891  L4,2.11987  L4,2.40416  L4,2.65823  L4,2.87886  L4,3.06329  L4,3.2092  L4,3.31475  L4,3.37862  L4,3.4 " /><path d="M4,-3.4 L4,-3.37862  L4,-3.31475  L4,-3.2092  L4,-3.06329  L4,-2.87886  L4,-2.65823  L4,-2.40416  L4,-2.11987  L4,-1.80891  L4,-1.4752  L4,-1.12295  L4,-0.756571  L4,-0.380679  L4,8.60731e-15 " /></g>
</g>



<g id="Ortho_0_1"
   transform="rotate(90,93.2012,45.7965) translate(93.2012,45.7965) scale(1,1)"
  >
<g   stroke="rgb(0, 0, 0)"
   stroke-width="0.35"
   stroke-linecap="butt"
   stroke-linejoin="miter"
   fill="none"
   transform="scale(1,-1)"
  >
<circle cx ="-4.37906e-48" cy ="1.73195e-15" r ="3.5" /><circle cx ="0" cy ="1.77636e-15" r ="3.4" /><path id= "3" d=" M 1.73205 1.36002e-14 L 1.73 -0.00355844 " />
<path id= "4" d=" M 1.73 0.00355844 L 1.73205 1.57652e-14 " />
<path d="M0.86808 1.49644 A1.73 1.73 0 0 0 1.73 0.00355844" /><path id= "6" d=" M 0.866025 1.5 L 0.86808 1.49644 " />
<path id= "7" d=" M 0.861916 1.5 L 0.866025 1.5 " />
<path d="M-0.861916 1.5 A1.73 1.73 0 0 0 0.861916 1.5" /><path id= "9" d=" M -0.866025 1.5 L -0.861916 1.5 " />
<path id= "10" d=" M -0.86808 1.49644 L -0.866025 1.5 " />
<path d="M-1.73 0.00355844 A1.73 1.73 0 0 0 -0.86808 1.49644" /><path id= "12" d=" M -1.73205 1.43774e-14 L -1.73 0.00355844 " />
<path id= "13" d=" M -1.73 -0.00355844 L -1.73205 1.42109e-14 " />
<path d="M-0.86808 -1.49644 A1.73 1.73 0 0 0 -1.73 -0.00355844" /><path id= "15" d=" M -0.866025 -1.5 L -0.86808 -1.49644 " />
<path id= "16" d=" M -0.861916 -1.5 L -0.866025 -1.5 " />
<path d="M0.861916 -1.5 A1.73 1.73 0 0 0 -0.861916 -1.5" /><path id= "18" d=" M 0.866025 -1.5 L 0.861916 -1.5 " />
<path id= "19" d=" M 0.86808 -1.49644 L 0.866025 -1.5 " />
<path d="M1.73 -0.00355844 A1.73 1.73 0 0 0 0.86808 -1.49644" /><path d="M0.86808,-1.49644 L0.918254,-1.40954  L0.96711,-1.32492  L1.01482,-1.24229  L1.06154,-1.16136  L1.10744,-1.08186  L1.15268,-1.00351  L1.19741,-0.92603  L1.24179,-0.849165  L1.28597,-0.772643  L1.3301,-0.696199  L1.37434,-0.619569  L1.41885,-0.542488  L1.46376,-0.464688  L1.50925,-0.3859 " /><path d="M1.73,-0.00355844 Q1.62188,-0.190826 1.50925,-0.3859 " /><path d="M0.86808,-1.49644 L0.934418,-1.38154  L0.998529,-1.2705  L1.0608,-1.16263  L1.12162,-1.05729  L1.18136,-0.953823  L1.24038,-0.851601  L1.29904,-0.75  L1.3577,-0.648399  L1.41672,-0.546177  L1.47645,-0.44271  L1.53727,-0.337366  L1.59955,-0.229502  L1.66366,-0.118459  L1.73,-0.00355844 " /><path d="M1.73,0.00355844 Q1.65254,0.137724 1.58572,0.253459 " /><path d="M1.58572,0.253459 C1.33009,0.696214 1.16156,0.988114 0.86808,1.49644 " /><path d="M1.73,0.00355844 L1.66366,0.118459  L1.59955,0.229502  L1.53727,0.337366  L1.47645,0.44271  L1.41672,0.546177  L1.3577,0.648399  L1.29904,0.75  L1.24038,0.851601  L1.18136,0.953823  L1.12162,1.05729  L1.0608,1.16263  L0.998529,1.2705  L0.934418,1.38154  L0.86808,1.49644 " /><path d="M0.861916,1.5 Q0.649619,1.5 0.420427,1.5 " /><path d="M0.420427,1.5 L0.32945,1.5  L0.239615,1.5  L0.150608,1.5  L0.0621239,1.5  L-0.0261457,1.5  L-0.114506,1.5  L-0.203262,1.5  L-0.292723,1.5  L-0.383196,1.5  L-0.474997,1.5  L-0.568442,1.5  L-0.663856,1.5  L-0.761568,1.5  L-0.861916,1.5 " /><path d="M0.861916,1.5 L0.729241,1.5  L0.601019,1.5  L0.476468,1.5  L0.354828,1.5  L0.235355,1.5  L0.117319,1.5  L-1.249e-16,1.5  L-0.117319,1.5  L-0.235355,1.5  L-0.354828,1.5  L-0.476468,1.5  L-0.601019,1.5  L-0.729241,1.5  L-0.861916,1.5 " /><path d="M-0.86808,1.49644 L-0.934418,1.38154  L-0.998529,1.2705  L-1.0608,1.16263  L-1.12162,1.05729  L-1.18136,0.953823  L-1.24038,0.851601  L-1.29904,0.75  L-1.3577,0.648399  L-1.41672,0.546177  L-1.47645,0.44271  L-1.53727,0.337366  L-1.59955,0.229502  L-1.66366,0.118459  L-1.73,0.00355844 " /><path d="M-0.86808,1.49644 L-0.934418,1.38154  L-0.998529,1.2705  L-1.0608,1.16263  L-1.12162,1.05729  L-1.18136,0.953823  L-1.24038,0.851601  L-1.29904,0.75  L-1.3577,0.648399  L-1.41672,0.546177  L-1.47645,0.44271  L-1.53727,0.337366  L-1.59955,0.229502  L-1.66366,0.118459  L-1.73,0.00355844 " /><path d="M-1.73,-0.00355844 L-1.66366,-0.118459  L-1.59955,-0.229502  L-1.53727,-0.337366  L-1.47645,-0.44271  L-1.41672,-0.546177  L-1.3577,-0.648399  L-1.29904,-0.75  L-1.24038,-0.851601  L-1.18136,-0.953823  L-1.12162,-1.05729  L-1.0608,-1.16263  L-0.998529,-1.2705  L-0.934418,-1.38154  L-0.86808,-1.49644 " /><path d="M-0.861916,-1.5 L-0.729241,-1.5  L-0.601019,-1.5  L-0.476468,-1.5  L-0.354828,-1.5  L-0.235355,-1.5  L-0.117319,-1.5  L-4.16334e-17,-1.5  L0.117319,-1.5  L0.235355,-1.5  L0.354828,-1.5  L0.476468,-1.5  L0.601019,-1.5  L0.729241,-1.5  L0.861916,-1.5 " /><path d="M1.50925,-0.3859 Q1.3912,-0.176016 1.29248,6.93889e-16 " /><path d="M1.29248,1.96065e-13 C1.14628,0.260576 1.0184,0.486394 0.881255,0.72092  C0.743848,0.956185 0.601556,1.19397 0.420427,1.5 " /></g>
</g>



<g id="Ortho_1_0"
   transform="rotate(-90,203.847,131.621) translate(203.847,131.621) scale(1,1)"
  >
<g   stroke="rgb(0, 0, 0)"
   stroke-width="0.35"
   stroke-linecap="butt"
   stroke-linejoin="miter"
   fill="none"
   transform="scale(1,-1)"
  >
<path id= "1" d=" M 0 -2 L -13.6 -2 " />
<path id= "2" d=" M -14 -1.6 L -13.6 -2 " />
<path id= "3" d=" M 0 -3.4 L 0.1 -3.5 " />
<path id= "4" d=" M 3.9 -3.5 L 0.1 -3.5 " />
<path id= "5" d=" M 4 -3.4 L 3.9 -3.5 " />
</g>
<g   stroke="rgb(0, 0, 0)"
   stroke-width="0.35"
   stroke-linecap="butt"
   stroke-linejoin="miter"
   fill="none"
   transform="scale(1,-1)"
  >
<path id= "1" d=" M 0 2 L -13.6 2 " />
<path d="M-13.6,-2 L-13.6,-1.94986  L-13.6,-1.80194  L-13.6,-1.56366  L-13.6,-1.24698  L-13.6,-0.867767  L-13.6,-0.445042  L-13.6,-4.3642e-15  L-13.6,0.445042  L-13.6,0.867767  L-13.6,1.24698  L-13.6,1.56366  L-13.6,1.80194  L-13.6,1.94986  L-13.6,2 " /><path id= "3" d=" M -13.6 2 L -14 1.6 " />
<path d="M-14,-1.6 L-14,-1.55988  L-14,-1.44155  L-14,-1.25093  L-14,-0.997584  L-14,-0.694214  L-14,-0.356033  L-14,-2.07027e-15  L-14,0.356033  L-14,0.694214  L-14,0.997584  L-14,1.25093  L-14,1.44155  L-14,1.55988  L-14,1.6 " /><path d="M-4.85622e-31,-3.4 L-3.35985e-16,-3.31475  L-6.55122e-16,-3.06329  L-9.41409e-16,-2.65823  L-1.18049e-15,-2.11987  L-1.36038e-15,-1.4752  L-1.47205e-15,-0.756571  L-1.5099e-15,2.39524e-15  L-1.47205e-15,0.756571  L-1.36038e-15,1.4752  L-1.18049e-15,2.11987  L-9.41409e-16,2.65823  L-6.55122e-16,3.06329  L-3.35985e-16,3.31475  L4.99443e-30,3.4 " /><path id= "6" d=" M 0.1 3.5 L -3.33067e-16 3.4 " />
<path d="M0.1,-3.5 L0.1,-3.41225  L0.1,-3.15339  L0.1,-2.73641  L0.1,-2.18221  L0.1,-1.51859  L0.1,-0.778823  L0.1,2.46568e-15  L0.1,0.778823  L0.1,1.51859  L0.1,2.18221  L0.1,2.73641  L0.1,3.15339  L0.1,3.41225  L0.1,3.5 " /><path id= "8" d=" M 3.9 3.5 L 0.1 3.5 " />
<path d="M3.9,-3.5 L3.9,-3.41225  L3.9,-3.15339  L3.9,-2.73641  L3.9,-2.18221  L3.9,-1.51859  L3.9,-0.778823  L3.9,1.57751e-15  L3.9,0.778823  L3.9,1.51859  L3.9,2.18221  L3.9,2.73641  L3.9,3.15339  L3.9,3.41225  L3.9,3.5 " /><path id= "10" d=" M 4 3.4 L 3.9 3.5 " />
<path d="M4,-3.4 L4,-3.31475  L4,-3.06329  L4,-2.65823  L4,-2.11987  L4,-1.4752  L4,-0.756571  L4,4.55224e-15  L4,0.756571  L4,1.4752  L4,2.11987  L4,2.65823  L4,3.06329  L4,3.31475  L4,3.4 " /></g>
</g>



</svg>

