<?xml version="1.0" encoding="UTF-8"?>

<svg xmlns="http://www.w3.org/2000/svg" version="1.1"
	width="297mm"
	height="210mm"
	viewBox="0 0 297 210">
	<!-- Working space 0 0 297 210 -->
	<defs>
		<radialGradient
			id="radialGradient3661"
			gradientUnits="userSpaceOnUse"
			cy="29.149"
			cx="282.65"
			gradientTransform="matrix(.14777 .23089 -.24680 .15795 -26.318 -62.617)"
			r="19.571">
				<stop stop-color="#71b2f8" offset="0"/>
				<stop stop-color="#002795" offset="1"/>
		</radialGradient>
		<radialGradient
			id="radialGradient3817"
			gradientUnits="userSpaceOnUse"
			cy="33.9"
			cx="270.58"
			gradientTransform="matrix(.26631 .065024 -.17931 .73438 -60.668 -36.938)"
			r="19.571">
				<stop stop-color="#ff6d0f" offset="0"/>
				<stop stop-color="#ff1000" offset="1"/>
		</radialGradient>
	</defs>
	<!-- Set display:none to hide FreeCAD Logo -->
	<g
		style="display:inline"
		id="freecad-logo"
		transform="translate(271, 185) scale(1)"
		fill-rule="evenodd"
		stroke-width=".45621">
		<path d="m0.22811 0.22835v13.256h2.9558v-5.1876h2.09v-2.0452h-2.09v-2.2075h5.1486v-3.8087l-8.1044-0.0075z"
			stroke="#370700"
			fill="url(#radialGradient3817)"/>
		<path d="m13.386 4.1792-1.7193 0.98645-0.75925-0.26348-0.72439-1.8513-1.1395 0.05988-0.51976 1.9144-0.72743 0.34835-1.8143-0.79367-0.76632 0.85156 0.98645 1.7193-0.26957 0.75702-1.8513 0.72439 0.065967 1.1417 1.9144 0.51976 0.34835 0.72743-0.79976 1.8121 0.85156 0.76632 1.7193-0.98645 0.76311 0.27179 0.7183 1.8491 1.1478-0.06375 0.51367-1.9166 0.72743-0.34835 1.8182 0.80198 0.76632-0.85156-0.98645-1.7193 0.2657-0.76533 1.8491-0.7183-0.05766-1.1456-1.9166-0.51367-0.34835-0.72743 0.7959-1.8204-0.85156-0.76632zm-2.5751 2.8195 0.35295 0.20478 0.30579 0.27725 0.24481 0.33087 0.17611 0.36787 0.10354 0.39656 0.01715 0.4064-0.0587 0.4063-0.13396 0.38571-0.2131 0.35681-0.26894 0.30192-0.33087 0.24481-0.36787 0.17611-0.39656 0.10354-0.40863 0.02325-0.4063-0.0587-0.38571-0.13396-0.35681-0.2131-0.2997-0.27503-0.24703-0.32478-0.17611-0.36787-0.10132-0.40264-0.02324-0.40863 0.05869-0.4063 0.13396-0.38571 0.21087-0.35072 0.27116-0.30801 0.33087-0.24481 0.36787-0.17611 0.40264-0.10132 0.40641-0.01715 0.4063 0.05869 0.38571 0.13396z" 
		stroke="#000137"
		fill="url(#radialGradient3661)"/>
	</g>
<g id="View"
   transform="rotate(60,148.5,101.285) translate(148.5,101.285) scale(1,1)"
  >
<g   stroke="rgb(0, 0, 0)"
   stroke-width="0.35"
   stroke-linecap="butt"
   stroke-linejoin="miter"
   fill="none"
   transform="scale(1,-1)"
  >
<path id= "1" d=" M 0.374773 -2.52578 L 8.61665 -7.28423 " />
<path id= "2" d=" M 2.37477 0.938325 L 10.6167 -3.82013 " />
<path id= "3" d=" M 9.89949 -7.02187 L 9.61665 -7.18517 " />
<path id= "4" d=" M -2.88658e-15 -2.77609 L -0.0707107 -2.81691 " />
<path id= "5" d=" M -4.50772 -1.43892 L -1.82071 -2.99026 " />
<path id= "6" d=" M -1.00772 4.62326 L 1.67929 3.07191 " />
<path id= "7" d=" M -5.23259 0.244949 L -5.23259 0.163299 " />
<path id= "8" d=" M -2.82843 4.40908 L -2.75772 4.44991 " />
</g>
<g   stroke="rgb(0, 0, 0)"
   stroke-width="0.35"
   stroke-linecap="butt"
   stroke-linejoin="miter"
   fill="none"
   transform="scale(1,-1)"
  >
<path d="M11.0309 -4.73568 A2 1.1547 -120 0 0 9.61665 -7.18517" />
<path d="M9.61665 -7.18517 A2 1.1547 -120 0 0 8.61665 -7.28423" />
<path d="M10.6167 -3.82013 A2 1.1547 -120 0 0 11.0309 -4.73568" />
<path id= "4" d=" M 11.0309 -4.73568 L 11.0309 -5.06228 " />
<path d="M11.0309 -5.06228 A1.6 0.92376 -120 0 0 9.89949 -7.02187" />
<path d="M2.40416 1.38804 A3.4 1.96299 -120 0 0 -3.10862e-15 -2.77609" />
<path id= "7" d=" M 2.40416 1.46969 L 2.40416 1.38804 " />
<path d="M2.40416 1.46969 A3.5 2.02073 -120 0 0 -0.0707107 -2.81691" />
<path d="M-0.0707107 -2.81691 A3.5 2.02073 -120 0 0 -1.82071 -2.99026" />
<path d="M1.67929 3.07191 A3.5 2.02073 -120 0 0 2.40416 1.46969" />
<path d="M-0.282843 3.02104 A3.5 2.02073 -120 0 0 -4.50772 -1.43892" />
<path d="M-4.50772 -1.43892 A3.5 2.02073 -120 0 0 -5.23259 0.163299" />
<path d="M-2.75772 4.44991 A3.5 2.02073 -120 0 0 -1.00772 4.62326" />
<path d="M-1.00772 4.62326 A3.5 2.02073 -120 0 0 -0.282843 3.02104" />
<path d="M-0.424264 3.02104 A3.4 1.96299 -120 0 0 -5.23259 0.244949" />
<path d="M-5.23259 0.244949 A3.4 1.96299 -120 0 0 -2.82843 4.40908" />
<path d="M-2.82843 4.40908 A3.4 1.96299 -120 0 0 -0.424264 3.02104" />
<path id= "18" d=" M -1.60368 2.3401 L -1.60513 2.33636 " />
<path id= "19" d=" M -1.60513 2.34217 L -1.60368 2.3401 " />
<path d="M-2.2146 3.20922 A1.73 0.998816 -120 0 0 -1.60513 2.34217" />
<path id= "21" d=" M -2.21605 3.21129 L -2.2146 3.20922 " />
<path id= "22" d=" M -2.21896 3.20961 L -2.21605 3.21129 " />
<path d="M-3.43789 2.50586 A1.73 0.998816 -120 0 0 -2.21896 3.20961" />
<path id= "24" d=" M -3.4408 2.50418 L -3.43789 2.50586 " />
<path id= "25" d=" M -3.44225 2.50044 L -3.4408 2.50418 " />
<path d="M-4.05172 0.929631 A1.73 0.998816 -120 0 0 -3.44225 2.50044" />
<path id= "27" d=" M -4.05317 0.925886 L -4.05172 0.929631 " />
<path id= "28" d=" M -4.05172 0.92382 L -4.05317 0.925886 " />
<path d="M-3.44225 0.0567616 A1.73 0.998816 -120 0 0 -4.05172 0.92382" />
<path id= "30" d=" M -3.4408 0.0546949 L -3.44225 0.0567616 " />
<path id= "31" d=" M -3.43789 0.0563724 L -3.4408 0.0546949 " />
<path d="M-2.21896 0.760124 A1.73 0.998816 -120 0 0 -2.82843 0.220453" />
<path d="M-2.82843 0.220453 A1.73 0.998816 -120 0 0 -3.43789 0.0563724" />
<path id= "34" d=" M -2.21605 0.761802 L -2.21896 0.760124 " />
<path id= "35" d=" M -2.2146 0.765546 L -2.21605 0.761802 " />
<path d="M-1.60513 2.33636 A1.73 0.998816 -120 0 0 -2.2146 0.765546" />
<path d="M-1.60513,2.34217 L-1.60811,2.38354  L-1.61672,2.42682  L-1.631,2.47229  L-1.65105,2.52023  L-1.677,2.57091  L-1.70899,2.62466  L-1.74723,2.6818  L-1.79195,2.74268  L-1.84342,2.80767  L-1.90196,2.87717  L-1.96791,2.95161  L-2.0417,3.03143  L-2.12376,3.11713  L-2.2146,3.20922 " /><path d="M-2.21896,3.20961 L-2.26884,3.13009  L-2.32278,3.05653  L-2.3811,2.98851  L-2.44416,2.9256  L-2.51235,2.86742  L-2.58607,2.81361  L-2.66579,2.76384  L-2.75199,2.71782  L-2.84519,2.67525  L-2.94597,2.63588  L-3.05493,2.59947  L-3.17275,2.5658  L-3.30015,2.53466  L-3.43789,2.50586 " /><path id= "39" d=" M -3.4408 2.50418 L -1.76883 1.53887 " />
<path d="M-3.44225,2.50044 L-3.44523,2.35418  L-3.45383,2.21613  L-3.46812,2.08546  L-3.48817,1.96137  L-3.51412,1.84309  L-3.54611,1.72991  L-3.58435,1.62114  L-3.62907,1.5161  L-3.68054,1.41417  L-3.73907,1.31471  L-3.80503,1.21712  L-3.87882,1.1208  L-3.96088,1.02516  L-4.05172,0.929631 " /><path id= "41" d=" M -4.05317 0.925886 L -2.84249 0.226901 " />
<path d="M-4.05172,0.92382 L-3.96088,0.831722  L-3.87882,0.746023  L-3.80503,0.6662  L-3.73907,0.591766  L-3.68054,0.522265  L-3.62907,0.457273  L-3.58435,0.396393  L-3.54611,0.339254  L-3.51412,0.285506  L-3.48817,0.234821  L-3.46812,0.18689  L-3.45383,0.141419  L-3.44523,0.0981309  L-3.44225,0.0567616 " /><path d="M-3.43789,0.0563724 L-3.37684,0.0685841  L-3.31783,0.0812166  L-3.26078,0.0942844  L-3.20563,0.107803  L-3.15231,0.121786  L-3.10078,0.136252  L-3.05096,0.151216  L-3.0028,0.166696  L-2.95624,0.18271  L-2.91123,0.199275  L-2.86773,0.216411  L-2.82567,0.234137  L-2.78501,0.252474  L-2.74571,0.271443 " /></g>
</g>



</svg>

