<?xml version="1.0" encoding="UTF-8"?>

<svg xmlns="http://www.w3.org/2000/svg" version="1.1"
	width="297mm"
	height="210mm"
	viewBox="0 0 297 210">
	<!-- Working space 0 0 297 210 -->
	<defs>
		<radialGradient
			id="radialGradient3661"
			gradientUnits="userSpaceOnUse"
			cy="29.149"
			cx="282.65"
			gradientTransform="matrix(.14777 .23089 -.24680 .15795 -26.318 -62.617)"
			r="19.571">
				<stop stop-color="#71b2f8" offset="0"/>
				<stop stop-color="#002795" offset="1"/>
		</radialGradient>
		<radialGradient
			id="radialGradient3817"
			gradientUnits="userSpaceOnUse"
			cy="33.9"
			cx="270.58"
			gradientTransform="matrix(.26631 .065024 -.17931 .73438 -60.668 -36.938)"
			r="19.571">
				<stop stop-color="#ff6d0f" offset="0"/>
				<stop stop-color="#ff1000" offset="1"/>
		</radialGradient>
	</defs>
	<!-- Set display:none to hide FreeCAD Logo -->
	<g
		style="display:inline"
		id="freecad-logo"
		transform="translate(271, 185) scale(1)"
		fill-rule="evenodd"
		stroke-width=".45621">
		<path d="m0.22811 0.22835v13.256h2.9558v-5.1876h2.09v-2.0452h-2.09v-2.2075h5.1486v-3.8087l-8.1044-0.0075z"
			stroke="#370700"
			fill="url(#radialGradient3817)"/>
		<path d="m13.386 4.1792-1.7193 0.98645-0.75925-0.26348-0.72439-1.8513-1.1395 0.05988-0.51976 1.9144-0.72743 0.34835-1.8143-0.79367-0.76632 0.85156 0.98645 1.7193-0.26957 0.75702-1.8513 0.72439 0.065967 1.1417 1.9144 0.51976 0.34835 0.72743-0.79976 1.8121 0.85156 0.76632 1.7193-0.98645 0.76311 0.27179 0.7183 1.8491 1.1478-0.06375 0.51367-1.9166 0.72743-0.34835 1.8182 0.80198 0.76632-0.85156-0.98645-1.7193 0.2657-0.76533 1.8491-0.7183-0.05766-1.1456-1.9166-0.51367-0.34835-0.72743 0.7959-1.8204-0.85156-0.76632zm-2.5751 2.8195 0.35295 0.20478 0.30579 0.27725 0.24481 0.33087 0.17611 0.36787 0.10354 0.39656 0.01715 0.4064-0.0587 0.4063-0.13396 0.38571-0.2131 0.35681-0.26894 0.30192-0.33087 0.24481-0.36787 0.17611-0.39656 0.10354-0.40863 0.02325-0.4063-0.0587-0.38571-0.13396-0.35681-0.2131-0.2997-0.27503-0.24703-0.32478-0.17611-0.36787-0.10132-0.40264-0.02324-0.40863 0.05869-0.4063 0.13396-0.38571 0.21087-0.35072 0.27116-0.30801 0.33087-0.24481 0.36787-0.17611 0.40264-0.10132 0.40641-0.01715 0.4063 0.05869 0.38571 0.13396z" 
		stroke="#000137"
		fill="url(#radialGradient3661)"/>
	</g>
<g id="Ortho_0_0"
   transform="rotate(-90,105.239,152.261) translate(105.239,152.261) scale(1,1)"
  >
<g   stroke="rgb(0, 0, 0)"
   stroke-width="0.35"
   stroke-linecap="butt"
   stroke-linejoin="miter"
   fill="none"
   transform="scale(1,-1)"
  >
<path id= "1" d=" M 6.5 20.5 L 6.5 22 " />
<path id= "2" d=" M 4.5 19 L 4.5 20.5 " />
<path id= "3" d=" M 5 16.995 L 5 19 " />
<path d="M5.9,16 C5.90099,16.2458 5.8059,16.4882 5.64653,16.6653  C5.47859,16.8546 5.24312,16.9712 5,16.995 " /><path id= "5" d=" M 5.9 14 L 5.9 16 " />
<path id= "6" d=" M 2.5 -4.44089e-16 L 3 0.5 " />
<path id= "7" d=" M 3 0.5 L 3 7 " />
</g>
<g   stroke="rgb(0, 0, 0)"
   stroke-width="0.35"
   stroke-linecap="butt"
   stroke-linejoin="miter"
   fill="none"
   transform="scale(1,-1)"
  >
<path d="M-6.5,22 L-6.33703,22  L-5.8563,22  L-5.0819,22  L-4.05268,22  L-2.82024,22  L-1.44639,22  L4.48697e-15,22  L1.44639,22  L2.82024,22  L4.05268,22  L5.0819,22  L5.8563,22  L6.33703,22  L6.5,22 " /><path id= "2" d=" M -6.5 20.5 L -6.5 22 " />
<path d="M-6.5,20.5 L-6.33703,20.5  L-5.8563,20.5  L-5.0819,20.5  L-4.05268,20.5  L-2.82024,20.5  L-1.44639,20.5  L4.1539e-15,20.5  L1.44639,20.5  L2.82024,20.5  L4.05268,20.5  L5.0819,20.5  L5.8563,20.5  L6.33703,20.5  L6.5,20.5 " /><path id= "4" d=" M -4.5 19 L -4.5 20.5 " />
<path d="M-5,19 L-4.87464,19  L-4.50484,19  L-3.90916,19  L-3.11745,19  L-2.16942,19  L-1.1126,19  L3.91269e-15,19  L1.1126,19  L2.16942,19  L3.11745,19  L3.90916,19  L4.50484,19  L4.87464,19  L5,19 " /><path id= "6" d=" M -5 16.995 L -5 19 " />
<path d="M-5,16.995 L-4.87464,16.995  L-4.50484,16.995  L-3.90916,16.995  L-3.11745,16.995  L-2.16942,16.995  L-1.1126,16.995  L7.60221e-15,16.995  L1.1126,16.995  L2.16942,16.995  L3.11745,16.995  L3.90916,16.995  L4.50484,16.995  L4.87464,16.995  L5,16.995 " /><path d="M-5.9 16 A1 1 0 0 0 -5 16.995" /><path d="M2.74735e-15,14 L0.66059,14  L1.31287,14  L1.94865,14  L2.55991,14  L3.13899,14  L3.67859,14  L4.17193,14  L4.61281,14  L4.99567,14  L5.31572,14  L5.56891,14  L5.75207,14  L5.8629,14  L5.9,14 " /><path id= "10" d=" M -5.9 14 L -5.9 16 " />
<path d="M2.5,-5.55112e-16 L2.43732,-9.11766e-16  L2.25242,-1.2227e-15  L1.95458,-1.47232e-15  L1.55872,-1.64812e-15  L1.08471,-1.74127e-15  L0.556302,-1.74711e-15  L-1.7612e-15,-1.66533e-15  L-0.556302,-1.50006e-15  L-1.08471,-1.25956e-15  L-1.55872,-9.55905e-16  L-1.95458,-6.04315e-16  L-2.25242,-2.22423e-16  L-2.43732,1.70622e-16  L-2.5,5.55112e-16 " /><path id= "12" d=" M 6 14 L 5.32907e-15 14 " />
<path id= "13" d=" M 3.10862e-15 14 L -6 14 " />
<path id= "14" d=" M -2.5 5.55112e-16 L -3 0.5 " />
<path d="M-3,0.5 L-2.92478,0.5  L-2.70291,0.5  L-2.34549,0.5  L-1.87047,0.5  L-1.30165,0.5  L-0.667563,0.5  L2.40816e-15,0.5  L0.667563,0.5  L1.30165,0.5  L1.87047,0.5  L2.34549,0.5  L2.70291,0.5  L2.92478,0.5  L3,0.5 " /><path id= "16" d=" M 6 7 L 6 14 " />
<path id= "17" d=" M 1.55431e-15 7 L 3.10862e-15 14 " />
<path id= "18" d=" M 6 7 L 3.55271e-15 7 " />
<path id= "19" d=" M -6 7 L -6 14 " />
<path id= "20" d=" M 1.55431e-15 7 L -6 7 " />
<path id= "21" d=" M -3 0.5 L -3 7 " />
</g>
</g>



<g id="Ortho_0_1"
   transform="rotate(90,105.239,59.8803) translate(105.239,59.8803) scale(1,1)"
  >
<g   stroke="rgb(0, 0, 0)"
   stroke-width="0.35"
   stroke-linecap="butt"
   stroke-linejoin="miter"
   fill="none"
   transform="scale(1,-1)"
  >
<path id= "1" d=" M -6.5 -20.5 L -6.5 -22 " />
<path id= "2" d=" M 6.5 -20.5 L 6.5 -22 " />
<path id= "3" d=" M -4.5 -19 L -4.5 -20.5 " />
<path id= "4" d=" M 4.5 -19 L 4.5 -20.5 " />
<path id= "5" d=" M -5 -16.995 L -5 -19 " />
<path id= "6" d=" M 5 -16.995 L 5 -19 " />
<path d="M5.9,-16 C5.90099,-16.2458 5.8059,-16.4882 5.64653,-16.6653  C5.47859,-16.8546 5.24312,-16.9712 5,-16.995 " /><path d="M-5.9,-16 C-5.90099,-16.2458 -5.8059,-16.4882 -5.64653,-16.6653  C-5.47859,-16.8546 -5.24312,-16.9712 -5,-16.995 " /><path id= "9" d=" M -5.9 -14 L -5.9 -16 " />
<path id= "10" d=" M 5.9 -14 L 5.9 -16 " />
<path id= "11" d=" M 2.5 1.55431e-15 L 3 -0.5 " />
<path id= "12" d=" M -2.5 -1.33227e-15 L -3 -0.5 " />
<path id= "13" d=" M -3 -0.5 L -3 -7 " />
<path id= "14" d=" M 3 -0.5 L 3 -7 " />
</g>
<g   stroke="rgb(0, 0, 0)"
   stroke-width="0.35"
   stroke-linecap="butt"
   stroke-linejoin="miter"
   fill="none"
   transform="scale(1,-1)"
  >
<path d="M6.5,-22 L6.33703,-22  L5.8563,-22  L5.0819,-22  L4.05268,-22  L2.82024,-22  L1.44639,-22  L5.681e-15,-22  L-1.44639,-22  L-2.82024,-22  L-4.05268,-22  L-5.0819,-22  L-5.8563,-22  L-6.33703,-22  L-6.5,-22 " /><path d="M6.5,-20.5 L6.33703,-20.5  L5.8563,-20.5  L5.0819,-20.5  L4.05268,-20.5  L2.82024,-20.5  L1.44639,-20.5  L5.34793e-15,-20.5  L-1.44639,-20.5  L-2.82024,-20.5  L-4.05268,-20.5  L-5.0819,-20.5  L-5.8563,-20.5  L-6.33703,-20.5  L-6.5,-20.5 " /><path d="M5,-19 L4.87464,-19  L4.50484,-19  L3.90916,-19  L3.11745,-19  L2.16942,-19  L1.1126,-19  L4.83117e-15,-19  L-1.1126,-19  L-2.16942,-19  L-3.11745,-19  L-3.90916,-19  L-4.50484,-19  L-4.87464,-19  L-5,-19 " /><path d="M5,-16.995 L4.87464,-16.995  L4.50484,-16.995  L3.90916,-16.995  L3.11745,-16.995  L2.16942,-16.995  L1.1126,-16.995  L4.69213e-15,-16.995  L-1.1126,-16.995  L-2.16942,-16.995  L-3.11745,-16.995  L-3.90916,-16.995  L-4.50484,-16.995  L-4.87464,-16.995  L-5,-16.995 " /><path d="M-2.5,-1.66533e-15 L-2.43732,-1.50006e-15  L-2.25242,-1.25956e-15  L-1.95458,-9.55905e-16  L-1.55872,-6.04315e-16  L-1.08471,-2.22423e-16  L-0.556302,1.70622e-16  L-3.06162e-16,5.55112e-16  L0.556302,9.11766e-16  L1.08471,1.2227e-15  L1.55872,1.47232e-15  L1.95458,1.64812e-15  L2.25242,1.74127e-15  L2.43732,1.74711e-15  L2.5,1.66533e-15 " /><path id= "6" d=" M 3.4641 -14 L 6.9282 -14 " />
<path id= "7" d=" M -3.4641 -14 L 3.4641 -14 " />
<path id= "8" d=" M -6.9282 -14 L -3.4641 -14 " />
<path d="M3,-0.5 L2.92478,-0.5  L2.70291,-0.5  L2.34549,-0.5  L1.87047,-0.5  L1.30165,-0.5  L0.667563,-0.5  L-4.4811e-16,-0.5  L-0.667563,-0.5  L-1.30165,-0.5  L-1.87047,-0.5  L-2.34549,-0.5  L-2.70291,-0.5  L-2.92478,-0.5  L-3,-0.5 " /><path id= "10" d=" M 3.4641 -7 L 3.4641 -14 " />
<path id= "11" d=" M 6.9282 -7 L 6.9282 -14 " />
<path id= "12" d=" M 3.4641 -7 L 6.9282 -7 " />
<path id= "13" d=" M -3.4641 -7 L -3.4641 -14 " />
<path id= "14" d=" M -3.4641 -7 L 3.4641 -7 " />
<path id= "15" d=" M -6.9282 -7 L -6.9282 -14 " />
<path id= "16" d=" M -6.9282 -7 L -3.4641 -7 " />
</g>
</g>



<g id="Ortho_1_0"
   transform="rotate(-90,223.12,152.261) translate(223.12,152.261) scale(1,1)"
  >
<g   stroke="rgb(0, 0, 0)"
   stroke-width="0.35"
   stroke-linecap="butt"
   stroke-linejoin="miter"
   fill="none"
   transform="scale(1,-1)"
  >
<path d="M-6.5 4.55191e-15 A6.5 6.5 0 0 0 -6 2.5" /><path d="M-5.16506 3.94615 A6.5 6.5 0 0 0 -0.834936 6.44615" /><path d="M0.834936 6.44615 A6.5 6.5 0 0 0 5.16506 3.94615" /><path d="M6 2.5 A6.5 6.5 0 0 0 6 -2.5" /><path d="M5.16506 -3.94615 A6.5 6.5 0 0 0 0.834936 -6.44615" /><path d="M-0.834936 -6.44615 A6.5 6.5 0 0 0 -5.16506 -3.94615" /><path d="M-6 -2.5 A6.5 6.5 0 0 0 -6.5 2.60525e-14" /><path id= "8" d=" M -1.2 -0.69282 L -1.2 0.69282 " />
<path id= "9" d=" M -1.2 0.69282 L 4.55191e-15 1.38564 " />
<path id= "10" d=" M 6.66134e-16 1.38564 L 1.2 0.69282 " />
<path id= "11" d=" M 1.2 0.69282 L 1.2 -0.69282 " />
<path id= "12" d=" M 1.2 -0.69282 L 6.55032e-15 -1.38564 " />
<path id= "13" d=" M 8.99281e-15 -1.38564 L -1.2 -0.69282 " />
<circle cx ="6.66134e-16" cy ="6.66134e-16" r ="1.5" /><circle cx ="0" cy ="0" r ="1.5" /><circle cx ="0" cy ="0" r ="2.5" /><circle cx ="1.11022e-16" cy ="-9.99201e-16" r ="3" /><path id= "18" d=" M 6 3.4641 L 3.55271e-15 6.9282 " />
<path id= "19" d=" M 6 -3.4641 L 6 3.4641 " />
<path id= "20" d=" M 1.55431e-15 6.9282 L -6 3.4641 " />
<path id= "21" d=" M 1.55431e-15 -6.9282 L 6 -3.4641 " />
<path id= "22" d=" M -6 3.4641 L -6 -3.4641 " />
<path id= "23" d=" M -6 -3.4641 L 0 -6.9282 " />
</g>
</g>



</svg>

