<?xml version="1.0" encoding="UTF-8"?>

<svg xmlns="http://www.w3.org/2000/svg" version="1.1"
	width="297mm"
	height="210mm"
	viewBox="0 0 297 210">
	<!-- Working space 0 0 297 210 -->
	<defs>
		<radialGradient
			id="radialGradient3661"
			gradientUnits="userSpaceOnUse"
			cy="29.149"
			cx="282.65"
			gradientTransform="matrix(.14777 .23089 -.24680 .15795 -26.318 -62.617)"
			r="19.571">
				<stop stop-color="#71b2f8" offset="0"/>
				<stop stop-color="#002795" offset="1"/>
		</radialGradient>
		<radialGradient
			id="radialGradient3817"
			gradientUnits="userSpaceOnUse"
			cy="33.9"
			cx="270.58"
			gradientTransform="matrix(.26631 .065024 -.17931 .73438 -60.668 -36.938)"
			r="19.571">
				<stop stop-color="#ff6d0f" offset="0"/>
				<stop stop-color="#ff1000" offset="1"/>
		</radialGradient>
	</defs>
	<!-- Set display:none to hide FreeCAD Logo -->
	<g
		style="display:inline"
		id="freecad-logo"
		transform="translate(271, 185) scale(1)"
		fill-rule="evenodd"
		stroke-width=".45621">
		<path d="m0.22811 0.22835v13.256h2.9558v-5.1876h2.09v-2.0452h-2.09v-2.2075h5.1486v-3.8087l-8.1044-0.0075z"
			stroke="#370700"
			fill="url(#radialGradient3817)"/>
		<path d="m13.386 4.1792-1.7193 0.98645-0.75925-0.26348-0.72439-1.8513-1.1395 0.05988-0.51976 1.9144-0.72743 0.34835-1.8143-0.79367-0.76632 0.85156 0.98645 1.7193-0.26957 0.75702-1.8513 0.72439 0.065967 1.1417 1.9144 0.51976 0.34835 0.72743-0.79976 1.8121 0.85156 0.76632 1.7193-0.98645 0.76311 0.27179 0.7183 1.8491 1.1478-0.06375 0.51367-1.9166 0.72743-0.34835 1.8182 0.80198 0.76632-0.85156-0.98645-1.7193 0.2657-0.76533 1.8491-0.7183-0.05766-1.1456-1.9166-0.51367-0.34835-0.72743 0.7959-1.8204-0.85156-0.76632zm-2.5751 2.8195 0.35295 0.20478 0.30579 0.27725 0.24481 0.33087 0.17611 0.36787 0.10354 0.39656 0.01715 0.4064-0.0587 0.4063-0.13396 0.38571-0.2131 0.35681-0.26894 0.30192-0.33087 0.24481-0.36787 0.17611-0.39656 0.10354-0.40863 0.02325-0.4063-0.0587-0.38571-0.13396-0.35681-0.2131-0.2997-0.27503-0.24703-0.32478-0.17611-0.36787-0.10132-0.40264-0.02324-0.40863 0.05869-0.4063 0.13396-0.38571 0.21087-0.35072 0.27116-0.30801 0.33087-0.24481 0.36787-0.17611 0.40264-0.10132 0.40641-0.01715 0.4063 0.05869 0.38571 0.13396z" 
		stroke="#000137"
		fill="url(#radialGradient3661)"/>
	</g>
<g id="Ortho_0_0"
   transform="rotate(-90,89.6,183.5) translate(89.6,183.5) scale(1,1)"
  >
<g   stroke="rgb(0, 0, 0)"
   stroke-width="0.35"
   stroke-linecap="butt"
   stroke-linejoin="miter"
   fill="none"
   transform="scale(1,-1)"
  >
<path id= "1" d=" M 15.525 -9.4 L 20.0348 -9.4 " />
<path id= "2" d=" M 21.5652 -9.4 L 24.3 -9.4 " />
<path id= "3" d=" M 16.275 9.4 L 24.3 9.4 " />
<path id= "4" d=" M 24.7 -9 L 24.3 -9.4 " />
<path id= "5" d=" M 24.7 9 L 24.3 9.4 " />
<path d="M12.15,2.10804e-09 L12.15,1.01228e-07 " /><path d="M8.85001,2.21351e-15 Q8.84998,0.000717742 8.85,8.91648e-16 " /><path d="M10.35,-1.25494e-06 Q10.35,0.00070172 10.35,3.61679e-08 " /><path d="M13.35,1.59549e-08 Q13.35,0.000734351 13.35,-1.38161e-07 " /><path d="M14.85,4.97241e-08 Q14.85,0.000733611 14.85,5.8654e-08 " /><path d="M16.35,-2.38643e-07 Q16.35,0.00057561 16.35,-3.95122e-07 " /><path id= "12" d=" M 14.025 -9.4 L 15.225 -9.4 " />
<path id= "13" d=" M 14.775 9.4 L 15.975 9.4 " />
<path id= "14" d=" M 8.025 -9.4 L 9.225 -9.4 " />
<path id= "15" d=" M 8.775 9.4 L 9.975 9.4 " />
<path id= "16" d=" M 9.525 -9.4 L 10.725 -9.4 " />
<path id= "17" d=" M 10.275 9.4 L 11.475 9.4 " />
<path id= "18" d=" M 11.025 -9.4 L 12.225 -9.4 " />
<path id= "19" d=" M 11.775 9.4 L 12.975 9.4 " />
<path id= "20" d=" M 12.525 -9.4 L 13.725 -9.4 " />
<path id= "21" d=" M 13.275 9.4 L 14.475 9.4 " />
<path id= "22" d=" M 13.4143 -2.5 L 13.7143 -2.5 " />
<path id= "23" d=" M 11.9143 -2.5 L 12.2143 -2.5 " />
<path id= "24" d=" M 11.7857 2.5 L 12.0857 2.5 " />
<path id= "25" d=" M 10.2857 2.5 L 10.5857 2.5 " />
<path id= "26" d=" M 8.78574 2.5 L 9.08574 2.5 " />
<path id= "27" d=" M 0.4 -9.4 L 2 -9.4 " />
<path id= "28" d=" M 5.9 -9.4 L 7.725 -9.4 " />
<path id= "29" d=" M 0.4 9.4 L 8.475 9.4 " />
<path id= "30" d=" M 0 -9 L 0.4 -9.4 " />
<path id= "31" d=" M 0 9 L 0.4 9.4 " />
</g>
<g   stroke="rgb(0, 0, 0)"
   stroke-width="0.35"
   stroke-linecap="butt"
   stroke-linejoin="miter"
   fill="none"
   transform="scale(1,-1)"
  >
<path d="M24.3,0 L24.3,-1.05247  L24.3,-2.0917  L24.3,-3.10462  L24.3,-4.07851  L24.3,-5.0011  L24.3,-5.8608  L24.3,-6.6468  L24.3,-7.34922  L24.3,-7.95921  L24.3,-8.46911  L24.3,-8.8725  L24.3,-9.16432  L24.3,-9.34089  L24.3,-9.4 " /><path d="M24.3,9.4 L24.3,9.34089  L24.3,9.16432  L24.3,8.8725  L24.3,8.46911  L24.3,7.95921  L24.3,7.34922  L24.3,6.6468  L24.3,5.8608  L24.3,5.0011  L24.3,4.07851  L24.3,3.10462  L24.3,2.0917  L24.3,1.05247  L24.3,-3.10932e-14 " /><path d="M16.65,-4.43068e-12 C16.6833,-1.31256 16.7167,-2.62456 16.75,-3.82332 " /><path id= "4" d=" M 16.45 -3.82332 L 16.75 -3.82332 " />
<path d="M15.15,3.89841e-10 C15.1597,-0.383881 15.1695,-0.766107 15.1792,-1.14668  C15.2144,-2.5233 15.2497,-3.86153 15.2849,-5.03229  C15.3201,-6.20426 15.3553,-7.20846 15.3905,-7.94801  C15.4354,-8.89292 15.4802,-9.40273 15.525,-9.4 " /><path d="M16.125,7.60476 C16.175,8.7657 16.225,9.40449 16.275,9.4 " /><path d="M16.275,9.4 C16.315,9.40195 16.355,8.99751 16.395,8.23748  C16.4267,7.63677 16.4584,6.81467 16.4901,5.8356  C16.5218,4.85744 16.5535,3.72246 16.5852,2.51965  C16.6068,1.70061 16.6284,0.850253 16.65,-4.4309e-12 " /><path d="M16.35,2.55556e-10 C16.3833,-1.31223 16.4167,-2.62556 16.45,-3.82332 " /><path d="M21.5652,-9.4 Q21.2577,-9.39938 20.8432,-9.39865  Q20.3777,-9.39918 20.0348,-9.4 " /><path d="M24.7,0 L24.7,-1.00768  L24.7,-2.00269  L24.7,-2.97251  L24.7,-3.90495  L24.7,-4.78829  L24.7,-5.61141  L24.7,-6.36396  L24.7,-7.03648  L24.7,-7.62052  L24.7,-8.10872  L24.7,-8.49495  L24.7,-8.77435  L24.7,-8.94341  L24.7,-9 " /><path d="M24.7,9 L24.7,8.94341  L24.7,8.77435  L24.7,8.49495  L24.7,8.10872  L24.7,7.62052  L24.7,7.03648  L24.7,6.36396  L24.7,5.61141  L24.7,4.78829  L24.7,3.90495  L24.7,2.97251  L24.7,2.00269  L24.7,1.00768  L24.7,-2.97701e-14 " /><path d="M7.65,1.77636e-15 C7.69069,-1.60255 7.73138,-3.20308 7.77207,-4.59974  C7.81182,-5.96562 7.85156,-7.13394 7.8913,-7.96401  C7.93586,-8.89867 7.98045,-9.40279 8.025,-9.4 " /><path d="M8.625,7.60476 C8.67501,8.76614 8.725,9.40413 8.775,9.4 " /><path d="M8.775,9.4 C8.81268,9.40138 8.85036,9.0437 8.88804,8.36583  C8.93303,7.56025 8.97801,6.29659 9.023,4.76801  C9.06534,3.33218 9.10767,1.66733 9.15,1.77636e-15 " /><path d="M9.15,0 C9.19271,-1.6823 9.23546,-3.36345 9.27817,-4.8077  C9.32088,-6.25442 9.36363,-7.46248 9.40634,-8.26261  C9.44587,-9.00654 9.48547,-9.40184 9.525,-9.4 " /><path d="M10.125,7.60475 C10.175,8.76611 10.225,9.40427 10.275,9.4 " /><path d="M10.275,9.4 C10.309,9.40102 10.3431,9.10945 10.3772,8.55215  C10.4226,7.81177 10.4681,6.59123 10.5136,5.08363  C10.559,3.57937 10.6045,1.79049 10.65,3.55271e-15 " /><path d="M10.65,3.9968e-15 C10.6877,-1.48567 10.7255,-2.97097 10.7632,-4.29201  C10.8009,-5.6144 10.8387,-6.77198 10.8764,-7.63701  C10.9259,-8.77805 10.9755,-9.40404 11.025,-9.4 " /><path d="M11.625,7.60475 C11.675,8.76559 11.725,9.40443 11.775,9.4 " /><path d="M11.775,9.4 C11.8148,9.40186 11.8546,9.0023 11.8943,8.25058  C11.9353,7.4793 11.9763,6.33374 12.0172,4.96254  C12.0582,3.59352 12.0992,1.9995 12.1402,0.387512  C12.1434,0.258341 12.1467,0.129171 12.15,-1.42272e-12 " /><path d="M12.15,-1.42242e-12 C12.1874,-1.47342 12.2248,-2.94552 12.2622,-4.25849  C12.269,-4.49615 12.2757,-4.72578 12.2831,-4.97253  C12.2904,-5.21905 12.2985,-5.47957 12.3073,-5.7541  C12.3246,-6.29755 12.3458,-6.89583 12.3624,-7.30183  C12.3895,-7.97387 12.4166,-8.50394 12.4437,-8.86005  C12.4708,-9.21866 12.4979,-9.39865 12.525,-9.4 " /><path d="M13.125,7.60476 C13.175,8.76603 13.225,9.40419 13.275,9.4 " /><path d="M13.275,9.4 C13.3017,9.39871 13.3283,9.22437 13.355,8.87697  C13.395,8.36098 13.435,7.46208 13.4749,6.2914  C13.5149,5.12323 13.5549,3.6838 13.5949,2.15121  C13.6132,1.44419 13.6316,0.727118 13.65,2.70012e-10 " /><path d="M13.65,2.70012e-10 C13.6861,-1.42306 13.7222,-2.84381 13.7584,-4.12152  C13.7945,-5.40011 13.8306,-6.53485 13.8667,-7.40872  C13.9195,-8.69213 13.9723,-9.40535 14.025,-9.4 " /><path d="M14.625,7.60476 C14.675,8.76634 14.725,9.4041 14.775,9.4 " /><path d="M14.775,9.4 C14.8194,9.40283 14.8638,8.90265 14.9082,7.97516  C14.9484,7.13707 14.9888,5.94851 15.0291,4.5601  C15.0694,3.1734 15.1097,1.58802 15.15,3.89841e-10 " /><path d="M16.2858,2.49745 C16.3298,2.47738 16.3738,2.32613 16.4177,2.06631  C16.4952,1.61351 16.5726,0.813201 16.65,0.000308315 " /><path d="M14.7858,2.49745 C14.7944,2.49338 14.8029,2.48452 14.8115,2.47086  C14.8565,2.39986 14.9016,2.19275 14.9466,1.88177  C14.9916,1.57202 15.0366,1.15866 15.0816,0.70618  C15.1044,0.475884 15.1272,0.240599 15.15,0.000325811 " /><path d="M13.2858,2.49745 C13.3331,2.47595 13.3805,2.30206 13.4278,2.00508  C13.5018,1.54515 13.5759,0.778161 13.65,0.000323526 " /><path d="M11.7858,2.49745 C11.8522,2.46937 11.9186,2.13228 11.9851,1.59323  C12.04,1.15021 12.095,0.576467 12.15,0.000261706 " /><path d="M10.2858,2.49745 C10.3129,2.48413 10.34,2.42385 10.367,2.31661  C10.4142,2.13179 10.4614,1.8067 10.5085,1.39655  C10.5556,0.987455 10.6029,0.494072 10.65,0.000163021 " /><path d="M8.7858,2.49744 C8.8071,2.48716 8.82839,2.44759 8.84968,2.37873  C8.8997,2.21856 8.94982,1.89547 8.99984,1.47095  C9.04986,1.04786 9.09997,0.52437 9.15,0.00016021 " /><path id= "33" d=" M 16.45 -1.01684 L 16.45 -3.82332 " />
<path id= "34" d=" M 16.45 -1.01684 L 16.6759 -1.01684 " />
<path d="M7.35,6.21725e-15 C7.3997,-0.520544 7.44945,-1.04045 7.49913,-1.46197  C7.5488,-1.88488 7.59857,-2.20845 7.64825,-2.37188  C7.67022,-2.44491 7.6922,-2.48676 7.7142,-2.49744 " /><path d="M8.85,0.000160163 L8.85001,8.88178e-16 " /><path d="M8.85001,4.44089e-16 C8.92828,-0.822436 9.00655,-1.63077 9.08483,-2.08122  C9.12793,-2.33192 9.1711,-2.47768 9.2142,-2.49744 " /><path d="M10.35,1.14741e-08 C10.3563,-0.0656635 10.3626,-0.131327 10.3688,-0.196991  C10.4538,-1.08883 10.5388,-1.9183 10.6237,-2.27844  C10.6539,-2.40943 10.6841,-2.48243 10.7142,-2.49744 " /><path d="M11.85,5.23494e-10 C11.8796,-0.310052 11.9092,-0.620038 11.9388,-0.908839  C11.9829,-1.3395 12.0271,-1.72195 12.0712,-1.99883  C12.1153,-2.2769 12.1595,-2.44919 12.2036,-2.48992  C12.2071,-2.49243 12.2107,-2.49493 12.2142,-2.49744 " /><path d="M13.35,-1.45103e-10 C13.3935,-0.456058 13.4371,-0.911898 13.4807,-1.30101  C13.5585,-2.00257 13.6363,-2.46652 13.7142,-2.49744 " /><path d="M14.85,-4.52845e-10 C14.9076,-0.603585 14.9652,-1.20454 15.0228,-1.65561  C15.0866,-2.15886 15.1504,-2.47004 15.2142,-2.49744 " /><path d="M16.35,2.10592e-09 C16.3833,-0.34907 16.4167,-0.698035 16.45,-1.01684 " /><path d="M14.85,-3.79803e-11 C14.8769,-1.05854 14.9038,-2.1178 14.9307,-3.11571  C14.971,-4.61522 15.0114,-5.9774 15.0517,-7.03047  C15.092,-8.08645 15.1324,-8.83291 15.1728,-9.1759  C15.1902,-9.32506 15.2076,-9.39976 15.225,-9.4 " /><path d="M15.225,-9.4 C15.275,-9.40418 15.325,-8.76598 15.375,-7.60476 " /><path d="M15.975,9.4 C16.0085,9.40081 16.0419,9.11981 16.0754,8.58119  C16.1088,8.04432 16.1423,7.24904 16.1758,6.2669  C16.2338,4.56617 16.292,2.28804 16.35,2.55557e-10 " /><path d="M13.35,8.91298e-11 C13.3803,-1.1921 13.4106,-2.38516 13.4408,-3.49107  C13.4841,-5.07274 13.5273,-6.47689 13.5706,-7.50089  C13.6138,-8.52901 13.6571,-9.17635 13.7003,-9.34972  C13.7085,-9.38322 13.7168,-9.39998 13.725,-9.4 " /><path d="M13.725,-9.4 C13.775,-9.40406 13.825,-8.76597 13.875,-7.60476 " /><path d="M14.475,9.4 C14.5079,9.40077 14.5408,9.1292 14.5737,8.60805  C14.6066,8.08851 14.6395,7.31886 14.6724,6.36544  C14.7316,4.65393 14.7908,2.33305 14.85,-3.79798e-11 " /><path d="M11.85,-8.06333e-12 C11.908,-2.28677 11.966,-4.56144 12.024,-6.2619  C12.0575,-7.2457 12.091,-8.04193 12.1245,-8.57973  C12.158,-9.11925 12.1915,-9.40083 12.225,-9.4 " /><path d="M12.225,-9.4 C12.275,-9.40421 12.325,-8.76615 12.375,-7.60475 " /><path d="M12.975,9.4 C13.0191,9.40255 13.0632,8.90928 13.1073,7.99277  C13.1293,7.53819 13.1512,6.98154 13.1731,6.34383  C13.2321,4.63465 13.2911,2.32301 13.35,8.91305e-11 " /><path d="M10.35,-2.34248e-11 C10.4107,-2.39339 10.4715,-4.77331 10.5322,-6.49714  C10.5756,-7.73446 10.619,-8.63804 10.6624,-9.07884  C10.6833,-9.29246 10.7041,-9.39952 10.725,-9.4 " /><path d="M10.725,-9.4 C10.775,-9.40428 10.825,-8.76632 10.875,-7.60476 " /><path d="M11.475,9.4 C11.4926,9.39972 11.5101,9.32374 11.5277,9.17209  C11.5704,8.8061 11.6132,7.98617 11.6559,6.8278  C11.6986,5.67298 11.7414,4.18051 11.7841,2.56059  C11.8061,1.72886 11.828,0.864457 11.85,-8.06222e-12 " /><path d="M8.85,1.77636e-15 C8.89312,-1.69851 8.9363,-3.3964 8.97942,-4.84997  C9.02254,-6.30617 9.06572,-7.51708 9.10884,-8.30911  C9.14754,-9.02318 9.1863,-9.40171 9.225,-9.4 " /><path d="M9.225,-9.4 C9.27498,-9.40447 9.32502,-8.76573 9.375,-7.60475 " /><path d="M9.975,9.4 C9.99146,9.3998 10.0079,9.33301 10.0244,9.19962  C10.0639,8.88152 10.1035,8.1752 10.143,7.16611  C10.1826,6.15977 10.2221,4.85105 10.2617,3.39857  C10.2911,2.31895 10.3206,1.159 10.35,-2.34253e-11 " /><path d="M7.35,7.10543e-15 C7.39211,-1.65849 7.43422,-3.31459 7.47633,-4.74517  C7.51977,-6.22339 7.56321,-7.45656 7.60665,-8.26837  C7.64608,-9.00866 7.68557,-9.40181 7.725,-9.4 " /><path d="M7.725,-9.4 C7.77498,-9.40437 7.82501,-8.76592 7.875,-7.60475 " /><path d="M8.475,9.4 C8.51763,9.40224 8.56026,8.9421 8.60289,8.0831  C8.6435,7.26824 8.68412,6.09457 8.72473,4.7094  C8.76648,3.28704 8.80824,1.64468 8.85,1.77636e-15 " /><path id= "61" d=" M 7.35 2.30234e-15 L 7.65 2.30234e-15 " />
<path d="M0.4,0 L0.4,-1.05247  L0.4,-2.0917  L0.4,-3.10462  L0.4,-4.07851  L0.4,-5.0011  L0.4,-5.8608  L0.4,-6.6468  L0.4,-7.34922  L0.4,-7.95921  L0.4,-8.46911  L0.4,-8.8725  L0.4,-9.16432  L0.4,-9.34089  L0.4,-9.4 " /><path d="M0.4,9.4 L0.4,9.34089  L0.4,9.16432  L0.4,8.8725  L0.4,8.46911  L0.4,7.95921  L0.4,7.34922  L0.4,6.6468  L0.4,5.8608  L0.4,5.0011  L0.4,4.07851  L0.4,3.10462  L0.4,2.0917  L0.4,1.05247  L0.4,-3.10932e-14 " /><path d="M4.8566,-9.2401 C5.10124,-9.26429 5.29226,-9.29175 5.45435,-9.31776 " /><path d="M5.45547,-9.31794 C5.51846,-9.32816 5.57698,-9.33815 5.631,-9.3479  C5.69647,-9.35975 5.75396,-9.3706 5.80347,-9.38045  C5.85211,-9.39005 5.89282,-9.39851 5.8993,-9.39985  C5.89953,-9.3999 5.89977,-9.39995 5.9,-9.4 " /><path d="M5.9,-9.4 C5.89958,-9.39992 5.86355,-9.39239 5.81764,-9.38326  C5.77025,-9.37376 5.71512,-9.36326 5.65227,-9.35175  C5.4784,-9.3204 5.26738,-9.28539 4.98286,-9.25334  C4.75097,-9.22911 4.47897,-9.20006 3.99318,-9.19562  C3.54945,-9.1948 3.2653,-9.21938 3.04475,-9.23997  C2.71484,-9.27284 2.48418,-9.31018 2.29119,-9.34394  C2.22265,-9.35618 2.16226,-9.36747 2.11003,-9.37779  C2.05835,-9.38792 2.01376,-9.39715 2.00234,-9.39951  C2.00156,-9.39968 2.00078,-9.39984 2,-9.4 " /><path d="M2,-9.4 C2.00409,-9.39912 2.11738,-9.37558 2.22716,-9.35552  C2.40735,-9.32271 2.62871,-9.2854 2.93275,-9.25161  C3.13138,-9.2306 3.35835,-9.20828 3.72487,-9.19827 " /><path d="M3.73517,-9.19802 Q3.83576,-9.1956 3.94964,-9.19552 " /><path d="M0,0 L0,-1.00768  L0,-2.00269  L0,-2.97251  L0,-3.90495  L0,-4.78829  L0,-5.61141  L0,-6.36396  L0,-7.03648  L0,-7.62052  L0,-8.10872  L0,-8.49495  L0,-8.77435  L0,-8.94341  L0,-9 " /><path d="M0,9 L0,8.94341  L0,8.77435  L0,8.49495  L0,8.10872  L0,7.62052  L0,7.03648  L0,6.36396  L0,5.61141  L0,4.78829  L0,3.90495  L0,2.97251  L0,2.00269  L0,1.00768  L0,-2.97701e-14 " /></g>
</g>



<g id="Ortho_0_1"
   transform="rotate(90,89.6,54.7) translate(89.6,54.7) scale(1,1)"
  >
<g   stroke="rgb(0, 0, 0)"
   stroke-width="0.35"
   stroke-linecap="butt"
   stroke-linejoin="miter"
   fill="none"
   transform="scale(1,-1)"
  >
<circle cx ="0" cy ="0" r ="9.4" /><path d="M9.4,-2.55556e-10 C9.40099,1.31223 9.12167,2.62556 8.58733,3.82332 " /><path d="M-9.39353,-0.348629 Q-9.38716,-0.536222 -9.36786,-0.776626  Q-9.34229,-1.1087 -9.27363,-1.53619 " /><path d="M-9.24814,-1.68284 L-9.24364,-1.70737 " /><path d="M-9.2378,-1.73871 L-9.23763,-1.73958 " /><path d="M-9.21781,-1.84172 Q-9.17552,-2.05175 -9.1314,-2.23103 " /><path d="M-8.82335,-3.24168 C-8.80267,-3.29785 -8.78295,-3.35008 -8.7642,-3.39837  C-8.70972,-3.53932 -8.65596,-3.66526 -8.65449,-3.66876 " /><circle cx ="0" cy ="0" r ="9" /><path d="M2.5,-6.21725e-15 C2.5039,0.7249 2.1713,1.44245 1.61566,1.90779 " /><path d="M1.6005,1.92052 L1.59396,1.92595 " /><path d="M1.45245,2.0348 L1.40338,2.06894 " /><path d="M1.32606,2.11933 L1.31791,2.12441 " /><path d="M1.27138,-2.15258 Q1.39124,-2.08178 1.5025,-1.99812 " /><path d="M1.50732,-1.99449 L1.56215,-1.95184 " /><path d="M1.9003,-1.62446 L1.90068,-1.62402 " /><path d="M1.90171,-1.6228 L1.90208,-1.62238 " /><path d="M1.91249,-1.61008 L1.91281,-1.60971 " /><path d="M1.91389,-1.60842 L1.91411,-1.60816 " /><path d="M1.92458,-1.59562 L1.92486,-1.59527 " /><path d="M1.92596,-1.59395 L1.92608,-1.59381 " /><path d="M1.93654,-1.58107 L1.93686,-1.58069 " /><path d="M1.94841,-1.56643 L1.94883,-1.5659 " /><path d="M1.94977,-1.56473 Q2.09963,-1.37791 2.2114,-1.16606 " /><path d="M2.22287,-1.14405 L2.22543,-1.13906 " /><path d="M2.22578,-1.13838 L2.23143,-1.12726 " /><path d="M2.23432,-1.12153 L2.23589,-1.11838 " /><path d="M2.23995,-1.11023 L2.24179,-1.10652 " /><path d="M2.24554,-1.0989 L2.24762,-1.09463 " /><path d="M2.25106,-1.08754 L2.25339,-1.08271 " /><path d="M2.25652,-1.07615 L2.25909,-1.07075 " /><path d="M2.26193,-1.06474 L2.26892,-1.04977 " /><path d="M2.26996,-1.04752 L2.27169,-1.04375 " /><path d="M2.2726,-1.04178 L2.27719,-1.0317 " /><path d="M2.27783,-1.03029 L2.28262,-1.01963 " /><path d="M2.28301,-1.01877 L2.28799,-1.00752 " /><path d="M2.28812,-1.00722 L2.29198,-0.998421 " /><path d="M2.29318,-0.99565 L2.29593,-0.989307 " /><path d="M2.29664,-0.987653 L2.30113,-0.977131 " /><path d="M2.30139,-0.976527 L2.305,-0.96798 " /><path d="M2.30609,-0.96538 L2.31009,-0.955756 " /><path d="M2.31095,-0.953671 L2.31387,-0.946571 " /><path d="M2.31467,-0.944615 L2.31512,-0.943506 " /><path d="M2.31517,-0.943394 Q2.36528,-0.820412 2.40208,-0.692817 " /><path d="M2.4135,-0.651939 L2.41389,-0.650503 " /><path d="M2.4186,-0.632741 L2.41936,-0.629856 " /><path d="M2.42517,-0.607081 L2.42575,-0.604757 " /><path d="M2.45763,-0.458301 L2.46733,-0.402857 " /><path d="M2.46747,-0.402015 L2.46839,-0.39632 " /><path d="M2.46869,-0.394433 L2.46891,-0.393051 " /><path d="M2.46901,-0.392442 Q2.48474,-0.293426 2.4925,-0.193469 " /><path d="M1.31791,2.12441 C1.15149,2.22753 0.975545,2.31002 0.790065,2.37188  C0.284501,2.54161 -0.276471,2.54251 -0.782467,2.37439  C-1.28928,2.20875 -1.73979,1.87452 -2.04539,1.43749  C-2.35379,1.00089 -2.51565,0.462286 -2.49897,-0.0718913  C-2.48491,-0.606144 -2.29236,-1.13456 -1.95936,-1.55271  C-1.69545,-1.88652 -1.3446,-2.15072 -0.950855,-2.31211  C-0.477215,-2.50801 0.0573966,-2.55237 0.556889,-2.43719  C1.10595,-2.31324 1.60873,-1.99654 1.95765,-1.55486  C2.30693,-1.11742 2.50144,-0.559769 2.5,-7.77156e-16 " /><path d="M2.5,-4.44089e-16 Q2.49999,0.166223 2.47798,0.331094 " /><path d="M2.20755,1.17334 C1.93376,1.69202 1.47085,2.10703 0.925013,2.32257 " /><path d="M-1.78587,-1.74948 Q-1.64065,-1.89768 -1.47297,-2.01999 " /><path d="M-1.47284,-2.02008 L-1.46664,-2.02459 " /><path d="M-1.1353,-2.22735 Q-0.88343,-2.35561 -0.609434,-2.42458 " /><path d="M-0.329839,-2.47815 L-0.299994,-2.48194 " /><path d="M-0.298626,-2.4821 L-0.291048,-2.483 " /><path d="M-0.30642,-2.48115 L-0.291032,-2.483 " /><path d="M-0.0346517,-2.49976 L-0.00267684,-2.5 " /><path d="M0.926779,-2.32187 L0.934186,-2.3189 " /><path d="M1.26386,-2.157 L1.26504,-2.15631 " /><path d="M1.29482,-2.13856 L1.30029,-2.13524 " /><path d="M1.30171,-2.13437 L1.30719,-2.13102 " /><path d="M1.30858,-2.13017 L1.31407,-2.12678 " /><path d="M1.31544,-2.12594 L1.31751,-2.12466 " /><path d="M1.3179,-2.12442 L1.31923,-2.12359 " /><path d="M1.31962,-2.12335 L1.32095,-2.12252 " /><path d="M1.33596,-2.11311 L1.33798,-2.11183 " /><path d="M1.33977,-2.11069 L1.34109,-2.10985 " /><path d="M1.34148,-2.10961 L1.3428,-2.10877 " /><path d="M1.36781,-2.09263 L1.37034,-2.09098 " /><path d="M1.37184,-2.08999 L1.37372,-2.08876 " /><path d="M1.37443,-2.08829 L1.37709,-2.08653 " /><path d="M1.37841,-2.08566 L1.38046,-2.0843 " /><path d="M1.38105,-2.08391 L1.38551,-2.08095 " /><path d="M1.38662,-2.08021 L1.39223,-2.07646 " /><path d="M1.39316,-2.07584 L1.39895,-2.07194 " /><path d="M1.39969,-2.07144 L1.40062,-2.07081 " /><path d="M1.40089,-2.07063 Q1.69033,-1.87449 1.91506,-1.60703 " /><path d="M2.3124,-0.950169 Q2.35081,-0.856681 2.38155,-0.760396 " /><path d="M2.49741,-0.113779 L2.5,-1.14741e-08 " /><path d="M2.5,-5.23494e-10 L2.49933,0.0578928 " /><path d="M2.4844,0.278813 L2.48244,0.295796 " /><path d="M2.4823,0.29693 L2.48192,0.300094 " /><path d="M2.48185,0.300725 L2.48158,0.302959 " /><path d="M2.48154,0.303266 Q2.45375,0.530237 2.38535,0.748414 " /><path d="M2.28545,1.01326 C2.11602,1.39661 1.84787,1.73591 1.5142,1.98927 " /><path d="M-1.59265,1.92703 L-1.63451,1.89166 " /><path d="M-1.74754,1.78777 L-1.76084,1.77467 " /><path d="M-1.84663,1.68522 Q-1.97017,1.54981 -2.07259,1.39798 " /><path d="M-2.07259,1.39798 Q-2.27405,1.09887 -2.38333,0.754806 " /><path d="M-1.16363,-2.21268 C-0.859062,-2.37311 -0.520739,-2.46952 -0.177267,-2.49371 " /><path d="M2.4563,-0.465406 Q2.48648,-0.306028 2.49584,-0.144123 " /><path d="M2.46305,0.428223 L2.45464,0.474054 " /><path d="M-1.59266,1.92703 Q-1.87054,1.69703 -2.07259,1.39798 " /><path d="M-2.09877,1.35837 L-2.15414,1.26873 " /><path d="M-2.15362,1.26961 L-2.15414,1.26873 " /><path d="M-2.17919,1.22521 L-2.18593,1.21314 " /><path d="M-2.26209,1.06441 L-2.30009,0.979579 " /><path d="M-2.37395,0.783805 L-2.38333,0.754806 " /><path d="M-1.91948,-1.60174 Q-1.82271,-1.7177 -1.71269,-1.82118 " /><path d="M-1.69276,-1.83972 L-1.62043,-1.90373 " /><path d="M-1.82403,-1.70965 Q-1.68035,-1.86291 -1.51293,-1.99024 " /><path d="M-1.3889,-2.07869 L-1.33628,-2.1129 " /><path d="M-1.16363,-2.21268 Q-0.801326,-2.40269 -0.397642,-2.46817 " /><path d="M0.964357,-2.30652 C1.57223,-2.05528 2.06985,-1.55294 2.31541,-0.942801  C2.43702,-0.644634 2.50019,-0.322193 2.5,4.52845e-10 " /><path d="M2.5,4.52845e-10 C2.502,0.603585 2.27449,1.20454 1.87322,1.65561  C1.57554,1.99339 1.18419,2.24804 0.754806,2.38333 " /><path d="M-1.74051,1.79461 Q-1.91851,1.62189 -2.05922,1.41761 " /><path d="M-1.39198,-2.07663 C-0.853414,-2.44077 -0.169415,-2.58007 0.468733,-2.45566  C0.902406,-2.3735 1.31339,-2.17323 1.6453,-1.88229  C1.97802,-1.59227 2.23148,-1.21175 2.37091,-0.792971  C2.45667,-0.53561 2.4997,-0.271286 2.5,-2.10592e-09 " /><path d="M9.38966,0.44081 Q9.33788,1.53384 9.03737,2.58573 " /><path d="M8.86516,3.12552 Q8.78518,3.35238 8.69366,3.57496 " /><path d="M8.69339,3.57562 L8.61589,3.75851 " /><path d="M8.58733,3.82332 C7.99371,5.15983 7.08218,6.3533 5.94967,7.27746  C4.81897,8.2037 3.46733,8.86001 2.04033,9.1759  C1.40988,9.31589 0.771774,9.39031 0.12601,9.39916 " /><path d="M-2.55024,9.04744 L-2.61019,9.03033 " /><path d="M-2.70246,9.00315 L-2.88927,8.94495 " /><path d="M-2.95018,8.92505 L-3.02428,8.90021 " /><path d="M-3.06122,8.88757 L-3.19816,8.83922 " /><path d="M-3.66876,8.65449 C-4.99721,8.09268 -6.19229,7.21936 -7.13109,6.12434  C-7.83819,5.30167 -8.4014,4.35455 -8.78654,3.34016  C-9.17248,2.326 -9.3806,1.24474 -9.39865,0.159586 " /><path d="M-8.65449,-3.66876 C-8.11998,-4.93213 -7.30472,-6.07447 -6.28449,-6.99037  C-5.26579,-7.90773 -4.04182,-8.59784 -2.73004,-8.99483  C-1.02848,-9.5144 0.82386,-9.53436 2.53606,-9.05143  C4.24992,-8.57444 5.82224,-7.59494 7.00614,-6.2669  C7.76824,-5.41576 8.37392,-4.42219 8.78131,-3.3539  C9.18973,-2.28582 9.40046,-1.14334 9.4,-2.55557e-10 " /><path d="M9.4,-8.91298e-11 C9.40069,1.1921 9.17077,2.38516 8.72768,3.49107  C8.09772,5.07274 7.02544,6.47689 5.66539,7.50089  C4.30845,8.52901 2.66462,9.17635 0.970975,9.34972  C0.652899,9.38274 0.333848,9.3995 0.0138224,9.39999 " /><path d="M0.0129394,9.39999 L-0.0951648,9.39952 " /><path d="M-0.312214,9.39481 L-0.468569,9.38831 " /><path d="M-0.476443,9.38792 Q-0.935581,9.3646 -1.39023,9.29663 " /><path d="M-3.17597,8.84721 C-4.85543,8.24751 -6.35605,7.15519 -7.44306,5.74116  C-8.68639,4.13694 -9.38471,2.12035 -9.39956,0.0908984 " /><path d="M-9.39957,0.0901915 L-9.39999,0.0116177 " /><path d="M-9.3998,0.0606901 L-9.4,0.00790512 " /><path d="M-9.4,0.00687393 Q-9.40014,-0.188245 -9.39219,-0.383213 " /><path d="M-9.38464,-0.537075 Q-9.36199,-0.932828 -9.30611,-1.32527 " /><path d="M-9.16597,-2.08446 L-9.15237,-2.14339 " /><path d="M-9.10055,-2.35373 L-9.06647,-2.48176 " /><path d="M-9.05042,-2.53967 Q-8.90127,-3.07107 -8.69102,-3.58136 " /><path d="M-8.65449,-3.66876 C-8.52388,-3.97683 -8.37725,-4.27707 -8.2146,-4.5695  C-7.57629,-5.7188 -6.69268,-6.73151 -5.64049,-7.51963  C-4.58937,-8.3092 -3.36985,-8.87406 -2.08783,-9.1652  C-0.483249,-9.53298 1.2197,-9.46702 2.79094,-8.97611  C4.36352,-8.4895 5.80357,-7.57823 6.91673,-6.36544  C7.70597,-5.50875 8.33436,-4.50203 8.75732,-3.41605  C9.18136,-2.33035 9.4005,-1.16568 9.4,3.79803e-11 " /><path d="M9.4,8.06244e-12 C9.40038,1.07135 9.21547,2.14243 8.85592,3.15163  C8.44974,4.2948 7.81923,5.35751 7.0106,6.2619  C6.02051,7.37261 4.76042,8.24265 3.37081,8.77483  C1.98215,9.30979 0.464727,9.50722 -1.01539,9.345 " /><path d="M-3.66876,8.65449 C-4.94681,8.11381 -6.10098,7.28567 -7.02221,6.24889  C-7.94498,5.2137 -8.63401,3.96963 -9.02209,2.63854  C-9.32318,1.61049 -9.44646,0.529663 -9.38447,-0.540059 " /><path d="M-8.70042,-3.55846 C-8.37949,-4.34359 -7.9513,-5.08515 -7.43206,-5.75539  C-6.53069,-6.92163 -5.34919,-7.87054 -4.01595,-8.49895  C-2.68392,-9.12994 -1.20064,-9.4402 0.27265,-9.39605  C0.848941,-9.37921 1.4189,-9.31005 1.98252,-9.18856  C3.87563,-8.7841 5.6329,-7.77507 6.93655,-6.34383  C7.71975,-5.48836 8.34316,-4.48444 8.76265,-3.40233  C9.18324,-2.32047 9.40049,-1.16072 9.4,-8.913e-11 " /><path d="M-2.07259,1.39798 L-2.07786,1.39014 " /><path d="M-2.13107,1.30711 Q-2.17364,1.23802 -2.21587,1.15754 " /><path d="M-2.26753,1.05277 L-2.30586,0.965933 " /><path d="M-2.35193,0.847608 L-2.35204,0.847286 " /><path d="M-2.35214,0.847006 L-2.38333,0.754806 " /><path d="M-1.79687,-1.73817 L-1.75628,-1.77918 " /><path d="M-1.73715,-1.79786 C-1.57998,-1.95052 -1.41397,-2.06753 -1.28498,-2.14449  C-1.22378,-2.18134 -1.16446,-2.21225 -1.16363,-2.21268 " /><path d="M-1.16363,-2.21268 C-1.16375,-2.2126 -1.20651,-2.19037 -1.25456,-2.16242  C-1.31875,-2.12532 -1.40247,-2.07233 -1.48573,-2.01062  C-1.56885,-1.95011 -1.65516,-1.87676 -1.74465,-1.79058  C-1.80559,-1.73158 -1.86639,-1.6656 -1.92703,-1.59265 " /><path d="M-2.38333,0.754806 C-2.35964,0.828723 -2.33515,0.895903 -2.30985,0.956346  C-2.23459,1.13746 -2.15239,1.27915 -2.07259,1.39798 " /><path d="M1.61566,1.90778 C1.61593,1.90751 1.58667,1.93261 1.54786,1.9632  C1.49671,2.00438 1.4311,2.05115 1.35103,2.1035  C1.27351,2.1541 1.18319,2.20448 1.08006,2.25465  C0.986258,2.30053 0.877839,2.34343 0.754806,2.38333 " /><path d="M-1.73817,1.79687 L-1.76217,1.77335 " /><path d="M-1.79345,1.7417 L-1.86071,1.66965 " /><path d="M-0.383086,2.47047 C-0.392246,2.469 -0.401407,2.46753 -0.410567,2.46606  C-0.76228,2.40637 -1.02616,2.29066 -1.22915,2.17697  C-1.43275,2.06096 -1.57806,1.94617 -1.7087,1.82492  C-1.76495,1.77197 -1.81562,1.72021 -1.86071,1.66965 " /><path d="M-0.385196,2.47015 C-0.393653,2.46878 -0.40211,2.46742 -0.410567,2.46606  C-0.76228,2.40637 -1.02616,2.29066 -1.22915,2.17697  C-1.43275,2.06096 -1.57806,1.94617 -1.7087,1.82492  C-1.8669,1.67636 -1.98053,1.53371 -2.07259,1.39798 " /><circle cx ="0" cy ="0" r ="2.9" /><circle cx ="0" cy ="0" r ="2.5" /><path d="M1.65088,1.87739 Q1.60861,1.91463 1.56126,1.95256 " /><path d="M1.45749,2.03118 L1.41456,2.06131 " /><path d="M1.31403,2.12681 L1.22774,2.17776 " /><path d="M-9.19552,-1.95 C-9.19561,-1.94953 -9.20327,-1.91364 -9.21237,-1.86875  C-9.2218,-1.82262 -9.23226,-1.76863 -9.24375,-1.70675  C-9.2581,-1.62987 -9.27298,-1.54234 -9.2884,-1.44416 " /><path d="M-9.33598,-1.0952 C-9.35829,-0.898183 -9.38012,-0.688198 -9.39366,-0.345198 " /><path d="M-9.39801,0.193486 Q-9.38985,0.513554 -9.3719,0.726232 " /><path d="M-9.35744,0.89346 Q-9.35169,0.95352 -9.34567,1.00914 " /><path d="M-9.29922,1.37276 Q-9.28923,1.4403 -9.2793,1.50153 " /><path d="M-9.27426,1.53234 L-9.27161,1.54833 " /><path d="M-9.26236,1.60272 L-9.26099,1.6106 " /><path d="M-9.25964,1.61835 L-9.2567,1.63508 " /><path d="M-9.2538,1.65145 L-9.24187,1.71694 " /><path d="M-9.2416,1.71835 L-9.23326,1.76267 " /><path d="M-9.23177,1.77042 L-9.22197,1.82078 " /><path d="M-9.19661,1.94481 Q-9.19553,1.94993 -9.19552,1.95 " /><path d="M-9.19552,1.95 Q-9.19635,1.94633 -9.20672,1.89638 " /><path d="M-9.20028,1.92737 Q-9.20825,1.88968 -9.22128,1.8243 " /><path d="M-9.23097,1.77459 L-9.24119,1.72059 " /><path d="M-0.380093,9.39231 Q-0.312252,9.39508 -0.23732,9.397 " /><path d="M0.535099,9.38476 L0.562048,9.38318 " /><path d="M0.373805,9.39256 Q0.484687,9.38806 0.579366,9.38213 " /><path d="M0.232174,9.39713 Q0.453639,9.39108 0.619757,9.37955 " /><path d="M0.294795,9.39538 Q0.556576,9.38621 0.74012,9.37082 " /><path d="M0.705902,9.37346 L0.791143,9.36665 " /><path d="M0.792034,9.36657 C0.997259,9.34911 1.16102,9.32903 1.30453,9.30904 " /><path d="M1.27385,9.31329 Q1.37763,9.29902 1.46736,9.28477 " /><path d="M1.64914,9.25421 L1.65099,9.25388 " /><path d="M1.6515,9.25379 Q1.69539,9.24594 1.73385,9.23871 " /><path d="M1.53562,9.27372 Q1.73182,9.24057 1.85673,9.2148 " /><path d="M1.61901,9.25953 Q1.49788,9.28091 1.34869,9.30274 " /><path d="M1.36982,9.29966 L1.34869,9.30274 " /><path d="M1.27219,9.31351 L1.2223,9.32019 " /><path d="M1.18915,9.32448 Q1.1366,9.33119 1.0796,9.3378 " /><path d="M0.453685,9.38905 Q0.317694,9.39587 0.149949,9.3988 " /><path d="M0.121063,9.39922 L0.0921167,9.39955 " /><path d="M0.0918838,9.39955 L0.0918463,9.39955 " /><path d="M0.0599712,9.39981 L-0.0221685,9.39997 " /><path d="M-0.211399,2.19552 L-0.104696,2.19552  L0.00232299,2.19552  L0.109335,2.19552  L0.216017,2.19552  L0.322048,2.19552  L0.427108,2.19552  L0.530881,2.19552  L0.633054,2.19552  L0.733319,2.19552  L0.831374,2.19552  L0.926922,2.19552  L1.01968,2.19552  L1.10936,2.19552  L1.1957,2.19552 " /><path d="M-0.725854,2.09552 L-0.573524,2.09552  L-0.416758,2.09552  L-0.256767,2.09552  L-0.0947897,2.09552  L0.0679207,2.09552  L0.230106,2.09552  L0.39051,2.09552  L0.547894,2.09552  L0.70104,2.09552  L0.848762,2.09552  L0.989919,2.09552  L1.12342,2.09552  L1.24822,2.09552  L1.36338,2.09552 " /><path d="M-2.19552,-0.211399 L-2.19552,-0.104696  L-2.19552,0.00232298  L-2.19552,0.109335  L-2.19552,0.216017  L-2.19552,0.322048  L-2.19552,0.427108  L-2.19552,0.530881  L-2.19552,0.633054  L-2.19552,0.733319  L-2.19552,0.831374  L-2.19552,0.926922  L-2.19552,1.01968  L-2.19552,1.10936  L-2.19552,1.1957 " /><path d="M-2.09552,-0.725854 L-2.09552,-0.573524  L-2.09552,-0.416758  L-2.09552,-0.256767  L-2.09552,-0.0947897  L-2.09552,0.0679206  L-2.09552,0.230106  L-2.09552,0.39051  L-2.09552,0.547894  L-2.09552,0.70104  L-2.09552,0.848762  L-2.09552,0.989918  L-2.09552,1.12342  L-2.09552,1.24822  L-2.09552,1.36338 " /><path id= "194" d=" M -1.59266 1.92703 L 0.754806 2.38333 " />
<path id= "195" d=" M -1.73817 1.79687 L 0.938485 2.31716 " />
<path id= "196" d=" M -1.92703 -1.59266 L -2.38333 0.754806 " />
<path id= "197" d=" M -1.79687 -1.73817 L -2.31716 0.938485 " />
</g>
</g>



<g id="Ortho_1_0"
   transform="rotate(-90,207.4,183.5) translate(207.4,183.5) scale(1,1)"
  >
<g   stroke="rgb(0, 0, 0)"
   stroke-width="0.35"
   stroke-linecap="butt"
   stroke-linejoin="miter"
   fill="none"
   transform="scale(1,-1)"
  >
<path id= "1" d=" M 15.9 -9.4 L 20.0348 -9.4 " />
<path id= "2" d=" M 21.5652 -9.4 L 24.3 -9.4 " />
<path id= "3" d=" M 24.7 -9 L 24.3 -9.4 " />
<path d="M11.025,-6.33031e-05 L11.025,4.48213e-05 " /><path d="M7.72501,3.58103e-05 L7.72498,0.00061919 " /><path d="M9.22501,4.80565e-05 L9.22499,0.000585142 " /><path d="M12.225,3.64849e-05 L12.225,0.0006418 " /><path d="M13.725,4.64344e-05 L13.725,0.000623062 " /><path d="M15.225,3.90354e-05 L15.225,0.000346772 " /><path id= "10" d=" M 14.4 -9.4 L 15.6 -9.4 " />
<path id= "11" d=" M 8.4 -9.4 L 9.6 -9.4 " />
<path id= "12" d=" M 9.9 -9.4 L 11.1 -9.4 " />
<path id= "13" d=" M 11.4 -9.4 L 12.6 -9.4 " />
<path id= "14" d=" M 12.9 -9.4 L 14.1 -9.4 " />
<path id= "15" d=" M 15.2893 -2.5 L 15.5893 -2.5 " />
<path id= "16" d=" M 13.7893 -2.5 L 14.0893 -2.5 " />
<path id= "17" d=" M 12.2893 -2.5 L 12.5893 -2.5 " />
<path id= "18" d=" M 7.78927 -2.5 L 8.08927 -2.5 " />
<path id= "19" d=" M 0.4 -9.4 L 2 -9.4 " />
<path id= "20" d=" M 5.9 -9.4 L 8.1 -9.4 " />
<path id= "21" d=" M 0 -9 L 0.4 -9.4 " />
<path id= "22" d=" M 18.9 -1.36094 L 18.9 -1.56379 " />
</g>
<g   stroke="rgb(0, 0, 0)"
   stroke-width="0.35"
   stroke-linecap="butt"
   stroke-linejoin="miter"
   fill="none"
   transform="scale(1,-1)"
  >
<path id= "1" d=" M 16.65 9.4 L 24.3 9.4 " />
<path d="M24.3,9.4 L24.3,9.16432  L24.3,8.46911  L24.3,7.34922  L24.3,5.8608  L24.3,4.07851  L24.3,2.0917  L24.3,5.75584e-16  L24.3,-2.0917  L24.3,-4.07851  L24.3,-5.8608  L24.3,-7.34922  L24.3,-8.46911  L24.3,-9.16432  L24.3,-9.4 " /><path d="M16.65,9.4 C16.6833,9.40086 16.7167,9.12198 16.75,8.58733 " /><path id= "4" d=" M 16.45 8.58733 L 16.75 8.58733 " />
<path d="M15.15,9.4 C15.1597,9.39996 15.1695,9.37656 15.1792,9.3298  C15.2144,9.1617 15.2497,8.68291 15.2849,7.93952  C15.3201,7.19802 15.3553,6.1921 15.3905,5.01888  C15.4354,3.5277 15.4802,1.76568 15.525,0.000346622 " /><path d="M15.525,0.000346622 C15.5614,-1.4334 15.5978,-2.86595 15.6342,-4.15168  C15.677,-5.66614 15.7199,-6.97355 15.7627,-7.88868  C15.8056,-8.80798 15.8484,-9.33446 15.8913,-9.39372  C15.8942,-9.3979 15.8971,-9.4 15.9,-9.4 " /><path d="M16.55,8.58733 C16.5833,9.12206 16.6167,9.40081 16.65,9.4 " /><path d="M16.35,9.4 C16.3833,9.40099 16.4167,9.12167 16.45,8.58733 " /><path id= "9" d=" M 15.15 9.4 L 16.35 9.4 " />
<path d="M21.5652,-9.4 Q21.2577,-9.39938 20.8432,-9.39865  Q20.3777,-9.39918 20.0348,-9.4 " /><path d="M20.8,-3.66876 C21.202,-3.66663 21.5079,-3.56071 21.7431,-3.43919  C22.0709,-3.26463 22.3035,-3.0392 22.481,-2.7538  C22.6321,-2.50296 22.7471,-2.19629 22.75,-1.7936 " /><path d="M22.75,-1.7936 C22.7511,-1.45101 22.6526,-1.11771 22.5023,-0.85068  C22.3392,-0.559902 22.1161,-0.323679 21.8329,-0.142012  C21.573,0.0211757 21.2499,0.147761 20.8432,0.159097  C20.4678,0.166962 20.1477,0.0669365 19.8948,-0.0676562  C19.5753,-0.242137 19.3241,-0.47846 19.1412,-0.776626  C18.9805,-1.03687 18.8695,-1.35382 18.8523,-1.69972  C18.8516,-1.73102 18.8508,-1.76231 18.85,-1.7936 " /><path d="M18.85,-1.7936 C18.8513,-2.15451 18.9486,-2.44655 19.0772,-2.68174  C19.2444,-2.98037 19.4694,-3.21383 19.7827,-3.39837  C20.0305,-3.53932 20.354,-3.66526 20.8,-3.66876 " /><path id= "14" d=" M 24.3 9.4 L 24.7 9 " />
<path d="M24.7,9 L24.7,8.77435  L24.7,8.10872  L24.7,7.03648  L24.7,5.61141  L24.7,3.90495  L24.7,2.00269  L24.7,5.51091e-16  L24.7,-2.00269  L24.7,-3.90495  L24.7,-5.61141  L24.7,-7.03648  L24.7,-8.10872  L24.7,-8.77435  L24.7,-9 " /><path d="M7.65,9.4 C7.69069,9.40186 7.73138,8.98351 7.77207,8.19771  C7.81182,7.43325 7.85156,6.32051 7.8913,4.99344  C7.93586,3.50809 7.98044,1.75534 8.02498,0.000619297 " /><path d="M8.02498,0.000619297 C8.06118,-1.42484 8.09741,-2.85027 8.1336,-4.13011  C8.17721,-5.67439 8.22087,-7.00436 8.26448,-7.92572  C8.30809,-8.85148 8.35175,-9.36742 8.39536,-9.39823  C8.39691,-9.39882 8.39846,-9.39941 8.4,-9.4 " /><path d="M9,7.60475 C9.05,8.766 9.1,9.40418 9.15,9.4 " /><path d="M9.15,9.4 C9.19271,9.40235 9.23546,8.93991 9.27817,8.0775  C9.32088,7.21921 9.36363,5.96203 9.40634,4.48211  C9.44587,3.11466 9.48546,1.5575 9.52499,0.000584863 " /><path d="M9.52499,0.000584863 C9.57877,-2.11871 9.63261,-4.23213 9.68641,-5.88207  C9.71714,-6.82652 9.74788,-7.62231 9.77862,-8.21093  C9.80935,-8.80065 9.8401,-9.18302 9.87083,-9.32991  C9.88055,-9.37662 9.89028,-9.39998 9.9,-9.4 " /><path d="M10.5,7.60475 C10.55,8.7657 10.6,9.40431 10.65,9.4 " /><path d="M10.65,9.4 C10.6877,9.40144 10.7255,9.04257 10.7632,8.36293  C10.8009,7.68591 10.8387,6.6884 10.8764,5.48052  C10.9259,3.89742 10.9755,1.95137 11.025,-6.2526e-05 " /><path d="M11.025,-6.2526e-05 C11.0559,-1.21873 11.0869,-2.43685 11.1178,-3.56427  C11.1614,-5.15414 11.2051,-6.55941 11.2487,-7.57414  C11.2923,-8.59315 11.3359,-9.22087 11.3795,-9.36543  C11.3863,-9.38846 11.3932,-9.39999 11.4,-9.4 " /><path d="M12,7.60476 C12.05,8.76582 12.1,9.40437 12.15,9.4 " /><path d="M12.15,9.4 C12.1874,9.40134 12.2248,9.04877 12.2622,8.38005  C12.2756,8.14056 12.2895,7.85961 12.3073,7.43306  C12.3161,7.21951 12.3254,6.97974 12.3351,6.71373  C12.3446,6.45155 12.3542,6.16964 12.3624,5.91973  C12.4166,4.26443 12.4708,2.13588 12.525,0.000642176 " /><path d="M12.525,0.000642176 C12.558,-1.30134 12.5912,-2.60426 12.6242,-3.79461  C12.6694,-5.42411 12.7146,-6.842 12.7598,-7.82541  C12.805,-8.81395 12.8502,-9.36716 12.8954,-9.39827  C12.897,-9.39885 12.8985,-9.39942 12.9,-9.4 " /><path d="M13.5,7.60475 C13.55,8.76592 13.6,9.40404 13.65,9.4 " /><path d="M13.65,9.4 C13.6861,9.40111 13.7222,9.07284 13.7584,8.44826  C13.7945,7.82598 13.8306,6.90658 13.8667,5.7854  C13.9195,4.15053 13.9722,2.0786 14.025,0.000623274 " /><path d="M14.025,0.000623274 C14.0566,-1.24585 14.0883,-2.49309 14.12,-3.64153  C14.1644,-5.2573 14.209,-6.67662 14.2534,-7.68323  C14.2979,-8.69456 14.3424,-9.29238 14.3869,-9.3858  C14.3913,-9.39527 14.3956,-9.4 14.4,-9.4 " /><path d="M15,7.60476 C15.05,8.76579 15.1,9.40406 15.15,9.4 " /><path d="M15.1608,2.49745 C15.2251,2.47001 15.2894,2.15407 15.3537,1.64424  C15.4108,1.19455 15.4679,0.598882 15.525,0.00031529 " /><path d="M13.6608,2.49745 C13.6967,2.47905 13.7326,2.37937 13.7685,2.19839  C13.854,1.77767 13.9395,0.900092 14.025,0.00035094 " /><path d="M12.1608,2.49744 C12.1822,2.48709 12.2037,2.44707 12.2251,2.37738  C12.2679,2.23918 12.3108,1.98271 12.3537,1.64427  C12.3965,1.30671 12.4394,0.887398 12.4822,0.445743  C12.4965,0.298561 12.5107,0.150094 12.525,0.00034406 " /><path d="M10.6608,2.49745 C10.7032,2.478 10.7455,2.33725 10.7879,2.09466  C10.8302,1.85313 10.8726,1.5098 10.9149,1.1124  C10.9516,0.768366 10.9883,0.384377 11.025,4.48723e-05 " /><path d="M9.1608,2.49745 C9.20553,2.47701 9.25028,2.32089 9.29499,2.05301  C9.3397,1.78639 9.38447,1.4083 9.42918,0.976855  C9.46109,0.669244 9.49306,0.334606 9.525,0.000164483 " /><path d="M7.6608,2.49744 C7.70829,2.47589 7.75579,2.30088 7.80324,2.0025  C7.85068,1.7057 7.89822,1.28596 7.94567,0.815701  C7.9721,0.551589 7.99854,0.279742 8.025,0.000158569 " /><path id= "37" d=" M 7.65 9.4 L 7.65 2.9048 " />
<path d="M7.725,0.000158699 L7.72501,3.59963e-05 " /><path d="M7.72501,3.59963e-05 C7.80125,-0.800863 7.87751,-1.58943 7.95377,-2.04539  C7.99888,-2.3178 8.04408,-2.47687 8.0892,-2.49744 " /><path d="M9.22501,4.80906e-05 C9.26903,-0.461164 9.31313,-0.922296 9.35716,-1.31426  C9.43451,-2.00869 9.51187,-2.46668 9.5892,-2.49744 " /><path d="M10.725,2.20844e-05 C10.7788,-0.563877 10.8326,-1.12556 10.8864,-1.56447  C10.954,-2.11983 11.0216,-2.46895 11.0892,-2.49744 " /><path d="M12.225,3.63577e-05 C12.3043,-0.83292 12.3835,-1.65048 12.4627,-2.09795  C12.5049,-2.3385 12.5471,-2.47807 12.5892,-2.49744 " /><path d="M13.725,4.66137e-05 C13.7342,-0.0958932 13.7434,-0.191833 13.7526,-0.287773  C13.7972,-0.752283 13.8419,-1.20101 13.8865,-1.56507  C13.9311,-1.93012 13.9758,-2.21023 14.0205,-2.36245  C14.0434,-2.44132 14.0663,-2.48631 14.0892,-2.49744 " /><path d="M15.225,3.89914e-05 C15.259,-0.355499 15.2928,-0.710253 15.3267,-1.03347  C15.3892,-1.63037 15.4515,-2.11095 15.5139,-2.33929  C15.539,-2.43244 15.5641,-2.48515 15.5892,-2.49744 " /><path d="M14.85,9.4 C14.8769,9.3986 14.9038,9.22148 14.9307,8.86862  C14.971,8.34382 15.0114,7.42908 15.0517,6.23959  C15.092,5.05269 15.1324,3.59156 15.1728,2.04033  C15.1902,1.36852 15.2076,0.688526 15.225,0.000346858 " /><path d="M15.225,0.000346858 C15.2698,-1.76329 15.3145,-3.52359 15.3593,-5.01386  C15.3831,-5.80541 15.4068,-6.52166 15.4306,-7.13109  C15.4588,-7.85555 15.4871,-8.42887 15.5153,-8.81458  C15.5435,-9.20322 15.5718,-9.39837 15.6,-9.4 " /><path d="M15.6,-9.4 C15.65,-9.40434 15.7,-8.76626 15.75,-7.60476 " /><path d="M13.35,9.4 C13.3803,9.39778 13.4106,9.17367 13.4408,8.72768  C13.4841,8.09772 13.5273,7.02544 13.5706,5.66539  C13.6138,4.30845 13.6571,2.66462 13.7003,0.970975  C13.7085,0.647525 13.7168,0.324074 13.725,0.000622807 " /><path d="M13.725,0.000622807 C13.7614,-1.43163 13.7977,-2.8624 13.8341,-4.1466  C13.8704,-5.43182 13.9068,-6.56987 13.9431,-7.44306  C13.9954,-8.70518 14.0477,-9.40505 14.1,-9.4 " /><path d="M14.1,-9.4 C14.15,-9.40394 14.2,-8.76592 14.25,-7.60476 " /><path d="M11.85,9.4 C11.8772,9.3986 11.9044,9.21724 11.9316,8.85592  C11.9624,8.44974 11.9932,7.81923 12.024,7.0106  C12.091,5.26007 12.158,2.64298 12.225,0.000641588 " /><path d="M12.225,0.000641588 C12.2419,-0.668947 12.2589,-1.33071 12.2758,-1.98464  C12.3185,-3.62899 12.3612,-5.17464 12.4039,-6.40401  C12.4466,-7.6367 12.4894,-8.5523 12.5321,-9.02209  C12.5547,-9.27333 12.5774,-9.3993 12.6,-9.4 " /><path d="M12.6,-9.4 C12.65,-9.4042 12.7,-8.7661 12.75,-7.60476 " /><path d="M10.35,9.4 C10.3804,9.39784 10.4107,9.17255 10.4411,8.72413  C10.4714,8.27964 10.5018,7.61947 10.5322,6.79317  C10.5965,5.04928 10.6607,2.53445 10.725,-6.3382e-05 " /><path d="M10.725,-6.3382e-05 C10.7454,-0.803475 10.7658,-1.60683 10.7862,-2.38392  C10.8235,-3.80554 10.8609,-5.13745 10.8982,-6.23592  C10.9355,-7.33624 10.9728,-8.20267 11.0101,-8.74159  C11.0401,-9.17841 11.07,-9.39788 11.1,-9.4 " /><path d="M11.1,-9.4 C11.15,-9.40418 11.2,-8.76633 11.25,-7.60475 " /><path d="M8.85,9.4 C8.89312,9.40248 8.9363,8.93068 8.97942,8.05219  C9.02254,7.17807 9.06572,5.89789 9.10884,4.39531  C9.14754,3.04912 9.18629,1.5246 9.22499,0.000584802 " /><path d="M9.22499,0.000584802 C9.2744,-1.94605 9.32387,-3.88967 9.37329,-5.47059  C9.40912,-6.61869 9.44497,-7.57774 9.48079,-8.25228  C9.51662,-8.9289 9.55247,-9.32075 9.5883,-9.38871  C9.5922,-9.39623 9.5961,-9.4 9.6,-9.4 " /><path d="M9.6,-9.4 C9.64999,-9.40427 9.7,-8.76605 9.75,-7.60476 " /><path d="M7.35,9.4 C7.39211,9.40213 7.43422,8.95345 7.47633,8.11439  C7.51977,7.25274 7.56321,5.97768 7.60665,4.47148  C7.64608,3.10648 7.68556,1.55352 7.72498,0.000618975 " /><path d="M7.72498,0.000618975 C7.77586,-2.00385 7.82679,-4.00411 7.87767,-5.61001  C7.91224,-6.7029 7.94683,-7.61561 7.98139,-8.26354  C8.01596,-8.91326 8.05054,-9.29787 8.08511,-9.38172  C8.09007,-9.39391 8.09504,-9.4 8.1,-9.4 " /><path d="M8.1,-9.4 C8.15,-9.40418 8.2,-8.76601 8.25,-7.60475 " /><path id= "63" d=" M 13.65 9.4 L 14.85 9.4 " />
<path id= "64" d=" M 9.15 9.4 L 10.35 9.4 " />
<path id= "65" d=" M 7.65 9.4 L 8.85 9.4 " />
<path id= "66" d=" M 10.65 9.4 L 11.85 9.4 " />
<path id= "67" d=" M 12.15 9.4 L 13.35 9.4 " />
<path id= "68" d=" M 13.6607 2.5 L 13.9607 2.5 " />
<path id= "69" d=" M 12.1607 2.5 L 12.4607 2.5 " />
<path id= "70" d=" M 7.35 9.4 L 7.65 9.4 " />
<path d="M4.7731,-1.76777 Q4.85219,-1.73082 4.92315,-1.68982 " /><path d="M4.94707,-1.67581 L4.94708,-1.67581 " /><path d="M5.05787,-1.60472 Q5.11951,-1.56217 5.17787,-1.51487 " /><path d="M5.17806,-1.51471 L5.17809,-1.5147 " /><path d="M5.41303,-1.2892 Q5.46866,-1.22622 5.52127,-1.15482 " /><path d="M5.54978,-1.115 L5.54979,-1.11497 " /><path d="M5.61325,-1.01788 Q5.67943,-0.91086 5.73722,-0.779966 " /><path d="M5.7378,-0.778637 C5.78462,-0.670435 5.826,-0.551891 5.85767,-0.404113 " /><path d="M5.85768,-0.404037 C5.88307,-0.288982 5.89713,-0.161904 5.89987,-0.0228025  C5.90282,0.1933 5.86726,0.393314 5.82101,0.549373  C5.78344,0.673771 5.73963,0.784346 5.68959,0.881096 " /><path d="M5.46813,1.22384 L5.46459,1.22822 " /><path d="M5.15975,1.52938 L5.15938,1.52968 " /><path d="M4.93601,1.68234 Q4.87945,1.71555 4.81821,1.74606 " /><path d="M4.81811,1.74611 L4.81804,1.74614 " /><path d="M4.57001,1.84881 L4.56943,1.849 " /><path d="M4.5157,1.86614 L4.45895,1.88241 " /><path d="M4.3127,1.91597 Q4.17534,1.94362 3.99467,1.94949  Q3.89108,1.95159 3.79811,1.94408 " /><path d="M3.62807,1.92324 C3.51759,1.90446 3.43168,1.8817 3.3468,1.85436 " /><path d="M3.34641,1.85423 L3.34607,1.85412 " /><path d="M3.16719,1.78597 C2.97611,1.70082 2.83043,1.60675 2.68349,1.48272 " /><path d="M2.68256,1.48192 L2.68254,1.4819 " /><path d="M2.50649,1.31102 L2.50624,1.31074 " /><path d="M2.24941,0.9542 L2.24936,0.954102 " /><path d="M2.13947,0.724202 C2.07197,0.554469 2.01106,0.337359 2.00117,0.0675217  C1.99051,-0.283774 2.06837,-0.556863 2.15713,-0.766881  C2.2488,-0.978058 2.35083,-1.12805 2.46463,-1.2634 " /><path d="M2.54124,-1.3483 C2.71225,-1.5246 2.89149,-1.65609 3.1269,-1.76777 " /><path id= "95" d=" M 0.4 9.4 L 7.35 9.4 " />
<path d="M0.4,9.4 L0.4,9.16432  L0.4,8.46911  L0.4,7.34922  L0.4,5.8608  L0.4,4.07851  L0.4,2.0917  L0.4,5.75584e-16  L0.4,-2.0917  L0.4,-4.07851  L0.4,-5.8608  L0.4,-7.34922  L0.4,-8.46911  L0.4,-9.16432  L0.4,-9.4 " /><path d="M4.8566,-9.2401 C5.10124,-9.26429 5.29226,-9.29175 5.45435,-9.31776 " /><path d="M5.45547,-9.31794 C5.51846,-9.32816 5.57698,-9.33815 5.631,-9.3479  C5.69647,-9.35975 5.75396,-9.3706 5.80347,-9.38045  C5.85211,-9.39005 5.89282,-9.39851 5.8993,-9.39985  C5.89953,-9.3999 5.89977,-9.39995 5.9,-9.4 " /><path d="M5.9,-9.4 C5.89958,-9.39992 5.86355,-9.39239 5.81764,-9.38326  C5.77025,-9.37376 5.71512,-9.36326 5.65227,-9.35175  C5.4784,-9.3204 5.26738,-9.28539 4.98286,-9.25334  C4.75097,-9.22911 4.47897,-9.20006 3.99318,-9.19562  C3.54945,-9.1948 3.2653,-9.21938 3.04475,-9.23997  C2.71484,-9.27284 2.48418,-9.31018 2.29119,-9.34394  C2.22265,-9.35618 2.16226,-9.36747 2.11003,-9.37779  C2.05835,-9.38792 2.01376,-9.39715 2.00234,-9.39951  C2.00156,-9.39968 2.00078,-9.39984 2,-9.4 " /><path d="M2,-9.4 C2.00409,-9.39912 2.11738,-9.37558 2.22716,-9.35552  C2.40735,-9.32271 2.62871,-9.2854 2.93275,-9.25161  C3.13138,-9.2306 3.35835,-9.20828 3.72487,-9.19827 " /><path d="M3.73517,-9.19802 Q3.83567,-9.1956 3.94943,-9.19552 " /><path d="M3.95,-1.95 C4.17287,-1.94953 4.35511,-1.91364 4.50704,-1.86875  C4.65934,-1.82294 4.78104,-1.76831 4.89313,-1.70675  C5.21338,-1.52517 5.44297,-1.30059 5.631,-0.988294  C5.69661,-0.875971 5.75383,-0.756362 5.80347,-0.605918  C5.85211,-0.455893 5.89282,-0.275242 5.8993,-0.052392  C5.90516,0.185012 5.86959,0.380293 5.82297,0.542676  C5.7754,0.70543 5.71679,0.835044 5.65227,0.951194  C5.4784,1.25531 5.26738,1.47252 4.98286,1.654  C4.86487,1.72708 4.74185,1.78919 4.5838,1.84412  C4.42629,1.89773 4.23415,1.94355 3.99318,1.94952  C3.77231,1.954 3.58895,1.92258 3.43498,1.88076  C3.28345,1.8373 3.15337,1.7861 3.04475,1.72714  C2.71484,1.54927 2.48418,1.32962 2.29119,1.02512  C2.22213,0.912576 2.16278,0.794646 2.11003,0.645762  C2.05835,0.497326 2.01376,0.318131 2.00234,0.0955426  C1.98505,-0.374008 2.11023,-0.684949 2.22716,-0.913404  C2.40735,-1.24387 2.62871,-1.47296 2.93275,-1.66364  C3.05232,-1.73617 3.17888,-1.79862 3.34173,-1.8527  C3.50405,-1.90544 3.70222,-1.94933 3.95,-1.95 " /><path id= "103" d=" M 0.4 9.4 L 5.55112e-17 9 " />
<path d="M0,9 L0,8.77435  L0,8.10872  L0,7.03648  L0,5.61141  L0,3.90495  L0,2.00269  L0,5.51091e-16  L0,-2.00269  L0,-3.90495  L0,-5.61141  L0,-7.03648  L0,-8.10872  L0,-8.77435  L0,-9 " /><circle cx ="3.95" cy ="0" r ="1.85" /><path id= "106" d=" M 4.58509 -1.1 L 3.31491 -1.1 " />
<path id= "107" d=" M 4.58509 -1.1 L 5.22017 2.88658e-15 " />
<path id= "108" d=" M 5.22017 0 L 4.58509 1.1 " />
<path id= "109" d=" M 4.58509 1.1 L 3.31491 1.1 " />
<path id= "110" d=" M 3.31491 1.1 L 2.67983 -2.88658e-15 " />
<path id= "111" d=" M 3.31491 -1.1 L 2.67983 2.88658e-15 " />
<path id= "112" d=" M 4.58509 -1.1 L 3.31491 -1.1 " />
<path id= "113" d=" M 4.58509 -1.1 L 5.22017 2.88658e-15 " />
<path id= "114" d=" M 5.22017 0 L 4.58509 1.1 " />
<path id= "115" d=" M 3.31491 1.1 L 2.67983 -2.88658e-15 " />
<path d="M18.9226 -1.27346 A1.95 1.91417 -180 0 1 18.9 -1.56379" />
<path d="M18.9 -1.56379 A1.95 1.91417 -180 0 1 22.7281 -2.07876" />
<path d="M19.4725 -0.370653 A1.85 1.81601 -180 1 1 22.665 -1.23144" />
<path id= "119" d=" M 21.4851 -2.66265 L 20.2149 -2.66265 " />
<path id= "120" d=" M 21.4851 -2.66265 L 22.1202 -1.58286 " />
<path id= "121" d=" M 22.1202 -1.58286 L 21.4851 -0.503069 " />
<path id= "122" d=" M 21.4851 -0.503069 L 20.2149 -0.50307 " />
<path id= "123" d=" M 20.2149 -0.50307 L 19.5798 -1.58286 " />
<path id= "124" d=" M 20.2149 -2.66265 L 19.5798 -1.58286 " />
<path id= "125" d=" M 21.4851 -2.66265 L 21.4851 -2.05206 " />
<path id= "126" d=" M 21.4851 -2.05206 L 20.2149 -2.05206 " />
<path id= "127" d=" M 20.2149 -2.66265 L 20.2149 -2.05206 " />
<path id= "128" d=" M 21.4851 -2.05206 L 21.9406 -1.27756 " />
<path id= "129" d=" M 20.2149 -2.05206 L 19.7594 -1.27757 " />
</g>
</g>



</svg>

