<?xml version="1.0" encoding="UTF-8"?>

<svg xmlns="http://www.w3.org/2000/svg" version="1.1"
	width="297mm"
	height="210mm"
	viewBox="0 0 297 210">
	<!-- Working space 0 0 297 210 -->
	<defs>
		<radialGradient
			id="radialGradient3661"
			gradientUnits="userSpaceOnUse"
			cy="29.149"
			cx="282.65"
			gradientTransform="matrix(.14777 .23089 -.24680 .15795 -26.318 -62.617)"
			r="19.571">
				<stop stop-color="#71b2f8" offset="0"/>
				<stop stop-color="#002795" offset="1"/>
		</radialGradient>
		<radialGradient
			id="radialGradient3817"
			gradientUnits="userSpaceOnUse"
			cy="33.9"
			cx="270.58"
			gradientTransform="matrix(.26631 .065024 -.17931 .73438 -60.668 -36.938)"
			r="19.571">
				<stop stop-color="#ff6d0f" offset="0"/>
				<stop stop-color="#ff1000" offset="1"/>
		</radialGradient>
	</defs>
	<!-- Set display:none to hide FreeCAD Logo -->
	<g
		style="display:inline"
		id="freecad-logo"
		transform="translate(271, 185) scale(1)"
		fill-rule="evenodd"
		stroke-width=".45621">
		<path d="m0.22811 0.22835v13.256h2.9558v-5.1876h2.09v-2.0452h-2.09v-2.2075h5.1486v-3.8087l-8.1044-0.0075z"
			stroke="#370700"
			fill="url(#radialGradient3817)"/>
		<path d="m13.386 4.1792-1.7193 0.98645-0.75925-0.26348-0.72439-1.8513-1.1395 0.05988-0.51976 1.9144-0.72743 0.34835-1.8143-0.79367-0.76632 0.85156 0.98645 1.7193-0.26957 0.75702-1.8513 0.72439 0.065967 1.1417 1.9144 0.51976 0.34835 0.72743-0.79976 1.8121 0.85156 0.76632 1.7193-0.98645 0.76311 0.27179 0.7183 1.8491 1.1478-0.06375 0.51367-1.9166 0.72743-0.34835 1.8182 0.80198 0.76632-0.85156-0.98645-1.7193 0.2657-0.76533 1.8491-0.7183-0.05766-1.1456-1.9166-0.51367-0.34835-0.72743 0.7959-1.8204-0.85156-0.76632zm-2.5751 2.8195 0.35295 0.20478 0.30579 0.27725 0.24481 0.33087 0.17611 0.36787 0.10354 0.39656 0.01715 0.4064-0.0587 0.4063-0.13396 0.38571-0.2131 0.35681-0.26894 0.30192-0.33087 0.24481-0.36787 0.17611-0.39656 0.10354-0.40863 0.02325-0.4063-0.0587-0.38571-0.13396-0.35681-0.2131-0.2997-0.27503-0.24703-0.32478-0.17611-0.36787-0.10132-0.40264-0.02324-0.40863 0.05869-0.4063 0.13396-0.38571 0.21087-0.35072 0.27116-0.30801 0.33087-0.24481 0.36787-0.17611 0.40264-0.10132 0.40641-0.01715 0.4063 0.05869 0.38571 0.13396z" 
		stroke="#000137"
		fill="url(#radialGradient3661)"/>
	</g>
<g id="View"
   transform="rotate(60,148.5,115.084) translate(148.5,115.084) scale(1,1)"
  >
<g   stroke="rgb(0, 0, 0)"
   stroke-width="0.35"
   stroke-linecap="butt"
   stroke-linejoin="miter"
   fill="none"
   transform="scale(1,-1)"
  >
<path id= "1" d=" M -6.14525 14.4021 L -12.4827 18.0611 " />
<path id= "2" d=" M -16.0756 -1.57294 L -21.8827 1.77979 " />
<path id= "3" d=" M -17.4655 17.4322 L -17.1827 17.5955 " />
<path id= "4" d=" M -23.8295 6.4095 L -23.8295 6.0829 " />
<path id= "5" d=" M -5.08459 13.7898 L -5.93312 14.2797 " />
<path id= "6" d=" M -15.0149 -2.18532 L -15.8634 -1.69542 " />
<path id= "7" d=" M -0.841951 11.3403 L -1.69048 11.8302 " />
<path id= "8" d=" M -10.7723 -4.63481 L -11.6208 -4.14491 " />
<path id= "9" d=" M -1.90261 11.9527 L -2.75114 12.4426 " />
<path id= "10" d=" M -11.8329 -4.02243 L -12.6815 -3.53254 " />
<path id= "11" d=" M -2.96327 12.565 L -3.8118 13.0549 " />
<path id= "12" d=" M -12.8936 -3.41006 L -13.7421 -2.92016 " />
<path id= "13" d=" M -4.02393 13.1774 L -4.87246 13.6673 " />
<path id= "14" d=" M -13.9543 -2.79769 L -14.8028 -2.30779 " />
<path id= "15" d=" M -0.390028 3.11193 L -0.60216 3.23441 " />
<path id= "16" d=" M -2.79914 -1.27067 L -3.01127 -1.14819 " />
<path id= "17" d=" M -4.92046 -0.0459213 L -5.13259 0.0765532 " />
<path id= "18" d=" M 4.41716 8.30394 L -0.629819 11.2178 " />
<path id= "19" d=" M -4.98284 -7.97734 L -10.5601 -4.75728 " />
<path id= "20" d=" M -4.89777 -1.85423 L -5.75025 -2.34641 " />
<path id= "21" d=" M 8.88178e-16 -7.34847 L -0.282843 -7.51177 " />
<path id= "22" d=" M -4.89777 -1.85423 L -5.75025 -2.34641 " />
<path id= "23" d=" M -16.8528 8.85567 L -16.9576 8.88164 " />
</g>
<g   stroke="rgb(0, 0, 0)"
   stroke-width="0.35"
   stroke-linecap="butt"
   stroke-linejoin="miter"
   fill="none"
   transform="scale(1,-1)"
  >
<path d="M-10.5359 13.758 A9.4 5.42709 60 0 1 -12.4827 18.0611" />
<path d="M-12.4827 18.0611 A9.4 5.42709 60 0 1 -17.1827 17.5955" />
<path d="M-23.8295 6.0829 A9.4 5.42709 60 0 1 -21.8827 1.77979" />
<path d="M-21.8827 1.77979 A9.4 5.42709 60 0 1 -10.5359 13.758" />
<path d="M-5.12653,10.6349 C-5.14949,11.7205 -5.37025,12.6915 -5.77188,13.4657 " /><path id= "6" d=" M -5.55975 13.3432 L -5.77188 13.4657 " />
<path d="M-4.06586,10.0225 C-4.07278,10.3399 -4.0962,10.6464 -4.13615,10.942  C-4.34921,12.5476 -5.06573,13.7849 -6.14525,14.4021 " /><path d="M-16.0756,-1.57294 C-15.8275,-1.71605 -15.5604,-1.8219 -15.2741,-1.89047  C-14.2945,-2.12774 -13.105,-1.90417 -11.8934,-1.25128  C-10.6821,-0.603353 -9.44987,0.473432 -8.39114,1.81595  C-7.63978,2.76611 -6.97457,3.84731 -6.44942,4.97579  C-5.92346,6.104 -5.53765,7.27935 -5.32395,8.4107  C-5.17797,9.18136 -5.11114,9.93189 -5.12653,10.6349 " /><path d="M-4.91439,10.5124 C-4.93725,11.5978 -5.15836,12.5698 -5.55975,13.3432 " /><path d="M-11.1016 13.758 A9 5.19615 60 0 1 -17.4655 17.4322" />
<path d="M-17.4655 17.4322 A9 5.19615 60 0 1 -23.8295 6.4095" />
<path d="M-23.8295 6.4095 A9 5.19615 60 1 1 -11.1016 13.758" />
<path d="M1.23744,6.96063 C1.20998,8.28648 0.885391,9.43913 0.30097,10.2753  C-0.0137985,10.7264 -0.394772,11.0814 -0.841951,11.3403 " /><path d="M-1.28409,11.5543 L-1.40024,11.598 " /><path d="M-1.88772,11.7335 L-2.01543,11.7573 " /><path d="M-2.55054,11.8102 L-2.69061,11.8125 " /><path d="M-10.7723,-4.63481 C-9.76568,-5.22187 -8.40058,-5.1759 -6.96885,-4.50325  C-5.7,-3.91354 -4.38681,-2.8378 -3.25388,-1.45225  C-2.16963,-0.131769 -1.25405,1.46535 -0.651959,3.09778  C-0.0825416,4.63344 0.208249,6.19524 0.176776,7.57301 " /><path d="M0.176776,7.57301 C0.155195,8.5904 -0.040005,9.50828 -0.395544,10.2564  C-0.750227,11.0056 -1.26482,11.5852 -1.90261,11.9527 " /><path d="M-2.34475,12.1666 L-2.4609,12.2104 " /><path d="M-2.94838,12.3459 L-3.07609,12.3696 " /><path d="M-11.8329,-4.02243 C-11.6521,-4.12649 -11.4636,-4.21023 -11.2673,-4.27365  C-10.346,-4.57528 -9.21357,-4.4437 -8.03932,-3.89545  C-6.86551,-3.35168 -5.65166,-2.39195 -4.57908,-1.1536  C-3.45846,0.135009 -2.49398,1.72558 -1.84331,3.3693  C-1.18897,5.01242 -0.849608,6.70613 -0.883885,8.18538 " /><path d="M-0.883885,8.18538 C-0.905479,9.20286 -1.10066,10.1206 -1.45615,10.8687  C-1.81077,11.6178 -2.32542,12.1975 -2.96327,12.565 " /><path d="M-3.40541,12.779 L-3.52156,12.8228 " /><path d="M-4.00904,12.9582 L-4.13675,12.982 " /><path d="M-4.67186,13.0349 L-4.81193,13.0373 " /><path d="M-5.39909,13.0001 L-5.55296,12.9785 " /><path d="M-14.1848,-1.97232 L-14.1186,-2.10255 " /><path d="M-13.8236,-2.57136 L-13.7427,-2.67612 " /><path d="M-13.3916,-3.04792 L-13.2972,-3.12935 " /><path d="M-12.8936,-3.41006 C-12.546,-3.61038 -12.1625,-3.7374 -11.7432,-3.79113  C-10.7804,-3.91607 -9.64993,-3.63247 -8.51012,-2.97658  C-7.37039,-2.32449 -6.22204,-1.30046 -5.22559,-0.0419136  C-4.25258,1.18305 -3.42443,2.63001 -2.85241,4.11329  C-2.2779,5.59623 -1.95987,7.11484 -1.94323,8.47407  C-1.94179,8.583 -1.94222,8.6909 -1.94454,8.79775 " /><path d="M-1.94454,8.79775 C-1.97005,10.0166 -2.24582,11.0899 -2.74513,11.9042  C-2.88397,12.1299 -3.03728,12.3404 -3.24676,12.5624  C-3.45368,12.7817 -3.72213,13.0042 -4.02393,13.1774 " /><path d="M-4.46607,13.3914 Q-4.52542,13.4149 -4.58222,13.4352 " /><path d="M-5.0697,13.5706 L-5.19741,13.5944 " /><path d="M-14.8843,-1.95899 L-14.8033,-2.06375 " /><path d="M-14.4523,-2.43554 L-14.3579,-2.51697 " /><path d="M-13.9543,-2.79769 C-13.0628,-3.31616 -11.8906,-3.34323 -10.6381,-2.87129  C-9.51662,-2.45293 -8.33518,-1.63781 -7.25717,-0.533616  C-6.23395,0.51107 -5.30534,1.81382 -4.58969,3.21548  C-3.87208,4.61623 -3.36781,6.11532 -3.14263,7.52932  C-3.03826,8.18185 -2.99245,8.80879 -3.0052,9.41012 " /><path d="M-3.0052,9.41012 C-3.02686,10.4283 -3.222,11.3451 -3.57737,12.0932  C-3.93186,12.8422 -4.44669,13.4223 -5.08459,13.7898 " /><path d="M-5.52673,14.0038 L-5.64288,14.0475 " /><path d="M-15.5129,-1.82317 L-15.4185,-1.9046 " /><path d="M-15.0149,-2.18532 C-14.6189,-2.41426 -14.1666,-2.54942 -13.6789,-2.585  C-12.673,-2.66129 -11.5011,-2.30819 -10.3346,-1.57348  C-9.16808,-0.842835 -8.00778,0.268961 -7.02337,1.60583  C-6.09936,2.85649 -5.32941,4.30443 -4.81488,5.76802  C-4.29792,7.23162 -4.0361,8.71015 -4.06586,10.0225 " /><path id= "41" d=" M -5.65983 13.2339 L -5.55975 13.3432 " />
<path d="M-3.85373,9.90002 C-3.87244,10.7755 -4.0193,11.5775 -4.28651,12.26  C-4.63947,13.1655 -5.20629,13.8614 -5.93312,14.2797 " /><path d="M-5.93312,14.2797 L-6.0403,14.339 " /><path d="M-15.9682,-1.63195 L-15.8634,-1.69542 " /><path d="M-15.8634,-1.69542 C-15.1233,-2.12478 -14.1896,-2.21918 -13.1767,-1.96573  C-12.0055,-1.67686 -10.7277,-0.91848 -9.54888,0.193271  C-8.36893,1.30086 -7.28913,2.76097 -6.48392,4.34708  C-5.44206,6.38464 -4.86782,8.62371 -4.91439,10.5124 " /><path d="M-2.79307,9.28765 C-2.81399,10.2736 -2.998,11.1663 -3.3327,11.9007  C-3.68789,12.6834 -4.21503,13.2887 -4.87246,13.6673 " /><path d="M-4.87246,13.6673 L-4.97964,13.7266 " /><path d="M-5.43075,13.9251 L-5.54917,13.9649 " /><path d="M-15.3926,-1.85966 L-15.3008,-1.94565 " /><path d="M-14.9076,-2.24432 L-14.8028,-2.30779 " /><path d="M-14.8028,-2.30779 C-13.9559,-2.79988 -12.8559,-2.8501 -11.6739,-2.44815  C-10.5688,-2.0763 -9.39424,-1.31013 -8.31276,-0.250795  C-7.23034,0.805586 -6.24166,2.15462 -5.48409,3.61637  C-4.94693,4.65014 -4.52354,5.74076 -4.24539,6.8122  C-3.96648,7.88388 -3.83245,8.93637 -3.85373,9.90002 " /><path d="M-1.73241,8.67528 C-1.75138,9.56129 -1.90137,10.3714 -2.17485,11.0598  C-2.52864,11.9538 -3.09124,12.6401 -3.8118,13.0549 " /><path d="M-3.8118,13.0549 L-3.91898,13.1142 " /><path d="M-4.37009,13.3127 L-4.48851,13.3525 " /><path d="M-4.98528,13.4719 L-5.11537,13.4915 " /><path d="M-14.7502,-1.97183 L-14.6721,-2.08146 " /><path d="M-14.3319,-2.47203 L-14.2402,-2.55802 " /><path d="M-13.8469,-2.8567 L-13.7421,-2.92016 " /><path d="M-13.7421,-2.92016 C-13.1273,-3.27602 -12.3808,-3.40283 -11.5652,-3.28951  C-10.7499,-3.17764 -9.86552,-2.82532 -8.98682,-2.26068  C-7.85276,-1.5345 -6.72949,-0.452258 -5.77002,0.844686  C-5.266,1.52477 -4.80666,2.26238 -4.40994,3.03003  C-3.87697,4.06028 -3.45701,5.14654 -3.18122,6.21336  C-2.90467,7.28044 -2.77188,8.32809 -2.79307,9.28765 " /><path d="M-0.671753,8.0629 C-0.692837,9.05186 -0.877427,9.94548 -1.21407,10.6819  C-1.54984,11.419 -2.03814,11.9983 -2.64388,12.3779  C-2.67963,12.3995 -2.71539,12.421 -2.75114,12.4426 " /><path d="M-2.75114,12.4426 L-2.85832,12.5019 " /><path d="M-3.30943,12.7003 L-3.42785,12.7402 " /><path d="M-3.92462,12.8595 L-4.05471,12.8791 " /><path d="M-4.5998,12.9148 L-4.74249,12.9126 " /><path d="M-5.34083,12.8561 L-5.49772,12.8293 " /><path d="M-14.0358,-1.95908 L-13.9727,-2.0948 " /><path d="M-13.6896,-2.5842 L-13.6115,-2.69383 " /><path d="M-13.2713,-3.0844 L-13.1795,-3.17039 " /><path d="M-12.7862,-3.46907 L-12.6815,-3.53254 " /><path d="M-12.6815,-3.53254 C-11.9222,-3.97291 -10.9606,-4.06057 -9.91835,-3.78324  C-8.87687,-3.50927 -7.75514,-2.86986 -6.69651,-1.94289  C-5.56525,-0.956054 -4.50642,0.359661 -3.67354,1.82122  C-2.83826,3.28125 -2.22953,4.88623 -1.9372,6.41255  C-1.7861,7.19682 -1.71678,7.96055 -1.73241,8.67528 " /><path d="M0.388908,7.45053 C0.36735,8.46773 0.172123,9.38589 -0.183427,10.134  C-0.538122,10.8832 -1.05267,11.4627 -1.69048,11.8302 " /><path d="M-1.69048,11.8302 L-1.79765,11.8895 " /><path d="M-2.24877,12.0879 L-2.36719,12.1278 " /><path d="M-2.86396,12.2472 L-2.99405,12.2668 " /><path d="M-11.7256,-4.08144 L-11.6208,-4.14491 " /><path d="M-11.6208,-4.14491 C-11.3438,-4.30469 -11.0432,-4.41797 -10.7189,-4.48474  C-10.0033,-4.63261 -9.18315,-4.54459 -8.32665,-4.22671  C-7.47037,-3.91021 -6.57787,-3.36386 -5.7232,-2.63088  C-4.67329,-1.7327 -3.68127,-0.550937 -2.87065,0.773273  C-2.05839,2.09619 -1.42794,3.56106 -1.05894,4.99233  C-0.783246,6.05703 -0.650502,7.10483 -0.671753,8.0629 " /><path d="M1.44957,6.83816 C1.4213,8.21037 1.07426,9.39659 0.451181,10.2393  C0.148342,10.6499 -0.211992,10.9761 -0.629819,11.2178 " /><path d="M-0.629819,11.2178 L-0.737,11.2771 " /><path d="M-1.18811,11.4756 L-1.30653,11.5154 " /><path d="M-1.8033,11.6348 L-1.93339,11.6544 " /><path d="M-2.47848,11.6901 L-2.62117,11.6879 " /><path d="M-10.6649,-4.69381 L-10.5601,-4.75728 " /><path d="M-10.5601,-4.75728 C-10.1688,-4.98272 -9.73262,-5.11524 -9.2517,-5.15483  C-8.24624,-5.23883 -7.07407,-4.89207 -5.90454,-4.16088  C-5.34303,-3.81084 -4.78262,-3.37435 -4.24252,-2.86571  C-3.69824,-2.35335 -3.17473,-1.76786 -2.69027,-1.12882  C-1.74579,0.114963 -0.953638,1.56377 -0.416855,3.03783  C0.137529,4.55335 0.419894,6.09145 0.388908,7.45053 " /><path id= "84" d=" M -2.73728 4.42088 L -2.41772 4.60538 " />
<path id= "85" d=" M -1.2262 5.2933 L -0.948211 5.4538 " />
<path id= "86" d=" M 0.0915868 6.05413 L 0.334319 6.19427 " />
<path d="M-16.3244,8.81732 L-16.3229,8.81643  L-16.3214,8.81554  L-16.3198,8.81465  L-16.3183,8.81376  L-16.3167,8.81287  L-16.3152,8.81198  L-16.3136,8.81108  L-16.312,8.81019  L-16.3105,8.8093  L-16.3089,8.8084  L-16.3074,8.80751  L-16.3058,8.80661  L-16.3042,8.80572  L-16.3027,8.80482 " /><path d="M-16.7554,9.12291 L-16.7367,9.10442  L-16.7161,9.08534  L-16.6935,9.06569  L-16.6691,9.04548  L-16.6427,9.02473  L-16.6144,9.00346  L-16.5843,8.9817  L-16.5524,8.95947  L-16.5186,8.93678  L-16.4832,8.91366  L-16.446,8.89013  L-16.4071,8.86622  L-16.3666,8.84194  L-16.3244,8.81732 " /><path d="M-17.6268,8.61114 Q-17.5335,8.72662 -17.4242,8.81297 " /><path d="M-17.4242,8.81297 C-17.2211,8.97209 -17.009,9.07039 -16.7554,9.12291 " /><path d="M-16.7554,9.12291 Q-16.852,9.34482 -16.8916,9.56505 " /><path d="M-16.8916,9.56505 Q-16.9066,9.64494 -16.9154,9.72858  Q-16.9469,10.0066 -16.8905,10.2985 " /><path d="M-15.4149 11.2677 A2.9 1.67432 60 1 1 -17.4655 7.71589" />
<path d="M-17.4655 7.71589 A2.9 1.67432 60 0 1 -15.4149 11.2677" />
<path d="M-15.4202 11.0953 A2.5 1.44338 60 0 1 -15.9327 12.0855" />
<path d="M-15.9327 12.0855 A2.5 1.44338 60 0 1 -18.4327 7.75537" />
<path d="M-18.4327 7.75537 A2.5 1.44338 60 0 1 -17.3189 7.80664" />
<path id= "98" d=" M 1.44957 6.83816 L 1.23744 6.96063 " />
<path d="M-3.8993,-0.618271 Q-3.9827,-0.570249 -4.06397,-0.525558 " /><path d="M-1.66642,3.83675 Q-1.56645,3.77532 -1.45576,3.71019 " /><path d="M-3.85071,-0.646581 L-3.8993,-0.618271 " /><path d="M6.36396 4.00083 A9.4 5.42709 60 0 1 4.41716 8.30394" />
<path d="M1.23504 8.51191 A9.4 5.42709 60 0 1 1.0649 8.45705" />
<path d="M0.343412 8.16579 A9.4 5.42709 60 0 1 0.151528 8.07274" />
<path d="M-0.673309 7.59968 A9.4 5.42709 60 0 1 -0.896677 7.45117" />
<path d="M-3.58193 4.92151 A9.4 5.42709 60 0 1 -3.75883 4.69836" />
<path d="M-5.84369 1.15702 A9.4 5.42709 60 0 1 -6.16937 0.329116" />
<path d="M-6.9202 -3.25963 A9.4 5.42709 60 0 1 -6.92841 -3.52544" />
<path d="M-6.89213 -4.46688 A9.4 5.42709 60 0 1 -6.8686 -4.6768" />
<path d="M-4.98284 -7.97734 A9.4 5.42709 60 0 1 -0.282843 -7.51177" />
<path d="M-0.282843 -7.51177 A9.4 5.42709 60 0 1 6.36396 4.00083" />
<path d="M-9.44941,-3.63697 Q-9.54727,-3.57039 -9.63128,-3.50356 " /><path id= "113" d=" M 6.36396 4.00083 L 6.36396 3.67423 " />
<path d="M6.36396 3.67423 A9 5.19615 60 0 1 6.36242 3.83487" />
<path d="M1.34901 7.96032 A9 5.19615 60 0 1 1.16487 7.89686" />
<path d="M0.385935 7.55776 A9 5.19615 60 0 1 0.178622 7.4487" />
<path d="M-0.718252 6.88683 A9 5.19615 60 0 1 -0.963929 6.70716" />
<path d="M-6.32378 -2.82661 A9 5.19615 60 0 1 -6.34697 -3.12787" />
<path d="M-6.34845 -4.17802 A9 5.19615 60 0 1 -6.33028 -4.40978" />
<path d="M-0.139884 -7.42746 A9 5.19615 60 0 1 4.44089e-16 -7.34847" />
<path d="M4.44089e-16 -7.34847 A9 5.19615 60 0 1 6.36396 3.67423" />
<path d="M-1.41421 4.2013 A1.95 1.12583 9.73842e-15 0 0 -1.30959 4.13592" />
<path d="M-1.52158 4.2588 A1.95 1.12583 9.73842e-15 0 0 -1.41421 4.2013" />
<path d="M-4.12056 -0.98446 A1.95 1.12583 120 0 0 -4.3446 -0.876444" />
<path d="M-16.8819 9.51631 A1.95 1.31997 10.5621 0 0 -16.9564 9.74321" />
<path d="M-16.9564 9.74321 A1.95 1.31997 10.5621 0 0 -15.4571 11.3598" />
<path d="M-16.2053 8.94348 A1.85 1.25228 10.5621 0 0 -15.4328 11.2201" />
<path d="M-17.5392 7.71532 A1.95 0.890328 128.723 0 0 -17.4869 8.81143" />
<path d="M-17.4869 8.81143 A1.95 0.890328 128.723 0 0 -17.311 8.89515" />
<path d="M-16.4473 8.68439 A1.85 0.84467 128.723 0 0 -16.4104 8.6626" />
<path d="M-17.4104 7.76474 A1.85 0.84467 128.723 0 0 -16.8528 8.85567" />
<path d="M-16.8528 8.85567 A1.85 0.84467 128.723 0 0 -16.4473 8.68439" />
</g>
</g>



</svg>

