<?xml version="1.0" encoding="UTF-8"?>

<svg xmlns="http://www.w3.org/2000/svg" version="1.1"
	width="297mm"
	height="210mm"
	viewBox="0 0 297 210">
	<!-- Working space 0 0 297 210 -->
	<defs>
		<radialGradient
			id="radialGradient3661"
			gradientUnits="userSpaceOnUse"
			cy="29.149"
			cx="282.65"
			gradientTransform="matrix(.14777 .23089 -.24680 .15795 -26.318 -62.617)"
			r="19.571">
				<stop stop-color="#71b2f8" offset="0"/>
				<stop stop-color="#002795" offset="1"/>
		</radialGradient>
		<radialGradient
			id="radialGradient3817"
			gradientUnits="userSpaceOnUse"
			cy="33.9"
			cx="270.58"
			gradientTransform="matrix(.26631 .065024 -.17931 .73438 -60.668 -36.938)"
			r="19.571">
				<stop stop-color="#ff6d0f" offset="0"/>
				<stop stop-color="#ff1000" offset="1"/>
		</radialGradient>
	</defs>
	<!-- Set display:none to hide FreeCAD Logo -->
	<g
		style="display:inline"
		id="freecad-logo"
		transform="translate(271, 185) scale(1)"
		fill-rule="evenodd"
		stroke-width=".45621">
		<path d="m0.22811 0.22835v13.256h2.9558v-5.1876h2.09v-2.0452h-2.09v-2.2075h5.1486v-3.8087l-8.1044-0.0075z"
			stroke="#370700"
			fill="url(#radialGradient3817)"/>
		<path d="m13.386 4.1792-1.7193 0.98645-0.75925-0.26348-0.72439-1.8513-1.1395 0.05988-0.51976 1.9144-0.72743 0.34835-1.8143-0.79367-0.76632 0.85156 0.98645 1.7193-0.26957 0.75702-1.8513 0.72439 0.065967 1.1417 1.9144 0.51976 0.34835 0.72743-0.79976 1.8121 0.85156 0.76632 1.7193-0.98645 0.76311 0.27179 0.7183 1.8491 1.1478-0.06375 0.51367-1.9166 0.72743-0.34835 1.8182 0.80198 0.76632-0.85156-0.98645-1.7193 0.2657-0.76533 1.8491-0.7183-0.05766-1.1456-1.9166-0.51367-0.34835-0.72743 0.7959-1.8204-0.85156-0.76632zm-2.5751 2.8195 0.35295 0.20478 0.30579 0.27725 0.24481 0.33087 0.17611 0.36787 0.10354 0.39656 0.01715 0.4064-0.0587 0.4063-0.13396 0.38571-0.2131 0.35681-0.26894 0.30192-0.33087 0.24481-0.36787 0.17611-0.39656 0.10354-0.40863 0.02325-0.4063-0.0587-0.38571-0.13396-0.35681-0.2131-0.2997-0.27503-0.24703-0.32478-0.17611-0.36787-0.10132-0.40264-0.02324-0.40863 0.05869-0.4063 0.13396-0.38571 0.21087-0.35072 0.27116-0.30801 0.33087-0.24481 0.36787-0.17611 0.40264-0.10132 0.40641-0.01715 0.4063 0.05869 0.38571 0.13396z" 
		stroke="#000137"
		fill="url(#radialGradient3661)"/>
	</g>
<g id="View"
   transform="rotate(60,148.5,109.123) translate(148.5,109.123) scale(1,1)"
  >
<g   stroke="rgb(0, 0, 0)"
   stroke-width="0.35"
   stroke-linecap="butt"
   stroke-linejoin="miter"
   fill="none"
   transform="scale(1,-1)"
  >
<path id= "1" d=" M 4.87904 5.96043 L 4.70226 6.06249 " />
<path id= "2" d=" M 5.23113 3.41104 L 5.45226 3.5387 " />
<path id= "3" d=" M 3.73113 6.00911 L 3.95226 6.13678 " />
<path id= "4" d=" M -8.38909 -5.54886 L -4.5 -7.79423 " />
<path id= "5" d=" M 0.610913 10.0396 L 4.5 7.79423 " />
<path id= "6" d=" M -9.70624 -1.43977 L -7.29264 -2.83327 " />
<path id= "7" d=" M -3.6115 9.12878 L -1.19264 7.73224 " />
<path id= "8" d=" M -14.8238 -1.8338 L -14.4702 -2.03793 " />
<path id= "9" d=" M -5.82376 13.7547 L -5.47021 13.5505 " />
<path id= "10" d=" M -9.61665 -1.38804 L -9.97021 -1.59217 " />
</g>
<g   stroke="rgb(0, 0, 0)"
   stroke-width="0.35"
   stroke-linecap="butt"
   stroke-linejoin="miter"
   fill="none"
   transform="scale(1,-1)"
  >
<path id= "1" d=" M 5.76292 4.22537 L 5.76292 4.42949 " />
<path d="M4.70226 6.06249 A1.5 0.866025 -60 0 1 3.95226 6.13678" />
<path d="M3.95226 6.13678 A1.5 0.866025 -60 0 1 5.45226 3.5387" />
<path d="M5.45226 3.5387 A1.5 0.866025 -60 0 1 5.76292 4.22537" />
<path d="M5.76292 4.42949 A1.25 0.721688 -60 0 1 4.87904 5.96043" />
<path d="M4.87904 5.96043 A1.25 0.721688 -60 1 1 5.76292 4.42949" />
<path d="M3.46482,5.34805 C3.46495,5.11816 3.51072,4.87915 3.57632,4.66767  C3.65489,4.4199 3.75673,4.19119 3.92206,3.95188  C3.97348,3.87696 4.0363,3.79988 4.11054,3.72067  C4.1872,3.6407 4.28296,3.55367 4.40806,3.47646  C4.67703,3.31807 4.84602,3.31953 4.97489,3.32869  C5.07443,3.34083 5.15984,3.36828 5.23113,3.41104 " /><path d="M3.73113,6.00911 C3.67885,5.9789 3.63394,5.93687 3.59642,5.88302  C3.51951,5.7724 3.46522,5.60087 3.46482,5.34805 " /><path id= "9" d=" M 5.28729 5.5206 L 5.69553 4.4684 " />
<path id= "10" d=" M 4.47079 5.992 L 5.28729 5.5206 " />
<path id= "11" d=" M 4.06254 5.41121 L 4.47079 5.992 " />
<path id= "12" d=" M 4.47079 4.35901 L 4.06254 5.41121 " />
<path id= "13" d=" M 5.28729 3.88761 L 4.47079 4.35901 " />
<path id= "14" d=" M 5.69553 4.4684 L 5.28729 3.88761 " />
<path d="M6.36396 3.67423 A9 5.19615 -120 0 0 -4.5 -7.79423" />
<path d="M-6.00271 -5.90628 A9 5.19615 -120 0 0 -6.19878 -5.24226" />
<path d="M-6.3307 -2.90472 A9 5.19615 -120 0 0 -6.26344 -2.31525" />
<path d="M-6.19078 -1.87159 A9 5.19615 -120 0 0 -5.9974 -1.00463" />
<path d="M-5.83352 -0.430866 A9 5.19615 -120 0 0 -5.47169 0.593352" />
<path d="M-5.20426 1.22468 A9 5.19615 -120 0 0 -4.67531 2.28621" />
<path d="M-1.12665 6.58192 A9 5.19615 -120 0 0 -0.649788 6.93491" />
<path d="M1.44054 7.98943 A9 5.19615 -120 0 0 2.11363 8.15164" />
<path d="M4.5 7.79423 A9 5.19615 -120 0 0 6.36396 3.67423" />
<path d="M2.47487 5.9196 A9 5.19615 -120 0 0 -8.38909 -5.54886" />
<path d="M-8.38909 -5.54886 A9 5.19615 -120 0 0 -10.247 -1.74503" />
<path d="M-3.61227 9.7467 A9 5.19615 -120 0 0 0.610913 10.0396" />
<path d="M0.610913 10.0396 A9 5.19615 -120 0 0 2.47487 5.9196" />
<path id= "28" d=" M 5.28729 5.5206 L 4.25201 4.92288 " />
<path id= "29" d=" M 5.69553 4.4684 L 4.98843 4.06015 " />
<path id= "30" d=" M 2.29477 4.39059 L 2.36385 4.48886 " />
<path id= "31" d=" M 2.33269 4.29286 L 2.29477 4.39059 " />
<path d="M-0.705055 -2.27892 A2.5 1.44338 -120 0 0 -1.25 -2.16506" />
<path d="M1.76777 5.9196 A8.5 4.90748 -120 0 0 -10.2198 -1.73061" />
<path d="M-3.61114 9.71589 A8.5 4.90748 -120 0 0 1.76777 5.9196" />
<path d="M-8.55599 6.98105 A2.5 1.44338 -120 0 0 -11.5738 3.79536" />
<path d="M-11.5738 3.79536 A2.5 1.44338 -120 0 0 -9.07376 8.12549" />
<path d="M-9.07376 8.12549 A2.5 1.44338 -120 0 0 -8.55599 6.98105" />
<path d="M0.0498452 4.43845 A6.1 3.52184 -120 0 0 -0.0292978 3.81577" />
<path d="M-0.536963 2.87575 A0.6 0.34641 -120 0 0 -0.0292978 3.81577" />
<path d="M-0.29119 2.73385 A6.1 3.52184 -120 0 0 -0.520872 2.08073" />
<path d="M-1.08362 1.03871 A0.6 0.34641 -120 0 0 -0.520872 2.08073" />
<path d="M-1.01902 1.00141 A6.1 3.52184 -120 0 0 -1.37676 0.381792" />
<path d="M-2.0624 -0.589277 A0.6 0.34641 -120 0 0 -1.44136 0.41909" />
<path d="M-2.0624 -0.589277 A6.1 3.52184 -120 0 0 -2.51318 -1.11475" />
<path d="M-3.3192 -1.88251 A0.6 0.34641 -120 0 0 -2.75895 -0.97285" />
<path d="M-3.3192 -1.88251 A6.1 3.52184 -120 0 0 -3.81889 -2.26239" />
<path d="M-4.66639 -2.7517 A0.6 0.34641 -120 0 0 -4.22178 -2.02979" />
<path d="M-4.66639 -2.7517 A6.1 3.52184 -120 0 0 -5.16608 -2.94881" />
<path d="M-5.9721 -3.11176 A0.6 0.34641 -120 0 0 -5.68664 -2.64826" />
<path d="M-5.9721 -3.11176 A6.1 3.52184 -120 0 0 -6.42288 -3.1068" />
<path d="M-7.10852 -2.92744 A0.6 0.34641 -120 0 0 -7.01016 -2.76773" />
<path d="M-7.10852 -2.92744 A6.1 3.52184 -120 0 0 -7.29264 -2.83327" />
<path d="M-2.51318 8.01074 A0.6 0.34641 -120 0 0 -2.79864 7.54724" />
<path d="M-1.37676 7.82642 A0.6 0.34641 -120 0 0 -1.47512 7.66671" />
<path d="M-1.19264 7.73224 A6.1 3.52184 -120 0 0 -1.01902 7.61988" />
<path d="M-1.10815 7.45484 A0.6 0.34641 -120 0 0 -1.01902 7.61988" />
<path d="M-0.520872 7.11578 A6.1 3.52184 -120 0 0 -0.29119 6.72787" />
<path d="M-0.549858 6.24891 A0.6 0.34641 -120 0 0 -0.29119 6.72787" />
<path d="M-0.0292978 5.94836 A6.1 3.52184 -120 0 0 0.0498452 5.41706" />
<path d="M-0.35304 4.67106 A0.6 0.34641 -120 0 0 0.0498452 5.41706" />
<path d="M-3.9598 9.63466 A9 5.19615 -120 0 0 -14.8238 -1.8338" />
<path d="M-14.8238 -1.8338 A9 5.19615 -120 0 0 -5.82376 13.7547" />
<path d="M-5.82376 13.7547 A9 5.19615 -120 0 0 -3.9598 9.63466" />
<path id= "64" d=" M -3.89801 6.71775 L 0.0498452 4.43845 " />
<path id= "65" d=" M -4.05295 6.13882 L -0.0292978 3.81577 " />
<path id= "66" d=" M -4.40344 5.10806 L -0.29119 2.73385 " />
<path id= "67" d=" M -4.66636 4.47413 L -0.520872 2.08073 " />
<path id= "68" d=" M -5.19155 3.41042 L -1.01902 1.00141 " />
<path id= "69" d=" M -5.54929 2.7908 L -1.37676 0.381792 " />
<path id= "70" d=" M -6.20789 1.80412 L -2.0624 -0.589277 " />
<path id= "71" d=" M -6.62543 1.25946 L -2.51318 -1.11475 " />
<path id= "72" d=" M -7.34285 0.440544 L -3.3192 -1.88251 " />
<path id= "73" d=" M -7.76675 0.0169027 L -3.81889 -2.26239 " />
<path id= "74" d=" M -8.43899 -0.573591 L -4.66639 -2.7517 " />
<path id= "75" d=" M -8.79892 -0.85139 L -5.16608 -2.94881 " />
<path id= "76" d=" M -9.29573 -1.19286 L -5.9721 -3.11176 " />
<path id= "77" d=" M -9.50921 -1.3249 L -6.42288 -3.1068 " />
<path id= "78" d=" M -9.69575 -1.43371 L -7.10852 -2.92744 " />
<path id= "79" d=" M -3.61192 9.11689 L -1.01902 7.61988 " />
<path id= "80" d=" M -3.6072 8.89767 L -0.520872 7.11578 " />
<path id= "81" d=" M -3.61482 8.64677 L -0.29119 6.72787 " />
<path id= "82" d=" M -3.66213 8.04578 L -0.0292978 5.94836 " />
<path id= "83" d=" M -3.72275 7.59517 L 0.0498452 5.41706 " />
<path d="M-3.60624 9.43054 A9 5.19615 -120 0 0 -9.97021 -1.59217" />
<path d="M-9.97021 -1.59217 A9 5.19615 -120 0 0 -14.4702 -2.03793" />
<path d="M-5.47021 13.5505 A9 5.19615 -120 0 0 -3.60624 9.43054" />
<path d="M-3.60624 9.02229 A8.5 4.90748 -120 0 0 -9.61665 -1.38804" />
<path id= "88" d=" M -3.60624 9.43054 L -3.60624 9.02229 " />
</g>
</g>



</svg>

