<?xml version="1.0" encoding="UTF-8"?>

<svg xmlns="http://www.w3.org/2000/svg" version="1.1"
	width="297mm"
	height="210mm"
	viewBox="0 0 297 210">
	<!-- Working space 0 0 297 210 -->
	<defs>
		<radialGradient
			id="radialGradient3661"
			gradientUnits="userSpaceOnUse"
			cy="29.149"
			cx="282.65"
			gradientTransform="matrix(.14777 .23089 -.24680 .15795 -26.318 -62.617)"
			r="19.571">
				<stop stop-color="#71b2f8" offset="0"/>
				<stop stop-color="#002795" offset="1"/>
		</radialGradient>
		<radialGradient
			id="radialGradient3817"
			gradientUnits="userSpaceOnUse"
			cy="33.9"
			cx="270.58"
			gradientTransform="matrix(.26631 .065024 -.17931 .73438 -60.668 -36.938)"
			r="19.571">
				<stop stop-color="#ff6d0f" offset="0"/>
				<stop stop-color="#ff1000" offset="1"/>
		</radialGradient>
	</defs>
	<!-- Set display:none to hide FreeCAD Logo -->
	<g
		style="display:inline"
		id="freecad-logo"
		transform="translate(271, 185) scale(1)"
		fill-rule="evenodd"
		stroke-width=".45621">
		<path d="m0.22811 0.22835v13.256h2.9558v-5.1876h2.09v-2.0452h-2.09v-2.2075h5.1486v-3.8087l-8.1044-0.0075z"
			stroke="#370700"
			fill="url(#radialGradient3817)"/>
		<path d="m13.386 4.1792-1.7193 0.98645-0.75925-0.26348-0.72439-1.8513-1.1395 0.05988-0.51976 1.9144-0.72743 0.34835-1.8143-0.79367-0.76632 0.85156 0.98645 1.7193-0.26957 0.75702-1.8513 0.72439 0.065967 1.1417 1.9144 0.51976 0.34835 0.72743-0.79976 1.8121 0.85156 0.76632 1.7193-0.98645 0.76311 0.27179 0.7183 1.8491 1.1478-0.06375 0.51367-1.9166 0.72743-0.34835 1.8182 0.80198 0.76632-0.85156-0.98645-1.7193 0.2657-0.76533 1.8491-0.7183-0.05766-1.1456-1.9166-0.51367-0.34835-0.72743 0.7959-1.8204-0.85156-0.76632zm-2.5751 2.8195 0.35295 0.20478 0.30579 0.27725 0.24481 0.33087 0.17611 0.36787 0.10354 0.39656 0.01715 0.4064-0.0587 0.4063-0.13396 0.38571-0.2131 0.35681-0.26894 0.30192-0.33087 0.24481-0.36787 0.17611-0.39656 0.10354-0.40863 0.02325-0.4063-0.0587-0.38571-0.13396-0.35681-0.2131-0.2997-0.27503-0.24703-0.32478-0.17611-0.36787-0.10132-0.40264-0.02324-0.40863 0.05869-0.4063 0.13396-0.38571 0.21087-0.35072 0.27116-0.30801 0.33087-0.24481 0.36787-0.17611 0.40264-0.10132 0.40641-0.01715 0.4063 0.05869 0.38571 0.13396z" 
		stroke="#000137"
		fill="url(#radialGradient3661)"/>
	</g>
<g id="Ortho_0_0"
   transform="rotate(-90,86.3179,184.133) translate(86.3179,184.133) scale(4,4)"
  >
<g   stroke="rgb(0, 0, 0)"
   stroke-width="0.0875"
   stroke-linecap="butt"
   stroke-linejoin="miter"
   fill="none"
   transform="scale(1,-1)"
  >
<path id= "1" d=" M 5.5 9 L 8.88178e-16 9 " />
<path id= "2" d=" M 5.5 -9 L -8.88178e-16 -9 " />
<path id= "3" d=" M 6 8.5 L 5.5 9 " />
<path id= "4" d=" M 6 -8.5 L 5.5 -9 " />
<path id= "5" d=" M 6 2.5 L 5.5 2.5 " />
<path id= "6" d=" M 6 -2.5 L 5.5 -2.5 " />
<path id= "7" d=" M 14.6 9 L 14.1 9 " />
<path id= "8" d=" M 14.6 -9 L 14.1 -9 " />
<path id= "9" d=" M 13.6 8.5 L 14.1 9 " />
<path id= "10" d=" M 13.6 -8.5 L 14.1 -9 " />
</g>
<g   stroke="rgb(0, 0, 0)"
   stroke-width="0.0875"
   stroke-linecap="butt"
   stroke-linejoin="miter"
   fill="none"
   transform="scale(1,-1)"
  >
<circle cx ="2.6" cy ="0" r ="1.5" /><circle cx ="2.6" cy ="0" r ="1.25" /><path d="M4.1,1.33227e-15 C4.09985,0.2815 4.02174,0.528487 3.91305,0.725187  C3.7833,0.954448 3.61601,1.13929 3.35996,1.29323  C3.27651,1.34188 3.18842,1.38465 3.07356,1.42328  C2.95913,1.46099 2.81808,1.49424 2.64027,1.49946  C2.59814,1.50052 2.55776,1.49997 2.51914,1.49782 " /><path d="M1.1,-3.33067e-16 C1.1,-0.267435 1.17117,-0.505253 1.27126,-0.696022  C1.39707,-0.93059 1.56239,-1.11887 1.81168,-1.27615  C1.89536,-1.3274 1.982,-1.37163 2.09559,-1.41265  C2.20874,-1.45267 2.34869,-1.48902 2.52656,-1.4982  C2.90046,-1.51103 3.13398,-1.41061 3.30226,-1.32546  C3.5717,-1.17883 3.74297,-1.00056 3.87983,-0.78232  C4.00671,-0.574337 4.09942,-0.309941 4.1,1.05471e-15 " /><path id= "5" d=" M 2.02265 -1 L 1.4453 1.77636e-15 " />
<path id= "6" d=" M 3.17735 -1 L 2.02265 -1 " />
<path id= "7" d=" M 3.7547 4.16856e-16 L 3.17735 -1 " />
<path id= "8" d=" M 3.17735 1 L 3.7547 4.21885e-15 " />
<path id= "9" d=" M 2.02265 1 L 3.17735 1 " />
<path id= "10" d=" M 1.4453 1.60461e-16 L 2.02265 1 " />
<path d="M0,1.78798e-15 L0,1.00768  L0,2.00269  L0,2.97251  L8.88178e-16,3.90495  L8.88178e-16,4.78829  L8.88178e-16,5.61141  L8.88178e-16,6.36396  L8.88178e-16,7.03648  L8.88178e-16,7.62052  L8.88178e-16,8.10872  L8.88178e-16,8.49495  L8.88178e-16,8.77435  L8.88178e-16,8.94341  L8.88178e-16,9 " /><path d="M-8.88178e-16,-9 L-8.88178e-16,-8.94341  L-8.88178e-16,-8.77435  L-8.88178e-16,-8.49495  L-8.88178e-16,-8.10872  L-8.88178e-16,-7.62052  L-8.88178e-16,-7.03648  L-8.88178e-16,-6.36396  L-8.88178e-16,-5.61141  L-8.88178e-16,-4.78829  L-8.88178e-16,-3.90495  L0,-2.97251  L0,-2.00269  L0,-1.00768  L0,3.1558e-14 " /><path d="M5.5,1.11443e-15 L5.5,1.00768  L5.5,2.00269  L5.5,2.97251  L5.5,3.90495  L5.5,4.78829  L5.5,5.61141  L5.5,6.36396  L5.5,7.03648  L5.5,7.62052  L5.5,8.10872  L5.5,8.49495  L5.5,8.77435  L5.5,8.94341  L5.5,9 " /><path d="M5.5,-9 L5.5,-8.94341  L5.5,-8.77435  L5.5,-8.49495  L5.5,-8.10872  L5.5,-7.62052  L5.5,-7.03648  L5.5,-6.36396  L5.5,-5.61141  L5.5,-4.78829  L5.5,-3.90495  L5.5,-2.97251  L5.5,-2.00269  L5.5,-1.00768  L5.5,3.08845e-14 " /><path id= "15" d=" M 2.02265 -1 L 1.4453 1.9984e-15 " />
<path id= "16" d=" M 3.17735 -1 L 2.02265 -1 " />
<path id= "17" d=" M 1.4453 4.38016e-16 L 2.02265 1 " />
<path d="M6,1.0532e-15 L6,0.951698  L6,1.89143  L6,2.80737  L6,3.68801  L6,4.52227  L6,5.29966  L6,6.01041  L6,6.64557  L6,7.19716  L6,7.65824  L6,8.02301  L6,8.28689  L6,8.44655  L6,8.5 " /><path d="M6,-8.5 L6,-8.44655  L6,-8.28689  L6,-8.02301  L6,-7.65824  L6,-7.19716  L6,-6.64557  L6,-6.01041  L6,-5.29966  L6,-4.52227  L6,-3.68801  L6,-2.80737  L6,-1.89143  L6,-0.951698  L6,2.91694e-14 " /><path d="M4.1,1.33227e-15 C4.09993,0.304089 4.00831,0.569922 3.88429,0.774985  C3.73887,1.00967 3.55736,1.19133 3.28246,1.33576  C3.15174,1.4003 3.00286,1.46247 2.76107,1.49133 " /><path d="M4.1,1.33227e-15 C4.09993,0.304089 4.00831,0.569922 3.88429,0.774985  C3.73887,1.00967 3.55736,1.19133 3.28246,1.33576  C3.15174,1.4003 3.00286,1.46247 2.76107,1.49133 " /><path d="M1.16339,0.431437 Q1.10202,0.23279 1.1,1.05471e-15 " /><path d="M1.1,1.22125e-15 C1.10043,-0.353078 1.22234,-0.651658 1.37745,-0.869119 " /><path d="M1.48483,-1.0032 Q1.5248,-1.04765 1.56861,-1.08915 " /><path d="M1.73481,-1.22533 L1.79385,-1.26496 " /><path d="M1.824,-1.28367 L1.8744,-1.31282 " /><path d="M2.60188,-1.5 Q2.67635,-1.49971 2.74237,-1.49323 " /><path d="M2.85473,-1.47821 Q2.95236,-1.46086 3.03104,-1.43673 " /><path d="M3.16988,-1.38753 L3.22228,-1.36483 " /><path d="M3.3482,-1.30008 Q3.41173,-1.2634 3.46821,-1.2232 " /><path d="M3.6301,-1.09036 C3.7242,-1.00164 3.80605,-0.901223 3.87566,-0.789112  C4.00429,-0.581539 4.09984,-0.31127 4.1,1.05471e-15 " /><path d="M14.6,0 L14.6,1.00768  L14.6,2.00269  L14.6,2.97251  L14.6,3.90495  L14.6,4.78829  L14.6,5.61141  L14.6,6.36396  L14.6,7.03648  L14.6,7.62052  L14.6,8.10872  L14.6,8.49495  L14.6,8.77435  L14.6,8.94341  L14.6,9 " /><path d="M14.6,-9 L14.6,-8.94341  L14.6,-8.77435  L14.6,-8.49495  L14.6,-8.10872  L14.6,-7.62052  L14.6,-7.03648  L14.6,-6.36396  L14.6,-5.61141  L14.6,-4.78829  L14.6,-3.90495  L14.6,-2.97251  L14.6,-2.00269  L14.6,-1.00768  L14.6,2.97701e-14 " /><path id= "34" d=" M 13.6 0.599274 L 6 0.599274 " />
<path id= "35" d=" M 13.6 1.30594 L 6 1.30594 " />
<path id= "36" d=" M 13.6 2.44583 L 6 2.44583 " />
<path id= "37" d=" M 13.6 3.08332 L 6 3.08332 " />
<path id= "38" d=" M 13.6 4.05297 L 6 4.05297 " />
<path id= "39" d=" M 13.6 4.55889 L 6 4.55889 " />
<path id= "40" d=" M 13.6 5.26338 L 6 5.26338 " />
<path id= "41" d=" M 13.6 5.58819 L 6 5.58819 " />
<path id= "42" d=" M 13.6 5.95857 L 6 5.95857 " />
<path id= "43" d=" M 13.6 6.07049 L 6 6.07049 " />
<path id= "44" d=" M 13.6 -6.07049 L 6 -6.07049 " />
<path id= "45" d=" M 13.6 -5.95857 L 6 -5.95857 " />
<path id= "46" d=" M 13.6 -5.58819 L 6 -5.58819 " />
<path id= "47" d=" M 13.6 -5.26338 L 6 -5.26338 " />
<path id= "48" d=" M 13.6 -4.55889 L 6 -4.55889 " />
<path id= "49" d=" M 13.6 -4.05297 L 6 -4.05297 " />
<path id= "50" d=" M 13.6 -3.08332 L 6 -3.08332 " />
<path id= "51" d=" M 13.6 -2.44583 L 6 -2.44583 " />
<path id= "52" d=" M 13.6 -1.30594 L 6 -1.30594 " />
<path id= "53" d=" M 13.6 -0.599274 L 6 -0.599274 " />
<path d="M14.1,6.12323e-17 L14.1,1.00768  L14.1,2.00269  L14.1,2.97251  L14.1,3.90495  L14.1,4.78829  L14.1,5.61141  L14.1,6.36396  L14.1,7.03648  L14.1,7.62052  L14.1,8.10872  L14.1,8.49495  L14.1,8.77435  L14.1,8.94341  L14.1,9 " /><path d="M14.1,-9 L14.1,-8.94341  L14.1,-8.77435  L14.1,-8.49495  L14.1,-8.10872  L14.1,-7.62052  L14.1,-7.03648  L14.1,-6.36396  L14.1,-5.61141  L14.1,-4.78829  L14.1,-3.90495  L14.1,-2.97251  L14.1,-2.00269  L14.1,-1.00768  L14.1,2.98313e-14 " /><path d="M13.6,1.22465e-16 L13.6,0.951698  L13.6,1.89143  L13.6,2.80737  L13.6,3.68801  L13.6,4.52227  L13.6,5.29966  L13.6,6.01041  L13.6,6.64557  L13.6,7.19716  L13.6,7.65824  L13.6,8.02301  L13.6,8.28689  L13.6,8.44655  L13.6,8.5 " /><path d="M13.6,-8.5 L13.6,-8.44655  L13.6,-8.28689  L13.6,-8.02301  L13.6,-7.65824  L13.6,-7.19716  L13.6,-6.64557  L13.6,-6.01041  L13.6,-5.29966  L13.6,-4.52227  L13.6,-3.68801  L13.6,-2.80737  L13.6,-1.89143  L13.6,-0.951698  L13.6,2.82386e-14 " /></g>
</g>



<g id="Ortho_0_1"
   transform="rotate(90,86.3179,61.8667) translate(86.3179,61.8667) scale(4,4)"
  >
<g   stroke="rgb(0, 0, 0)"
   stroke-width="0.0875"
   stroke-linecap="butt"
   stroke-linejoin="miter"
   fill="none"
   transform="scale(1,-1)"
  >
<path id= "1" d=" M 9.5 -1.25 L 9.25 -1.5 " />
<path id= "2" d=" M 9.5 1.25 L 9.25 1.5 " />
<path id= "3" d=" M 8.87412 -1.5 L 9.25 -1.5 " />
<path id= "4" d=" M 8.87412 1.5 L 9.25 1.5 " />
</g>
<g   stroke="rgb(0, 0, 0)"
   stroke-width="0.0875"
   stroke-linecap="butt"
   stroke-linejoin="miter"
   fill="none"
   transform="scale(1,-1)"
  >
<path d="M9.25,1.5 L9.25,1.46239  L9.25,1.35145  L9.25,1.17275  L9.25,0.935235  L9.25,0.650826  L9.25,0.333781  L9.25,1.83697e-16  L9.25,-0.333781  L9.25,-0.650826  L9.25,-0.935235  L9.25,-1.17275  L9.25,-1.35145  L9.25,-1.46239  L9.25,-1.5 " /><path d="M9.5,1.25 L9.5,1.21866  L9.5,1.12621  L9.5,0.977289  L9.5,0.779362  L9.5,0.542355  L9.5,0.278151  L9.5,1.53081e-16  L9.5,-0.278151  L9.5,-0.542355  L9.5,-0.779362  L9.5,-0.977289  L9.5,-1.12621  L9.5,-1.21866  L9.5,-1.25 " /><path d="M9,-1.33227e-15 C8.99822,-0.284129 8.98847,-0.525858 8.97074,-0.725187  C8.9521,-0.954448 8.92884,-1.13929 8.9066,-1.29323  C8.89954,-1.34159 8.89292,-1.38494 8.88675,-1.42328  C8.88072,-1.46099 8.87509,-1.49424 8.87421,-1.49946  C8.87418,-1.49964 8.87415,-1.49982 8.87412,-1.5 " /><path d="M8.89638,-1.36175 Q8.92014,-1.21026 8.94427,-1 " /><path d="M8.91806,1.21172 Q8.90989,1.27158 8.90234,1.32224 " /><circle cx ="0" cy ="0" r ="2.5" /><path d="M2.5,-1.33227e-15 C2.50018,-0.304089 2.44394,-0.569922 2.37685,-0.774985  C2.30001,-1.00967 2.20408,-1.19133 2.11323,-1.33576  C2.08806,-1.37537 2.06451,-1.41061 2.04259,-1.44147  C2.02127,-1.47173 2.00171,-1.49772 2.00007,-1.49991  C2.00005,-1.49994 2.00002,-1.49997 2,-1.5 " /><path d="M2.09105,-1.37022 L2.11517,-1.33269 " /><path d="M2.11537,-1.33237 L2.13167,-1.30614 " /><path d="M2.18692,-1.21135 Q2.279,-1.0492 2.35882,-0.82823 " /><path d="M2.48354,-0.286427 L2.49369,-0.17754 " /><path d="M2.4818,-0.301094 Q2.48916,-0.240747 2.49369,-0.17754 " /><path d="M2.49375,-0.176612 L2.499,-0.0708165 " /><path d="M2,1.5 C2.00034,1.49954 2.02202,1.47081 2.04526,1.43767  C2.06918,1.40389 2.09477,1.36524 2.12203,1.32173  C2.2085,1.18233 2.29861,1.00948 2.37219,0.789112  C2.44144,0.581539 2.50014,0.31127 2.5,-1.05471e-15 " /><circle cx ="0" cy ="0" r ="9" /></g>
</g>



<g id="Ortho_1_0"
   transform="rotate(-90,210.636,184.133) translate(210.636,184.133) scale(4,4)"
  >
<g   stroke="rgb(0, 0, 0)"
   stroke-width="0.0875"
   stroke-linecap="butt"
   stroke-linejoin="miter"
   fill="none"
   transform="scale(1,-1)"
  >
<path id= "1" d=" M 3.85 9.5 L 4.1 9.25 " />
<path id= "2" d=" M 4.1 9 L 4.1 9.25 " />
<path id= "3" d=" M 5.5 -9 L 0 -9 " />
<path id= "4" d=" M 6 -8.5 L 5.5 -9 " />
<path id= "5" d=" M 6 -2.5 L 5.5 -2.5 " />
<path id= "6" d=" M 14.6 -9 L 14.1 -9 " />
<path id= "7" d=" M 13.6 -8.5 L 14.1 -9 " />
</g>
<g   stroke="rgb(0, 0, 0)"
   stroke-width="0.0875"
   stroke-linecap="butt"
   stroke-linejoin="miter"
   fill="none"
   transform="scale(1,-1)"
  >
<path id= "1" d=" M 1.1 9.25 L 1.35 9.5 " />
<path d="M1.1,9.25 L1.13761,9.25  L1.24855,9.25  L1.42725,9.25  L1.66477,9.25  L1.94917,9.25  L2.26622,9.25  L2.6,9.25  L2.93378,9.25  L3.25083,9.25  L3.53523,9.25  L3.77275,9.25  L3.95145,9.25  L4.06239,9.25  L4.1,9.25 " /><path d="M1.35,9.5 L1.38134,9.5  L1.47379,9.5  L1.62271,9.5  L1.82064,9.5  L2.05765,9.5  L2.32185,9.5  L2.6,9.5  L2.87815,9.5  L3.14235,9.5  L3.37936,9.5  L3.57729,9.5  L3.72621,9.5  L3.81866,9.5  L3.85,9.5 " /><path d="M1.4453,8.94893 L1.39274,8.95586 " /><path d="M1.39125,8.95606 L1.38117,8.95743 " /><path d="M1.1,9 C1.1,9.00005 1.17117,8.98788 1.27126,8.97305  C1.39707,8.95474 1.56239,8.93147 1.81168,8.90907  C1.97576,8.89554 2.16763,8.8787 2.52656,8.87442  C2.90046,8.87228 3.13398,8.88935 3.30226,8.90186  C3.5717,8.9236 3.74297,8.94683 3.87983,8.96593  C4.00671,8.98405 4.09942,8.99998 4.1,9 " /><path id= "7" d=" M 1.1 9 L 1.1 9.25 " />
<path id= "8" d=" M 5.5 9 L 4.1 9 " />
<path id= "9" d=" M 1.1 9 L 0 9 " />
<path d="M0,-9 L0,-8.77435  L-8.88178e-16,-8.10872  L-8.88178e-16,-7.03648  L-8.88178e-16,-5.61141  L-8.88178e-16,-3.90495  L-8.88178e-16,-2.00269  L-8.88178e-16,1.43339e-14  L-8.88178e-16,2.00269  L-8.88178e-16,3.90495  L-8.88178e-16,5.61141  L-8.88178e-16,7.03648  L-8.88178e-16,8.10872  L0,8.77435  L0,9 " /><path d="M5.5,-9 L5.5,-8.77435  L5.5,-8.10872  L5.5,-7.03648  L5.5,-5.61141  L5.5,-3.90495  L5.5,-2.00269  L5.5,1.43339e-14  L5.5,2.00269  L5.5,3.90495  L5.5,5.61141  L5.5,7.03648  L5.5,8.10872  L5.5,8.77435  L5.5,9 " /><path id= "12" d=" M 5.5 9 L 6 8.5 " />
<path d="M6,-8.5 L6,-8.28689  L6,-7.65824  L6,-6.64557  L6,-5.29966  L6,-3.68801  L6,-1.89143  L6,1.35376e-14  L6,1.89143  L6,3.68801  L6,5.29966  L6,6.64557  L6,7.65824  L6,8.28689  L6,8.5 " /><path id= "14" d=" M 6 2.5 L 5.5 2.5 " />
<path d="M14.6,-9 L14.6,-8.77435  L14.6,-8.10872  L14.6,-7.03648  L14.6,-5.61141  L14.6,-3.90495  L14.6,-2.00269  L14.6,1.43339e-14  L14.6,2.00269  L14.6,3.90495  L14.6,5.61141  L14.6,7.03648  L14.6,8.10872  L14.6,8.77435  L14.6,9 " /><path id= "16" d=" M 13.6 -6.07049 L 6 -6.07049 " />
<path id= "17" d=" M 13.6 -5.95857 L 6 -5.95857 " />
<path id= "18" d=" M 13.6 -5.58819 L 6 -5.58819 " />
<path id= "19" d=" M 13.6 -5.26338 L 6 -5.26338 " />
<path id= "20" d=" M 13.6 -4.55889 L 6 -4.55889 " />
<path id= "21" d=" M 13.6 -4.05297 L 6 -4.05297 " />
<path id= "22" d=" M 13.6 -3.08332 L 6 -3.08332 " />
<path id= "23" d=" M 13.6 -2.44583 L 6 -2.44583 " />
<path id= "24" d=" M 13.6 -1.30594 L 6 -1.30594 " />
<path id= "25" d=" M 13.6 -0.599274 L 6 -0.599274 " />
<path id= "26" d=" M 13.6 0.599274 L 6 0.599274 " />
<path id= "27" d=" M 13.6 1.30594 L 6 1.30594 " />
<path id= "28" d=" M 13.6 2.44583 L 6 2.44583 " />
<path id= "29" d=" M 13.6 3.08332 L 6 3.08332 " />
<path id= "30" d=" M 13.6 4.05297 L 6 4.05297 " />
<path id= "31" d=" M 13.6 4.55889 L 6 4.55889 " />
<path id= "32" d=" M 13.6 5.26338 L 6 5.26338 " />
<path id= "33" d=" M 13.6 5.58819 L 6 5.58819 " />
<path id= "34" d=" M 13.6 5.95857 L 6 5.95857 " />
<path id= "35" d=" M 13.6 6.07049 L 6 6.07049 " />
<path id= "36" d=" M 14.6 9 L 14.1 9 " />
<path d="M14.1,-9 L14.1,-8.77435  L14.1,-8.10872  L14.1,-7.03648  L14.1,-5.61141  L14.1,-3.90495  L14.1,-2.00269  L14.1,1.43339e-14  L14.1,2.00269  L14.1,3.90495  L14.1,5.61141  L14.1,7.03648  L14.1,8.10872  L14.1,8.77435  L14.1,9 " /><path d="M13.6,-8.5 L13.6,-8.28689  L13.6,-7.65824  L13.6,-6.64557  L13.6,-5.29966  L13.6,-3.68801  L13.6,-1.89143  L13.6,5.98809e-15  L13.6,1.89143  L13.6,3.68801  L13.6,5.29966  L13.6,6.64557  L13.6,7.65824  L13.6,8.28689  L13.6,8.5 " /><path id= "39" d=" M 14.1 9 L 13.6 8.5 " />
</g>
</g>



</svg>

