<?xml version="1.0" encoding="UTF-8"?>

<svg xmlns="http://www.w3.org/2000/svg" version="1.1"
	width="297mm"
	height="210mm"
	viewBox="0 0 297 210">
	<!-- Working space 0 0 297 210 -->
	<defs>
		<radialGradient
			id="radialGradient3661"
			gradientUnits="userSpaceOnUse"
			cy="29.149"
			cx="282.65"
			gradientTransform="matrix(.14777 .23089 -.24680 .15795 -26.318 -62.617)"
			r="19.571">
				<stop stop-color="#71b2f8" offset="0"/>
				<stop stop-color="#002795" offset="1"/>
		</radialGradient>
		<radialGradient
			id="radialGradient3817"
			gradientUnits="userSpaceOnUse"
			cy="33.9"
			cx="270.58"
			gradientTransform="matrix(.26631 .065024 -.17931 .73438 -60.668 -36.938)"
			r="19.571">
				<stop stop-color="#ff6d0f" offset="0"/>
				<stop stop-color="#ff1000" offset="1"/>
		</radialGradient>
	</defs>
	<!-- Set display:none to hide FreeCAD Logo -->
	<g
		style="display:inline"
		id="freecad-logo"
		transform="translate(271, 185) scale(1)"
		fill-rule="evenodd"
		stroke-width=".45621">
		<path d="m0.22811 0.22835v13.256h2.9558v-5.1876h2.09v-2.0452h-2.09v-2.2075h5.1486v-3.8087l-8.1044-0.0075z"
			stroke="#370700"
			fill="url(#radialGradient3817)"/>
		<path d="m13.386 4.1792-1.7193 0.98645-0.75925-0.26348-0.72439-1.8513-1.1395 0.05988-0.51976 1.9144-0.72743 0.34835-1.8143-0.79367-0.76632 0.85156 0.98645 1.7193-0.26957 0.75702-1.8513 0.72439 0.065967 1.1417 1.9144 0.51976 0.34835 0.72743-0.79976 1.8121 0.85156 0.76632 1.7193-0.98645 0.76311 0.27179 0.7183 1.8491 1.1478-0.06375 0.51367-1.9166 0.72743-0.34835 1.8182 0.80198 0.76632-0.85156-0.98645-1.7193 0.2657-0.76533 1.8491-0.7183-0.05766-1.1456-1.9166-0.51367-0.34835-0.72743 0.7959-1.8204-0.85156-0.76632zm-2.5751 2.8195 0.35295 0.20478 0.30579 0.27725 0.24481 0.33087 0.17611 0.36787 0.10354 0.39656 0.01715 0.4064-0.0587 0.4063-0.13396 0.38571-0.2131 0.35681-0.26894 0.30192-0.33087 0.24481-0.36787 0.17611-0.39656 0.10354-0.40863 0.02325-0.4063-0.0587-0.38571-0.13396-0.35681-0.2131-0.2997-0.27503-0.24703-0.32478-0.17611-0.36787-0.10132-0.40264-0.02324-0.40863 0.05869-0.4063 0.13396-0.38571 0.21087-0.35072 0.27116-0.30801 0.33087-0.24481 0.36787-0.17611 0.40264-0.10132 0.40641-0.01715 0.4063 0.05869 0.38571 0.13396z" 
		stroke="#000137"
		fill="url(#radialGradient3661)"/>
	</g>
<g id="Ortho_0_0"
   transform="rotate(-90,111,124.5) translate(111,124.5) scale(1,1)"
  >
<g   stroke="rgb(0, 0, 0)"
   stroke-width="0.35"
   stroke-linecap="butt"
   stroke-linejoin="miter"
   fill="none"
   transform="scale(1,-1)"
  >
<path id= "1" d=" M 25 16 L 33 16 " />
<path id= "2" d=" M 33 16 L 37 12 " />
<path id= "3" d=" M 25 16 L 25 13.9954 " />
<path id= "4" d=" M 37 12 L 37 4 " />
<path id= "5" d=" M 25 13.9954 L 26.9723 13.9954 " />
<path id= "6" d=" M 37 4 L 33 1.33227e-15 " />
<path id= "7" d=" M 26.9723 13.9954 L 26.9723 11.9954 " />
<path id= "8" d=" M 33 7.10456e-15 L -34 7.10456e-15 " />
<path id= "9" d=" M 26.9723 11.9954 L 25 11.9954 " />
<path id= "10" d=" M -34 2.66454e-14 L -38 4 " />
<path id= "11" d=" M 25 11.9954 L 25 10 " />
<path id= "12" d=" M -38 4 L -38 12 " />
<path id= "13" d=" M 32 10 L 25 10 " />
<path id= "14" d=" M -38 12 L -34 16 " />
<path id= "15" d=" M 32 5 L 32 10 " />
<path id= "16" d=" M -34 16 L -26 16 " />
<path id= "17" d=" M -33 5 L 32 5 " />
<path id= "18" d=" M -26 16 L -26 13.9954 " />
<path id= "19" d=" M -33 10 L -33 5 " />
<path id= "20" d=" M -28.0277 13.9954 L -26 13.9954 " />
<path id= "21" d=" M -26 10 L -33 10 " />
<path id= "22" d=" M -28.0277 11.9954 L -28.0277 13.9954 " />
<path id= "23" d=" M -26 11.9954 L -26 10 " />
<path id= "24" d=" M -26 11.9954 L -28.0277 11.9954 " />
<path d="M3,5 L3.07522,5  L3.29709,5  L3.65451,5  L4.12953,5  L4.69835,5  L5.33244,5  L6,5  L6.66756,5  L7.30165,5  L7.87047,5  L8.34549,5  L8.70291,5  L8.92478,5  L9,5 " /><path d="M-9,5 L-8.92478,5  L-8.70291,5  L-8.34549,5  L-7.87047,5  L-7.30165,5  L-6.66756,5  L-6,5  L-5.33244,5  L-4.69835,5  L-4.12953,5  L-3.65451,5  L-3.29709,5  L-3.07522,5  L-3,5 " /></g>
</g>



<g id="Ortho_0_1"
   transform="rotate(90,111,28.5) translate(111,28.5) scale(1,1)"
  >
<g   stroke="rgb(0, 0, 0)"
   stroke-width="0.35"
   stroke-linecap="butt"
   stroke-linejoin="miter"
   fill="none"
   transform="scale(1,-1)"
  >
<path id= "1" d=" M -2.17604e-14 -16 L 8 -16 " />
<path id= "2" d=" M -1.82077e-14 -16 L -1.46549e-14 -12 " />
<path id= "3" d=" M -1.06581e-14 -12 L -3.55271e-15 -4 " />
<path id= "4" d=" M -7.54952e-15 -4 L -3.9968e-15 5.32907e-15 " />
<path id= "5" d=" M -2.17604e-14 -12 L 8 -12 " />
<path id= "6" d=" M 8 -16 L 8 -12 " />
<path id= "7" d=" M 8 -12 L 8 -4 " />
<path id= "8" d=" M 8 -4 L 8 -1.33227e-15 " />
<path id= "9" d=" M 8 -16 L 8 -13.9954 " />
<path id= "10" d=" M 8 -10 L 8 -5 " />
<path id= "11" d=" M 8 -11.9954 L 8 -13.9954 " />
<path id= "12" d=" M 8 -11.9954 L 8 -10 " />
<path id= "13" d=" M -1.82077e-14 -4 L 8 -4 " />
<path id= "14" d=" M -1.46549e-14 4.33681e-19 L 8 -7.10499e-15 " />
<path id= "15" d=" M -4.88498e-15 -16 L 8 -16 " />
</g>
</g>



<g id="Ortho_1_0"
   transform="rotate(-90,210,124.5) translate(210,124.5) scale(1,1)"
  >
<g   stroke="rgb(0, 0, 0)"
   stroke-width="0.35"
   stroke-linecap="butt"
   stroke-linejoin="miter"
   fill="none"
   transform="scale(1,-1)"
  >
<path id= "1" d=" M 25 -1.57621e-14 L 26.9723 -1.57621e-14 " />
<path id= "2" d=" M 37 -7.54952e-15 L 33 -3.9968e-15 " />
<path id= "3" d=" M 33 6.50887e-30 L -34 -6.70455e-30 " />
<path id= "4" d=" M -34 -3.9968e-15 L -38 -7.54952e-15 " />
<path id= "5" d=" M 32 -8.88178e-15 L 25 -8.88178e-15 " />
<path id= "6" d=" M -28.0277 -1.57621e-14 L -26 -1.57621e-14 " />
<path id= "7" d=" M -26 -8.88178e-15 L -33 -8.88178e-15 " />
<path id= "8" d=" M 37 8 L 33 8 " />
<path id= "9" d=" M 33 8 L -34 8 " />
<path id= "10" d=" M -34 8 L -38 8 " />
<path id= "11" d=" M 37 -1.82077e-14 L 37 8 " />
<path id= "12" d=" M 33 -1.46549e-14 L 33 8 " />
<path id= "13" d=" M -34 1.5099e-14 L -34 8 " />
<circle cx ="-6" cy ="4" r ="1.6" /><circle cx ="6" cy ="4" r ="1.6" /><path id= "16" d=" M -38 1.5099e-14 L -38 8 " />
</g>
</g>



</svg>

