<?xml version="1.0" encoding="UTF-8"?>

<svg xmlns="http://www.w3.org/2000/svg" version="1.1"
	width="297mm"
	height="210mm"
	viewBox="0 0 297 210">
	<!-- Working space 0 0 297 210 -->
	<defs>
		<radialGradient
			id="radialGradient3661"
			gradientUnits="userSpaceOnUse"
			cy="29.149"
			cx="282.65"
			gradientTransform="matrix(.14777 .23089 -.24680 .15795 -26.318 -62.617)"
			r="19.571">
				<stop stop-color="#71b2f8" offset="0"/>
				<stop stop-color="#002795" offset="1"/>
		</radialGradient>
		<radialGradient
			id="radialGradient3817"
			gradientUnits="userSpaceOnUse"
			cy="33.9"
			cx="270.58"
			gradientTransform="matrix(.26631 .065024 -.17931 .73438 -60.668 -36.938)"
			r="19.571">
				<stop stop-color="#ff6d0f" offset="0"/>
				<stop stop-color="#ff1000" offset="1"/>
		</radialGradient>
	</defs>
	<!-- Set display:none to hide FreeCAD Logo -->
	<g
		style="display:inline"
		id="freecad-logo"
		transform="translate(271, 185) scale(1)"
		fill-rule="evenodd"
		stroke-width=".45621">
		<path d="m0.22811 0.22835v13.256h2.9558v-5.1876h2.09v-2.0452h-2.09v-2.2075h5.1486v-3.8087l-8.1044-0.0075z"
			stroke="#370700"
			fill="url(#radialGradient3817)"/>
		<path d="m13.386 4.1792-1.7193 0.98645-0.75925-0.26348-0.72439-1.8513-1.1395 0.05988-0.51976 1.9144-0.72743 0.34835-1.8143-0.79367-0.76632 0.85156 0.98645 1.7193-0.26957 0.75702-1.8513 0.72439 0.065967 1.1417 1.9144 0.51976 0.34835 0.72743-0.79976 1.8121 0.85156 0.76632 1.7193-0.98645 0.76311 0.27179 0.7183 1.8491 1.1478-0.06375 0.51367-1.9166 0.72743-0.34835 1.8182 0.80198 0.76632-0.85156-0.98645-1.7193 0.2657-0.76533 1.8491-0.7183-0.05766-1.1456-1.9166-0.51367-0.34835-0.72743 0.7959-1.8204-0.85156-0.76632zm-2.5751 2.8195 0.35295 0.20478 0.30579 0.27725 0.24481 0.33087 0.17611 0.36787 0.10354 0.39656 0.01715 0.4064-0.0587 0.4063-0.13396 0.38571-0.2131 0.35681-0.26894 0.30192-0.33087 0.24481-0.36787 0.17611-0.39656 0.10354-0.40863 0.02325-0.4063-0.0587-0.38571-0.13396-0.35681-0.2131-0.2997-0.27503-0.24703-0.32478-0.17611-0.36787-0.10132-0.40264-0.02324-0.40863 0.05869-0.4063 0.13396-0.38571 0.21087-0.35072 0.27116-0.30801 0.33087-0.24481 0.36787-0.17611 0.40264-0.10132 0.40641-0.01715 0.4063 0.05869 0.38571 0.13396z" 
		stroke="#000137"
		fill="url(#radialGradient3661)"/>
	</g>
<g id="View"
   transform="rotate(60,151.328,99.6928) translate(151.328,99.6928) scale(1,1)"
  >
<g   stroke="rgb(0, 0, 0)"
   stroke-width="0.35"
   stroke-linecap="butt"
   stroke-linejoin="miter"
   fill="none"
   transform="scale(1,-1)"
  >
<path id= "1" d=" M -17.6777 -2.85774 L -23.3345 0.408248 " />
<path id= "2" d=" M -23.3345 0.408248 L -17.6777 3.67423 " />
<path id= "3" d=" M -17.6777 -2.85774 L -12.0208 0.408248 " />
<path id= "4" d=" M -12.0208 0.408248 L -17.6777 3.67423 " />
<path id= "5" d=" M -23.3345 0.408248 L -26.163 5.30723 " />
<path id= "6" d=" M -26.163 5.30723 L -26.163 11.8392 " />
<path id= "7" d=" M 24.0416 -26.9444 L 18.3848 -23.6784 " />
<path id= "8" d=" M 21.9203 -16.7382 L -12.7312 3.26787 " />
<path id= "9" d=" M 18.3848 -23.6784 L 18.3848 -22.0416 " />
<path id= "10" d=" M 18.3848 -20.4086 L 18.3848 -18.7794 " />
<path id= "11" d=" M 18.3848 -20.4086 L 19.799 -21.2251 " />
<path id= "12" d=" M -26.163 5.30723 L -20.5061 8.57321 " />
<path id= "13" d=" M -17.6777 3.67423 L -20.5061 8.57321 " />
<path id= "14" d=" M -12.0208 0.408248 L -12.0208 2.04501 " />
<path id= "15" d=" M -20.5061 8.57321 L -20.5061 15.1052 " />
<path id= "16" d=" M -12.0208 2.04501 L -13.4154 2.85021 " />
<path id= "17" d=" M -20.5061 15.1052 L -17.6777 16.7382 " />
<path id= "18" d=" M -13.4154 2.85021 L -13.4154 4.4832 " />
<path id= "19" d=" M -17.6777 16.7382 L 29.6985 -10.6145 " />
<path id= "20" d=" M -13.4154 4.4832 L -12.0208 3.67801 " />
<path id= "21" d=" M 29.6985 -10.6145 L 32.5269 -15.5134 " />
<path id= "22" d=" M -12.0208 3.67801 L -12.0208 5.30723 " />
<path id= "23" d=" M 32.5269 -15.5134 L 32.5269 -22.0454 " />
<path id= "24" d=" M -16.9706 8.16497 L -12.0208 5.30723 " />
<path id= "25" d=" M 32.5269 -22.0454 L 29.6985 -23.6784 " />
<path id= "26" d=" M -16.9706 12.2474 L -16.9706 8.16497 " />
<path id= "27" d=" M 29.6985 -23.6784 L 24.0416 -20.4124 " />
<path id= "28" d=" M 28.9914 -14.2887 L -16.9706 12.2474 " />
<path id= "29" d=" M 24.0416 -20.4124 L 24.0416 -18.7756 " />
<path id= "30" d=" M 28.9914 -18.3712 L 28.9914 -14.2887 " />
<path id= "31" d=" M 25.4754 -19.6035 L 24.0416 -18.7756 " />
<path id= "32" d=" M 24.0416 -15.5134 L 28.9914 -18.3712 " />
<path id= "33" d=" M 25.4754 -17.9705 L 25.4754 -19.6035 " />
<path id= "34" d=" M 24.0416 -17.1427 L 24.0416 -15.5134 " />
<path id= "35" d=" M 24.0416 -17.1427 L 25.4754 -17.9705 " />
<path id= "36" d=" M -26.163 11.8392 L -20.5061 15.1052 " />
<path id= "37" d=" M -13.4154 2.87281 L -12.0208 3.67801 " />
<path id= "38" d=" M 24.0416 -26.9444 L 29.6985 -23.6784 " />
<path id= "39" d=" M 18.3848 -23.6784 L 24.0416 -20.4124 " />
<path id= "40" d=" M 25.4558 -16.3299 L 28.9914 -14.2887 " />
<path d="M0.707107 -1.22474 A3 1.73205 180 0 1 1.58579 4.13984e-15" />
<path d="M1.58579 4.13984e-15 A3 1.73205 180 0 1 -4.41421 1.02831e-14" />
<path d="M-4.41421 9.8589e-15 A3 1.73205 180 0 1 0.707107 -1.22474" />
<path d="M9.19239 -6.12372 A3 1.73205 180 0 1 10.0711 -4.89898" />
<path d="M10.0711 -4.89898 A3 1.73205 180 0 1 4.07107 -4.89898" />
<path d="M4.07107 -4.89898 A3 1.73205 180 0 1 9.19239 -6.12372" />
<path id= "47" d=" M 24.0416 -18.7756 L 18.3848 -22.0416 " />
<path id= "48" d=" M 18.3848 -18.7794 L 24.0416 -15.5134 " />
<path id= "49" d=" M 25.4754 -17.9705 L 24.0612 -18.787 " />
<path id= "50" d=" M 18.3848 -20.4086 L 24.0416 -17.1427 " />
<path d="M8.20244 -3.91918 A1.6 0.92376 180 0 1 8.64712 -3.4252" />
<path d="M5.49501 -3.4252 A1.6 0.92376 180 0 1 8.20244 -3.91918" />
<path d="M-0.282843 0.979796 A1.6 0.92376 180 0 1 0.161842 1.47378" />
<path d="M-2.99027 1.47378 A1.6 0.92376 180 0 1 -0.282843 0.979796" />
<path d="M0.707107 0.408248 A3 1.73205 180 0 1 1.23154 0.816497" />
<path d="M-4.05996 0.816497 A3 1.73205 180 0 1 0.707107 0.408248" />
<path d="M9.19239 -4.49073 A3 1.73205 180 0 1 9.71682 -4.08248" />
<path d="M4.42532 -4.08248 A3 1.73205 180 0 1 9.19239 -4.49073" />
</g>
</g>



</svg>

