<?xml version="1.0" encoding="UTF-8"?>

<svg xmlns="http://www.w3.org/2000/svg" version="1.1"
	width="297mm"
	height="210mm"
	viewBox="0 0 297 210">
	<!-- Working space 0 0 297 210 -->
	<defs>
		<radialGradient
			id="radialGradient3661"
			gradientUnits="userSpaceOnUse"
			cy="29.149"
			cx="282.65"
			gradientTransform="matrix(.14777 .23089 -.24680 .15795 -26.318 -62.617)"
			r="19.571">
				<stop stop-color="#71b2f8" offset="0"/>
				<stop stop-color="#002795" offset="1"/>
		</radialGradient>
		<radialGradient
			id="radialGradient3817"
			gradientUnits="userSpaceOnUse"
			cy="33.9"
			cx="270.58"
			gradientTransform="matrix(.26631 .065024 -.17931 .73438 -60.668 -36.938)"
			r="19.571">
				<stop stop-color="#ff6d0f" offset="0"/>
				<stop stop-color="#ff1000" offset="1"/>
		</radialGradient>
	</defs>
	<!-- Set display:none to hide FreeCAD Logo -->
	<g
		style="display:inline"
		id="freecad-logo"
		transform="translate(271, 185) scale(1)"
		fill-rule="evenodd"
		stroke-width=".45621">
		<path d="m0.22811 0.22835v13.256h2.9558v-5.1876h2.09v-2.0452h-2.09v-2.2075h5.1486v-3.8087l-8.1044-0.0075z"
			stroke="#370700"
			fill="url(#radialGradient3817)"/>
		<path d="m13.386 4.1792-1.7193 0.98645-0.75925-0.26348-0.72439-1.8513-1.1395 0.05988-0.51976 1.9144-0.72743 0.34835-1.8143-0.79367-0.76632 0.85156 0.98645 1.7193-0.26957 0.75702-1.8513 0.72439 0.065967 1.1417 1.9144 0.51976 0.34835 0.72743-0.79976 1.8121 0.85156 0.76632 1.7193-0.98645 0.76311 0.27179 0.7183 1.8491 1.1478-0.06375 0.51367-1.9166 0.72743-0.34835 1.8182 0.80198 0.76632-0.85156-0.98645-1.7193 0.2657-0.76533 1.8491-0.7183-0.05766-1.1456-1.9166-0.51367-0.34835-0.72743 0.7959-1.8204-0.85156-0.76632zm-2.5751 2.8195 0.35295 0.20478 0.30579 0.27725 0.24481 0.33087 0.17611 0.36787 0.10354 0.39656 0.01715 0.4064-0.0587 0.4063-0.13396 0.38571-0.2131 0.35681-0.26894 0.30192-0.33087 0.24481-0.36787 0.17611-0.39656 0.10354-0.40863 0.02325-0.4063-0.0587-0.38571-0.13396-0.35681-0.2131-0.2997-0.27503-0.24703-0.32478-0.17611-0.36787-0.10132-0.40264-0.02324-0.40863 0.05869-0.4063 0.13396-0.38571 0.21087-0.35072 0.27116-0.30801 0.33087-0.24481 0.36787-0.17611 0.40264-0.10132 0.40641-0.01715 0.4063 0.05869 0.38571 0.13396z" 
		stroke="#000137"
		fill="url(#radialGradient3661)"/>
	</g>
<g id="View"
   transform="rotate(60,148.5,105.98) translate(148.5,105.98) scale(1,1)"
  >
<g   stroke="rgb(0, 0, 0)"
   stroke-width="0.35"
   stroke-linecap="butt"
   stroke-linejoin="miter"
   fill="none"
   transform="scale(1,-1)"
  >
<path d="M-0.798528 0.5765 A1.7 0.981495 60 0 1 -0.898528 0.403295" />
<path d="M-0.681117 0.824399 A1.5 0.866025 60 0 1 -1.05451 0.177665" />
<path d="M1.94454,1.12268 L1.94368,1.21126  L1.94109,1.30097  L1.93676,1.39195  L1.9307,1.48435  L1.92289,1.57829  L1.91332,1.67394  L1.90197,1.77143  L1.88884,1.87091  L1.87389,1.97254  L1.8571,2.07648  L1.83845,2.18288  L1.81791,2.29191  L1.79545,2.40373  L1.77104,2.51852 " /><path d="M1.77104 2.51852 A3.175 1.83309 60 0 1 1.77052 2.51927" />
<path d="M1.77052 -0.0741561 A3.175 1.83309 60 0 1 1.77104 -0.0728096" />
<path d="M0.972272,-1.3832 L1.03747,-1.30052  L1.10104,-1.21672  L1.16308,-1.13167  L1.22368,-1.04523  L1.28295,-0.957275  L1.34097,-0.867667  L1.39783,-0.77627  L1.45361,-0.682942  L1.50841,-0.58754  L1.56231,-0.489917  L1.61539,-0.389922  L1.66773,-0.287403  L1.71941,-0.182202  L1.77052,-0.0741561 " /><path d="M1.77104,-0.0728096 L1.79545,0.0137887  L1.81791,0.0996784  L1.83845,0.184992  L1.8571,0.269859  L1.87389,0.354412  L1.88884,0.438781  L1.90197,0.523094  L1.91332,0.607482  L1.92289,0.692075  L1.9307,0.777002  L1.93676,0.862395  L1.94109,0.948384  L1.94368,1.0351  L1.94454,1.12268 " /><path d="M-0.172983,-2.4919 L-0.0730463,-2.41205  L0.0235556,-2.33278  L0.116971,-2.25398  L0.207345,-2.17552  L0.294815,-2.09728  L0.379516,-2.01914  L0.461578,-1.94098  L0.541128,-1.86268  L0.618288,-1.78413  L0.693176,-1.70519  L0.765909,-1.62575  L0.836597,-1.54569  L0.905349,-1.46488  L0.972272,-1.3832 " /><path d="M-0.174028 -2.4925 A3.175 1.83309 60 0 1 -0.172983 -2.4919" />
<path d="M-0.972272,-2.50589 L-0.907076,-2.51129  L-0.843507,-2.5157  L-0.781466,-2.51913  L-0.720859,-2.52159  L-0.661593,-2.52307  L-0.603575,-2.52358  L-0.546717,-2.52312  L-0.490931,-2.52169  L-0.436131,-2.51929  L-0.382234,-2.51591  L-0.329156,-2.51155  L-0.276816,-2.5062  L-0.225133,-2.49986  L-0.174028,-2.4925 " /><path d="M-2.11753,-2.31892 L-2.01759,-2.33976  L-1.92099,-2.35935  L-1.82757,-2.37772  L-1.7372,-2.39489  L-1.64973,-2.41089  L-1.56503,-2.42576  L-1.48297,-2.4395  L-1.40342,-2.45214  L-1.32626,-2.4637  L-1.25137,-2.4742  L-1.17864,-2.48366  L-1.10795,-2.49208  L-1.03919,-2.49949  L-0.972272,-2.50589 " /><path d="M-2.6163 0.285774 A1.5 0.866025 60 0 1 -2.30563 -0.400892" />
<path d="M-2.30563 -0.400892 A1.5 0.866025 60 0 1 -1.62413 -0.363589" />
<path d="M-0.497189 1.58833 A1.5 0.866025 60 0 1 -0.805635 2.19718" />
<path d="M-0.805635 2.19718 A1.5 0.866025 60 0 1 -2.6163 0.285774" />
<path d="M0.247487,2.10248 L0.248351,2.0139  L0.250942,1.92419  L0.255266,1.83321  L0.261329,1.74082  L0.26914,1.64687  L0.278711,1.55122  L0.290057,1.45374  L0.303195,1.35425  L0.318146,1.25262  L0.334932,1.14868  L0.35358,1.04228  L0.374118,0.933254  L0.396577,0.821431  L0.420993,0.706639 " /><path id= "17" d=" M 1.77104 -0.0728096 L 0.420993 0.706639 " />
<path id= "18" d=" M 1.77104 2.51852 L 0.420993 3.29797 " />
<path d="M0.420993,3.29797 L0.396577,3.21137  L0.374118,3.12548  L0.35358,3.04017  L0.334932,2.9553  L0.318146,2.87075  L0.303195,2.78638  L0.290057,2.70207  L0.278711,2.61768  L0.26914,2.53309  L0.261329,2.44816  L0.255266,2.36277  L0.250942,2.27678  L0.248351,2.19006  L0.247487,2.10248 " /><path d="M-0.724784,3.48568 L-0.657862,3.47928  L-0.589109,3.47188  L-0.518421,3.46345  L-0.445689,3.454  L-0.3708,3.4435  L-0.29364,3.43193  L-0.214091,3.41929  L-0.132028,3.40555  L-0.0473272,3.39069  L0.0401426,3.37468  L0.130516,3.35751  L0.223932,3.33915  L0.320534,3.31956  L0.42047,3.29871 " /><path id= "21" d=" M 1.77052 2.51927 L 0.42047 3.29871 " />
<path d="M-1.52303,3.4723 L-1.47192,3.47965  L-1.42024,3.486  L-1.3679,3.49134  L-1.31482,3.4957  L-1.26092,3.49908  L-1.20613,3.50149  L-1.15034,3.50291  L-1.09348,3.50337  L-1.03546,3.50286  L-0.976197,3.50138  L-0.91559,3.49893  L-0.853549,3.4955  L-0.78998,3.49108  L-0.724784,3.48568 " /><path d="M0.420993 3.29797 A3.175 1.83309 60 0 1 0.42047 3.29871" />
<path id= "24" d=" M 1.77052 -0.0741561 L 0.42047 0.705293 " />
<path d="M0.42047 0.705293 A3.175 1.83309 60 0 1 0.420993 0.706639" />
<path d="M-0.724784,-0.403406 L-0.78998,-0.486084  L-0.853549,-0.569885  L-0.91559,-0.65494  L-0.976197,-0.741378  L-1.03546,-0.829334  L-1.09348,-0.918941  L-1.15034,-1.01034  L-1.20613,-1.10367  L-1.26092,-1.19907  L-1.31482,-1.29669  L-1.3679,-1.39669  L-1.42024,-1.49921  L-1.47192,-1.60441  L-1.52303,-1.71245 " /><path id= "27" d=" M -0.172983 -2.4919 L -1.52303 -1.71245 " />
<path d="M0.42047,0.705293 L0.320534,0.62544  L0.223932,0.546172  L0.130516,0.467368  L0.0401426,0.388907  L-0.0473273,0.310667  L-0.132028,0.232528  L-0.214091,0.154371  L-0.29364,0.0760747  L-0.3708,-0.00248113  L-0.445689,-0.0814173  L-0.518421,-0.160855  L-0.589109,-0.240917  L-0.657862,-0.321726  L-0.724784,-0.403406 " /><path d="M-2.66933,2.363 L-2.60241,2.44468  L-2.53365,2.52549  L-2.46296,2.60555  L-2.39023,2.68499  L-2.31534,2.76392  L-2.23818,2.84248  L-2.15863,2.92078  L-2.07657,2.99893  L-1.99187,3.07707  L-1.9044,3.15531  L-1.81403,3.23377  L-1.72061,3.31258  L-1.62401,3.39184  L-1.52407,3.4717 " /><path d="M-3.46757,1.05395 L-3.41647,1.162  L-3.36478,1.2672  L-3.31244,1.36972  L-3.25937,1.46971  L-3.20547,1.56734  L-3.15067,1.66274  L-3.09488,1.75607  L-3.03803,1.84746  L-2.98001,1.93707  L-2.92074,2.02503  L-2.86013,2.11146  L-2.79809,2.19652  L-2.73452,2.28032  L-2.66933,2.363 " /><path d="M-1.52303 3.4723 A3.175 1.83309 60 0 1 -1.52407 3.4717" />
<path id= "32" d=" M -0.174028 -2.4925 L -1.52407 -1.71306 " />
<path d="M-1.52407 -1.71306 A3.175 1.83309 60 0 1 -1.52303 -1.71245" />
<path d="M-2.66933,-1.52609 L-2.73452,-1.52069  L-2.79809,-1.51627  L-2.86013,-1.51284  L-2.92074,-1.51039  L-2.98001,-1.50891  L-3.03803,-1.5084  L-3.09488,-1.50886  L-3.15067,-1.51028  L-3.20547,-1.51269  L-3.25937,-1.51607  L-3.31244,-1.52043  L-3.36478,-1.52577  L-3.41647,-1.53212  L-3.46757,-1.53947 " /><path id= "35" d=" M -2.11753 -2.31892 L -3.46757 -1.53947 " />
<path d="M-1.52407,-1.71306 L-1.62401,-1.69221  L-1.72061,-1.67262  L-1.81403,-1.65426  L-1.9044,-1.63709  L-1.99187,-1.62108  L-2.07657,-1.60622  L-2.15863,-1.59248  L-2.23818,-1.57984  L-2.31534,-1.56827  L-2.39023,-1.55777  L-2.46296,-1.54832  L-2.53365,-1.53989  L-2.60241,-1.53249  L-2.66933,-1.52609 " /><path d="M-3.6416,-0.142887 L-3.64074,-0.0553064  L-3.63814,0.0314118  L-3.63382,0.117401  L-3.62776,0.202794  L-3.61995,0.287721  L-3.61038,0.372314  L-3.59903,0.456702  L-3.58589,0.541015  L-3.57094,0.625384  L-3.55416,0.709937  L-3.53551,0.794804  L-3.51497,0.880117  L-3.49251,0.966007  L-3.46809,1.05261 " /><path d="M-3.46809,-1.53873 L-3.49251,-1.42394  L-3.51497,-1.31211  L-3.53551,-1.20308  L-3.55416,-1.09668  L-3.57094,-0.992747  L-3.58589,-0.891115  L-3.59903,-0.79163  L-3.61038,-0.694141  L-3.61995,-0.598497  L-3.62776,-0.50455  L-3.63382,-0.412157  L-3.63814,-0.321175  L-3.64074,-0.231464  L-3.6416,-0.142887 " /><path d="M-3.46757 1.05395 A3.175 1.83309 60 0 1 -3.46809 1.05261" />
<path d="M-3.46809 -1.53873 A3.175 1.83309 60 0 1 -3.46757 -1.53947" />
<path d="M-2.89914 0.285774 A1.7 0.981495 60 0 1 -1.69706 -0.408248" />
<path d="M-1.69706 -0.408248 A1.7 0.981495 60 0 1 -0.494975 1.67382" />
<path d="M-0.494975 1.67382 A1.7 0.981495 60 1 1 -2.89914 0.285774" />
<path d="M-0.724784 -0.403406 A2.75 1.58771 60 0 1 0.247487 2.10248" />
<path d="M0.247487 2.10248 A2.75 1.58771 60 0 1 -0.724784 3.48568" />
<path d="M-0.724784 3.48568 A2.75 1.58771 60 0 1 -2.66933 2.363" />
<path d="M-2.66933 -1.52609 A2.75 1.58771 60 0 1 -0.724784 -0.403406" />
<path d="M-2.66933 2.363 A2.75 1.58771 60 0 1 -3.6416 -0.142887" />
<path d="M-3.6416 -0.142887 A2.75 1.58771 60 0 1 -2.66933 -1.52609" />
</g>
</g>



</svg>

