<?xml version="1.0" encoding="UTF-8"?>

<svg xmlns="http://www.w3.org/2000/svg" version="1.1"
	width="297mm"
	height="210mm"
	viewBox="0 0 297 210">
	<!-- Working space 0 0 297 210 -->
	<defs>
		<radialGradient
			id="radialGradient3661"
			gradientUnits="userSpaceOnUse"
			cy="29.149"
			cx="282.65"
			gradientTransform="matrix(.14777 .23089 -.24680 .15795 -26.318 -62.617)"
			r="19.571">
				<stop stop-color="#71b2f8" offset="0"/>
				<stop stop-color="#002795" offset="1"/>
		</radialGradient>
		<radialGradient
			id="radialGradient3817"
			gradientUnits="userSpaceOnUse"
			cy="33.9"
			cx="270.58"
			gradientTransform="matrix(.26631 .065024 -.17931 .73438 -60.668 -36.938)"
			r="19.571">
				<stop stop-color="#ff6d0f" offset="0"/>
				<stop stop-color="#ff1000" offset="1"/>
		</radialGradient>
	</defs>
	<!-- Set display:none to hide FreeCAD Logo -->
	<g
		style="display:inline"
		id="freecad-logo"
		transform="translate(271, 185) scale(1)"
		fill-rule="evenodd"
		stroke-width=".45621">
		<path d="m0.22811 0.22835v13.256h2.9558v-5.1876h2.09v-2.0452h-2.09v-2.2075h5.1486v-3.8087l-8.1044-0.0075z"
			stroke="#370700"
			fill="url(#radialGradient3817)"/>
		<path d="m13.386 4.1792-1.7193 0.98645-0.75925-0.26348-0.72439-1.8513-1.1395 0.05988-0.51976 1.9144-0.72743 0.34835-1.8143-0.79367-0.76632 0.85156 0.98645 1.7193-0.26957 0.75702-1.8513 0.72439 0.065967 1.1417 1.9144 0.51976 0.34835 0.72743-0.79976 1.8121 0.85156 0.76632 1.7193-0.98645 0.76311 0.27179 0.7183 1.8491 1.1478-0.06375 0.51367-1.9166 0.72743-0.34835 1.8182 0.80198 0.76632-0.85156-0.98645-1.7193 0.2657-0.76533 1.8491-0.7183-0.05766-1.1456-1.9166-0.51367-0.34835-0.72743 0.7959-1.8204-0.85156-0.76632zm-2.5751 2.8195 0.35295 0.20478 0.30579 0.27725 0.24481 0.33087 0.17611 0.36787 0.10354 0.39656 0.01715 0.4064-0.0587 0.4063-0.13396 0.38571-0.2131 0.35681-0.26894 0.30192-0.33087 0.24481-0.36787 0.17611-0.39656 0.10354-0.40863 0.02325-0.4063-0.0587-0.38571-0.13396-0.35681-0.2131-0.2997-0.27503-0.24703-0.32478-0.17611-0.36787-0.10132-0.40264-0.02324-0.40863 0.05869-0.4063 0.13396-0.38571 0.21087-0.35072 0.27116-0.30801 0.33087-0.24481 0.36787-0.17611 0.40264-0.10132 0.40641-0.01715 0.4063 0.05869 0.38571 0.13396z" 
		stroke="#000137"
		fill="url(#radialGradient3661)"/>
	</g>
<g id="Ortho_0_0"
   transform="rotate(-90,83.5,192.667) translate(83.5,192.667) scale(1,1)"
  >
<g   stroke="rgb(0, 0, 0)"
   stroke-width="0.35"
   stroke-linecap="butt"
   stroke-linejoin="miter"
   fill="none"
   transform="scale(1,-1)"
  >
<path id= "1" d=" M -1.33227e-15 -2.75 L 0.245374 -3.175 " />
<path id= "2" d=" M 1.11022e-15 2.75 L 0.245374 3.175 " />
<path id= "3" d=" M 0.245374 -3.175 L 2.15463 -3.175 " />
<path id= "4" d=" M 0.245374 3.175 L 2.15463 3.175 " />
<path id= "5" d=" M 2.4 -2.75 L 2.15463 -3.175 " />
<path id= "6" d=" M 2.4 2.75 L 2.15463 3.175 " />
</g>
<g   stroke="rgb(0, 0, 0)"
   stroke-width="0.35"
   stroke-linecap="butt"
   stroke-linejoin="miter"
   fill="none"
   transform="scale(1,-1)"
  >
<path d="M9.4369e-16,1.7 L9.20029e-16,1.65738  L8.50235e-16,1.53165  L7.37806e-16,1.32911  L5.88381e-16,1.05993  L4.09452e-16,0.737602  L2.09991e-16,0.378286  L1.15569e-31,2.0819e-16  L-2.09991e-16,-0.378286  L-4.09452e-16,-0.737602  L-5.88381e-16,-1.05993  L-7.37806e-16,-1.32911  L-8.50235e-16,-1.53165  L-9.20029e-16,-1.65738  L-9.4369e-16,-1.7 " /><path d="M0,0 L-1.1408e-16,-0.205508  L-2.27521e-16,-0.409866  L-3.39691e-16,-0.611933  L-4.4996e-16,-0.810577  L-5.57714e-16,-1.00469  L-6.62348e-16,-1.19318  L-7.63278e-16,-1.375  L-8.5994e-16,-1.54913  L-9.51793e-16,-1.7146  L-1.03832e-15,-1.87048  L-1.11905e-15,-2.01589  L-1.19351e-15,-2.15004  L-1.2613e-15,-2.27216  L-1.32204e-15,-2.38157 " /><path d="M1.32204e-15,2.38157 L1.2613e-15,2.27216  L1.19351e-15,2.15004  L1.11905e-15,2.01589  L1.03832e-15,1.87048  L9.51793e-16,1.7146  L8.5994e-16,1.54913  L7.63278e-16,1.375  L6.62348e-16,1.19318  L5.57714e-16,1.00469  L4.4996e-16,0.810577  L3.39691e-16,0.611933  L2.27521e-16,0.409866  L1.1408e-16,0.205508  L-5.04952e-30,-9.09641e-15 " /><path d="M-1.32204e-15,-2.38157 L-1.34965e-15,-2.43132  L-1.37538e-15,-2.47766  L-1.39918e-15,-2.52055  L-1.42103e-15,-2.5599  L-1.44089e-15,-2.59568  L-1.45874e-15,-2.62783  L-1.47454e-15,-2.6563  L-1.48828e-15,-2.68105  L-1.49994e-15,-2.70206  L-1.50951e-15,-2.71928  L-1.51696e-15,-2.73271  L-1.52229e-15,-2.74231  L-1.52549e-15,-2.74808  L-1.52656e-15,-2.75 " /><path d="M1.52656e-15,2.75 L1.52549e-15,2.74808  L1.52229e-15,2.74231  L1.51696e-15,2.73271  L1.50951e-15,2.71928  L1.49994e-15,2.70206  L1.48828e-15,2.68105  L1.47454e-15,2.6563  L1.45874e-15,2.62783  L1.44089e-15,2.59568  L1.42103e-15,2.5599  L1.39918e-15,2.52055  L1.37538e-15,2.47766  L1.34965e-15,2.43132  L1.32204e-15,2.38157 " /><path d="M0,0 L0.00122108,-0.107874  L0.00488621,-0.215915  L0.011001,-0.324287  L0.0195749,-0.433158  L0.0306211,-0.542695  L0.0441566,-0.653068  L0.0602021,-0.764444  L0.0787824,-0.876997  L0.099926,-0.990898  L0.123666,-1.10632  L0.150037,-1.22345  L0.179082,-1.34246  L0.210845,-1.46353  L0.245374,-1.58686 " /><path d="M0.245374,-1.58814 L0.210845,-1.6498  L0.179082,-1.71034  L0.150037,-1.76984  L0.123666,-1.82841  L0.0999261,-1.88612  L0.0787824,-1.94307  L0.0602021,-1.99935  L0.0441566,-2.05504  L0.0306211,-2.11022  L0.0195749,-2.16499  L0.011001,-2.21943  L0.00488621,-2.27361  L0.00122108,-2.32763  L-1.23731e-15,-2.38157 " /><path d="M0.245374,-1.58686 L0.245374,-1.58695  L0.245374,-1.58704  L0.245374,-1.58713  L0.245374,-1.58723  L0.245374,-1.58732  L0.245374,-1.58741  L0.245374,-1.5875  L0.245374,-1.58759  L0.245374,-1.58768  L0.245374,-1.58777  L0.245374,-1.58787  L0.245374,-1.58796  L0.245374,-1.58805  L0.245374,-1.58814 " /><path d="M0.245374,1.58814 L0.245374,1.58805  L0.245374,1.58796  L0.245374,1.58787  L0.245374,1.58777  L0.245374,1.58768  L0.245374,1.58759  L0.245374,1.5875  L0.245374,1.58741  L0.245374,1.58732  L0.245374,1.58723  L0.245374,1.58713  L0.245374,1.58704  L0.245374,1.58695  L0.245374,1.58686 " /><path d="M1.45936e-15,2.38157 L0.00122108,2.32763  L0.00488621,2.27361  L0.011001,2.21943  L0.0195749,2.16499  L0.0306211,2.11022  L0.0441566,2.05504  L0.0602021,1.99935  L0.0787824,1.94307  L0.099926,1.88612  L0.123666,1.82841  L0.150037,1.76984  L0.179082,1.71034  L0.210845,1.6498  L0.245374,1.58814 " /><path d="M0.245374,1.58686 L0.210845,1.46353  L0.179082,1.34246  L0.150037,1.22345  L0.123666,1.10632  L0.099926,0.990898  L0.0787824,0.876997  L0.0602021,0.764444  L0.0441566,0.653068  L0.0306211,0.542695  L0.0195749,0.433158  L0.011001,0.324287  L0.00488621,0.215915  L0.00122108,0.107874  L2.24339e-31,6.73556e-16 " /><path d="M-1.23731e-15,-2.38157 L0.00122108,-2.43551  L0.00488621,-2.48953  L0.011001,-2.54371  L0.0195749,-2.59815  L0.0306211,-2.65292  L0.0441566,-2.7081  L0.0602021,-2.76379  L0.0787824,-2.82007  L0.099926,-2.87702  L0.123666,-2.93473  L0.150037,-2.9933  L0.179082,-3.0528  L0.210845,-3.11334  L0.245374,-3.175 " /><path d="M0.245374,3.175 L0.210845,3.11334  L0.179082,3.0528  L0.150037,2.9933  L0.123666,2.93473  L0.099926,2.87702  L0.0787824,2.82007  L0.0602021,2.76379  L0.0441566,2.7081  L0.0306211,2.65292  L0.0195749,2.59815  L0.011001,2.54371  L0.00488621,2.48953  L0.00122108,2.43551  L1.45936e-15,2.38157 " /><path d="M2.4,-6.58712e-16 L2.39878,0.107874  L2.39511,0.215915  L2.389,0.324287  L2.38043,0.433158  L2.36938,0.542695  L2.35584,0.653068  L2.3398,0.764444  L2.32122,0.876997  L2.30007,0.990898  L2.27633,1.10632  L2.24996,1.22345  L2.22092,1.34246  L2.18916,1.46353  L2.15463,1.58686 " /><path id= "15" d=" M 0.245374 1.58686 L 2.15463 1.58686 " />
<path id= "16" d=" M 0.245374 -1.58686 L 2.15463 -1.58686 " />
<path d="M2.15463,-1.58686 L2.18916,-1.46353  L2.22092,-1.34246  L2.24996,-1.22345  L2.27633,-1.10632  L2.30007,-0.990898  L2.32122,-0.876997  L2.3398,-0.764444  L2.35584,-0.653068  L2.36938,-0.542695  L2.38043,-0.433158  L2.389,-0.324287  L2.39511,-0.215915  L2.39878,-0.107874  L2.4,-1.33227e-15 " /><path d="M2.4,-2.38157 L2.39878,-2.32763  L2.39511,-2.27361  L2.389,-2.21943  L2.38043,-2.16499  L2.36938,-2.11022  L2.35584,-2.05504  L2.3398,-1.99935  L2.32122,-1.94307  L2.30007,-1.88612  L2.27633,-1.82841  L2.24996,-1.76984  L2.22092,-1.71034  L2.18916,-1.6498  L2.15463,-1.58814 " /><path id= "19" d=" M 0.245374 -1.58814 L 2.15463 -1.58814 " />
<path id= "20" d=" M 0.245374 -3.175 L 2.15463 -3.175 " />
<path d="M2.15463,-3.175 L2.18916,-3.11334  L2.22092,-3.0528  L2.24996,-2.9933  L2.27633,-2.93473  L2.30007,-2.87702  L2.32122,-2.82007  L2.3398,-2.76379  L2.35584,-2.7081  L2.36938,-2.65292  L2.38043,-2.59815  L2.389,-2.54371  L2.39511,-2.48953  L2.39878,-2.43551  L2.4,-2.38157 " /><path d="M2.15463,-1.58686 L2.15463,-1.58695  L2.15463,-1.58704  L2.15463,-1.58713  L2.15463,-1.58723  L2.15463,-1.58732  L2.15463,-1.58741  L2.15463,-1.5875  L2.15463,-1.58759  L2.15463,-1.58768  L2.15463,-1.58777  L2.15463,-1.58787  L2.15463,-1.58796  L2.15463,-1.58805  L2.15463,-1.58814 " /><path id= "23" d=" M 0.245374 1.58814 L 2.15463 1.58814 " />
<path d="M2.15463,1.58814 L2.15463,1.58805  L2.15463,1.58796  L2.15463,1.58787  L2.15463,1.58777  L2.15463,1.58768  L2.15463,1.58759  L2.15463,1.5875  L2.15463,1.58741  L2.15463,1.58732  L2.15463,1.58723  L2.15463,1.58713  L2.15463,1.58704  L2.15463,1.58695  L2.15463,1.58686 " /><path d="M2.4,2.38157 L2.39878,2.43551  L2.39511,2.48953  L2.389,2.54371  L2.38043,2.59815  L2.36938,2.65292  L2.35584,2.7081  L2.3398,2.76379  L2.32122,2.82007  L2.30007,2.87702  L2.27633,2.93473  L2.24996,2.9933  L2.22092,3.0528  L2.18916,3.11334  L2.15463,3.175 " /><path id= "26" d=" M 0.245374 3.175 L 2.15463 3.175 " />
<path d="M2.15463,1.58814 L2.18916,1.6498  L2.22092,1.71034  L2.24996,1.76984  L2.27633,1.82841  L2.30007,1.88612  L2.32122,1.94307  L2.3398,1.99935  L2.35584,2.05504  L2.36938,2.11022  L2.38043,2.16499  L2.389,2.21943  L2.39511,2.27361  L2.39878,2.32763  L2.4,2.38157 " /><path d="M2.4,2.38157 L2.4,2.27216  L2.4,2.15004  L2.4,2.01589  L2.4,1.87048  L2.4,1.7146  L2.4,1.54913  L2.4,1.375  L2.4,1.19318  L2.4,1.00469  L2.4,0.810577  L2.4,0.611933  L2.4,0.409866  L2.4,0.205508  L2.4,-1.04287e-14 " /><path d="M2.4,-1.33227e-15 L2.4,-0.205508  L2.4,-0.409866  L2.4,-0.611933  L2.4,-0.810577  L2.4,-1.00469  L2.4,-1.19318  L2.4,-1.375  L2.4,-1.54913  L2.4,-1.7146  L2.4,-1.87048  L2.4,-2.01589  L2.4,-2.15004  L2.4,-2.27216  L2.4,-2.38157 " /><path d="M2.4,-2.38157 L2.4,-2.43132  L2.4,-2.47766  L2.4,-2.52055  L2.4,-2.5599  L2.4,-2.59568  L2.4,-2.62783  L2.4,-2.6563  L2.4,-2.68105  L2.4,-2.70206  L2.4,-2.71928  L2.4,-2.73271  L2.4,-2.74231  L2.4,-2.74808  L2.4,-2.75 " /><path d="M2.4,2.75 L2.4,2.74808  L2.4,2.74231  L2.4,2.73271  L2.4,2.71928  L2.4,2.70206  L2.4,2.68105  L2.4,2.6563  L2.4,2.62783  L2.4,2.59568  L2.4,2.5599  L2.4,2.52055  L2.4,2.47766  L2.4,2.43132  L2.4,2.38157 " /></g>
</g>



<g id="Ortho_0_1"
   transform="rotate(90,83.5,72.3333) translate(83.5,72.3333) scale(1,1)"
  >
<g   stroke="rgb(0, 0, 0)"
   stroke-width="0.35"
   stroke-linecap="butt"
   stroke-linejoin="miter"
   fill="none"
   transform="scale(1,-1)"
  >
<circle cx ="0" cy ="1.22125e-15" r ="1.5" /><path d="M2.75,6.58712e-16 L2.75,-0.107874  L2.75,-0.215915  L2.75,-0.324287  L2.75,-0.433158  L2.75,-0.542695  L2.75,-0.653068  L2.75,-0.764444  L2.75,-0.876997  L2.75,-0.990898  L2.75,-1.10632  L2.75,-1.22345  L2.75,-1.34246  L2.75,-1.46353  L2.75,-1.58686 " /><path d="M2.75,1.58686 L2.75,1.46353  L2.75,1.34246  L2.75,1.22345  L2.75,1.10632  L2.75,0.990898  L2.75,0.876997  L2.75,0.764444  L2.75,0.653068  L2.75,0.542695  L2.75,0.433158  L2.75,0.324287  L2.75,0.215915  L2.75,0.107874  L2.75,1.33227e-15 " /><path d="M1.375,2.38157 L1.46842,2.32763  L1.56199,2.27361  L1.65584,2.21943  L1.75013,2.16499  L1.84499,2.11022  L1.94057,2.05504  L2.03703,1.99935  L2.1345,1.94307  L2.23314,1.88612  L2.3331,1.82841  L2.43454,1.76984  L2.5376,1.71034  L2.64246,1.6498  L2.74926,1.58814 " /><path d="M0.000738835,3.175 L0.107542,3.11334  L0.212395,3.0528  L0.31546,2.9933  L0.416895,2.93473  L0.516857,2.87702  L0.615499,2.82007  L0.712972,2.76379  L0.809427,2.7081  L0.905012,2.65292  L0.999874,2.59815  L1.09416,2.54371  L1.18801,2.48953  L1.28158,2.43551  L1.375,2.38157 " /><path d="M2.75 1.58686 A3.175 3.175 0 0 1 2.74926 1.58814" /><path d="M2.74926 -1.58814 A3.175 3.175 0 0 1 2.75 -1.58686" /><path d="M1.375,-2.38157 L1.28158,-2.43551  L1.18801,-2.48953  L1.09416,-2.54371  L0.999874,-2.59815  L0.905012,-2.65292  L0.809427,-2.7081  L0.712972,-2.76379  L0.615498,-2.82007  L0.516857,-2.87702  L0.416895,-2.93473  L0.31546,-2.9933  L0.212395,-3.0528  L0.107542,-3.11334  L0.000738835,-3.175 " /><path d="M2.74926,-1.58814 L2.64246,-1.6498  L2.5376,-1.71034  L2.43454,-1.76984  L2.3331,-1.82841  L2.23314,-1.88612  L2.1345,-1.94307  L2.03703,-1.99935  L1.94057,-2.05504  L1.84499,-2.11022  L1.75013,-2.16499  L1.65584,-2.21943  L1.56199,-2.27361  L1.46842,-2.32763  L1.375,-2.38157 " /><path d="M-1.375,2.38157 L-1.28158,2.43551  L-1.18801,2.48953  L-1.09416,2.54371  L-0.999874,2.59815  L-0.905012,2.65292  L-0.809427,2.7081  L-0.712972,2.76379  L-0.615498,2.82007  L-0.516857,2.87702  L-0.416895,2.93473  L-0.31546,2.9933  L-0.212395,3.0528  L-0.107542,3.11334  L-0.000738835,3.175 " /><path d="M-2.74926,1.58814 L-2.64246,1.6498  L-2.5376,1.71034  L-2.43454,1.76984  L-2.3331,1.82841  L-2.23314,1.88612  L-2.1345,1.94307  L-2.03703,1.99935  L-1.94057,2.05504  L-1.84499,2.11022  L-1.75013,2.16499  L-1.65584,2.21943  L-1.56199,2.27361  L-1.46842,2.32763  L-1.375,2.38157 " /><path d="M0.000738835 3.175 A3.175 3.175 0 0 1 -0.000738835 3.175" /><path d="M-0.000738835 -3.175 A3.175 3.175 0 0 1 0.000738835 -3.175" /><path d="M-1.375,-2.38157 L-1.46842,-2.32763  L-1.56199,-2.27361  L-1.65584,-2.21943  L-1.75013,-2.16499  L-1.84499,-2.11022  L-1.94057,-2.05504  L-2.03703,-1.99935  L-2.1345,-1.94307  L-2.23314,-1.88612  L-2.3331,-1.82841  L-2.43454,-1.76984  L-2.5376,-1.71034  L-2.64246,-1.6498  L-2.74926,-1.58814 " /><path d="M-0.000738835,-3.175 L-0.107542,-3.11334  L-0.212395,-3.0528  L-0.31546,-2.9933  L-0.416895,-2.93473  L-0.516857,-2.87702  L-0.615499,-2.82007  L-0.712972,-2.76379  L-0.809427,-2.7081  L-0.905012,-2.65292  L-0.999874,-2.59815  L-1.09416,-2.54371  L-1.18801,-2.48953  L-1.28158,-2.43551  L-1.375,-2.38157 " /><path d="M-2.75,4.478e-16 L-2.75,0.107874  L-2.75,0.215915  L-2.75,0.324287  L-2.75,0.433158  L-2.75,0.542695  L-2.75,0.653068  L-2.75,0.764444  L-2.75,0.876997  L-2.75,0.990898  L-2.75,1.10632  L-2.75,1.22345  L-2.75,1.34246  L-2.75,1.46353  L-2.75,1.58686 " /><path d="M-2.75,-1.58686 L-2.75,-1.46353  L-2.75,-1.34246  L-2.75,-1.22345  L-2.75,-1.10632  L-2.75,-0.990898  L-2.75,-0.876997  L-2.75,-0.764444  L-2.75,-0.653068  L-2.75,-0.542695  L-2.75,-0.433158  L-2.75,-0.324287  L-2.75,-0.215915  L-2.75,-0.107874  L-2.75,4.478e-16 " /><path d="M-2.74926 1.58814 A3.175 3.175 0 0 1 -2.75 1.58686" /><path d="M-2.75 -1.58686 A3.175 3.175 0 0 1 -2.74926 -1.58814" /><circle cx ="0" cy ="1.33227e-15" r ="1.7" /><path d="M1.375 -2.38157 A2.75 2.75 0 0 1 2.75 1.04287e-14" /><path d="M2.75 1.33227e-15 A2.75 2.75 0 0 1 1.375 2.38157" /><path d="M1.375 2.38157 A2.75 2.75 0 0 1 -1.375 2.38157" /><path d="M-1.375 -2.38157 A2.75 2.75 0 0 1 1.375 -2.38157" /><path d="M-1.375 2.38157 A2.75 2.75 0 0 1 -2.75 1.02178e-14" /><path d="M-2.75 1.02178e-14 A2.75 2.75 0 0 1 -1.375 -2.38157" /></g>
</g>



<g id="Ortho_1_0"
   transform="rotate(-90,222,192.667) translate(222,192.667) scale(1,1)"
  >
<g   stroke="rgb(0, 0, 0)"
   stroke-width="0.35"
   stroke-linecap="butt"
   stroke-linejoin="miter"
   fill="none"
   transform="scale(1,-1)"
  >
<path d="M-5.54938e-16,-1.375 L-5.20116e-16,-1.41849  L-4.84246e-16,-1.45912  L-4.474e-16,-1.4968  L-4.09651e-16,-1.53147  L-3.71077e-16,-1.56306  L-3.31755e-16,-1.59149  L-2.91764e-16,-1.61671  L-2.51184e-16,-1.63867  L-2.10099e-16,-1.65733  L-1.6859e-16,-1.67265  L-1.2674e-16,-1.6846  L-8.46359e-17,-1.69315  L-4.23606e-17,-1.69829  L3.12152e-30,-1.7 " /><path d="M0,2.75 L-1.1408e-16,2.74231  L-2.27521e-16,2.71928  L-3.39691e-16,2.68105  L-4.4996e-16,2.62783  L-5.57714e-16,2.5599  L-6.62348e-16,2.47766  L-7.63278e-16,2.38157  L-8.5994e-16,2.27216  L-9.51793e-16,2.15004  L-1.03832e-15,2.01589  L-1.11905e-15,1.87048  L-1.19351e-15,1.7146  L-1.2613e-15,1.54913  L-1.32204e-15,1.375 " /><path d="M-1.32204e-15,1.375 L-1.37538e-15,1.19318  L-1.42103e-15,1.00469  L-1.45874e-15,0.810577  L-1.48828e-15,0.611933  L-1.50951e-15,0.409866  L-1.52229e-15,0.205508  L-1.52656e-15,-2.96558e-09  L-1.52229e-15,-0.205508  L-1.50951e-15,-0.409866  L-1.48828e-15,-0.611933  L-1.45874e-15,-0.810577  L-1.42103e-15,-1.00469  L-1.37538e-15,-1.19318  L-1.32204e-15,-1.375 " /><path d="M-1.32204e-15,-1.375 L-1.2613e-15,-1.54913  L-1.19351e-15,-1.7146  L-1.11905e-15,-1.87048  L-1.03832e-15,-2.01589  L-9.51793e-16,-2.15004  L-8.5994e-16,-2.27216  L-7.63278e-16,-2.38157  L-6.62348e-16,-2.47766  L-5.57714e-16,-2.5599  L-4.4996e-16,-2.62783  L-3.39691e-16,-2.68105  L-2.27521e-16,-2.71928  L-1.1408e-16,-2.74231  L-4.93244e-30,-2.75 " /><path d="M0,2.75 L0.00122108,2.75  L0.00488621,2.75  L0.011001,2.75  L0.0195749,2.75  L0.0306211,2.75  L0.0441566,2.75  L0.0602021,2.75  L0.0787824,2.75  L0.099926,2.75  L0.123666,2.75  L0.150037,2.75  L0.179082,2.75  L0.210845,2.75  L0.245374,2.75 " /><path d="M0.245374,2.74926 L0.210845,2.64246  L0.179082,2.5376  L0.150037,2.43454  L0.123666,2.3331  L0.0999261,2.23314  L0.0787824,2.1345  L0.0602021,2.03703  L0.0441566,1.94057  L0.0306211,1.84499  L0.0195749,1.75013  L0.011001,1.65584  L0.00488621,1.56199  L0.00122108,1.46842  L-1.23731e-15,1.375 " /><path d="M0.245374,2.75 L0.245374,2.74995  L0.245374,2.74989  L0.245374,2.74984  L0.245374,2.74979  L0.245374,2.74974  L0.245374,2.74968  L0.245374,2.74963  L0.245374,2.74958  L0.245374,2.74953  L0.245374,2.74947  L0.245374,2.74942  L0.245374,2.74937  L0.245374,2.74931  L0.245374,2.74926 " /><path d="M0.245374,-0.000738835 L0.210845,-0.107542  L0.179082,-0.212395  L0.150037,-0.31546  L0.123666,-0.416895  L0.099926,-0.516857  L0.0787824,-0.615499  L0.0602021,-0.712972  L0.0441566,-0.809427  L0.0306211,-0.905012  L0.0195749,-0.999874  L0.011001,-1.09416  L0.00488621,-1.18801  L0.00122108,-1.28158  L-5.71178e-16,-1.375 " /><path d="M0.245374,0.000738835 L0.245374,0.000633287  L0.245374,0.000527739  L0.245374,0.000422191  L0.245374,0.000316644  L0.245374,0.000211096  L0.245374,0.000105548  L0.245374,4.42436e-15  L0.245374,-0.000105548  L0.245374,-0.000211096  L0.245374,-0.000316644  L0.245374,-0.000422191  L0.245374,-0.000527739  L0.245374,-0.000633287  L0.245374,-0.000738835 " /><path d="M-1.23731e-15,1.375 L0.00122108,1.28158  L0.00488621,1.18801  L0.011001,1.09416  L0.0195749,0.999874  L0.0306211,0.905012  L0.0441566,0.809427  L0.0602021,0.712972  L0.0787824,0.615499  L0.099926,0.516857  L0.123666,0.416895  L0.150037,0.31546  L0.179082,0.212395  L0.210845,0.107542  L0.245374,0.000738835 " /><path d="M0.245374,-2.75 L0.210845,-2.75  L0.179082,-2.75  L0.150037,-2.75  L0.123666,-2.75  L0.099926,-2.75  L0.0787824,-2.75  L0.0602021,-2.75  L0.0441566,-2.75  L0.0306211,-2.75  L0.0195749,-2.75  L0.011001,-2.75  L0.00488621,-2.75  L0.00122108,-2.75  L2.94587e-31,-2.75 " /><path d="M0.245374,-2.74926 L0.245374,-2.74931  L0.245374,-2.74937  L0.245374,-2.74942  L0.245374,-2.74947  L0.245374,-2.74953  L0.245374,-2.74958  L0.245374,-2.74963  L0.245374,-2.74968  L0.245374,-2.74974  L0.245374,-2.74979  L0.245374,-2.74984  L0.245374,-2.74989  L0.245374,-2.74995  L0.245374,-2.75 " /><path d="M-5.71178e-16,-1.375 L0.00122108,-1.46842  L0.00488621,-1.56199  L0.011001,-1.65584  L0.0195749,-1.75013  L0.0306211,-1.84499  L0.0441566,-1.94057  L0.0602021,-2.03703  L0.0787824,-2.1345  L0.099926,-2.23314  L0.123666,-2.3331  L0.150037,-2.43454  L0.179082,-2.5376  L0.210845,-2.64246  L0.245374,-2.74926 " /><path id= "14" d=" M 0.245374 2.75 L 2.15463 2.75 " />
<path d="M2.15463,2.75 L2.18916,2.75  L2.22092,2.75  L2.24996,2.75  L2.27633,2.75  L2.30007,2.75  L2.32122,2.75  L2.3398,2.75  L2.35584,2.75  L2.36938,2.75  L2.38043,2.75  L2.389,2.75  L2.39511,2.75  L2.39878,2.75  L2.4,2.75 " /><path d="M2.4,1.375 L2.39878,1.46842  L2.39511,1.56199  L2.389,1.65584  L2.38043,1.75013  L2.36938,1.84499  L2.35584,1.94057  L2.3398,2.03703  L2.32122,2.1345  L2.30007,2.23314  L2.27633,2.3331  L2.24996,2.43454  L2.22092,2.5376  L2.18916,2.64246  L2.15463,2.74926 " /><path id= "17" d=" M 0.245374 2.74926 L 2.15463 2.74926 " />
<path id= "18" d=" M 0.245374 0.000738835 L 2.15463 0.000738835 " />
<path d="M2.15463,0.000738835 L2.18916,0.107542  L2.22092,0.212395  L2.24996,0.31546  L2.27633,0.416895  L2.30007,0.516857  L2.32122,0.615499  L2.3398,0.712972  L2.35584,0.809427  L2.36938,0.905012  L2.38043,0.999874  L2.389,1.09416  L2.39511,1.18801  L2.39878,1.28158  L2.4,1.375 " /><path d="M2.15463,2.75 L2.15463,2.74995  L2.15463,2.74989  L2.15463,2.74984  L2.15463,2.74979  L2.15463,2.74974  L2.15463,2.74968  L2.15463,2.74963  L2.15463,2.74958  L2.15463,2.74953  L2.15463,2.74947  L2.15463,2.74942  L2.15463,2.74937  L2.15463,2.74931  L2.15463,2.74926 " /><path d="M2.4,-1.375 L2.39878,-1.28158  L2.39511,-1.18801  L2.389,-1.09416  L2.38043,-0.999874  L2.36938,-0.905012  L2.35584,-0.809427  L2.3398,-0.712972  L2.32122,-0.615498  L2.30007,-0.516857  L2.27633,-0.416895  L2.24996,-0.31546  L2.22092,-0.212395  L2.18916,-0.107542  L2.15463,-0.000738835 " /><path id= "22" d=" M 0.245374 -0.000738835 L 2.15463 -0.000738835 " />
<path id= "23" d=" M 0.245374 -2.74926 L 2.15463 -2.74926 " />
<path d="M2.15463,-2.74926 L2.18916,-2.64246  L2.22092,-2.5376  L2.24996,-2.43454  L2.27633,-2.3331  L2.30007,-2.23314  L2.32122,-2.1345  L2.3398,-2.03703  L2.35584,-1.94057  L2.36938,-1.84499  L2.38043,-1.75013  L2.389,-1.65584  L2.39511,-1.56199  L2.39878,-1.46842  L2.4,-1.375 " /><path d="M2.15463,0.000738835 L2.15463,0.000633287  L2.15463,0.000527739  L2.15463,0.000422191  L2.15463,0.000316644  L2.15463,0.000211096  L2.15463,0.000105548  L2.15463,4.42436e-15  L2.15463,-0.000105548  L2.15463,-0.000211096  L2.15463,-0.000316644  L2.15463,-0.000422191  L2.15463,-0.000527739  L2.15463,-0.000633287  L2.15463,-0.000738835 " /><path d="M2.4,-2.75 L2.39878,-2.75  L2.39511,-2.75  L2.389,-2.75  L2.38043,-2.75  L2.36938,-2.75  L2.35584,-2.75  L2.3398,-2.75  L2.32122,-2.75  L2.30007,-2.75  L2.27633,-2.75  L2.24996,-2.75  L2.22092,-2.75  L2.18916,-2.75  L2.15463,-2.75 " /><path id= "27" d=" M 0.245374 -2.75 L 2.15463 -2.75 " />
<path d="M2.15463,-2.74926 L2.15463,-2.74931  L2.15463,-2.74937  L2.15463,-2.74942  L2.15463,-2.74947  L2.15463,-2.74953  L2.15463,-2.74958  L2.15463,-2.74963  L2.15463,-2.74968  L2.15463,-2.74974  L2.15463,-2.74979  L2.15463,-2.74984  L2.15463,-2.74989  L2.15463,-2.74995  L2.15463,-2.75 " /><path d="M2.4,1.7 L2.4,1.65738  L2.4,1.53165  L2.4,1.32911  L2.4,1.05993  L2.4,0.737602  L2.4,0.378286  L2.4,-1.19762e-15  L2.4,-0.378286  L2.4,-0.737602  L2.4,-1.05993  L2.4,-1.32911  L2.4,-1.53165  L2.4,-1.65738  L2.4,-1.7 " /><path d="M2.4,2.75 L2.4,2.74231  L2.4,2.71928  L2.4,2.68105  L2.4,2.62783  L2.4,2.5599  L2.4,2.47766  L2.4,2.38157  L2.4,2.27216  L2.4,2.15004  L2.4,2.01589  L2.4,1.87048  L2.4,1.7146  L2.4,1.54913  L2.4,1.375 " /><path d="M2.4,1.375 L2.4,1.19318  L2.4,1.00469  L2.4,0.810577  L2.4,0.611933  L2.4,0.409866  L2.4,0.205508  L2.4,-7.76971e-15  L2.4,-0.205508  L2.4,-0.409866  L2.4,-0.611933  L2.4,-0.810577  L2.4,-1.00469  L2.4,-1.19318  L2.4,-1.375 " /><path d="M2.4,-1.375 L2.4,-1.54913  L2.4,-1.7146  L2.4,-1.87048  L2.4,-2.01589  L2.4,-2.15004  L2.4,-2.27216  L2.4,-2.38157  L2.4,-2.47766  L2.4,-2.5599  L2.4,-2.62783  L2.4,-2.68105  L2.4,-2.71928  L2.4,-2.74231  L2.4,-2.75 " /></g>
</g>



</svg>

