<?xml version="1.0" encoding="UTF-8"?>

<svg xmlns="http://www.w3.org/2000/svg" version="1.1"
	width="297mm"
	height="210mm"
	viewBox="0 0 297 210">
	<!-- Working space 0 0 297 210 -->
	<defs>
		<radialGradient
			id="radialGradient3661"
			gradientUnits="userSpaceOnUse"
			cy="29.149"
			cx="282.65"
			gradientTransform="matrix(.14777 .23089 -.24680 .15795 -26.318 -62.617)"
			r="19.571">
				<stop stop-color="#71b2f8" offset="0"/>
				<stop stop-color="#002795" offset="1"/>
		</radialGradient>
		<radialGradient
			id="radialGradient3817"
			gradientUnits="userSpaceOnUse"
			cy="33.9"
			cx="270.58"
			gradientTransform="matrix(.26631 .065024 -.17931 .73438 -60.668 -36.938)"
			r="19.571">
				<stop stop-color="#ff6d0f" offset="0"/>
				<stop stop-color="#ff1000" offset="1"/>
		</radialGradient>
	</defs>
	<!-- Set display:none to hide FreeCAD Logo -->
	<g
		style="display:inline"
		id="freecad-logo"
		transform="translate(271, 185) scale(1)"
		fill-rule="evenodd"
		stroke-width=".45621">
		<path d="m0.22811 0.22835v13.256h2.9558v-5.1876h2.09v-2.0452h-2.09v-2.2075h5.1486v-3.8087l-8.1044-0.0075z"
			stroke="#370700"
			fill="url(#radialGradient3817)"/>
		<path d="m13.386 4.1792-1.7193 0.98645-0.75925-0.26348-0.72439-1.8513-1.1395 0.05988-0.51976 1.9144-0.72743 0.34835-1.8143-0.79367-0.76632 0.85156 0.98645 1.7193-0.26957 0.75702-1.8513 0.72439 0.065967 1.1417 1.9144 0.51976 0.34835 0.72743-0.79976 1.8121 0.85156 0.76632 1.7193-0.98645 0.76311 0.27179 0.7183 1.8491 1.1478-0.06375 0.51367-1.9166 0.72743-0.34835 1.8182 0.80198 0.76632-0.85156-0.98645-1.7193 0.2657-0.76533 1.8491-0.7183-0.05766-1.1456-1.9166-0.51367-0.34835-0.72743 0.7959-1.8204-0.85156-0.76632zm-2.5751 2.8195 0.35295 0.20478 0.30579 0.27725 0.24481 0.33087 0.17611 0.36787 0.10354 0.39656 0.01715 0.4064-0.0587 0.4063-0.13396 0.38571-0.2131 0.35681-0.26894 0.30192-0.33087 0.24481-0.36787 0.17611-0.39656 0.10354-0.40863 0.02325-0.4063-0.0587-0.38571-0.13396-0.35681-0.2131-0.2997-0.27503-0.24703-0.32478-0.17611-0.36787-0.10132-0.40264-0.02324-0.40863 0.05869-0.4063 0.13396-0.38571 0.21087-0.35072 0.27116-0.30801 0.33087-0.24481 0.36787-0.17611 0.40264-0.10132 0.40641-0.01715 0.4063 0.05869 0.38571 0.13396z" 
		stroke="#000137"
		fill="url(#radialGradient3661)"/>
	</g>
<g id="View"
   transform="rotate(60,148.5,106.633) translate(148.5,106.633) scale(1,1)"
  >
<g   stroke="rgb(0, 0, 0)"
   stroke-width="0.35"
   stroke-linecap="butt"
   stroke-linejoin="miter"
   fill="none"
   transform="scale(1,-1)"
  >
<path d="M-4.73762 0.530723 A2.7 1.55885 60 0 1 -2.82843 -0.571548" />
<path d="M-2.82843 -0.571548 A2.7 1.55885 60 0 1 -0.919239 2.73526" />
<path d="M-0.919239 2.73526 A2.7 1.55885 60 1 1 -4.73762 0.530723" />
<path d="M0 3.26599 A4 2.3094 60 0 1 -1.41421 5.27792" />
<path d="M-1.41421 -0.378937 A4 2.3094 60 0 1 4.44089e-16 3.26599" />
<path d="M-1.41421 5.27792 A4 2.3094 60 0 1 -4.24264 3.64492" />
<path d="M-4.24264 -2.01193 A4 2.3094 60 0 1 -1.41421 -0.378937" />
<path d="M-4.24264 3.64492 A4 2.3094 60 0 1 -5.65685 1.37668e-14" />
<path d="M-5.65685 1.37668e-14 A4 2.3094 60 0 1 -4.24264 -2.01193" />
<path d="M-4.45477 0.530723 A2.5 1.44338 60 0 1 -3.93701 -0.61372" />
<path d="M-3.93701 -0.61372 A2.5 1.44338 60 0 1 -2.75636 -0.528366" />
<path d="M-0.9206 2.65126 A2.5 1.44338 60 0 1 -1.43701 3.71641" />
<path d="M-1.43701 3.71641 A2.5 1.44338 60 0 1 -4.45477 0.530723" />
<path d="M0.252625,5.00575 L0.217075,4.87972  L0.184373,4.75472  L0.15447,4.63057  L0.127318,4.50706  L0.102877,4.38401  L0.0811092,4.26123  L0.06198,4.13854  L0.0454605,4.01573  L0.0315253,3.89263  L0.0201529,3.76904  L0.0113259,3.64477  L0.00503049,3.51963  L0.00125714,3.39344  L0,3.26599 " /><path d="M-1.41421,5.27792 L-1.31682,5.2686  L-1.21677,5.25783  L-1.1139,5.24557  L-1.00805,5.2318  L-0.899057,5.21652  L-0.78676,5.19969  L-0.670984,5.18129  L-0.551548,5.16128  L-0.42827,5.13965  L-0.30096,5.11635  L-0.169421,5.09135  L-0.0334513,5.06461  L0.107158,5.03609  L0.252625,5.00575 " /><path d="M0.252625,1.23452 L0.107158,1.1183  L-0.0334513,1.00294  L-0.169421,0.88826  L-0.30096,0.774076  L-0.42827,0.660216  L-0.551548,0.546504  L-0.670984,0.432765  L-0.786761,0.318825  L-0.899057,0.204507  L-1.00805,0.0896357  L-1.1139,-0.0259655  L-1.21677,-0.142475  L-1.31682,-0.260072  L-1.41421,-0.378937 " /><path d="M0,3.26599 L0.00125714,3.13708  L0.00503049,3.00653  L0.0113259,2.87412  L0.0201529,2.73967  L0.0315253,2.60294  L0.0454605,2.46375  L0.06198,2.32187  L0.0811092,2.17708  L0.102877,2.02917  L0.127318,1.8779  L0.15447,1.72304  L0.184373,1.56435  L0.217075,1.4016  L0.252625,1.23452 " /><path d="M-2.5758,5.25838 L-2.50144,5.26908  L-2.42623,5.27833  L-2.35007,5.28612  L-2.27283,5.29247  L-2.1944,5.29739  L-2.11466,5.30089  L-2.03348,5.30298  L-1.95075,5.30365  L-1.86632,5.30291  L-1.78007,5.30076  L-1.69188,5.29719  L-1.6016,5.2922  L-1.50909,5.28578  L-1.41421,5.27792 " /><path d="M-4.24264,3.64492 L-4.14525,3.76379  L-4.0452,3.88139  L-3.94232,3.9979  L-3.83647,4.1135  L-3.72748,4.22837  L-3.61519,4.34269  L-3.49941,4.45663  L-3.37998,4.57036  L-3.2567,4.68408  L-3.12939,4.79794  L-2.99785,4.91212  L-2.86188,5.0268  L-2.72127,5.14216  L-2.5758,5.25838 " /><path d="M-2.5758,-2.2841 L-2.72127,-2.25375  L-2.86188,-2.22524  L-2.99785,-2.1985  L-3.12939,-2.1735  L-3.2567,-2.1502  L-3.37998,-2.12856  L-3.49941,-2.10856  L-3.61519,-2.09016  L-3.72748,-2.07333  L-3.83647,-2.05804  L-3.94232,-2.04428  L-4.0452,-2.03202  L-4.14525,-2.02124  L-4.24264,-2.01193 " /><path d="M-1.41421,-0.378937 L-1.50909,-0.499255  L-1.6016,-0.621209  L-1.69188,-0.744987  L-1.78008,-0.870781  L-1.86632,-0.998784  L-1.95075,-1.12919  L-2.03348,-1.26221  L-2.11466,-1.39804  L-2.1944,-1.53688  L-2.27283,-1.67897  L-2.35007,-1.8245  L-2.42623,-1.97371  L-2.50144,-2.12683  L-2.5758,-2.2841 " /><path d="M-5.40423,1.73977 L-5.32986,1.89703  L-5.25466,2.05015  L-5.17849,2.19936  L-5.10126,2.3449  L-5.02283,2.48698  L-4.94309,2.62583  L-4.86191,2.76165  L-4.77917,2.89467  L-4.69475,3.02508  L-4.6085,3.15308  L-4.52031,3.27887  L-4.43002,3.40265  L-4.33752,3.52461  L-4.24264,3.64492 " /><path d="M-5.65685,1.79856e-14 L-5.6556,0.127452  L-5.65182,0.253648  L-5.64553,0.378784  L-5.6367,0.503051  L-5.62533,0.62664  L-5.61139,0.749743  L-5.59487,0.872549  L-5.57575,0.995247  L-5.55398,1.11803  L-5.52954,1.24107  L-5.50238,1.36458  L-5.47248,1.48874  L-5.43978,1.61373  L-5.40423,1.73977 " /><path d="M-5.40423,-2.03147 L-5.43978,-1.86439  L-5.47248,-1.70163  L-5.50238,-1.54295  L-5.52954,-1.38809  L-5.55398,-1.23682  L-5.57575,-1.0889  L-5.59487,-0.944118  L-5.61139,-0.802237  L-5.62533,-0.663043  L-5.6367,-0.526321  L-5.64553,-0.391862  L-5.65182,-0.259457  L-5.6556,-0.128903  L-5.65685,1.79856e-14 " /><path d="M-4.24264,-2.01193 L-4.33752,-2.00407  L-4.43002,-1.99765  L-4.52031,-1.99266  L-4.6085,-1.98909  L-4.69475,-1.98694  L-4.77917,-1.9862  L-4.86191,-1.98687  L-4.94309,-1.98895  L-5.02283,-1.99245  L-5.10126,-1.99738  L-5.17849,-2.00373  L-5.25466,-2.01152  L-5.32986,-2.02076  L-5.40423,-2.03147 " /><path id= "26" d=" M 0.252625 1.23452 L 2.5758 -0.106772 " />
<path d="M2.5758,-0.106772 L2.61135,0.0192584  L2.64405,0.144256  L2.67396,0.268412  L2.70111,0.39192  L2.72555,0.514968  L2.74732,0.637746  L2.76645,0.760444  L2.78297,0.88325  L2.7969,1.00635  L2.80827,1.12994  L2.8171,1.25421  L2.8234,1.37934  L2.82717,1.50554  L2.82843,1.63299 " /><path d="M2.82843,1.63299 L2.82717,1.7619  L2.8234,1.89245  L2.8171,2.02485  L2.80827,2.15931  L2.7969,2.29604  L2.78297,2.43523  L2.76645,2.57711  L2.74732,2.7219  L2.72555,2.86981  L2.70111,3.02108  L2.67396,3.17594  L2.64405,3.33463  L2.61135,3.49738  L2.5758,3.66446 " /><path id= "29" d=" M 0.252625 5.00575 L 2.5758 3.66446 " />
<path id= "30" d=" M -2.5758 -2.2841 L -0.252625 -3.62538 " />
<path d="M-0.252625,-3.62538 L-0.107158,-3.50917  L0.0334513,-3.39381  L0.169421,-3.27913  L0.30096,-3.16494  L0.42827,-3.05108  L0.551548,-2.93737  L0.670984,-2.82363  L0.78676,-2.70969  L0.899057,-2.59537  L1.00805,-2.4805  L1.1139,-2.3649  L1.21677,-2.24839  L1.31682,-2.1308  L1.41421,-2.01193 " /><path d="M1.41421,-2.01193 L1.50909,-1.89161  L1.6016,-1.76966  L1.69188,-1.64588  L1.78007,-1.52009  L1.86632,-1.39208  L1.95075,-1.26168  L2.03348,-1.12866  L2.11466,-0.992833  L2.1944,-0.853985  L2.27283,-0.711903  L2.35007,-0.566367  L2.42623,-0.417154  L2.50144,-0.264035  L2.5758,-0.106772 " /><path id= "33" d=" M -5.40423 -2.03147 L -3.08105 -3.37276 " />
<path d="M-3.08105,-3.37276 L-2.93559,-3.4031  L-2.79498,-3.43162  L-2.65901,-3.45836  L-2.52747,-3.48336  L-2.40016,-3.50666  L-2.27688,-3.52829  L-2.15744,-3.54829  L-2.04167,-3.5667  L-1.92937,-3.58353  L-1.82038,-3.59881  L-1.71453,-3.61257  L-1.61166,-3.62483  L-1.5116,-3.63561  L-1.41421,-3.64492 " /><path d="M-1.41421,-3.64492 L-1.31934,-3.65278  L-1.22683,-3.65921  L-1.13655,-3.6642  L-1.04835,-3.66777  L-0.962108,-3.66992  L-0.877682,-3.67066  L-0.794944,-3.66999  L-0.713766,-3.6679  L-0.634025,-3.6644  L-0.555597,-3.65948  L-0.47836,-3.65312  L-0.402198,-3.64533  L-0.326991,-3.63609  L-0.252625,-3.62538 " /></g>
</g>



</svg>

