<?xml version="1.0" encoding="UTF-8"?>

<svg xmlns="http://www.w3.org/2000/svg" version="1.1"
	width="297mm"
	height="210mm"
	viewBox="0 0 297 210">
	<!-- Working space 0 0 297 210 -->
	<defs>
		<radialGradient
			id="radialGradient3661"
			gradientUnits="userSpaceOnUse"
			cy="29.149"
			cx="282.65"
			gradientTransform="matrix(.14777 .23089 -.24680 .15795 -26.318 -62.617)"
			r="19.571">
				<stop stop-color="#71b2f8" offset="0"/>
				<stop stop-color="#002795" offset="1"/>
		</radialGradient>
		<radialGradient
			id="radialGradient3817"
			gradientUnits="userSpaceOnUse"
			cy="33.9"
			cx="270.58"
			gradientTransform="matrix(.26631 .065024 -.17931 .73438 -60.668 -36.938)"
			r="19.571">
				<stop stop-color="#ff6d0f" offset="0"/>
				<stop stop-color="#ff1000" offset="1"/>
		</radialGradient>
	</defs>
	<!-- Set display:none to hide FreeCAD Logo -->
	<g
		style="display:inline"
		id="freecad-logo"
		transform="translate(271, 185) scale(1)"
		fill-rule="evenodd"
		stroke-width=".45621">
		<path d="m0.22811 0.22835v13.256h2.9558v-5.1876h2.09v-2.0452h-2.09v-2.2075h5.1486v-3.8087l-8.1044-0.0075z"
			stroke="#370700"
			fill="url(#radialGradient3817)"/>
		<path d="m13.386 4.1792-1.7193 0.98645-0.75925-0.26348-0.72439-1.8513-1.1395 0.05988-0.51976 1.9144-0.72743 0.34835-1.8143-0.79367-0.76632 0.85156 0.98645 1.7193-0.26957 0.75702-1.8513 0.72439 0.065967 1.1417 1.9144 0.51976 0.34835 0.72743-0.79976 1.8121 0.85156 0.76632 1.7193-0.98645 0.76311 0.27179 0.7183 1.8491 1.1478-0.06375 0.51367-1.9166 0.72743-0.34835 1.8182 0.80198 0.76632-0.85156-0.98645-1.7193 0.2657-0.76533 1.8491-0.7183-0.05766-1.1456-1.9166-0.51367-0.34835-0.72743 0.7959-1.8204-0.85156-0.76632zm-2.5751 2.8195 0.35295 0.20478 0.30579 0.27725 0.24481 0.33087 0.17611 0.36787 0.10354 0.39656 0.01715 0.4064-0.0587 0.4063-0.13396 0.38571-0.2131 0.35681-0.26894 0.30192-0.33087 0.24481-0.36787 0.17611-0.39656 0.10354-0.40863 0.02325-0.4063-0.0587-0.38571-0.13396-0.35681-0.2131-0.2997-0.27503-0.24703-0.32478-0.17611-0.36787-0.10132-0.40264-0.02324-0.40863 0.05869-0.4063 0.13396-0.38571 0.21087-0.35072 0.27116-0.30801 0.33087-0.24481 0.36787-0.17611 0.40264-0.10132 0.40641-0.01715 0.4063 0.05869 0.38571 0.13396z" 
		stroke="#000137"
		fill="url(#radialGradient3661)"/>
	</g>
<g id="Ortho_0_0"
   transform="rotate(-90,87.7293,162) translate(87.7293,162) scale(1,1)"
  >
<g   stroke="rgb(0, 0, 0)"
   stroke-width="0.35"
   stroke-linecap="butt"
   stroke-linejoin="miter"
   fill="none"
   transform="scale(1,-1)"
  >
<path id= "1" d=" M 4 -4 L 3.64273 -4.6188 " />
<path id= "2" d=" M 4 4 L 3.64273 4.6188 " />
<path id= "3" d=" M -5.32907e-15 -4 L 0.357265 -4.6188 " />
<path id= "4" d=" M 5.32907e-15 4 L 0.357265 4.6188 " />
</g>
<g   stroke="rgb(0, 0, 0)"
   stroke-width="0.35"
   stroke-linecap="butt"
   stroke-linejoin="miter"
   fill="none"
   transform="scale(1,-1)"
  >
<path d="M4,2.7 L4,2.63231  L4,2.43262  L4,2.11095  L4,1.68342  L4,1.17149  L4,0.600807  L4,-4.99842e-15  L4,-0.600807  L4,-1.17149  L4,-1.68342  L4,-2.11095  L4,-2.43262  L4,-2.63231  L4,-2.7 " /><path d="M4,-6.21725e-15 L4,-0.29892  L4,-0.596169  L4,-0.890084  L4,-1.17902  L4,-1.46136  L4,-1.73553  L4,-2  L4,-2.25328  L4,-2.49396  L4,-2.72069  L4,-2.93221  L4,-3.12733  L4,-3.30496  L4,-3.4641 " /><path d="M4,3.4641 L4,3.30496  L4,3.12733  L4,2.93221  L4,2.72069  L4,2.49396  L4,2.25328  L4,2  L4,1.73553  L4,1.46136  L4,1.17902  L4,0.890084  L4,0.596169  L4,0.29892  L4,-1.94484e-14 " /><path d="M4,-3.4641 L4,-3.53646  L4,-3.60388  L4,-3.66625  L4,-3.72349  L4,-3.77553  L4,-3.82229  L4,-3.8637  L4,-3.89971  L4,-3.93027  L4,-3.95532  L4,-3.97485  L4,-3.98882  L4,-3.9972  L4,-4 " /><path d="M4,4 L4,3.9972  L4,3.98882  L4,3.97485  L4,3.95532  L4,3.93027  L4,3.89971  L4,3.8637  L4,3.82229  L4,3.77553  L4,3.72349  L4,3.66625  L4,3.60388  L4,3.53646  L4,3.4641 " /><path d="M3.64273,-2.3094 L3.69301,-2.12991  L3.73926,-1.9537  L3.78155,-1.78049  L3.81994,-1.61003  L3.85451,-1.44204  L3.88529,-1.27628  L3.91235,-1.11248  L3.93571,-0.95039  L3.95542,-0.789766  L3.9715,-0.630359  L3.98398,-0.471922  L3.99289,-0.314211  L3.99822,-0.156985  L4,-6.21725e-15 " /><path d="M4,-3.4641 L3.99822,-3.38561  L3.99289,-3.307  L3.98398,-3.22814  L3.9715,-3.14892  L3.95542,-3.06922  L3.93571,-2.98891  L3.91235,-2.90786  L3.88529,-2.82596  L3.85451,-2.74308  L3.81994,-2.65909  L3.78155,-2.57386  L3.73926,-2.48725  L3.69301,-2.39915  L3.64273,-2.3094 " /><path d="M3.64273,2.3094 L3.69301,2.39915  L3.73926,2.48725  L3.78155,2.57386  L3.81994,2.65909  L3.85451,2.74308  L3.88529,2.82596  L3.91235,2.90786  L3.93571,2.98891  L3.95542,3.06922  L3.9715,3.14892  L3.98398,3.22814  L3.99289,3.307  L3.99822,3.38561  L4,3.4641 " /><path d="M4,-5.23753e-15 L3.99822,0.156985  L3.99289,0.314211  L3.98398,0.471922  L3.9715,0.630359  L3.95542,0.789766  L3.93571,0.95039  L3.91235,1.11248  L3.88529,1.27628  L3.85451,1.44204  L3.81994,1.61003  L3.78155,1.78049  L3.73926,1.9537  L3.69301,2.12991  L3.64273,2.3094 " /><path d="M3.64273,-4.6188 L3.69301,-4.52906  L3.73926,-4.44095  L3.78155,-4.35435  L3.81994,-4.26911  L3.85451,-4.18512  L3.88529,-4.10224  L3.91235,-4.02034  L3.93571,-3.9393  L3.95542,-3.85898  L3.9715,-3.77928  L3.98398,-3.70006  L3.99289,-3.62121  L3.99822,-3.54259  L4,-3.4641 " /><path d="M4,3.4641 L3.99822,3.54259  L3.99289,3.62121  L3.98398,3.70006  L3.9715,3.77928  L3.95542,3.85898  L3.93571,3.9393  L3.91235,4.02034  L3.88529,4.10224  L3.85451,4.18512  L3.81994,4.26911  L3.78155,4.35435  L3.73926,4.44095  L3.69301,4.52906  L3.64273,4.6188 " /><path id= "12" d=" M 3.64273 2.3094 L 0.357265 2.3094 " />
<path d="M0.357265,2.3094 L0.30699,2.12991  L0.260743,1.9537  L0.218453,1.78049  L0.180056,1.61003  L0.145491,1.44204  L0.114706,1.27628  L0.0876529,1.11248  L0.0642909,0.95039  L0.0445835,0.789766  L0.0285006,0.630359  L0.0160172,0.471922  L0.00711418,0.314211  L0.00177786,0.156985  L4.44089e-16,9.10901e-16 " /><path d="M4.44089e-16,-6.8816e-17 L0.00177786,-0.156985  L0.00711418,-0.314211  L0.0160172,-0.471922  L0.0285006,-0.630359  L0.0445835,-0.789766  L0.0642909,-0.95039  L0.0876529,-1.11248  L0.114706,-1.27628  L0.145491,-1.44204  L0.180056,-1.61003  L0.218453,-1.78049  L0.260743,-1.9537  L0.30699,-2.12991  L0.357265,-2.3094 " /><path id= "15" d=" M 3.64273 -2.3094 L 0.357265 -2.3094 " />
<path d="M0.357265,-2.3094 L0.30699,-2.39915  L0.260743,-2.48725  L0.218453,-2.57386  L0.180056,-2.65909  L0.145491,-2.74308  L0.114706,-2.82596  L0.0876529,-2.90786  L0.0642909,-2.98891  L0.0445835,-3.06922  L0.0285006,-3.14892  L0.0160172,-3.22814  L0.00711418,-3.307  L0.00177786,-3.38561  L-4.08391e-15,-3.4641 " /><path d="M-4.08391e-15,-3.4641 L0.00177786,-3.54259  L0.00711418,-3.62121  L0.0160172,-3.70006  L0.0285006,-3.77928  L0.0445835,-3.85898  L0.0642909,-3.9393  L0.0876529,-4.02034  L0.114706,-4.10224  L0.145491,-4.18512  L0.180056,-4.26911  L0.218453,-4.35435  L0.260743,-4.44095  L0.30699,-4.52906  L0.357265,-4.6188 " /><path id= "18" d=" M 3.64273 -4.6188 L 0.357265 -4.6188 " />
<path id= "19" d=" M 3.64273 4.6188 L 0.357265 4.6188 " />
<path d="M0.357265,4.6188 L0.30699,4.52906  L0.260743,4.44095  L0.218453,4.35435  L0.180056,4.26911  L0.145491,4.18512  L0.114706,4.10224  L0.0876529,4.02034  L0.0642909,3.9393  L0.0445835,3.85898  L0.0285006,3.77928  L0.0160172,3.70006  L0.00711418,3.62121  L0.00177786,3.54259  L4.97209e-15,3.4641 " /><path d="M4.97209e-15,3.4641 L0.00177786,3.38561  L0.00711418,3.307  L0.0160172,3.22814  L0.0285006,3.14892  L0.0445835,3.06922  L0.0642909,2.98891  L0.0876529,2.90786  L0.114706,2.82596  L0.145491,2.74308  L0.180056,2.65909  L0.218453,2.57386  L0.260743,2.48725  L0.30699,2.39915  L0.357265,2.3094 " /><path d="M3.59712e-15,2.7 L3.50694e-15,2.63231  L3.2409e-15,2.43262  L2.81234e-15,2.11095  L2.24277e-15,1.68342  L1.56073e-15,1.17149  L8.00435e-16,0.600807  L4.4052e-31,3.30655e-16  L-8.00435e-16,-0.600807  L-1.56073e-15,-1.17149  L-2.24277e-15,-1.68342  L-2.81234e-15,-2.11095  L-3.2409e-15,-2.43262  L-3.50694e-15,-2.63231  L-3.59712e-15,-2.7 " /><path d="M4.61511e-15,3.4641 L4.40308e-15,3.30496  L4.16644e-15,3.12733  L3.90649e-15,2.93221  L3.62469e-15,2.72069  L3.32262e-15,2.49396  L3.00197e-15,2.25328  L2.66454e-15,2  L2.3122e-15,1.73553  L1.94693e-15,1.46136  L1.57077e-15,1.17902  L1.18583e-15,0.890084  L7.94257e-16,0.596169  L3.98242e-16,0.29892  L-1.76274e-29,-1.32311e-14 " /><path d="M0,0 L-3.98242e-16,-0.29892  L-7.94257e-16,-0.596169  L-1.18583e-15,-0.890084  L-1.57077e-15,-1.17902  L-1.94693e-15,-1.46136  L-2.3122e-15,-1.73553  L-2.66454e-15,-2  L-3.00197e-15,-2.25328  L-3.32262e-15,-2.49396  L-3.62469e-15,-2.72069  L-3.90649e-15,-2.93221  L-4.16644e-15,-3.12733  L-4.40308e-15,-3.30496  L-4.61511e-15,-3.4641 " /><path d="M-4.61511e-15,-3.4641 L-4.71151e-15,-3.53646  L-4.80133e-15,-3.60388  L-4.88442e-15,-3.66625  L-4.96069e-15,-3.72349  L-5.03002e-15,-3.77553  L-5.09231e-15,-3.82229  L-5.14749e-15,-3.8637  L-5.19546e-15,-3.89971  L-5.23617e-15,-3.93027  L-5.26955e-15,-3.95532  L-5.29556e-15,-3.97485  L-5.31417e-15,-3.98882  L-5.32534e-15,-3.9972  L-5.32907e-15,-4 " /><path d="M5.32907e-15,4 L5.32534e-15,3.9972  L5.31417e-15,3.98882  L5.29556e-15,3.97485  L5.26955e-15,3.95532  L5.23617e-15,3.93027  L5.19546e-15,3.89971  L5.14749e-15,3.8637  L5.09231e-15,3.82229  L5.03002e-15,3.77553  L4.96069e-15,3.72349  L4.88442e-15,3.66625  L4.80133e-15,3.60388  L4.71151e-15,3.53646  L4.61511e-15,3.4641 " /></g>
</g>



<g id="Ortho_0_1"
   transform="rotate(90,87.7293,70) translate(87.7293,70) scale(1,1)"
  >
<g   stroke="rgb(0, 0, 0)"
   stroke-width="0.35"
   stroke-linecap="butt"
   stroke-linejoin="miter"
   fill="none"
   transform="scale(1,-1)"
  >
<circle cx ="0" cy ="5.32907e-15" r ="2.7" /><path d="M4 6.21725e-15 A4 4 0 0 1 2 3.4641" /><path d="M2 -3.4641 A4 4 0 0 1 4 1.94484e-14" /><path d="M2 3.4641 A4 4 0 0 1 -2 3.4641" /><path d="M-2 -3.4641 A4 4 0 0 1 2 -3.4641" /><path d="M-2 3.4641 A4 4 0 0 1 -4 1.73652e-14" /><path d="M-4 1.73652e-14 A4 4 0 0 1 -2 -3.4641" /><circle cx ="0" cy ="5.06262e-15" r ="2.5" /><path d="M4,2.3094 L4,2.12991  L4,1.9537  L4,1.78049  L4,1.61003  L4,1.44204  L4,1.27628  L4,1.11248  L4,0.95039  L4,0.789766  L4,0.630359  L4,0.471922  L4,0.314211  L4,0.156985  L4,6.21725e-15 " /><path d="M2,3.4641 L2.13595,3.38561  L2.27212,3.307  L2.4087,3.22814  L2.54591,3.14892  L2.68396,3.06922  L2.82306,2.98891  L2.96343,2.90786  L3.10529,2.82596  L3.24884,2.74308  L3.39432,2.65909  L3.54195,2.57386  L3.69195,2.48725  L3.84455,2.39915  L4,2.3094 " /><path d="M4,-2.3094 L3.84455,-2.39915  L3.69195,-2.48725  L3.54195,-2.57386  L3.39432,-2.65909  L3.24884,-2.74308  L3.10529,-2.82596  L2.96343,-2.90786  L2.82306,-2.98891  L2.68396,-3.06922  L2.54591,-3.14892  L2.4087,-3.22814  L2.27212,-3.307  L2.13595,-3.38561  L2,-3.4641 " /><path d="M4,5.23753e-15 L4,-0.156985  L4,-0.314211  L4,-0.471922  L4,-0.630359  L4,-0.789766  L4,-0.95039  L4,-1.11248  L4,-1.27628  L4,-1.44204  L4,-1.61003  L4,-1.78049  L4,-1.9537  L4,-2.12991  L4,-2.3094 " /><path d="M0,4.6188 L0.155445,4.52906  L0.30805,4.44095  L0.458051,4.35435  L0.605677,4.26911  L0.751156,4.18512  L0.894712,4.10224  L1.03657,4.02034  L1.17694,3.9393  L1.31604,3.85898  L1.45409,3.77928  L1.5913,3.70006  L1.72788,3.62121  L1.86405,3.54259  L2,3.4641 " /><path d="M-2,3.4641 L-1.86405,3.54259  L-1.72788,3.62121  L-1.5913,3.70006  L-1.45409,3.77928  L-1.31604,3.85898  L-1.17694,3.9393  L-1.03657,4.02034  L-0.894712,4.10224  L-0.751156,4.18512  L-0.605677,4.26911  L-0.458051,4.35435  L-0.30805,4.44095  L-0.155445,4.52906  L1.33227e-15,4.6188 " /><path d="M0,-4.6188 L-0.155445,-4.52906  L-0.30805,-4.44095  L-0.458051,-4.35435  L-0.605677,-4.26911  L-0.751156,-4.18512  L-0.894712,-4.10224  L-1.03657,-4.02034  L-1.17694,-3.9393  L-1.31604,-3.85898  L-1.45409,-3.77928  L-1.5913,-3.70006  L-1.72788,-3.62121  L-1.86405,-3.54259  L-2,-3.4641 " /><path d="M2,-3.4641 L1.86405,-3.54259  L1.72788,-3.62121  L1.5913,-3.70006  L1.45409,-3.77928  L1.31604,-3.85898  L1.17694,-3.9393  L1.03657,-4.02034  L0.894712,-4.10224  L0.751156,-4.18512  L0.605677,-4.26911  L0.458051,-4.35435  L0.30805,-4.44095  L0.155445,-4.52906  L-1.33227e-15,-4.6188 " /><path d="M-4,2.3094 L-3.84455,2.39915  L-3.69195,2.48725  L-3.54195,2.57386  L-3.39432,2.65909  L-3.24884,2.74308  L-3.10529,2.82596  L-2.96343,2.90786  L-2.82306,2.98891  L-2.68396,3.06922  L-2.54591,3.14892  L-2.4087,3.22814  L-2.27212,3.307  L-2.13595,3.38561  L-2,3.4641 " /><path d="M-4,2.26943e-14 L-4,0.156985  L-4,0.314211  L-4,0.471922  L-4,0.630359  L-4,0.789766  L-4,0.95039  L-4,1.11248  L-4,1.27628  L-4,1.44204  L-4,1.61003  L-4,1.78049  L-4,1.9537  L-4,2.12991  L-4,2.3094 " /><path d="M-4,-2.3094 L-4,-2.12991  L-4,-1.9537  L-4,-1.78049  L-4,-1.61003  L-4,-1.44204  L-4,-1.27628  L-4,-1.11248  L-4,-0.95039  L-4,-0.789766  L-4,-0.630359  L-4,-0.471922  L-4,-0.314211  L-4,-0.156985  L-4,2.26943e-14 " /><path d="M-2,-3.4641 L-2.13595,-3.38561  L-2.27212,-3.307  L-2.4087,-3.22814  L-2.54591,-3.14892  L-2.68396,-3.06922  L-2.82306,-2.98891  L-2.96343,-2.90786  L-3.10529,-2.82596  L-3.24884,-2.74308  L-3.39432,-2.65909  L-3.54195,-2.57386  L-3.69195,-2.48725  L-3.84455,-2.39915  L-4,-2.3094 " /></g>
</g>



<g id="Ortho_1_0"
   transform="rotate(-90,215.459,162) translate(215.459,162) scale(1,1)"
  >
<g   stroke="rgb(0, 0, 0)"
   stroke-width="0.35"
   stroke-linecap="butt"
   stroke-linejoin="miter"
   fill="none"
   transform="scale(1,-1)"
  >
<path d="M4,2.7 L4,2.63231  L4,2.43262  L4,2.11095  L4,1.68342  L4,1.17149  L4,0.600807  L4,-4.30018e-15  L4,-0.600807  L4,-1.17149  L4,-1.68342  L4,-2.11095  L4,-2.43262  L4,-2.63231  L4,-2.7 " /><path d="M4,4 L4,3.98882  L4,3.95532  L4,3.89971  L4,3.82229  L4,3.72349  L4,3.60388  L4,3.4641  L4,3.30496  L4,3.12733  L4,2.93221  L4,2.72069  L4,2.49396  L4,2.25328  L4,2 " /><path d="M4,2 L4,1.73553  L4,1.46136  L4,1.17902  L4,0.890084  L4,0.596169  L4,0.29892  L4,-1.21896e-14  L4,-0.29892  L4,-0.596169  L4,-0.890084  L4,-1.17902  L4,-1.46136  L4,-1.73553  L4,-2 " /><path d="M4,-2 L4,-2.25328  L4,-2.49396  L4,-2.72069  L4,-2.93221  L4,-3.12733  L4,-3.30496  L4,-3.4641  L4,-3.60388  L4,-3.72349  L4,-3.82229  L4,-3.89971  L4,-3.95532  L4,-3.98882  L4,-4 " /><path d="M3.64273,4 L3.69301,4  L3.73926,4  L3.78155,4  L3.81994,4  L3.85451,4  L3.88529,4  L3.91235,4  L3.93571,4  L3.95542,4  L3.9715,4  L3.98398,4  L3.99289,4  L3.99822,4  L4,4 " /><path d="M4,2 L3.99822,2.13595  L3.99289,2.27212  L3.98398,2.4087  L3.9715,2.54591  L3.95542,2.68396  L3.93571,2.82306  L3.91235,2.96343  L3.88529,3.10529  L3.85451,3.24884  L3.81994,3.39432  L3.78155,3.54195  L3.73926,3.69195  L3.69301,3.84455  L3.64273,4 " /><path d="M3.64273,0 L3.69301,0.155445  L3.73926,0.30805  L3.78155,0.458051  L3.81994,0.605677  L3.85451,0.751156  L3.88529,0.894712  L3.91235,1.03657  L3.93571,1.17694  L3.95542,1.31604  L3.9715,1.45409  L3.98398,1.5913  L3.99289,1.72788  L3.99822,1.86405  L4,2 " /><path d="M4,-2 L3.99822,-1.86405  L3.99289,-1.72788  L3.98398,-1.5913  L3.9715,-1.45409  L3.95542,-1.31604  L3.93571,-1.17694  L3.91235,-1.03657  L3.88529,-0.894712  L3.85451,-0.751156  L3.81994,-0.605677  L3.78155,-0.458051  L3.73926,-0.30805  L3.69301,-0.155445  L3.64273,1.33227e-15 " /><path d="M3.64273,-4 L3.69301,-3.84455  L3.73926,-3.69195  L3.78155,-3.54195  L3.81994,-3.39432  L3.85451,-3.24884  L3.88529,-3.10529  L3.91235,-2.96343  L3.93571,-2.82306  L3.95542,-2.68396  L3.9715,-2.54591  L3.98398,-2.4087  L3.99289,-2.27212  L3.99822,-2.13595  L4,-2 " /><path d="M4,-4 L3.99822,-4  L3.99289,-4  L3.98398,-4  L3.9715,-4  L3.95542,-4  L3.93571,-4  L3.91235,-4  L3.88529,-4  L3.85451,-4  L3.81994,-4  L3.78155,-4  L3.73926,-4  L3.69301,-4  L3.64273,-4 " /><path d="M4.44089e-16,4 L0.00177786,4  L0.00711418,4  L0.0160172,4  L0.0285006,4  L0.0445835,4  L0.0642909,4  L0.0876529,4  L0.114706,4  L0.145491,4  L0.180056,4  L0.218453,4  L0.260743,4  L0.30699,4  L0.357265,4 " /><path id= "12" d=" M 3.64273 4 L 0.357265 4 " />
<path d="M0.357265,4 L0.30699,3.84455  L0.260743,3.69195  L0.218453,3.54195  L0.180056,3.39432  L0.145491,3.24884  L0.114706,3.10529  L0.0876529,2.96343  L0.0642909,2.82306  L0.0445835,2.68396  L0.0285006,2.54591  L0.0160172,2.4087  L0.00711418,2.27212  L0.00177786,2.13595  L-4.08391e-15,2 " /><path d="M-4.08391e-15,2 L0.00177786,1.86405  L0.00711418,1.72788  L0.0160172,1.5913  L0.0285006,1.45409  L0.0445835,1.31604  L0.0642909,1.17694  L0.0876529,1.03657  L0.114706,0.894712  L0.145491,0.751156  L0.180056,0.605677  L0.218453,0.458051  L0.260743,0.30805  L0.30699,0.155445  L0.357265,0 " /><path id= "15" d=" M 3.64273 0 L 0.357265 0 " />
<path d="M0.357265,1.33227e-15 L0.30699,-0.155445  L0.260743,-0.30805  L0.218453,-0.458051  L0.180056,-0.605677  L0.145491,-0.751156  L0.114706,-0.894712  L0.0876529,-1.03657  L0.0642909,-1.17694  L0.0445835,-1.31604  L0.0285006,-1.45409  L0.0160172,-1.5913  L0.00711418,-1.72788  L0.00177786,-1.86405  L-4.08391e-15,-2 " /><path d="M-4.08391e-15,-2 L0.00177786,-2.13595  L0.00711418,-2.27212  L0.0160172,-2.4087  L0.0285006,-2.54591  L0.0445835,-2.68396  L0.0642909,-2.82306  L0.0876529,-2.96343  L0.114706,-3.10529  L0.145491,-3.24884  L0.180056,-3.39432  L0.218453,-3.54195  L0.260743,-3.69195  L0.30699,-3.84455  L0.357265,-4 " /><path id= "18" d=" M 3.64273 -4 L 0.357265 -4 " />
<path d="M0.357265,-4 L0.30699,-4  L0.260743,-4  L0.218453,-4  L0.180056,-4  L0.145491,-4  L0.114706,-4  L0.0876529,-4  L0.0642909,-4  L0.0445835,-4  L0.0285006,-4  L0.0160172,-4  L0.00711418,-4  L0.00177786,-4  L4.44089e-16,-4 " /><path d="M5.23285e-30,2.7 L-1.89179e-16,2.69626  L-3.77834e-16,2.68506  L-5.65444e-16,2.66643  L-7.51488e-16,2.64042  L-9.35453e-16,2.6071  L-1.11683e-15,2.56657  L-1.29511e-15,2.51893  L-1.46981e-15,2.46432  L-1.64044e-15,2.40289  L-1.80653e-15,2.3348  L-1.96763e-15,2.26026  L-2.12327e-15,2.17946  L-2.27304e-15,2.09262  L-2.41651e-15,2 " /><path d="M0,4 L-3.98242e-16,3.98882  L-7.94257e-16,3.95532  L-1.18583e-15,3.89971  L-1.57077e-15,3.82229  L-1.94693e-15,3.72349  L-2.3122e-15,3.60388  L-2.66454e-15,3.4641  L-3.00197e-15,3.30496  L-3.32262e-15,3.12733  L-3.62469e-15,2.93221  L-3.90649e-15,2.72069  L-4.16644e-15,2.49396  L-4.40308e-15,2.25328  L-4.61511e-15,2 " /><path d="M-4.61511e-15,2 L-4.80133e-15,1.73553  L-4.96069e-15,1.46136  L-5.09231e-15,1.17902  L-5.19546e-15,0.890084  L-5.26955e-15,0.596169  L-5.31417e-15,0.29892  L-5.32907e-15,-1.13014e-14  L-5.31417e-15,-0.29892  L-5.26955e-15,-0.596169  L-5.19546e-15,-0.890084  L-5.09231e-15,-1.17902  L-4.96069e-15,-1.46136  L-4.80133e-15,-1.73553  L-4.61511e-15,-2 " /><path d="M-4.61511e-15,-2 L-4.40308e-15,-2.25328  L-4.16644e-15,-2.49396  L-3.90649e-15,-2.72069  L-3.62469e-15,-2.93221  L-3.32262e-15,-3.12733  L-3.00197e-15,-3.30496  L-2.66454e-15,-3.4641  L-2.3122e-15,-3.60388  L-1.94693e-15,-3.72349  L-1.57077e-15,-3.82229  L-1.18583e-15,-3.89971  L-7.94257e-16,-3.95532  L-3.98242e-16,-3.98882  L-1.72187e-29,-4 " /></g>
</g>



</svg>

